<svg width="307" height="195" viewBox="0 0 307 195" fill="none" xmlns="http://www.w3.org/2000/svg">
<path d="M2 51H307V195H2V51Z" fill="#22DEAC"/>
<path d="M13.0435 172.963L17.0194 161.444L19.135 161.437L23.1891 172.929L20.9963 172.936L20.2944 170.89L15.9243 170.905L15.2363 172.956L13.0435 172.963ZM18.0953 164.482L16.6276 168.853L19.5926 168.843L18.0953 164.482ZM25.5332 172.921L22.0583 163.712L24.2356 163.705L26.5895 170.191L28.8529 163.689L30.9994 163.682L27.6334 172.914L25.5332 172.921ZM35.5823 173.076C32.741 173.086 30.8035 170.98 30.7945 168.317C30.7853 165.621 32.8319 163.487 35.4725 163.478C38.1595 163.468 40.1275 165.479 40.1368 168.206L40.1395 169.01L32.789 169.035C33.0868 170.342 34.0935 171.205 35.576 171.2C36.7496 171.196 37.6431 170.563 38.0721 169.569L39.7896 170.571C39.0072 172.071 37.6207 173.069 35.5823 173.076ZM35.4789 165.353C34.2281 165.357 33.2578 166.117 32.891 167.253L38.0179 167.236C37.7048 165.992 36.7761 165.349 35.4789 165.353ZM40.8205 171.782C40.8178 171.009 41.2948 170.487 42.0823 170.485C42.8699 170.482 43.3349 171.001 43.3376 171.773C43.3401 172.53 42.8632 173.051 42.0756 173.054C41.2881 173.057 40.823 172.538 40.8205 171.782ZM48.4382 173.032C46.2609 173.04 43.9849 171.282 43.9746 168.256C43.9642 165.198 46.1511 163.441 48.4365 163.434C49.6256 163.43 50.6773 163.915 51.3441 164.716L51.3403 163.613L53.425 163.606L53.4563 172.826L51.3716 172.833L51.3675 171.635C50.7065 172.505 49.6273 173.028 48.4382 173.032ZM48.7713 171.077C50.331 171.072 51.4694 169.791 51.464 168.199C51.4586 166.623 50.3116 165.366 48.7519 165.371C47.2077 165.376 46.0229 166.626 46.0283 168.218C46.0338 169.825 47.2271 171.082 48.7713 171.077ZM54.6438 172.822L54.6125 163.602L56.7127 163.595L56.744 172.815L54.6438 172.822ZM54.3424 161.349C54.3396 160.545 54.8474 160.007 55.6504 160.005C56.4688 160.002 56.9648 160.536 56.9675 161.34C56.9703 162.144 56.4779 162.665 55.6594 162.668C54.8101 162.671 54.3451 162.153 54.3424 161.349Z" fill="#000515"/>
<path d="M290 177.465L297 166.982H290L281.5 156L275 166.982L267 156L261 166.982L253 156L246 166.982H254.5L261 177.465L267 167.98L275 177.465L281.5 167.98L290 177.465Z" fill="#FFFFFD"/>
<path fill-rule="evenodd" clip-rule="evenodd" d="M254.5 167L260.989 177.465L266.989 167.98L274.989 177.465L281.489 167.98L289.989 177.465L296.977 167H254.5Z" fill="#000515"/>
<path d="M46.3636 35H262.636L307 51H2L46.3636 35Z" fill="#40F2C3"/>
<g clip-path="url(#clip0_390_1025)">
<path d="M31.8332 10.1737C31.8961 9.72297 31.573 9.91081 31.3753 9.89098C29.3045 7.30267 28.7772 4.2517 28.8154 0.65392C26.4216 4.76829 22.705 6.6402 18.7207 8.34634C20.2196 9.15017 21.5725 9.79495 21.9333 11.4477C10.8055 15.8996 5.16877 27.6474 8.71981 39.1926C9.16033 40.6288 8.94282 41.5024 7.92184 42.5571C5.95343 44.588 4.13616 46.7778 2.3082 48.9475C1.90266 49.4336 1.05155 49.8917 1.55069 50.7293C1.99122 51.4615 2.80464 51.2749 3.48997 51.2042C6.93123 50.8299 10.3777 50.4605 13.8114 49.9997C15.0954 49.8302 16.0883 50.0874 17.1721 50.8674C25.0274 56.5394 35.6272 56.4033 43.4317 50.6235C51.1471 44.9125 54.3746 34.8053 51.4446 25.5278C48.6593 16.7105 39.9935 9.91899 31.7965 10.1289L31.8282 10.1739L31.8332 10.1737Z" fill="#FEFEFD"/>
<path d="M51.4498 25.5277C48.6644 16.7104 39.9986 9.91891 31.8017 10.1288C32.041 11.2443 23.0505 13.2115 21.9334 11.4478C10.8056 15.8997 5.16887 27.6475 8.71991 39.1927C9.16043 40.6289 8.94292 41.5024 7.92194 42.5572C5.95353 44.588 4.13626 46.7778 2.3083 48.9475C1.90276 49.4336 1.05165 49.8917 1.5508 50.7294C1.99132 51.4616 2.80474 51.2749 3.49008 51.2043C6.93133 50.8299 10.3778 50.4606 13.8115 49.9998C15.0955 49.8302 16.0884 50.0874 17.1722 50.8675C25.0275 56.5394 35.6273 56.4034 43.4318 50.6236C51.1472 44.9126 54.3747 34.8053 51.4447 25.5279L51.4498 25.5277Z" fill="#FDC402"/>
<path d="M22.9268 17.8883C23.1873 15.8707 22.9603 13.4234 21.9281 11.448C21.2638 10.3141 20.2146 9.15557 18.7156 8.34664C22.6998 6.6405 26.4165 4.76859 28.8103 0.654218C28.767 4.25215 30.7553 8.8988 32.8053 10.9418C31.3293 10.5812 24.455 15.1354 22.9268 17.8883Z" fill="#40F2C3"/>
<path d="M26.2932 22.6432L28.7986 24.3517L23.9273 28.6087L21.4891 35.9282L18.9065 34.1708L21.2283 27.7271L17.5454 33.2406L15.0659 31.5517L22.664 20.1711L25.1281 21.8502L22.0899 26.4014L26.288 22.6382L26.2932 22.6432Z" fill="#000515"/>
<path d="M22.02 36.2905L29.6181 24.9098L32.0255 26.5498L24.4274 37.9304L22.02 36.2905Z" fill="#000515"/>
<path d="M39.3814 31.5473L31.7832 42.928L29.3449 41.2685L31.9015 34.7262L28.0975 40.4218L25.6643 38.7622L33.2624 27.3815L35.8244 29.1241L33.3345 35.3483L36.9688 29.9024L39.3762 31.5424L39.3814 31.5473Z" fill="#000515"/>
<path d="M38.0313 47.1871L38.2481 45.936C37.3152 46.3608 36.3924 46.2597 35.4647 45.6333C33.6656 44.4096 33.5486 42.6223 35.1188 40.2763L38.409 35.3454C38.7676 34.8097 39.1547 34.3853 39.5604 34.0829C39.9564 33.7909 40.3349 33.5964 40.6962 33.5044C41.058 33.4328 41.427 33.4324 41.798 33.5033C42.1996 33.5836 42.526 33.6865 42.7723 33.8172C43.0078 33.9226 43.2854 34.083 43.5947 34.2935C43.9092 34.509 44.2092 34.7503 44.4947 35.0125C44.7654 35.2853 44.9544 35.5299 45.0667 35.746C45.2052 35.9921 45.3082 36.234 45.3806 36.4666C45.4427 36.6944 45.465 36.9437 45.4477 37.2197C45.4061 37.5321 45.3574 37.7733 45.307 37.9533C45.2574 38.1639 45.1537 38.4219 44.9961 38.7428C44.8575 39.0222 44.7134 39.2815 44.5686 39.5203C44.4289 39.759 44.2599 40.0342 44.0514 40.3412L41.6698 38.7209L42.2707 37.8211C42.3871 37.6494 42.4684 37.4889 42.5145 37.3345C42.5607 37.1853 42.5623 37.0628 42.5192 36.9722C42.4966 36.8861 42.454 36.8108 42.4016 36.746C42.3646 36.6909 42.3074 36.6365 42.2302 36.5877C42.0963 36.4997 41.9681 36.437 41.846 36.4099C41.7292 36.3878 41.6332 36.3905 41.5532 36.4183C41.4576 36.4364 41.3487 36.516 41.2315 36.6571C41.119 36.7879 41.0116 36.9185 40.9092 37.049C40.846 37.1376 40.7004 37.3458 40.4823 37.6735L37.5459 42.0738C37.4344 42.2403 37.3476 42.3856 37.2854 42.5098C37.2227 42.6137 37.1661 42.7531 37.1157 42.9331C37.0697 43.0925 37.0689 43.2405 37.1181 43.3717C37.1677 43.5132 37.2722 43.6326 37.4217 43.7354C37.6693 43.9069 37.9072 43.9205 38.1207 43.7868C38.3388 43.6377 38.5932 43.3447 38.8837 42.9027L39.7608 41.5868L39.0957 41.1314L40.4089 39.1653L43.4245 41.2163L38.9954 47.8481L38.0263 47.1872L38.0313 47.1871Z" fill="#000515"/>
</g>
<defs>
<clipPath id="clip0_390_1025">
<rect width="51.6173" height="54.4074" fill="white" transform="translate(0 1.48145) rotate(-1.64485)"/>
</clipPath>
</defs>
</svg>
