<svg width="1000" height="116" viewBox="0 0 1000 116" fill="none" xmlns="http://www.w3.org/2000/svg">
<path d="M0 0H1000V116H0V0Z" fill="black"/>
<path d="M331.661 74.7618L329.165 70.5284H293.297L311.259 39.2363L306.569 31H300.517C299.217 31.0029 297.941 31.3532 296.82 32.015C295.699 32.6767 294.772 33.6263 294.135 34.7668L283.281 54.0503C282.65 55.1633 282.318 56.4229 282.318 57.7046C282.318 58.9863 282.65 60.2458 283.281 61.3589L290.88 74.8517L294.135 80.6312C294.693 81.6225 295.471 82.4703 296.409 83.1082C297.346 83.746 298.418 84.1567 299.54 84.308C299.861 84.3532 300.186 84.3758 300.511 84.3754H321.979C323.278 84.3761 324.555 84.03 325.678 83.3722C326.801 82.7144 327.731 81.7687 328.372 80.6312L331.605 74.8517L331.661 74.7618Z" fill="url(#paint0_linear_6313_766)"/>
<path d="M331.722 74.7618L331.66 74.8686L328.422 80.6256C327.783 81.763 326.855 82.709 325.734 83.3669C324.613 84.0248 323.338 84.3708 322.04 84.3698H300.572C300.247 84.3701 299.922 84.3476 299.6 84.3024C298.477 84.1523 297.403 83.7422 296.464 83.1043C295.524 82.4664 294.744 81.618 294.184 80.6256L290.94 74.8518L293.419 70.5341L293.548 70.4553L305.586 63.1467C307.445 61.9324 308.835 61.2184 310.153 60.9935C310.183 60.9908 310.213 60.9908 310.242 60.9935L310.499 60.9598L310.946 60.926H311.214C311.429 60.9319 311.643 60.9488 311.856 60.9766C313.224 61.1622 314.687 61.8537 316.686 63.0118L329.159 70.4835L329.231 70.5284L331.722 74.7618Z" fill="url(#paint1_linear_6313_766)"/>
<path d="M339.279 61.3589L331.668 74.8517L331.73 74.7449L329.228 70.5284L311.361 39.1969V39.2363L306.632 31H322.048C323.348 31.0037 324.624 31.3542 325.746 32.0158C326.868 32.6775 327.796 33.6267 328.436 34.7667L339.279 54.0503C339.907 55.1642 340.237 56.4234 340.237 57.7046C340.237 58.9857 339.907 60.2449 339.279 61.3589Z" fill="url(#paint2_linear_6313_766)"/>
<path d="M283.281 61.3589L290.896 74.8517L290.835 74.7449L293.331 70.5115L311.198 39.18V39.2194L315.938 31H300.517C299.217 31.0029 297.941 31.3532 296.82 32.015C295.699 32.6767 294.772 33.6263 294.135 34.7667L283.281 54.0503C282.65 55.1633 282.318 56.4229 282.318 57.7046C282.318 58.9863 282.65 60.2458 283.281 61.3589Z" fill="url(#paint3_linear_6313_766)"/>
<path d="M357.519 74.476L369.133 41.6434H375.252L386.865 74.476H380.523L378.513 68.6291H365.872L363.862 74.476H357.519ZM372.215 50.3238L367.927 62.7822H376.503L372.215 50.3238ZM393.646 74.476L383.685 48.165H389.983L396.728 66.6951L403.339 48.165H409.547L399.721 74.476H393.646ZM422.711 75.0157C414.493 75.0157 408.909 68.9889 408.909 61.3879C408.909 53.697 414.85 47.6252 422.488 47.6252C430.26 47.6252 435.933 53.3822 435.933 61.1631V63.4568H414.671C415.52 67.1899 418.423 69.6635 422.711 69.6635C426.106 69.6635 428.697 67.8645 429.948 65.031L434.906 67.9095C432.628 72.1822 428.607 75.0157 422.711 75.0157ZM422.488 52.9774C418.87 52.9774 416.056 55.1363 414.984 58.3745H429.814C428.92 54.8214 426.24 52.9774 422.488 52.9774ZM437.875 71.3726C437.875 69.1688 439.26 67.6846 441.538 67.6846C443.816 67.6846 445.156 69.1688 445.156 71.3726C445.156 73.5315 443.771 75.0157 441.493 75.0157C439.215 75.0157 437.875 73.5315 437.875 71.3726ZM459.897 75.0157C453.599 75.0157 447.033 69.9784 447.033 61.343C447.033 52.6176 453.376 47.6252 459.987 47.6252C463.426 47.6252 466.464 49.0195 468.384 51.3133V48.165H474.414V74.476H468.384V71.0578C466.464 73.5315 463.337 75.0157 459.897 75.0157ZM460.88 69.4387C465.392 69.4387 468.697 65.7956 468.697 61.253C468.697 56.7554 465.392 53.1573 460.88 53.1573C456.413 53.1573 452.974 56.7104 452.974 61.253C452.974 65.8406 456.413 69.4387 460.88 69.4387ZM477.849 74.476V48.165H483.924V74.476H477.849ZM477.09 41.7334C477.09 39.4396 478.564 37.9104 480.887 37.9104C483.254 37.9104 484.683 39.4396 484.683 41.7334C484.683 44.0272 483.254 45.5114 480.887 45.5114C478.43 45.5114 477.09 44.0272 477.09 41.7334Z" fill="white"/>
<path d="M538.982 43.7697H540.088V46.0377H538.982V43.7697ZM533.76 45.2677H545.45V48.2777H544.344V46.2477H534.824V48.2777H533.76V45.2677ZM538.436 46.8777L539.514 47.1157C539.262 47.657 538.982 48.2264 538.674 48.8237C538.376 49.4117 538.068 50.009 537.75 50.6157C537.442 51.213 537.139 51.7824 536.84 52.3237C536.542 52.865 536.271 53.3504 536.028 53.7797L534.936 53.4857C535.198 53.0657 535.478 52.585 535.776 52.0437C536.084 51.493 536.397 50.919 536.714 50.3217C537.032 49.7244 537.335 49.1317 537.624 48.5437C537.923 47.9464 538.194 47.391 538.436 46.8777ZM542.132 49.7897L543.294 49.9577C543.014 51.0404 542.613 51.9644 542.09 52.7297C541.577 53.495 540.942 54.139 540.186 54.6617C539.44 55.175 538.576 55.5904 537.596 55.9077C536.616 56.2344 535.524 56.4957 534.32 56.6917C534.292 56.5984 534.236 56.491 534.152 56.3697C534.078 56.2577 533.998 56.141 533.914 56.0197C533.84 55.9077 533.765 55.8144 533.69 55.7397C535.277 55.5344 536.644 55.217 537.792 54.7877C538.94 54.349 539.878 53.733 540.606 52.9397C541.334 52.137 541.843 51.087 542.132 49.7897ZM533.368 49.1457H545.8V50.1397H533.368V49.1457ZM535.762 52.9817L536.462 52.2397C537.209 52.445 537.984 52.6877 538.786 52.9677C539.589 53.2477 540.378 53.551 541.152 53.8777C541.936 54.195 542.669 54.5217 543.35 54.8577C544.041 55.1844 544.634 55.5064 545.128 55.8237L544.344 56.6917C543.878 56.3744 543.308 56.043 542.636 55.6977C541.974 55.3617 541.25 55.0257 540.466 54.6897C539.692 54.3537 538.898 54.041 538.086 53.7517C537.284 53.4624 536.509 53.2057 535.762 52.9817ZM553.654 44.8057C553.374 45.2257 553.024 45.669 552.604 46.1357C552.194 46.593 551.736 47.0504 551.232 47.5077C550.728 47.965 550.192 48.4037 549.622 48.8237C549.062 49.2437 548.488 49.6264 547.9 49.9717C547.826 49.8504 547.723 49.7104 547.592 49.5517C547.471 49.3837 547.35 49.2484 547.228 49.1457C548.04 48.6977 548.82 48.1704 549.566 47.5637C550.322 46.957 551.004 46.3224 551.61 45.6597C552.217 44.997 552.702 44.3624 553.066 43.7557H554.13C554.494 44.2784 554.914 44.7917 555.39 45.2957C555.866 45.7997 556.375 46.2804 556.916 46.7377C557.458 47.195 558.008 47.615 558.568 47.9977C559.138 48.3804 559.693 48.707 560.234 48.9777C560.104 49.1084 559.978 49.2577 559.856 49.4257C559.735 49.5844 559.628 49.743 559.534 49.9017C559.002 49.5844 558.452 49.225 557.882 48.8237C557.322 48.4224 556.781 47.9977 556.258 47.5497C555.736 47.0924 555.25 46.6304 554.802 46.1637C554.354 45.697 553.972 45.2444 553.654 44.8057ZM548.922 52.0717H558.47V53.0097H548.922V52.0717ZM549.552 48.9497H557.938V49.8877H549.552V48.9497ZM547.774 55.3197H559.716V56.2717H547.774V55.3197ZM553.122 49.3417H554.214V55.8517H553.122V49.3417ZM564.672 56.3277C564.374 55.9544 564.047 55.581 563.692 55.2077C563.338 54.8344 562.978 54.475 562.614 54.1297C562.26 53.7844 561.914 53.4764 561.578 53.2057L562.488 52.4077C562.824 52.6784 563.179 52.991 563.552 53.3457C563.926 53.7004 564.29 54.0644 564.644 54.4377C565.008 54.811 565.335 55.1704 565.624 55.5157L564.672 56.3277ZM575.774 48.0117H587.996V49.0337H575.774V48.0117ZM576.908 45.3517H586.988V46.3457H576.908V45.3517ZM579.26 50.6017H586.106V51.5817H579.26V50.6017ZM585.784 50.6017H585.994L586.176 50.5317L586.974 51.0077C586.592 51.409 586.158 51.8477 585.672 52.3237C585.196 52.7997 584.702 53.2897 584.188 53.7937C583.684 54.2884 583.194 54.7597 582.718 55.2077L581.794 54.6477C582.261 54.2184 582.746 53.761 583.25 53.2757C583.754 52.781 584.23 52.3097 584.678 51.8617C585.126 51.4137 585.495 51.0357 585.784 50.7277V50.6017ZM578.588 54.0597L579.19 53.2897C579.704 53.439 580.254 53.6117 580.842 53.8077C581.43 54.0037 582.014 54.2137 582.592 54.4377C583.171 54.6617 583.712 54.8904 584.216 55.1237C584.73 55.3477 585.168 55.567 585.532 55.7817L584.902 56.6777C584.557 56.463 584.137 56.239 583.642 56.0057C583.148 55.7724 582.611 55.539 582.032 55.3057C581.463 55.063 580.88 54.8344 580.282 54.6197C579.694 54.405 579.13 54.2184 578.588 54.0597ZM580.94 43.7557L582.018 43.8957C581.841 44.521 581.645 45.1837 581.43 45.8837C581.216 46.5744 580.996 47.2697 580.772 47.9697C580.548 48.6604 580.329 49.3184 580.114 49.9437C579.909 50.5597 579.718 51.1057 579.54 51.5817H578.434C578.63 51.0777 578.836 50.5084 579.05 49.8737C579.274 49.2297 579.498 48.553 579.722 47.8437C579.956 47.1344 580.175 46.4297 580.38 45.7297C580.595 45.0297 580.782 44.3717 580.94 43.7557ZM589.97 54.8997H602.332V55.9357H589.97V54.8997ZM593.89 43.9517H594.968V55.3337H593.89V43.9517ZM597.32 43.9657H598.384V55.4037H597.32V43.9657ZM601.086 47.0457L602.038 47.4937C601.814 48.0257 601.567 48.5857 601.296 49.1737C601.026 49.7617 600.746 50.331 600.456 50.8817C600.167 51.423 599.892 51.913 599.63 52.3517L598.762 51.9037C599.024 51.4744 599.299 50.9797 599.588 50.4197C599.878 49.8597 600.153 49.2857 600.414 48.6977C600.676 48.1097 600.9 47.559 601.086 47.0457ZM590.278 47.2977L591.258 47.0037C591.51 47.517 591.762 48.0724 592.014 48.6697C592.266 49.267 592.5 49.8457 592.714 50.4057C592.938 50.9564 593.116 51.437 593.246 51.8477L592.196 52.2397C592.084 51.8197 591.921 51.325 591.706 50.7557C591.501 50.1864 591.272 49.5984 591.02 48.9917C590.778 48.385 590.53 47.8204 590.278 47.2977ZM607.092 56.3277C606.794 55.9544 606.467 55.581 606.112 55.2077C605.758 54.8344 605.398 54.475 605.034 54.1297C604.68 53.7844 604.334 53.4764 603.998 53.2057L604.908 52.4077C605.244 52.6784 605.599 52.991 605.972 53.3457C606.346 53.7004 606.71 54.0644 607.064 54.4377C607.428 54.811 607.755 55.1704 608.044 55.5157L607.092 56.3277ZM620.91 46.6537V47.6477H627.938V46.6537H620.91ZM620.91 44.9737V45.9537H627.938V44.9737H620.91ZM619.902 44.2317H628.988V48.3897H619.902V44.2317ZM618.222 49.1737H630.57V50.0557H618.222V49.1737ZM624.452 50.9237H629.422V51.7777H624.452V50.9237ZM620.056 51.0077H623.5V51.8057H620.056V51.0077ZM620.056 52.7857H623.5V53.5697H620.056V52.7857ZM625.908 51.7077C626.319 52.7157 626.954 53.5837 627.812 54.3117C628.68 55.0304 629.707 55.539 630.892 55.8377C630.827 55.903 630.752 55.9824 630.668 56.0757C630.584 56.1784 630.505 56.2764 630.43 56.3697C630.365 56.4724 630.309 56.5657 630.262 56.6497C629.03 56.2857 627.971 55.7024 627.084 54.8997C626.207 54.0877 625.535 53.1077 625.068 51.9597L625.908 51.7077ZM629.1 50.9237H629.296L629.478 50.8817L630.122 51.1477C629.814 52.0997 629.376 52.9304 628.806 53.6397C628.237 54.349 627.584 54.951 626.846 55.4457C626.109 55.931 625.334 56.309 624.522 56.5797C624.466 56.4584 624.378 56.3137 624.256 56.1457C624.144 55.9777 624.037 55.847 623.934 55.7537C624.494 55.595 625.04 55.371 625.572 55.0817C626.114 54.7924 626.613 54.4517 627.07 54.0597C627.537 53.6677 627.943 53.2244 628.288 52.7297C628.643 52.2257 628.914 51.6797 629.1 51.0917V50.9237ZM618.096 54.9277C618.554 54.881 619.072 54.8297 619.65 54.7737C620.238 54.7177 620.859 54.6524 621.512 54.5777C622.166 54.503 622.819 54.4284 623.472 54.3537L623.486 55.2217C622.534 55.343 621.596 55.4597 620.672 55.5717C619.748 55.6837 618.922 55.7817 618.194 55.8657L618.096 54.9277ZM622.954 49.4537H623.962V56.6637H622.954V49.4537ZM619.44 49.4817H620.406V55.1657H619.44V49.4817ZM633.93 43.7837H634.98V56.6497H633.93V43.7837ZM632.67 46.4857L633.468 46.5977C633.45 46.9804 633.408 47.4004 633.342 47.8577C633.286 48.3057 633.207 48.7537 633.104 49.2017C633.011 49.6404 632.899 50.0324 632.768 50.3777L631.942 50.0837C632.073 49.7757 632.185 49.4117 632.278 48.9917C632.381 48.5717 632.465 48.1424 632.53 47.7037C632.596 47.265 632.642 46.859 632.67 46.4857ZM635.008 46.3597L635.75 46.0377C635.9 46.3084 636.044 46.6024 636.184 46.9197C636.334 47.2277 636.464 47.5264 636.576 47.8157C636.688 48.105 636.772 48.3617 636.828 48.5857L636.044 48.9777C635.988 48.7537 635.904 48.4924 635.792 48.1937C635.68 47.8857 635.554 47.573 635.414 47.2557C635.284 46.929 635.148 46.6304 635.008 46.3597ZM636.926 46.0097H643.856V50.7837H642.82V47.0037H636.926V46.0097ZM636.17 50.2097H645.06V51.2317H636.17V50.2097ZM640.874 50.4197C641.098 51.2317 641.406 51.9924 641.798 52.7017C642.19 53.4017 642.666 54.013 643.226 54.5357C643.796 55.0584 644.449 55.455 645.186 55.7257C645.102 55.8004 645.009 55.8937 644.906 56.0057C644.813 56.1177 644.724 56.2344 644.64 56.3557C644.556 56.4864 644.486 56.603 644.43 56.7057C643.656 56.3604 642.979 55.8937 642.4 55.3057C641.822 54.7084 641.332 54.013 640.93 53.2197C640.529 52.4264 640.202 51.563 639.95 50.6297L640.874 50.4197ZM639.67 43.7837H640.72V48.4457C640.72 48.9964 640.692 49.5657 640.636 50.1537C640.59 50.7417 640.487 51.3344 640.328 51.9317C640.179 52.5197 639.95 53.0984 639.642 53.6677C639.334 54.237 638.919 54.783 638.396 55.3057C637.883 55.819 637.234 56.2904 636.45 56.7197C636.404 56.6357 636.338 56.5424 636.254 56.4397C636.17 56.3464 636.077 56.2484 635.974 56.1457C635.881 56.0524 635.792 55.973 635.708 55.9077C636.474 55.5157 637.099 55.091 637.584 54.6337C638.079 54.167 638.466 53.677 638.746 53.1637C639.036 52.641 639.241 52.1137 639.362 51.5817C639.493 51.0404 639.577 50.5037 639.614 49.9717C639.652 49.4397 639.67 48.931 639.67 48.4457V43.7837ZM649.512 56.3277C649.214 55.9544 648.887 55.581 648.532 55.2077C648.178 54.8344 647.818 54.475 647.454 54.1297C647.1 53.7844 646.754 53.4764 646.418 53.2057L647.328 52.4077C647.664 52.6784 648.019 52.991 648.392 53.3457C648.766 53.7004 649.13 54.0644 649.484 54.4377C649.848 54.811 650.175 55.1704 650.464 55.5157L649.512 56.3277ZM663.33 46.6537V47.6477H670.358V46.6537H663.33ZM663.33 44.9737V45.9537H670.358V44.9737H663.33ZM662.322 44.2317H671.408V48.3897H662.322V44.2317ZM660.642 49.1737H672.99V50.0557H660.642V49.1737ZM666.872 50.9237H671.842V51.7777H666.872V50.9237ZM662.476 51.0077H665.92V51.8057H662.476V51.0077ZM662.476 52.7857H665.92V53.5697H662.476V52.7857ZM668.328 51.7077C668.739 52.7157 669.374 53.5837 670.232 54.3117C671.1 55.0304 672.127 55.539 673.312 55.8377C673.247 55.903 673.172 55.9824 673.088 56.0757C673.004 56.1784 672.925 56.2764 672.85 56.3697C672.785 56.4724 672.729 56.5657 672.682 56.6497C671.45 56.2857 670.391 55.7024 669.504 54.8997C668.627 54.0877 667.955 53.1077 667.488 51.9597L668.328 51.7077ZM671.52 50.9237H671.716L671.898 50.8817L672.542 51.1477C672.234 52.0997 671.796 52.9304 671.226 53.6397C670.657 54.349 670.004 54.951 669.266 55.4457C668.529 55.931 667.754 56.309 666.942 56.5797C666.886 56.4584 666.798 56.3137 666.676 56.1457C666.564 55.9777 666.457 55.847 666.354 55.7537C666.914 55.595 667.46 55.371 667.992 55.0817C668.534 54.7924 669.033 54.4517 669.49 54.0597C669.957 53.6677 670.363 53.2244 670.708 52.7297C671.063 52.2257 671.334 51.6797 671.52 51.0917V50.9237ZM660.516 54.9277C660.974 54.881 661.492 54.8297 662.07 54.7737C662.658 54.7177 663.279 54.6524 663.932 54.5777C664.586 54.503 665.239 54.4284 665.892 54.3537L665.906 55.2217C664.954 55.343 664.016 55.4597 663.092 55.5717C662.168 55.6837 661.342 55.7817 660.614 55.8657L660.516 54.9277ZM665.374 49.4537H666.382V56.6637H665.374V49.4537ZM661.86 49.4817H662.826V55.1657H661.86V49.4817ZM680.914 44.8057C680.634 45.2257 680.284 45.669 679.864 46.1357C679.454 46.593 678.996 47.0504 678.492 47.5077C677.988 47.965 677.452 48.4037 676.882 48.8237C676.322 49.2437 675.748 49.6264 675.16 49.9717C675.086 49.8504 674.983 49.7104 674.852 49.5517C674.731 49.3837 674.61 49.2484 674.488 49.1457C675.3 48.6977 676.08 48.1704 676.826 47.5637C677.582 46.957 678.264 46.3224 678.87 45.6597C679.477 44.997 679.962 44.3624 680.326 43.7557H681.39C681.754 44.2784 682.174 44.7917 682.65 45.2957C683.126 45.7997 683.635 46.2804 684.176 46.7377C684.718 47.195 685.268 47.615 685.828 47.9977C686.398 48.3804 686.953 48.707 687.494 48.9777C687.364 49.1084 687.238 49.2577 687.116 49.4257C686.995 49.5844 686.888 49.743 686.794 49.9017C686.262 49.5844 685.712 49.225 685.142 48.8237C684.582 48.4224 684.041 47.9977 683.518 47.5497C682.996 47.0924 682.51 46.6304 682.062 46.1637C681.614 45.697 681.232 45.2444 680.914 44.8057ZM676.182 52.0717H685.73V53.0097H676.182V52.0717ZM676.812 48.9497H685.198V49.8877H676.812V48.9497ZM675.034 55.3197H686.976V56.2717H675.034V55.3197ZM680.382 49.3417H681.474V55.8517H680.382V49.3417ZM689.944 46.0377H694.2V55.1937H689.944V54.2417H693.234V46.9757H689.944V46.0377ZM689.328 46.0377H690.294V56.2997H689.328V46.0377ZM689.874 49.9297H693.738V50.8537H689.874V49.9297ZM691.47 43.7557L692.604 43.9517C692.464 44.3904 692.31 44.8337 692.142 45.2817C691.984 45.7297 691.834 46.1124 691.694 46.4297L690.84 46.2197C690.924 45.9864 691.004 45.725 691.078 45.4357C691.162 45.1464 691.237 44.8524 691.302 44.5537C691.377 44.255 691.433 43.989 691.47 43.7557ZM696.202 45.9957H700.5V46.9617H696.202V45.9957ZM700.122 45.9957H701.116C701.116 45.9957 701.116 46.0284 701.116 46.0937C701.116 46.159 701.116 46.2384 701.116 46.3317C701.116 46.4157 701.112 46.481 701.102 46.5277C701.046 48.133 700.99 49.491 700.934 50.6017C700.888 51.7124 700.827 52.6224 700.752 53.3317C700.678 54.0317 700.589 54.5777 700.486 54.9697C700.393 55.3617 700.276 55.6417 700.136 55.8097C699.978 56.015 699.81 56.155 699.632 56.2297C699.464 56.3137 699.254 56.3697 699.002 56.3977C698.769 56.4164 698.461 56.421 698.078 56.4117C697.705 56.4117 697.318 56.3977 696.916 56.3697C696.907 56.2204 696.87 56.0477 696.804 55.8517C696.748 55.6557 696.669 55.4924 696.566 55.3617C697.033 55.399 697.453 55.4224 697.826 55.4317C698.209 55.441 698.484 55.4457 698.652 55.4457C698.792 55.4457 698.904 55.4317 698.988 55.4037C699.082 55.3664 699.17 55.301 699.254 55.2077C699.366 55.0864 699.464 54.839 699.548 54.4657C699.642 54.083 699.721 53.5417 699.786 52.8417C699.852 52.1417 699.912 51.2504 699.968 50.1677C700.024 49.0757 700.076 47.7597 700.122 46.2197V45.9957ZM696.482 43.7277L697.49 43.9517C697.322 44.6517 697.117 45.3377 696.874 46.0097C696.641 46.6724 696.38 47.2977 696.09 47.8857C695.81 48.4737 695.512 48.9917 695.194 49.4397C695.129 49.3837 695.04 49.3184 694.928 49.2437C694.826 49.1597 694.718 49.085 694.606 49.0197C694.494 48.945 694.396 48.8844 694.312 48.8377C694.639 48.4177 694.938 47.937 695.208 47.3957C695.479 46.845 695.722 46.257 695.936 45.6317C696.151 45.0064 696.333 44.3717 696.482 43.7277ZM695.838 49.6217L696.664 49.1597C696.926 49.4864 697.196 49.8457 697.476 50.2377C697.766 50.6297 698.032 51.0077 698.274 51.3717C698.526 51.7357 698.727 52.0577 698.876 52.3377L697.98 52.8977C697.84 52.6084 697.649 52.277 697.406 51.9037C697.173 51.521 696.916 51.1337 696.636 50.7417C696.366 50.3404 696.1 49.967 695.838 49.6217ZM534.39 63.8977H544.848V64.9477H534.39V63.8977ZM533.312 67.5937H545.884V68.6437H533.312V67.5937ZM538.982 61.7697H540.088V68.1677H538.982V61.7697ZM537.848 68.2657L539.066 68.6017C538.824 69.143 538.558 69.7124 538.268 70.3097C537.988 70.907 537.704 71.4904 537.414 72.0597C537.125 72.6197 536.84 73.1144 536.56 73.5437L535.594 73.2217C535.781 72.8857 535.982 72.5124 536.196 72.1017C536.411 71.691 536.616 71.2617 536.812 70.8137C537.018 70.3657 537.209 69.9224 537.386 69.4837C537.573 69.045 537.727 68.639 537.848 68.2657ZM533.802 72.9697C534.465 72.951 535.207 72.9277 536.028 72.8997C536.859 72.8624 537.736 72.825 538.66 72.7877C539.594 72.741 540.546 72.699 541.516 72.6617C542.496 72.615 543.467 72.5684 544.428 72.5217L544.386 73.5577C543.126 73.623 541.862 73.6884 540.592 73.7537C539.332 73.8284 538.133 73.889 536.994 73.9357C535.856 73.9917 534.843 74.0384 533.956 74.0757L533.802 72.9697ZM541.53 70.2397L542.496 69.7777C542.916 70.235 543.336 70.7297 543.756 71.2617C544.176 71.7937 544.559 72.321 544.904 72.8437C545.259 73.357 545.539 73.819 545.744 74.2297L544.708 74.7757C544.512 74.365 544.242 73.8937 543.896 73.3617C543.551 72.8297 543.168 72.293 542.748 71.7517C542.338 71.201 541.932 70.697 541.53 70.2397ZM548.054 64.2897H559.338V70.8697H558.26V65.3117H549.104V70.9397H548.054V64.2897ZM548.614 69.0357H558.89V70.0717H548.614V69.0357ZM553.122 61.7837H554.228V74.6497H553.122V61.7837ZM565.12 65.6897H566.198V72.7317C566.198 73.0584 566.254 73.2684 566.366 73.3617C566.488 73.455 566.74 73.5017 567.122 73.5017C567.216 73.5017 567.379 73.5017 567.612 73.5017C567.846 73.5017 568.102 73.5017 568.382 73.5017C568.662 73.5017 568.924 73.5017 569.166 73.5017C569.409 73.5017 569.591 73.5017 569.712 73.5017C569.992 73.5017 570.202 73.427 570.342 73.2777C570.482 73.1284 570.58 72.8437 570.636 72.4237C570.702 71.9944 570.753 71.3784 570.79 70.5757C570.921 70.669 571.08 70.7624 571.266 70.8557C571.462 70.949 571.635 71.0144 571.784 71.0517C571.728 71.929 571.64 72.6197 571.518 73.1237C571.406 73.6184 571.215 73.9684 570.944 74.1737C570.674 74.379 570.282 74.4817 569.768 74.4817C569.703 74.4817 569.577 74.4817 569.39 74.4817C569.204 74.4817 568.989 74.4817 568.746 74.4817C568.513 74.4817 568.275 74.4817 568.032 74.4817C567.79 74.4817 567.58 74.4817 567.402 74.4817C567.225 74.4817 567.104 74.4817 567.038 74.4817C566.544 74.4817 566.156 74.4304 565.876 74.3277C565.596 74.225 565.4 74.043 565.288 73.7817C565.176 73.5297 565.12 73.175 565.12 72.7177V65.6897ZM565.232 62.6517L565.89 61.8397C566.45 62.0357 567.034 62.269 567.64 62.5397C568.247 62.8104 568.816 63.0904 569.348 63.3797C569.89 63.6597 570.347 63.9257 570.72 64.1777L570.034 65.1017C569.68 64.831 569.232 64.5464 568.69 64.2477C568.158 63.949 567.589 63.6597 566.982 63.3797C566.385 63.0904 565.802 62.8477 565.232 62.6517ZM562.768 66.8237L563.79 67.0337C563.725 67.659 563.622 68.3077 563.482 68.9797C563.352 69.6517 563.179 70.291 562.964 70.8977C562.75 71.5044 562.474 72.0317 562.138 72.4797L561.186 71.9197C561.504 71.4997 561.765 71.0097 561.97 70.4497C562.185 69.8897 562.358 69.297 562.488 68.6717C562.619 68.0464 562.712 67.4304 562.768 66.8237ZM570.944 66.8237L571.882 66.3617C572.302 66.8937 572.69 67.4677 573.044 68.0837C573.408 68.6997 573.716 69.311 573.968 69.9177C574.23 70.515 574.416 71.0657 574.528 71.5697L573.492 72.0597C573.39 71.565 573.212 71.0144 572.96 70.4077C572.708 69.801 572.405 69.185 572.05 68.5597C571.705 67.9344 571.336 67.3557 570.944 66.8237ZM581.794 62.1197H582.858V72.5217C582.858 72.783 582.882 72.9837 582.928 73.1237C582.975 73.2544 583.064 73.3477 583.194 73.4037C583.334 73.4504 583.535 73.4737 583.796 73.4737C583.89 73.4737 584.058 73.4737 584.3 73.4737C584.552 73.4737 584.828 73.4737 585.126 73.4737C585.434 73.4737 585.719 73.4737 585.98 73.4737C586.242 73.4737 586.428 73.4737 586.54 73.4737C586.802 73.4737 586.993 73.4037 587.114 73.2637C587.245 73.1144 587.338 72.853 587.394 72.4797C587.46 72.1064 587.506 71.5837 587.534 70.9117C587.665 71.005 587.824 71.0984 588.01 71.1917C588.206 71.2757 588.379 71.3317 588.528 71.3597C588.482 72.125 588.398 72.7364 588.276 73.1937C588.164 73.6417 587.978 73.9637 587.716 74.1597C587.464 74.3557 587.091 74.4537 586.596 74.4537C586.522 74.4537 586.386 74.4537 586.19 74.4537C586.004 74.4537 585.78 74.4537 585.518 74.4537C585.266 74.4537 585.014 74.4537 584.762 74.4537C584.51 74.4537 584.286 74.4537 584.09 74.4537C583.904 74.4537 583.778 74.4537 583.712 74.4537C583.227 74.4537 582.844 74.3977 582.564 74.2857C582.284 74.1737 582.084 73.973 581.962 73.6837C581.85 73.4037 581.794 73.007 581.794 72.4937V62.1197ZM587.058 64.4437L587.814 65.3397C587.348 65.7317 586.82 66.119 586.232 66.5017C585.644 66.875 585.028 67.239 584.384 67.5937C583.75 67.9484 583.124 68.2844 582.508 68.6017C582.471 68.4804 582.406 68.345 582.312 68.1957C582.228 68.037 582.149 67.897 582.074 67.7757C582.672 67.4584 583.278 67.113 583.894 66.7397C584.51 66.3664 585.094 65.9837 585.644 65.5917C586.195 65.1904 586.666 64.8077 587.058 64.4437ZM579.372 61.9937L580.394 62.3437C580.04 63.1557 579.624 63.9537 579.148 64.7377C578.672 65.5217 578.159 66.259 577.608 66.9497C577.067 67.631 576.502 68.233 575.914 68.7557C575.886 68.6624 575.83 68.5504 575.746 68.4197C575.672 68.289 575.592 68.1584 575.508 68.0277C575.424 67.8877 575.35 67.7757 575.284 67.6917C575.826 67.2437 576.348 66.721 576.852 66.1237C577.366 65.517 577.837 64.8637 578.266 64.1637C578.696 63.4544 579.064 62.731 579.372 61.9937ZM577.762 65.6617L578.798 64.6257L578.812 64.6537V74.6357H577.762V65.6617ZM597.334 69.1897C597.633 69.871 598.034 70.5057 598.538 71.0937C599.052 71.6817 599.649 72.1904 600.33 72.6197C601.012 73.049 601.749 73.3804 602.542 73.6137C602.468 73.679 602.384 73.763 602.29 73.8657C602.206 73.9684 602.122 74.0757 602.038 74.1877C601.964 74.2997 601.898 74.4024 601.842 74.4957C601.03 74.2157 600.279 73.833 599.588 73.3477C598.907 72.8624 598.3 72.293 597.768 71.6397C597.246 70.977 596.812 70.249 596.466 69.4557L597.334 69.1897ZM601.072 69.0217L601.926 69.5537C601.46 69.927 600.942 70.305 600.372 70.6877C599.803 71.0704 599.276 71.397 598.79 71.6677L598.076 71.1637C598.403 70.977 598.748 70.7624 599.112 70.5197C599.486 70.2677 599.845 70.011 600.19 69.7497C600.536 69.4884 600.83 69.2457 601.072 69.0217ZM593.106 68.5037L594.002 68.8817C593.676 69.143 593.312 69.409 592.91 69.6797C592.518 69.9504 592.117 70.207 591.706 70.4497C591.296 70.6924 590.904 70.9024 590.53 71.0797C590.484 71.0144 590.414 70.9444 590.32 70.8697C590.227 70.7857 590.129 70.7017 590.026 70.6177C589.933 70.5244 589.849 70.4544 589.774 70.4077C590.353 70.165 590.941 69.8757 591.538 69.5397C592.145 69.1944 592.668 68.849 593.106 68.5037ZM593.652 70.9957L594.618 71.3877C594.245 71.7704 593.82 72.153 593.344 72.5357C592.868 72.909 592.374 73.2544 591.86 73.5717C591.356 73.8984 590.866 74.183 590.39 74.4257C590.334 74.3604 590.255 74.281 590.152 74.1877C590.05 74.0944 589.942 74.001 589.83 73.9077C589.728 73.8237 589.634 73.7537 589.55 73.6977C590.045 73.4737 590.544 73.2217 591.048 72.9417C591.552 72.6524 592.028 72.3397 592.476 72.0037C592.934 71.6677 593.326 71.3317 593.652 70.9957ZM589.984 62.4697H596.662V63.2537H589.984V62.4697ZM591.552 64.1217H595.29V64.8077H591.552V64.1217ZM591.552 65.6757H595.29V66.3477H591.552V65.6757ZM596.508 63.1557H601.352V64.0097H596.508V63.1557ZM594.814 62.7777H595.78V68.6297H594.814V62.7777ZM600.988 63.1557H601.184L601.352 63.0997L602.024 63.4217C601.707 64.243 601.264 64.9757 600.694 65.6197C600.125 66.2544 599.486 66.8004 598.776 67.2577C598.076 67.715 597.358 68.079 596.62 68.3497C596.555 68.2284 596.462 68.093 596.34 67.9437C596.228 67.7944 596.126 67.673 596.032 67.5797C596.714 67.365 597.381 67.0524 598.034 66.6417C598.697 66.231 599.29 65.7457 599.812 65.1857C600.335 64.6257 600.727 64.005 600.988 63.3237V63.1557ZM589.774 67.5097C590.484 67.463 591.328 67.4024 592.308 67.3277C593.288 67.253 594.287 67.1737 595.304 67.0897V67.8317C594.343 67.925 593.386 68.0184 592.434 68.1117C591.482 68.1957 590.638 68.2704 589.9 68.3357L589.774 67.5097ZM596.76 65.2137L597.46 64.5837C597.899 64.789 598.352 65.0177 598.818 65.2697C599.294 65.5217 599.766 65.7877 600.232 66.0677C600.699 66.3384 601.133 66.609 601.534 66.8797C601.936 67.1504 602.276 67.4024 602.556 67.6357L601.8 68.3777C601.539 68.1444 601.212 67.8924 600.82 67.6217C600.428 67.3417 600.004 67.057 599.546 66.7677C599.089 66.4784 598.622 66.203 598.146 65.9417C597.67 65.671 597.208 65.4284 596.76 65.2137ZM598.426 68.0977L599.266 68.5317C598.79 68.8304 598.24 69.1244 597.614 69.4137C596.998 69.703 596.359 69.9737 595.696 70.2257C595.034 70.4777 594.413 70.6924 593.834 70.8697C593.797 70.8044 593.736 70.7204 593.652 70.6177C593.578 70.5057 593.498 70.403 593.414 70.3097C593.34 70.207 593.27 70.123 593.204 70.0577C593.792 69.9177 594.404 69.745 595.038 69.5397C595.682 69.325 596.298 69.0964 596.886 68.8537C597.484 68.6017 597.997 68.3497 598.426 68.0977ZM591.062 62.7777H592.028V67.6777L591.062 67.7897V62.7777ZM595.584 69.9457L596.102 69.4137L596.62 69.5817V74.6217H595.584V69.9457ZM606.742 66.3617H613.812V67.2997H606.742V66.3617ZM606.49 73.1517H613.994V74.0897H606.49V73.1517ZM606.014 69.0637H614.582V74.6777H613.518V70.0157H607.05V74.6777H606.014V69.0637ZM610.242 62.8477C609.86 63.417 609.36 64.005 608.744 64.6117C608.138 65.2184 607.461 65.8017 606.714 66.3617C605.977 66.9217 605.207 67.4164 604.404 67.8457C604.358 67.771 604.297 67.6824 604.222 67.5797C604.148 67.477 604.068 67.3744 603.984 67.2717C603.9 67.169 603.821 67.085 603.746 67.0197C604.568 66.5997 605.356 66.1004 606.112 65.5217C606.878 64.943 607.564 64.3317 608.17 63.6877C608.786 63.0437 609.276 62.4184 609.64 61.8117H610.718C611.092 62.3344 611.516 62.843 611.992 63.3377C612.478 63.8324 612.991 64.299 613.532 64.7377C614.083 65.1764 614.643 65.5777 615.212 65.9417C615.791 66.2964 616.356 66.595 616.906 66.8377C616.785 66.9684 616.664 67.1177 616.542 67.2857C616.421 67.4537 616.309 67.617 616.206 67.7757C615.656 67.477 615.1 67.141 614.54 66.7677C613.98 66.3944 613.434 65.993 612.902 65.5637C612.37 65.125 611.876 64.677 611.418 64.2197C610.961 63.753 610.569 63.2957 610.242 62.8477ZM626.44 67.4677L627.546 67.7897C627.042 69.087 626.366 70.1837 625.516 71.0797C624.667 71.9757 623.664 72.7177 622.506 73.3057C621.358 73.8844 620.07 74.3557 618.642 74.7197C618.605 74.6264 618.544 74.5144 618.46 74.3837C618.386 74.2624 618.302 74.141 618.208 74.0197C618.124 73.8984 618.045 73.7957 617.97 73.7117C619.38 73.4224 620.64 73.0164 621.75 72.4937C622.87 71.9617 623.822 71.2897 624.606 70.4777C625.4 69.6564 626.011 68.653 626.44 67.4677ZM621.862 65.0597L622.94 65.4657C622.604 65.9137 622.217 66.3524 621.778 66.7817C621.349 67.211 620.892 67.617 620.406 67.9997C619.93 68.373 619.468 68.6997 619.02 68.9797C618.964 68.905 618.885 68.8164 618.782 68.7137C618.68 68.6017 618.572 68.4944 618.46 68.3917C618.348 68.289 618.25 68.205 618.166 68.1397C618.624 67.897 619.081 67.6124 619.538 67.2857C619.996 66.959 620.425 66.609 620.826 66.2357C621.237 65.853 621.582 65.461 621.862 65.0597ZM622.436 67.5517C623.09 69.2037 624.121 70.5477 625.53 71.5837C626.949 72.6104 628.741 73.3057 630.906 73.6697C630.832 73.7444 630.748 73.8424 630.654 73.9637C630.57 74.085 630.486 74.2064 630.402 74.3277C630.328 74.4584 630.262 74.5704 630.206 74.6637C628.722 74.3744 627.416 73.9357 626.286 73.3477C625.157 72.7504 624.191 71.9944 623.388 71.0797C622.595 70.165 621.946 69.0917 621.442 67.8597L622.436 67.5517ZM618.264 63.6037H630.556V64.6397H618.264V63.6037ZM623.85 61.7697H624.914V64.2617H623.85V61.7697ZM626.062 65.6477L626.916 65.0177C627.364 65.307 627.826 65.6337 628.302 65.9977C628.778 66.3617 629.226 66.7304 629.646 67.1037C630.076 67.4677 630.426 67.8037 630.696 68.1117L629.772 68.8537C629.53 68.5364 629.203 68.191 628.792 67.8177C628.382 67.435 627.934 67.057 627.448 66.6837C626.972 66.301 626.51 65.9557 626.062 65.6477ZM635.19 65.5217V66.9217H642.106V65.5217H635.19ZM635.19 63.3097V64.6817H642.106V63.3097H635.19ZM634.154 62.4277H643.156V67.8037H634.154V62.4277ZM634.938 68.9937H643.324V69.9457H634.938V68.9937ZM643.058 68.9937H644.122C644.122 68.9937 644.118 69.0217 644.108 69.0777C644.108 69.1337 644.104 69.199 644.094 69.2737C644.094 69.3484 644.09 69.4137 644.08 69.4697C643.996 70.515 643.903 71.3644 643.8 72.0177C643.707 72.671 643.604 73.175 643.492 73.5297C643.38 73.875 643.254 74.1224 643.114 74.2717C642.984 74.4117 642.839 74.5097 642.68 74.5657C642.531 74.6217 642.354 74.6544 642.148 74.6637C641.971 74.6824 641.724 74.687 641.406 74.6777C641.098 74.6777 640.767 74.6684 640.412 74.6497C640.403 74.519 640.375 74.365 640.328 74.1877C640.282 74.0104 640.216 73.8564 640.132 73.7257C640.478 73.763 640.795 73.7864 641.084 73.7957C641.383 73.805 641.593 73.8097 641.714 73.8097C641.845 73.8097 641.948 73.8004 642.022 73.7817C642.097 73.763 642.167 73.7164 642.232 73.6417C642.344 73.539 642.447 73.329 642.54 73.0117C642.634 72.685 642.722 72.2137 642.806 71.5977C642.9 70.9724 642.984 70.1604 643.058 69.1617V68.9937ZM635.988 67.3557L637.01 67.6777C636.674 68.2284 636.282 68.7557 635.834 69.2597C635.386 69.7637 634.915 70.2304 634.42 70.6597C633.926 71.089 633.426 71.4624 632.922 71.7797C632.866 71.7144 632.787 71.635 632.684 71.5417C632.582 71.439 632.479 71.341 632.376 71.2477C632.274 71.1544 632.18 71.0844 632.096 71.0377C632.862 70.599 633.594 70.0577 634.294 69.4137C634.994 68.7697 635.559 68.0837 635.988 67.3557ZM637.514 69.2877L638.508 69.5817C638.172 70.2444 637.766 70.8697 637.29 71.4577C636.814 72.0457 636.306 72.587 635.764 73.0817C635.223 73.5764 634.663 74.0104 634.084 74.3837C634.038 74.3184 633.963 74.2344 633.86 74.1317C633.758 74.0384 633.655 73.945 633.552 73.8517C633.45 73.7584 633.361 73.6837 633.286 73.6277C634.154 73.133 634.962 72.5077 635.708 71.7517C636.455 70.9864 637.057 70.165 637.514 69.2877ZM640.412 69.3577L641.42 69.5957C641.047 70.6504 640.562 71.6257 639.964 72.5217C639.376 73.4084 638.723 74.1457 638.004 74.7337C637.948 74.6777 637.869 74.6077 637.766 74.5237C637.664 74.4397 637.556 74.3557 637.444 74.2717C637.342 74.197 637.253 74.1317 637.178 74.0757C637.888 73.5344 638.522 72.853 639.082 72.0317C639.642 71.2104 640.086 70.319 640.412 69.3577ZM647.16 62.7217H658.192V63.7717H647.16V62.7217ZM646.418 68.6717H658.976V69.7217H646.418V68.6717ZM648.126 64.7237L649.078 64.4437C649.265 64.7797 649.447 65.139 649.624 65.5217C649.802 65.9044 649.96 66.2824 650.1 66.6557C650.25 67.0197 650.352 67.337 650.408 67.6077L649.414 67.9577C649.349 67.6777 649.246 67.3557 649.106 66.9917C648.976 66.6184 648.826 66.2357 648.658 65.8437C648.49 65.4424 648.313 65.069 648.126 64.7237ZM656.26 64.3737L657.366 64.6817C657.198 65.0644 657.012 65.4564 656.806 65.8577C656.61 66.259 656.414 66.6464 656.218 67.0197C656.022 67.393 655.831 67.7197 655.644 67.9997L654.734 67.7057C654.912 67.407 655.094 67.0664 655.28 66.6837C655.476 66.2917 655.658 65.895 655.826 65.4937C655.994 65.083 656.139 64.7097 656.26 64.3737ZM652.116 63.1277H653.208V74.6497H652.116V63.1277ZM662.854 73.0257H670.736V74.0337H662.854V73.0257ZM662.364 68.6857H671.296V74.6357H670.176V69.6937H663.442V74.6637H662.364V68.6857ZM665.178 61.7277L666.34 62.1337C666.06 62.675 665.748 63.2397 665.402 63.8277C665.066 64.4064 664.726 64.9664 664.38 65.5077C664.035 66.0397 663.704 66.511 663.386 66.9217L662.462 66.5297C662.78 66.119 663.106 65.6384 663.442 65.0877C663.778 64.5277 664.096 63.9537 664.394 63.3657C664.702 62.7777 664.964 62.2317 665.178 61.7277ZM668.552 63.9957L669.378 63.3937C669.854 63.767 670.34 64.187 670.834 64.6537C671.329 65.111 671.782 65.5777 672.192 66.0537C672.612 66.5204 672.944 66.945 673.186 67.3277L672.276 68.0277C672.052 67.645 671.735 67.2157 671.324 66.7397C670.923 66.2637 670.48 65.7877 669.994 65.3117C669.509 64.8264 669.028 64.3877 668.552 63.9957ZM660.712 66.0817C661.375 66.063 662.131 66.0397 662.98 66.0117C663.83 65.9744 664.735 65.937 665.696 65.8997C666.667 65.8624 667.656 65.8204 668.664 65.7737C669.682 65.727 670.685 65.685 671.674 65.6477L671.618 66.6557C670.638 66.7117 669.649 66.763 668.65 66.8097C667.661 66.847 666.69 66.889 665.738 66.9357C664.786 66.9824 663.89 67.0244 663.05 67.0617C662.21 67.0897 661.459 67.1177 660.796 67.1457L660.712 66.0817Z" fill="white"/>
<rect x="508.764" y="53.0161" width="2.35882" height="11.7941" fill="white"/>
<defs>
<linearGradient id="paint0_linear_6313_766" x1="325.367" y1="79.6304" x2="283.258" y2="49.5275" gradientUnits="userSpaceOnUse">
<stop stop-color="#8B4FDD"/>
<stop offset="1" stop-color="#12B886"/>
</linearGradient>
<linearGradient id="paint1_linear_6313_766" x1="326.52" y1="82.2857" x2="307.802" y2="57.1068" gradientUnits="userSpaceOnUse">
<stop stop-color="#8B4FDD"/>
<stop offset="1" stop-color="#12B886"/>
</linearGradient>
<linearGradient id="paint2_linear_6313_766" x1="335.951" y1="70.9534" x2="303.879" y2="51.9477" gradientUnits="userSpaceOnUse">
<stop stop-color="#8B4FDD"/>
<stop offset="1" stop-color="#12B886"/>
</linearGradient>
<linearGradient id="paint3_linear_6313_766" x1="311.649" y1="70.9534" x2="279.571" y2="51.9348" gradientUnits="userSpaceOnUse">
<stop stop-color="#8B4FDD"/>
<stop offset="1" stop-color="#12B886"/>
</linearGradient>
</defs>
</svg>
