<svg width="270" height="32" viewBox="0 0 270 32" fill="none" xmlns="http://www.w3.org/2000/svg">
<path d="M29.0052 25.8754L27.5381 23.3869H6.45412L17.0125 4.9926L14.2556 0.151123H10.6978C9.93386 0.152848 9.18404 0.358735 8.52497 0.747745C7.86586 1.13676 7.32117 1.69495 6.94643 2.36531L0.5661 13.7006C0.19512 14.3549 0 15.0953 0 15.8487C0 16.6022 0.19512 17.3426 0.5661 17.9968L5.03298 25.9283L6.94643 29.3256C7.2744 29.9083 7.73189 30.4067 8.28308 30.7816C8.83427 31.1566 9.46416 31.398 10.1235 31.4869C10.3127 31.5135 10.5035 31.5267 10.6945 31.5265H23.3141C24.0778 31.527 24.828 31.3235 25.4882 30.9368C26.1483 30.5502 26.6948 29.9942 27.0721 29.3256L28.9724 25.9283L29.0052 25.8754Z" fill="url(#paint0_linear_3794_1723)"/>
<path d="M29.041 25.8755L29.0049 25.9382L27.1013 29.3223C26.7257 29.9909 26.1804 30.547 25.5212 30.9337C24.8621 31.3204 24.1127 31.5239 23.3499 31.5233H10.7303C10.5393 31.5235 10.3485 31.5102 10.1592 31.4836C9.49886 31.3954 8.86775 31.1544 8.31538 30.7794C7.76304 30.4044 7.30447 29.9057 6.97564 29.3223L5.06876 25.9283L6.52599 23.3903L6.60148 23.344L13.6776 19.0478C14.7705 18.334 15.5878 17.9143 16.3623 17.7821C16.3798 17.7805 16.3974 17.7805 16.4149 17.7821L16.5658 17.7623L16.8284 17.7424H16.9859C17.1122 17.7459 17.2382 17.7558 17.3634 17.7722C18.1675 17.8812 19.0274 18.2877 20.2024 18.9685L27.5345 23.3605L27.5772 23.387L29.041 25.8755Z" fill="url(#paint1_linear_3794_1723)"/>
<path d="M33.483 17.9968L29.0095 25.9283L29.0456 25.8655L27.5752 23.3869L17.0726 4.96947V4.9926L14.2927 0.151123H23.3545C24.1188 0.153288 24.8689 0.359323 25.5285 0.748261C26.188 1.1372 26.7334 1.69514 27.1092 2.36531L33.483 13.7007C33.8523 14.3555 34.0466 15.0957 34.0466 15.8487C34.0466 16.6018 33.8523 17.342 33.483 17.9968Z" fill="url(#paint2_linear_3794_1723)"/>
<path d="M0.5661 17.9968L5.04283 25.9283L5.00672 25.8655L6.47381 23.377L16.9764 4.95955V4.98269L19.7629 0.151123H10.6978C9.93386 0.152848 9.18404 0.358735 8.52497 0.747745C7.86586 1.13676 7.32117 1.69495 6.94643 2.36531L0.5661 13.7007C0.19512 14.3549 0 15.0953 0 15.8487C0 16.6022 0.19512 17.3426 0.5661 17.9968Z" fill="url(#paint3_linear_3794_1723)"/>
<path d="M44.2052 25.7076L51.0318 6.40774H54.629L61.4557 25.7076H57.7273L56.5457 22.2706H49.1151L47.9336 25.7076H44.2052ZM52.8435 11.5103L50.3229 18.8337H55.3642L52.8435 11.5103ZM65.4414 25.7076L59.5862 10.2413H63.2884L67.2531 21.1338L71.1391 10.2413H74.7887L69.0123 25.7076H65.4414ZM82.5269 26.0248C77.6957 26.0248 74.4136 22.4821 74.4136 18.0141C74.4136 13.4932 77.9057 9.92401 82.3956 9.92401C86.9642 9.92401 90.2988 13.3081 90.2988 17.8819V19.2302H77.8007C78.2996 21.4246 80.0062 22.8787 82.5269 22.8787C84.5224 22.8787 86.0452 21.8212 86.7804 20.1556L89.6949 21.8476C88.3558 24.3592 85.9927 26.0248 82.5269 26.0248ZM82.3956 13.0701C80.2688 13.0701 78.6147 14.3392 77.9845 16.2427H86.7017C86.1765 14.1541 84.6011 13.0701 82.3956 13.0701ZM91.4406 23.8833C91.4406 22.5879 92.2546 21.7154 93.5937 21.7154C94.9328 21.7154 95.7205 22.5879 95.7205 23.8833C95.7205 25.1524 94.9065 26.0248 93.5674 26.0248C92.2283 26.0248 91.4406 25.1524 91.4406 23.8833ZM104.386 26.0248C100.684 26.0248 96.8239 23.0637 96.8239 17.9876C96.8239 12.8586 100.552 9.92401 104.438 9.92401C106.46 9.92401 108.245 10.7436 109.374 12.0919V10.2413H112.919V25.7076H109.374V23.6983C108.245 25.1524 106.408 26.0248 104.386 26.0248ZM104.963 22.7465C107.615 22.7465 109.558 20.605 109.558 17.9348C109.558 15.2909 107.615 13.1759 104.963 13.1759C102.338 13.1759 100.316 15.2645 100.316 17.9348C100.316 20.6314 102.338 22.7465 104.963 22.7465ZM114.938 25.7076V10.2413H118.509V25.7076H114.938ZM114.492 6.46062C114.492 5.11227 115.358 4.21338 116.724 4.21338C118.115 4.21338 118.955 5.11227 118.955 6.46062C118.955 7.80896 118.115 8.68142 116.724 8.68142C115.28 8.68142 114.492 7.80896 114.492 6.46062Z" fill="white"/>
<path d="M153.759 6.5878H154.549V8.2078H153.759V6.5878ZM150.029 7.6578H158.379V9.8078H157.589V8.3578H150.789V9.8078H150.029V7.6578ZM153.369 8.8078L154.139 8.9778C153.959 9.36447 153.759 9.77114 153.539 10.1978C153.326 10.6178 153.106 11.0445 152.879 11.4778C152.659 11.9045 152.443 12.3111 152.229 12.6978C152.016 13.0845 151.823 13.4311 151.649 13.7378L150.869 13.5278C151.056 13.2278 151.256 12.8845 151.469 12.4978C151.689 12.1045 151.913 11.6945 152.139 11.2678C152.366 10.8411 152.583 10.4178 152.789 9.9978C153.003 9.57114 153.196 9.17447 153.369 8.8078ZM156.009 10.8878L156.839 11.0078C156.639 11.7811 156.353 12.4411 155.979 12.9878C155.613 13.5345 155.159 13.9945 154.619 14.3678C154.086 14.7345 153.469 15.0311 152.769 15.2578C152.069 15.4911 151.289 15.6778 150.429 15.8178C150.409 15.7511 150.369 15.6745 150.309 15.5878C150.256 15.5078 150.199 15.4245 150.139 15.3378C150.086 15.2578 150.033 15.1911 149.979 15.1378C151.113 14.9911 152.089 14.7645 152.909 14.4578C153.729 14.1445 154.399 13.7045 154.919 13.1378C155.439 12.5645 155.803 11.8145 156.009 10.8878ZM149.749 10.4278H158.629V11.1378H149.749V10.4278ZM151.459 13.1678L151.959 12.6378C152.493 12.7845 153.046 12.9578 153.619 13.1578C154.193 13.3578 154.756 13.5745 155.309 13.8078C155.869 14.0345 156.393 14.2678 156.879 14.5078C157.373 14.7411 157.796 14.9711 158.149 15.1978L157.589 15.8178C157.256 15.5911 156.849 15.3545 156.369 15.1078C155.896 14.8678 155.379 14.6278 154.819 14.3878C154.266 14.1478 153.699 13.9245 153.119 13.7178C152.546 13.5111 151.993 13.3278 151.459 13.1678ZM164.139 7.3278C163.939 7.6278 163.689 7.94447 163.389 8.2778C163.096 8.60447 162.769 8.93114 162.409 9.2578C162.049 9.58447 161.666 9.8978 161.259 10.1978C160.859 10.4978 160.449 10.7711 160.029 11.0178C159.976 10.9311 159.903 10.8311 159.809 10.7178C159.723 10.5978 159.636 10.5011 159.549 10.4278C160.129 10.1078 160.686 9.73114 161.219 9.2978C161.759 8.86447 162.246 8.41114 162.679 7.9378C163.113 7.46447 163.459 7.01114 163.719 6.5778H164.479C164.739 6.95114 165.039 7.3178 165.379 7.6778C165.719 8.0378 166.083 8.38114 166.469 8.7078C166.856 9.03447 167.249 9.33447 167.649 9.6078C168.056 9.88114 168.453 10.1145 168.839 10.3078C168.746 10.4011 168.656 10.5078 168.569 10.6278C168.483 10.7411 168.406 10.8545 168.339 10.9678C167.959 10.7411 167.566 10.4845 167.159 10.1978C166.759 9.91114 166.373 9.6078 165.999 9.2878C165.626 8.96114 165.279 8.63114 164.959 8.2978C164.639 7.96447 164.366 7.64114 164.139 7.3278ZM160.759 12.5178H167.579V13.1878H160.759V12.5178ZM161.209 10.2878H167.199V10.9578H161.209V10.2878ZM159.939 14.8378H168.469V15.5178H159.939V14.8378ZM163.759 10.5678H164.539V15.2178H163.759V10.5678ZM171.909 15.5578C171.696 15.2911 171.463 15.0245 171.209 14.7578C170.956 14.4911 170.699 14.2345 170.439 13.9878C170.186 13.7411 169.939 13.5211 169.699 13.3278L170.349 12.7578C170.589 12.9511 170.843 13.1745 171.109 13.4278C171.376 13.6811 171.636 13.9411 171.889 14.2078C172.149 14.4745 172.383 14.7311 172.589 14.9778L171.909 15.5578ZM179.739 9.6178H188.469V10.3478H179.739V9.6178ZM180.549 7.7178H187.749V8.4278H180.549V7.7178ZM182.229 11.4678H187.119V12.1678H182.229V11.4678ZM186.889 11.4678H187.039L187.169 11.4178L187.739 11.7578C187.466 12.0445 187.156 12.3578 186.809 12.6978C186.469 13.0378 186.116 13.3878 185.749 13.7478C185.389 14.1011 185.039 14.4378 184.699 14.7578L184.039 14.3578C184.373 14.0511 184.719 13.7245 185.079 13.3778C185.439 13.0245 185.779 12.6878 186.099 12.3678C186.419 12.0478 186.683 11.7778 186.889 11.5578V11.4678ZM181.749 13.9378L182.179 13.3878C182.546 13.4945 182.939 13.6178 183.359 13.7578C183.779 13.8978 184.196 14.0478 184.609 14.2078C185.023 14.3678 185.409 14.5311 185.769 14.6978C186.136 14.8578 186.449 15.0145 186.709 15.1678L186.259 15.8078C186.013 15.6545 185.713 15.4945 185.359 15.3278C185.006 15.1611 184.623 14.9945 184.209 14.8278C183.803 14.6545 183.386 14.4911 182.959 14.3378C182.539 14.1845 182.136 14.0511 181.749 13.9378ZM183.429 6.5778L184.199 6.6778C184.073 7.12447 183.933 7.5978 183.779 8.0978C183.626 8.59114 183.469 9.0878 183.309 9.5878C183.149 10.0811 182.993 10.5511 182.839 10.9978C182.693 11.4378 182.556 11.8278 182.429 12.1678H181.639C181.779 11.8078 181.926 11.4011 182.079 10.9478C182.239 10.4878 182.399 10.0045 182.559 9.4978C182.726 8.99114 182.883 8.4878 183.029 7.9878C183.183 7.4878 183.316 7.0178 183.429 6.5778ZM189.779 14.5378H198.609V15.2778H189.779V14.5378ZM192.579 6.7178H193.349V14.8478H192.579V6.7178ZM195.029 6.7278H195.789V14.8978H195.029V6.7278ZM197.719 8.9278L198.399 9.2478C198.239 9.6278 198.063 10.0278 197.869 10.4478C197.676 10.8678 197.476 11.2745 197.269 11.6678C197.063 12.0545 196.866 12.4045 196.679 12.7178L196.059 12.3978C196.246 12.0911 196.443 11.7378 196.649 11.3378C196.856 10.9378 197.053 10.5278 197.239 10.1078C197.426 9.6878 197.586 9.29447 197.719 8.9278ZM189.999 9.1078L190.699 8.8978C190.879 9.26447 191.059 9.66114 191.239 10.0878C191.419 10.5145 191.586 10.9278 191.739 11.3278C191.899 11.7211 192.026 12.0645 192.119 12.3578L191.369 12.6378C191.289 12.3378 191.173 11.9845 191.019 11.5778C190.873 11.1711 190.709 10.7511 190.529 10.3178C190.356 9.88447 190.179 9.48114 189.999 9.1078ZM201.909 15.5578C201.696 15.2911 201.463 15.0245 201.209 14.7578C200.956 14.4911 200.699 14.2345 200.439 13.9878C200.186 13.7411 199.939 13.5211 199.699 13.3278L200.349 12.7578C200.589 12.9511 200.843 13.1745 201.109 13.4278C201.376 13.6811 201.636 13.9411 201.889 14.2078C202.149 14.4745 202.383 14.7311 202.589 14.9778L201.909 15.5578ZM211.679 8.6478V9.3578H216.699V8.6478H211.679ZM211.679 7.4478V8.1478H216.699V7.4478H211.679ZM210.959 6.9178H217.449V9.8878H210.959V6.9178ZM209.759 10.4478H218.579V11.0778H209.759V10.4478ZM214.209 11.6978H217.759V12.3078H214.209V11.6978ZM211.069 11.7578H213.529V12.3278H211.069V11.7578ZM211.069 13.0278H213.529V13.5878H211.069V13.0278ZM215.249 12.2578C215.543 12.9778 215.996 13.5978 216.609 14.1178C217.229 14.6311 217.963 14.9945 218.809 15.2078C218.763 15.2545 218.709 15.3111 218.649 15.3778C218.589 15.4511 218.533 15.5211 218.479 15.5878C218.433 15.6611 218.393 15.7278 218.359 15.7878C217.479 15.5278 216.723 15.1111 216.089 14.5378C215.463 13.9578 214.983 13.2578 214.649 12.4378L215.249 12.2578ZM217.529 11.6978H217.669L217.799 11.6678L218.259 11.8578C218.039 12.5378 217.726 13.1311 217.319 13.6378C216.913 14.1445 216.446 14.5745 215.919 14.9278C215.393 15.2745 214.839 15.5445 214.259 15.7378C214.219 15.6511 214.156 15.5478 214.069 15.4278C213.989 15.3078 213.913 15.2145 213.839 15.1478C214.239 15.0345 214.629 14.8745 215.009 14.6678C215.396 14.4611 215.753 14.2178 216.079 13.9378C216.413 13.6578 216.703 13.3411 216.949 12.9878C217.203 12.6278 217.396 12.2378 217.529 11.8178V11.6978ZM209.669 14.5578C209.996 14.5245 210.366 14.4878 210.779 14.4478C211.199 14.4078 211.643 14.3611 212.109 14.3078C212.576 14.2545 213.043 14.2011 213.509 14.1478L213.519 14.7678C212.839 14.8545 212.169 14.9378 211.509 15.0178C210.849 15.0978 210.259 15.1678 209.739 15.2278L209.669 14.5578ZM213.139 10.6478H213.859V15.7978H213.139V10.6478ZM210.629 10.6678H211.319V14.7278H210.629V10.6678ZM220.879 6.5978H221.629V15.7878H220.879V6.5978ZM219.979 8.5278L220.549 8.6078C220.536 8.88114 220.506 9.18114 220.459 9.5078C220.419 9.8278 220.363 10.1478 220.289 10.4678C220.223 10.7811 220.143 11.0611 220.049 11.3078L219.459 11.0978C219.553 10.8778 219.633 10.6178 219.699 10.3178C219.773 10.0178 219.833 9.71114 219.879 9.3978C219.926 9.08447 219.959 8.79447 219.979 8.5278ZM221.649 8.4378L222.179 8.2078C222.286 8.40114 222.389 8.61114 222.489 8.8378C222.596 9.0578 222.689 9.27114 222.769 9.4778C222.849 9.68447 222.909 9.8678 222.949 10.0278L222.389 10.3078C222.349 10.1478 222.289 9.96114 222.209 9.7478C222.129 9.5278 222.039 9.30447 221.939 9.0778C221.846 8.84447 221.749 8.63114 221.649 8.4378ZM223.019 8.1878H227.969V11.5978H227.229V8.8978H223.019V8.1878ZM222.479 11.1878H228.829V11.9178H222.479V11.1878ZM225.839 11.3378C225.999 11.9178 226.219 12.4611 226.499 12.9678C226.779 13.4678 227.119 13.9045 227.519 14.2778C227.926 14.6511 228.393 14.9345 228.919 15.1278C228.859 15.1811 228.793 15.2478 228.719 15.3278C228.653 15.4078 228.589 15.4911 228.529 15.5778C228.469 15.6711 228.419 15.7545 228.379 15.8278C227.826 15.5811 227.343 15.2478 226.929 14.8278C226.516 14.4011 226.166 13.9045 225.879 13.3378C225.593 12.7711 225.359 12.1545 225.179 11.4878L225.839 11.3378ZM224.979 6.5978H225.729V9.9278C225.729 10.3211 225.709 10.7278 225.669 11.1478C225.636 11.5678 225.563 11.9911 225.449 12.4178C225.343 12.8378 225.179 13.2511 224.959 13.6578C224.739 14.0645 224.443 14.4545 224.069 14.8278C223.703 15.1945 223.239 15.5311 222.679 15.8378C222.646 15.7778 222.599 15.7111 222.539 15.6378C222.479 15.5711 222.413 15.5011 222.339 15.4278C222.273 15.3611 222.209 15.3045 222.149 15.2578C222.696 14.9778 223.143 14.6745 223.489 14.3478C223.843 14.0145 224.119 13.6645 224.319 13.2978C224.526 12.9245 224.673 12.5478 224.759 12.1678C224.853 11.7811 224.913 11.3978 224.939 11.0178C224.966 10.6378 224.979 10.2745 224.979 9.9278V6.5978ZM231.909 15.5578C231.696 15.2911 231.463 15.0245 231.209 14.7578C230.956 14.4911 230.699 14.2345 230.439 13.9878C230.186 13.7411 229.939 13.5211 229.699 13.3278L230.349 12.7578C230.589 12.9511 230.843 13.1745 231.109 13.4278C231.376 13.6811 231.636 13.9411 231.889 14.2078C232.149 14.4745 232.383 14.7311 232.589 14.9778L231.909 15.5578ZM241.679 8.6478V9.3578H246.699V8.6478H241.679ZM241.679 7.4478V8.1478H246.699V7.4478H241.679ZM240.959 6.9178H247.449V9.8878H240.959V6.9178ZM239.759 10.4478H248.579V11.0778H239.759V10.4478ZM244.209 11.6978H247.759V12.3078H244.209V11.6978ZM241.069 11.7578H243.529V12.3278H241.069V11.7578ZM241.069 13.0278H243.529V13.5878H241.069V13.0278ZM245.249 12.2578C245.543 12.9778 245.996 13.5978 246.609 14.1178C247.229 14.6311 247.963 14.9945 248.809 15.2078C248.763 15.2545 248.709 15.3111 248.649 15.3778C248.589 15.4511 248.533 15.5211 248.479 15.5878C248.433 15.6611 248.393 15.7278 248.359 15.7878C247.479 15.5278 246.723 15.1111 246.089 14.5378C245.463 13.9578 244.983 13.2578 244.649 12.4378L245.249 12.2578ZM247.529 11.6978H247.669L247.799 11.6678L248.259 11.8578C248.039 12.5378 247.726 13.1311 247.319 13.6378C246.913 14.1445 246.446 14.5745 245.919 14.9278C245.393 15.2745 244.839 15.5445 244.259 15.7378C244.219 15.6511 244.156 15.5478 244.069 15.4278C243.989 15.3078 243.913 15.2145 243.839 15.1478C244.239 15.0345 244.629 14.8745 245.009 14.6678C245.396 14.4611 245.753 14.2178 246.079 13.9378C246.413 13.6578 246.703 13.3411 246.949 12.9878C247.203 12.6278 247.396 12.2378 247.529 11.8178V11.6978ZM239.669 14.5578C239.996 14.5245 240.366 14.4878 240.779 14.4478C241.199 14.4078 241.643 14.3611 242.109 14.3078C242.576 14.2545 243.043 14.2011 243.509 14.1478L243.519 14.7678C242.839 14.8545 242.169 14.9378 241.509 15.0178C240.849 15.0978 240.259 15.1678 239.739 15.2278L239.669 14.5578ZM243.139 10.6478H243.859V15.7978H243.139V10.6478ZM240.629 10.6678H241.319V14.7278H240.629V10.6678ZM254.139 7.3278C253.939 7.6278 253.689 7.94447 253.389 8.2778C253.096 8.60447 252.769 8.93114 252.409 9.2578C252.049 9.58447 251.666 9.8978 251.259 10.1978C250.859 10.4978 250.449 10.7711 250.029 11.0178C249.976 10.9311 249.903 10.8311 249.809 10.7178C249.723 10.5978 249.636 10.5011 249.549 10.4278C250.129 10.1078 250.686 9.73114 251.219 9.2978C251.759 8.86447 252.246 8.41114 252.679 7.9378C253.113 7.46447 253.459 7.01114 253.719 6.5778H254.479C254.739 6.95114 255.039 7.3178 255.379 7.6778C255.719 8.0378 256.083 8.38114 256.469 8.7078C256.856 9.03447 257.249 9.33447 257.649 9.6078C258.056 9.88114 258.453 10.1145 258.839 10.3078C258.746 10.4011 258.656 10.5078 258.569 10.6278C258.483 10.7411 258.406 10.8545 258.339 10.9678C257.959 10.7411 257.566 10.4845 257.159 10.1978C256.759 9.91114 256.373 9.6078 255.999 9.2878C255.626 8.96114 255.279 8.63114 254.959 8.2978C254.639 7.96447 254.366 7.64114 254.139 7.3278ZM250.759 12.5178H257.579V13.1878H250.759V12.5178ZM251.209 10.2878H257.199V10.9578H251.209V10.2878ZM249.939 14.8378H258.469V15.5178H249.939V14.8378ZM253.759 10.5678H254.539V15.2178H253.759V10.5678ZM260.489 8.2078H263.529V14.7478H260.489V14.0678H262.839V8.8778H260.489V8.2078ZM260.049 8.2078H260.739V15.5378H260.049V8.2078ZM260.439 10.9878H263.199V11.6478H260.439V10.9878ZM261.579 6.5778L262.389 6.7178C262.289 7.03114 262.179 7.3478 262.059 7.6678C261.946 7.9878 261.839 8.26114 261.739 8.4878L261.129 8.3378C261.189 8.17114 261.246 7.98447 261.299 7.7778C261.359 7.57114 261.413 7.36114 261.459 7.1478C261.513 6.93447 261.553 6.74447 261.579 6.5778ZM264.959 8.1778H268.029V8.8678H264.959V8.1778ZM267.759 8.1778H268.469C268.469 8.1778 268.469 8.20114 268.469 8.2478C268.469 8.29447 268.469 8.35114 268.469 8.4178C268.469 8.4778 268.466 8.52447 268.459 8.5578C268.419 9.70447 268.379 10.6745 268.339 11.4678C268.306 12.2611 268.263 12.9111 268.209 13.4178C268.156 13.9178 268.093 14.3078 268.019 14.5878C267.953 14.8678 267.869 15.0678 267.769 15.1878C267.656 15.3345 267.536 15.4345 267.409 15.4878C267.289 15.5478 267.139 15.5878 266.959 15.6078C266.793 15.6211 266.573 15.6245 266.299 15.6178C266.033 15.6178 265.756 15.6078 265.469 15.5878C265.463 15.4811 265.436 15.3578 265.389 15.2178C265.349 15.0778 265.293 14.9611 265.219 14.8678C265.553 14.8945 265.853 14.9111 266.119 14.9178C266.393 14.9245 266.589 14.9278 266.709 14.9278C266.809 14.9278 266.889 14.9178 266.949 14.8978C267.016 14.8711 267.079 14.8245 267.139 14.7578C267.219 14.6711 267.289 14.4945 267.349 14.2278C267.416 13.9545 267.473 13.5678 267.519 13.0678C267.566 12.5678 267.609 11.9311 267.649 11.1578C267.689 10.3778 267.726 9.4378 267.759 8.3378V8.1778ZM265.159 6.5578L265.879 6.7178C265.759 7.2178 265.613 7.7078 265.439 8.1878C265.273 8.66114 265.086 9.1078 264.879 9.5278C264.679 9.9478 264.466 10.3178 264.239 10.6378C264.193 10.5978 264.129 10.5511 264.049 10.4978C263.976 10.4378 263.899 10.3845 263.819 10.3378C263.739 10.2845 263.669 10.2411 263.609 10.2078C263.843 9.9078 264.056 9.56447 264.249 9.1778C264.443 8.78447 264.616 8.36447 264.769 7.9178C264.923 7.47114 265.053 7.0178 265.159 6.5578ZM264.699 10.7678L265.289 10.4378C265.476 10.6711 265.669 10.9278 265.869 11.2078C266.076 11.4878 266.266 11.7578 266.439 12.0178C266.619 12.2778 266.763 12.5078 266.869 12.7078L266.229 13.1078C266.129 12.9011 265.993 12.6645 265.819 12.3978C265.653 12.1245 265.469 11.8478 265.269 11.5678C265.076 11.2811 264.886 11.0145 264.699 10.7678ZM150.479 21.1078H157.949V21.8578H150.479V21.1078ZM149.709 23.7478H158.689V24.4978H149.709V23.7478ZM153.759 19.5878H154.549V24.1578H153.759V19.5878ZM152.949 24.2278L153.819 24.4678C153.646 24.8545 153.456 25.2611 153.249 25.6878C153.049 26.1145 152.846 26.5311 152.639 26.9378C152.433 27.3378 152.229 27.6911 152.029 27.9978L151.339 27.7678C151.473 27.5278 151.616 27.2611 151.769 26.9678C151.923 26.6745 152.069 26.3678 152.209 26.0478C152.356 25.7278 152.493 25.4111 152.619 25.0978C152.753 24.7845 152.863 24.4945 152.949 24.2278ZM150.059 27.5878C150.533 27.5745 151.063 27.5578 151.649 27.5378C152.243 27.5111 152.869 27.4845 153.529 27.4578C154.196 27.4245 154.876 27.3945 155.569 27.3678C156.269 27.3345 156.963 27.3011 157.649 27.2678L157.619 28.0078C156.719 28.0545 155.816 28.1011 154.909 28.1478C154.009 28.2011 153.153 28.2445 152.339 28.2778C151.526 28.3178 150.803 28.3511 150.169 28.3778L150.059 27.5878ZM155.579 25.6378L156.269 25.3078C156.569 25.6345 156.869 25.9878 157.169 26.3678C157.469 26.7478 157.743 27.1245 157.989 27.4978C158.243 27.8645 158.443 28.1945 158.589 28.4878L157.849 28.8778C157.709 28.5845 157.516 28.2478 157.269 27.8678C157.023 27.4878 156.749 27.1045 156.449 26.7178C156.156 26.3245 155.866 25.9645 155.579 25.6378ZM160.139 21.3878H168.199V26.0878H167.429V22.1178H160.889V26.1378H160.139V21.3878ZM160.539 24.7778H167.879V25.5178H160.539V24.7778ZM163.759 19.5978H164.549V28.7878H163.759V19.5978ZM172.229 22.3878H172.999V27.4178C172.999 27.6511 173.039 27.8011 173.119 27.8678C173.206 27.9345 173.386 27.9678 173.659 27.9678C173.726 27.9678 173.843 27.9678 174.009 27.9678C174.176 27.9678 174.359 27.9678 174.559 27.9678C174.759 27.9678 174.946 27.9678 175.119 27.9678C175.293 27.9678 175.423 27.9678 175.509 27.9678C175.709 27.9678 175.859 27.9145 175.959 27.8078C176.059 27.7011 176.129 27.4978 176.169 27.1978C176.216 26.8911 176.253 26.4511 176.279 25.8778C176.373 25.9445 176.486 26.0111 176.619 26.0778C176.759 26.1445 176.883 26.1911 176.989 26.2178C176.949 26.8445 176.886 27.3378 176.799 27.6978C176.719 28.0511 176.583 28.3011 176.389 28.4478C176.196 28.5945 175.916 28.6678 175.549 28.6678C175.503 28.6678 175.413 28.6678 175.279 28.6678C175.146 28.6678 174.993 28.6678 174.819 28.6678C174.653 28.6678 174.483 28.6678 174.309 28.6678C174.136 28.6678 173.986 28.6678 173.859 28.6678C173.733 28.6678 173.646 28.6678 173.599 28.6678C173.246 28.6678 172.969 28.6311 172.769 28.5578C172.569 28.4845 172.429 28.3545 172.349 28.1678C172.269 27.9878 172.229 27.7345 172.229 27.4078V22.3878ZM172.309 20.2178L172.779 19.6378C173.179 19.7778 173.596 19.9445 174.029 20.1378C174.463 20.3311 174.869 20.5311 175.249 20.7378C175.636 20.9378 175.963 21.1278 176.229 21.3078L175.739 21.9678C175.486 21.7745 175.166 21.5711 174.779 21.3578C174.399 21.1445 173.993 20.9378 173.559 20.7378C173.133 20.5311 172.716 20.3578 172.309 20.2178ZM170.549 23.1978L171.279 23.3478C171.233 23.7945 171.159 24.2578 171.059 24.7378C170.966 25.2178 170.843 25.6745 170.689 26.1078C170.536 26.5411 170.339 26.9178 170.099 27.2378L169.419 26.8378C169.646 26.5378 169.833 26.1878 169.979 25.7878C170.133 25.3878 170.256 24.9645 170.349 24.5178C170.443 24.0711 170.509 23.6311 170.549 23.1978ZM176.389 23.1978L177.059 22.8678C177.359 23.2478 177.636 23.6578 177.889 24.0978C178.149 24.5378 178.369 24.9745 178.549 25.4078C178.736 25.8345 178.869 26.2278 178.949 26.5878L178.209 26.9378C178.136 26.5845 178.009 26.1911 177.829 25.7578C177.649 25.3245 177.433 24.8845 177.179 24.4378C176.933 23.9911 176.669 23.5778 176.389 23.1978ZM184.039 19.8378H184.799V27.2678C184.799 27.4545 184.816 27.5978 184.849 27.6978C184.883 27.7911 184.946 27.8578 185.039 27.8978C185.139 27.9311 185.283 27.9478 185.469 27.9478C185.536 27.9478 185.656 27.9478 185.829 27.9478C186.009 27.9478 186.206 27.9478 186.419 27.9478C186.639 27.9478 186.843 27.9478 187.029 27.9478C187.216 27.9478 187.349 27.9478 187.429 27.9478C187.616 27.9478 187.753 27.8978 187.839 27.7978C187.933 27.6911 187.999 27.5045 188.039 27.2378C188.086 26.9711 188.119 26.5978 188.139 26.1178C188.233 26.1845 188.346 26.2511 188.479 26.3178C188.619 26.3778 188.743 26.4178 188.849 26.4378C188.816 26.9845 188.756 27.4211 188.669 27.7478C188.589 28.0678 188.456 28.2978 188.269 28.4378C188.089 28.5778 187.823 28.6478 187.469 28.6478C187.416 28.6478 187.319 28.6478 187.179 28.6478C187.046 28.6478 186.886 28.6478 186.699 28.6478C186.519 28.6478 186.339 28.6478 186.159 28.6478C185.979 28.6478 185.819 28.6478 185.679 28.6478C185.546 28.6478 185.456 28.6478 185.409 28.6478C185.063 28.6478 184.789 28.6078 184.589 28.5278C184.389 28.4478 184.246 28.3045 184.159 28.0978C184.079 27.8978 184.039 27.6145 184.039 27.2478V19.8378ZM187.799 21.4978L188.339 22.1378C188.006 22.4178 187.629 22.6945 187.209 22.9678C186.789 23.2345 186.349 23.4945 185.889 23.7478C185.436 24.0011 184.989 24.2411 184.549 24.4678C184.523 24.3811 184.476 24.2845 184.409 24.1778C184.349 24.0645 184.293 23.9645 184.239 23.8778C184.666 23.6511 185.099 23.4045 185.539 23.1378C185.979 22.8711 186.396 22.5978 186.789 22.3178C187.183 22.0311 187.519 21.7578 187.799 21.4978ZM182.309 19.7478L183.039 19.9978C182.786 20.5778 182.489 21.1478 182.149 21.7078C181.809 22.2678 181.443 22.7945 181.049 23.2878C180.663 23.7745 180.259 24.2045 179.839 24.5778C179.819 24.5111 179.779 24.4311 179.719 24.3378C179.666 24.2445 179.609 24.1511 179.549 24.0578C179.489 23.9578 179.436 23.8778 179.389 23.8178C179.776 23.4978 180.149 23.1245 180.509 22.6978C180.876 22.2645 181.213 21.7978 181.519 21.2978C181.826 20.7911 182.089 20.2745 182.309 19.7478ZM181.159 22.3678L181.899 21.6278L181.909 21.6478V28.7778H181.159V22.3678ZM195.039 24.8878C195.253 25.3745 195.539 25.8278 195.899 26.2478C196.266 26.6678 196.693 27.0311 197.179 27.3378C197.666 27.6445 198.193 27.8811 198.759 28.0478C198.706 28.0945 198.646 28.1545 198.579 28.2278C198.519 28.3011 198.459 28.3778 198.399 28.4578C198.346 28.5378 198.299 28.6111 198.259 28.6778C197.679 28.4778 197.143 28.2045 196.649 27.8578C196.163 27.5111 195.729 27.1045 195.349 26.6378C194.976 26.1645 194.666 25.6445 194.419 25.0778L195.039 24.8878ZM197.709 24.7678L198.319 25.1478C197.986 25.4145 197.616 25.6845 197.209 25.9578C196.803 26.2311 196.426 26.4645 196.079 26.6578L195.569 26.2978C195.803 26.1645 196.049 26.0111 196.309 25.8378C196.576 25.6578 196.833 25.4745 197.079 25.2878C197.326 25.1011 197.536 24.9278 197.709 24.7678ZM192.019 24.3978L192.659 24.6678C192.426 24.8545 192.166 25.0445 191.879 25.2378C191.599 25.4311 191.313 25.6145 191.019 25.7878C190.726 25.9611 190.446 26.1111 190.179 26.2378C190.146 26.1911 190.096 26.1411 190.029 26.0878C189.963 26.0278 189.893 25.9678 189.819 25.9078C189.753 25.8411 189.693 25.7911 189.639 25.7578C190.053 25.5845 190.473 25.3778 190.899 25.1378C191.333 24.8911 191.706 24.6445 192.019 24.3978ZM192.409 26.1778L193.099 26.4578C192.833 26.7311 192.529 27.0045 192.189 27.2778C191.849 27.5445 191.496 27.7911 191.129 28.0178C190.769 28.2511 190.419 28.4545 190.079 28.6278C190.039 28.5811 189.983 28.5245 189.909 28.4578C189.836 28.3911 189.759 28.3245 189.679 28.2578C189.606 28.1978 189.539 28.1478 189.479 28.1078C189.833 27.9478 190.189 27.7678 190.549 27.5678C190.909 27.3611 191.249 27.1378 191.569 26.8978C191.896 26.6578 192.176 26.4178 192.409 26.1778ZM189.789 20.0878H194.559V20.6478H189.789V20.0878ZM190.909 21.2678H193.579V21.7578H190.909V21.2678ZM190.909 22.3778H193.579V22.8578H190.909V22.3778ZM194.449 20.5778H197.909V21.1878H194.449V20.5778ZM193.239 20.3078H193.929V24.4878H193.239V20.3078ZM197.649 20.5778H197.789L197.909 20.5378L198.389 20.7678C198.163 21.3545 197.846 21.8778 197.439 22.3378C197.033 22.7911 196.576 23.1811 196.069 23.5078C195.569 23.8345 195.056 24.0945 194.529 24.2878C194.483 24.2011 194.416 24.1045 194.329 23.9978C194.249 23.8911 194.176 23.8045 194.109 23.7378C194.596 23.5845 195.073 23.3611 195.539 23.0678C196.013 22.7745 196.436 22.4278 196.809 22.0278C197.183 21.6278 197.463 21.1845 197.649 20.6978V20.5778ZM189.639 23.6878C190.146 23.6545 190.749 23.6111 191.449 23.5578C192.149 23.5045 192.863 23.4478 193.589 23.3878V23.9178C192.903 23.9845 192.219 24.0511 191.539 24.1178C190.859 24.1778 190.256 24.2311 189.729 24.2778L189.639 23.6878ZM194.629 22.0478L195.129 21.5978C195.443 21.7445 195.766 21.9078 196.099 22.0878C196.439 22.2678 196.776 22.4578 197.109 22.6578C197.443 22.8511 197.753 23.0445 198.039 23.2378C198.326 23.4311 198.569 23.6111 198.769 23.7778L198.229 24.3078C198.043 24.1411 197.809 23.9611 197.529 23.7678C197.249 23.5678 196.946 23.3645 196.619 23.1578C196.293 22.9511 195.959 22.7545 195.619 22.5678C195.279 22.3745 194.949 22.2011 194.629 22.0478ZM195.819 24.1078L196.419 24.4178C196.079 24.6311 195.686 24.8411 195.239 25.0478C194.799 25.2545 194.343 25.4478 193.869 25.6278C193.396 25.8078 192.953 25.9611 192.539 26.0878C192.513 26.0411 192.469 25.9811 192.409 25.9078C192.356 25.8278 192.299 25.7545 192.239 25.6878C192.186 25.6145 192.136 25.5545 192.089 25.5078C192.509 25.4078 192.946 25.2845 193.399 25.1378C193.859 24.9845 194.299 24.8211 194.719 24.6478C195.146 24.4678 195.513 24.2878 195.819 24.1078ZM190.559 20.3078H191.249V23.8078L190.559 23.8878V20.3078ZM193.789 25.4278L194.159 25.0478L194.529 25.1678V28.7678H193.789V25.4278ZM201.659 22.8678H206.709V23.5378H201.659V22.8678ZM201.479 27.7178H206.839V28.3878H201.479V27.7178ZM201.139 24.7978H207.259V28.8078H206.499V25.4778H201.879V28.8078H201.139V24.7978ZM204.159 20.3578C203.886 20.7645 203.529 21.1845 203.089 21.6178C202.656 22.0511 202.173 22.4678 201.639 22.8678C201.113 23.2678 200.563 23.6211 199.989 23.9278C199.956 23.8745 199.913 23.8111 199.859 23.7378C199.806 23.6645 199.749 23.5911 199.689 23.5178C199.629 23.4445 199.573 23.3845 199.519 23.3378C200.106 23.0378 200.669 22.6811 201.209 22.2678C201.756 21.8545 202.246 21.4178 202.679 20.9578C203.119 20.4978 203.469 20.0511 203.729 19.6178H204.499C204.766 19.9911 205.069 20.3545 205.409 20.7078C205.756 21.0611 206.123 21.3945 206.509 21.7078C206.903 22.0211 207.303 22.3078 207.709 22.5678C208.123 22.8211 208.526 23.0345 208.919 23.2078C208.833 23.3011 208.746 23.4078 208.659 23.5278C208.573 23.6478 208.493 23.7645 208.419 23.8778C208.026 23.6645 207.629 23.4245 207.229 23.1578C206.829 22.8911 206.439 22.6045 206.059 22.2978C205.679 21.9845 205.326 21.6645 204.999 21.3378C204.673 21.0045 204.393 20.6778 204.159 20.3578ZM215.629 23.6578L216.419 23.8878C216.059 24.8145 215.576 25.5978 214.969 26.2378C214.363 26.8778 213.646 27.4078 212.819 27.8278C211.999 28.2411 211.079 28.5778 210.059 28.8378C210.033 28.7711 209.989 28.6911 209.929 28.5978C209.876 28.5111 209.816 28.4245 209.749 28.3378C209.689 28.2511 209.633 28.1778 209.579 28.1178C210.586 27.9111 211.486 27.6211 212.279 27.2478C213.079 26.8678 213.759 26.3878 214.319 25.8078C214.886 25.2211 215.323 24.5045 215.629 23.6578ZM212.359 21.9378L213.129 22.2278C212.889 22.5478 212.613 22.8611 212.299 23.1678C211.993 23.4745 211.666 23.7645 211.319 24.0378C210.979 24.3045 210.649 24.5378 210.329 24.7378C210.289 24.6845 210.233 24.6211 210.159 24.5478C210.086 24.4678 210.009 24.3911 209.929 24.3178C209.849 24.2445 209.779 24.1845 209.719 24.1378C210.046 23.9645 210.373 23.7611 210.699 23.5278C211.026 23.2945 211.333 23.0445 211.619 22.7778C211.913 22.5045 212.159 22.2245 212.359 21.9378ZM212.769 23.7178C213.236 24.8978 213.973 25.8578 214.979 26.5978C215.993 27.3311 217.273 27.8278 218.819 28.0878C218.766 28.1411 218.706 28.2111 218.639 28.2978C218.579 28.3845 218.519 28.4711 218.459 28.5578C218.406 28.6511 218.359 28.7311 218.319 28.7978C217.259 28.5911 216.326 28.2778 215.519 27.8578C214.713 27.4311 214.023 26.8911 213.449 26.2378C212.883 25.5845 212.419 24.8178 212.059 23.9378L212.769 23.7178ZM209.789 20.8978H218.569V21.6378H209.789V20.8978ZM213.779 19.5878H214.539V21.3678H213.779V19.5878ZM215.359 22.3578L215.969 21.9078C216.289 22.1145 216.619 22.3478 216.959 22.6078C217.299 22.8678 217.619 23.1311 217.919 23.3978C218.226 23.6578 218.476 23.8978 218.669 24.1178L218.009 24.6478C217.836 24.4211 217.603 24.1745 217.309 23.9078C217.016 23.6345 216.696 23.3645 216.349 23.0978C216.009 22.8245 215.679 22.5778 215.359 22.3578ZM221.779 22.2678V23.2678H226.719V22.2678H221.779ZM221.779 20.6878V21.6678H226.719V20.6878H221.779ZM221.039 20.0578H227.469V23.8978H221.039V20.0578ZM221.599 24.7478H227.589V25.4278H221.599V24.7478ZM227.399 24.7478H228.159C228.159 24.7478 228.156 24.7678 228.149 24.8078C228.149 24.8478 228.146 24.8945 228.139 24.9478C228.139 25.0011 228.136 25.0478 228.129 25.0878C228.069 25.8345 228.003 26.4411 227.929 26.9078C227.863 27.3745 227.789 27.7345 227.709 27.9878C227.629 28.2345 227.539 28.4111 227.439 28.5178C227.346 28.6178 227.243 28.6878 227.129 28.7278C227.023 28.7678 226.896 28.7911 226.749 28.7978C226.623 28.8111 226.446 28.8145 226.219 28.8078C225.999 28.8078 225.763 28.8011 225.509 28.7878C225.503 28.6945 225.483 28.5845 225.449 28.4578C225.416 28.3311 225.369 28.2211 225.309 28.1278C225.556 28.1545 225.783 28.1711 225.989 28.1778C226.203 28.1845 226.353 28.1878 226.439 28.1878C226.533 28.1878 226.606 28.1811 226.659 28.1678C226.713 28.1545 226.763 28.1211 226.809 28.0678C226.889 27.9945 226.963 27.8445 227.029 27.6178C227.096 27.3845 227.159 27.0478 227.219 26.6078C227.286 26.1611 227.346 25.5811 227.399 24.8678V24.7478ZM222.349 23.5778L223.079 23.8078C222.839 24.2011 222.559 24.5778 222.239 24.9378C221.919 25.2978 221.583 25.6311 221.229 25.9378C220.876 26.2445 220.519 26.5111 220.159 26.7378C220.119 26.6911 220.063 26.6345 219.989 26.5678C219.916 26.4945 219.843 26.4245 219.769 26.3578C219.696 26.2911 219.629 26.2411 219.569 26.2078C220.116 25.8945 220.639 25.5078 221.139 25.0478C221.639 24.5878 222.043 24.0978 222.349 23.5778ZM223.439 24.9578L224.149 25.1678C223.909 25.6411 223.619 26.0878 223.279 26.5078C222.939 26.9278 222.576 27.3145 222.189 27.6678C221.803 28.0211 221.403 28.3311 220.989 28.5978C220.956 28.5511 220.903 28.4911 220.829 28.4178C220.756 28.3511 220.683 28.2845 220.609 28.2178C220.536 28.1511 220.473 28.0978 220.419 28.0578C221.039 27.7045 221.616 27.2578 222.149 26.7178C222.683 26.1711 223.113 25.5845 223.439 24.9578ZM225.509 25.0078L226.229 25.1778C225.963 25.9311 225.616 26.6278 225.189 27.2678C224.769 27.9011 224.303 28.4278 223.789 28.8478C223.749 28.8078 223.693 28.7578 223.619 28.6978C223.546 28.6378 223.469 28.5778 223.389 28.5178C223.316 28.4645 223.253 28.4178 223.199 28.3778C223.706 27.9911 224.159 27.5045 224.559 26.9178C224.959 26.3311 225.276 25.6945 225.509 25.0078ZM230.229 20.2678H238.109V21.0178H230.229V20.2678ZM229.699 24.5178H238.669V25.2678H229.699V24.5178ZM230.919 21.6978L231.599 21.4978C231.733 21.7378 231.863 21.9945 231.989 22.2678C232.116 22.5411 232.229 22.8111 232.329 23.0778C232.436 23.3378 232.509 23.5645 232.549 23.7578L231.839 24.0078C231.793 23.8078 231.719 23.5778 231.619 23.3178C231.526 23.0511 231.419 22.7778 231.299 22.4978C231.179 22.2111 231.053 21.9445 230.919 21.6978ZM236.729 21.4478L237.519 21.6678C237.399 21.9411 237.266 22.2211 237.119 22.5078C236.979 22.7945 236.839 23.0711 236.699 23.3378C236.559 23.6045 236.423 23.8378 236.289 24.0378L235.639 23.8278C235.766 23.6145 235.896 23.3711 236.029 23.0978C236.169 22.8178 236.299 22.5345 236.419 22.2478C236.539 21.9545 236.643 21.6878 236.729 21.4478ZM233.769 20.5578H234.549V28.7878H233.769V20.5578ZM241.339 27.6278H246.969V28.3478H241.339V27.6278ZM240.989 24.5278H247.369V28.7778H246.569V25.2478H241.759V28.7978H240.989V24.5278ZM242.999 19.5578L243.829 19.8478C243.629 20.2345 243.406 20.6378 243.159 21.0578C242.919 21.4711 242.676 21.8711 242.429 22.2578C242.183 22.6378 241.946 22.9745 241.719 23.2678L241.059 22.9878C241.286 22.6945 241.519 22.3511 241.759 21.9578C241.999 21.5578 242.226 21.1478 242.439 20.7278C242.659 20.3078 242.846 19.9178 242.999 19.5578ZM245.409 21.1778L245.999 20.7478C246.339 21.0145 246.686 21.3145 247.039 21.6478C247.393 21.9745 247.716 22.3078 248.009 22.6478C248.309 22.9811 248.546 23.2845 248.719 23.5578L248.069 24.0578C247.909 23.7845 247.683 23.4778 247.389 23.1378C247.103 22.7978 246.786 22.4578 246.439 22.1178C246.093 21.7711 245.749 21.4578 245.409 21.1778ZM239.809 22.6678C240.283 22.6545 240.823 22.6378 241.429 22.6178C242.036 22.5911 242.683 22.5645 243.369 22.5378C244.063 22.5111 244.769 22.4811 245.489 22.4478C246.216 22.4145 246.933 22.3845 247.639 22.3578L247.599 23.0778C246.899 23.1178 246.193 23.1545 245.479 23.1878C244.773 23.2145 244.079 23.2445 243.399 23.2778C242.719 23.3111 242.079 23.3411 241.479 23.3678C240.879 23.3878 240.343 23.4078 239.869 23.4278L239.809 22.6678Z" fill="white"/>
<rect x="133.111" y="13.0928" width="1.38657" height="6.93287" fill="white"/>
<defs>
<linearGradient id="paint0_linear_3794_1723" x1="25.3053" y1="28.7373" x2="0.552631" y2="11.042" gradientUnits="userSpaceOnUse">
<stop stop-color="#8B4FDD"/>
<stop offset="1" stop-color="#12B886"/>
</linearGradient>
<linearGradient id="paint1_linear_3794_1723" x1="25.9831" y1="30.2982" x2="14.9802" y2="15.4974" gradientUnits="userSpaceOnUse">
<stop stop-color="#8B4FDD"/>
<stop offset="1" stop-color="#12B886"/>
</linearGradient>
<linearGradient id="paint2_linear_3794_1723" x1="31.5268" y1="23.6367" x2="12.6744" y2="12.4647" gradientUnits="userSpaceOnUse">
<stop stop-color="#8B4FDD"/>
<stop offset="1" stop-color="#12B886"/>
</linearGradient>
<linearGradient id="paint3_linear_3794_1723" x1="17.2419" y1="23.6367" x2="-1.61455" y2="12.4571" gradientUnits="userSpaceOnUse">
<stop stop-color="#8B4FDD"/>
<stop offset="1" stop-color="#12B886"/>
</linearGradient>
</defs>
</svg>
