<svg width="345" height="32" viewBox="0 0 345 32" fill="none" xmlns="http://www.w3.org/2000/svg">
<path d="M29.0052 25.7243L27.5381 23.2358H6.45412L17.0125 4.84148L14.2556 0H10.6978C9.93386 0.00172509 9.18404 0.207612 8.52497 0.596622C7.86586 0.985632 7.32117 1.54383 6.94643 2.21419L0.5661 13.5495C0.19512 14.2038 0 14.9442 0 15.6976C0 16.451 0.19512 17.1914 0.5661 17.8457L5.03298 25.7771L6.94643 29.1744C7.2744 29.7572 7.73189 30.2555 8.28308 30.6305C8.83427 31.0054 9.46416 31.2468 10.1235 31.3358C10.3127 31.3624 10.5035 31.3756 10.6945 31.3754H23.3141C24.0778 31.3758 24.828 31.1724 25.4882 30.7857C26.1483 30.3991 26.6948 29.8431 27.0721 29.1744L28.9724 25.7771L29.0052 25.7243Z" fill="url(#paint0_linear_3898_1859)"/>
<path d="M29.041 25.7243L29.0049 25.7871L27.1013 29.1712C26.7257 29.8398 26.1804 30.3959 25.5212 30.7826C24.8621 31.1693 24.1127 31.3728 23.3499 31.3722H10.7303C10.5393 31.3723 10.3485 31.3591 10.1592 31.3325C9.49886 31.2443 8.86775 31.0033 8.31538 30.6283C7.76304 30.2533 7.30447 29.7546 6.97564 29.1712L5.06876 25.7772L6.52599 23.2392L6.60148 23.1929L13.6776 18.8967C14.7705 18.1829 15.5878 17.7632 16.3623 17.631C16.3798 17.6294 16.3974 17.6294 16.4149 17.631L16.5658 17.6111L16.8284 17.5913H16.9859C17.1122 17.5948 17.2382 17.6047 17.3634 17.6211C18.1675 17.7301 19.0274 18.1366 20.2024 18.8174L27.5345 23.2094L27.5772 23.2358L29.041 25.7243Z" fill="url(#paint1_linear_3898_1859)"/>
<path d="M33.483 17.8457L29.0095 25.7771L29.0456 25.7144L27.5752 23.2358L17.0726 4.81834V4.84148L14.2927 0H23.3545C24.1188 0.00216462 24.869 0.2082 25.5285 0.597138C26.188 0.986075 26.7334 1.54402 27.1092 2.21419L33.483 13.5495C33.8523 14.2043 34.0466 14.9445 34.0466 15.6976C34.0466 16.4507 33.8523 17.1909 33.483 17.8457Z" fill="url(#paint2_linear_3898_1859)"/>
<path d="M0.5661 17.8457L5.04283 25.7771L5.00672 25.7144L6.47381 23.2259L16.9764 4.80843V4.83156L19.7629 0H10.6978C9.93386 0.00172509 9.18404 0.207612 8.52497 0.596622C7.86586 0.985632 7.32117 1.54383 6.94643 2.21419L0.5661 13.5495C0.19512 14.2038 0 14.9442 0 15.6976C0 16.451 0.19512 17.1914 0.5661 17.8457Z" fill="url(#paint3_linear_3898_1859)"/>
<path d="M44.2051 25.5562L51.0318 6.25637H54.629L61.4557 25.5562H57.7272L56.5457 22.1192H49.1151L47.9336 25.5562H44.2051ZM52.8435 11.3589L50.3229 18.6823H55.3642L52.8435 11.3589ZM65.4414 25.5562L59.5862 10.0899H63.2884L67.2531 20.9824L71.1391 10.0899H74.7887L69.0123 25.5562H65.4414ZM82.5269 25.8734C77.6957 25.8734 74.4136 22.3307 74.4136 17.8627C74.4136 13.3418 77.9057 9.77264 82.3956 9.77264C86.9642 9.77264 90.2988 13.1567 90.2988 17.7305V19.0789H77.8007C78.2996 21.2732 80.0062 22.7273 82.5269 22.7273C84.5224 22.7273 86.0452 21.6698 86.7804 20.0042L89.6949 21.6962C88.3558 24.2078 85.9927 25.8734 82.5269 25.8734ZM82.3956 12.9188C80.2688 12.9188 78.6146 14.1878 77.9845 16.0913H86.7017C86.1765 14.0027 84.6011 12.9188 82.3956 12.9188ZM91.4406 23.732C91.4406 22.4365 92.2546 21.564 93.5937 21.564C94.9327 21.564 95.7204 22.4365 95.7204 23.732C95.7204 25.001 94.9065 25.8734 93.5674 25.8734C92.2283 25.8734 91.4406 25.001 91.4406 23.732ZM104.386 25.8734C100.684 25.8734 96.8239 22.9124 96.8239 17.8363C96.8239 12.7073 100.552 9.77264 104.438 9.77264C106.46 9.77264 108.245 10.5922 109.374 11.9406V10.0899H112.919V25.5562H109.374V23.5469C108.245 25.001 106.407 25.8734 104.386 25.8734ZM104.963 22.5951C107.615 22.5951 109.558 20.4536 109.558 17.7834C109.558 15.1396 107.615 13.0245 104.963 13.0245C102.338 13.0245 100.316 15.1131 100.316 17.7834C100.316 20.4801 102.338 22.5951 104.963 22.5951ZM114.938 25.5562V10.0899H118.509V25.5562H114.938ZM114.492 6.30925C114.492 4.96091 115.358 4.06201 116.724 4.06201C118.115 4.06201 118.955 4.96091 118.955 6.30925C118.955 7.65759 118.115 8.53005 116.724 8.53005C115.28 8.53005 114.492 7.65759 114.492 6.30925Z" fill="white"/>
<path d="M151.423 14.8467V7.97168H149.3V6.65168H155.02V7.97168H152.93V14.8467H151.423ZM155.812 14.8467V6.51968H157.253V10.0397L157.055 9.83068C157.194 9.47135 157.422 9.20001 157.737 9.01668C158.06 8.82601 158.434 8.73068 158.859 8.73068C159.299 8.73068 159.688 8.82601 160.025 9.01668C160.37 9.20735 160.637 9.47501 160.828 9.81968C161.019 10.157 161.114 10.5493 161.114 10.9967V14.8467H159.673V11.3377C159.673 11.0737 159.622 10.8463 159.519 10.6557C159.416 10.465 159.273 10.3183 159.09 10.2157C158.914 10.1057 158.705 10.0507 158.463 10.0507C158.228 10.0507 158.019 10.1057 157.836 10.2157C157.653 10.3183 157.51 10.465 157.407 10.6557C157.304 10.8463 157.253 11.0737 157.253 11.3377V14.8467H155.812ZM165.171 14.9787C164.555 14.9787 164.016 14.8393 163.554 14.5607C163.092 14.282 162.732 13.9043 162.476 13.4277C162.219 12.951 162.091 12.423 162.091 11.8437C162.091 11.2423 162.219 10.7107 162.476 10.2487C162.74 9.77935 163.095 9.40901 163.543 9.13768C163.997 8.86635 164.503 8.73068 165.061 8.73068C165.53 8.73068 165.941 8.80768 166.293 8.96168C166.652 9.11568 166.956 9.32835 167.206 9.59968C167.455 9.87101 167.646 10.1827 167.778 10.5347C167.91 10.8793 167.976 11.2533 167.976 11.6567C167.976 11.7593 167.968 11.8657 167.954 11.9757C167.946 12.0857 167.928 12.181 167.899 12.2617H163.279V11.1617H167.085L166.403 11.6787C166.469 11.3413 166.45 11.0407 166.348 10.7767C166.252 10.5127 166.091 10.3037 165.864 10.1497C165.644 9.99568 165.376 9.91868 165.061 9.91868C164.76 9.91868 164.492 9.99568 164.258 10.1497C164.023 10.2963 163.843 10.5163 163.719 10.8097C163.601 11.0957 163.557 11.444 163.587 11.8547C163.557 12.2213 163.605 12.5477 163.73 12.8337C163.862 13.1123 164.052 13.3287 164.302 13.4827C164.558 13.6367 164.852 13.7137 165.182 13.7137C165.512 13.7137 165.79 13.644 166.018 13.5047C166.252 13.3653 166.436 13.1783 166.568 12.9437L167.734 13.5157C167.616 13.8017 167.433 14.0547 167.184 14.2747C166.934 14.4947 166.637 14.667 166.293 14.7917C165.955 14.9163 165.581 14.9787 165.171 14.9787ZM174.301 14.9787C173.67 14.9787 173.109 14.8467 172.618 14.5827C172.134 14.3187 171.753 13.9557 171.474 13.4937C171.195 13.0317 171.056 12.5073 171.056 11.9207V6.65168H172.552V11.8437C172.552 12.181 172.625 12.4853 172.772 12.7567C172.926 13.028 173.135 13.2407 173.399 13.3947C173.663 13.5413 173.964 13.6147 174.301 13.6147C174.646 13.6147 174.946 13.5413 175.203 13.3947C175.467 13.2407 175.672 13.028 175.819 12.7567C175.973 12.4853 176.05 12.181 176.05 11.8437V6.65168H177.546V11.9207C177.546 12.5073 177.407 13.0317 177.128 13.4937C176.849 13.9557 176.464 14.3187 175.973 14.5827C175.489 14.8467 174.932 14.9787 174.301 14.9787ZM178.919 14.8467V6.51968H180.36V14.8467H178.919ZM184.418 14.9127C183.743 14.9127 183.219 14.7293 182.845 14.3627C182.478 13.9887 182.295 13.4643 182.295 12.7897V10.1497H181.261V8.86268H181.371C181.664 8.86268 181.892 8.78568 182.053 8.63168C182.214 8.47768 182.295 8.25401 182.295 7.96068V7.49868H183.736V8.86268H185.111V10.1497H183.736V12.7127C183.736 12.9107 183.769 13.0793 183.835 13.2187C183.908 13.358 184.018 13.4643 184.165 13.5377C184.319 13.611 184.513 13.6477 184.748 13.6477C184.799 13.6477 184.858 13.644 184.924 13.6367C184.997 13.6293 185.067 13.622 185.133 13.6147V14.8467C185.03 14.8613 184.913 14.876 184.781 14.8907C184.649 14.9053 184.528 14.9127 184.418 14.9127ZM186.234 14.8467V8.86268H187.675V14.8467H186.234ZM186.234 8.19168V6.65168H187.675V8.19168H186.234ZM189.006 14.8467V8.86268H190.359V10.2487L190.205 10.0177C190.315 9.58501 190.535 9.26235 190.865 9.04968C191.195 8.83701 191.583 8.73068 192.031 8.73068C192.522 8.73068 192.955 8.85901 193.329 9.11568C193.703 9.37235 193.945 9.70968 194.055 10.1277L193.648 10.1607C193.831 9.68401 194.106 9.32835 194.473 9.09368C194.839 8.85168 195.261 8.73068 195.738 8.73068C196.163 8.73068 196.541 8.82601 196.871 9.01668C197.208 9.20735 197.472 9.47501 197.663 9.81968C197.853 10.157 197.949 10.5493 197.949 10.9967V14.8467H196.508V11.3377C196.508 11.0737 196.46 10.8463 196.365 10.6557C196.269 10.465 196.137 10.3183 195.969 10.2157C195.8 10.1057 195.595 10.0507 195.353 10.0507C195.125 10.0507 194.924 10.1057 194.748 10.2157C194.572 10.3183 194.436 10.465 194.341 10.6557C194.245 10.8463 194.198 11.0737 194.198 11.3377V14.8467H192.757V11.3377C192.757 11.0737 192.709 10.8463 192.614 10.6557C192.518 10.465 192.383 10.3183 192.207 10.2157C192.038 10.1057 191.836 10.0507 191.602 10.0507C191.374 10.0507 191.173 10.1057 190.997 10.2157C190.821 10.3183 190.685 10.465 190.59 10.6557C190.494 10.8463 190.447 11.0737 190.447 11.3377V14.8467H189.006ZM200.983 14.9787C200.565 14.9787 200.202 14.909 199.894 14.7697C199.586 14.6303 199.347 14.4323 199.179 14.1757C199.01 13.9117 198.926 13.6073 198.926 13.2627C198.926 12.9327 198.999 12.6393 199.146 12.3827C199.292 12.1187 199.52 11.8987 199.828 11.7227C200.136 11.5467 200.524 11.422 200.994 11.3487L202.952 11.0297V12.1297L201.269 12.4157C200.983 12.467 200.77 12.5587 200.631 12.6907C200.491 12.8227 200.422 12.995 200.422 13.2077C200.422 13.413 200.499 13.578 200.653 13.7027C200.814 13.82 201.012 13.8787 201.247 13.8787C201.547 13.8787 201.811 13.8163 202.039 13.6917C202.273 13.5597 202.453 13.38 202.578 13.1527C202.71 12.9253 202.776 12.676 202.776 12.4047V10.8647C202.776 10.608 202.673 10.3953 202.468 10.2267C202.27 10.0507 202.006 9.96268 201.676 9.96268C201.368 9.96268 201.093 10.047 200.851 10.2157C200.616 10.377 200.444 10.5933 200.334 10.8647L199.157 10.2927C199.274 9.97735 199.457 9.70601 199.707 9.47868C199.963 9.24401 200.264 9.06068 200.609 8.92868C200.953 8.79668 201.327 8.73068 201.731 8.73068C202.222 8.73068 202.655 8.82235 203.029 9.00568C203.403 9.18168 203.692 9.43101 203.898 9.75368C204.11 10.069 204.217 10.4393 204.217 10.8647V14.8467H202.853V13.8237L203.161 13.8017C203.007 14.0583 202.823 14.2747 202.611 14.4507C202.398 14.6193 202.156 14.7513 201.885 14.8467C201.613 14.9347 201.313 14.9787 200.983 14.9787ZM208.169 14.9127C207.494 14.9127 206.97 14.7293 206.596 14.3627C206.229 13.9887 206.046 13.4643 206.046 12.7897V10.1497H205.012V8.86268H205.122C205.415 8.86268 205.643 8.78568 205.804 8.63168C205.965 8.47768 206.046 8.25401 206.046 7.96068V7.49868H207.487V8.86268H208.862V10.1497H207.487V12.7127C207.487 12.9107 207.52 13.0793 207.586 13.2187C207.659 13.358 207.769 13.4643 207.916 13.5377C208.07 13.611 208.264 13.6477 208.499 13.6477C208.55 13.6477 208.609 13.644 208.675 13.6367C208.748 13.6293 208.818 13.622 208.884 13.6147V14.8467C208.781 14.8613 208.664 14.876 208.532 14.8907C208.4 14.9053 208.279 14.9127 208.169 14.9127ZM212.769 14.9787C212.153 14.9787 211.614 14.8393 211.152 14.5607C210.69 14.282 210.331 13.9043 210.074 13.4277C209.818 12.951 209.689 12.423 209.689 11.8437C209.689 11.2423 209.818 10.7107 210.074 10.2487C210.338 9.77935 210.694 9.40901 211.141 9.13768C211.596 8.86635 212.102 8.73068 212.659 8.73068C213.129 8.73068 213.539 8.80768 213.891 8.96168C214.251 9.11568 214.555 9.32835 214.804 9.59968C215.054 9.87101 215.244 10.1827 215.376 10.5347C215.508 10.8793 215.574 11.2533 215.574 11.6567C215.574 11.7593 215.567 11.8657 215.552 11.9757C215.545 12.0857 215.527 12.181 215.497 12.2617H210.877V11.1617H214.683L214.001 11.6787C214.067 11.3413 214.049 11.0407 213.946 10.7767C213.851 10.5127 213.69 10.3037 213.462 10.1497C213.242 9.99568 212.975 9.91868 212.659 9.91868C212.359 9.91868 212.091 9.99568 211.856 10.1497C211.622 10.2963 211.442 10.5163 211.317 10.8097C211.2 11.0957 211.156 11.444 211.185 11.8547C211.156 12.2213 211.204 12.5477 211.328 12.8337C211.46 13.1123 211.651 13.3287 211.9 13.4827C212.157 13.6367 212.45 13.7137 212.78 13.7137C213.11 13.7137 213.389 13.644 213.616 13.5047C213.851 13.3653 214.034 13.1783 214.166 12.9437L215.332 13.5157C215.215 13.8017 215.032 14.0547 214.782 14.2747C214.533 14.4947 214.236 14.667 213.891 14.7917C213.554 14.9163 213.18 14.9787 212.769 14.9787ZM220.272 14.8467L218.072 6.65168H219.678L221.405 13.6367H220.987L222.791 6.65168H224.342L226.135 13.6367H225.717L227.444 6.65168H229.05L226.85 14.8467H225.134L223.319 8.04868H223.803L221.988 14.8467H220.272ZM232.32 14.9787C231.704 14.9787 231.165 14.8393 230.703 14.5607C230.241 14.282 229.882 13.9043 229.625 13.4277C229.368 12.951 229.24 12.423 229.24 11.8437C229.24 11.2423 229.368 10.7107 229.625 10.2487C229.889 9.77935 230.245 9.40901 230.692 9.13768C231.147 8.86635 231.653 8.73068 232.21 8.73068C232.679 8.73068 233.09 8.80768 233.442 8.96168C233.801 9.11568 234.106 9.32835 234.355 9.59968C234.604 9.87101 234.795 10.1827 234.927 10.5347C235.059 10.8793 235.125 11.2533 235.125 11.6567C235.125 11.7593 235.118 11.8657 235.103 11.9757C235.096 12.0857 235.077 12.181 235.048 12.2617H230.428V11.1617H234.234L233.552 11.6787C233.618 11.3413 233.6 11.0407 233.497 10.7767C233.402 10.5127 233.24 10.3037 233.013 10.1497C232.793 9.99568 232.525 9.91868 232.21 9.91868C231.909 9.91868 231.642 9.99568 231.407 10.1497C231.172 10.2963 230.993 10.5163 230.868 10.8097C230.751 11.0957 230.707 11.444 230.736 11.8547C230.707 12.2213 230.754 12.5477 230.879 12.8337C231.011 13.1123 231.202 13.3287 231.451 13.4827C231.708 13.6367 232.001 13.7137 232.331 13.7137C232.661 13.7137 232.94 13.644 233.167 13.5047C233.402 13.3653 233.585 13.1783 233.717 12.9437L234.883 13.5157C234.766 13.8017 234.582 14.0547 234.333 14.2747C234.084 14.4947 233.787 14.667 233.442 14.7917C233.105 14.9163 232.731 14.9787 232.32 14.9787ZM239.484 14.9787C239.052 14.9787 238.652 14.8943 238.285 14.7257C237.926 14.5497 237.64 14.3003 237.427 13.9777L237.57 13.6917V14.8467H236.217V6.51968H237.658V10.0507L237.438 9.75368C237.644 9.43101 237.922 9.18168 238.274 9.00568C238.626 8.82235 239.033 8.73068 239.495 8.73068C240.06 8.73068 240.57 8.87001 241.024 9.14868C241.479 9.42735 241.838 9.80135 242.102 10.2707C242.374 10.74 242.509 11.268 242.509 11.8547C242.509 12.434 242.377 12.962 242.113 13.4387C241.849 13.9153 241.49 14.293 241.035 14.5717C240.581 14.843 240.064 14.9787 239.484 14.9787ZM239.319 13.6587C239.649 13.6587 239.943 13.5817 240.199 13.4277C240.456 13.2737 240.654 13.061 240.793 12.7897C240.94 12.5183 241.013 12.2067 241.013 11.8547C241.013 11.5027 240.94 11.1947 240.793 10.9307C240.654 10.6593 240.456 10.4467 240.199 10.2927C239.943 10.1313 239.649 10.0507 239.319 10.0507C239.004 10.0507 238.718 10.1277 238.461 10.2817C238.212 10.4357 238.014 10.652 237.867 10.9307C237.728 11.202 237.658 11.51 237.658 11.8547C237.658 12.2067 237.728 12.5183 237.867 12.7897C238.014 13.061 238.212 13.2737 238.461 13.4277C238.718 13.5817 239.004 13.6587 239.319 13.6587ZM246.16 14.9787C245.713 14.9787 245.287 14.898 244.884 14.7367C244.488 14.568 244.147 14.3333 243.861 14.0327C243.582 13.7247 243.392 13.3617 243.289 12.9437L244.598 12.4817C244.73 12.8557 244.932 13.1417 245.203 13.3397C245.474 13.5303 245.793 13.6257 246.16 13.6257C246.453 13.6257 246.706 13.5707 246.919 13.4607C247.139 13.3507 247.311 13.193 247.436 12.9877C247.561 12.775 247.623 12.5257 247.623 12.2397C247.623 11.9537 247.561 11.7117 247.436 11.5137C247.319 11.3083 247.15 11.1507 246.93 11.0407C246.71 10.9307 246.45 10.8757 246.149 10.8757C246.01 10.8757 245.863 10.8903 245.709 10.9197C245.562 10.949 245.43 10.993 245.313 11.0517L244.972 10.3367L247.095 7.91668H243.751V6.65168H248.778V7.82868L246.644 10.3257L246.666 9.76468C247.157 9.77201 247.586 9.87835 247.953 10.0837C248.32 10.289 248.606 10.5713 248.811 10.9307C249.016 11.29 249.119 11.7117 249.119 12.1957C249.119 12.7237 248.991 13.2003 248.734 13.6257C248.477 14.0437 248.125 14.3737 247.678 14.6157C247.231 14.8577 246.725 14.9787 246.16 14.9787ZM253.861 14.8467V7.97168H251.738V6.65168H257.458V7.97168H255.368V14.8467H253.861ZM257.594 14.8467V8.86268H258.947V10.1937L258.837 9.99568C258.977 9.54835 259.193 9.23668 259.486 9.06068C259.787 8.88468 260.146 8.79668 260.564 8.79668H260.916V10.0727H260.399C259.989 10.0727 259.659 10.201 259.409 10.4577C259.16 10.707 259.035 11.059 259.035 11.5137V14.8467H257.594ZM263.524 14.9787C263.106 14.9787 262.743 14.909 262.435 14.7697C262.127 14.6303 261.888 14.4323 261.72 14.1757C261.551 13.9117 261.467 13.6073 261.467 13.2627C261.467 12.9327 261.54 12.6393 261.687 12.3827C261.833 12.1187 262.061 11.8987 262.369 11.7227C262.677 11.5467 263.065 11.422 263.535 11.3487L265.493 11.0297V12.1297L263.81 12.4157C263.524 12.467 263.311 12.5587 263.172 12.6907C263.032 12.8227 262.963 12.995 262.963 13.2077C262.963 13.413 263.04 13.578 263.194 13.7027C263.355 13.82 263.553 13.8787 263.788 13.8787C264.088 13.8787 264.352 13.8163 264.58 13.6917C264.814 13.5597 264.994 13.38 265.119 13.1527C265.251 12.9253 265.317 12.676 265.317 12.4047V10.8647C265.317 10.608 265.214 10.3953 265.009 10.2267C264.811 10.0507 264.547 9.96268 264.217 9.96268C263.909 9.96268 263.634 10.047 263.392 10.2157C263.157 10.377 262.985 10.5933 262.875 10.8647L261.698 10.2927C261.815 9.97735 261.998 9.70601 262.248 9.47868C262.504 9.24401 262.805 9.06068 263.15 8.92868C263.494 8.79668 263.868 8.73068 264.272 8.73068C264.763 8.73068 265.196 8.82235 265.57 9.00568C265.944 9.18168 266.233 9.43101 266.439 9.75368C266.651 10.069 266.758 10.4393 266.758 10.8647V14.8467H265.394V13.8237L265.702 13.8017C265.548 14.0583 265.364 14.2747 265.152 14.4507C264.939 14.6193 264.697 14.7513 264.426 14.8467C264.154 14.9347 263.854 14.9787 263.524 14.9787ZM270.872 14.9787C270.293 14.9787 269.776 14.843 269.321 14.5717C268.867 14.293 268.507 13.9153 268.243 13.4387C267.979 12.962 267.847 12.434 267.847 11.8547C267.847 11.268 267.979 10.74 268.243 10.2707C268.507 9.80135 268.867 9.42735 269.321 9.14868C269.783 8.87001 270.297 8.73068 270.861 8.73068C271.316 8.73068 271.719 8.82235 272.071 9.00568C272.431 9.18168 272.713 9.43101 272.918 9.75368L272.698 10.0507V6.51968H274.139V14.8467H272.775V13.6917L272.929 13.9777C272.724 14.3003 272.438 14.5497 272.071 14.7257C271.705 14.8943 271.305 14.9787 270.872 14.9787ZM271.026 13.6587C271.356 13.6587 271.646 13.5817 271.895 13.4277C272.145 13.2737 272.339 13.061 272.478 12.7897C272.625 12.5183 272.698 12.2067 272.698 11.8547C272.698 11.51 272.625 11.202 272.478 10.9307C272.339 10.652 272.145 10.4357 271.895 10.2817C271.646 10.1277 271.356 10.0507 271.026 10.0507C270.704 10.0507 270.414 10.1313 270.157 10.2927C269.901 10.4467 269.699 10.6593 269.552 10.9307C269.413 11.1947 269.343 11.5027 269.343 11.8547C269.343 12.2067 269.413 12.5183 269.552 12.7897C269.699 13.061 269.901 13.2737 270.157 13.4277C270.414 13.5817 270.704 13.6587 271.026 13.6587ZM275.48 14.8467V8.86268H276.921V14.8467H275.48ZM275.48 8.19168V6.65168H276.921V8.19168H275.48ZM278.252 14.8467V8.86268H279.605V10.0397L279.495 9.83068C279.634 9.47135 279.861 9.20001 280.177 9.01668C280.499 8.82601 280.873 8.73068 281.299 8.73068C281.739 8.73068 282.127 8.82601 282.465 9.01668C282.809 9.20735 283.077 9.47501 283.268 9.81968C283.458 10.157 283.554 10.5493 283.554 10.9967V14.8467H282.113V11.3377C282.113 11.0737 282.061 10.8463 281.959 10.6557C281.856 10.465 281.713 10.3183 281.53 10.2157C281.354 10.1057 281.145 10.0507 280.903 10.0507C280.668 10.0507 280.459 10.1057 280.276 10.2157C280.092 10.3183 279.949 10.465 279.847 10.6557C279.744 10.8463 279.693 11.0737 279.693 11.3377V14.8467H278.252ZM287.676 17.2667C287.229 17.2667 286.814 17.1933 286.433 17.0467C286.052 16.9 285.722 16.6947 285.443 16.4307C285.172 16.174 284.974 15.8697 284.849 15.5177L286.191 15.0117C286.279 15.2903 286.451 15.514 286.708 15.6827C286.972 15.8587 287.295 15.9467 287.676 15.9467C287.969 15.9467 288.226 15.8917 288.446 15.7817C288.673 15.6717 288.849 15.5103 288.974 15.2977C289.099 15.0923 289.161 14.843 289.161 14.5497V13.1857L289.436 13.5157C289.231 13.875 288.956 14.1463 288.611 14.3297C288.266 14.513 287.874 14.6047 287.434 14.6047C286.877 14.6047 286.378 14.4763 285.938 14.2197C285.498 13.963 285.153 13.611 284.904 13.1637C284.655 12.7163 284.53 12.214 284.53 11.6567C284.53 11.092 284.655 10.5897 284.904 10.1497C285.153 9.70968 285.494 9.36501 285.927 9.11568C286.36 8.85901 286.851 8.73068 287.401 8.73068C287.848 8.73068 288.241 8.82601 288.578 9.01668C288.923 9.20001 289.209 9.46768 289.436 9.81968L289.238 10.1827V8.86268H290.602V14.5497C290.602 15.0703 290.474 15.536 290.217 15.9467C289.968 16.3573 289.623 16.68 289.183 16.9147C288.75 17.1493 288.248 17.2667 287.676 17.2667ZM287.61 13.2737C287.918 13.2737 288.186 13.2077 288.413 13.0757C288.648 12.9363 288.831 12.7457 288.963 12.5037C289.095 12.2617 289.161 11.983 289.161 11.6677C289.161 11.3597 289.091 11.0847 288.952 10.8427C288.82 10.5933 288.637 10.399 288.402 10.2597C288.175 10.1203 287.911 10.0507 287.61 10.0507C287.309 10.0507 287.038 10.1203 286.796 10.2597C286.554 10.399 286.363 10.5933 286.224 10.8427C286.092 11.0847 286.026 11.3597 286.026 11.6677C286.026 11.9757 286.092 12.2507 286.224 12.4927C286.363 12.7347 286.55 12.9253 286.785 13.0647C287.027 13.204 287.302 13.2737 287.61 13.2737ZM295.476 14.8467V7.97168H293.353V6.65168H299.073V7.97168H296.983V14.8467H295.476ZM301.929 14.9787C301.313 14.9787 300.774 14.8393 300.312 14.5607C299.85 14.282 299.491 13.9043 299.234 13.4277C298.978 12.951 298.849 12.423 298.849 11.8437C298.849 11.2423 298.978 10.7107 299.234 10.2487C299.498 9.77935 299.854 9.40901 300.301 9.13768C300.756 8.86635 301.262 8.73068 301.819 8.73068C302.289 8.73068 302.699 8.80768 303.051 8.96168C303.411 9.11568 303.715 9.32835 303.964 9.59968C304.214 9.87101 304.404 10.1827 304.536 10.5347C304.668 10.8793 304.734 11.2533 304.734 11.6567C304.734 11.7593 304.727 11.8657 304.712 11.9757C304.705 12.0857 304.687 12.181 304.657 12.2617H300.037V11.1617H303.843L303.161 11.6787C303.227 11.3413 303.209 11.0407 303.106 10.7767C303.011 10.5127 302.85 10.3037 302.622 10.1497C302.402 9.99568 302.135 9.91868 301.819 9.91868C301.519 9.91868 301.251 9.99568 301.016 10.1497C300.782 10.2963 300.602 10.5163 300.477 10.8097C300.36 11.0957 300.316 11.444 300.345 11.8547C300.316 12.2213 300.364 12.5477 300.488 12.8337C300.62 13.1123 300.811 13.3287 301.06 13.4827C301.317 13.6367 301.61 13.7137 301.94 13.7137C302.27 13.7137 302.549 13.644 302.776 13.5047C303.011 13.3653 303.194 13.1783 303.326 12.9437L304.492 13.5157C304.375 13.8017 304.192 14.0547 303.942 14.2747C303.693 14.4947 303.396 14.667 303.051 14.7917C302.714 14.9163 302.34 14.9787 301.929 14.9787ZM305.827 14.8467V8.86268H307.18V10.1937L307.07 9.99568C307.209 9.54835 307.425 9.23668 307.719 9.06068C308.019 8.88468 308.379 8.79668 308.797 8.79668H309.149V10.0727H308.632C308.221 10.0727 307.891 10.201 307.642 10.4577C307.392 10.707 307.268 11.059 307.268 11.5137V14.8467H305.827ZM309.941 14.8467V8.86268H311.294V10.2487L311.14 10.0177C311.25 9.58501 311.47 9.26235 311.8 9.04968C312.13 8.83701 312.519 8.73068 312.966 8.73068C313.457 8.73068 313.89 8.85901 314.264 9.11568C314.638 9.37235 314.88 9.70968 314.99 10.1277L314.583 10.1607C314.766 9.68401 315.041 9.32835 315.408 9.09368C315.775 8.85168 316.196 8.73068 316.673 8.73068C317.098 8.73068 317.476 8.82601 317.806 9.01668C318.143 9.20735 318.407 9.47501 318.598 9.81968C318.789 10.157 318.884 10.5493 318.884 10.9967V14.8467H317.443V11.3377C317.443 11.0737 317.395 10.8463 317.3 10.6557C317.205 10.465 317.073 10.3183 316.904 10.2157C316.735 10.1057 316.53 10.0507 316.288 10.0507C316.061 10.0507 315.859 10.1057 315.683 10.2157C315.507 10.3183 315.371 10.465 315.276 10.6557C315.181 10.8463 315.133 11.0737 315.133 11.3377V14.8467H313.692V11.3377C313.692 11.0737 313.644 10.8463 313.549 10.6557C313.454 10.465 313.318 10.3183 313.142 10.2157C312.973 10.1057 312.772 10.0507 312.537 10.0507C312.31 10.0507 312.108 10.1057 311.932 10.2157C311.756 10.3183 311.62 10.465 311.525 10.6557C311.43 10.8463 311.382 11.0737 311.382 11.3377V14.8467H309.941ZM320.103 14.8467V8.86268H321.544V14.8467H320.103ZM320.103 8.19168V6.65168H321.544V8.19168H320.103ZM322.875 14.8467V8.86268H324.228V10.0397L324.118 9.83068C324.257 9.47135 324.484 9.20001 324.8 9.01668C325.122 8.82601 325.496 8.73068 325.922 8.73068C326.362 8.73068 326.75 8.82601 327.088 9.01668C327.432 9.20735 327.7 9.47501 327.891 9.81968C328.081 10.157 328.177 10.5493 328.177 10.9967V14.8467H326.736V11.3377C326.736 11.0737 326.684 10.8463 326.582 10.6557C326.479 10.465 326.336 10.3183 326.153 10.2157C325.977 10.1057 325.768 10.0507 325.526 10.0507C325.291 10.0507 325.082 10.1057 324.899 10.2157C324.715 10.3183 324.572 10.465 324.47 10.6557C324.367 10.8463 324.316 11.0737 324.316 11.3377V14.8467H322.875ZM331.21 14.9787C330.792 14.9787 330.429 14.909 330.121 14.7697C329.813 14.6303 329.575 14.4323 329.406 14.1757C329.237 13.9117 329.153 13.6073 329.153 13.2627C329.153 12.9327 329.226 12.6393 329.373 12.3827C329.52 12.1187 329.747 11.8987 330.055 11.7227C330.363 11.5467 330.752 11.422 331.221 11.3487L333.179 11.0297V12.1297L331.496 12.4157C331.21 12.467 330.997 12.5587 330.858 12.6907C330.719 12.8227 330.649 12.995 330.649 13.2077C330.649 13.413 330.726 13.578 330.88 13.7027C331.041 13.82 331.239 13.8787 331.474 13.8787C331.775 13.8787 332.039 13.8163 332.266 13.6917C332.501 13.5597 332.68 13.38 332.805 13.1527C332.937 12.9253 333.003 12.676 333.003 12.4047V10.8647C333.003 10.608 332.9 10.3953 332.695 10.2267C332.497 10.0507 332.233 9.96268 331.903 9.96268C331.595 9.96268 331.32 10.047 331.078 10.2157C330.843 10.377 330.671 10.5933 330.561 10.8647L329.384 10.2927C329.501 9.97735 329.685 9.70601 329.934 9.47868C330.191 9.24401 330.491 9.06068 330.836 8.92868C331.181 8.79668 331.555 8.73068 331.958 8.73068C332.449 8.73068 332.882 8.82235 333.256 9.00568C333.63 9.18168 333.92 9.43101 334.125 9.75368C334.338 10.069 334.444 10.4393 334.444 10.8647V14.8467H333.08V13.8237L333.388 13.8017C333.234 14.0583 333.051 14.2747 332.838 14.4507C332.625 14.6193 332.383 14.7513 332.112 14.8467C331.841 14.9347 331.54 14.9787 331.21 14.9787ZM335.776 14.8467V6.51968H337.217V14.8467H335.776ZM339.229 14.8467V13.3067H340.681V14.8467H339.229ZM151.552 26.9307C151.221 26.9307 150.92 26.8677 150.649 26.7417C150.379 26.6157 150.15 26.4477 149.963 26.2377C149.777 26.023 149.644 25.7873 149.564 25.5307L150.068 25.3417C150.19 25.6963 150.379 25.967 150.635 26.1537C150.892 26.3357 151.198 26.4267 151.552 26.4267C151.776 26.4267 151.972 26.3917 152.14 26.3217C152.313 26.247 152.446 26.1443 152.539 26.0137C152.633 25.883 152.679 25.7313 152.679 25.5587C152.679 25.302 152.609 25.1037 152.469 24.9637C152.329 24.8237 152.129 24.7163 151.867 24.6417L150.929 24.3617C150.561 24.2543 150.276 24.0747 150.075 23.8227C149.879 23.5707 149.781 23.2837 149.781 22.9617C149.781 22.6863 149.849 22.4437 149.984 22.2337C150.12 22.019 150.304 21.851 150.537 21.7297C150.775 21.6083 151.044 21.5477 151.342 21.5477C151.655 21.5477 151.935 21.606 152.182 21.7227C152.434 21.8347 152.647 21.984 152.819 22.1707C152.992 22.3573 153.116 22.565 153.19 22.7937L152.7 22.9897C152.588 22.6817 152.413 22.4483 152.175 22.2897C151.942 22.131 151.667 22.0517 151.349 22.0517C151.149 22.0517 150.971 22.0867 150.817 22.1567C150.668 22.2267 150.551 22.327 150.467 22.4577C150.383 22.5883 150.341 22.7423 150.341 22.9197C150.341 23.1343 150.409 23.328 150.544 23.5007C150.68 23.6687 150.887 23.7947 151.167 23.8787L151.993 24.1237C152.404 24.245 152.714 24.42 152.924 24.6487C153.134 24.8773 153.239 25.1643 153.239 25.5097C153.239 25.7897 153.167 26.037 153.022 26.2517C152.882 26.4617 152.684 26.6273 152.427 26.7487C152.175 26.87 151.884 26.9307 151.552 26.9307ZM155.192 26.9307C154.954 26.9307 154.742 26.8863 154.555 26.7977C154.368 26.7043 154.221 26.5783 154.114 26.4197C154.007 26.261 153.953 26.079 153.953 25.8737C153.953 25.6777 153.995 25.5003 154.079 25.3417C154.163 25.1783 154.294 25.0407 154.471 24.9287C154.648 24.8167 154.875 24.7373 155.15 24.6907L156.62 24.4457V24.9217L155.276 25.1457C155.005 25.1923 154.809 25.2787 154.688 25.4047C154.571 25.5307 154.513 25.68 154.513 25.8527C154.513 26.0207 154.578 26.163 154.709 26.2797C154.844 26.3963 155.017 26.4547 155.227 26.4547C155.484 26.4547 155.708 26.401 155.899 26.2937C156.09 26.1817 156.24 26.0323 156.347 25.8457C156.454 25.659 156.508 25.4513 156.508 25.2227V24.2707C156.508 24.0467 156.426 23.8647 156.263 23.7247C156.1 23.5847 155.887 23.5147 155.626 23.5147C155.397 23.5147 155.197 23.573 155.024 23.6897C154.851 23.8017 154.723 23.9487 154.639 24.1307L154.163 23.8717C154.233 23.713 154.343 23.5683 154.492 23.4377C154.646 23.307 154.821 23.2043 155.017 23.1297C155.213 23.0503 155.416 23.0107 155.626 23.0107C155.901 23.0107 156.144 23.0643 156.354 23.1717C156.569 23.279 156.734 23.4283 156.851 23.6197C156.972 23.8063 157.033 24.0233 157.033 24.2707V26.8467H156.508V26.0977L156.585 26.1747C156.52 26.3147 156.417 26.443 156.277 26.5597C156.142 26.6717 155.981 26.7627 155.794 26.8327C155.612 26.898 155.411 26.9307 155.192 26.9307ZM158.498 26.8467V23.6197H157.749V23.0947H158.498V22.7587C158.498 22.4973 158.556 22.278 158.673 22.1007C158.789 21.9187 158.943 21.781 159.135 21.6877C159.326 21.5943 159.531 21.5477 159.751 21.5477C159.797 21.5477 159.851 21.5523 159.912 21.5617C159.972 21.5663 160.021 21.5733 160.059 21.5827V22.0587C160.026 22.0493 159.982 22.0447 159.926 22.0447C159.87 22.04 159.83 22.0377 159.807 22.0377C159.583 22.0377 159.396 22.0913 159.247 22.1987C159.097 22.306 159.023 22.4927 159.023 22.7587V23.0947H159.94V23.6197H159.023V26.8467H158.498ZM162.357 26.9307C162.007 26.9307 161.69 26.8467 161.405 26.6787C161.125 26.506 160.903 26.2703 160.74 25.9717C160.577 25.673 160.495 25.3347 160.495 24.9567C160.495 24.5787 160.574 24.245 160.733 23.9557C160.892 23.6617 161.106 23.4307 161.377 23.2627C161.652 23.0947 161.96 23.0107 162.301 23.0107C162.572 23.0107 162.812 23.062 163.022 23.1647C163.237 23.2627 163.419 23.398 163.568 23.5707C163.717 23.7387 163.832 23.93 163.911 24.1447C163.99 24.3547 164.03 24.5717 164.03 24.7957C164.03 24.8423 164.028 24.896 164.023 24.9567C164.018 25.0127 164.011 25.071 164.002 25.1317H160.831V24.6417H163.701L163.449 24.8517C163.491 24.595 163.461 24.3663 163.358 24.1657C163.26 23.9603 163.118 23.7993 162.931 23.6827C162.744 23.5613 162.534 23.5007 162.301 23.5007C162.068 23.5007 161.851 23.5613 161.65 23.6827C161.454 23.804 161.3 23.9743 161.188 24.1937C161.076 24.4083 161.032 24.665 161.055 24.9637C161.032 25.2623 161.078 25.5237 161.195 25.7477C161.316 25.967 161.48 26.1373 161.685 26.2587C161.895 26.38 162.119 26.4407 162.357 26.4407C162.632 26.4407 162.863 26.3753 163.05 26.2447C163.237 26.114 163.388 25.9507 163.505 25.7547L163.953 25.9927C163.878 26.1607 163.764 26.317 163.61 26.4617C163.456 26.6017 163.272 26.716 163.057 26.8047C162.847 26.8887 162.614 26.9307 162.357 26.9307ZM164.977 27.7567V27.5117C165.117 27.4743 165.219 27.402 165.285 27.2947C165.35 27.1873 165.383 27.038 165.383 26.8467H165.117V26.0767H165.677V26.6647C165.677 26.968 165.618 27.2107 165.502 27.3927C165.385 27.5793 165.21 27.7007 164.977 27.7567ZM168.109 26.8467V21.6317H169.901C170.241 21.6317 170.54 21.6993 170.797 21.8347C171.053 21.9653 171.252 22.152 171.392 22.3947C171.536 22.6327 171.609 22.9103 171.609 23.2277C171.609 23.545 171.536 23.8227 171.392 24.0607C171.252 24.2987 171.053 24.4853 170.797 24.6207C170.545 24.7513 170.246 24.8167 169.901 24.8167H168.669V26.8467H168.109ZM168.669 24.2917H169.929C170.153 24.2917 170.349 24.2497 170.517 24.1657C170.685 24.077 170.815 23.9533 170.909 23.7947C171.002 23.6313 171.049 23.44 171.049 23.2207C171.049 23.0013 171.002 22.8123 170.909 22.6537C170.815 22.495 170.685 22.3737 170.517 22.2897C170.349 22.201 170.153 22.1567 169.929 22.1567H168.669V24.2917ZM172.53 26.8467V23.0947H173.055V23.7107L172.985 23.6197C173.073 23.4423 173.206 23.3023 173.384 23.1997C173.566 23.097 173.785 23.0457 174.042 23.0457H174.28V23.5707H173.951C173.68 23.5707 173.463 23.6547 173.3 23.8227C173.136 23.9907 173.055 24.2287 173.055 24.5367V26.8467H172.53ZM176.652 26.9307C176.297 26.9307 175.975 26.8467 175.686 26.6787C175.397 26.506 175.166 26.2727 174.993 25.9787C174.825 25.68 174.741 25.3417 174.741 24.9637C174.741 24.5903 174.825 24.2567 174.993 23.9627C175.161 23.6687 175.387 23.4377 175.672 23.2697C175.961 23.097 176.288 23.0107 176.652 23.0107C177.016 23.0107 177.34 23.0947 177.625 23.2627C177.914 23.4307 178.141 23.6617 178.304 23.9557C178.472 24.2497 178.556 24.5857 178.556 24.9637C178.556 25.3463 178.47 25.687 178.297 25.9857C178.124 26.2797 177.893 26.5107 177.604 26.6787C177.319 26.8467 177.002 26.9307 176.652 26.9307ZM176.652 26.4057C176.904 26.4057 177.13 26.3427 177.331 26.2167C177.536 26.0907 177.697 25.918 177.814 25.6987C177.935 25.4793 177.996 25.2343 177.996 24.9637C177.996 24.693 177.935 24.4503 177.814 24.2357C177.697 24.021 177.536 23.8507 177.331 23.7247C177.13 23.5987 176.904 23.5357 176.652 23.5357C176.4 23.5357 176.171 23.5987 175.966 23.7247C175.765 23.8507 175.604 24.021 175.483 24.2357C175.362 24.4503 175.301 24.693 175.301 24.9637C175.301 25.2343 175.362 25.4793 175.483 25.6987C175.604 25.918 175.765 26.0907 175.966 26.2167C176.171 26.3427 176.4 26.4057 176.652 26.4057ZM179.73 26.8467V23.6197H178.981V23.0947H179.73V22.7587C179.73 22.4973 179.789 22.278 179.905 22.1007C180.022 21.9187 180.176 21.781 180.367 21.6877C180.559 21.5943 180.764 21.5477 180.983 21.5477C181.03 21.5477 181.084 21.5523 181.144 21.5617C181.205 21.5663 181.254 21.5733 181.291 21.5827V22.0587C181.259 22.0493 181.214 22.0447 181.158 22.0447C181.102 22.04 181.063 22.0377 181.039 22.0377C180.815 22.0377 180.629 22.0913 180.479 22.1987C180.33 22.306 180.255 22.4927 180.255 22.7587V23.0947H181.172V23.6197H180.255V26.8467H179.73ZM183.589 26.9307C183.239 26.9307 182.922 26.8467 182.637 26.6787C182.357 26.506 182.136 26.2703 181.972 25.9717C181.809 25.673 181.727 25.3347 181.727 24.9567C181.727 24.5787 181.807 24.245 181.965 23.9557C182.124 23.6617 182.339 23.4307 182.609 23.2627C182.885 23.0947 183.193 23.0107 183.533 23.0107C183.804 23.0107 184.044 23.062 184.254 23.1647C184.469 23.2627 184.651 23.398 184.8 23.5707C184.95 23.7387 185.064 23.93 185.143 24.1447C185.223 24.3547 185.262 24.5717 185.262 24.7957C185.262 24.8423 185.26 24.896 185.255 24.9567C185.251 25.0127 185.244 25.071 185.234 25.1317H182.063V24.6417H184.933L184.681 24.8517C184.723 24.595 184.693 24.3663 184.59 24.1657C184.492 23.9603 184.35 23.7993 184.163 23.6827C183.977 23.5613 183.767 23.5007 183.533 23.5007C183.3 23.5007 183.083 23.5613 182.882 23.6827C182.686 23.804 182.532 23.9743 182.42 24.1937C182.308 24.4083 182.264 24.665 182.287 24.9637C182.264 25.2623 182.311 25.5237 182.427 25.7477C182.549 25.967 182.712 26.1373 182.917 26.2587C183.127 26.38 183.351 26.4407 183.589 26.4407C183.865 26.4407 184.096 26.3753 184.282 26.2447C184.469 26.114 184.621 25.9507 184.737 25.7547L185.185 25.9927C185.111 26.1607 184.996 26.317 184.842 26.4617C184.688 26.6017 184.504 26.716 184.289 26.8047C184.079 26.8887 183.846 26.9307 183.589 26.9307ZM187.49 26.9307C187.131 26.9307 186.816 26.8397 186.545 26.6577C186.274 26.4757 186.078 26.2283 185.957 25.9157L186.398 25.7057C186.505 25.9343 186.655 26.1163 186.846 26.2517C187.042 26.387 187.257 26.4547 187.49 26.4547C187.714 26.4547 187.903 26.401 188.057 26.2937C188.211 26.1817 188.288 26.037 188.288 25.8597C188.288 25.729 188.251 25.6263 188.176 25.5517C188.101 25.4723 188.015 25.4117 187.917 25.3697C187.819 25.3277 187.733 25.2973 187.658 25.2787L187.119 25.1247C186.774 25.0267 186.524 24.889 186.37 24.7117C186.216 24.5343 186.139 24.329 186.139 24.0957C186.139 23.8763 186.195 23.685 186.307 23.5217C186.419 23.3583 186.571 23.2323 186.762 23.1437C186.953 23.055 187.166 23.0107 187.399 23.0107C187.716 23.0107 188.003 23.0947 188.26 23.2627C188.521 23.426 188.706 23.6547 188.813 23.9487L188.365 24.1587C188.272 23.9487 188.136 23.7853 187.959 23.6687C187.786 23.5473 187.593 23.4867 187.378 23.4867C187.168 23.4867 187 23.5403 186.874 23.6477C186.748 23.755 186.685 23.8903 186.685 24.0537C186.685 24.1797 186.718 24.28 186.783 24.3547C186.848 24.4293 186.923 24.4853 187.007 24.5227C187.096 24.56 187.173 24.588 187.238 24.6067L187.861 24.7887C188.164 24.8773 188.4 25.015 188.568 25.2017C188.741 25.3883 188.827 25.6077 188.827 25.8597C188.827 26.065 188.769 26.2493 188.652 26.4127C188.54 26.576 188.384 26.7043 188.183 26.7977C187.982 26.8863 187.751 26.9307 187.49 26.9307ZM191.051 26.9307C190.692 26.9307 190.377 26.8397 190.106 26.6577C189.836 26.4757 189.64 26.2283 189.518 25.9157L189.959 25.7057C190.067 25.9343 190.216 26.1163 190.407 26.2517C190.603 26.387 190.818 26.4547 191.051 26.4547C191.275 26.4547 191.464 26.401 191.618 26.2937C191.772 26.1817 191.849 26.037 191.849 25.8597C191.849 25.729 191.812 25.6263 191.737 25.5517C191.663 25.4723 191.576 25.4117 191.478 25.3697C191.38 25.3277 191.294 25.2973 191.219 25.2787L190.68 25.1247C190.335 25.0267 190.085 24.889 189.931 24.7117C189.777 24.5343 189.7 24.329 189.7 24.0957C189.7 23.8763 189.756 23.685 189.868 23.5217C189.98 23.3583 190.132 23.2323 190.323 23.1437C190.515 23.055 190.727 23.0107 190.96 23.0107C191.278 23.0107 191.565 23.0947 191.821 23.2627C192.083 23.426 192.267 23.6547 192.374 23.9487L191.926 24.1587C191.833 23.9487 191.698 23.7853 191.52 23.6687C191.348 23.5473 191.154 23.4867 190.939 23.4867C190.729 23.4867 190.561 23.5403 190.435 23.6477C190.309 23.755 190.246 23.8903 190.246 24.0537C190.246 24.1797 190.279 24.28 190.344 24.3547C190.41 24.4293 190.484 24.4853 190.568 24.5227C190.657 24.56 190.734 24.588 190.799 24.6067L191.422 24.7887C191.726 24.8773 191.961 25.015 192.129 25.2017C192.302 25.3883 192.388 25.6077 192.388 25.8597C192.388 26.065 192.33 26.2493 192.213 26.4127C192.101 26.576 191.945 26.7043 191.744 26.7977C191.544 26.8863 191.313 26.9307 191.051 26.9307ZM193.311 26.8467V23.0947H193.836V26.8467H193.311ZM193.311 22.4017V21.6317H193.836V22.4017H193.311ZM196.668 26.9307C196.313 26.9307 195.991 26.8467 195.702 26.6787C195.412 26.506 195.181 26.2727 195.009 25.9787C194.841 25.68 194.757 25.3417 194.757 24.9637C194.757 24.5903 194.841 24.2567 195.009 23.9627C195.177 23.6687 195.403 23.4377 195.688 23.2697C195.977 23.097 196.304 23.0107 196.668 23.0107C197.032 23.0107 197.356 23.0947 197.641 23.2627C197.93 23.4307 198.156 23.6617 198.32 23.9557C198.488 24.2497 198.572 24.5857 198.572 24.9637C198.572 25.3463 198.485 25.687 198.313 25.9857C198.14 26.2797 197.909 26.5107 197.62 26.6787C197.335 26.8467 197.018 26.9307 196.668 26.9307ZM196.668 26.4057C196.92 26.4057 197.146 26.3427 197.347 26.2167C197.552 26.0907 197.713 25.918 197.83 25.6987C197.951 25.4793 198.012 25.2343 198.012 24.9637C198.012 24.693 197.951 24.4503 197.83 24.2357C197.713 24.021 197.552 23.8507 197.347 23.7247C197.146 23.5987 196.92 23.5357 196.668 23.5357C196.416 23.5357 196.187 23.5987 195.982 23.7247C195.781 23.8507 195.62 24.021 195.499 24.2357C195.377 24.4503 195.317 24.693 195.317 24.9637C195.317 25.2343 195.377 25.4793 195.499 25.6987C195.62 25.918 195.781 26.0907 195.982 26.2167C196.187 26.3427 196.416 26.4057 196.668 26.4057ZM199.498 26.8467V23.0947H200.023V23.8227L199.904 23.7947C199.997 23.552 200.149 23.3607 200.359 23.2207C200.573 23.0807 200.821 23.0107 201.101 23.0107C201.367 23.0107 201.605 23.0713 201.815 23.1927C202.029 23.314 202.197 23.482 202.319 23.6967C202.445 23.9067 202.508 24.1447 202.508 24.4107V26.8467H201.983V24.6137C201.983 24.385 201.941 24.1913 201.857 24.0327C201.777 23.874 201.663 23.7527 201.514 23.6687C201.369 23.58 201.201 23.5357 201.01 23.5357C200.818 23.5357 200.648 23.58 200.499 23.6687C200.349 23.7527 200.233 23.8763 200.149 24.0397C200.065 24.1983 200.023 24.3897 200.023 24.6137V26.8467H199.498ZM204.595 26.9307C204.357 26.9307 204.145 26.8863 203.958 26.7977C203.772 26.7043 203.625 26.5783 203.517 26.4197C203.41 26.261 203.356 26.079 203.356 25.8737C203.356 25.6777 203.398 25.5003 203.482 25.3417C203.566 25.1783 203.697 25.0407 203.874 24.9287C204.052 24.8167 204.278 24.7373 204.553 24.6907L206.023 24.4457V24.9217L204.679 25.1457C204.409 25.1923 204.213 25.2787 204.091 25.4047C203.975 25.5307 203.916 25.68 203.916 25.8527C203.916 26.0207 203.982 26.163 204.112 26.2797C204.248 26.3963 204.42 26.4547 204.63 26.4547C204.887 26.4547 205.111 26.401 205.302 26.2937C205.494 26.1817 205.643 26.0323 205.75 25.8457C205.858 25.659 205.911 25.4513 205.911 25.2227V24.2707C205.911 24.0467 205.83 23.8647 205.666 23.7247C205.503 23.5847 205.291 23.5147 205.029 23.5147C204.801 23.5147 204.6 23.573 204.427 23.6897C204.255 23.8017 204.126 23.9487 204.042 24.1307L203.566 23.8717C203.636 23.713 203.746 23.5683 203.895 23.4377C204.049 23.307 204.224 23.2043 204.42 23.1297C204.616 23.0503 204.819 23.0107 205.029 23.0107C205.305 23.0107 205.547 23.0643 205.757 23.1717C205.972 23.279 206.138 23.4283 206.254 23.6197C206.376 23.8063 206.436 24.0233 206.436 24.2707V26.8467H205.911V26.0977L205.988 26.1747C205.923 26.3147 205.82 26.443 205.68 26.5597C205.545 26.6717 205.384 26.7627 205.197 26.8327C205.015 26.898 204.815 26.9307 204.595 26.9307ZM207.516 26.8467V21.5477H208.041V26.8467H207.516ZM209.137 27.7567V27.5117C209.277 27.4743 209.379 27.402 209.445 27.2947C209.51 27.1873 209.543 27.038 209.543 26.8467H209.277V26.0767H209.837V26.6647C209.837 26.968 209.778 27.2107 209.662 27.3927C209.545 27.5793 209.37 27.7007 209.137 27.7567ZM212.269 26.8467V21.6317H215.489V22.1567H212.829V23.9697H215.279V24.4947H212.829V26.8467H212.269ZM217.132 26.9307C216.894 26.9307 216.682 26.8863 216.495 26.7977C216.309 26.7043 216.162 26.5783 216.054 26.4197C215.947 26.261 215.893 26.079 215.893 25.8737C215.893 25.6777 215.935 25.5003 216.019 25.3417C216.103 25.1783 216.234 25.0407 216.411 24.9287C216.589 24.8167 216.815 24.7373 217.09 24.6907L218.56 24.4457V24.9217L217.216 25.1457C216.946 25.1923 216.75 25.2787 216.628 25.4047C216.512 25.5307 216.453 25.68 216.453 25.8527C216.453 26.0207 216.519 26.163 216.649 26.2797C216.785 26.3963 216.957 26.4547 217.167 26.4547C217.424 26.4547 217.648 26.401 217.839 26.2937C218.031 26.1817 218.18 26.0323 218.287 25.8457C218.395 25.659 218.448 25.4513 218.448 25.2227V24.2707C218.448 24.0467 218.367 23.8647 218.203 23.7247C218.04 23.5847 217.828 23.5147 217.566 23.5147C217.338 23.5147 217.137 23.573 216.964 23.6897C216.792 23.8017 216.663 23.9487 216.579 24.1307L216.103 23.8717C216.173 23.713 216.283 23.5683 216.432 23.4377C216.586 23.307 216.761 23.2043 216.957 23.1297C217.153 23.0503 217.356 23.0107 217.566 23.0107C217.842 23.0107 218.084 23.0643 218.294 23.1717C218.509 23.279 218.675 23.4283 218.791 23.6197C218.913 23.8063 218.973 24.0233 218.973 24.2707V26.8467H218.448V26.0977L218.525 26.1747C218.46 26.3147 218.357 26.443 218.217 26.5597C218.082 26.6717 217.921 26.7627 217.734 26.8327C217.552 26.898 217.352 26.9307 217.132 26.9307ZM221.355 26.9307C220.996 26.9307 220.681 26.8397 220.41 26.6577C220.14 26.4757 219.944 26.2283 219.822 25.9157L220.263 25.7057C220.371 25.9343 220.52 26.1163 220.711 26.2517C220.907 26.387 221.122 26.4547 221.355 26.4547C221.579 26.4547 221.768 26.401 221.922 26.2937C222.076 26.1817 222.153 26.037 222.153 25.8597C222.153 25.729 222.116 25.6263 222.041 25.5517C221.967 25.4723 221.88 25.4117 221.782 25.3697C221.684 25.3277 221.598 25.2973 221.523 25.2787L220.984 25.1247C220.639 25.0267 220.389 24.889 220.235 24.7117C220.081 24.5343 220.004 24.329 220.004 24.0957C220.004 23.8763 220.06 23.685 220.172 23.5217C220.284 23.3583 220.436 23.2323 220.627 23.1437C220.819 23.055 221.031 23.0107 221.264 23.0107C221.582 23.0107 221.869 23.0947 222.125 23.2627C222.387 23.426 222.571 23.6547 222.678 23.9487L222.23 24.1587C222.137 23.9487 222.002 23.7853 221.824 23.6687C221.652 23.5473 221.458 23.4867 221.243 23.4867C221.033 23.4867 220.865 23.5403 220.739 23.6477C220.613 23.755 220.55 23.8903 220.55 24.0537C220.55 24.1797 220.583 24.28 220.648 24.3547C220.714 24.4293 220.788 24.4853 220.872 24.5227C220.961 24.56 221.038 24.588 221.103 24.6067L221.726 24.7887C222.03 24.8773 222.265 25.015 222.433 25.2017C222.606 25.3883 222.692 25.6077 222.692 25.8597C222.692 26.065 222.634 26.2493 222.517 26.4127C222.405 26.576 222.249 26.7043 222.048 26.7977C221.848 26.8863 221.617 26.9307 221.355 26.9307ZM225.05 26.8887C224.714 26.8887 224.455 26.7907 224.273 26.5947C224.091 26.3987 224 26.1187 224 25.7547V23.6197H223.307V23.0947H223.482C223.64 23.0947 223.766 23.0433 223.86 22.9407C223.953 22.8333 224 22.7003 224 22.5417V22.2267H224.525V23.0947H225.351V23.6197H224.525V25.7547C224.525 25.8807 224.543 25.9927 224.581 26.0907C224.618 26.184 224.681 26.2587 224.77 26.3147C224.863 26.3707 224.987 26.3987 225.141 26.3987C225.178 26.3987 225.222 26.3963 225.274 26.3917C225.325 26.387 225.369 26.3823 225.407 26.3777V26.8467C225.351 26.8607 225.288 26.87 225.218 26.8747C225.148 26.884 225.092 26.8887 225.05 26.8887ZM227.9 26.9307C227.55 26.9307 227.233 26.8467 226.948 26.6787C226.668 26.506 226.446 26.2703 226.283 25.9717C226.12 25.673 226.038 25.3347 226.038 24.9567C226.038 24.5787 226.117 24.245 226.276 23.9557C226.435 23.6617 226.649 23.4307 226.92 23.2627C227.195 23.0947 227.503 23.0107 227.844 23.0107C228.115 23.0107 228.355 23.062 228.565 23.1647C228.78 23.2627 228.962 23.398 229.111 23.5707C229.26 23.7387 229.375 23.93 229.454 24.1447C229.533 24.3547 229.573 24.5717 229.573 24.7957C229.573 24.8423 229.571 24.896 229.566 24.9567C229.561 25.0127 229.554 25.071 229.545 25.1317H226.374V24.6417H229.244L228.992 24.8517C229.034 24.595 229.004 24.3663 228.901 24.1657C228.803 23.9603 228.661 23.7993 228.474 23.6827C228.287 23.5613 228.077 23.5007 227.844 23.5007C227.611 23.5007 227.394 23.5613 227.193 23.6827C226.997 23.804 226.843 23.9743 226.731 24.1937C226.619 24.4083 226.575 24.665 226.598 24.9637C226.575 25.2623 226.621 25.5237 226.738 25.7477C226.859 25.967 227.023 26.1373 227.228 26.2587C227.438 26.38 227.662 26.4407 227.9 26.4407C228.175 26.4407 228.406 26.3753 228.593 26.2447C228.78 26.114 228.931 25.9507 229.048 25.7547L229.496 25.9927C229.421 26.1607 229.307 26.317 229.153 26.4617C228.999 26.6017 228.815 26.716 228.6 26.8047C228.39 26.8887 228.157 26.9307 227.9 26.9307ZM231.801 26.9307C231.441 26.9307 231.126 26.8397 230.856 26.6577C230.585 26.4757 230.389 26.2283 230.268 25.9157L230.709 25.7057C230.816 25.9343 230.965 26.1163 231.157 26.2517C231.353 26.387 231.567 26.4547 231.801 26.4547C232.025 26.4547 232.214 26.401 232.368 26.2937C232.522 26.1817 232.599 26.037 232.599 25.8597C232.599 25.729 232.561 25.6263 232.487 25.5517C232.412 25.4723 232.326 25.4117 232.228 25.3697C232.13 25.3277 232.043 25.2973 231.969 25.2787L231.43 25.1247C231.084 25.0267 230.835 24.889 230.681 24.7117C230.527 24.5343 230.45 24.329 230.45 24.0957C230.45 23.8763 230.506 23.685 230.618 23.5217C230.73 23.3583 230.881 23.2323 231.073 23.1437C231.264 23.055 231.476 23.0107 231.71 23.0107C232.027 23.0107 232.314 23.0947 232.571 23.2627C232.832 23.426 233.016 23.6547 233.124 23.9487L232.676 24.1587C232.582 23.9487 232.447 23.7853 232.27 23.6687C232.097 23.5473 231.903 23.4867 231.689 23.4867C231.479 23.4867 231.311 23.5403 231.185 23.6477C231.059 23.755 230.996 23.8903 230.996 24.0537C230.996 24.1797 231.028 24.28 231.094 24.3547C231.159 24.4293 231.234 24.4853 231.318 24.5227C231.406 24.56 231.483 24.588 231.549 24.6067L232.172 24.7887C232.475 24.8773 232.711 25.015 232.879 25.2017C233.051 25.3883 233.138 25.6077 233.138 25.8597C233.138 26.065 233.079 26.2493 232.963 26.4127C232.851 26.576 232.694 26.7043 232.494 26.7977C232.293 26.8863 232.062 26.9307 231.801 26.9307ZM235.495 26.8887C235.159 26.8887 234.9 26.7907 234.718 26.5947C234.536 26.3987 234.445 26.1187 234.445 25.7547V23.6197H233.752V23.0947H233.927C234.086 23.0947 234.212 23.0433 234.305 22.9407C234.398 22.8333 234.445 22.7003 234.445 22.5417V22.2267H234.97V23.0947H235.796V23.6197H234.97V25.7547C234.97 25.8807 234.989 25.9927 235.026 26.0907C235.063 26.184 235.126 26.2587 235.215 26.3147C235.308 26.3707 235.432 26.3987 235.586 26.3987C235.623 26.3987 235.668 26.3963 235.719 26.3917C235.77 26.387 235.815 26.3823 235.852 26.3777V26.8467C235.796 26.8607 235.733 26.87 235.663 26.8747C235.593 26.884 235.537 26.8887 235.495 26.8887ZM236.795 27.7567V27.5117C236.935 27.4743 237.038 27.402 237.103 27.2947C237.168 27.1873 237.201 27.038 237.201 26.8467H236.935V26.0767H237.495V26.6647C237.495 26.968 237.437 27.2107 237.32 27.3927C237.203 27.5793 237.028 27.7007 236.795 27.7567ZM239.927 26.8467V21.6317H240.417L242.377 24.4737H242.104L244.057 21.6317H244.547V26.8467H243.987V22.3877L244.169 22.4577L242.251 25.2367H242.223L240.312 22.4577L240.487 22.3877V26.8467H239.927ZM247.459 26.9307C247.104 26.9307 246.782 26.8467 246.493 26.6787C246.203 26.506 245.972 26.2727 245.8 25.9787C245.632 25.68 245.548 25.3417 245.548 24.9637C245.548 24.5903 245.632 24.2567 245.8 23.9627C245.968 23.6687 246.194 23.4377 246.479 23.2697C246.768 23.097 247.095 23.0107 247.459 23.0107C247.823 23.0107 248.147 23.0947 248.432 23.2627C248.721 23.4307 248.947 23.6617 249.111 23.9557C249.279 24.2497 249.363 24.5857 249.363 24.9637C249.363 25.3463 249.276 25.687 249.104 25.9857C248.931 26.2797 248.7 26.5107 248.411 26.6787C248.126 26.8467 247.809 26.9307 247.459 26.9307ZM247.459 26.4057C247.711 26.4057 247.937 26.3427 248.138 26.2167C248.343 26.0907 248.504 25.918 248.621 25.6987C248.742 25.4793 248.803 25.2343 248.803 24.9637C248.803 24.693 248.742 24.4503 248.621 24.2357C248.504 24.021 248.343 23.8507 248.138 23.7247C247.937 23.5987 247.711 23.5357 247.459 23.5357C247.207 23.5357 246.978 23.5987 246.773 23.7247C246.572 23.8507 246.411 24.021 246.29 24.2357C246.168 24.4503 246.108 24.693 246.108 24.9637C246.108 25.2343 246.168 25.4793 246.29 25.6987C246.411 25.918 246.572 26.0907 246.773 26.2167C246.978 26.3427 247.207 26.4057 247.459 26.4057ZM251.591 26.9307C251.231 26.9307 250.916 26.8397 250.646 26.6577C250.375 26.4757 250.179 26.2283 250.058 25.9157L250.499 25.7057C250.606 25.9343 250.755 26.1163 250.947 26.2517C251.143 26.387 251.357 26.4547 251.591 26.4547C251.815 26.4547 252.004 26.401 252.158 26.2937C252.312 26.1817 252.389 26.037 252.389 25.8597C252.389 25.729 252.351 25.6263 252.277 25.5517C252.202 25.4723 252.116 25.4117 252.018 25.3697C251.92 25.3277 251.833 25.2973 251.759 25.2787L251.22 25.1247C250.874 25.0267 250.625 24.889 250.471 24.7117C250.317 24.5343 250.24 24.329 250.24 24.0957C250.24 23.8763 250.296 23.685 250.408 23.5217C250.52 23.3583 250.671 23.2323 250.863 23.1437C251.054 23.055 251.266 23.0107 251.5 23.0107C251.817 23.0107 252.104 23.0947 252.361 23.2627C252.622 23.426 252.806 23.6547 252.914 23.9487L252.466 24.1587C252.372 23.9487 252.237 23.7853 252.06 23.6687C251.887 23.5473 251.693 23.4867 251.479 23.4867C251.269 23.4867 251.101 23.5403 250.975 23.6477C250.849 23.755 250.786 23.8903 250.786 24.0537C250.786 24.1797 250.818 24.28 250.884 24.3547C250.949 24.4293 251.024 24.4853 251.108 24.5227C251.196 24.56 251.273 24.588 251.339 24.6067L251.962 24.7887C252.265 24.8773 252.501 25.015 252.669 25.2017C252.841 25.3883 252.928 25.6077 252.928 25.8597C252.928 26.065 252.869 26.2493 252.753 26.4127C252.641 26.576 252.484 26.7043 252.284 26.7977C252.083 26.8863 251.852 26.9307 251.591 26.9307ZM255.285 26.8887C254.949 26.8887 254.69 26.7907 254.508 26.5947C254.326 26.3987 254.235 26.1187 254.235 25.7547V23.6197H253.542V23.0947H253.717C253.876 23.0947 254.002 23.0433 254.095 22.9407C254.188 22.8333 254.235 22.7003 254.235 22.5417V22.2267H254.76V23.0947H255.586V23.6197H254.76V25.7547C254.76 25.8807 254.779 25.9927 254.816 26.0907C254.853 26.184 254.916 26.2587 255.005 26.3147C255.098 26.3707 255.222 26.3987 255.376 26.3987C255.413 26.3987 255.458 26.3963 255.509 26.3917C255.56 26.387 255.605 26.3823 255.642 26.3777V26.8467C255.586 26.8607 255.523 26.87 255.453 26.8747C255.383 26.884 255.327 26.8887 255.285 26.8887ZM260.21 26.9307C259.842 26.9307 259.503 26.8653 259.195 26.7347C258.887 26.5993 258.619 26.4127 258.39 26.1747C258.166 25.932 257.991 25.6473 257.865 25.3207C257.739 24.994 257.676 24.6347 257.676 24.2427C257.676 23.8507 257.739 23.4913 257.865 23.1647C257.991 22.838 258.166 22.5533 258.39 22.3107C258.619 22.068 258.887 21.8813 259.195 21.7507C259.503 21.6153 259.842 21.5477 260.21 21.5477C260.565 21.5477 260.882 21.6107 261.162 21.7367C261.447 21.8627 261.685 22.026 261.876 22.2267C262.072 22.4227 262.212 22.6303 262.296 22.8497L261.771 23.0807C261.641 22.7773 261.44 22.5347 261.169 22.3527C260.903 22.166 260.584 22.0727 260.21 22.0727C259.828 22.0727 259.487 22.1637 259.188 22.3457C258.89 22.5277 258.656 22.782 258.488 23.1087C258.32 23.4307 258.236 23.8087 258.236 24.2427C258.236 24.672 258.32 25.05 258.488 25.3767C258.656 25.7033 258.89 25.9577 259.188 26.1397C259.487 26.317 259.828 26.4057 260.21 26.4057C260.584 26.4057 260.903 26.3147 261.169 26.1327C261.44 25.9507 261.641 25.708 261.771 25.4047L262.296 25.6357C262.212 25.8503 262.072 26.058 261.876 26.2587C261.685 26.4547 261.447 26.6157 261.162 26.7417C260.882 26.8677 260.565 26.9307 260.21 26.9307ZM264.911 26.9307C264.556 26.9307 264.234 26.8467 263.945 26.6787C263.655 26.506 263.424 26.2727 263.252 25.9787C263.084 25.68 263 25.3417 263 24.9637C263 24.5903 263.084 24.2567 263.252 23.9627C263.42 23.6687 263.646 23.4377 263.931 23.2697C264.22 23.097 264.547 23.0107 264.911 23.0107C265.275 23.0107 265.599 23.0947 265.884 23.2627C266.173 23.4307 266.399 23.6617 266.563 23.9557C266.731 24.2497 266.815 24.5857 266.815 24.9637C266.815 25.3463 266.728 25.687 266.556 25.9857C266.383 26.2797 266.152 26.5107 265.863 26.6787C265.578 26.8467 265.261 26.9307 264.911 26.9307ZM264.911 26.4057C265.163 26.4057 265.389 26.3427 265.59 26.2167C265.795 26.0907 265.956 25.918 266.073 25.6987C266.194 25.4793 266.255 25.2343 266.255 24.9637C266.255 24.693 266.194 24.4503 266.073 24.2357C265.956 24.021 265.795 23.8507 265.59 23.7247C265.389 23.5987 265.163 23.5357 264.911 23.5357C264.659 23.5357 264.43 23.5987 264.225 23.7247C264.024 23.8507 263.863 24.021 263.742 24.2357C263.62 24.4503 263.56 24.693 263.56 24.9637C263.56 25.2343 263.62 25.4793 263.742 25.6987C263.863 25.918 264.024 26.0907 264.225 26.2167C264.43 26.3427 264.659 26.4057 264.911 26.4057ZM267.741 26.8467V23.0947H268.266V23.8087L268.182 23.7037C268.284 23.4843 268.436 23.314 268.637 23.1927C268.842 23.0713 269.066 23.0107 269.309 23.0107C269.598 23.0107 269.859 23.0923 270.093 23.2557C270.326 23.419 270.492 23.6313 270.59 23.8927L270.443 23.8997C270.536 23.6103 270.697 23.391 270.926 23.2417C271.159 23.0877 271.416 23.0107 271.696 23.0107C271.948 23.0107 272.179 23.0713 272.389 23.1927C272.603 23.314 272.774 23.482 272.9 23.6967C273.03 23.9067 273.096 24.1447 273.096 24.4107V26.8467H272.571V24.6137C272.571 24.385 272.529 24.1913 272.445 24.0327C272.365 23.874 272.256 23.7527 272.116 23.6687C271.976 23.58 271.815 23.5357 271.633 23.5357C271.455 23.5357 271.294 23.58 271.15 23.6687C271.005 23.7527 270.891 23.8763 270.807 24.0397C270.723 24.1983 270.681 24.3897 270.681 24.6137V26.8467H270.156V24.6137C270.156 24.385 270.114 24.1913 270.03 24.0327C269.95 23.874 269.841 23.7527 269.701 23.6687C269.561 23.58 269.4 23.5357 269.218 23.5357C269.036 23.5357 268.872 23.58 268.728 23.6687C268.588 23.7527 268.476 23.8763 268.392 24.0397C268.308 24.1983 268.266 24.3897 268.266 24.6137V26.8467H267.741ZM274.098 28.2467V23.0947H274.623V23.9347L274.539 23.7877C274.688 23.5497 274.887 23.3607 275.134 23.2207C275.386 23.0807 275.673 23.0107 275.995 23.0107C276.35 23.0107 276.665 23.097 276.94 23.2697C277.22 23.4377 277.439 23.6687 277.598 23.9627C277.761 24.2567 277.843 24.5927 277.843 24.9707C277.843 25.344 277.761 25.68 277.598 25.9787C277.439 26.2727 277.22 26.506 276.94 26.6787C276.665 26.8467 276.35 26.9307 275.995 26.9307C275.673 26.9307 275.381 26.8583 275.12 26.7137C274.863 26.5643 274.67 26.3543 274.539 26.0837L274.623 26.0067V28.2467H274.098ZM275.967 26.4057C276.219 26.4057 276.443 26.3427 276.639 26.2167C276.84 26.0907 276.996 25.9203 277.108 25.7057C277.225 25.4863 277.283 25.2413 277.283 24.9707C277.283 24.6953 277.225 24.4503 277.108 24.2357C276.996 24.021 276.84 23.8507 276.639 23.7247C276.443 23.5987 276.219 23.5357 275.967 23.5357C275.715 23.5357 275.486 23.5987 275.281 23.7247C275.08 23.8507 274.919 24.0233 274.798 24.2427C274.681 24.4573 274.623 24.7 274.623 24.9707C274.623 25.2413 274.681 25.4863 274.798 25.7057C274.919 25.9203 275.08 26.0907 275.281 26.2167C275.486 26.3427 275.715 26.4057 275.967 26.4057ZM278.767 26.8467V23.0947H279.292V23.7107L279.222 23.6197C279.311 23.4423 279.444 23.3023 279.621 23.1997C279.803 23.097 280.022 23.0457 280.279 23.0457H280.517V23.5707H280.188C279.917 23.5707 279.7 23.6547 279.537 23.8227C279.374 23.9907 279.292 24.2287 279.292 24.5367V26.8467H278.767ZM282.84 26.9307C282.49 26.9307 282.173 26.8467 281.888 26.6787C281.608 26.506 281.387 26.2703 281.223 25.9717C281.06 25.673 280.978 25.3347 280.978 24.9567C280.978 24.5787 281.058 24.245 281.216 23.9557C281.375 23.6617 281.59 23.4307 281.86 23.2627C282.136 23.0947 282.444 23.0107 282.784 23.0107C283.055 23.0107 283.295 23.062 283.505 23.1647C283.72 23.2627 283.902 23.398 284.051 23.5707C284.201 23.7387 284.315 23.93 284.394 24.1447C284.474 24.3547 284.513 24.5717 284.513 24.7957C284.513 24.8423 284.511 24.896 284.506 24.9567C284.502 25.0127 284.495 25.071 284.485 25.1317H281.314V24.6417H284.184L283.932 24.8517C283.974 24.595 283.944 24.3663 283.841 24.1657C283.743 23.9603 283.601 23.7993 283.414 23.6827C283.228 23.5613 283.018 23.5007 282.784 23.5007C282.551 23.5007 282.334 23.5613 282.133 23.6827C281.937 23.804 281.783 23.9743 281.671 24.1937C281.559 24.4083 281.515 24.665 281.538 24.9637C281.515 25.2623 281.562 25.5237 281.678 25.7477C281.8 25.967 281.963 26.1373 282.168 26.2587C282.378 26.38 282.602 26.4407 282.84 26.4407C283.116 26.4407 283.347 26.3753 283.533 26.2447C283.72 26.114 283.872 25.9507 283.988 25.7547L284.436 25.9927C284.362 26.1607 284.247 26.317 284.093 26.4617C283.939 26.6017 283.755 26.716 283.54 26.8047C283.33 26.8887 283.097 26.9307 282.84 26.9307ZM285.439 26.8467V21.5477H285.964V23.8227L285.845 23.7947C285.938 23.552 286.09 23.3607 286.3 23.2207C286.515 23.0807 286.762 23.0107 287.042 23.0107C287.308 23.0107 287.546 23.0713 287.756 23.1927C287.971 23.314 288.139 23.482 288.26 23.6967C288.386 23.9067 288.449 24.1447 288.449 24.4107V26.8467H287.924V24.6137C287.924 24.385 287.882 24.1913 287.798 24.0327C287.714 23.874 287.597 23.7527 287.448 23.6687C287.303 23.58 287.138 23.5357 286.951 23.5357C286.764 23.5357 286.596 23.58 286.447 23.6687C286.298 23.7527 286.179 23.8763 286.09 24.0397C286.006 24.1983 285.964 24.3897 285.964 24.6137V26.8467H285.439ZM291.16 26.9307C290.81 26.9307 290.492 26.8467 290.208 26.6787C289.928 26.506 289.706 26.2703 289.543 25.9717C289.379 25.673 289.298 25.3347 289.298 24.9567C289.298 24.5787 289.377 24.245 289.536 23.9557C289.694 23.6617 289.909 23.4307 290.18 23.2627C290.455 23.0947 290.763 23.0107 291.104 23.0107C291.374 23.0107 291.615 23.062 291.825 23.1647C292.039 23.2627 292.221 23.398 292.371 23.5707C292.52 23.7387 292.634 23.93 292.714 24.1447C292.793 24.3547 292.833 24.5717 292.833 24.7957C292.833 24.8423 292.83 24.896 292.826 24.9567C292.821 25.0127 292.814 25.071 292.805 25.1317H289.634V24.6417H292.504L292.252 24.8517C292.294 24.595 292.263 24.3663 292.161 24.1657C292.063 23.9603 291.92 23.7993 291.734 23.6827C291.547 23.5613 291.337 23.5007 291.104 23.5007C290.87 23.5007 290.653 23.5613 290.453 23.6827C290.257 23.804 290.103 23.9743 289.991 24.1937C289.879 24.4083 289.834 24.665 289.858 24.9637C289.834 25.2623 289.881 25.5237 289.998 25.7477C290.119 25.967 290.282 26.1373 290.488 26.2587C290.698 26.38 290.922 26.4407 291.16 26.4407C291.435 26.4407 291.666 26.3753 291.853 26.2447C292.039 26.114 292.191 25.9507 292.308 25.7547L292.756 25.9927C292.681 26.1607 292.567 26.317 292.413 26.4617C292.259 26.6017 292.074 26.716 291.86 26.8047C291.65 26.8887 291.416 26.9307 291.16 26.9307ZM293.758 26.8467V23.0947H294.283V23.8227L294.164 23.7947C294.258 23.552 294.409 23.3607 294.619 23.2207C294.834 23.0807 295.081 23.0107 295.361 23.0107C295.627 23.0107 295.865 23.0713 296.075 23.1927C296.29 23.314 296.458 23.482 296.579 23.6967C296.705 23.9067 296.768 24.1447 296.768 24.4107V26.8467H296.243V24.6137C296.243 24.385 296.201 24.1913 296.117 24.0327C296.038 23.874 295.924 23.7527 295.774 23.6687C295.63 23.58 295.462 23.5357 295.27 23.5357C295.079 23.5357 294.909 23.58 294.759 23.6687C294.61 23.7527 294.493 23.8763 294.409 24.0397C294.325 24.1983 294.283 24.3897 294.283 24.6137V26.8467H293.758ZM299.073 26.9307C298.714 26.9307 298.399 26.8397 298.128 26.6577C297.857 26.4757 297.661 26.2283 297.54 25.9157L297.981 25.7057C298.088 25.9343 298.238 26.1163 298.429 26.2517C298.625 26.387 298.84 26.4547 299.073 26.4547C299.297 26.4547 299.486 26.401 299.64 26.2937C299.794 26.1817 299.871 26.037 299.871 25.8597C299.871 25.729 299.834 25.6263 299.759 25.5517C299.684 25.4723 299.598 25.4117 299.5 25.3697C299.402 25.3277 299.316 25.2973 299.241 25.2787L298.702 25.1247C298.357 25.0267 298.107 24.889 297.953 24.7117C297.799 24.5343 297.722 24.329 297.722 24.0957C297.722 23.8763 297.778 23.685 297.89 23.5217C298.002 23.3583 298.154 23.2323 298.345 23.1437C298.536 23.055 298.749 23.0107 298.982 23.0107C299.299 23.0107 299.586 23.0947 299.843 23.2627C300.104 23.426 300.289 23.6547 300.396 23.9487L299.948 24.1587C299.855 23.9487 299.719 23.7853 299.542 23.6687C299.369 23.5473 299.176 23.4867 298.961 23.4867C298.751 23.4867 298.583 23.5403 298.457 23.6477C298.331 23.755 298.268 23.8903 298.268 24.0537C298.268 24.1797 298.301 24.28 298.366 24.3547C298.431 24.4293 298.506 24.4853 298.59 24.5227C298.679 24.56 298.756 24.588 298.821 24.6067L299.444 24.7887C299.747 24.8773 299.983 25.015 300.151 25.2017C300.324 25.3883 300.41 25.6077 300.41 25.8597C300.41 26.065 300.352 26.2493 300.235 26.4127C300.123 26.576 299.967 26.7043 299.766 26.7977C299.565 26.8863 299.334 26.9307 299.073 26.9307ZM301.332 26.8467V23.0947H301.857V26.8467H301.332ZM301.332 22.4017V21.6317H301.857V22.4017H301.332ZM303.933 26.8467L302.47 23.0947H303.058L304.29 26.3847H304.101L305.34 23.0947H305.935L304.458 26.8467H303.933ZM308.188 26.9307C307.838 26.9307 307.521 26.8467 307.236 26.6787C306.956 26.506 306.734 26.2703 306.571 25.9717C306.408 25.673 306.326 25.3347 306.326 24.9567C306.326 24.5787 306.405 24.245 306.564 23.9557C306.723 23.6617 306.937 23.4307 307.208 23.2627C307.483 23.0947 307.791 23.0107 308.132 23.0107C308.403 23.0107 308.643 23.062 308.853 23.1647C309.068 23.2627 309.25 23.398 309.399 23.5707C309.548 23.7387 309.663 23.93 309.742 24.1447C309.821 24.3547 309.861 24.5717 309.861 24.7957C309.861 24.8423 309.859 24.896 309.854 24.9567C309.849 25.0127 309.842 25.071 309.833 25.1317H306.662V24.6417H309.532L309.28 24.8517C309.322 24.595 309.292 24.3663 309.189 24.1657C309.091 23.9603 308.949 23.7993 308.762 23.6827C308.575 23.5613 308.365 23.5007 308.132 23.5007C307.899 23.5007 307.682 23.5613 307.481 23.6827C307.285 23.804 307.131 23.9743 307.019 24.1937C306.907 24.4083 306.863 24.665 306.886 24.9637C306.863 25.2623 306.909 25.5237 307.026 25.7477C307.147 25.967 307.311 26.1373 307.516 26.2587C307.726 26.38 307.95 26.4407 308.188 26.4407C308.463 26.4407 308.694 26.3753 308.881 26.2447C309.068 26.114 309.219 25.9507 309.336 25.7547L309.784 25.9927C309.709 26.1607 309.595 26.317 309.441 26.4617C309.287 26.6017 309.103 26.716 308.888 26.8047C308.678 26.8887 308.445 26.9307 308.188 26.9307ZM310.969 26.8467V26.0767H311.529V26.8467H310.969Z" fill="white"/>
<rect x="133.111" y="12.9414" width="1.38657" height="6.93287" fill="white"/>
<defs>
<linearGradient id="paint0_linear_3898_1859" x1="25.3053" y1="28.5862" x2="0.552631" y2="10.8909" gradientUnits="userSpaceOnUse">
<stop stop-color="#8B4FDD"/>
<stop offset="1" stop-color="#12B886"/>
</linearGradient>
<linearGradient id="paint1_linear_3898_1859" x1="25.9831" y1="30.1471" x2="14.9802" y2="15.3463" gradientUnits="userSpaceOnUse">
<stop stop-color="#8B4FDD"/>
<stop offset="1" stop-color="#12B886"/>
</linearGradient>
<linearGradient id="paint2_linear_3898_1859" x1="31.5268" y1="23.4856" x2="12.6745" y2="12.3136" gradientUnits="userSpaceOnUse">
<stop stop-color="#8B4FDD"/>
<stop offset="1" stop-color="#12B886"/>
</linearGradient>
<linearGradient id="paint3_linear_3898_1859" x1="17.2419" y1="23.4856" x2="-1.61455" y2="12.306" gradientUnits="userSpaceOnUse">
<stop stop-color="#8B4FDD"/>
<stop offset="1" stop-color="#12B886"/>
</linearGradient>
</defs>
</svg>
