<svg width="1000" height="116" viewBox="0 0 1000 116" fill="none" xmlns="http://www.w3.org/2000/svg">
<path d="M0 0H1000V116H0V0Z" fill="black"/>
<path d="M252.343 74.7618L249.847 70.5284H213.98L231.941 39.2363L227.251 31H221.199C219.899 31.0029 218.624 31.3532 217.503 32.015C216.381 32.6767 215.455 33.6263 214.817 34.7668L203.963 54.0503C203.332 55.1633 203 56.4229 203 57.7046C203 58.9863 203.332 60.2458 203.963 61.3589L211.562 74.8517L214.817 80.6312C215.375 81.6225 216.153 82.4703 217.091 83.1082C218.029 83.746 219.1 84.1567 220.222 84.308C220.544 84.3532 220.868 84.3758 221.193 84.3754H242.662C243.961 84.3761 245.237 84.03 246.36 83.3722C247.483 82.7144 248.413 81.7687 249.055 80.6312L252.287 74.8517L252.343 74.7618Z" fill="url(#paint0_linear_6478_654)"/>
<path d="M252.404 74.7618L252.343 74.8686L249.104 80.6256C248.465 81.763 247.538 82.709 246.416 83.3669C245.295 84.0248 244.02 84.3708 242.722 84.3698H221.254C220.929 84.3701 220.605 84.3476 220.283 84.3024C219.159 84.1523 218.086 83.7422 217.146 83.1043C216.206 82.4664 215.426 81.618 214.867 80.6256L211.623 74.8518L214.102 70.5341L214.23 70.4553L226.268 63.1467C228.127 61.9324 229.518 61.2184 230.835 60.9935C230.865 60.9908 230.895 60.9908 230.925 60.9935L231.181 60.9598L231.628 60.926H231.896C232.111 60.9319 232.325 60.9488 232.538 60.9766C233.906 61.1622 235.369 61.8537 237.368 63.0118L249.841 70.4835L249.914 70.5284L252.404 74.7618Z" fill="url(#paint1_linear_6478_654)"/>
<path d="M259.961 61.3589L252.351 74.8517L252.412 74.7449L249.911 70.5284L232.044 39.1969V39.2363L227.315 31H242.73C244.031 31.0037 245.307 31.3542 246.429 32.0158C247.551 32.6775 248.479 33.6267 249.118 34.7667L259.961 54.0503C260.589 55.1642 260.92 56.4234 260.92 57.7046C260.92 58.9857 260.589 60.2449 259.961 61.3589Z" fill="url(#paint2_linear_6478_654)"/>
<path d="M203.963 61.3589L211.579 74.8517L211.517 74.7449L214.013 70.5115L231.88 39.18V39.2194L236.62 31H221.199C219.899 31.0029 218.624 31.3532 217.503 32.015C216.381 32.6767 215.455 33.6263 214.817 34.7667L203.963 54.0503C203.332 55.1633 203 56.4229 203 57.7046C203 58.9863 203.332 60.2458 203.963 61.3589Z" fill="url(#paint3_linear_6478_654)"/>
<path d="M278.201 74.476L289.815 41.6434H295.934L307.548 74.476H301.205L299.195 68.6291H286.554L284.544 74.476H278.201ZM292.897 50.3238L288.609 62.7822H297.185L292.897 50.3238ZM314.328 74.476L304.367 48.165H310.665L317.41 66.6951L324.021 48.165H330.23L320.403 74.476H314.328ZM343.394 75.0157C335.175 75.0157 329.592 68.9889 329.592 61.3879C329.592 53.697 335.532 47.6252 343.17 47.6252C350.942 47.6252 356.615 53.3822 356.615 61.1631V63.4568H335.354C336.202 67.1899 339.106 69.6635 343.394 69.6635C346.788 69.6635 349.379 67.8645 350.63 65.031L355.588 67.9095C353.31 72.1822 349.29 75.0157 343.394 75.0157ZM343.17 52.9774C339.552 52.9774 336.738 55.1363 335.666 58.3745H350.496C349.602 54.8214 346.922 52.9774 343.17 52.9774ZM358.558 71.3726C358.558 69.1688 359.942 67.6846 362.22 67.6846C364.498 67.6846 365.838 69.1688 365.838 71.3726C365.838 73.5315 364.454 75.0157 362.176 75.0157C359.898 75.0157 358.558 73.5315 358.558 71.3726ZM380.58 75.0157C374.282 75.0157 367.716 69.9784 367.716 61.343C367.716 52.6176 374.058 47.6252 380.669 47.6252C384.108 47.6252 387.146 49.0195 389.067 51.3133V48.165H395.097V74.476H389.067V71.0578C387.146 73.5315 384.019 75.0157 380.58 75.0157ZM381.562 69.4387C386.074 69.4387 389.379 65.7956 389.379 61.253C389.379 56.7554 386.074 53.1573 381.562 53.1573C377.096 53.1573 373.656 56.7104 373.656 61.253C373.656 65.8406 377.096 69.4387 381.562 69.4387ZM398.532 74.476V48.165H404.606V74.476H398.532ZM397.772 41.7334C397.772 39.4396 399.246 37.9104 401.569 37.9104C403.936 37.9104 405.366 39.4396 405.366 41.7334C405.366 44.0272 403.936 45.5114 401.569 45.5114C399.112 45.5114 397.772 44.0272 397.772 41.7334Z" fill="white"/>
<rect x="429.447" y="53.0161" width="2.35882" height="11.7941" fill="white"/>
<path d="M456.235 55V44.12H452.869V42.335H461.539V44.12H458.224V55H456.235ZM462.852 55V42.131H464.773V47.605L464.467 47.367C464.694 46.789 465.057 46.3527 465.555 46.058C466.054 45.752 466.632 45.599 467.289 45.599C467.969 45.599 468.57 45.7463 469.091 46.041C469.613 46.3357 470.021 46.7437 470.315 47.265C470.61 47.7863 470.757 48.3813 470.757 49.05V55H468.853V49.577C468.853 49.1123 468.763 48.7213 468.581 48.404C468.411 48.0753 468.173 47.826 467.867 47.656C467.561 47.4747 467.21 47.384 466.813 47.384C466.428 47.384 466.077 47.4747 465.759 47.656C465.453 47.826 465.21 48.0753 465.028 48.404C464.858 48.7327 464.773 49.1237 464.773 49.577V55H462.852ZM477.131 55.204C476.213 55.204 475.397 54.9943 474.683 54.575C473.98 54.1443 473.431 53.5663 473.034 52.841C472.637 52.1043 472.439 51.2827 472.439 50.376C472.439 49.4467 472.637 48.625 473.034 47.911C473.442 47.197 473.986 46.636 474.666 46.228C475.346 45.8087 476.117 45.599 476.978 45.599C477.669 45.599 478.287 45.718 478.831 45.956C479.375 46.194 479.834 46.5227 480.208 46.942C480.582 47.35 480.865 47.8203 481.058 48.353C481.262 48.8857 481.364 49.4523 481.364 50.053C481.364 50.2003 481.358 50.3533 481.347 50.512C481.336 50.6707 481.313 50.818 481.279 50.954H473.952V49.424H480.191L479.273 50.121C479.386 49.5657 479.347 49.0727 479.154 48.642C478.973 48.2 478.689 47.8543 478.304 47.605C477.93 47.3443 477.488 47.214 476.978 47.214C476.468 47.214 476.015 47.3443 475.618 47.605C475.221 47.8543 474.915 48.217 474.7 48.693C474.485 49.1577 474.4 49.7243 474.445 50.393C474.388 51.0163 474.473 51.5603 474.7 52.025C474.938 52.4897 475.267 52.8523 475.686 53.113C476.117 53.3737 476.604 53.504 477.148 53.504C477.703 53.504 478.174 53.3793 478.559 53.13C478.956 52.8807 479.267 52.5577 479.494 52.161L481.058 52.926C480.877 53.3567 480.593 53.7477 480.208 54.099C479.834 54.439 479.381 54.711 478.848 54.915C478.327 55.1077 477.754 55.204 477.131 55.204ZM491.141 55.204C490.2 55.204 489.361 55.0057 488.625 54.609C487.899 54.2123 487.327 53.6683 486.908 52.977C486.5 52.2857 486.296 51.498 486.296 50.614V42.335H488.302V50.529C488.302 51.0843 488.421 51.5773 488.659 52.008C488.908 52.4387 489.242 52.773 489.662 53.011C490.092 53.249 490.585 53.368 491.141 53.368C491.707 53.368 492.2 53.249 492.62 53.011C493.05 52.773 493.385 52.4387 493.623 52.008C493.872 51.5773 493.997 51.0843 493.997 50.529V42.335H495.986V50.614C495.986 51.498 495.782 52.2857 495.374 52.977C494.966 53.6683 494.393 54.2123 493.657 54.609C492.931 55.0057 492.093 55.204 491.141 55.204ZM498.313 55V42.131H500.234V55H498.313ZM506.458 55.102C505.495 55.102 504.747 54.83 504.214 54.286C503.681 53.742 503.415 52.977 503.415 51.991V47.537H501.8V45.803H502.055C502.486 45.803 502.82 45.6783 503.058 45.429C503.296 45.1797 503.415 44.8397 503.415 44.409V43.695H505.336V45.803H507.427V47.537H505.336V51.906C505.336 52.2233 505.387 52.4953 505.489 52.722C505.591 52.9373 505.755 53.1073 505.982 53.232C506.209 53.3453 506.503 53.402 506.866 53.402C506.957 53.402 507.059 53.3963 507.172 53.385C507.285 53.3737 507.393 53.3623 507.495 53.351V55C507.336 55.0227 507.161 55.0453 506.968 55.068C506.775 55.0907 506.605 55.102 506.458 55.102ZM509.37 55V45.803H511.291V55H509.37ZM509.37 44.545V42.335H511.291V44.545H509.37ZM513.537 55V45.803H515.373V47.792L515.135 47.486C515.327 46.8627 515.679 46.3923 516.189 46.075C516.699 45.7577 517.282 45.599 517.94 45.599C518.676 45.599 519.328 45.7973 519.895 46.194C520.473 46.5793 520.858 47.095 521.051 47.741L520.507 47.792C520.779 47.0553 521.192 46.5057 521.748 46.143C522.314 45.7803 522.96 45.599 523.686 45.599C524.32 45.599 524.893 45.7463 525.403 46.041C525.924 46.3357 526.338 46.7437 526.644 47.265C526.95 47.7863 527.103 48.3813 527.103 49.05V55H525.182V49.577C525.182 49.1123 525.097 48.7213 524.927 48.404C524.768 48.0753 524.541 47.826 524.247 47.656C523.963 47.4747 523.629 47.384 523.244 47.384C522.858 47.384 522.518 47.4747 522.224 47.656C521.929 47.826 521.697 48.0753 521.527 48.404C521.357 48.7327 521.272 49.1237 521.272 49.577V55H519.368V49.577C519.368 49.1123 519.283 48.7213 519.113 48.404C518.954 48.0753 518.727 47.826 518.433 47.656C518.149 47.4747 517.809 47.384 517.413 47.384C517.027 47.384 516.687 47.4747 516.393 47.656C516.098 47.826 515.866 48.0753 515.696 48.404C515.537 48.7327 515.458 49.1237 515.458 49.577V55H513.537ZM531.913 55.204C531.29 55.204 530.74 55.0963 530.264 54.881C529.799 54.6543 529.437 54.3483 529.176 53.963C528.915 53.5663 528.785 53.1017 528.785 52.569C528.785 52.0703 528.893 51.6227 529.108 51.226C529.335 50.8293 529.68 50.495 530.145 50.223C530.61 49.951 531.193 49.7583 531.896 49.645L535.092 49.118V50.631L532.27 51.124C531.76 51.2147 531.386 51.379 531.148 51.617C530.91 51.8437 530.791 52.1383 530.791 52.501C530.791 52.8523 530.921 53.1413 531.182 53.368C531.454 53.5833 531.8 53.691 532.219 53.691C532.74 53.691 533.194 53.5777 533.579 53.351C533.976 53.1243 534.282 52.824 534.497 52.45C534.712 52.0647 534.82 51.6397 534.82 51.175V48.812C534.82 48.3587 534.65 47.9903 534.31 47.707C533.981 47.4123 533.539 47.265 532.984 47.265C532.474 47.265 532.026 47.401 531.641 47.673C531.267 47.9337 530.989 48.2737 530.808 48.693L529.21 47.894C529.38 47.4407 529.658 47.044 530.043 46.704C530.428 46.3527 530.876 46.0807 531.386 45.888C531.907 45.6953 532.457 45.599 533.035 45.599C533.76 45.599 534.401 45.735 534.956 46.007C535.523 46.279 535.959 46.6587 536.265 47.146C536.582 47.622 536.741 48.1773 536.741 48.812V55H534.905V53.334L535.296 53.385C535.081 53.759 534.803 54.082 534.463 54.354C534.134 54.626 533.755 54.8357 533.324 54.983C532.905 55.1303 532.434 55.204 531.913 55.204ZM542.799 55.102C541.836 55.102 541.088 54.83 540.555 54.286C540.022 53.742 539.756 52.977 539.756 51.991V47.537H538.141V45.803H538.396C538.827 45.803 539.161 45.6783 539.399 45.429C539.637 45.1797 539.756 44.8397 539.756 44.409V43.695H541.677V45.803H543.768V47.537H541.677V51.906C541.677 52.2233 541.728 52.4953 541.83 52.722C541.932 52.9373 542.096 53.1073 542.323 53.232C542.55 53.3453 542.844 53.402 543.207 53.402C543.298 53.402 543.4 53.3963 543.513 53.385C543.626 53.3737 543.734 53.3623 543.836 53.351V55C543.677 55.0227 543.502 55.0453 543.309 55.068C543.116 55.0907 542.946 55.102 542.799 55.102ZM549.863 55.204C548.945 55.204 548.129 54.9943 547.415 54.575C546.712 54.1443 546.162 53.5663 545.766 52.841C545.369 52.1043 545.171 51.2827 545.171 50.376C545.171 49.4467 545.369 48.625 545.766 47.911C546.174 47.197 546.718 46.636 547.398 46.228C548.078 45.8087 548.848 45.599 549.71 45.599C550.401 45.599 551.019 45.718 551.563 45.956C552.107 46.194 552.566 46.5227 552.94 46.942C553.314 47.35 553.597 47.8203 553.79 48.353C553.994 48.8857 554.096 49.4523 554.096 50.053C554.096 50.2003 554.09 50.3533 554.079 50.512C554.067 50.6707 554.045 50.818 554.011 50.954H546.684V49.424H552.923L552.005 50.121C552.118 49.5657 552.078 49.0727 551.886 48.642C551.704 48.2 551.421 47.8543 551.036 47.605C550.662 47.3443 550.22 47.214 549.71 47.214C549.2 47.214 548.746 47.3443 548.35 47.605C547.953 47.8543 547.647 48.217 547.432 48.693C547.216 49.1577 547.131 49.7243 547.177 50.393C547.12 51.0163 547.205 51.5603 547.432 52.025C547.67 52.4897 547.998 52.8523 548.418 53.113C548.848 53.3737 549.336 53.504 549.88 53.504C550.435 53.504 550.905 53.3793 551.291 53.13C551.687 52.8807 551.999 52.5577 552.226 52.161L553.79 52.926C553.608 53.3567 553.325 53.7477 552.94 54.099C552.566 54.439 552.112 54.711 551.58 54.915C551.058 55.1077 550.486 55.204 549.863 55.204ZM561.492 55L558.007 42.335H560.132L562.954 53.3H562.427L565.351 42.335H567.442L570.366 53.3H569.822L572.661 42.335H574.769L571.301 55H569.04L566.099 44.205H566.694L563.736 55H561.492ZM579.795 55.204C578.877 55.204 578.061 54.9943 577.347 54.575C576.645 54.1443 576.095 53.5663 575.698 52.841C575.302 52.1043 575.103 51.2827 575.103 50.376C575.103 49.4467 575.302 48.625 575.698 47.911C576.106 47.197 576.65 46.636 577.33 46.228C578.01 45.8087 578.781 45.599 579.642 45.599C580.334 45.599 580.951 45.718 581.495 45.956C582.039 46.194 582.498 46.5227 582.872 46.942C583.246 47.35 583.53 47.8203 583.722 48.353C583.926 48.8857 584.028 49.4523 584.028 50.053C584.028 50.2003 584.023 50.3533 584.011 50.512C584 50.6707 583.977 50.818 583.943 50.954H576.616V49.424H582.855L581.937 50.121C582.051 49.5657 582.011 49.0727 581.818 48.642C581.637 48.2 581.354 47.8543 580.968 47.605C580.594 47.3443 580.152 47.214 579.642 47.214C579.132 47.214 578.679 47.3443 578.282 47.605C577.886 47.8543 577.58 48.217 577.364 48.693C577.149 49.1577 577.064 49.7243 577.109 50.393C577.053 51.0163 577.138 51.5603 577.364 52.025C577.602 52.4897 577.931 52.8523 578.35 53.113C578.781 53.3737 579.268 53.504 579.812 53.504C580.368 53.504 580.838 53.3793 581.223 53.13C581.62 52.8807 581.932 52.5577 582.158 52.161L583.722 52.926C583.541 53.3567 583.258 53.7477 582.872 54.099C582.498 54.439 582.045 54.711 581.512 54.915C580.991 55.1077 580.419 55.204 579.795 55.204ZM590.816 55.204C590.102 55.204 589.45 55.0567 588.861 54.762C588.283 54.4673 587.835 54.0423 587.518 53.487L587.739 53.13V55H585.903V42.131H587.824V47.707L587.518 47.265C587.858 46.7437 588.311 46.3357 588.878 46.041C589.445 45.7463 590.091 45.599 590.816 45.599C591.689 45.599 592.471 45.8087 593.162 46.228C593.865 46.6473 594.414 47.2197 594.811 47.945C595.219 48.6703 595.423 49.4863 595.423 50.393C595.423 51.2997 595.219 52.1157 594.811 52.841C594.414 53.5663 593.87 54.1443 593.179 54.575C592.488 54.9943 591.7 55.204 590.816 55.204ZM590.629 53.419C591.173 53.419 591.655 53.2887 592.074 53.028C592.493 52.7673 592.822 52.4103 593.06 51.957C593.309 51.4923 593.434 50.971 593.434 50.393C593.434 49.815 593.309 49.2993 593.06 48.846C592.822 48.3927 592.493 48.0357 592.074 47.775C591.655 47.5143 591.173 47.384 590.629 47.384C590.096 47.384 589.615 47.5143 589.184 47.775C588.765 48.0357 588.43 48.3927 588.181 48.846C587.943 49.2993 587.824 49.815 587.824 50.393C587.824 50.971 587.943 51.4923 588.181 51.957C588.43 52.4103 588.765 52.7673 589.184 53.028C589.615 53.2887 590.096 53.419 590.629 53.419ZM601.151 55.204C600.471 55.204 599.83 55.0793 599.23 54.83C598.64 54.5807 598.13 54.2293 597.7 53.776C597.28 53.3227 596.98 52.79 596.799 52.178L598.499 51.532C598.725 52.1327 599.071 52.5973 599.536 52.926C600 53.2547 600.539 53.419 601.151 53.419C601.649 53.419 602.08 53.3227 602.443 53.13C602.817 52.9373 603.106 52.6653 603.31 52.314C603.525 51.9627 603.633 51.5377 603.633 51.039C603.633 50.5517 603.525 50.1323 603.31 49.781C603.106 49.4297 602.817 49.1633 602.443 48.982C602.08 48.8007 601.649 48.71 601.151 48.71C600.947 48.71 600.737 48.727 600.522 48.761C600.318 48.795 600.136 48.8403 599.978 48.897L599.536 47.962L602.868 44.035H597.479V42.335H605.112V43.95L601.848 47.86L601.797 47.214C602.556 47.2253 603.225 47.3953 603.803 47.724C604.381 48.0413 604.828 48.4833 605.146 49.05C605.474 49.6053 605.639 50.2513 605.639 50.988C605.639 51.7813 605.446 52.501 605.061 53.147C604.675 53.7817 604.143 54.286 603.463 54.66C602.794 55.0227 602.023 55.204 601.151 55.204ZM613.087 55V44.12H609.721V42.335H618.391V44.12H615.076V55H613.087ZM618.691 55V45.803H620.527V47.656L620.357 47.384C620.561 46.7833 620.89 46.3527 621.343 46.092C621.796 45.82 622.34 45.684 622.975 45.684H623.536V47.435H622.737C622.102 47.435 621.587 47.6333 621.19 48.03C620.805 48.4153 620.612 48.9707 620.612 49.696V55H618.691ZM627.604 55.204C626.981 55.204 626.431 55.0963 625.955 54.881C625.491 54.6543 625.128 54.3483 624.867 53.963C624.607 53.5663 624.476 53.1017 624.476 52.569C624.476 52.0703 624.584 51.6227 624.799 51.226C625.026 50.8293 625.372 50.495 625.836 50.223C626.301 49.951 626.885 49.7583 627.587 49.645L630.783 49.118V50.631L627.961 51.124C627.451 51.2147 627.077 51.379 626.839 51.617C626.601 51.8437 626.482 52.1383 626.482 52.501C626.482 52.8523 626.613 53.1413 626.873 53.368C627.145 53.5833 627.491 53.691 627.91 53.691C628.432 53.691 628.885 53.5777 629.27 53.351C629.667 53.1243 629.973 52.824 630.188 52.45C630.404 52.0647 630.511 51.6397 630.511 51.175V48.812C630.511 48.3587 630.341 47.9903 630.001 47.707C629.673 47.4123 629.231 47.265 628.675 47.265C628.165 47.265 627.718 47.401 627.332 47.673C626.958 47.9337 626.681 48.2737 626.499 48.693L624.901 47.894C625.071 47.4407 625.349 47.044 625.734 46.704C626.12 46.3527 626.567 46.0807 627.077 45.888C627.599 45.6953 628.148 45.599 628.726 45.599C629.452 45.599 630.092 45.735 630.647 46.007C631.214 46.279 631.65 46.6587 631.956 47.146C632.274 47.622 632.432 48.1773 632.432 48.812V55H630.596V53.334L630.987 53.385C630.772 53.759 630.494 54.082 630.154 54.354C629.826 54.626 629.446 54.8357 629.015 54.983C628.596 55.1303 628.126 55.204 627.604 55.204ZM638.928 55.204C638.044 55.204 637.251 54.9943 636.548 54.575C635.857 54.1443 635.307 53.5663 634.899 52.841C634.503 52.1157 634.304 51.2997 634.304 50.393C634.304 49.4863 634.508 48.6703 634.916 47.945C635.324 47.2197 635.874 46.6473 636.565 46.228C637.257 45.8087 638.039 45.599 638.911 45.599C639.648 45.599 640.3 45.7463 640.866 46.041C641.433 46.3357 641.881 46.7437 642.209 47.265L641.92 47.707V42.131H643.824V55H642.005V53.13L642.226 53.487C641.909 54.0423 641.456 54.4673 640.866 54.762C640.277 55.0567 639.631 55.204 638.928 55.204ZM639.115 53.419C639.648 53.419 640.124 53.2887 640.543 53.028C640.974 52.7673 641.308 52.4103 641.546 51.957C641.796 51.4923 641.92 50.971 641.92 50.393C641.92 49.815 641.796 49.2993 641.546 48.846C641.308 48.3927 640.974 48.0357 640.543 47.775C640.124 47.5143 639.648 47.384 639.115 47.384C638.583 47.384 638.101 47.5143 637.67 47.775C637.24 48.0357 636.905 48.3927 636.667 48.846C636.429 49.2993 636.31 49.815 636.31 50.393C636.31 50.971 636.429 51.4923 636.667 51.957C636.905 52.4103 637.234 52.7673 637.653 53.028C638.084 53.2887 638.571 53.419 639.115 53.419ZM646.067 55V45.803H647.988V55H646.067ZM646.067 44.545V42.335H647.988V44.545H646.067ZM650.234 55V45.803H652.07V47.605L651.849 47.367C652.076 46.789 652.438 46.3527 652.937 46.058C653.436 45.752 654.014 45.599 654.671 45.599C655.351 45.599 655.952 45.7463 656.473 46.041C656.994 46.3357 657.402 46.7437 657.697 47.265C657.992 47.7863 658.139 48.387 658.139 49.067V55H656.235V49.577C656.235 49.1123 656.15 48.7213 655.98 48.404C655.81 48.0753 655.566 47.826 655.249 47.656C654.943 47.4747 654.592 47.384 654.195 47.384C653.798 47.384 653.441 47.4747 653.124 47.656C652.818 47.826 652.58 48.0753 652.41 48.404C652.24 48.7327 652.155 49.1237 652.155 49.577V55H650.234ZM664.632 58.74C663.963 58.74 663.346 58.6323 662.779 58.417C662.212 58.2017 661.725 57.9013 661.317 57.516C660.909 57.142 660.603 56.7 660.399 56.19L662.167 55.459C662.326 55.8897 662.615 56.2467 663.034 56.53C663.465 56.8133 663.992 56.955 664.615 56.955C665.102 56.955 665.539 56.8587 665.924 56.666C666.309 56.4847 666.615 56.2127 666.842 55.85C667.069 55.4987 667.182 55.0737 667.182 54.575V52.501L667.522 52.892C667.205 53.4813 666.763 53.929 666.196 54.235C665.641 54.541 665.012 54.694 664.309 54.694C663.459 54.694 662.694 54.4957 662.014 54.099C661.334 53.7023 660.796 53.1583 660.399 52.467C660.014 51.7757 659.821 50.9993 659.821 50.138C659.821 49.2653 660.014 48.489 660.399 47.809C660.796 47.129 661.328 46.5907 661.997 46.194C662.666 45.7973 663.431 45.599 664.292 45.599C664.995 45.599 665.618 45.752 666.162 46.058C666.717 46.3527 667.171 46.7833 667.522 47.35L667.267 47.826V45.803H669.086V54.575C669.086 55.3683 668.893 56.0767 668.508 56.7C668.134 57.3347 667.613 57.8333 666.944 58.196C666.275 58.5587 665.505 58.74 664.632 58.74ZM664.53 52.909C665.04 52.909 665.493 52.79 665.89 52.552C666.287 52.3027 666.598 51.974 666.825 51.566C667.063 51.1467 667.182 50.6763 667.182 50.155C667.182 49.6337 667.063 49.1633 666.825 48.744C666.587 48.3247 666.27 47.996 665.873 47.758C665.476 47.5087 665.029 47.384 664.53 47.384C664.009 47.384 663.544 47.5087 663.136 47.758C662.728 47.996 662.405 48.3247 662.167 48.744C661.94 49.152 661.827 49.6223 661.827 50.155C661.827 50.665 661.94 51.1297 662.167 51.549C662.405 51.9683 662.728 52.3027 663.136 52.552C663.544 52.79 664.009 52.909 664.53 52.909ZM676.737 55V44.12H673.371V42.335H682.041V44.12H678.726V55H676.737ZM686.477 55.204C685.559 55.204 684.743 54.9943 684.029 54.575C683.326 54.1443 682.777 53.5663 682.38 52.841C681.983 52.1043 681.785 51.2827 681.785 50.376C681.785 49.4467 681.983 48.625 682.38 47.911C682.788 47.197 683.332 46.636 684.012 46.228C684.692 45.8087 685.463 45.599 686.324 45.599C687.015 45.599 687.633 45.718 688.177 45.956C688.721 46.194 689.18 46.5227 689.554 46.942C689.928 47.35 690.211 47.8203 690.404 48.353C690.608 48.8857 690.71 49.4523 690.71 50.053C690.71 50.2003 690.704 50.3533 690.693 50.512C690.682 50.6707 690.659 50.818 690.625 50.954H683.298V49.424H689.537L688.619 50.121C688.732 49.5657 688.693 49.0727 688.5 48.642C688.319 48.2 688.035 47.8543 687.65 47.605C687.276 47.3443 686.834 47.214 686.324 47.214C685.814 47.214 685.361 47.3443 684.964 47.605C684.567 47.8543 684.261 48.217 684.046 48.693C683.831 49.1577 683.746 49.7243 683.791 50.393C683.734 51.0163 683.819 51.5603 684.046 52.025C684.284 52.4897 684.613 52.8523 685.032 53.113C685.463 53.3737 685.95 53.504 686.494 53.504C687.049 53.504 687.52 53.3793 687.905 53.13C688.302 52.8807 688.613 52.5577 688.84 52.161L690.404 52.926C690.223 53.3567 689.939 53.7477 689.554 54.099C689.18 54.439 688.727 54.711 688.194 54.915C687.673 55.1077 687.1 55.204 686.477 55.204ZM692.585 55V45.803H694.421V47.656L694.251 47.384C694.455 46.7833 694.783 46.3527 695.237 46.092C695.69 45.82 696.234 45.684 696.869 45.684H697.43V47.435H696.631C695.996 47.435 695.48 47.6333 695.084 48.03C694.698 48.4153 694.506 48.9707 694.506 49.696V55H692.585ZM698.744 55V45.803H700.58V47.792L700.342 47.486C700.534 46.8627 700.886 46.3923 701.396 46.075C701.906 45.7577 702.489 45.599 703.147 45.599C703.883 45.599 704.535 45.7973 705.102 46.194C705.68 46.5793 706.065 47.095 706.258 47.741L705.714 47.792C705.986 47.0553 706.399 46.5057 706.955 46.143C707.521 45.7803 708.167 45.599 708.893 45.599C709.527 45.599 710.1 45.7463 710.61 46.041C711.131 46.3357 711.545 46.7437 711.851 47.265C712.157 47.7863 712.31 48.3813 712.31 49.05V55H710.389V49.577C710.389 49.1123 710.304 48.7213 710.134 48.404C709.975 48.0753 709.748 47.826 709.454 47.656C709.17 47.4747 708.836 47.384 708.451 47.384C708.065 47.384 707.725 47.4747 707.431 47.656C707.136 47.826 706.904 48.0753 706.734 48.404C706.564 48.7327 706.479 49.1237 706.479 49.577V55H704.575V49.577C704.575 49.1123 704.49 48.7213 704.32 48.404C704.161 48.0753 703.934 47.826 703.64 47.656C703.356 47.4747 703.016 47.384 702.62 47.384C702.234 47.384 701.894 47.4747 701.6 47.656C701.305 47.826 701.073 48.0753 700.903 48.404C700.744 48.7327 700.665 49.1237 700.665 49.577V55H698.744ZM714.366 55V45.803H716.287V55H714.366ZM714.366 44.545V42.335H716.287V44.545H714.366ZM718.533 55V45.803H720.369V47.605L720.148 47.367C720.375 46.789 720.737 46.3527 721.236 46.058C721.735 45.752 722.313 45.599 722.97 45.599C723.65 45.599 724.251 45.7463 724.772 46.041C725.293 46.3357 725.701 46.7437 725.996 47.265C726.291 47.7863 726.438 48.387 726.438 49.067V55H724.534V49.577C724.534 49.1123 724.449 48.7213 724.279 48.404C724.109 48.0753 723.865 47.826 723.548 47.656C723.242 47.4747 722.891 47.384 722.494 47.384C722.097 47.384 721.74 47.4747 721.423 47.656C721.117 47.826 720.879 48.0753 720.709 48.404C720.539 48.7327 720.454 49.1237 720.454 49.577V55H718.533ZM731.248 55.204C730.624 55.204 730.075 55.0963 729.599 54.881C729.134 54.6543 728.771 54.3483 728.511 53.963C728.25 53.5663 728.12 53.1017 728.12 52.569C728.12 52.0703 728.227 51.6227 728.443 51.226C728.669 50.8293 729.015 50.495 729.48 50.223C729.944 49.951 730.528 49.7583 731.231 49.645L734.427 49.118V50.631L731.605 51.124C731.095 51.2147 730.721 51.379 730.483 51.617C730.245 51.8437 730.126 52.1383 730.126 52.501C730.126 52.8523 730.256 53.1413 730.517 53.368C730.789 53.5833 731.134 53.691 731.554 53.691C732.075 53.691 732.528 53.5777 732.914 53.351C733.31 53.1243 733.616 52.824 733.832 52.45C734.047 52.0647 734.155 51.6397 734.155 51.175V48.812C734.155 48.3587 733.985 47.9903 733.645 47.707C733.316 47.4123 732.874 47.265 732.319 47.265C731.809 47.265 731.361 47.401 730.976 47.673C730.602 47.9337 730.324 48.2737 730.143 48.693L728.545 47.894C728.715 47.4407 728.992 47.044 729.378 46.704C729.763 46.3527 730.211 46.0807 730.721 45.888C731.242 45.6953 731.792 45.599 732.37 45.599C733.095 45.599 733.735 45.735 734.291 46.007C734.857 46.279 735.294 46.6587 735.6 47.146C735.917 47.622 736.076 48.1773 736.076 48.812V55H734.24V53.334L734.631 53.385C734.415 53.759 734.138 54.082 733.798 54.354C733.469 54.626 733.089 54.8357 732.659 54.983C732.239 55.1303 731.769 55.204 731.248 55.204ZM738.322 55V42.131H740.243V55H738.322Z" fill="white"/>
<path d="M457.722 76.18C457.012 76.18 456.372 76.045 455.802 75.775C455.242 75.505 454.772 75.15 454.392 74.71C454.022 74.27 453.757 73.795 453.597 73.285L454.467 72.97C454.747 73.73 455.162 74.31 455.712 74.71C456.272 75.11 456.937 75.31 457.707 75.31C458.217 75.31 458.662 75.225 459.042 75.055C459.432 74.885 459.737 74.645 459.957 74.335C460.177 74.025 460.287 73.66 460.287 73.24C460.287 72.66 460.122 72.21 459.792 71.89C459.472 71.57 459.052 71.34 458.532 71.2L456.492 70.6C455.662 70.36 455.047 69.975 454.647 69.445C454.257 68.905 454.062 68.295 454.062 67.615C454.062 67.025 454.202 66.51 454.482 66.07C454.772 65.62 455.162 65.27 455.652 65.02C456.142 64.77 456.697 64.645 457.317 64.645C457.967 64.645 458.547 64.77 459.057 65.02C459.577 65.26 460.012 65.58 460.362 65.98C460.722 66.37 460.977 66.805 461.127 67.285L460.272 67.6C460.022 66.91 459.637 66.39 459.117 66.04C458.597 65.68 458.002 65.5 457.332 65.5C456.892 65.5 456.497 65.585 456.147 65.755C455.797 65.925 455.522 66.165 455.322 66.475C455.122 66.785 455.022 67.15 455.022 67.57C455.022 68.08 455.167 68.515 455.457 68.875C455.747 69.235 456.232 69.52 456.912 69.73L458.742 70.27C459.542 70.51 460.157 70.88 460.587 71.38C461.027 71.87 461.247 72.475 461.247 73.195C461.247 73.785 461.097 74.305 460.797 74.755C460.497 75.195 460.077 75.545 459.537 75.805C459.007 76.055 458.402 76.18 457.722 76.18ZM465.553 76.18C465.053 76.18 464.608 76.085 464.218 75.895C463.828 75.705 463.518 75.44 463.288 75.1C463.058 74.76 462.943 74.37 462.943 73.93C462.943 73.54 463.028 73.175 463.198 72.835C463.368 72.495 463.643 72.205 464.023 71.965C464.403 71.715 464.898 71.54 465.508 71.44L468.733 70.9V71.74L465.748 72.235C465.068 72.345 464.588 72.55 464.308 72.85C464.028 73.15 463.888 73.5 463.888 73.9C463.888 74.33 464.048 74.68 464.368 74.95C464.698 75.22 465.113 75.355 465.613 75.355C466.193 75.355 466.698 75.225 467.128 74.965C467.558 74.695 467.893 74.345 468.133 73.915C468.373 73.475 468.493 72.995 468.493 72.475V70.495C468.493 69.965 468.303 69.535 467.923 69.205C467.543 68.875 467.048 68.71 466.438 68.71C465.938 68.71 465.488 68.835 465.088 69.085C464.688 69.335 464.383 69.66 464.173 70.06L463.363 69.625C463.513 69.305 463.743 69.01 464.053 68.74C464.363 68.47 464.723 68.255 465.133 68.095C465.543 67.935 465.978 67.855 466.438 67.855C467.018 67.855 467.528 67.97 467.968 68.2C468.418 68.42 468.768 68.73 469.018 69.13C469.268 69.52 469.393 69.975 469.393 70.495V76H468.493V74.335L468.598 74.41C468.468 74.73 468.253 75.025 467.953 75.295C467.653 75.555 467.298 75.77 466.888 75.94C466.488 76.1 466.043 76.18 465.553 76.18ZM472.697 76V68.89H471.077V68.035H472.697V67.27C472.697 66.71 472.807 66.235 473.027 65.845C473.257 65.455 473.567 65.16 473.957 64.96C474.347 64.75 474.777 64.645 475.247 64.645C475.357 64.645 475.467 64.655 475.577 64.675C475.697 64.685 475.797 64.7 475.877 64.72V65.53C475.797 65.51 475.702 65.5 475.592 65.5C475.482 65.49 475.397 65.485 475.337 65.485C474.817 65.485 474.397 65.635 474.077 65.935C473.757 66.225 473.597 66.67 473.597 67.27V68.035H475.577V68.89H473.597V76H472.697ZM480.907 76.18C480.157 76.18 479.482 76 478.882 75.64C478.282 75.27 477.807 74.77 477.457 74.14C477.107 73.5 476.932 72.785 476.932 71.995C476.932 71.205 477.102 70.5 477.442 69.88C477.782 69.25 478.242 68.755 478.822 68.395C479.402 68.035 480.052 67.855 480.772 67.855C481.322 67.855 481.817 67.955 482.257 68.155C482.707 68.355 483.092 68.635 483.412 68.995C483.742 69.345 483.992 69.75 484.162 70.21C484.342 70.66 484.432 71.135 484.432 71.635C484.432 71.735 484.427 71.84 484.417 71.95C484.407 72.06 484.392 72.175 484.372 72.295H477.457V71.47H483.862L483.457 71.785C483.517 71.205 483.432 70.685 483.202 70.225C482.972 69.755 482.642 69.385 482.212 69.115C481.792 68.835 481.312 68.695 480.772 68.695C480.232 68.695 479.737 68.84 479.287 69.13C478.837 69.41 478.482 69.8 478.222 70.3C477.962 70.79 477.842 71.36 477.862 72.01C477.842 72.66 477.967 73.235 478.237 73.735C478.507 74.235 478.877 74.63 479.347 74.92C479.817 75.2 480.337 75.34 480.907 75.34C481.487 75.34 481.992 75.205 482.422 74.935C482.852 74.655 483.202 74.285 483.472 73.825L484.237 74.23C484.057 74.6 483.802 74.935 483.472 75.235C483.142 75.525 482.757 75.755 482.317 75.925C481.887 76.095 481.417 76.18 480.907 76.18ZM486.549 77.89V77.38C486.799 77.3 486.984 77.15 487.104 76.93C487.234 76.71 487.299 76.4 487.299 76H486.849V74.5H487.854V75.655C487.854 76.285 487.739 76.785 487.509 77.155C487.289 77.535 486.969 77.78 486.549 77.89ZM493.101 76V64.825H496.851C497.561 64.825 498.186 64.965 498.726 65.245C499.266 65.525 499.686 65.92 499.986 66.43C500.296 66.94 500.451 67.53 500.451 68.2C500.451 68.87 500.296 69.46 499.986 69.97C499.686 70.47 499.266 70.865 498.726 71.155C498.196 71.435 497.571 71.575 496.851 71.575H494.076V76H493.101ZM494.076 70.675H496.881C497.391 70.675 497.841 70.575 498.231 70.375C498.621 70.165 498.926 69.875 499.146 69.505C499.366 69.125 499.476 68.685 499.476 68.185C499.476 67.685 499.366 67.255 499.146 66.895C498.926 66.525 498.621 66.24 498.231 66.04C497.841 65.83 497.391 65.725 496.881 65.725H494.076V70.675ZM502.589 76V68.035H503.489V69.52L503.324 69.385C503.494 68.935 503.784 68.58 504.194 68.32C504.614 68.06 505.109 67.93 505.679 67.93H506.189V68.83H505.574C504.924 68.83 504.414 69.04 504.044 69.46C503.674 69.87 503.489 70.425 503.489 71.125V76H502.589ZM511.377 76.18C510.617 76.18 509.932 76 509.322 75.64C508.712 75.28 508.227 74.785 507.867 74.155C507.517 73.515 507.342 72.8 507.342 72.01C507.342 71.22 507.517 70.51 507.867 69.88C508.227 69.25 508.707 68.755 509.307 68.395C509.917 68.035 510.607 67.855 511.377 67.855C512.137 67.855 512.822 68.035 513.432 68.395C514.042 68.755 514.522 69.25 514.872 69.88C515.222 70.5 515.397 71.21 515.397 72.01C515.397 72.81 515.217 73.525 514.857 74.155C514.497 74.785 514.012 75.28 513.402 75.64C512.802 76 512.127 76.18 511.377 76.18ZM511.377 75.295C511.947 75.295 512.462 75.155 512.922 74.875C513.392 74.585 513.762 74.19 514.032 73.69C514.302 73.19 514.437 72.63 514.437 72.01C514.437 71.39 514.302 70.835 514.032 70.345C513.762 69.855 513.397 69.465 512.937 69.175C512.477 68.885 511.957 68.74 511.377 68.74C510.797 68.74 510.272 68.885 509.802 69.175C509.342 69.455 508.977 69.845 508.707 70.345C508.437 70.835 508.302 71.39 508.302 72.01C508.302 72.63 508.437 73.19 508.707 73.69C508.987 74.19 509.357 74.585 509.817 74.875C510.277 75.155 510.797 75.295 511.377 75.295ZM518.019 76V68.89H516.399V68.035H518.019V67.27C518.019 66.71 518.129 66.235 518.349 65.845C518.579 65.455 518.889 65.16 519.279 64.96C519.669 64.75 520.099 64.645 520.569 64.645C520.679 64.645 520.789 64.655 520.899 64.675C521.019 64.685 521.119 64.7 521.199 64.72V65.53C521.119 65.51 521.024 65.5 520.914 65.5C520.804 65.49 520.719 65.485 520.659 65.485C520.139 65.485 519.719 65.635 519.399 65.935C519.079 66.225 518.919 66.67 518.919 67.27V68.035H520.899V68.89H518.919V76H518.019ZM526.23 76.18C525.48 76.18 524.805 76 524.205 75.64C523.605 75.27 523.13 74.77 522.78 74.14C522.43 73.5 522.255 72.785 522.255 71.995C522.255 71.205 522.425 70.5 522.765 69.88C523.105 69.25 523.565 68.755 524.145 68.395C524.725 68.035 525.375 67.855 526.095 67.855C526.645 67.855 527.14 67.955 527.58 68.155C528.03 68.355 528.415 68.635 528.735 68.995C529.065 69.345 529.315 69.75 529.485 70.21C529.665 70.66 529.755 71.135 529.755 71.635C529.755 71.735 529.75 71.84 529.74 71.95C529.73 72.06 529.715 72.175 529.695 72.295H522.78V71.47H529.185L528.78 71.785C528.84 71.205 528.755 70.685 528.525 70.225C528.295 69.755 527.965 69.385 527.535 69.115C527.115 68.835 526.635 68.695 526.095 68.695C525.555 68.695 525.06 68.84 524.61 69.13C524.16 69.41 523.805 69.8 523.545 70.3C523.285 70.79 523.165 71.36 523.185 72.01C523.165 72.66 523.29 73.235 523.56 73.735C523.83 74.235 524.2 74.63 524.67 74.92C525.14 75.2 525.66 75.34 526.23 75.34C526.81 75.34 527.315 75.205 527.745 74.935C528.175 74.655 528.525 74.285 528.795 73.825L529.56 74.23C529.38 74.6 529.125 74.935 528.795 75.235C528.465 75.525 528.08 75.755 527.64 75.925C527.21 76.095 526.74 76.18 526.23 76.18ZM534.586 76.18C533.846 76.18 533.196 75.995 532.636 75.625C532.076 75.255 531.666 74.75 531.406 74.11L532.186 73.75C532.436 74.24 532.771 74.63 533.191 74.92C533.611 75.2 534.076 75.34 534.586 75.34C535.106 75.34 535.541 75.215 535.891 74.965C536.251 74.705 536.431 74.365 536.431 73.945C536.431 73.685 536.361 73.465 536.221 73.285C536.091 73.105 535.921 72.96 535.711 72.85C535.501 72.73 535.276 72.64 535.036 72.58L533.806 72.235C533.116 72.045 532.606 71.765 532.276 71.395C531.956 71.025 531.796 70.59 531.796 70.09C531.796 69.64 531.911 69.25 532.141 68.92C532.371 68.58 532.681 68.32 533.071 68.14C533.461 67.95 533.891 67.855 534.361 67.855C535.021 67.855 535.621 68.025 536.161 68.365C536.701 68.705 537.081 69.165 537.301 69.745L536.491 70.12C536.281 69.67 535.986 69.32 535.606 69.07C535.226 68.81 534.806 68.68 534.346 68.68C533.866 68.68 533.476 68.81 533.176 69.07C532.876 69.32 532.726 69.64 532.726 70.03C532.726 70.28 532.786 70.49 532.906 70.66C533.026 70.82 533.181 70.955 533.371 71.065C533.571 71.165 533.776 71.245 533.986 71.305L535.321 71.695C535.971 71.875 536.471 72.16 536.821 72.55C537.181 72.94 537.361 73.4 537.361 73.93C537.361 74.36 537.241 74.745 537.001 75.085C536.761 75.425 536.431 75.695 536.011 75.895C535.591 76.085 535.116 76.18 534.586 76.18ZM542.203 76.18C541.463 76.18 540.813 75.995 540.253 75.625C539.693 75.255 539.283 74.75 539.023 74.11L539.803 73.75C540.053 74.24 540.388 74.63 540.808 74.92C541.228 75.2 541.693 75.34 542.203 75.34C542.723 75.34 543.158 75.215 543.508 74.965C543.868 74.705 544.048 74.365 544.048 73.945C544.048 73.685 543.978 73.465 543.838 73.285C543.708 73.105 543.538 72.96 543.328 72.85C543.118 72.73 542.893 72.64 542.653 72.58L541.423 72.235C540.733 72.045 540.223 71.765 539.893 71.395C539.573 71.025 539.413 70.59 539.413 70.09C539.413 69.64 539.528 69.25 539.758 68.92C539.988 68.58 540.298 68.32 540.688 68.14C541.078 67.95 541.508 67.855 541.978 67.855C542.638 67.855 543.238 68.025 543.778 68.365C544.318 68.705 544.698 69.165 544.918 69.745L544.108 70.12C543.898 69.67 543.603 69.32 543.223 69.07C542.843 68.81 542.423 68.68 541.963 68.68C541.483 68.68 541.093 68.81 540.793 69.07C540.493 69.32 540.343 69.64 540.343 70.03C540.343 70.28 540.403 70.49 540.523 70.66C540.643 70.82 540.798 70.955 540.988 71.065C541.188 71.165 541.393 71.245 541.603 71.305L542.938 71.695C543.588 71.875 544.088 72.16 544.438 72.55C544.798 72.94 544.978 73.4 544.978 73.93C544.978 74.36 544.858 74.745 544.618 75.085C544.378 75.425 544.048 75.695 543.628 75.895C543.208 76.085 542.733 76.18 542.203 76.18ZM547.135 76V68.035H548.035V76H547.135ZM547.135 66.475V64.825H548.035V66.475H547.135ZM554.21 76.18C553.45 76.18 552.765 76 552.155 75.64C551.545 75.28 551.06 74.785 550.7 74.155C550.35 73.515 550.175 72.8 550.175 72.01C550.175 71.22 550.35 70.51 550.7 69.88C551.06 69.25 551.54 68.755 552.14 68.395C552.75 68.035 553.44 67.855 554.21 67.855C554.97 67.855 555.655 68.035 556.265 68.395C556.875 68.755 557.355 69.25 557.705 69.88C558.055 70.5 558.23 71.21 558.23 72.01C558.23 72.81 558.05 73.525 557.69 74.155C557.33 74.785 556.845 75.28 556.235 75.64C555.635 76 554.96 76.18 554.21 76.18ZM554.21 75.295C554.78 75.295 555.295 75.155 555.755 74.875C556.225 74.585 556.595 74.19 556.865 73.69C557.135 73.19 557.27 72.63 557.27 72.01C557.27 71.39 557.135 70.835 556.865 70.345C556.595 69.855 556.23 69.465 555.77 69.175C555.31 68.885 554.79 68.74 554.21 68.74C553.63 68.74 553.105 68.885 552.635 69.175C552.175 69.455 551.81 69.845 551.54 70.345C551.27 70.835 551.135 71.39 551.135 72.01C551.135 72.63 551.27 73.19 551.54 73.69C551.82 74.19 552.19 74.585 552.65 74.875C553.11 75.155 553.63 75.295 554.21 75.295ZM560.392 76V68.035H561.292V69.64L561.067 69.58C561.247 69.05 561.567 68.63 562.027 68.32C562.497 68.01 563.042 67.855 563.662 67.855C564.212 67.855 564.712 67.98 565.162 68.23C565.612 68.48 565.972 68.83 566.242 69.28C566.512 69.72 566.647 70.225 566.647 70.795V76H565.747V71.05C565.747 70.57 565.652 70.16 565.462 69.82C565.272 69.47 565.007 69.205 564.667 69.025C564.337 68.835 563.957 68.74 563.527 68.74C563.077 68.74 562.682 68.845 562.342 69.055C562.002 69.265 561.742 69.555 561.562 69.925C561.382 70.295 561.292 70.72 561.292 71.2V76H560.392ZM571.256 76.18C570.756 76.18 570.311 76.085 569.921 75.895C569.531 75.705 569.221 75.44 568.991 75.1C568.761 74.76 568.646 74.37 568.646 73.93C568.646 73.54 568.731 73.175 568.901 72.835C569.071 72.495 569.346 72.205 569.726 71.965C570.106 71.715 570.601 71.54 571.211 71.44L574.436 70.9V71.74L571.451 72.235C570.771 72.345 570.291 72.55 570.011 72.85C569.731 73.15 569.591 73.5 569.591 73.9C569.591 74.33 569.751 74.68 570.071 74.95C570.401 75.22 570.816 75.355 571.316 75.355C571.896 75.355 572.401 75.225 572.831 74.965C573.261 74.695 573.596 74.345 573.836 73.915C574.076 73.475 574.196 72.995 574.196 72.475V70.495C574.196 69.965 574.006 69.535 573.626 69.205C573.246 68.875 572.751 68.71 572.141 68.71C571.641 68.71 571.191 68.835 570.791 69.085C570.391 69.335 570.086 69.66 569.876 70.06L569.066 69.625C569.216 69.305 569.446 69.01 569.756 68.74C570.066 68.47 570.426 68.255 570.836 68.095C571.246 67.935 571.681 67.855 572.141 67.855C572.721 67.855 573.231 67.97 573.671 68.2C574.121 68.42 574.471 68.73 574.721 69.13C574.971 69.52 575.096 69.975 575.096 70.495V76H574.196V74.335L574.301 74.41C574.171 74.73 573.956 75.025 573.656 75.295C573.356 75.555 573.001 75.77 572.591 75.94C572.191 76.1 571.746 76.18 571.256 76.18ZM577.575 76V64.645H578.475V76H577.575ZM580.914 77.89V77.38C581.164 77.3 581.349 77.15 581.469 76.93C581.599 76.71 581.664 76.4 581.664 76H581.214V74.5H582.219V75.655C582.219 76.285 582.104 76.785 581.874 77.155C581.654 77.535 581.334 77.78 580.914 77.89ZM587.466 76V64.825H594.291V65.725H588.441V69.94H593.766V70.84H588.441V76H587.466ZM597.858 76.18C597.358 76.18 596.913 76.085 596.523 75.895C596.133 75.705 595.823 75.44 595.593 75.1C595.363 74.76 595.248 74.37 595.248 73.93C595.248 73.54 595.333 73.175 595.503 72.835C595.673 72.495 595.948 72.205 596.328 71.965C596.708 71.715 597.203 71.54 597.813 71.44L601.038 70.9V71.74L598.053 72.235C597.373 72.345 596.893 72.55 596.613 72.85C596.333 73.15 596.193 73.5 596.193 73.9C596.193 74.33 596.353 74.68 596.673 74.95C597.003 75.22 597.418 75.355 597.918 75.355C598.498 75.355 599.003 75.225 599.433 74.965C599.863 74.695 600.198 74.345 600.438 73.915C600.678 73.475 600.798 72.995 600.798 72.475V70.495C600.798 69.965 600.608 69.535 600.228 69.205C599.848 68.875 599.353 68.71 598.743 68.71C598.243 68.71 597.793 68.835 597.393 69.085C596.993 69.335 596.688 69.66 596.478 70.06L595.668 69.625C595.818 69.305 596.048 69.01 596.358 68.74C596.668 68.47 597.028 68.255 597.438 68.095C597.848 67.935 598.283 67.855 598.743 67.855C599.323 67.855 599.833 67.97 600.273 68.2C600.723 68.42 601.073 68.73 601.323 69.13C601.573 69.52 601.698 69.975 601.698 70.495V76H600.798V74.335L600.903 74.41C600.773 74.73 600.558 75.025 600.258 75.295C599.958 75.555 599.603 75.77 599.193 75.94C598.793 76.1 598.348 76.18 597.858 76.18ZM606.861 76.18C606.121 76.18 605.471 75.995 604.911 75.625C604.351 75.255 603.941 74.75 603.681 74.11L604.461 73.75C604.711 74.24 605.046 74.63 605.466 74.92C605.886 75.2 606.351 75.34 606.861 75.34C607.381 75.34 607.816 75.215 608.166 74.965C608.526 74.705 608.706 74.365 608.706 73.945C608.706 73.685 608.636 73.465 608.496 73.285C608.366 73.105 608.196 72.96 607.986 72.85C607.776 72.73 607.551 72.64 607.311 72.58L606.081 72.235C605.391 72.045 604.881 71.765 604.551 71.395C604.231 71.025 604.071 70.59 604.071 70.09C604.071 69.64 604.186 69.25 604.416 68.92C604.646 68.58 604.956 68.32 605.346 68.14C605.736 67.95 606.166 67.855 606.636 67.855C607.296 67.855 607.896 68.025 608.436 68.365C608.976 68.705 609.356 69.165 609.576 69.745L608.766 70.12C608.556 69.67 608.261 69.32 607.881 69.07C607.501 68.81 607.081 68.68 606.621 68.68C606.141 68.68 605.751 68.81 605.451 69.07C605.151 69.32 605.001 69.64 605.001 70.03C605.001 70.28 605.061 70.49 605.181 70.66C605.301 70.82 605.456 70.955 605.646 71.065C605.846 71.165 606.051 71.245 606.261 71.305L607.596 71.695C608.246 71.875 608.746 72.16 609.096 72.55C609.456 72.94 609.636 73.4 609.636 73.93C609.636 74.36 609.516 74.745 609.276 75.085C609.036 75.425 608.706 75.695 608.286 75.895C607.866 76.085 607.391 76.18 606.861 76.18ZM614.689 76.09C614.029 76.09 613.519 75.905 613.159 75.535C612.799 75.155 612.619 74.605 612.619 73.885V68.89H611.119V68.035H611.689C611.989 68.035 612.219 67.945 612.379 67.765C612.539 67.585 612.619 67.34 612.619 67.03V66.175H613.519V68.035H615.259V68.89H613.519V73.885C613.519 74.105 613.549 74.32 613.609 74.53C613.679 74.74 613.809 74.91 613.999 75.04C614.189 75.17 614.464 75.235 614.824 75.235C614.904 75.235 614.999 75.23 615.109 75.22C615.229 75.21 615.324 75.2 615.394 75.19V76C615.284 76.03 615.159 76.05 615.019 76.06C614.879 76.08 614.769 76.09 614.689 76.09ZM620.902 76.18C620.152 76.18 619.477 76 618.877 75.64C618.277 75.27 617.802 74.77 617.452 74.14C617.102 73.5 616.927 72.785 616.927 71.995C616.927 71.205 617.097 70.5 617.437 69.88C617.777 69.25 618.237 68.755 618.817 68.395C619.397 68.035 620.047 67.855 620.767 67.855C621.317 67.855 621.812 67.955 622.252 68.155C622.702 68.355 623.087 68.635 623.407 68.995C623.737 69.345 623.987 69.75 624.157 70.21C624.337 70.66 624.427 71.135 624.427 71.635C624.427 71.735 624.422 71.84 624.412 71.95C624.402 72.06 624.387 72.175 624.367 72.295H617.452V71.47H623.857L623.452 71.785C623.512 71.205 623.427 70.685 623.197 70.225C622.967 69.755 622.637 69.385 622.207 69.115C621.787 68.835 621.307 68.695 620.767 68.695C620.227 68.695 619.732 68.84 619.282 69.13C618.832 69.41 618.477 69.8 618.217 70.3C617.957 70.79 617.837 71.36 617.857 72.01C617.837 72.66 617.962 73.235 618.232 73.735C618.502 74.235 618.872 74.63 619.342 74.92C619.812 75.2 620.332 75.34 620.902 75.34C621.482 75.34 621.987 75.205 622.417 74.935C622.847 74.655 623.197 74.285 623.467 73.825L624.232 74.23C624.052 74.6 623.797 74.935 623.467 75.235C623.137 75.525 622.752 75.755 622.312 75.925C621.882 76.095 621.412 76.18 620.902 76.18ZM629.259 76.18C628.519 76.18 627.869 75.995 627.309 75.625C626.749 75.255 626.339 74.75 626.079 74.11L626.859 73.75C627.109 74.24 627.444 74.63 627.864 74.92C628.284 75.2 628.749 75.34 629.259 75.34C629.779 75.34 630.214 75.215 630.564 74.965C630.924 74.705 631.104 74.365 631.104 73.945C631.104 73.685 631.034 73.465 630.894 73.285C630.764 73.105 630.594 72.96 630.384 72.85C630.174 72.73 629.949 72.64 629.709 72.58L628.479 72.235C627.789 72.045 627.279 71.765 626.949 71.395C626.629 71.025 626.469 70.59 626.469 70.09C626.469 69.64 626.584 69.25 626.814 68.92C627.044 68.58 627.354 68.32 627.744 68.14C628.134 67.95 628.564 67.855 629.034 67.855C629.694 67.855 630.294 68.025 630.834 68.365C631.374 68.705 631.754 69.165 631.974 69.745L631.164 70.12C630.954 69.67 630.659 69.32 630.279 69.07C629.899 68.81 629.479 68.68 629.019 68.68C628.539 68.68 628.149 68.81 627.849 69.07C627.549 69.32 627.399 69.64 627.399 70.03C627.399 70.28 627.459 70.49 627.579 70.66C627.699 70.82 627.854 70.955 628.044 71.065C628.244 71.165 628.449 71.245 628.659 71.305L629.994 71.695C630.644 71.875 631.144 72.16 631.494 72.55C631.854 72.94 632.034 73.4 632.034 73.93C632.034 74.36 631.914 74.745 631.674 75.085C631.434 75.425 631.104 75.695 630.684 75.895C630.264 76.085 629.789 76.18 629.259 76.18ZM637.086 76.09C636.426 76.09 635.916 75.905 635.556 75.535C635.196 75.155 635.016 74.605 635.016 73.885V68.89H633.516V68.035H634.086C634.386 68.035 634.616 67.945 634.776 67.765C634.936 67.585 635.016 67.34 635.016 67.03V66.175H635.916V68.035H637.656V68.89H635.916V73.885C635.916 74.105 635.946 74.32 636.006 74.53C636.076 74.74 636.206 74.91 636.396 75.04C636.586 75.17 636.861 75.235 637.221 75.235C637.301 75.235 637.396 75.23 637.506 75.22C637.626 75.21 637.721 75.2 637.791 75.19V76C637.681 76.03 637.556 76.05 637.416 76.06C637.276 76.08 637.166 76.09 637.086 76.09ZM639.918 77.89V77.38C640.168 77.3 640.353 77.15 640.473 76.93C640.603 76.71 640.668 76.4 640.668 76H640.218V74.5H641.223V75.655C641.223 76.285 641.108 76.785 640.878 77.155C640.658 77.535 640.338 77.78 639.918 77.89ZM646.47 76V64.825H647.295L651.465 71.035H651.06L655.245 64.825H656.07V76H655.095V66.25L655.335 66.385L651.285 72.43H651.24L647.19 66.385L647.445 66.25V76H646.47ZM662.418 76.18C661.658 76.18 660.973 76 660.363 75.64C659.753 75.28 659.268 74.785 658.908 74.155C658.558 73.515 658.383 72.8 658.383 72.01C658.383 71.22 658.558 70.51 658.908 69.88C659.268 69.25 659.748 68.755 660.348 68.395C660.958 68.035 661.648 67.855 662.418 67.855C663.178 67.855 663.863 68.035 664.473 68.395C665.083 68.755 665.563 69.25 665.913 69.88C666.263 70.5 666.438 71.21 666.438 72.01C666.438 72.81 666.258 73.525 665.898 74.155C665.538 74.785 665.053 75.28 664.443 75.64C663.843 76 663.168 76.18 662.418 76.18ZM662.418 75.295C662.988 75.295 663.503 75.155 663.963 74.875C664.433 74.585 664.803 74.19 665.073 73.69C665.343 73.19 665.478 72.63 665.478 72.01C665.478 71.39 665.343 70.835 665.073 70.345C664.803 69.855 664.438 69.465 663.978 69.175C663.518 68.885 662.998 68.74 662.418 68.74C661.838 68.74 661.313 68.885 660.843 69.175C660.383 69.455 660.018 69.845 659.748 70.345C659.478 70.835 659.343 71.39 659.343 72.01C659.343 72.63 659.478 73.19 659.748 73.69C660.028 74.19 660.398 74.585 660.858 74.875C661.318 75.155 661.838 75.295 662.418 75.295ZM671.285 76.18C670.545 76.18 669.895 75.995 669.335 75.625C668.775 75.255 668.365 74.75 668.105 74.11L668.885 73.75C669.135 74.24 669.47 74.63 669.89 74.92C670.31 75.2 670.775 75.34 671.285 75.34C671.805 75.34 672.24 75.215 672.59 74.965C672.95 74.705 673.13 74.365 673.13 73.945C673.13 73.685 673.06 73.465 672.92 73.285C672.79 73.105 672.62 72.96 672.41 72.85C672.2 72.73 671.975 72.64 671.735 72.58L670.505 72.235C669.815 72.045 669.305 71.765 668.975 71.395C668.655 71.025 668.495 70.59 668.495 70.09C668.495 69.64 668.61 69.25 668.84 68.92C669.07 68.58 669.38 68.32 669.77 68.14C670.16 67.95 670.59 67.855 671.06 67.855C671.72 67.855 672.32 68.025 672.86 68.365C673.4 68.705 673.78 69.165 674 69.745L673.19 70.12C672.98 69.67 672.685 69.32 672.305 69.07C671.925 68.81 671.505 68.68 671.045 68.68C670.565 68.68 670.175 68.81 669.875 69.07C669.575 69.32 669.425 69.64 669.425 70.03C669.425 70.28 669.485 70.49 669.605 70.66C669.725 70.82 669.88 70.955 670.07 71.065C670.27 71.165 670.475 71.245 670.685 71.305L672.02 71.695C672.67 71.875 673.17 72.16 673.52 72.55C673.88 72.94 674.06 73.4 674.06 73.93C674.06 74.36 673.94 74.745 673.7 75.085C673.46 75.425 673.13 75.695 672.71 75.895C672.29 76.085 671.815 76.18 671.285 76.18ZM679.112 76.09C678.452 76.09 677.942 75.905 677.582 75.535C677.222 75.155 677.042 74.605 677.042 73.885V68.89H675.542V68.035H676.112C676.412 68.035 676.642 67.945 676.802 67.765C676.962 67.585 677.042 67.34 677.042 67.03V66.175H677.942V68.035H679.682V68.89H677.942V73.885C677.942 74.105 677.972 74.32 678.032 74.53C678.102 74.74 678.232 74.91 678.422 75.04C678.612 75.17 678.887 75.235 679.247 75.235C679.327 75.235 679.422 75.23 679.532 75.22C679.652 75.21 679.747 75.2 679.817 75.19V76C679.707 76.03 679.582 76.05 679.442 76.06C679.302 76.08 679.192 76.09 679.112 76.09ZM689.64 76.18C688.87 76.18 688.16 76.04 687.51 75.76C686.86 75.47 686.29 75.065 685.8 74.545C685.32 74.025 684.945 73.415 684.675 72.715C684.415 72.015 684.285 71.245 684.285 70.405C684.285 69.575 684.415 68.81 684.675 68.11C684.945 67.4 685.32 66.79 685.8 66.28C686.29 65.76 686.86 65.36 687.51 65.08C688.16 64.79 688.87 64.645 689.64 64.645C690.39 64.645 691.065 64.78 691.665 65.05C692.265 65.32 692.77 65.665 693.18 66.085C693.59 66.505 693.885 66.94 694.065 67.39L693.15 67.795C692.85 67.125 692.395 66.585 691.785 66.175C691.185 65.765 690.47 65.56 689.64 65.56C688.79 65.56 688.03 65.765 687.36 66.175C686.7 66.585 686.185 67.155 685.815 67.885C685.445 68.605 685.26 69.445 685.26 70.405C685.26 71.365 685.445 72.21 685.815 72.94C686.185 73.67 686.7 74.24 687.36 74.65C688.03 75.05 688.79 75.25 689.64 75.25C690.47 75.25 691.185 75.05 691.785 74.65C692.395 74.24 692.85 73.7 693.15 73.03L694.065 73.435C693.885 73.875 693.59 74.305 693.18 74.725C692.77 75.145 692.265 75.495 691.665 75.775C691.065 76.045 690.39 76.18 689.64 76.18ZM699.786 76.18C699.026 76.18 698.341 76 697.731 75.64C697.121 75.28 696.636 74.785 696.276 74.155C695.926 73.515 695.751 72.8 695.751 72.01C695.751 71.22 695.926 70.51 696.276 69.88C696.636 69.25 697.116 68.755 697.716 68.395C698.326 68.035 699.016 67.855 699.786 67.855C700.546 67.855 701.231 68.035 701.841 68.395C702.451 68.755 702.931 69.25 703.281 69.88C703.631 70.5 703.806 71.21 703.806 72.01C703.806 72.81 703.626 73.525 703.266 74.155C702.906 74.785 702.421 75.28 701.811 75.64C701.211 76 700.536 76.18 699.786 76.18ZM699.786 75.295C700.356 75.295 700.871 75.155 701.331 74.875C701.801 74.585 702.171 74.19 702.441 73.69C702.711 73.19 702.846 72.63 702.846 72.01C702.846 71.39 702.711 70.835 702.441 70.345C702.171 69.855 701.806 69.465 701.346 69.175C700.886 68.885 700.366 68.74 699.786 68.74C699.206 68.74 698.681 68.885 698.211 69.175C697.751 69.455 697.386 69.845 697.116 70.345C696.846 70.835 696.711 71.39 696.711 72.01C696.711 72.63 696.846 73.19 697.116 73.69C697.396 74.19 697.766 74.585 698.226 74.875C698.686 75.155 699.206 75.295 699.786 75.295ZM705.968 76V68.035H706.868V69.64L706.703 69.415C706.903 68.935 707.223 68.555 707.663 68.275C708.113 67.995 708.613 67.855 709.163 67.855C709.783 67.855 710.348 68.035 710.858 68.395C711.368 68.745 711.723 69.215 711.923 69.805L711.638 69.82C711.808 69.21 712.143 68.73 712.643 68.38C713.153 68.03 713.718 67.855 714.338 67.855C714.868 67.855 715.353 67.98 715.793 68.23C716.243 68.48 716.603 68.83 716.873 69.28C717.153 69.72 717.293 70.225 717.293 70.795V76H716.393V71.05C716.393 70.57 716.293 70.16 716.093 69.82C715.903 69.47 715.648 69.205 715.328 69.025C715.008 68.835 714.648 68.74 714.248 68.74C713.818 68.74 713.438 68.845 713.108 69.055C712.788 69.265 712.533 69.555 712.343 69.925C712.163 70.295 712.073 70.72 712.073 71.2V76H711.173V71.05C711.173 70.57 711.078 70.16 710.888 69.82C710.698 69.47 710.438 69.205 710.108 69.025C709.788 68.835 709.428 68.74 709.028 68.74C708.598 68.74 708.218 68.845 707.888 69.055C707.568 69.265 707.318 69.555 707.138 69.925C706.958 70.295 706.868 70.72 706.868 71.2V76H705.968ZM719.606 79V68.035H720.506V70.045L720.356 69.76C720.656 69.18 721.086 68.72 721.646 68.38C722.216 68.03 722.866 67.855 723.596 67.855C724.346 67.855 725.016 68.035 725.606 68.395C726.196 68.755 726.661 69.25 727.001 69.88C727.341 70.51 727.511 71.225 727.511 72.025C727.511 72.805 727.341 73.51 727.001 74.14C726.661 74.77 726.196 75.27 725.606 75.64C725.016 76 724.346 76.18 723.596 76.18C722.866 76.18 722.211 76.005 721.631 75.655C721.061 75.295 720.636 74.805 720.356 74.185L720.506 73.975V79H719.606ZM723.566 75.28C724.136 75.28 724.646 75.14 725.096 74.86C725.546 74.57 725.901 74.18 726.161 73.69C726.421 73.19 726.551 72.63 726.551 72.01C726.551 71.39 726.421 70.835 726.161 70.345C725.901 69.855 725.546 69.47 725.096 69.19C724.646 68.9 724.136 68.755 723.566 68.755C722.996 68.755 722.481 68.9 722.021 69.19C721.561 69.47 721.196 69.855 720.926 70.345C720.656 70.835 720.521 71.39 720.521 72.01C720.521 72.63 720.656 73.19 720.926 73.69C721.196 74.18 721.556 74.57 722.006 74.86C722.466 75.14 722.986 75.28 723.566 75.28ZM729.67 76V68.035H730.57V69.52L730.405 69.385C730.575 68.935 730.865 68.58 731.275 68.32C731.695 68.06 732.19 67.93 732.76 67.93H733.27V68.83H732.655C732.005 68.83 731.495 69.04 731.125 69.46C730.755 69.87 730.57 70.425 730.57 71.125V76H729.67ZM738.398 76.18C737.648 76.18 736.973 76 736.373 75.64C735.773 75.27 735.298 74.77 734.948 74.14C734.598 73.5 734.423 72.785 734.423 71.995C734.423 71.205 734.593 70.5 734.933 69.88C735.273 69.25 735.733 68.755 736.313 68.395C736.893 68.035 737.543 67.855 738.263 67.855C738.813 67.855 739.308 67.955 739.748 68.155C740.198 68.355 740.583 68.635 740.903 68.995C741.233 69.345 741.483 69.75 741.653 70.21C741.833 70.66 741.923 71.135 741.923 71.635C741.923 71.735 741.918 71.84 741.908 71.95C741.898 72.06 741.883 72.175 741.863 72.295H734.948V71.47H741.353L740.948 71.785C741.008 71.205 740.923 70.685 740.693 70.225C740.463 69.755 740.133 69.385 739.703 69.115C739.283 68.835 738.803 68.695 738.263 68.695C737.723 68.695 737.228 68.84 736.778 69.13C736.328 69.41 735.973 69.8 735.713 70.3C735.453 70.79 735.333 71.36 735.353 72.01C735.333 72.66 735.458 73.235 735.728 73.735C735.998 74.235 736.368 74.63 736.838 74.92C737.308 75.2 737.828 75.34 738.398 75.34C738.978 75.34 739.483 75.205 739.913 74.935C740.343 74.655 740.693 74.285 740.963 73.825L741.728 74.23C741.548 74.6 741.293 74.935 740.963 75.235C740.633 75.525 740.248 75.755 739.808 75.925C739.378 76.095 738.908 76.18 738.398 76.18ZM744.069 76V64.645H744.969V69.64L744.744 69.58C744.924 69.05 745.244 68.63 745.704 68.32C746.174 68.01 746.719 67.855 747.339 67.855C747.889 67.855 748.389 67.98 748.839 68.23C749.289 68.48 749.649 68.83 749.919 69.28C750.189 69.72 750.324 70.225 750.324 70.795V76H749.424V71.05C749.424 70.57 749.324 70.16 749.124 69.82C748.934 69.47 748.669 69.205 748.329 69.025C747.999 68.835 747.624 68.74 747.204 68.74C746.754 68.74 746.359 68.845 746.019 69.055C745.689 69.265 745.429 69.555 745.239 69.925C745.059 70.295 744.969 70.72 744.969 71.2V76H744.069ZM756.298 76.18C755.548 76.18 754.873 76 754.273 75.64C753.673 75.27 753.198 74.77 752.848 74.14C752.498 73.5 752.323 72.785 752.323 71.995C752.323 71.205 752.493 70.5 752.833 69.88C753.173 69.25 753.633 68.755 754.213 68.395C754.793 68.035 755.443 67.855 756.163 67.855C756.713 67.855 757.208 67.955 757.648 68.155C758.098 68.355 758.483 68.635 758.803 68.995C759.133 69.345 759.383 69.75 759.553 70.21C759.733 70.66 759.823 71.135 759.823 71.635C759.823 71.735 759.818 71.84 759.808 71.95C759.798 72.06 759.783 72.175 759.763 72.295H752.848V71.47H759.253L758.848 71.785C758.908 71.205 758.823 70.685 758.593 70.225C758.363 69.755 758.033 69.385 757.603 69.115C757.183 68.835 756.703 68.695 756.163 68.695C755.623 68.695 755.128 68.84 754.678 69.13C754.228 69.41 753.873 69.8 753.613 70.3C753.353 70.79 753.233 71.36 753.253 72.01C753.233 72.66 753.358 73.235 753.628 73.735C753.898 74.235 754.268 74.63 754.738 74.92C755.208 75.2 755.728 75.34 756.298 75.34C756.878 75.34 757.383 75.205 757.813 74.935C758.243 74.655 758.593 74.285 758.863 73.825L759.628 74.23C759.448 74.6 759.193 74.935 758.863 75.235C758.533 75.525 758.148 75.755 757.708 75.925C757.278 76.095 756.808 76.18 756.298 76.18ZM761.969 76V68.035H762.869V69.64L762.644 69.58C762.824 69.05 763.144 68.63 763.604 68.32C764.074 68.01 764.619 67.855 765.239 67.855C765.789 67.855 766.289 67.98 766.739 68.23C767.189 68.48 767.549 68.83 767.819 69.28C768.089 69.72 768.224 70.225 768.224 70.795V76H767.324V71.05C767.324 70.57 767.229 70.16 767.039 69.82C766.849 69.47 766.584 69.205 766.244 69.025C765.914 68.835 765.534 68.74 765.104 68.74C764.654 68.74 764.259 68.845 763.919 69.055C763.579 69.265 763.319 69.555 763.139 69.925C762.959 70.295 762.869 70.72 762.869 71.2V76H761.969ZM773.238 76.18C772.498 76.18 771.848 75.995 771.288 75.625C770.728 75.255 770.318 74.75 770.058 74.11L770.838 73.75C771.088 74.24 771.423 74.63 771.843 74.92C772.263 75.2 772.728 75.34 773.238 75.34C773.758 75.34 774.193 75.215 774.543 74.965C774.903 74.705 775.083 74.365 775.083 73.945C775.083 73.685 775.013 73.465 774.873 73.285C774.743 73.105 774.573 72.96 774.363 72.85C774.153 72.73 773.928 72.64 773.688 72.58L772.458 72.235C771.768 72.045 771.258 71.765 770.928 71.395C770.608 71.025 770.448 70.59 770.448 70.09C770.448 69.64 770.563 69.25 770.793 68.92C771.023 68.58 771.333 68.32 771.723 68.14C772.113 67.95 772.543 67.855 773.013 67.855C773.673 67.855 774.273 68.025 774.813 68.365C775.353 68.705 775.733 69.165 775.953 69.745L775.143 70.12C774.933 69.67 774.638 69.32 774.258 69.07C773.878 68.81 773.458 68.68 772.998 68.68C772.518 68.68 772.128 68.81 771.828 69.07C771.528 69.32 771.378 69.64 771.378 70.03C771.378 70.28 771.438 70.49 771.558 70.66C771.678 70.82 771.833 70.955 772.023 71.065C772.223 71.165 772.428 71.245 772.638 71.305L773.973 71.695C774.623 71.875 775.123 72.16 775.473 72.55C775.833 72.94 776.013 73.4 776.013 73.93C776.013 74.36 775.893 74.745 775.653 75.085C775.413 75.425 775.083 75.695 774.663 75.895C774.243 76.085 773.768 76.18 773.238 76.18ZM778.171 76V68.035H779.071V76H778.171ZM778.171 66.475V64.825H779.071V66.475H778.171ZM783.7 76L780.55 68.035H781.555L784.345 75.205H784L786.79 68.035H787.825L784.63 76H783.7ZM792.802 76.18C792.052 76.18 791.377 76 790.777 75.64C790.177 75.27 789.702 74.77 789.352 74.14C789.002 73.5 788.827 72.785 788.827 71.995C788.827 71.205 788.997 70.5 789.337 69.88C789.677 69.25 790.137 68.755 790.717 68.395C791.297 68.035 791.947 67.855 792.667 67.855C793.217 67.855 793.712 67.955 794.152 68.155C794.602 68.355 794.987 68.635 795.307 68.995C795.637 69.345 795.887 69.75 796.057 70.21C796.237 70.66 796.327 71.135 796.327 71.635C796.327 71.735 796.322 71.84 796.312 71.95C796.302 72.06 796.287 72.175 796.267 72.295H789.352V71.47H795.757L795.352 71.785C795.412 71.205 795.327 70.685 795.097 70.225C794.867 69.755 794.537 69.385 794.107 69.115C793.687 68.835 793.207 68.695 792.667 68.695C792.127 68.695 791.632 68.84 791.182 69.13C790.732 69.41 790.377 69.8 790.117 70.3C789.857 70.79 789.737 71.36 789.757 72.01C789.737 72.66 789.862 73.235 790.132 73.735C790.402 74.235 790.772 74.63 791.242 74.92C791.712 75.2 792.232 75.34 792.802 75.34C793.382 75.34 793.887 75.205 794.317 74.935C794.747 74.655 795.097 74.285 795.367 73.825L796.132 74.23C795.952 74.6 795.697 74.935 795.367 75.235C795.037 75.525 794.652 75.755 794.212 75.925C793.782 76.095 793.312 76.18 792.802 76.18Z" fill="white"/>
<defs>
<linearGradient id="paint0_linear_6478_654" x1="246.049" y1="79.6304" x2="203.94" y2="49.5275" gradientUnits="userSpaceOnUse">
<stop stop-color="#8B4FDD"/>
<stop offset="1" stop-color="#12B886"/>
</linearGradient>
<linearGradient id="paint1_linear_6478_654" x1="247.202" y1="82.2857" x2="228.484" y2="57.1068" gradientUnits="userSpaceOnUse">
<stop stop-color="#8B4FDD"/>
<stop offset="1" stop-color="#12B886"/>
</linearGradient>
<linearGradient id="paint2_linear_6478_654" x1="256.633" y1="70.9534" x2="224.562" y2="51.9477" gradientUnits="userSpaceOnUse">
<stop stop-color="#8B4FDD"/>
<stop offset="1" stop-color="#12B886"/>
</linearGradient>
<linearGradient id="paint3_linear_6478_654" x1="232.332" y1="70.9534" x2="200.253" y2="51.9348" gradientUnits="userSpaceOnUse">
<stop stop-color="#8B4FDD"/>
<stop offset="1" stop-color="#12B886"/>
</linearGradient>
</defs>
</svg>
