<svg width="335" height="134" viewBox="0 0 335 134" fill="none" xmlns="http://www.w3.org/2000/svg">
<rect x="0.5" y="12.5" width="334" height="121" rx="3.5" fill="url(#paint0_linear_6478_150)" stroke="url(#paint1_linear_6478_150)"/>
<path d="M34.1168 63.4302H45.7228V64.4382H34.1168V63.4302ZM33.5988 68.4282H46.1568V69.4362H33.5988V68.4282ZM41.9568 63.9622H43.0348V75.4142H41.9568V63.9622ZM36.9728 63.9482H38.0368V67.8262C38.0368 68.5075 37.9995 69.1935 37.9248 69.8842C37.8502 70.5748 37.6915 71.2515 37.4488 71.9142C37.2155 72.5675 36.8608 73.1975 36.3848 73.8042C35.9088 74.4015 35.2695 74.9522 34.4668 75.4562C34.4015 75.3628 34.3222 75.2695 34.2288 75.1762C34.1355 75.0828 34.0328 74.9895 33.9208 74.8962C33.8182 74.8028 33.7202 74.7282 33.6268 74.6722C34.3828 74.2055 34.9848 73.7015 35.4328 73.1602C35.8808 72.6188 36.2122 72.0542 36.4268 71.4662C36.6508 70.8782 36.7955 70.2762 36.8608 69.6602C36.9355 69.0442 36.9728 68.4328 36.9728 67.8262V63.9482ZM54.2628 73.8182H59.1628V74.7842H54.2628V73.8182ZM53.7308 69.7162H59.7088V75.3582H58.6588V70.6822H54.7388V75.4142H53.7308V69.7162ZM52.7648 67.3782C53.3248 67.3408 53.9688 67.3035 54.6968 67.2662C55.4342 67.2288 56.2135 67.1868 57.0348 67.1402C57.8655 67.0842 58.6962 67.0282 59.5268 66.9722L59.5128 67.9242C58.7195 67.9802 57.9262 68.0408 57.1328 68.1062C56.3395 68.1715 55.5788 68.2275 54.8508 68.2742C54.1322 68.3208 53.4788 68.3675 52.8908 68.4142L52.7648 67.3782ZM57.4128 65.1102L58.2528 64.6902C58.5702 65.0728 58.8782 65.4928 59.1768 65.9502C59.4755 66.3982 59.7462 66.8415 59.9888 67.2802C60.2315 67.7095 60.4088 68.0968 60.5208 68.4422L59.6108 68.9462C59.4988 68.6008 59.3262 68.2042 59.0928 67.7562C58.8595 67.3082 58.5982 66.8555 58.3088 66.3982C58.0195 65.9408 57.7208 65.5115 57.4128 65.1102ZM55.4948 62.5062L56.6568 62.7582C56.4608 63.3182 56.2462 63.9155 56.0128 64.5502C55.7888 65.1848 55.5555 65.7962 55.3128 66.3842C55.0702 66.9722 54.8368 67.4902 54.6128 67.9382L53.7308 67.6862C53.8895 67.3408 54.0528 66.9535 54.2208 66.5242C54.3888 66.0948 54.5475 65.6468 54.6968 65.1802C54.8555 64.7042 55.0048 64.2422 55.1448 63.7942C55.2848 63.3368 55.4015 62.9075 55.4948 62.5062ZM47.4868 65.4182H52.1068V66.3982H47.4868V65.4182ZM49.6148 62.5062L50.6088 62.6322C50.4688 63.3228 50.3102 64.0695 50.1328 64.8722C49.9555 65.6655 49.7688 66.4635 49.5728 67.2662C49.3862 68.0688 49.1995 68.8388 49.0128 69.5762C48.8262 70.3042 48.6535 70.9575 48.4948 71.5362L47.6128 71.0742C47.7715 70.5422 47.9395 69.9262 48.1168 69.2262C48.3035 68.5168 48.4855 67.7702 48.6628 66.9862C48.8402 66.2022 49.0128 65.4275 49.1808 64.6622C49.3488 63.8875 49.4935 63.1688 49.6148 62.5062ZM48.1868 70.6402L48.7608 69.9122C49.2835 70.2015 49.8202 70.5328 50.3708 70.9062C50.9308 71.2795 51.4442 71.6622 51.9108 72.0542C52.3775 72.4462 52.7508 72.8195 53.0308 73.1742L52.4008 74.0142C52.1208 73.6688 51.7475 73.2955 51.2808 72.8942C50.8235 72.4835 50.3242 72.0822 49.7828 71.6902C49.2415 71.2888 48.7095 70.9388 48.1868 70.6402ZM51.7008 65.4182H51.8828L52.0648 65.3762L52.6948 65.5162C52.5735 67.3175 52.3215 68.8668 51.9388 70.1642C51.5562 71.4522 51.0568 72.5255 50.4408 73.3842C49.8248 74.2428 49.0828 74.9288 48.2148 75.4422C48.1402 75.3115 48.0375 75.1622 47.9068 74.9942C47.7855 74.8262 47.6688 74.6908 47.5568 74.5882C48.3408 74.1775 49.0175 73.5755 49.5868 72.7822C50.1655 71.9795 50.6322 70.9855 50.9868 69.8002C51.3508 68.6055 51.5888 67.2148 51.7008 65.6282V65.4182ZM62.5228 63.6962H66.3868V72.7962H62.5228V71.8442H65.4068V64.6482H62.5228V63.6962ZM62.5648 67.7142H65.7708V68.6522H62.5648V67.7142ZM62.0048 63.6962H63.0128V73.9302H62.0048V63.6962ZM67.0308 65.3202H74.3388V66.3702H67.0308V65.3202ZM71.5668 62.5902H72.6308V73.8182C72.6308 74.2008 72.5748 74.4808 72.4628 74.6582C72.3602 74.8448 72.1828 74.9802 71.9308 75.0642C71.6788 75.1575 71.3242 75.2135 70.8668 75.2322C70.4095 75.2508 69.8308 75.2602 69.1308 75.2602C69.1028 75.1108 69.0515 74.9288 68.9768 74.7142C68.9022 74.5088 68.8228 74.3315 68.7388 74.1822C69.1122 74.1915 69.4622 74.2008 69.7888 74.2102C70.1248 74.2195 70.4142 74.2242 70.6568 74.2242C70.8995 74.2148 71.0722 74.2055 71.1748 74.1962C71.3148 74.1962 71.4128 74.1682 71.4688 74.1122C71.5342 74.0562 71.5668 73.9582 71.5668 73.8182V62.5902ZM67.5068 67.9522L68.3748 67.4902C68.6268 67.8448 68.8928 68.2275 69.1728 68.6382C69.4528 69.0488 69.7142 69.4455 69.9568 69.8282C70.2088 70.2108 70.4142 70.5468 70.5728 70.8362L69.6488 71.3682C69.4995 71.0788 69.3035 70.7382 69.0608 70.3462C68.8275 69.9448 68.5708 69.5342 68.2908 69.1142C68.0202 68.6942 67.7588 68.3068 67.5068 67.9522ZM76.1448 65.6702H77.2228V75.4002H76.1448V65.6702ZM76.3548 63.2062L77.1668 62.7022C77.3908 62.8982 77.6148 63.1175 77.8388 63.3602C78.0628 63.5935 78.2728 63.8268 78.4688 64.0602C78.6648 64.2935 78.8142 64.5082 78.9168 64.7042L78.0488 65.2642C77.9368 65.0775 77.7875 64.8628 77.6008 64.6202C77.4235 64.3775 77.2228 64.1348 76.9988 63.8922C76.7842 63.6402 76.5695 63.4115 76.3548 63.2062ZM79.7988 63.3042H87.1628V64.2982H79.7988V63.3042ZM86.5748 63.3042H87.6528V74.1262C87.6528 74.4155 87.6155 74.6348 87.5408 74.7842C87.4755 74.9428 87.3495 75.0688 87.1628 75.1622C86.9762 75.2462 86.7288 75.2928 86.4208 75.3022C86.1222 75.3208 85.7582 75.3302 85.3288 75.3302C85.3008 75.1995 85.2542 75.0362 85.1888 74.8402C85.1328 74.6535 85.0675 74.4948 84.9928 74.3642C85.2915 74.3735 85.5668 74.3782 85.8188 74.3782C86.0708 74.3782 86.2435 74.3782 86.3368 74.3782C86.4302 74.3688 86.4908 74.3455 86.5188 74.3082C86.5562 74.2708 86.5748 74.2102 86.5748 74.1262V63.3042ZM80.1768 70.1502V72.0402H83.5368V70.1502H80.1768ZM80.1768 67.4062V69.2682H83.5368V67.4062H80.1768ZM79.2248 66.5242H84.5308V72.9082H79.2248V66.5242ZM95.8708 66.6642C95.5908 66.6642 95.3435 66.5708 95.1288 66.3842C94.9142 66.1882 94.8068 65.9315 94.8068 65.6142C94.8068 65.2968 94.9142 65.0448 95.1288 64.8582C95.3435 64.6622 95.5908 64.5642 95.8708 64.5642C96.1508 64.5642 96.3982 64.6622 96.6128 64.8582C96.8275 65.0448 96.9348 65.2968 96.9348 65.6142C96.9348 65.9315 96.8275 66.1882 96.6128 66.3842C96.3982 66.5708 96.1508 66.6642 95.8708 66.6642ZM95.8708 73.5242C95.5908 73.5242 95.3435 73.4308 95.1288 73.2442C94.9142 73.0482 94.8068 72.7915 94.8068 72.4742C94.8068 72.1475 94.9142 71.8908 95.1288 71.7042C95.3435 71.5082 95.5908 71.4102 95.8708 71.4102C96.1508 71.4102 96.3982 71.5082 96.6128 71.7042C96.8275 71.8908 96.9348 72.1475 96.9348 72.4742C96.9348 72.7915 96.8275 73.0482 96.6128 73.2442C96.3982 73.4308 96.1508 73.5242 95.8708 73.5242ZM104.004 74.2802V73.599L107.33 69.8604C107.765 69.3699 108.114 68.9506 108.379 68.6026C108.644 68.2546 108.837 67.9331 108.956 67.6381C109.079 67.3431 109.14 67.0365 109.14 66.7184C109.14 66.3306 109.049 65.9925 108.867 65.7042C108.688 65.4125 108.441 65.1855 108.126 65.023C107.811 64.8606 107.456 64.7794 107.062 64.7794C106.644 64.7794 106.278 64.8689 105.963 65.0479C105.652 65.2269 105.41 65.4721 105.237 65.7837C105.065 66.0953 104.979 66.4532 104.979 66.8576H104.089C104.089 66.2941 104.218 65.7953 104.477 65.3611C104.738 64.9236 105.095 64.5806 105.546 64.332C106 64.0834 106.513 63.9591 107.087 63.9591C107.653 63.9591 108.157 64.0818 108.598 64.327C109.039 64.569 109.385 64.8988 109.637 65.3164C109.889 65.734 110.015 66.2013 110.015 66.7184C110.015 67.0929 109.949 67.4558 109.816 67.8071C109.687 68.1585 109.463 68.5496 109.145 68.9804C108.827 69.4113 108.386 69.9383 107.823 70.5614L105.297 73.3803V73.4449H110.333V74.2802H104.004ZM115.711 74.4194C114.995 74.4194 114.384 74.2139 113.877 73.8029C113.373 73.3886 112.985 72.7903 112.713 72.0081C112.445 71.2259 112.311 70.2863 112.311 69.1892C112.311 68.0955 112.445 67.1592 112.713 66.3803C112.985 65.5981 113.375 64.9998 113.882 64.5855C114.392 64.1679 115.002 63.9591 115.711 63.9591C116.42 63.9591 117.029 64.1679 117.536 64.5855C118.046 64.9998 118.436 65.5981 118.704 66.3803C118.976 67.1592 119.112 68.0955 119.112 69.1892C119.112 70.2863 118.976 71.2259 118.704 72.0081C118.436 72.7903 118.048 73.3886 117.541 73.8029C117.037 74.2139 116.427 74.4194 115.711 74.4194ZM115.711 73.5841C116.497 73.5841 117.11 73.2013 117.551 72.4357C117.991 71.6668 118.212 70.5846 118.212 69.1892C118.212 68.2612 118.111 67.4691 117.909 66.8128C117.71 66.1533 117.423 65.6495 117.049 65.3015C116.677 64.9534 116.232 64.7794 115.711 64.7794C114.932 64.7794 114.321 65.1672 113.877 65.9428C113.433 66.715 113.21 67.7972 113.21 69.1892C113.21 70.1173 113.31 70.9094 113.509 71.5657C113.711 72.2219 113.998 72.7224 114.369 73.0671C114.743 73.4118 115.191 73.5841 115.711 73.5841ZM121.135 74.2802V73.599L124.461 69.8604C124.895 69.3699 125.245 68.9506 125.51 68.6026C125.775 68.2546 125.968 67.9331 126.087 67.6381C126.21 67.3431 126.271 67.0365 126.271 66.7184C126.271 66.3306 126.18 65.9925 125.997 65.7042C125.818 65.4125 125.572 65.1855 125.257 65.023C124.942 64.8606 124.587 64.7794 124.193 64.7794C123.775 64.7794 123.409 64.8689 123.094 65.0479C122.782 65.2269 122.541 65.4721 122.368 65.7837C122.196 66.0953 122.11 66.4532 122.11 66.8576H121.22C121.22 66.2941 121.349 65.7953 121.608 65.3611C121.869 64.9236 122.226 64.5806 122.676 64.332C123.13 64.0834 123.644 63.9591 124.218 63.9591C124.784 63.9591 125.288 64.0818 125.729 64.327C126.17 64.569 126.516 64.8988 126.768 65.3164C127.02 65.734 127.146 66.2013 127.146 66.7184C127.146 67.0929 127.08 67.4558 126.947 67.8071C126.818 68.1585 126.594 68.5496 126.276 68.9804C125.958 69.4113 125.517 69.9383 124.953 70.5614L122.428 73.3803V73.4449H127.464V74.2802H121.135ZM132.658 74.4194C132.091 74.4194 131.584 74.305 131.137 74.0763C130.693 73.8443 130.338 73.5261 130.073 73.1218C129.811 72.7174 129.672 72.2551 129.655 71.7347H130.555C130.585 72.2749 130.797 72.7191 131.191 73.0671C131.586 73.4118 132.075 73.5841 132.658 73.5841C133.112 73.5841 133.517 73.4764 133.871 73.261C134.226 73.0422 134.503 72.7439 134.701 72.3661C134.904 71.9849 135.005 71.5557 135.005 71.0784C135.001 70.5813 134.894 70.1438 134.682 69.7659C134.469 69.3848 134.181 69.0865 133.816 68.8711C133.455 68.6556 133.049 68.5479 132.598 68.5479C132.257 68.5446 131.922 68.6009 131.594 68.7169C131.266 68.8329 130.993 68.9821 130.774 69.1644L129.844 69.0451L130.456 64.0983H135.487V64.9336H131.236L130.829 68.3391H130.878C131.104 68.1502 131.377 67.9961 131.699 67.8767C132.023 67.7574 132.366 67.6978 132.728 67.6978C133.328 67.6978 133.866 67.8419 134.343 68.1303C134.824 68.4186 135.204 68.8164 135.482 69.3235C135.764 69.8273 135.905 70.4073 135.905 71.0635C135.905 71.7065 135.764 72.2816 135.482 72.7887C135.204 73.2925 134.819 73.6902 134.329 73.9819C133.841 74.2735 133.285 74.4194 132.658 74.4194ZM141.361 63.6211L138.08 75.8114H137.249L140.531 63.6211H141.361ZM146.022 74.4194C145.306 74.4194 144.694 74.2139 144.187 73.8029C143.683 73.3886 143.296 72.7903 143.024 72.0081C142.755 71.2259 142.621 70.2863 142.621 69.1892C142.621 68.0955 142.755 67.1592 143.024 66.3803C143.296 65.5981 143.685 64.9998 144.192 64.5855C144.703 64.1679 145.312 63.9591 146.022 63.9591C146.731 63.9591 147.339 64.1679 147.846 64.5855C148.357 64.9998 148.746 65.5981 149.015 66.3803C149.286 67.1592 149.422 68.0955 149.422 69.1892C149.422 70.2863 149.286 71.2259 149.015 72.0081C148.746 72.7903 148.358 73.3886 147.851 73.8029C147.348 74.2139 146.738 74.4194 146.022 74.4194ZM146.022 73.5841C146.807 73.5841 147.42 73.2013 147.861 72.4357C148.302 71.6668 148.522 70.5846 148.522 69.1892C148.522 68.2612 148.421 67.4691 148.219 66.8128C148.02 66.1533 147.734 65.6495 147.359 65.3015C146.988 64.9534 146.542 64.7794 146.022 64.7794C145.243 64.7794 144.631 65.1672 144.187 65.9428C143.743 66.715 143.521 67.7972 143.521 69.1892C143.521 70.1173 143.62 70.9094 143.819 71.5657C144.022 72.2219 144.308 72.7224 144.679 73.0671C145.054 73.4118 145.501 73.5841 146.022 73.5841ZM154.593 74.4194C153.943 74.4194 153.365 74.2967 152.858 74.0515C152.351 73.8062 151.953 73.4714 151.664 73.0472C151.376 72.6196 151.232 72.1374 151.232 71.6005C151.232 71.1795 151.32 70.7868 151.495 70.4222C151.671 70.0543 151.913 69.7461 152.221 69.4975C152.53 69.2456 152.876 69.0815 153.26 69.0053V68.9506C152.76 68.8048 152.357 68.5181 152.052 68.0905C151.747 67.6596 151.597 67.1708 151.6 66.6239C151.597 66.1168 151.726 65.6627 151.988 65.2617C152.249 64.8606 152.606 64.5441 153.057 64.3121C153.511 64.0768 154.023 63.9591 154.593 63.9591C155.16 63.9591 155.668 64.0768 156.119 64.3121C156.57 64.5441 156.926 64.8606 157.188 65.2617C157.453 65.6627 157.587 66.1168 157.591 66.6239C157.587 67.1675 157.433 67.6563 157.128 68.0905C156.823 68.5214 156.422 68.8081 155.925 68.9506V69.0053C156.31 69.0782 156.654 69.2406 156.959 69.4925C157.264 69.7444 157.506 70.0543 157.685 70.4222C157.864 70.7868 157.954 71.1795 157.954 71.6005C157.954 72.1374 157.808 72.6196 157.516 73.0472C157.228 73.4714 156.83 73.8062 156.323 74.0515C155.819 74.2967 155.242 74.4194 154.593 74.4194ZM154.593 73.5841C155.077 73.5841 155.501 73.498 155.865 73.3256C156.233 73.1499 156.52 72.9096 156.726 72.6047C156.934 72.2998 157.039 71.9501 157.039 71.5557C157.039 71.148 156.931 70.7851 156.716 70.4669C156.5 70.1454 156.209 69.8919 155.841 69.7063C155.473 69.5174 155.057 69.4229 154.593 69.4229C154.129 69.4229 153.711 69.5174 153.34 69.7063C152.972 69.8919 152.68 70.1454 152.465 70.4669C152.253 70.7851 152.147 71.148 152.147 71.5557C152.147 71.9501 152.248 72.2998 152.45 72.6047C152.656 72.9096 152.942 73.1499 153.31 73.3256C153.681 73.498 154.109 73.5841 154.593 73.5841ZM154.593 68.6275C154.99 68.6275 155.347 68.5429 155.662 68.3739C155.977 68.2049 156.225 67.9745 156.407 67.6829C156.593 67.3879 156.687 67.0531 156.691 66.6786C156.687 66.3074 156.595 65.9793 156.412 65.6942C156.23 65.4059 155.981 65.1821 155.667 65.023C155.355 64.8606 154.997 64.7794 154.593 64.7794C154.188 64.7794 153.827 64.8606 153.509 65.023C153.194 65.1821 152.946 65.4059 152.763 65.6942C152.584 65.9793 152.496 66.3074 152.5 66.6786C152.496 67.0531 152.586 67.3879 152.768 67.6829C152.954 67.9745 153.204 68.2049 153.519 68.3739C153.837 68.5429 154.195 68.6275 154.593 68.6275ZM163.359 63.6211L160.078 75.8114H159.247L162.529 63.6211H163.359ZM164.858 74.2802V73.599L168.184 69.8604C168.618 69.3699 168.968 68.9506 169.233 68.6026C169.498 68.2546 169.69 67.9331 169.81 67.6381C169.932 67.3431 169.994 67.0365 169.994 66.7184C169.994 66.3306 169.902 65.9925 169.72 65.7042C169.541 65.4125 169.294 65.1855 168.979 65.023C168.664 64.8606 168.31 64.7794 167.915 64.7794C167.498 64.7794 167.132 64.8689 166.817 65.0479C166.505 65.2269 166.263 65.4721 166.091 65.7837C165.918 66.0953 165.832 66.4532 165.832 66.8576H164.942C164.942 66.2941 165.072 65.7953 165.33 65.3611C165.592 64.9236 165.948 64.5806 166.399 64.332C166.853 64.0834 167.367 63.9591 167.94 63.9591C168.507 63.9591 169.011 64.0818 169.452 64.327C169.892 64.569 170.239 64.8988 170.491 65.3164C170.743 65.734 170.869 66.2013 170.869 66.7184C170.869 67.0929 170.802 67.4558 170.67 67.8071C170.54 68.1585 170.317 68.5496 169.998 68.9804C169.68 69.4113 169.239 69.9383 168.676 70.5614L166.15 73.3803V73.4449H171.187V74.2802H164.858ZM173.403 74.2802V73.599L176.729 69.8604C177.163 69.3699 177.513 68.9506 177.778 68.6026C178.043 68.2546 178.235 67.9331 178.354 67.6381C178.477 67.3431 178.538 67.0365 178.538 66.7184C178.538 66.3306 178.447 65.9925 178.265 65.7042C178.086 65.4125 177.839 65.1855 177.524 65.023C177.209 64.8606 176.855 64.7794 176.46 64.7794C176.043 64.7794 175.676 64.8689 175.362 65.0479C175.05 65.2269 174.808 65.4721 174.636 65.7837C174.463 66.0953 174.377 66.4532 174.377 66.8576H173.487C173.487 66.2941 173.617 65.7953 173.875 65.3611C174.137 64.9236 174.493 64.5806 174.944 64.332C175.398 64.0834 175.912 63.9591 176.485 63.9591C177.052 63.9591 177.556 64.0818 177.997 64.327C178.437 64.569 178.784 64.8988 179.036 65.3164C179.287 65.734 179.413 66.2013 179.413 66.7184C179.413 67.0929 179.347 67.4558 179.215 67.8071C179.085 68.1585 178.862 68.5496 178.543 68.9804C178.225 69.4113 177.784 69.9383 177.221 70.5614L174.695 73.3803V73.4449H179.732V74.2802H173.403ZM185.885 74.2802V73.599L189.211 69.8604C189.645 69.3699 189.995 68.9506 190.26 68.6026C190.525 68.2546 190.718 67.9331 190.837 67.6381C190.96 67.3431 191.021 67.0365 191.021 66.7184C191.021 66.3306 190.93 65.9925 190.747 65.7042C190.568 65.4125 190.322 65.1855 190.007 65.023C189.692 64.8606 189.337 64.7794 188.943 64.7794C188.525 64.7794 188.159 64.8689 187.844 65.0479C187.532 65.2269 187.291 65.4721 187.118 65.7837C186.946 66.0953 186.86 66.4532 186.86 66.8576H185.97C185.97 66.2941 186.099 65.7953 186.358 65.3611C186.619 64.9236 186.976 64.5806 187.426 64.332C187.88 64.0834 188.394 63.9591 188.968 63.9591C189.534 63.9591 190.038 64.0818 190.479 64.327C190.92 64.569 191.266 64.8988 191.518 65.3164C191.77 65.734 191.896 66.2013 191.896 66.7184C191.896 67.0929 191.83 67.4558 191.697 67.8071C191.568 68.1585 191.344 68.5496 191.026 68.9804C190.708 69.4113 190.267 69.9383 189.703 70.5614L187.178 73.3803V73.4449H192.214V74.2802H185.885ZM197.572 64.0983V74.2802H196.642V65.0728H196.583L194.196 66.6587V65.6942L196.603 64.0983H197.572ZM201.405 72.7539C201.21 72.7539 201.041 72.6843 200.898 72.5451C200.759 72.4025 200.689 72.2335 200.689 72.038C200.689 71.8391 200.759 71.6701 200.898 71.5309C201.041 71.3917 201.21 71.3221 201.405 71.3221C201.604 71.3221 201.773 71.3917 201.912 71.5309C202.052 71.6701 202.121 71.8391 202.121 72.038C202.121 72.1672 202.088 72.2865 202.022 72.3959C201.959 72.5053 201.873 72.5931 201.763 72.6594C201.657 72.7224 201.538 72.7539 201.405 72.7539ZM201.405 67.5884C201.21 67.5884 201.041 67.5188 200.898 67.3796C200.759 67.2371 200.689 67.068 200.689 66.8725C200.689 66.6769 200.759 66.5096 200.898 66.3704C201.041 66.2278 201.21 66.1566 201.405 66.1566C201.604 66.1566 201.773 66.2278 201.912 66.3704C202.052 66.5096 202.121 66.6769 202.121 66.8725C202.121 67.0017 202.088 67.1211 202.022 67.2304C201.959 67.3398 201.873 67.4276 201.763 67.4939C201.657 67.5569 201.538 67.5884 201.405 67.5884ZM207.586 74.4194C206.87 74.4194 206.259 74.2139 205.752 73.8029C205.248 73.3886 204.86 72.7903 204.588 72.0081C204.32 71.2259 204.186 70.2863 204.186 69.1892C204.186 68.0955 204.32 67.1592 204.588 66.3803C204.86 65.5981 205.25 64.9998 205.757 64.5855C206.267 64.1679 206.877 63.9591 207.586 63.9591C208.295 63.9591 208.904 64.1679 209.411 64.5855C209.921 64.9998 210.311 65.5981 210.579 66.3803C210.851 67.1592 210.987 68.0955 210.987 69.1892C210.987 70.2863 210.851 71.2259 210.579 72.0081C210.311 72.7903 209.923 73.3886 209.416 73.8029C208.912 74.2139 208.302 74.4194 207.586 74.4194ZM207.586 73.5841C208.372 73.5841 208.985 73.2013 209.426 72.4357C209.866 71.6668 210.087 70.5846 210.087 69.1892C210.087 68.2612 209.986 67.4691 209.784 66.8128C209.585 66.1533 209.298 65.6495 208.924 65.3015C208.552 64.9534 208.107 64.7794 207.586 64.7794C206.807 64.7794 206.196 65.1672 205.752 65.9428C205.308 66.715 205.085 67.7972 205.085 69.1892C205.085 70.1173 205.185 70.9094 205.384 71.5657C205.586 72.2219 205.873 72.7224 206.244 73.0671C206.618 73.4118 207.066 73.5841 207.586 73.5841ZM216.172 74.4194C215.456 74.4194 214.845 74.2139 214.338 73.8029C213.834 73.3886 213.446 72.7903 213.174 72.0081C212.906 71.2259 212.772 70.2863 212.772 69.1892C212.772 68.0955 212.906 67.1592 213.174 66.3803C213.446 65.5981 213.835 64.9998 214.343 64.5855C214.853 64.1679 215.463 63.9591 216.172 63.9591C216.881 63.9591 217.49 64.1679 217.997 64.5855C218.507 64.9998 218.897 65.5981 219.165 66.3803C219.437 67.1592 219.573 68.0955 219.573 69.1892C219.573 70.2863 219.437 71.2259 219.165 72.0081C218.897 72.7903 218.509 73.3886 218.002 73.8029C217.498 74.2139 216.888 74.4194 216.172 74.4194ZM216.172 73.5841C216.958 73.5841 217.571 73.2013 218.012 72.4357C218.452 71.6668 218.673 70.5846 218.673 69.1892C218.673 68.2612 218.572 67.4691 218.37 66.8128C218.171 66.1533 217.884 65.6495 217.509 65.3015C217.138 64.9534 216.692 64.7794 216.172 64.7794C215.393 64.7794 214.782 65.1672 214.338 65.9428C213.893 66.715 213.671 67.7972 213.671 69.1892C213.671 70.1173 213.771 70.9094 213.97 71.5657C214.172 72.2219 214.459 72.7224 214.83 73.0671C215.204 73.4118 215.652 73.5841 216.172 73.5841ZM222.337 72.7539C222.141 72.7539 221.972 72.6843 221.83 72.5451C221.691 72.4025 221.621 72.2335 221.621 72.038C221.621 71.8391 221.691 71.6701 221.83 71.5309C221.972 71.3917 222.141 71.3221 222.337 71.3221C222.536 71.3221 222.705 71.3917 222.844 71.5309C222.983 71.6701 223.053 71.8391 223.053 72.038C223.053 72.1672 223.02 72.2865 222.953 72.3959C222.89 72.5053 222.804 72.5931 222.695 72.6594C222.589 72.7224 222.469 72.7539 222.337 72.7539ZM222.337 67.5884C222.141 67.5884 221.972 67.5188 221.83 67.3796C221.691 67.2371 221.621 67.068 221.621 66.8725C221.621 66.6769 221.691 66.5096 221.83 66.3704C221.972 66.2278 222.141 66.1566 222.337 66.1566C222.536 66.1566 222.705 66.2278 222.844 66.3704C222.983 66.5096 223.053 66.6769 223.053 66.8725C223.053 67.0017 223.02 67.1211 222.953 67.2304C222.89 67.3398 222.804 67.4276 222.695 67.4939C222.589 67.5569 222.469 67.5884 222.337 67.5884ZM228.518 74.4194C227.802 74.4194 227.19 74.2139 226.683 73.8029C226.18 73.3886 225.792 72.7903 225.52 72.0081C225.252 71.2259 225.117 70.2863 225.117 69.1892C225.117 68.0955 225.252 67.1592 225.52 66.3803C225.792 65.5981 226.181 64.9998 226.688 64.5855C227.199 64.1679 227.809 63.9591 228.518 63.9591C229.227 63.9591 229.835 64.1679 230.342 64.5855C230.853 64.9998 231.242 65.5981 231.511 66.3803C231.783 67.1592 231.918 68.0955 231.918 69.1892C231.918 70.2863 231.783 71.2259 231.511 72.0081C231.242 72.7903 230.854 73.3886 230.347 73.8029C229.844 74.2139 229.234 74.4194 228.518 74.4194ZM228.518 73.5841C229.303 73.5841 229.917 73.2013 230.357 72.4357C230.798 71.6668 231.019 70.5846 231.019 69.1892C231.019 68.2612 230.917 67.4691 230.715 66.8128C230.516 66.1533 230.23 65.6495 229.855 65.3015C229.484 64.9534 229.038 64.7794 228.518 64.7794C227.739 64.7794 227.127 65.1672 226.683 65.9428C226.239 66.715 226.017 67.7972 226.017 69.1892C226.017 70.1173 226.117 70.9094 226.315 71.5657C226.518 72.2219 226.804 72.7224 227.176 73.0671C227.55 73.4118 227.997 73.5841 228.518 73.5841ZM237.104 74.4194C236.388 74.4194 235.776 74.2139 235.269 73.8029C234.765 73.3886 234.378 72.7903 234.106 72.0081C233.837 71.2259 233.703 70.2863 233.703 69.1892C233.703 68.0955 233.837 67.1592 234.106 66.3803C234.378 65.5981 234.767 64.9998 235.274 64.5855C235.785 64.1679 236.394 63.9591 237.104 63.9591C237.813 63.9591 238.421 64.1679 238.928 64.5855C239.439 64.9998 239.828 65.5981 240.097 66.3803C240.368 67.1592 240.504 68.0955 240.504 69.1892C240.504 70.2863 240.368 71.2259 240.097 72.0081C239.828 72.7903 239.44 73.3886 238.933 73.8029C238.43 74.2139 237.82 74.4194 237.104 74.4194ZM237.104 73.5841C237.889 73.5841 238.502 73.2013 238.943 72.4357C239.384 71.6668 239.604 70.5846 239.604 69.1892C239.604 68.2612 239.503 67.4691 239.301 66.8128C239.102 66.1533 238.816 65.6495 238.441 65.3015C238.07 64.9534 237.624 64.7794 237.104 64.7794C236.325 64.7794 235.713 65.1672 235.269 65.9428C234.825 66.715 234.603 67.7972 234.603 69.1892C234.603 70.1173 234.702 70.9094 234.901 71.5657C235.104 72.2219 235.39 72.7224 235.761 73.0671C236.136 73.4118 236.583 73.5841 237.104 73.5841ZM246.868 69.1892C246.868 67.9961 247.019 66.8692 247.32 65.8086C247.622 64.748 248.055 63.7536 248.618 62.8256H249.423C249.181 63.2167 248.959 63.6592 248.757 64.153C248.558 64.6469 248.386 65.1739 248.24 65.734C248.094 66.2941 247.982 66.8675 247.902 67.4542C247.823 68.0375 247.783 68.6159 247.783 69.1892C247.783 69.9549 247.852 70.7271 247.992 71.506C248.131 72.2849 248.323 73.024 248.568 73.7233C248.817 74.4227 249.102 75.0325 249.423 75.5529H248.618C248.055 74.6215 247.622 73.6256 247.32 72.565C247.019 71.5043 246.868 70.3791 246.868 69.1892ZM258.324 64.0983H259.253V70.8398C259.253 71.5325 259.091 72.1523 258.766 72.6992C258.441 73.2427 257.989 73.672 257.409 73.9868C256.832 74.2984 256.161 74.4542 255.395 74.4542C254.633 74.4542 253.962 74.2967 253.382 73.9819C252.802 73.667 252.35 73.2378 252.025 72.6942C251.7 72.1507 251.538 71.5325 251.538 70.8398V64.0983H252.467V70.7752C252.467 71.3154 252.588 71.7977 252.83 72.2219C253.072 72.6428 253.412 72.9743 253.849 73.2162C254.29 73.4582 254.806 73.5792 255.395 73.5792C255.985 73.5792 256.501 73.4582 256.942 73.2162C257.382 72.9743 257.722 72.6428 257.961 72.2219C258.203 71.7977 258.324 71.3154 258.324 70.7752V64.0983ZM261.339 64.9336V64.0983H268.722V64.9336H265.495V74.2802H264.566V64.9336H261.339ZM278.365 67.2802H277.431C277.361 66.9321 277.235 66.6106 277.053 66.3157C276.874 66.0174 276.649 65.7572 276.377 65.5351C276.105 65.3131 275.797 65.1407 275.452 65.0181C275.107 64.8954 274.735 64.8341 274.334 64.8341C273.691 64.8341 273.104 65.0015 272.574 65.3363C272.047 65.671 271.624 66.1632 271.306 66.8128C270.991 67.4591 270.834 68.2513 270.834 69.1892C270.834 70.1338 270.991 70.9293 271.306 71.5756C271.624 72.2219 272.047 72.7124 272.574 73.0472C273.104 73.3786 273.691 73.5444 274.334 73.5444C274.735 73.5444 275.107 73.483 275.452 73.3604C275.797 73.2378 276.105 73.0671 276.377 72.8483C276.649 72.6263 276.874 72.3661 277.053 72.0678C277.235 71.7695 277.361 71.4463 277.431 71.0983H278.365C278.283 71.5657 278.127 72.0015 277.898 72.4059C277.673 72.8069 277.384 73.1582 277.033 73.4598C276.685 73.7614 276.284 73.9968 275.83 74.1658C275.376 74.3348 274.877 74.4194 274.334 74.4194C273.478 74.4194 272.719 74.2056 272.057 73.778C271.394 73.3471 270.873 72.7406 270.495 71.9584C270.121 71.1762 269.934 70.2532 269.934 69.1892C269.934 68.1253 270.121 67.2023 270.495 66.4201C270.873 65.6379 271.394 65.033 272.057 64.6054C272.719 64.1746 273.478 63.9591 274.334 63.9591C274.877 63.9591 275.376 64.0436 275.83 64.2127C276.284 64.3784 276.685 64.6137 277.033 64.9186C277.384 65.2203 277.673 65.5716 277.898 65.9726C278.127 66.3737 278.283 66.8095 278.365 67.2802ZM283.333 72.3512V66.0522H284.183V72.3512H283.333ZM280.609 69.6267V68.7766H286.908V69.6267H280.609ZM292.597 74.4194C291.947 74.4194 291.369 74.2967 290.862 74.0515C290.354 73.8062 289.957 73.4714 289.668 73.0472C289.38 72.6196 289.236 72.1374 289.236 71.6005C289.236 71.1795 289.324 70.7868 289.499 70.4222C289.675 70.0543 289.917 69.7461 290.225 69.4975C290.533 69.2456 290.88 69.0815 291.264 69.0053V68.9506C290.764 68.8048 290.361 68.5181 290.056 68.0905C289.751 67.6596 289.6 67.1708 289.604 66.6239C289.6 66.1168 289.73 65.6627 289.992 65.2617C290.253 64.8606 290.61 64.5441 291.06 64.3121C291.515 64.0768 292.027 63.9591 292.597 63.9591C293.163 63.9591 293.672 64.0768 294.123 64.3121C294.574 64.5441 294.93 64.8606 295.192 65.2617C295.457 65.6627 295.591 66.1168 295.595 66.6239C295.591 67.1675 295.437 67.6563 295.132 68.0905C294.827 68.5214 294.426 68.8081 293.929 68.9506V69.0053C294.314 69.0782 294.658 69.2406 294.963 69.4925C295.268 69.7444 295.51 70.0543 295.689 70.4222C295.868 70.7868 295.957 71.1795 295.957 71.6005C295.957 72.1374 295.812 72.6196 295.52 73.0472C295.232 73.4714 294.834 73.8062 294.327 74.0515C293.823 74.2967 293.246 74.4194 292.597 74.4194ZM292.597 73.5841C293.081 73.5841 293.505 73.498 293.869 73.3256C294.237 73.1499 294.524 72.9096 294.729 72.6047C294.938 72.2998 295.043 71.9501 295.043 71.5557C295.043 71.148 294.935 70.7851 294.72 70.4669C294.504 70.1454 294.212 69.8919 293.845 69.7063C293.477 69.5174 293.061 69.4229 292.597 69.4229C292.133 69.4229 291.715 69.5174 291.344 69.7063C290.976 69.8919 290.684 70.1454 290.469 70.4669C290.257 70.7851 290.151 71.148 290.151 71.5557C290.151 71.9501 290.252 72.2998 290.454 72.6047C290.659 72.9096 290.946 73.1499 291.314 73.3256C291.685 73.498 292.113 73.5841 292.597 73.5841ZM292.597 68.6275C292.994 68.6275 293.351 68.5429 293.666 68.3739C293.98 68.2049 294.229 67.9745 294.411 67.6829C294.597 67.3879 294.691 67.0531 294.695 66.6786C294.691 66.3074 294.599 65.9793 294.416 65.6942C294.234 65.4059 293.985 65.1821 293.671 65.023C293.359 64.8606 293.001 64.7794 292.597 64.7794C292.192 64.7794 291.831 64.8606 291.513 65.023C291.198 65.1821 290.949 65.4059 290.767 65.6942C290.588 65.9793 290.5 66.3074 290.504 66.6786C290.5 67.0531 290.59 67.3879 290.772 67.6829C290.958 67.9745 291.208 68.2049 291.523 68.3739C291.841 68.5429 292.199 68.6275 292.597 68.6275ZM300.204 69.1892C300.204 70.3824 300.054 71.5093 299.752 72.5699C299.45 73.6305 299.018 74.6248 298.454 75.5529H297.649C297.891 75.1618 298.111 74.7193 298.31 74.2255C298.512 73.7316 298.686 73.2046 298.832 72.6445C298.978 72.0844 299.091 71.511 299.17 70.9243C299.25 70.3377 299.29 69.7593 299.29 69.1892C299.29 68.4236 299.22 67.6514 299.081 66.8725C298.942 66.0936 298.748 65.3545 298.499 64.6552C298.254 63.9558 297.971 63.346 297.649 62.8256H298.454C299.018 63.7569 299.45 64.7529 299.752 65.8135C300.054 66.8741 300.204 67.9994 300.204 69.1892ZM33.7528 101.704C33.7435 101.629 33.7155 101.531 33.6688 101.41C33.6222 101.279 33.5755 101.149 33.5288 101.018C33.4915 100.887 33.4495 100.775 33.4028 100.682C33.5615 100.654 33.7295 100.561 33.9068 100.402C34.0842 100.234 34.2848 100.024 34.5088 99.7722C34.6302 99.6508 34.8075 99.4455 35.0408 99.1562C35.2835 98.8668 35.5495 98.5262 35.8388 98.1342C36.1282 97.7422 36.4222 97.3175 36.7208 96.8602C37.0195 96.4028 37.2948 95.9408 37.5468 95.4742L38.5128 96.0622C37.9155 96.9955 37.2715 97.9055 36.5808 98.7922C35.8902 99.6788 35.1948 100.458 34.4948 101.13V101.158C34.4948 101.158 34.4575 101.177 34.3828 101.214C34.3082 101.242 34.2195 101.284 34.1168 101.34C34.0235 101.396 33.9395 101.457 33.8648 101.522C33.7902 101.587 33.7528 101.648 33.7528 101.704ZM33.7528 101.704L33.7108 100.822L34.2568 100.458L38.4428 99.7722C38.4335 99.9122 38.4335 100.075 38.4428 100.262C38.4615 100.439 38.4802 100.584 38.4988 100.696C37.5188 100.873 36.7302 101.018 36.1328 101.13C35.5448 101.242 35.0922 101.331 34.7748 101.396C34.4668 101.461 34.2382 101.517 34.0888 101.564C33.9488 101.611 33.8368 101.657 33.7528 101.704ZM33.6548 98.3022C33.6362 98.2275 33.6035 98.1248 33.5568 97.9942C33.5195 97.8635 33.4775 97.7328 33.4308 97.6022C33.3842 97.4622 33.3375 97.3455 33.2908 97.2522C33.4215 97.2242 33.5522 97.1355 33.6828 96.9862C33.8135 96.8368 33.9488 96.6502 34.0888 96.4262C34.1728 96.3142 34.2895 96.1322 34.4388 95.8802C34.5882 95.6188 34.7562 95.3108 34.9428 94.9562C35.1295 94.6015 35.3115 94.2235 35.4888 93.8222C35.6755 93.4208 35.8388 93.0148 35.9788 92.6042L37.0568 93.0522C36.8142 93.6122 36.5435 94.1722 36.2448 94.7322C35.9555 95.2828 35.6522 95.8148 35.3348 96.3282C35.0175 96.8322 34.6955 97.2895 34.3688 97.7002V97.7282C34.3688 97.7282 34.3315 97.7468 34.2568 97.7842C34.1915 97.8215 34.1075 97.8728 34.0048 97.9382C33.9115 97.9942 33.8275 98.0548 33.7528 98.1202C33.6875 98.1855 33.6548 98.2462 33.6548 98.3022ZM33.6548 98.3022L33.6408 97.5182L34.1728 97.1822L37.1268 96.9302C37.0988 97.0608 37.0755 97.2102 37.0568 97.3782C37.0382 97.5462 37.0288 97.6862 37.0288 97.7982C36.3662 97.8728 35.8248 97.9382 35.4048 97.9942C34.9848 98.0408 34.6582 98.0828 34.4248 98.1202C34.2008 98.1575 34.0328 98.1902 33.9208 98.2182C33.8088 98.2462 33.7202 98.2742 33.6548 98.3022ZM33.3608 103.538C33.7995 103.463 34.2942 103.375 34.8448 103.272C35.4048 103.16 35.9928 103.043 36.6088 102.922C37.2342 102.791 37.8548 102.665 38.4708 102.544L38.5548 103.51C37.6775 103.715 36.7955 103.911 35.9088 104.098C35.0315 104.285 34.2428 104.457 33.5428 104.616L33.3608 103.538ZM38.5828 94.3962H46.0728V95.4042H38.5828V94.3962ZM38.9328 97.5882H45.8348V98.5962H38.9328V97.5882ZM39.8708 103.832H44.9388V104.784H39.8708V103.832ZM41.8168 92.5062H42.8948V98.1062H41.8168V92.5062ZM39.2968 100.024H45.4848V105.33H44.4348V100.976H40.3188V105.386H39.2968V100.024ZM47.9348 94.0042H59.8488V94.9982H47.9348V94.0042ZM53.3108 92.5342H54.3888V105.4H53.3108V92.5342ZM53.1988 99.9962L54.0808 100.402C53.7448 100.878 53.3482 101.34 52.8908 101.788C52.4428 102.236 51.9575 102.661 51.4348 103.062C50.9122 103.454 50.3708 103.809 49.8108 104.126C49.2508 104.443 48.7002 104.714 48.1588 104.938C48.1122 104.845 48.0422 104.742 47.9488 104.63C47.8648 104.527 47.7762 104.425 47.6828 104.322C47.5988 104.219 47.5148 104.131 47.4308 104.056C47.9722 103.869 48.5182 103.636 49.0688 103.356C49.6288 103.067 50.1608 102.745 50.6648 102.39C51.1782 102.026 51.6495 101.643 52.0788 101.242C52.5175 100.831 52.8908 100.416 53.1988 99.9962ZM54.5708 100.024C54.9815 100.584 55.4995 101.125 56.1248 101.648C56.7502 102.171 57.4315 102.642 58.1688 103.062C58.9155 103.473 59.6575 103.799 60.3948 104.042C60.3202 104.117 60.2315 104.205 60.1288 104.308C60.0355 104.411 59.9468 104.518 59.8628 104.63C59.7788 104.751 59.7042 104.859 59.6388 104.952C58.9015 104.663 58.1595 104.285 57.4128 103.818C56.6755 103.351 55.9848 102.829 55.3408 102.25C54.6968 101.662 54.1508 101.051 53.7028 100.416L54.5708 100.024ZM49.9088 97.4622V99.6182H57.8188V97.4622H49.9088ZM48.9008 96.5242H58.8968V100.556H48.9008V96.5242ZM62.5228 93.6962H66.3868V102.796H62.5228V101.844H65.4068V94.6482H62.5228V93.6962ZM62.5648 97.7142H65.7708V98.6522H62.5648V97.7142ZM62.0048 93.6962H63.0128V103.93H62.0048V93.6962ZM67.0308 95.3202H74.3388V96.3702H67.0308V95.3202ZM71.5668 92.5902H72.6308V103.818C72.6308 104.201 72.5748 104.481 72.4628 104.658C72.3602 104.845 72.1828 104.98 71.9308 105.064C71.6788 105.157 71.3242 105.213 70.8668 105.232C70.4095 105.251 69.8308 105.26 69.1308 105.26C69.1028 105.111 69.0515 104.929 68.9768 104.714C68.9022 104.509 68.8228 104.331 68.7388 104.182C69.1122 104.191 69.4622 104.201 69.7888 104.21C70.1248 104.219 70.4142 104.224 70.6568 104.224C70.8995 104.215 71.0722 104.205 71.1748 104.196C71.3148 104.196 71.4128 104.168 71.4688 104.112C71.5342 104.056 71.5668 103.958 71.5668 103.818V92.5902ZM67.5068 97.9522L68.3748 97.4902C68.6268 97.8448 68.8928 98.2275 69.1728 98.6382C69.4528 99.0488 69.7142 99.4455 69.9568 99.8282C70.2088 100.211 70.4142 100.547 70.5728 100.836L69.6488 101.368C69.4995 101.079 69.3035 100.738 69.0608 100.346C68.8275 99.9448 68.5708 99.5342 68.2908 99.1142C68.0202 98.6942 67.7588 98.3068 67.5068 97.9522ZM76.1448 95.6702H77.2228V105.4H76.1448V95.6702ZM76.3548 93.2062L77.1668 92.7022C77.3908 92.8982 77.6148 93.1175 77.8388 93.3602C78.0628 93.5935 78.2728 93.8268 78.4688 94.0602C78.6648 94.2935 78.8142 94.5082 78.9168 94.7042L78.0488 95.2642C77.9368 95.0775 77.7875 94.8628 77.6008 94.6202C77.4235 94.3775 77.2228 94.1348 76.9988 93.8922C76.7842 93.6402 76.5695 93.4115 76.3548 93.2062ZM79.7988 93.3042H87.1628V94.2982H79.7988V93.3042ZM86.5748 93.3042H87.6528V104.126C87.6528 104.415 87.6155 104.635 87.5408 104.784C87.4755 104.943 87.3495 105.069 87.1628 105.162C86.9762 105.246 86.7288 105.293 86.4208 105.302C86.1222 105.321 85.7582 105.33 85.3288 105.33C85.3008 105.199 85.2542 105.036 85.1888 104.84C85.1328 104.653 85.0675 104.495 84.9928 104.364C85.2915 104.373 85.5668 104.378 85.8188 104.378C86.0708 104.378 86.2435 104.378 86.3368 104.378C86.4302 104.369 86.4908 104.345 86.5188 104.308C86.5562 104.271 86.5748 104.21 86.5748 104.126V93.3042ZM80.1768 100.15V102.04H83.5368V100.15H80.1768ZM80.1768 97.4062V99.2682H83.5368V97.4062H80.1768ZM79.2248 96.5242H84.5308V102.908H79.2248V96.5242ZM95.8708 96.6642C95.5908 96.6642 95.3435 96.5708 95.1288 96.3842C94.9142 96.1882 94.8068 95.9315 94.8068 95.6142C94.8068 95.2968 94.9142 95.0448 95.1288 94.8582C95.3435 94.6622 95.5908 94.5642 95.8708 94.5642C96.1508 94.5642 96.3982 94.6622 96.6128 94.8582C96.8275 95.0448 96.9348 95.2968 96.9348 95.6142C96.9348 95.9315 96.8275 96.1882 96.6128 96.3842C96.3982 96.5708 96.1508 96.6642 95.8708 96.6642ZM95.8708 103.524C95.5908 103.524 95.3435 103.431 95.1288 103.244C94.9142 103.048 94.8068 102.791 94.8068 102.474C94.8068 102.147 94.9142 101.891 95.1288 101.704C95.3435 101.508 95.5908 101.41 95.8708 101.41C96.1508 101.41 96.3982 101.508 96.6128 101.704C96.8275 101.891 96.9348 102.147 96.9348 102.474C96.9348 102.791 96.8275 103.048 96.6128 103.244C96.3982 103.431 96.1508 103.524 95.8708 103.524ZM104.004 104.28V103.599L107.33 99.8604C107.765 99.3699 108.114 98.9506 108.379 98.6026C108.644 98.2546 108.837 97.9331 108.956 97.6381C109.079 97.3431 109.14 97.0365 109.14 96.7184C109.14 96.3306 109.049 95.9925 108.867 95.7042C108.688 95.4125 108.441 95.1855 108.126 95.023C107.811 94.8606 107.456 94.7794 107.062 94.7794C106.644 94.7794 106.278 94.8689 105.963 95.0479C105.652 95.2269 105.41 95.4721 105.237 95.7837C105.065 96.0953 104.979 96.4532 104.979 96.8576H104.089C104.089 96.2941 104.218 95.7953 104.477 95.3611C104.738 94.9236 105.095 94.5806 105.546 94.332C106 94.0834 106.513 93.9591 107.087 93.9591C107.653 93.9591 108.157 94.0818 108.598 94.327C109.039 94.569 109.385 94.8988 109.637 95.3164C109.889 95.734 110.015 96.2013 110.015 96.7184C110.015 97.0929 109.949 97.4558 109.816 97.8071C109.687 98.1585 109.463 98.5496 109.145 98.9804C108.827 99.4113 108.386 99.9383 107.823 100.561L105.297 103.38V103.445H110.333V104.28H104.004ZM115.711 104.419C114.995 104.419 114.384 104.214 113.877 103.803C113.373 103.389 112.985 102.79 112.713 102.008C112.445 101.226 112.311 100.286 112.311 99.1892C112.311 98.0955 112.445 97.1592 112.713 96.3803C112.985 95.5981 113.375 94.9998 113.882 94.5855C114.392 94.1679 115.002 93.9591 115.711 93.9591C116.42 93.9591 117.029 94.1679 117.536 94.5855C118.046 94.9998 118.436 95.5981 118.704 96.3803C118.976 97.1592 119.112 98.0955 119.112 99.1892C119.112 100.286 118.976 101.226 118.704 102.008C118.436 102.79 118.048 103.389 117.541 103.803C117.037 104.214 116.427 104.419 115.711 104.419ZM115.711 103.584C116.497 103.584 117.11 103.201 117.551 102.436C117.991 101.667 118.212 100.585 118.212 99.1892C118.212 98.2612 118.111 97.4691 117.909 96.8128C117.71 96.1533 117.423 95.6495 117.049 95.3015C116.677 94.9534 116.232 94.7794 115.711 94.7794C114.932 94.7794 114.321 95.1672 113.877 95.9428C113.433 96.715 113.21 97.7972 113.21 99.1892C113.21 100.117 113.31 100.909 113.509 101.566C113.711 102.222 113.998 102.722 114.369 103.067C114.743 103.412 115.191 103.584 115.711 103.584ZM121.135 104.28V103.599L124.461 99.8604C124.895 99.3699 125.245 98.9506 125.51 98.6026C125.775 98.2546 125.968 97.9331 126.087 97.6381C126.21 97.3431 126.271 97.0365 126.271 96.7184C126.271 96.3306 126.18 95.9925 125.997 95.7042C125.818 95.4125 125.572 95.1855 125.257 95.023C124.942 94.8606 124.587 94.7794 124.193 94.7794C123.775 94.7794 123.409 94.8689 123.094 95.0479C122.782 95.2269 122.541 95.4721 122.368 95.7837C122.196 96.0953 122.11 96.4532 122.11 96.8576H121.22C121.22 96.2941 121.349 95.7953 121.608 95.3611C121.869 94.9236 122.226 94.5806 122.676 94.332C123.13 94.0834 123.644 93.9591 124.218 93.9591C124.784 93.9591 125.288 94.0818 125.729 94.327C126.17 94.569 126.516 94.8988 126.768 95.3164C127.02 95.734 127.146 96.2013 127.146 96.7184C127.146 97.0929 127.08 97.4558 126.947 97.8071C126.818 98.1585 126.594 98.5496 126.276 98.9804C125.958 99.4113 125.517 99.9383 124.953 100.561L122.428 103.38V103.445H127.464V104.28H121.135ZM132.658 104.419C132.091 104.419 131.584 104.305 131.137 104.076C130.693 103.844 130.338 103.526 130.073 103.122C129.811 102.717 129.672 102.255 129.655 101.735H130.555C130.585 102.275 130.797 102.719 131.191 103.067C131.586 103.412 132.075 103.584 132.658 103.584C133.112 103.584 133.517 103.476 133.871 103.261C134.226 103.042 134.503 102.744 134.701 102.366C134.904 101.985 135.005 101.556 135.005 101.078C135.001 100.581 134.894 100.144 134.682 99.7659C134.469 99.3848 134.181 99.0865 133.816 98.8711C133.455 98.6556 133.049 98.5479 132.598 98.5479C132.257 98.5446 131.922 98.6009 131.594 98.7169C131.266 98.8329 130.993 98.9821 130.774 99.1644L129.844 99.0451L130.456 94.0983H135.487V94.9336H131.236L130.829 98.3391H130.878C131.104 98.1502 131.377 97.9961 131.699 97.8767C132.023 97.7574 132.366 97.6978 132.728 97.6978C133.328 97.6978 133.866 97.8419 134.343 98.1303C134.824 98.4186 135.204 98.8164 135.482 99.3235C135.764 99.8273 135.905 100.407 135.905 101.064C135.905 101.707 135.764 102.282 135.482 102.789C135.204 103.292 134.819 103.69 134.329 103.982C133.841 104.274 133.285 104.419 132.658 104.419ZM141.361 93.6211L138.08 105.811H137.249L140.531 93.6211H141.361ZM146.022 104.419C145.306 104.419 144.694 104.214 144.187 103.803C143.683 103.389 143.296 102.79 143.024 102.008C142.755 101.226 142.621 100.286 142.621 99.1892C142.621 98.0955 142.755 97.1592 143.024 96.3803C143.296 95.5981 143.685 94.9998 144.192 94.5855C144.703 94.1679 145.312 93.9591 146.022 93.9591C146.731 93.9591 147.339 94.1679 147.846 94.5855C148.357 94.9998 148.746 95.5981 149.015 96.3803C149.286 97.1592 149.422 98.0955 149.422 99.1892C149.422 100.286 149.286 101.226 149.015 102.008C148.746 102.79 148.358 103.389 147.851 103.803C147.348 104.214 146.738 104.419 146.022 104.419ZM146.022 103.584C146.807 103.584 147.42 103.201 147.861 102.436C148.302 101.667 148.522 100.585 148.522 99.1892C148.522 98.2612 148.421 97.4691 148.219 96.8128C148.02 96.1533 147.734 95.6495 147.359 95.3015C146.988 94.9534 146.542 94.7794 146.022 94.7794C145.243 94.7794 144.631 95.1672 144.187 95.9428C143.743 96.715 143.521 97.7972 143.521 99.1892C143.521 100.117 143.62 100.909 143.819 101.566C144.022 102.222 144.308 102.722 144.679 103.067C145.054 103.412 145.501 103.584 146.022 103.584ZM154.508 93.9591C154.932 93.9624 155.343 94.0486 155.741 94.2177C156.142 94.3834 156.504 94.6518 156.825 95.023C157.147 95.3909 157.402 95.8815 157.591 96.4946C157.78 97.1045 157.874 97.8552 157.874 98.7468C157.874 99.5787 157.801 100.341 157.655 101.034C157.509 101.726 157.291 102.326 156.999 102.833C156.711 103.337 156.346 103.728 155.905 104.007C155.468 104.282 154.956 104.419 154.369 104.419C153.822 104.419 153.337 104.305 152.912 104.076C152.491 103.848 152.15 103.531 151.888 103.127C151.626 102.719 151.464 102.248 151.401 101.715H152.316C152.405 102.258 152.624 102.706 152.972 103.057C153.323 103.408 153.789 103.584 154.369 103.584C155.201 103.584 155.847 103.196 156.308 102.421C156.769 101.645 156.999 100.542 156.999 99.1097H156.934C156.775 99.408 156.566 99.6682 156.308 99.8902C156.053 100.112 155.761 100.286 155.433 100.412C155.105 100.535 154.758 100.596 154.394 100.596C153.827 100.596 153.308 100.454 152.838 100.169C152.367 99.8803 151.991 99.4875 151.709 98.9904C151.428 98.4899 151.287 97.9198 151.287 97.2802C151.287 96.6769 151.419 96.1234 151.684 95.6196C151.953 95.1125 152.327 94.7082 152.808 94.4066C153.292 94.1016 153.859 93.9525 154.508 93.9591ZM154.508 94.7944C154.067 94.7944 153.671 94.907 153.32 95.1324C152.972 95.3545 152.695 95.6544 152.49 96.0323C152.288 96.4068 152.187 96.8228 152.187 97.2802C152.187 97.7409 152.288 98.1601 152.49 98.538C152.695 98.9125 152.972 99.2108 153.32 99.4329C153.671 99.6516 154.067 99.761 154.508 99.761C154.846 99.761 155.161 99.693 155.453 99.5571C155.745 99.4179 155.996 99.229 156.209 98.9904C156.424 98.7517 156.586 98.4816 156.696 98.18C156.808 97.8751 156.853 97.5552 156.83 97.2205C156.79 96.7565 156.666 96.3422 156.457 95.9776C156.252 95.6097 155.98 95.3213 155.642 95.1125C155.307 94.9004 154.929 94.7944 154.508 94.7944ZM163.318 93.6211L160.037 105.811H159.206L162.488 93.6211H163.318ZM167.979 104.419C167.263 104.419 166.651 104.214 166.144 103.803C165.64 103.389 165.253 102.79 164.981 102.008C164.712 101.226 164.578 100.286 164.578 99.1892C164.578 98.0955 164.712 97.1592 164.981 96.3803C165.253 95.5981 165.642 94.9998 166.149 94.5855C166.66 94.1679 167.269 93.9591 167.979 93.9591C168.688 93.9591 169.296 94.1679 169.803 94.5855C170.314 94.9998 170.703 95.5981 170.972 96.3803C171.243 97.1592 171.379 98.0955 171.379 99.1892C171.379 100.286 171.243 101.226 170.972 102.008C170.703 102.79 170.315 103.389 169.808 103.803C169.305 104.214 168.695 104.419 167.979 104.419ZM167.979 103.584C168.764 103.584 169.377 103.201 169.818 102.436C170.259 101.667 170.479 100.585 170.479 99.1892C170.479 98.2612 170.378 97.4691 170.176 96.8128C169.977 96.1533 169.691 95.6495 169.316 95.3015C168.945 94.9534 168.499 94.7794 167.979 94.7794C167.2 94.7794 166.588 95.1672 166.144 95.9428C165.7 96.715 165.478 97.7972 165.478 99.1892C165.478 100.117 165.577 100.909 165.776 101.566C165.979 102.222 166.265 102.722 166.636 103.067C167.011 103.412 167.458 103.584 167.979 103.584ZM176.381 104.419C175.814 104.419 175.307 104.305 174.859 104.076C174.415 103.844 174.061 103.526 173.796 103.122C173.534 102.717 173.394 102.255 173.378 101.735H174.278C174.308 102.275 174.52 102.719 174.914 103.067C175.309 103.412 175.797 103.584 176.381 103.584C176.835 103.584 177.239 103.476 177.594 103.261C177.948 103.042 178.225 102.744 178.424 102.366C178.626 101.985 178.727 101.556 178.727 101.078C178.724 100.581 178.616 100.144 178.404 99.7659C178.192 99.3848 177.904 99.0865 177.539 98.8711C177.178 98.6556 176.772 98.5479 176.321 98.5479C175.98 98.5446 175.645 98.6009 175.317 98.7169C174.989 98.8329 174.715 98.9821 174.497 99.1644L173.567 99.0451L174.178 94.0983H179.21V94.9336H174.959L174.551 98.3391H174.601C174.826 98.1502 175.1 97.9961 175.421 97.8767C175.746 97.7574 176.089 97.6978 176.45 97.6978C177.05 97.6978 177.589 97.8419 178.066 98.1303C178.547 98.4186 178.926 98.8164 179.205 99.3235C179.486 99.8273 179.627 100.407 179.627 101.064C179.627 101.707 179.486 102.282 179.205 102.789C178.926 103.292 178.542 103.69 178.051 103.982C177.564 104.274 177.007 104.419 176.381 104.419ZM185.68 104.28V103.599L189.006 99.8604C189.44 99.3699 189.79 98.9506 190.055 98.6026C190.32 98.2546 190.513 97.9331 190.632 97.6381C190.754 97.3431 190.816 97.0365 190.816 96.7184C190.816 96.3306 190.725 95.9925 190.542 95.7042C190.363 95.4125 190.116 95.1855 189.802 95.023C189.487 94.8606 189.132 94.7794 188.738 94.7794C188.32 94.7794 187.954 94.8689 187.639 95.0479C187.327 95.2269 187.085 95.4721 186.913 95.7837C186.741 96.0953 186.655 96.4532 186.655 96.8576H185.765C185.765 96.2941 185.894 95.7953 186.152 95.3611C186.414 94.9236 186.771 94.5806 187.221 94.332C187.675 94.0834 188.189 93.9591 188.763 93.9591C189.329 93.9591 189.833 94.0818 190.274 94.327C190.715 94.569 191.061 94.8988 191.313 95.3164C191.565 95.734 191.691 96.2013 191.691 96.7184C191.691 97.0929 191.624 97.4558 191.492 97.8071C191.363 98.1585 191.139 98.5496 190.821 98.9804C190.503 99.4113 190.062 99.9383 189.498 100.561L186.973 103.38V103.445H192.009V104.28H185.68ZM197.531 104.419C196.905 104.419 196.345 104.307 195.851 104.081C195.357 103.853 194.966 103.536 194.677 103.132C194.389 102.727 194.237 102.262 194.22 101.735H195.16C195.176 102.106 195.291 102.431 195.503 102.709C195.715 102.984 195.997 103.2 196.348 103.355C196.699 103.508 197.09 103.584 197.521 103.584C197.992 103.584 198.406 103.496 198.764 103.321C199.125 103.145 199.407 102.905 199.609 102.6C199.815 102.292 199.918 101.944 199.918 101.556C199.918 101.145 199.813 100.782 199.604 100.467C199.395 100.152 199.096 99.9068 198.704 99.7311C198.317 99.5555 197.853 99.4677 197.312 99.4677H196.716V98.6324H197.312C197.753 98.6324 198.143 98.5529 198.481 98.3938C198.822 98.2314 199.091 98.0043 199.286 97.7127C199.482 97.421 199.579 97.078 199.579 96.6836C199.579 96.309 199.495 95.9793 199.326 95.6942C199.157 95.4092 198.918 95.1855 198.61 95.023C198.305 94.8606 197.949 94.7794 197.541 94.7794C197.147 94.7794 196.785 94.8557 196.457 95.0081C196.129 95.1606 195.864 95.376 195.662 95.6544C195.463 95.9329 195.357 96.2626 195.344 96.6438H194.444C194.457 96.1135 194.603 95.6478 194.881 95.2468C195.163 94.8424 195.536 94.5275 196 94.3022C196.467 94.0735 196.984 93.9591 197.551 93.9591C198.151 93.9591 198.67 94.0818 199.107 94.327C199.545 94.5723 199.883 94.8988 200.121 95.3064C200.363 95.7108 200.484 96.1566 200.484 96.6438C200.484 97.2238 200.327 97.721 200.012 98.1353C199.697 98.5462 199.273 98.8313 198.739 98.9904V99.055C199.389 99.1843 199.899 99.4726 200.27 99.9201C200.645 100.364 200.832 100.909 200.832 101.556C200.832 102.099 200.69 102.588 200.405 103.022C200.12 103.453 199.729 103.795 199.231 104.046C198.738 104.295 198.171 104.419 197.531 104.419ZM203.77 102.754C203.575 102.754 203.406 102.684 203.263 102.545C203.124 102.403 203.055 102.234 203.055 102.038C203.055 101.839 203.124 101.67 203.263 101.531C203.406 101.392 203.575 101.322 203.77 101.322C203.969 101.322 204.138 101.392 204.278 101.531C204.417 101.67 204.486 101.839 204.486 102.038C204.486 102.167 204.453 102.287 204.387 102.396C204.324 102.505 204.238 102.593 204.128 102.659C204.022 102.722 203.903 102.754 203.77 102.754ZM203.77 97.5884C203.575 97.5884 203.406 97.5188 203.263 97.3796C203.124 97.2371 203.055 97.068 203.055 96.8725C203.055 96.6769 203.124 96.5096 203.263 96.3704C203.406 96.2278 203.575 96.1566 203.77 96.1566C203.969 96.1566 204.138 96.2278 204.278 96.3704C204.417 96.5096 204.486 96.6769 204.486 96.8725C204.486 97.0017 204.453 97.1211 204.387 97.2304C204.324 97.3398 204.238 97.4276 204.128 97.4939C204.022 97.5569 203.903 97.5884 203.77 97.5884ZM209.767 104.419C209.201 104.419 208.694 104.305 208.246 104.076C207.802 103.844 207.447 103.526 207.182 103.122C206.92 102.717 206.781 102.255 206.765 101.735H207.664C207.694 102.275 207.906 102.719 208.301 103.067C208.695 103.412 209.184 103.584 209.767 103.584C210.222 103.584 210.626 103.476 210.981 103.261C211.335 103.042 211.612 102.744 211.811 102.366C212.013 101.985 212.114 101.556 212.114 101.078C212.111 100.581 212.003 100.144 211.791 99.7659C211.579 99.3848 211.29 99.0865 210.926 98.8711C210.565 98.6556 210.159 98.5479 209.708 98.5479C209.366 98.5446 209.032 98.6009 208.704 98.7169C208.375 98.8329 208.102 98.9821 207.883 99.1644L206.954 99.0451L207.565 94.0983H212.596V94.9336H208.346L207.938 98.3391H207.988C208.213 98.1502 208.486 97.9961 208.808 97.8767C209.133 97.7574 209.476 97.6978 209.837 97.6978C210.437 97.6978 210.976 97.8419 211.453 98.1303C211.933 98.4186 212.313 98.8164 212.591 99.3235C212.873 99.8273 213.014 100.407 213.014 101.064C213.014 101.707 212.873 102.282 212.591 102.789C212.313 103.292 211.928 103.69 211.438 103.982C210.951 104.274 210.394 104.419 209.767 104.419ZM218.192 93.9591C218.616 93.9624 219.027 94.0486 219.425 94.2177C219.826 94.3834 220.187 94.6518 220.509 95.023C220.83 95.3909 221.085 95.8815 221.274 96.4946C221.463 97.1045 221.558 97.8552 221.558 98.7468C221.558 99.5787 221.485 100.341 221.339 101.034C221.193 101.726 220.974 102.326 220.683 102.833C220.394 103.337 220.03 103.728 219.589 104.007C219.151 104.282 218.639 104.419 218.053 104.419C217.506 104.419 217.02 104.305 216.596 104.076C216.175 103.848 215.834 103.531 215.572 103.127C215.31 102.719 215.148 102.248 215.085 101.715H215.999C216.089 102.258 216.308 102.706 216.656 103.057C217.007 103.408 217.473 103.584 218.053 103.584C218.885 103.584 219.531 103.196 219.992 102.421C220.452 101.645 220.683 100.542 220.683 99.1097H220.618C220.459 99.408 220.25 99.6682 219.992 99.8902C219.736 100.112 219.445 100.286 219.117 100.412C218.788 100.535 218.442 100.596 218.077 100.596C217.511 100.596 216.992 100.454 216.521 100.169C216.051 99.8803 215.675 99.4875 215.393 98.9904C215.111 98.4899 214.97 97.9198 214.97 97.2802C214.97 96.6769 215.103 96.1234 215.368 95.6196C215.636 95.1125 216.011 94.7082 216.492 94.4066C216.975 94.1016 217.542 93.9525 218.192 93.9591ZM218.192 94.7944C217.751 94.7944 217.355 94.907 217.004 95.1324C216.656 95.3545 216.379 95.6544 216.173 96.0323C215.971 96.4068 215.87 96.8228 215.87 97.2802C215.87 97.7409 215.971 98.1601 216.173 98.538C216.379 98.9125 216.656 99.2108 217.004 99.4329C217.355 99.6516 217.751 99.761 218.192 99.761C218.53 99.761 218.845 99.693 219.136 99.5571C219.428 99.4179 219.68 99.229 219.892 98.9904C220.108 98.7517 220.27 98.4816 220.379 98.18C220.492 97.8751 220.537 97.5552 220.514 97.2205C220.474 96.7565 220.35 96.3422 220.141 95.9776C219.935 95.6097 219.663 95.3213 219.325 95.1125C218.991 94.9004 218.613 94.7944 218.192 94.7944ZM224.401 102.754C224.206 102.754 224.037 102.684 223.894 102.545C223.755 102.403 223.685 102.234 223.685 102.038C223.685 101.839 223.755 101.67 223.894 101.531C224.037 101.392 224.206 101.322 224.401 101.322C224.6 101.322 224.769 101.392 224.908 101.531C225.048 101.67 225.117 101.839 225.117 102.038C225.117 102.167 225.084 102.287 225.018 102.396C224.955 102.505 224.869 102.593 224.759 102.659C224.653 102.722 224.534 102.754 224.401 102.754ZM224.401 97.5884C224.206 97.5884 224.037 97.5188 223.894 97.3796C223.755 97.2371 223.685 97.068 223.685 96.8725C223.685 96.6769 223.755 96.5096 223.894 96.3704C224.037 96.2278 224.206 96.1566 224.401 96.1566C224.6 96.1566 224.769 96.2278 224.908 96.3704C225.048 96.5096 225.117 96.6769 225.117 96.8725C225.117 97.0017 225.084 97.1211 225.018 97.2304C224.955 97.3398 224.869 97.4276 224.759 97.4939C224.653 97.5569 224.534 97.5884 224.401 97.5884ZM230.398 104.419C229.832 104.419 229.324 104.305 228.877 104.076C228.433 103.844 228.078 103.526 227.813 103.122C227.551 102.717 227.412 102.255 227.395 101.735H228.295C228.325 102.275 228.537 102.719 228.932 103.067C229.326 103.412 229.815 103.584 230.398 103.584C230.852 103.584 231.257 103.476 231.611 103.261C231.966 103.042 232.243 102.744 232.442 102.366C232.644 101.985 232.745 101.556 232.745 101.078C232.742 100.581 232.634 100.144 232.422 99.7659C232.21 99.3848 231.921 99.0865 231.557 98.8711C231.195 98.6556 230.789 98.5479 230.339 98.5479C229.997 98.5446 229.663 98.6009 229.334 98.7169C229.006 98.8329 228.733 98.9821 228.514 99.1644L227.584 99.0451L228.196 94.0983H233.227V94.9336H228.976L228.569 98.3391H228.619C228.844 98.1502 229.117 97.9961 229.439 97.8767C229.764 97.7574 230.107 97.6978 230.468 97.6978C231.068 97.6978 231.606 97.8419 232.084 98.1303C232.564 98.4186 232.944 98.8164 233.222 99.3235C233.504 99.8273 233.645 100.407 233.645 101.064C233.645 101.707 233.504 102.282 233.222 102.789C232.944 103.292 232.559 103.69 232.069 103.982C231.582 104.274 231.025 104.419 230.398 104.419ZM238.823 93.9591C239.247 93.9624 239.658 94.0486 240.056 94.2177C240.457 94.3834 240.818 94.6518 241.139 95.023C241.461 95.3909 241.716 95.8815 241.905 96.4946C242.094 97.1045 242.188 97.8552 242.188 98.7468C242.188 99.5787 242.116 100.341 241.97 101.034C241.824 101.726 241.605 102.326 241.313 102.833C241.025 103.337 240.661 103.728 240.22 104.007C239.782 104.282 239.27 104.419 238.683 104.419C238.137 104.419 237.651 104.305 237.227 104.076C236.806 103.848 236.465 103.531 236.203 103.127C235.941 102.719 235.778 102.248 235.715 101.715H236.63C236.72 102.258 236.938 102.706 237.286 103.057C237.638 103.408 238.103 103.584 238.683 103.584C239.515 103.584 240.162 103.196 240.622 102.421C241.083 101.645 241.313 100.542 241.313 99.1097H241.249C241.09 99.408 240.881 99.6682 240.622 99.8902C240.367 100.112 240.076 100.286 239.747 100.412C239.419 100.535 239.073 100.596 238.708 100.596C238.142 100.596 237.623 100.454 237.152 100.169C236.682 99.8803 236.305 99.4875 236.024 98.9904C235.742 98.4899 235.601 97.9198 235.601 97.2802C235.601 96.6769 235.734 96.1234 235.999 95.6196C236.267 95.1125 236.642 94.7082 237.122 94.4066C237.606 94.1016 238.173 93.9525 238.823 93.9591ZM238.823 94.7944C238.382 94.7944 237.986 94.907 237.634 95.1324C237.286 95.3545 237.01 95.6544 236.804 96.0323C236.602 96.4068 236.501 96.8228 236.501 97.2802C236.501 97.7409 236.602 98.1601 236.804 98.538C237.01 98.9125 237.286 99.2108 237.634 99.4329C237.986 99.6516 238.382 99.761 238.823 99.761C239.161 99.761 239.476 99.693 239.767 99.5571C240.059 99.4179 240.311 99.229 240.523 98.9904C240.738 98.7517 240.901 98.4816 241.01 98.18C241.123 97.8751 241.168 97.5552 241.144 97.2205C241.105 96.7565 240.98 96.3422 240.772 95.9776C240.566 95.6097 240.294 95.3213 239.956 95.1125C239.621 94.9004 239.244 94.7944 238.823 94.7944ZM248.632 99.1892C248.632 97.9961 248.782 96.8692 249.084 95.8086C249.386 94.748 249.818 93.7536 250.382 92.8256H251.187C250.945 93.2167 250.723 93.6592 250.521 94.153C250.322 94.6469 250.15 95.1739 250.004 95.734C249.858 96.2941 249.745 96.8675 249.666 97.4542C249.586 98.0375 249.546 98.6159 249.546 99.1892C249.546 99.9549 249.616 100.727 249.755 101.506C249.894 102.285 250.087 103.024 250.332 103.723C250.581 104.423 250.866 105.033 251.187 105.553H250.382C249.818 104.622 249.386 103.626 249.084 102.565C248.782 101.504 248.632 100.379 248.632 99.1892ZM260.087 94.0983H261.017V100.84C261.017 101.533 260.855 102.152 260.53 102.699C260.205 103.243 259.753 103.672 259.173 103.987C258.596 104.298 257.925 104.454 257.159 104.454C256.397 104.454 255.726 104.297 255.146 103.982C254.566 103.667 254.113 103.238 253.788 102.694C253.464 102.151 253.301 101.533 253.301 100.84V94.0983H254.231V100.775C254.231 101.315 254.352 101.798 254.594 102.222C254.836 102.643 255.176 102.974 255.613 103.216C256.054 103.458 256.569 103.579 257.159 103.579C257.749 103.579 258.265 103.458 258.705 103.216C259.146 102.974 259.486 102.643 259.725 102.222C259.966 101.798 260.087 101.315 260.087 100.775V94.0983ZM263.103 94.9336V94.0983H270.486V94.9336H267.259V104.28H266.329V94.9336H263.103ZM280.129 97.2802H279.195C279.125 96.9321 278.999 96.6106 278.817 96.3157C278.638 96.0174 278.412 95.7572 278.141 95.5351C277.869 95.3131 277.561 95.1407 277.216 95.0181C276.871 94.8954 276.498 94.8341 276.097 94.8341C275.454 94.8341 274.868 95.0015 274.337 95.3363C273.81 95.671 273.388 96.1632 273.07 96.8128C272.755 97.4591 272.597 98.2513 272.597 99.1892C272.597 100.134 272.755 100.929 273.07 101.576C273.388 102.222 273.81 102.712 274.337 103.047C274.868 103.379 275.454 103.544 276.097 103.544C276.498 103.544 276.871 103.483 277.216 103.36C277.561 103.238 277.869 103.067 278.141 102.848C278.412 102.626 278.638 102.366 278.817 102.068C278.999 101.769 279.125 101.446 279.195 101.098H280.129C280.046 101.566 279.891 102.002 279.662 102.406C279.436 102.807 279.148 103.158 278.797 103.46C278.449 103.761 278.048 103.997 277.594 104.166C277.14 104.335 276.641 104.419 276.097 104.419C275.242 104.419 274.483 104.206 273.82 103.778C273.157 103.347 272.637 102.741 272.259 101.958C271.885 101.176 271.697 100.253 271.697 99.1892C271.697 98.1253 271.885 97.2023 272.259 96.4201C272.637 95.6379 273.157 95.033 273.82 94.6054C274.483 94.1746 275.242 93.9591 276.097 93.9591C276.641 93.9591 277.14 94.0436 277.594 94.2127C278.048 94.3784 278.449 94.6137 278.797 94.9186C279.148 95.2203 279.436 95.5716 279.662 95.9726C279.891 96.3737 280.046 96.8095 280.129 97.2802ZM285.097 102.351V96.0522H285.947V102.351H285.097ZM282.373 99.6267V98.7766H288.672V99.6267H282.373ZM294.36 104.419C293.711 104.419 293.132 104.297 292.625 104.051C292.118 103.806 291.72 103.471 291.432 103.047C291.144 102.62 291 102.137 291 101.6C291 101.18 291.087 100.787 291.263 100.422C291.439 100.054 291.681 99.7461 291.989 99.4975C292.297 99.2456 292.643 99.0815 293.028 99.0053V98.9506C292.527 98.8048 292.125 98.5181 291.82 98.0905C291.515 97.6596 291.364 97.1708 291.367 96.6239C291.364 96.1168 291.493 95.6627 291.755 95.2617C292.017 94.8606 292.373 94.5441 292.824 94.3121C293.278 94.0768 293.79 93.9591 294.36 93.9591C294.927 93.9591 295.436 94.0768 295.887 94.3121C296.337 94.5441 296.694 94.8606 296.956 95.2617C297.221 95.6627 297.355 96.1168 297.358 96.6239C297.355 97.1675 297.201 97.6563 296.896 98.0905C296.591 98.5214 296.19 98.8081 295.693 98.9506V99.0053C296.077 99.0782 296.422 99.2406 296.727 99.4925C297.032 99.7444 297.274 100.054 297.453 100.422C297.632 100.787 297.721 101.18 297.721 101.6C297.721 102.137 297.575 102.62 297.284 103.047C296.995 103.471 296.598 103.806 296.09 104.051C295.587 104.297 295.01 104.419 294.36 104.419ZM294.36 103.584C294.844 103.584 295.268 103.498 295.633 103.326C296.001 103.15 296.288 102.91 296.493 102.605C296.702 102.3 296.806 101.95 296.806 101.556C296.806 101.148 296.699 100.785 296.483 100.467C296.268 100.145 295.976 99.8919 295.608 99.7063C295.24 99.5174 294.824 99.4229 294.36 99.4229C293.896 99.4229 293.479 99.5174 293.108 99.7063C292.74 99.8919 292.448 100.145 292.233 100.467C292.02 100.785 291.914 101.148 291.914 101.556C291.914 101.95 292.015 102.3 292.218 102.605C292.423 102.91 292.71 103.15 293.078 103.326C293.449 103.498 293.876 103.584 294.36 103.584ZM294.36 98.6275C294.758 98.6275 295.114 98.5429 295.429 98.3739C295.744 98.2049 295.993 97.9745 296.175 97.6829C296.361 97.3879 296.455 97.0531 296.458 96.6786C296.455 96.3074 296.362 95.9793 296.18 95.6942C295.998 95.4059 295.749 95.1821 295.434 95.023C295.123 94.8606 294.765 94.7794 294.36 94.7794C293.956 94.7794 293.595 94.8606 293.277 95.023C292.962 95.1821 292.713 95.4059 292.531 95.6942C292.352 95.9793 292.264 96.3074 292.267 96.6786C292.264 97.0531 292.353 97.3879 292.536 97.6829C292.721 97.9745 292.972 98.2049 293.286 98.3739C293.605 98.5429 293.963 98.6275 294.36 98.6275ZM301.968 99.1892C301.968 100.382 301.817 101.509 301.516 102.57C301.214 103.631 300.782 104.625 300.218 105.553H299.413C299.655 105.162 299.875 104.719 300.074 104.225C300.276 103.732 300.45 103.205 300.596 102.644C300.742 102.084 300.854 101.511 300.934 100.924C301.014 100.338 301.053 99.7593 301.053 99.1892C301.053 98.4236 300.984 97.6514 300.845 96.8725C300.705 96.0936 300.511 95.3545 300.263 94.6552C300.018 93.9558 299.734 93.346 299.413 92.8256H300.218C300.782 93.7569 301.214 94.7529 301.516 95.8135C301.817 96.8741 301.968 97.9994 301.968 99.1892Z" fill="white"/>
<path d="M0 12C0 5.37258 5.37258 0 12 0H108.313C111.082 0 113.014 2.74593 112.078 5.35209L102.021 33.3521C101.451 34.9406 99.9445 36 98.2566 36H0V12Z" fill="url(#paint2_linear_6478_150)"/>
<path d="M27.0158 19.4102H35.4158V25.8102H33.5758V21.1542H28.7758V25.8902H27.0158V19.4102ZM34.1358 10.8662L35.6078 12.3702C34.8291 12.6689 33.9651 12.9302 33.0158 13.1542C32.0664 13.3675 31.0904 13.5435 30.0878 13.6822C29.0958 13.8209 28.1251 13.9329 27.1758 14.0182C27.1438 13.7942 27.0691 13.5222 26.9518 13.2022C26.8451 12.8715 26.7384 12.5995 26.6318 12.3862C27.3144 12.3115 28.0024 12.2262 28.6958 12.1302C29.3998 12.0342 30.0824 11.9222 30.7438 11.7942C31.4051 11.6662 32.0238 11.5275 32.5998 11.3782C33.1758 11.2182 33.6878 11.0475 34.1358 10.8662ZM30.2958 12.6742H32.1198V20.4182H30.2958V12.6742ZM26.0238 15.5382H36.2158V17.3622H26.0238V15.5382ZM28.2798 23.4902H34.3438V25.2342H28.2798V23.4902ZM22.0718 12.4662L23.1598 11.0742C23.4584 11.2235 23.7944 11.3942 24.1678 11.5862C24.5411 11.7782 24.9038 11.9702 25.2558 12.1622C25.6184 12.3542 25.9118 12.5249 26.1358 12.6742L24.9998 14.2262C24.7864 14.0662 24.5091 13.8849 24.1678 13.6822C23.8264 13.4795 23.4691 13.2715 23.0958 13.0582C22.7224 12.8342 22.3811 12.6369 22.0718 12.4662ZM21.3038 16.8982L22.3438 15.4742C22.6424 15.6022 22.9838 15.7622 23.3678 15.9542C23.7518 16.1462 24.1251 16.3382 24.4878 16.5302C24.8504 16.7115 25.1438 16.8769 25.3678 17.0262L24.2958 18.6262C24.0824 18.4662 23.7998 18.2849 23.4478 18.0822C23.1064 17.8795 22.7438 17.6715 22.3598 17.4582C21.9758 17.2449 21.6238 17.0582 21.3038 16.8982ZM21.5438 24.4182C21.8318 24.0129 22.1464 23.5382 22.4878 22.9942C22.8398 22.4395 23.1971 21.8529 23.5598 21.2342C23.9224 20.6049 24.2638 19.9809 24.5838 19.3622L25.9918 20.6422C25.7144 21.1969 25.4158 21.7675 25.0958 22.3542C24.7864 22.9409 24.4664 23.5169 24.1358 24.0822C23.8158 24.6475 23.4904 25.1915 23.1598 25.7142L21.5438 24.4182ZM44.8078 14.3542H51.0958V16.1942H44.8078V14.3542ZM50.1038 14.3542H51.9758C51.9758 14.3542 51.9758 14.4075 51.9758 14.5142C51.9758 14.6209 51.9704 14.7435 51.9598 14.8822C51.9598 15.0209 51.9598 15.1329 51.9598 15.2182C51.9278 16.8395 51.8851 18.2209 51.8318 19.3622C51.7891 20.4929 51.7358 21.4262 51.6718 22.1622C51.6078 22.8982 51.5278 23.4795 51.4318 23.9062C51.3358 24.3222 51.2238 24.6209 51.0958 24.8022C50.9038 25.0795 50.7064 25.2715 50.5038 25.3782C50.3011 25.4955 50.0558 25.5809 49.7678 25.6342C49.5118 25.6769 49.1918 25.6982 48.8078 25.6982C48.4238 25.7089 48.0238 25.7035 47.6078 25.6822C47.5971 25.4049 47.5384 25.0902 47.4318 24.7382C47.3251 24.3862 47.1918 24.0769 47.0318 23.8102C47.4158 23.8422 47.7678 23.8635 48.0878 23.8742C48.4078 23.8742 48.6531 23.8742 48.8238 23.8742C48.9624 23.8742 49.0744 23.8582 49.1598 23.8262C49.2451 23.7835 49.3304 23.7142 49.4158 23.6182C49.5118 23.4902 49.5918 23.2449 49.6558 22.8822C49.7304 22.5089 49.7944 21.9809 49.8478 21.2982C49.9011 20.6049 49.9438 19.7249 49.9758 18.6582C50.0184 17.5809 50.0611 16.2795 50.1038 14.7542V14.3542ZM46.6158 11.1542H48.5198C48.5198 12.4022 48.5038 13.6129 48.4718 14.7862C48.4504 15.9489 48.3864 17.0635 48.2798 18.1302C48.1731 19.1969 48.0024 20.1995 47.7678 21.1382C47.5331 22.0769 47.2131 22.9462 46.8078 23.7462C46.4131 24.5462 45.8958 25.2609 45.2558 25.8902C45.1598 25.7195 45.0264 25.5382 44.8558 25.3462C44.6958 25.1649 44.5251 24.9889 44.3438 24.8182C44.1624 24.6475 43.9918 24.5142 43.8318 24.4182C44.4078 23.8635 44.8718 23.2342 45.2238 22.5302C45.5864 21.8262 45.8584 21.0529 46.0398 20.2102C46.2318 19.3675 46.3651 18.4662 46.4398 17.5062C46.5251 16.5462 46.5731 15.5382 46.5838 14.4822C46.6051 13.4155 46.6158 12.3062 46.6158 11.1542ZM38.0398 12.1142H44.3278V13.7942H38.0398V12.1142ZM37.5118 15.8262H44.6158V17.5702H37.5118V15.8262ZM42.1038 19.0102L43.6558 18.5942C43.8478 19.0315 44.0398 19.5115 44.2318 20.0342C44.4344 20.5462 44.6211 21.0475 44.7918 21.5382C44.9624 22.0289 45.0904 22.4555 45.1758 22.8182L43.5118 23.3462C43.4371 22.9835 43.3251 22.5515 43.1758 22.0502C43.0264 21.5489 42.8558 21.0315 42.6638 20.4982C42.4824 19.9649 42.2958 19.4689 42.1038 19.0102ZM38.1998 24.1622L38.0078 22.5462L38.8238 21.9382L44.0078 20.7222C44.0184 20.9675 44.0504 21.2502 44.1038 21.5702C44.1678 21.8902 44.2264 22.1462 44.2798 22.3382C43.3091 22.5942 42.4931 22.8129 41.8318 22.9942C41.1704 23.1649 40.6211 23.3142 40.1838 23.4422C39.7571 23.5595 39.4158 23.6609 39.1598 23.7462C38.9038 23.8315 38.7011 23.9062 38.5518 23.9702C38.4131 24.0235 38.2958 24.0875 38.1998 24.1622ZM38.1838 24.1462C38.1624 24.0289 38.1144 23.8635 38.0398 23.6502C37.9758 23.4369 37.9011 23.2235 37.8158 23.0102C37.7304 22.7862 37.6504 22.5942 37.5758 22.4342C37.7358 22.3809 37.8744 22.2635 37.9918 22.0822C38.1198 21.9009 38.2478 21.6662 38.3758 21.3782C38.4398 21.2289 38.5251 20.9942 38.6318 20.6742C38.7491 20.3435 38.8718 19.9595 38.9998 19.5222C39.1278 19.0742 39.2558 18.5995 39.3838 18.0982C39.5118 17.5862 39.6131 17.0795 39.6878 16.5782L41.5758 17.1062C41.4264 17.8102 41.2344 18.5249 40.9998 19.2502C40.7651 19.9649 40.5091 20.6582 40.2318 21.3302C39.9651 21.9915 39.6984 22.5889 39.4318 23.1222V23.1702C39.4318 23.1702 39.3678 23.2022 39.2398 23.2662C39.1118 23.3302 38.9678 23.4155 38.8078 23.5222C38.6478 23.6289 38.5038 23.7409 38.3758 23.8582C38.2478 23.9649 38.1838 24.0609 38.1838 24.1462ZM54.6958 12.1302H59.3198V22.9302H54.6958V21.2182H57.5278V13.8422H54.6958V12.1302ZM54.8078 16.6262H58.0238V18.3062H54.8078V16.6262ZM53.7998 12.1302H55.5918V24.2262H53.7998V12.1302ZM59.9118 13.8262H68.2798V15.7302H59.9118V13.8262ZM64.6958 10.9782H66.6478V23.3462C66.6478 23.9222 66.5731 24.3542 66.4238 24.6422C66.2851 24.9409 66.0344 25.1649 65.6718 25.3142C65.3198 25.4635 64.8558 25.5595 64.2798 25.6022C63.7144 25.6449 63.0318 25.6609 62.2318 25.6502C62.1891 25.3835 62.1038 25.0582 61.9758 24.6742C61.8478 24.3009 61.7091 23.9809 61.5598 23.7142C61.9438 23.7249 62.3118 23.7355 62.6638 23.7462C63.0264 23.7569 63.3464 23.7622 63.6238 23.7622C63.9011 23.7622 64.0984 23.7622 64.2158 23.7622C64.3971 23.7622 64.5198 23.7302 64.5838 23.6662C64.6584 23.6022 64.6958 23.4902 64.6958 23.3302V10.9782ZM60.0878 17.6182L61.6718 16.7862C61.9278 17.1489 62.2104 17.5489 62.5198 17.9862C62.8291 18.4129 63.1171 18.8342 63.3838 19.2502C63.6611 19.6555 63.8904 20.0075 64.0718 20.3062L62.3598 21.2982C62.2104 20.9889 62.0024 20.6209 61.7358 20.1942C61.4798 19.7675 61.2024 19.3302 60.9038 18.8822C60.6158 18.4235 60.3438 18.0022 60.0878 17.6182ZM69.8798 14.7222H71.8638V25.8742H69.8798V14.7222ZM70.1038 11.9062L71.6238 10.9782C71.8691 11.2129 72.1198 11.4742 72.3758 11.7622C72.6424 12.0395 72.8824 12.3222 73.0958 12.6102C73.3198 12.8875 73.4904 13.1489 73.6078 13.3942L71.9918 14.4342C71.8851 14.1995 71.7251 13.9382 71.5118 13.6502C71.3091 13.3515 71.0851 13.0529 70.8398 12.7542C70.6051 12.4449 70.3598 12.1622 70.1038 11.9062ZM74.1678 11.6662H82.8398V13.4582H74.1678V11.6662ZM81.7678 11.6662H83.7518V23.8262C83.7518 24.2742 83.7038 24.6209 83.6078 24.8662C83.5118 25.1222 83.3304 25.3249 83.0638 25.4742C82.7971 25.6129 82.4718 25.6982 82.0878 25.7302C81.7038 25.7729 81.2611 25.7942 80.7598 25.7942C80.7171 25.5489 80.6424 25.2555 80.5358 24.9142C80.4398 24.5835 80.3331 24.3062 80.2158 24.0822C80.4718 24.0929 80.7278 24.0982 80.9838 24.0982C81.2398 24.0982 81.4104 24.0982 81.4958 24.0982C81.6024 24.0982 81.6718 24.0769 81.7038 24.0342C81.7464 23.9915 81.7678 23.9169 81.7678 23.8102V11.6662ZM75.2078 19.9542V21.4902H78.2958V19.9542H75.2078ZM75.2078 16.8982V18.4182H78.2958V16.8982H75.2078ZM73.4958 15.3622H80.0878V23.0262H73.4958V15.3622Z" fill="white"/>
<defs>
<linearGradient id="paint0_linear_6478_150" x1="167.5" y1="12" x2="167.5" y2="144.029" gradientUnits="userSpaceOnUse">
<stop/>
<stop offset="1" stop-color="#1C0130"/>
</linearGradient>
<linearGradient id="paint1_linear_6478_150" x1="167.5" y1="12" x2="167.5" y2="134" gradientUnits="userSpaceOnUse">
<stop stop-color="#020103"/>
<stop offset="1" stop-color="#311645"/>
</linearGradient>
<linearGradient id="paint2_linear_6478_150" x1="3.66286e-08" y1="18.2353" x2="113.956" y2="15.7431" gradientUnits="userSpaceOnUse">
<stop stop-color="#413EFE"/>
<stop offset="1" stop-color="#9F38E5"/>
</linearGradient>
</defs>
</svg>
