<svg width="1000" height="134" viewBox="0 0 1000 134" fill="none" xmlns="http://www.w3.org/2000/svg">
<rect x="0.5" y="12.5" width="999" height="121" rx="3.5" fill="url(#paint0_linear_6313_556)" stroke="url(#paint1_linear_6313_556)"/>
<path d="M33.246 63.15H44.852V64.158H33.246V63.15ZM32.728 68.148H45.286V69.156H32.728V68.148ZM41.086 63.682H42.164V75.134H41.086V63.682ZM36.102 63.668H37.166V67.546C37.166 68.2273 37.1287 68.9133 37.054 69.604C36.9793 70.2947 36.8207 70.9713 36.578 71.634C36.3447 72.2873 35.99 72.9173 35.514 73.524C35.038 74.1213 34.3987 74.672 33.596 75.176C33.5307 75.0827 33.4513 74.9893 33.358 74.896C33.2647 74.8027 33.162 74.7093 33.05 74.616C32.9473 74.5227 32.8493 74.448 32.756 74.392C33.512 73.9253 34.114 73.4213 34.562 72.88C35.01 72.3387 35.3413 71.774 35.556 71.186C35.78 70.598 35.9247 69.996 35.99 69.38C36.0647 68.764 36.102 68.1527 36.102 67.546V63.668ZM53.392 73.538H58.292V74.504H53.392V73.538ZM52.86 69.436H58.838V75.078H57.788V70.402H53.868V75.134H52.86V69.436ZM51.894 67.098C52.454 67.0607 53.098 67.0233 53.826 66.986C54.5633 66.9487 55.3427 66.9067 56.164 66.86C56.9947 66.804 57.8253 66.748 58.656 66.692L58.642 67.644C57.8487 67.7 57.0553 67.7607 56.262 67.826C55.4687 67.8913 54.708 67.9473 53.98 67.994C53.2613 68.0407 52.608 68.0873 52.02 68.134L51.894 67.098ZM56.542 64.83L57.382 64.41C57.6993 64.7927 58.0073 65.2127 58.306 65.67C58.6047 66.118 58.8753 66.5613 59.118 67C59.3607 67.4293 59.538 67.8167 59.65 68.162L58.74 68.666C58.628 68.3207 58.4553 67.924 58.222 67.476C57.9887 67.028 57.7273 66.5753 57.438 66.118C57.1487 65.6607 56.85 65.2313 56.542 64.83ZM54.624 62.226L55.786 62.478C55.59 63.038 55.3753 63.6353 55.142 64.27C54.918 64.9047 54.6847 65.516 54.442 66.104C54.1993 66.692 53.966 67.21 53.742 67.658L52.86 67.406C53.0187 67.0607 53.182 66.6733 53.35 66.244C53.518 65.8147 53.6767 65.3667 53.826 64.9C53.9847 64.424 54.134 63.962 54.274 63.514C54.414 63.0567 54.5307 62.6273 54.624 62.226ZM46.616 65.138H51.236V66.118H46.616V65.138ZM48.744 62.226L49.738 62.352C49.598 63.0427 49.4393 63.7893 49.262 64.592C49.0847 65.3853 48.898 66.1833 48.702 66.986C48.5153 67.7887 48.3287 68.5587 48.142 69.296C47.9553 70.024 47.7827 70.6773 47.624 71.256L46.742 70.794C46.9007 70.262 47.0687 69.646 47.246 68.946C47.4327 68.2367 47.6147 67.49 47.792 66.706C47.9693 65.922 48.142 65.1473 48.31 64.382C48.478 63.6073 48.6227 62.8887 48.744 62.226ZM47.316 70.36L47.89 69.632C48.4127 69.9213 48.9493 70.2527 49.5 70.626C50.06 70.9993 50.5733 71.382 51.04 71.774C51.5067 72.166 51.88 72.5393 52.16 72.894L51.53 73.734C51.25 73.3887 50.8767 73.0153 50.41 72.614C49.9527 72.2033 49.4533 71.802 48.912 71.41C48.3707 71.0087 47.8387 70.6587 47.316 70.36ZM50.83 65.138H51.012L51.194 65.096L51.824 65.236C51.7027 67.0373 51.4507 68.5867 51.068 69.884C50.6853 71.172 50.186 72.2453 49.57 73.104C48.954 73.9627 48.212 74.6487 47.344 75.162C47.2693 75.0313 47.1667 74.882 47.036 74.714C46.9147 74.546 46.798 74.4107 46.686 74.308C47.47 73.8973 48.1467 73.2953 48.716 72.502C49.2947 71.6993 49.7613 70.7053 50.116 69.52C50.48 68.3253 50.718 66.9347 50.83 65.348V65.138ZM61.652 63.416H65.516V72.516H61.652V71.564H64.536V64.368H61.652V63.416ZM61.694 67.434H64.9V68.372H61.694V67.434ZM61.134 63.416H62.142V73.65H61.134V63.416ZM66.16 65.04H73.468V66.09H66.16V65.04ZM70.696 62.31H71.76V73.538C71.76 73.9207 71.704 74.2007 71.592 74.378C71.4893 74.5647 71.312 74.7 71.06 74.784C70.808 74.8773 70.4533 74.9333 69.996 74.952C69.5387 74.9707 68.96 74.98 68.26 74.98C68.232 74.8307 68.1807 74.6487 68.106 74.434C68.0313 74.2287 67.952 74.0513 67.868 73.902C68.2413 73.9113 68.5913 73.9207 68.918 73.93C69.254 73.9393 69.5433 73.944 69.786 73.944C70.0287 73.9347 70.2013 73.9253 70.304 73.916C70.444 73.916 70.542 73.888 70.598 73.832C70.6633 73.776 70.696 73.678 70.696 73.538V62.31ZM66.636 67.672L67.504 67.21C67.756 67.5647 68.022 67.9473 68.302 68.358C68.582 68.7687 68.8433 69.1653 69.086 69.548C69.338 69.9307 69.5433 70.2667 69.702 70.556L68.778 71.088C68.6287 70.7987 68.4327 70.458 68.19 70.066C67.9567 69.6647 67.7 69.254 67.42 68.834C67.1493 68.414 66.888 68.0267 66.636 67.672ZM75.274 65.39H76.352V75.12H75.274V65.39ZM75.484 62.926L76.296 62.422C76.52 62.618 76.744 62.8373 76.968 63.08C77.192 63.3133 77.402 63.5467 77.598 63.78C77.794 64.0133 77.9433 64.228 78.046 64.424L77.178 64.984C77.066 64.7973 76.9167 64.5827 76.73 64.34C76.5527 64.0973 76.352 63.8547 76.128 63.612C75.9133 63.36 75.6987 63.1313 75.484 62.926ZM78.928 63.024H86.292V64.018H78.928V63.024ZM85.704 63.024H86.782V73.846C86.782 74.1353 86.7447 74.3547 86.67 74.504C86.6047 74.6627 86.4787 74.7887 86.292 74.882C86.1053 74.966 85.858 75.0127 85.55 75.022C85.2513 75.0407 84.8873 75.05 84.458 75.05C84.43 74.9193 84.3833 74.756 84.318 74.56C84.262 74.3733 84.1967 74.2147 84.122 74.084C84.4207 74.0933 84.696 74.098 84.948 74.098C85.2 74.098 85.3727 74.098 85.466 74.098C85.5593 74.0887 85.62 74.0653 85.648 74.028C85.6853 73.9907 85.704 73.93 85.704 73.846V63.024ZM79.306 69.87V71.76H82.666V69.87H79.306ZM79.306 67.126V68.988H82.666V67.126H79.306ZM78.354 66.244H83.66V72.628H78.354V66.244ZM95 66.384C94.72 66.384 94.4727 66.2907 94.258 66.104C94.0433 65.908 93.936 65.6513 93.936 65.334C93.936 65.0167 94.0433 64.7647 94.258 64.578C94.4727 64.382 94.72 64.284 95 64.284C95.28 64.284 95.5273 64.382 95.742 64.578C95.9567 64.7647 96.064 65.0167 96.064 65.334C96.064 65.6513 95.9567 65.908 95.742 66.104C95.5273 66.2907 95.28 66.384 95 66.384ZM95 73.244C94.72 73.244 94.4727 73.1507 94.258 72.964C94.0433 72.768 93.936 72.5113 93.936 72.194C93.936 71.8673 94.0433 71.6107 94.258 71.424C94.4727 71.228 94.72 71.13 95 71.13C95.28 71.13 95.5273 71.228 95.742 71.424C95.9567 71.6107 96.064 71.8673 96.064 72.194C96.064 72.5113 95.9567 72.768 95.742 72.964C95.5273 73.1507 95.28 73.244 95 73.244ZM103.134 74V73.3189L106.46 69.5803C106.894 69.0897 107.243 68.6705 107.509 68.3224C107.774 67.9744 107.966 67.6529 108.085 67.358C108.208 67.063 108.269 66.7564 108.269 66.4382C108.269 66.0504 108.178 65.7124 107.996 65.424C107.817 65.1323 107.57 64.9053 107.255 64.7429C106.94 64.5805 106.585 64.4993 106.191 64.4993C105.773 64.4993 105.407 64.5888 105.092 64.7678C104.781 64.9467 104.539 65.192 104.366 65.5036C104.194 65.8151 104.108 66.1731 104.108 66.5774H103.218C103.218 66.014 103.347 65.5152 103.606 65.081C103.868 64.6435 104.224 64.3004 104.675 64.0518C105.129 63.8033 105.643 63.679 106.216 63.679C106.783 63.679 107.286 63.8016 107.727 64.0469C108.168 64.2888 108.514 64.6186 108.766 65.0362C109.018 65.4538 109.144 65.9212 109.144 66.4382C109.144 66.8127 109.078 67.1757 108.945 67.527C108.816 67.8783 108.592 68.2694 108.274 68.7003C107.956 69.1312 107.515 69.6581 106.952 70.2812L104.426 73.1001V73.1648H109.462V74H103.134ZM114.84 74.1392C114.124 74.1392 113.513 73.9337 113.006 73.5227C112.502 73.1084 112.114 72.5102 111.843 71.728C111.574 70.9458 111.44 70.0062 111.44 68.9091C111.44 67.8153 111.574 66.879 111.843 66.1001C112.114 65.3179 112.504 64.7197 113.011 64.3054C113.521 63.8878 114.131 63.679 114.84 63.679C115.55 63.679 116.158 63.8878 116.665 64.3054C117.175 64.7197 117.565 65.3179 117.833 66.1001C118.105 66.879 118.241 67.8153 118.241 68.9091C118.241 70.0062 118.105 70.9458 117.833 71.728C117.565 72.5102 117.177 73.1084 116.67 73.5227C116.166 73.9337 115.556 74.1392 114.84 74.1392ZM114.84 73.304C115.626 73.304 116.239 72.9212 116.68 72.1555C117.121 71.3866 117.341 70.3045 117.341 68.9091C117.341 67.9811 117.24 67.1889 117.038 66.5327C116.839 65.8731 116.552 65.3693 116.178 65.0213C115.807 64.6733 115.361 64.4993 114.84 64.4993C114.061 64.4993 113.45 64.8871 113.006 65.6626C112.562 66.4349 112.34 67.517 112.34 68.9091C112.34 69.8371 112.439 70.6293 112.638 71.2855C112.84 71.9418 113.127 72.4422 113.498 72.7869C113.873 73.1316 114.32 73.304 114.84 73.304ZM120.264 74V73.3189L123.59 69.5803C124.025 69.0897 124.374 68.6705 124.639 68.3224C124.905 67.9744 125.097 67.6529 125.216 67.358C125.339 67.063 125.4 66.7564 125.4 66.4382C125.4 66.0504 125.309 65.7124 125.127 65.424C124.948 65.1323 124.701 64.9053 124.386 64.7429C124.071 64.5805 123.716 64.4993 123.322 64.4993C122.904 64.4993 122.538 64.5888 122.223 64.7678C121.912 64.9467 121.67 65.192 121.497 65.5036C121.325 65.8151 121.239 66.1731 121.239 66.5774H120.349C120.349 66.014 120.478 65.5152 120.737 65.081C120.999 64.6435 121.355 64.3004 121.806 64.0518C122.26 63.8033 122.773 63.679 123.347 63.679C123.914 63.679 124.417 63.8016 124.858 64.0469C125.299 64.2888 125.645 64.6186 125.897 65.0362C126.149 65.4538 126.275 65.9212 126.275 66.4382C126.275 66.8127 126.209 67.1757 126.076 67.527C125.947 67.8783 125.723 68.2694 125.405 68.7003C125.087 69.1312 124.646 69.6581 124.083 70.2812L121.557 73.1001V73.1648H126.593V74H120.264ZM131.787 74.1392C131.221 74.1392 130.713 74.0249 130.266 73.7962C129.822 73.5642 129.467 73.246 129.202 72.8416C128.94 72.4373 128.801 71.9749 128.784 71.4545H129.684C129.714 71.9948 129.926 72.4389 130.321 72.7869C130.715 73.1316 131.204 73.304 131.787 73.304C132.241 73.304 132.646 73.1963 133 72.9808C133.355 72.7621 133.632 72.4638 133.831 72.0859C134.033 71.7048 134.134 71.2756 134.134 70.7983C134.131 70.3011 134.023 69.8636 133.811 69.4858C133.599 69.1046 133.31 68.8063 132.946 68.5909C132.584 68.3755 132.178 68.2678 131.728 68.2678C131.386 68.2644 131.051 68.3208 130.723 68.4368C130.395 68.5528 130.122 68.7019 129.903 68.8842L128.973 68.7649L129.585 63.8182H134.616V64.6534H130.365L129.958 68.0589H130.007C130.233 67.87 130.506 67.7159 130.828 67.5966C131.153 67.4773 131.496 67.4176 131.857 67.4176C132.457 67.4176 132.995 67.5618 133.473 67.8501C133.953 68.1385 134.333 68.5362 134.611 69.0433C134.893 69.5471 135.034 70.1271 135.034 70.7834C135.034 71.4264 134.893 72.0014 134.611 72.5085C134.333 73.0123 133.948 73.41 133.458 73.7017C132.971 73.9934 132.414 74.1392 131.787 74.1392ZM140.49 63.3409L137.209 75.5312H136.379L139.66 63.3409H140.49ZM145.151 74.1392C144.435 74.1392 143.824 73.9337 143.316 73.5227C142.813 73.1084 142.425 72.5102 142.153 71.728C141.885 70.9458 141.75 70.0062 141.75 68.9091C141.75 67.8153 141.885 66.879 142.153 66.1001C142.425 65.3179 142.814 64.7197 143.321 64.3054C143.832 63.8878 144.442 63.679 145.151 63.679C145.86 63.679 146.468 63.8878 146.975 64.3054C147.486 64.7197 147.875 65.3179 148.144 66.1001C148.416 66.879 148.551 67.8153 148.551 68.9091C148.551 70.0062 148.416 70.9458 148.144 71.728C147.875 72.5102 147.488 73.1084 146.98 73.5227C146.477 73.9337 145.867 74.1392 145.151 74.1392ZM145.151 73.304C145.936 73.304 146.55 72.9212 146.99 72.1555C147.431 71.3866 147.652 70.3045 147.652 68.9091C147.652 67.9811 147.551 67.1889 147.348 66.5327C147.15 65.8731 146.863 65.3693 146.488 65.0213C146.117 64.6733 145.671 64.4993 145.151 64.4993C144.372 64.4993 143.761 64.8871 143.316 65.6626C142.872 66.4349 142.65 67.517 142.65 68.9091C142.65 69.8371 142.75 70.6293 142.949 71.2855C143.151 71.9418 143.437 72.4422 143.809 72.7869C144.183 73.1316 144.631 73.304 145.151 73.304ZM153.722 74.1392C153.072 74.1392 152.494 74.0166 151.987 73.7713C151.48 73.526 151.082 73.1913 150.794 72.767C150.505 72.3395 150.361 71.8572 150.361 71.3203C150.361 70.8994 150.449 70.5066 150.625 70.142C150.8 69.7741 151.042 69.4659 151.35 69.2173C151.659 68.9654 152.005 68.8014 152.39 68.7251V68.6705C151.889 68.5246 151.486 68.2379 151.181 67.8104C150.877 67.3795 150.726 66.8906 150.729 66.3438C150.726 65.8366 150.855 65.3826 151.117 64.9815C151.379 64.5805 151.735 64.264 152.186 64.032C152.64 63.7966 153.152 63.679 153.722 63.679C154.289 63.679 154.797 63.7966 155.248 64.032C155.699 64.264 156.055 64.5805 156.317 64.9815C156.582 65.3826 156.717 65.8366 156.72 66.3438C156.717 66.8873 156.562 67.3762 156.257 67.8104C155.953 68.2412 155.551 68.5279 155.054 68.6705V68.7251C155.439 68.7981 155.783 68.9605 156.088 69.2124C156.393 69.4643 156.635 69.7741 156.814 70.142C156.993 70.5066 157.083 70.8994 157.083 71.3203C157.083 71.8572 156.937 72.3395 156.645 72.767C156.357 73.1913 155.959 73.526 155.452 73.7713C154.948 74.0166 154.372 74.1392 153.722 74.1392ZM153.722 73.304C154.206 73.304 154.63 73.2178 154.995 73.0455C155.363 72.8698 155.649 72.6295 155.855 72.3246C156.064 72.0196 156.168 71.67 156.168 71.2756C156.168 70.8679 156.06 70.505 155.845 70.1868C155.629 69.8653 155.338 69.6117 154.97 69.4261C154.602 69.2372 154.186 69.1428 153.722 69.1428C153.258 69.1428 152.84 69.2372 152.469 69.4261C152.101 69.6117 151.81 69.8653 151.594 70.1868C151.382 70.505 151.276 70.8679 151.276 71.2756C151.276 71.67 151.377 72.0196 151.579 72.3246C151.785 72.6295 152.071 72.8698 152.439 73.0455C152.81 73.2178 153.238 73.304 153.722 73.304ZM153.722 68.3473C154.12 68.3473 154.476 68.2628 154.791 68.0938C155.106 67.9247 155.354 67.6944 155.537 67.4027C155.722 67.1077 155.817 66.773 155.82 66.3984C155.817 66.0272 155.724 65.6991 155.542 65.4141C155.359 65.1257 155.111 64.902 154.796 64.7429C154.484 64.5805 154.126 64.4993 153.722 64.4993C153.318 64.4993 152.956 64.5805 152.638 64.7429C152.323 64.902 152.075 65.1257 151.892 65.4141C151.713 65.6991 151.626 66.0272 151.629 66.3984C151.626 66.773 151.715 67.1077 151.897 67.4027C152.083 67.6944 152.333 67.9247 152.648 68.0938C152.966 68.2628 153.324 68.3473 153.722 68.3473ZM162.488 63.3409L159.207 75.5312H158.377L161.658 63.3409H162.488ZM163.987 74V73.3189L167.313 69.5803C167.747 69.0897 168.097 68.6705 168.362 68.3224C168.627 67.9744 168.819 67.6529 168.939 67.358C169.061 67.063 169.123 66.7564 169.123 66.4382C169.123 66.0504 169.032 65.7124 168.849 65.424C168.67 65.1323 168.423 64.9053 168.108 64.7429C167.794 64.5805 167.439 64.4993 167.045 64.4993C166.627 64.4993 166.261 64.5888 165.946 64.7678C165.634 64.9467 165.392 65.192 165.22 65.5036C165.048 65.8151 164.961 66.1731 164.961 66.5774H164.072C164.072 66.014 164.201 65.5152 164.459 65.081C164.721 64.6435 165.077 64.3004 165.528 64.0518C165.982 63.8033 166.496 63.679 167.069 63.679C167.636 63.679 168.14 63.8016 168.581 64.0469C169.022 64.2888 169.368 64.6186 169.62 65.0362C169.872 65.4538 169.998 65.9212 169.998 66.4382C169.998 66.8127 169.931 67.1757 169.799 67.527C169.67 67.8783 169.446 68.2694 169.128 68.7003C168.809 69.1312 168.369 69.6581 167.805 70.2812L165.28 73.1001V73.1648H170.316V74H163.987ZM172.532 74V73.3189L175.858 69.5803C176.292 69.0897 176.642 68.6705 176.907 68.3224C177.172 67.9744 177.364 67.6529 177.484 67.358C177.606 67.063 177.668 66.7564 177.668 66.4382C177.668 66.0504 177.576 65.7124 177.394 65.424C177.215 65.1323 176.968 64.9053 176.653 64.7429C176.339 64.5805 175.984 64.4993 175.589 64.4993C175.172 64.4993 174.806 64.5888 174.491 64.7678C174.179 64.9467 173.937 65.192 173.765 65.5036C173.593 65.8151 173.506 66.1731 173.506 66.5774H172.616C172.616 66.014 172.746 65.5152 173.004 65.081C173.266 64.6435 173.622 64.3004 174.073 64.0518C174.527 63.8033 175.041 63.679 175.614 63.679C176.181 63.679 176.685 63.8016 177.126 64.0469C177.567 64.2888 177.913 64.6186 178.165 65.0362C178.417 65.4538 178.543 65.9212 178.543 66.4382C178.543 66.8127 178.476 67.1757 178.344 67.527C178.214 67.8783 177.991 68.2694 177.673 68.7003C177.354 69.1312 176.914 69.6581 176.35 70.2812L173.825 73.1001V73.1648H178.861V74H172.532ZM185.014 74V73.3189L188.34 69.5803C188.775 69.0897 189.124 68.6705 189.389 68.3224C189.655 67.9744 189.847 67.6529 189.966 67.358C190.089 67.063 190.15 66.7564 190.15 66.4382C190.15 66.0504 190.059 65.7124 189.877 65.424C189.698 65.1323 189.451 64.9053 189.136 64.7429C188.821 64.5805 188.466 64.4993 188.072 64.4993C187.654 64.4993 187.288 64.5888 186.973 64.7678C186.662 64.9467 186.42 65.192 186.247 65.5036C186.075 65.8151 185.989 66.1731 185.989 66.5774H185.099C185.099 66.014 185.228 65.5152 185.487 65.081C185.749 64.6435 186.105 64.3004 186.556 64.0518C187.01 63.8033 187.523 63.679 188.097 63.679C188.664 63.679 189.167 63.8016 189.608 64.0469C190.049 64.2888 190.395 64.6186 190.647 65.0362C190.899 65.4538 191.025 65.9212 191.025 66.4382C191.025 66.8127 190.959 67.1757 190.826 67.527C190.697 67.8783 190.473 68.2694 190.155 68.7003C189.837 69.1312 189.396 69.6581 188.833 70.2812L186.307 73.1001V73.1648H191.343V74H185.014ZM196.701 63.8182V74H195.772V64.7926H195.712L193.326 66.3786V65.4141L195.732 63.8182H196.701ZM200.534 72.4737C200.339 72.4737 200.17 72.4041 200.027 72.2649C199.888 72.1224 199.819 71.9534 199.819 71.7578C199.819 71.5589 199.888 71.3899 200.027 71.2507C200.17 71.1115 200.339 71.0419 200.534 71.0419C200.733 71.0419 200.902 71.1115 201.042 71.2507C201.181 71.3899 201.25 71.5589 201.25 71.7578C201.25 71.8871 201.217 72.0064 201.151 72.1158C201.088 72.2251 201.002 72.313 200.892 72.3793C200.786 72.4422 200.667 72.4737 200.534 72.4737ZM200.534 67.3082C200.339 67.3082 200.17 67.2386 200.027 67.0994C199.888 66.9569 199.819 66.7879 199.819 66.5923C199.819 66.3968 199.888 66.2294 200.027 66.0902C200.17 65.9477 200.339 65.8764 200.534 65.8764C200.733 65.8764 200.902 65.9477 201.042 66.0902C201.181 66.2294 201.25 66.3968 201.25 66.5923C201.25 66.7216 201.217 66.8409 201.151 66.9503C201.088 67.0597 201.002 67.1475 200.892 67.2138C200.786 67.2768 200.667 67.3082 200.534 67.3082ZM206.715 74.1392C205.999 74.1392 205.388 73.9337 204.881 73.5227C204.377 73.1084 203.989 72.5102 203.718 71.728C203.449 70.9458 203.315 70.0062 203.315 68.9091C203.315 67.8153 203.449 66.879 203.718 66.1001C203.989 65.3179 204.379 64.7197 204.886 64.3054C205.396 63.8878 206.006 63.679 206.715 63.679C207.425 63.679 208.033 63.8878 208.54 64.3054C209.05 64.7197 209.44 65.3179 209.708 66.1001C209.98 66.879 210.116 67.8153 210.116 68.9091C210.116 70.0062 209.98 70.9458 209.708 71.728C209.44 72.5102 209.052 73.1084 208.545 73.5227C208.041 73.9337 207.431 74.1392 206.715 74.1392ZM206.715 73.304C207.501 73.304 208.114 72.9212 208.555 72.1555C208.996 71.3866 209.216 70.3045 209.216 68.9091C209.216 67.9811 209.115 67.1889 208.913 66.5327C208.714 65.8731 208.427 65.3693 208.053 65.0213C207.682 64.6733 207.236 64.4993 206.715 64.4993C205.936 64.4993 205.325 64.8871 204.881 65.6626C204.437 66.4349 204.215 67.517 204.215 68.9091C204.215 69.8371 204.314 70.6293 204.513 71.2855C204.715 71.9418 205.002 72.4422 205.373 72.7869C205.748 73.1316 206.195 73.304 206.715 73.304ZM215.301 74.1392C214.585 74.1392 213.974 73.9337 213.467 73.5227C212.963 73.1084 212.575 72.5102 212.303 71.728C212.035 70.9458 211.901 70.0062 211.901 68.9091C211.901 67.8153 212.035 66.879 212.303 66.1001C212.575 65.3179 212.965 64.7197 213.472 64.3054C213.982 63.8878 214.592 63.679 215.301 63.679C216.011 63.679 216.619 63.8878 217.126 64.3054C217.636 64.7197 218.026 65.3179 218.294 66.1001C218.566 66.879 218.702 67.8153 218.702 68.9091C218.702 70.0062 218.566 70.9458 218.294 71.728C218.026 72.5102 217.638 73.1084 217.131 73.5227C216.627 73.9337 216.017 74.1392 215.301 74.1392ZM215.301 73.304C216.087 73.304 216.7 72.9212 217.141 72.1555C217.582 71.3866 217.802 70.3045 217.802 68.9091C217.802 67.9811 217.701 67.1889 217.499 66.5327C217.3 65.8731 217.013 65.3693 216.639 65.0213C216.267 64.6733 215.822 64.4993 215.301 64.4993C214.522 64.4993 213.911 64.8871 213.467 65.6626C213.023 66.4349 212.801 67.517 212.801 68.9091C212.801 69.8371 212.9 70.6293 213.099 71.2855C213.301 71.9418 213.588 72.4422 213.959 72.7869C214.334 73.1316 214.781 73.304 215.301 73.304ZM221.466 72.4737C221.271 72.4737 221.102 72.4041 220.959 72.2649C220.82 72.1224 220.75 71.9534 220.75 71.7578C220.75 71.5589 220.82 71.3899 220.959 71.2507C221.102 71.1115 221.271 71.0419 221.466 71.0419C221.665 71.0419 221.834 71.1115 221.973 71.2507C222.112 71.3899 222.182 71.5589 222.182 71.7578C222.182 71.8871 222.149 72.0064 222.083 72.1158C222.02 72.2251 221.933 72.313 221.824 72.3793C221.718 72.4422 221.599 72.4737 221.466 72.4737ZM221.466 67.3082C221.271 67.3082 221.102 67.2386 220.959 67.0994C220.82 66.9569 220.75 66.7879 220.75 66.5923C220.75 66.3968 220.82 66.2294 220.959 66.0902C221.102 65.9477 221.271 65.8764 221.466 65.8764C221.665 65.8764 221.834 65.9477 221.973 66.0902C222.112 66.2294 222.182 66.3968 222.182 66.5923C222.182 66.7216 222.149 66.8409 222.083 66.9503C222.02 67.0597 221.933 67.1475 221.824 67.2138C221.718 67.2768 221.599 67.3082 221.466 67.3082ZM227.647 74.1392C226.931 74.1392 226.32 73.9337 225.812 73.5227C225.309 73.1084 224.921 72.5102 224.649 71.728C224.381 70.9458 224.246 70.0062 224.246 68.9091C224.246 67.8153 224.381 66.879 224.649 66.1001C224.921 65.3179 225.31 64.7197 225.817 64.3054C226.328 63.8878 226.938 63.679 227.647 63.679C228.356 63.679 228.964 63.8878 229.472 64.3054C229.982 64.7197 230.371 65.3179 230.64 66.1001C230.912 66.879 231.048 67.8153 231.048 68.9091C231.048 70.0062 230.912 70.9458 230.64 71.728C230.371 72.5102 229.984 73.1084 229.477 73.5227C228.973 73.9337 228.363 74.1392 227.647 74.1392ZM227.647 73.304C228.433 73.304 229.046 72.9212 229.487 72.1555C229.927 71.3866 230.148 70.3045 230.148 68.9091C230.148 67.9811 230.047 67.1889 229.844 66.5327C229.646 65.8731 229.359 65.3693 228.984 65.0213C228.613 64.6733 228.167 64.4993 227.647 64.4993C226.868 64.4993 226.257 64.8871 225.812 65.6626C225.368 66.4349 225.146 67.517 225.146 68.9091C225.146 69.8371 225.246 70.6293 225.445 71.2855C225.647 71.9418 225.933 72.4422 226.305 72.7869C226.679 73.1316 227.127 73.304 227.647 73.304ZM236.233 74.1392C235.517 74.1392 234.906 73.9337 234.398 73.5227C233.895 73.1084 233.507 72.5102 233.235 71.728C232.967 70.9458 232.832 70.0062 232.832 68.9091C232.832 67.8153 232.967 66.879 233.235 66.1001C233.507 65.3179 233.896 64.7197 234.403 64.3054C234.914 63.8878 235.524 63.679 236.233 63.679C236.942 63.679 237.55 63.8878 238.058 64.3054C238.568 64.7197 238.957 65.3179 239.226 66.1001C239.498 66.879 239.634 67.8153 239.634 68.9091C239.634 70.0062 239.498 70.9458 239.226 71.728C238.957 72.5102 238.57 73.1084 238.062 73.5227C237.559 73.9337 236.949 74.1392 236.233 74.1392ZM236.233 73.304C237.018 73.304 237.632 72.9212 238.072 72.1555C238.513 71.3866 238.734 70.3045 238.734 68.9091C238.734 67.9811 238.633 67.1889 238.43 66.5327C238.232 65.8731 237.945 65.3693 237.57 65.0213C237.199 64.6733 236.753 64.4993 236.233 64.4993C235.454 64.4993 234.843 64.8871 234.398 65.6626C233.954 66.4349 233.732 67.517 233.732 68.9091C233.732 69.8371 233.832 70.6293 234.031 71.2855C234.233 71.9418 234.519 72.4422 234.891 72.7869C235.265 73.1316 235.713 73.304 236.233 73.304ZM245.997 68.9091C245.997 67.7159 246.148 66.589 246.45 65.5284C246.751 64.4678 247.184 63.4735 247.747 62.5455H248.553C248.311 62.9366 248.089 63.379 247.886 63.8729C247.688 64.3667 247.515 64.8937 247.369 65.4538C247.223 66.014 247.111 66.5874 247.031 67.174C246.952 67.7573 246.912 68.3357 246.912 68.9091C246.912 69.6747 246.982 70.447 247.121 71.2259C247.26 72.0047 247.452 72.7438 247.697 73.4432C247.946 74.1425 248.231 74.7524 248.553 75.2727H247.747C247.184 74.3414 246.751 73.3454 246.45 72.2848C246.148 71.2242 245.997 70.099 245.997 68.9091ZM257.453 63.8182H258.383V70.5597C258.383 71.2524 258.22 71.8722 257.895 72.419C257.571 72.9626 257.118 73.3918 256.538 73.7067C255.961 74.0182 255.29 74.174 254.525 74.174C253.762 74.174 253.091 74.0166 252.511 73.7017C251.931 73.3868 251.479 72.9576 251.154 72.4141C250.829 71.8705 250.667 71.2524 250.667 70.5597V63.8182H251.596V70.495C251.596 71.0353 251.717 71.5175 251.959 71.9418C252.201 72.3627 252.541 72.6941 252.979 72.9361C253.419 73.178 253.935 73.299 254.525 73.299C255.115 73.299 255.63 73.178 256.071 72.9361C256.512 72.6941 256.851 72.3627 257.09 71.9418C257.332 71.5175 257.453 71.0353 257.453 70.495V63.8182ZM260.468 64.6534V63.8182H267.851V64.6534H264.624V74H263.695V64.6534H260.468ZM277.495 67H276.56C276.49 66.652 276.364 66.3305 276.182 66.0355C276.003 65.7372 275.778 65.477 275.506 65.255C275.234 65.0329 274.926 64.8606 274.581 64.7379C274.237 64.6153 273.864 64.554 273.463 64.554C272.82 64.554 272.233 64.7214 271.703 65.0561C271.176 65.3909 270.753 65.883 270.435 66.5327C270.12 67.179 269.963 67.9711 269.963 68.9091C269.963 69.8537 270.12 70.6491 270.435 71.2955C270.753 71.9418 271.176 72.4323 271.703 72.767C272.233 73.0985 272.82 73.2642 273.463 73.2642C273.864 73.2642 274.237 73.2029 274.581 73.0803C274.926 72.9576 275.234 72.7869 275.506 72.5682C275.778 72.3461 276.003 72.0859 276.182 71.7876C276.364 71.4893 276.49 71.1662 276.56 70.8182H277.495C277.412 71.2855 277.256 71.7214 277.027 72.1257C276.802 72.5268 276.514 72.8781 276.162 73.1797C275.814 73.4813 275.413 73.7166 274.959 73.8857C274.505 74.0547 274.006 74.1392 273.463 74.1392C272.608 74.1392 271.849 73.9254 271.186 73.4979C270.523 73.067 270.002 72.4605 269.625 71.6783C269.25 70.8961 269.063 69.973 269.063 68.9091C269.063 67.8452 269.25 66.9221 269.625 66.1399C270.002 65.3577 270.523 64.7528 271.186 64.3253C271.849 63.8944 272.608 63.679 273.463 63.679C274.006 63.679 274.505 63.7635 274.959 63.9325C275.413 64.0982 275.814 64.3336 276.162 64.6385C276.514 64.9401 276.802 65.2914 277.027 65.6925C277.256 66.0935 277.412 66.5294 277.495 67ZM282.463 72.071V65.772H283.313V72.071H282.463ZM279.738 69.3466V68.4964H286.037V69.3466H279.738ZM291.726 74.1392C291.076 74.1392 290.498 74.0166 289.991 73.7713C289.484 73.526 289.086 73.1913 288.798 72.767C288.509 72.3395 288.365 71.8572 288.365 71.3203C288.365 70.8994 288.453 70.5066 288.629 70.142C288.804 69.7741 289.046 69.4659 289.354 69.2173C289.663 68.9654 290.009 68.8014 290.393 68.7251V68.6705C289.893 68.5246 289.49 68.2379 289.185 67.8104C288.88 67.3795 288.73 66.8906 288.733 66.3438C288.73 65.8366 288.859 65.3826 289.121 64.9815C289.383 64.5805 289.739 64.264 290.19 64.032C290.644 63.7966 291.156 63.679 291.726 63.679C292.293 63.679 292.801 63.7966 293.252 64.032C293.703 64.264 294.059 64.5805 294.321 64.9815C294.586 65.3826 294.72 65.8366 294.724 66.3438C294.72 66.8873 294.566 67.3762 294.261 67.8104C293.956 68.2412 293.555 68.5279 293.058 68.6705V68.7251C293.443 68.7981 293.787 68.9605 294.092 69.2124C294.397 69.4643 294.639 69.7741 294.818 70.142C294.997 70.5066 295.087 70.8994 295.087 71.3203C295.087 71.8572 294.941 72.3395 294.649 72.767C294.361 73.1913 293.963 73.526 293.456 73.7713C292.952 74.0166 292.375 74.1392 291.726 74.1392ZM291.726 73.304C292.21 73.304 292.634 73.2178 292.999 73.0455C293.366 72.8698 293.653 72.6295 293.859 72.3246C294.067 72.0196 294.172 71.67 294.172 71.2756C294.172 70.8679 294.064 70.505 293.849 70.1868C293.633 69.8653 293.342 69.6117 292.974 69.4261C292.606 69.2372 292.19 69.1428 291.726 69.1428C291.262 69.1428 290.844 69.2372 290.473 69.4261C290.105 69.6117 289.813 69.8653 289.598 70.1868C289.386 70.505 289.28 70.8679 289.28 71.2756C289.28 71.67 289.381 72.0196 289.583 72.3246C289.789 72.6295 290.075 72.8698 290.443 73.0455C290.814 73.2178 291.242 73.304 291.726 73.304ZM291.726 68.3473C292.124 68.3473 292.48 68.2628 292.795 68.0938C293.11 67.9247 293.358 67.6944 293.54 67.4027C293.726 67.1077 293.821 66.773 293.824 66.3984C293.821 66.0272 293.728 65.6991 293.545 65.4141C293.363 65.1257 293.115 64.902 292.8 64.7429C292.488 64.5805 292.13 64.4993 291.726 64.4993C291.321 64.4993 290.96 64.5805 290.642 64.7429C290.327 64.902 290.079 65.1257 289.896 65.4141C289.717 65.6991 289.629 66.0272 289.633 66.3984C289.629 66.773 289.719 67.1077 289.901 67.4027C290.087 67.6944 290.337 67.9247 290.652 68.0938C290.97 68.2628 291.328 68.3473 291.726 68.3473ZM299.334 68.9091C299.334 70.1023 299.183 71.2292 298.881 72.2898C298.58 73.3504 298.147 74.3447 297.584 75.2727H296.778C297.02 74.8816 297.241 74.4392 297.439 73.9453C297.642 73.4515 297.816 72.9245 297.961 72.3643C298.107 71.8042 298.22 71.2308 298.3 70.6442C298.379 70.0575 298.419 69.4792 298.419 68.9091C298.419 68.1435 298.349 67.3712 298.21 66.5923C298.071 65.8134 297.877 65.0743 297.628 64.375C297.383 63.6757 297.1 63.0658 296.778 62.5455H297.584C298.147 63.4768 298.58 64.4728 298.881 65.5334C299.183 66.594 299.334 67.7192 299.334 68.9091ZM32.882 101.424C32.8727 101.349 32.8447 101.251 32.798 101.13C32.7513 100.999 32.7047 100.869 32.658 100.738C32.6207 100.607 32.5787 100.495 32.532 100.402C32.6907 100.374 32.8587 100.281 33.036 100.122C33.2133 99.954 33.414 99.744 33.638 99.492C33.7593 99.3707 33.9367 99.1653 34.17 98.876C34.4127 98.5867 34.6787 98.246 34.968 97.854C35.2573 97.462 35.5513 97.0373 35.85 96.58C36.1487 96.1227 36.424 95.6607 36.676 95.194L37.642 95.782C37.0447 96.7153 36.4007 97.6253 35.71 98.512C35.0193 99.3987 34.324 100.178 33.624 100.85V100.878C33.624 100.878 33.5867 100.897 33.512 100.934C33.4373 100.962 33.3487 101.004 33.246 101.06C33.1527 101.116 33.0687 101.177 32.994 101.242C32.9193 101.307 32.882 101.368 32.882 101.424ZM32.882 101.424L32.84 100.542L33.386 100.178L37.572 99.492C37.5627 99.632 37.5627 99.7953 37.572 99.982C37.5907 100.159 37.6093 100.304 37.628 100.416C36.648 100.593 35.8593 100.738 35.262 100.85C34.674 100.962 34.2213 101.051 33.904 101.116C33.596 101.181 33.3673 101.237 33.218 101.284C33.078 101.331 32.966 101.377 32.882 101.424ZM32.784 98.022C32.7653 97.9473 32.7327 97.8447 32.686 97.714C32.6487 97.5833 32.6067 97.4527 32.56 97.322C32.5133 97.182 32.4667 97.0653 32.42 96.972C32.5507 96.944 32.6813 96.8553 32.812 96.706C32.9427 96.5567 33.078 96.37 33.218 96.146C33.302 96.034 33.4187 95.852 33.568 95.6C33.7173 95.3387 33.8853 95.0307 34.072 94.676C34.2587 94.3213 34.4407 93.9433 34.618 93.542C34.8047 93.1407 34.968 92.7347 35.108 92.324L36.186 92.772C35.9433 93.332 35.6727 93.892 35.374 94.452C35.0847 95.0027 34.7813 95.5347 34.464 96.048C34.1467 96.552 33.8247 97.0093 33.498 97.42V97.448C33.498 97.448 33.4607 97.4667 33.386 97.504C33.3207 97.5413 33.2367 97.5927 33.134 97.658C33.0407 97.714 32.9567 97.7747 32.882 97.84C32.8167 97.9053 32.784 97.966 32.784 98.022ZM32.784 98.022L32.77 97.238L33.302 96.902L36.256 96.65C36.228 96.7807 36.2047 96.93 36.186 97.098C36.1673 97.266 36.158 97.406 36.158 97.518C35.4953 97.5927 34.954 97.658 34.534 97.714C34.114 97.7607 33.7873 97.8027 33.554 97.84C33.33 97.8773 33.162 97.91 33.05 97.938C32.938 97.966 32.8493 97.994 32.784 98.022ZM32.49 103.258C32.9287 103.183 33.4233 103.095 33.974 102.992C34.534 102.88 35.122 102.763 35.738 102.642C36.3633 102.511 36.984 102.385 37.6 102.264L37.684 103.23C36.8067 103.435 35.9247 103.631 35.038 103.818C34.1607 104.005 33.372 104.177 32.672 104.336L32.49 103.258ZM37.712 94.116H45.202V95.124H37.712V94.116ZM38.062 97.308H44.964V98.316H38.062V97.308ZM39 103.552H44.068V104.504H39V103.552ZM40.946 92.226H42.024V97.826H40.946V92.226ZM38.426 99.744H44.614V105.05H43.564V100.696H39.448V105.106H38.426V99.744ZM47.064 93.724H58.978V94.718H47.064V93.724ZM52.44 92.254H53.518V105.12H52.44V92.254ZM52.328 99.716L53.21 100.122C52.874 100.598 52.4773 101.06 52.02 101.508C51.572 101.956 51.0867 102.381 50.564 102.782C50.0413 103.174 49.5 103.529 48.94 103.846C48.38 104.163 47.8293 104.434 47.288 104.658C47.2413 104.565 47.1713 104.462 47.078 104.35C46.994 104.247 46.9053 104.145 46.812 104.042C46.728 103.939 46.644 103.851 46.56 103.776C47.1013 103.589 47.6473 103.356 48.198 103.076C48.758 102.787 49.29 102.465 49.794 102.11C50.3073 101.746 50.7787 101.363 51.208 100.962C51.6467 100.551 52.02 100.136 52.328 99.716ZM53.7 99.744C54.1107 100.304 54.6287 100.845 55.254 101.368C55.8793 101.891 56.5607 102.362 57.298 102.782C58.0447 103.193 58.7867 103.519 59.524 103.762C59.4493 103.837 59.3607 103.925 59.258 104.028C59.1647 104.131 59.076 104.238 58.992 104.35C58.908 104.471 58.8333 104.579 58.768 104.672C58.0307 104.383 57.2887 104.005 56.542 103.538C55.8047 103.071 55.114 102.549 54.47 101.97C53.826 101.382 53.28 100.771 52.832 100.136L53.7 99.744ZM49.038 97.182V99.338H56.948V97.182H49.038ZM48.03 96.244H58.026V100.276H48.03V96.244ZM61.652 93.416H65.516V102.516H61.652V101.564H64.536V94.368H61.652V93.416ZM61.694 97.434H64.9V98.372H61.694V97.434ZM61.134 93.416H62.142V103.65H61.134V93.416ZM66.16 95.04H73.468V96.09H66.16V95.04ZM70.696 92.31H71.76V103.538C71.76 103.921 71.704 104.201 71.592 104.378C71.4893 104.565 71.312 104.7 71.06 104.784C70.808 104.877 70.4533 104.933 69.996 104.952C69.5387 104.971 68.96 104.98 68.26 104.98C68.232 104.831 68.1807 104.649 68.106 104.434C68.0313 104.229 67.952 104.051 67.868 103.902C68.2413 103.911 68.5913 103.921 68.918 103.93C69.254 103.939 69.5433 103.944 69.786 103.944C70.0287 103.935 70.2013 103.925 70.304 103.916C70.444 103.916 70.542 103.888 70.598 103.832C70.6633 103.776 70.696 103.678 70.696 103.538V92.31ZM66.636 97.672L67.504 97.21C67.756 97.5647 68.022 97.9473 68.302 98.358C68.582 98.7687 68.8433 99.1653 69.086 99.548C69.338 99.9307 69.5433 100.267 69.702 100.556L68.778 101.088C68.6287 100.799 68.4327 100.458 68.19 100.066C67.9567 99.6647 67.7 99.254 67.42 98.834C67.1493 98.414 66.888 98.0267 66.636 97.672ZM75.274 95.39H76.352V105.12H75.274V95.39ZM75.484 92.926L76.296 92.422C76.52 92.618 76.744 92.8373 76.968 93.08C77.192 93.3133 77.402 93.5467 77.598 93.78C77.794 94.0133 77.9433 94.228 78.046 94.424L77.178 94.984C77.066 94.7973 76.9167 94.5827 76.73 94.34C76.5527 94.0973 76.352 93.8547 76.128 93.612C75.9133 93.36 75.6987 93.1313 75.484 92.926ZM78.928 93.024H86.292V94.018H78.928V93.024ZM85.704 93.024H86.782V103.846C86.782 104.135 86.7447 104.355 86.67 104.504C86.6047 104.663 86.4787 104.789 86.292 104.882C86.1053 104.966 85.858 105.013 85.55 105.022C85.2513 105.041 84.8873 105.05 84.458 105.05C84.43 104.919 84.3833 104.756 84.318 104.56C84.262 104.373 84.1967 104.215 84.122 104.084C84.4207 104.093 84.696 104.098 84.948 104.098C85.2 104.098 85.3727 104.098 85.466 104.098C85.5593 104.089 85.62 104.065 85.648 104.028C85.6853 103.991 85.704 103.93 85.704 103.846V93.024ZM79.306 99.87V101.76H82.666V99.87H79.306ZM79.306 97.126V98.988H82.666V97.126H79.306ZM78.354 96.244H83.66V102.628H78.354V96.244ZM95 96.384C94.72 96.384 94.4727 96.2907 94.258 96.104C94.0433 95.908 93.936 95.6513 93.936 95.334C93.936 95.0167 94.0433 94.7647 94.258 94.578C94.4727 94.382 94.72 94.284 95 94.284C95.28 94.284 95.5273 94.382 95.742 94.578C95.9567 94.7647 96.064 95.0167 96.064 95.334C96.064 95.6513 95.9567 95.908 95.742 96.104C95.5273 96.2907 95.28 96.384 95 96.384ZM95 103.244C94.72 103.244 94.4727 103.151 94.258 102.964C94.0433 102.768 93.936 102.511 93.936 102.194C93.936 101.867 94.0433 101.611 94.258 101.424C94.4727 101.228 94.72 101.13 95 101.13C95.28 101.13 95.5273 101.228 95.742 101.424C95.9567 101.611 96.064 101.867 96.064 102.194C96.064 102.511 95.9567 102.768 95.742 102.964C95.5273 103.151 95.28 103.244 95 103.244ZM103.134 104V103.319L106.46 99.5803C106.894 99.0897 107.243 98.6705 107.509 98.3224C107.774 97.9744 107.966 97.6529 108.085 97.358C108.208 97.063 108.269 96.7564 108.269 96.4382C108.269 96.0504 108.178 95.7124 107.996 95.424C107.817 95.1323 107.57 94.9053 107.255 94.7429C106.94 94.5805 106.585 94.4993 106.191 94.4993C105.773 94.4993 105.407 94.5888 105.092 94.7678C104.781 94.9467 104.539 95.192 104.366 95.5036C104.194 95.8151 104.108 96.1731 104.108 96.5774H103.218C103.218 96.014 103.347 95.5152 103.606 95.081C103.868 94.6435 104.224 94.3004 104.675 94.0518C105.129 93.8033 105.643 93.679 106.216 93.679C106.783 93.679 107.286 93.8016 107.727 94.0469C108.168 94.2888 108.514 94.6186 108.766 95.0362C109.018 95.4538 109.144 95.9212 109.144 96.4382C109.144 96.8127 109.078 97.1757 108.945 97.527C108.816 97.8783 108.592 98.2694 108.274 98.7003C107.956 99.1312 107.515 99.6581 106.952 100.281L104.426 103.1V103.165H109.462V104H103.134ZM114.84 104.139C114.124 104.139 113.513 103.934 113.006 103.523C112.502 103.108 112.114 102.51 111.843 101.728C111.574 100.946 111.44 100.006 111.44 98.9091C111.44 97.8153 111.574 96.879 111.843 96.1001C112.114 95.3179 112.504 94.7197 113.011 94.3054C113.521 93.8878 114.131 93.679 114.84 93.679C115.55 93.679 116.158 93.8878 116.665 94.3054C117.175 94.7197 117.565 95.3179 117.833 96.1001C118.105 96.879 118.241 97.8153 118.241 98.9091C118.241 100.006 118.105 100.946 117.833 101.728C117.565 102.51 117.177 103.108 116.67 103.523C116.166 103.934 115.556 104.139 114.84 104.139ZM114.84 103.304C115.626 103.304 116.239 102.921 116.68 102.156C117.121 101.387 117.341 100.304 117.341 98.9091C117.341 97.9811 117.24 97.1889 117.038 96.5327C116.839 95.8731 116.552 95.3693 116.178 95.0213C115.807 94.6733 115.361 94.4993 114.84 94.4993C114.061 94.4993 113.45 94.8871 113.006 95.6626C112.562 96.4349 112.34 97.517 112.34 98.9091C112.34 99.8371 112.439 100.629 112.638 101.286C112.84 101.942 113.127 102.442 113.498 102.787C113.873 103.132 114.32 103.304 114.84 103.304ZM120.264 104V103.319L123.59 99.5803C124.025 99.0897 124.374 98.6705 124.639 98.3224C124.905 97.9744 125.097 97.6529 125.216 97.358C125.339 97.063 125.4 96.7564 125.4 96.4382C125.4 96.0504 125.309 95.7124 125.127 95.424C124.948 95.1323 124.701 94.9053 124.386 94.7429C124.071 94.5805 123.716 94.4993 123.322 94.4993C122.904 94.4993 122.538 94.5888 122.223 94.7678C121.912 94.9467 121.67 95.192 121.497 95.5036C121.325 95.8151 121.239 96.1731 121.239 96.5774H120.349C120.349 96.014 120.478 95.5152 120.737 95.081C120.999 94.6435 121.355 94.3004 121.806 94.0518C122.26 93.8033 122.773 93.679 123.347 93.679C123.914 93.679 124.417 93.8016 124.858 94.0469C125.299 94.2888 125.645 94.6186 125.897 95.0362C126.149 95.4538 126.275 95.9212 126.275 96.4382C126.275 96.8127 126.209 97.1757 126.076 97.527C125.947 97.8783 125.723 98.2694 125.405 98.7003C125.087 99.1312 124.646 99.6581 124.083 100.281L121.557 103.1V103.165H126.593V104H120.264ZM131.787 104.139C131.221 104.139 130.713 104.025 130.266 103.796C129.822 103.564 129.467 103.246 129.202 102.842C128.94 102.437 128.801 101.975 128.784 101.455H129.684C129.714 101.995 129.926 102.439 130.321 102.787C130.715 103.132 131.204 103.304 131.787 103.304C132.241 103.304 132.646 103.196 133 102.981C133.355 102.762 133.632 102.464 133.831 102.086C134.033 101.705 134.134 101.276 134.134 100.798C134.131 100.301 134.023 99.8636 133.811 99.4858C133.599 99.1046 133.31 98.8063 132.946 98.5909C132.584 98.3755 132.178 98.2678 131.728 98.2678C131.386 98.2644 131.051 98.3208 130.723 98.4368C130.395 98.5528 130.122 98.7019 129.903 98.8842L128.973 98.7649L129.585 93.8182H134.616V94.6534H130.365L129.958 98.0589H130.007C130.233 97.87 130.506 97.7159 130.828 97.5966C131.153 97.4773 131.496 97.4176 131.857 97.4176C132.457 97.4176 132.995 97.5618 133.473 97.8501C133.953 98.1385 134.333 98.5362 134.611 99.0433C134.893 99.5471 135.034 100.127 135.034 100.783C135.034 101.426 134.893 102.001 134.611 102.509C134.333 103.012 133.948 103.41 133.458 103.702C132.971 103.993 132.414 104.139 131.787 104.139ZM140.49 93.3409L137.209 105.531H136.379L139.66 93.3409H140.49ZM145.151 104.139C144.435 104.139 143.824 103.934 143.316 103.523C142.813 103.108 142.425 102.51 142.153 101.728C141.885 100.946 141.75 100.006 141.75 98.9091C141.75 97.8153 141.885 96.879 142.153 96.1001C142.425 95.3179 142.814 94.7197 143.321 94.3054C143.832 93.8878 144.442 93.679 145.151 93.679C145.86 93.679 146.468 93.8878 146.975 94.3054C147.486 94.7197 147.875 95.3179 148.144 96.1001C148.416 96.879 148.551 97.8153 148.551 98.9091C148.551 100.006 148.416 100.946 148.144 101.728C147.875 102.51 147.488 103.108 146.98 103.523C146.477 103.934 145.867 104.139 145.151 104.139ZM145.151 103.304C145.936 103.304 146.55 102.921 146.99 102.156C147.431 101.387 147.652 100.304 147.652 98.9091C147.652 97.9811 147.551 97.1889 147.348 96.5327C147.15 95.8731 146.863 95.3693 146.488 95.0213C146.117 94.6733 145.671 94.4993 145.151 94.4993C144.372 94.4993 143.761 94.8871 143.316 95.6626C142.872 96.4349 142.65 97.517 142.65 98.9091C142.65 99.8371 142.75 100.629 142.949 101.286C143.151 101.942 143.437 102.442 143.809 102.787C144.183 103.132 144.631 103.304 145.151 103.304ZM153.637 93.679C154.062 93.6823 154.473 93.7685 154.87 93.9375C155.271 94.1032 155.633 94.3717 155.954 94.7429C156.276 95.1108 156.531 95.6013 156.72 96.2145C156.909 96.8243 157.003 97.575 157.003 98.4666C157.003 99.2985 156.93 100.061 156.784 100.754C156.639 101.446 156.42 102.046 156.128 102.553C155.84 103.057 155.475 103.448 155.034 103.727C154.597 104.002 154.085 104.139 153.498 104.139C152.951 104.139 152.466 104.025 152.042 103.796C151.621 103.567 151.279 103.251 151.017 102.847C150.756 102.439 150.593 101.968 150.53 101.435H151.445C151.534 101.978 151.753 102.426 152.101 102.777C152.453 103.128 152.918 103.304 153.498 103.304C154.33 103.304 154.976 102.916 155.437 102.141C155.898 101.365 156.128 100.261 156.128 98.8295H156.064C155.904 99.1278 155.696 99.388 155.437 99.6101C155.182 99.8321 154.89 100.006 154.562 100.132C154.234 100.255 153.888 100.316 153.523 100.316C152.956 100.316 152.438 100.174 151.967 99.8885C151.496 99.6001 151.12 99.2074 150.838 98.7102C150.557 98.2098 150.416 97.6397 150.416 97C150.416 96.3968 150.548 95.8433 150.814 95.3395C151.082 94.8324 151.457 94.428 151.937 94.1264C152.421 93.8215 152.988 93.6723 153.637 93.679ZM153.637 94.5142C153.197 94.5142 152.801 94.6269 152.449 94.8523C152.101 95.0743 151.824 95.3743 151.619 95.7521C151.417 96.1267 151.316 96.5426 151.316 97C151.316 97.4607 151.417 97.88 151.619 98.2578C151.824 98.6323 152.101 98.9306 152.449 99.1527C152.801 99.3714 153.197 99.4808 153.637 99.4808C153.975 99.4808 154.29 99.4129 154.582 99.277C154.874 99.1378 155.126 98.9489 155.338 98.7102C155.553 98.4716 155.716 98.2015 155.825 97.8999C155.938 97.5949 155.982 97.2751 155.959 96.9403C155.919 96.4763 155.795 96.062 155.586 95.6974C155.381 95.3295 155.109 95.0412 154.771 94.8324C154.436 94.6203 154.058 94.5142 153.637 94.5142ZM162.447 93.3409L159.166 105.531H158.336L161.617 93.3409H162.447ZM167.108 104.139C166.392 104.139 165.781 103.934 165.273 103.523C164.77 103.108 164.382 102.51 164.11 101.728C163.842 100.946 163.707 100.006 163.707 98.9091C163.707 97.8153 163.842 96.879 164.11 96.1001C164.382 95.3179 164.771 94.7197 165.278 94.3054C165.789 93.8878 166.399 93.679 167.108 93.679C167.817 93.679 168.425 93.8878 168.933 94.3054C169.443 94.7197 169.832 95.3179 170.101 96.1001C170.373 96.879 170.509 97.8153 170.509 98.9091C170.509 100.006 170.373 100.946 170.101 101.728C169.832 102.51 169.445 103.108 168.938 103.523C168.434 103.934 167.824 104.139 167.108 104.139ZM167.108 103.304C167.893 103.304 168.507 102.921 168.947 102.156C169.388 101.387 169.609 100.304 169.609 98.9091C169.609 97.9811 169.508 97.1889 169.305 96.5327C169.107 95.8731 168.82 95.3693 168.445 95.0213C168.074 94.6733 167.628 94.4993 167.108 94.4993C166.329 94.4993 165.718 94.8871 165.273 95.6626C164.829 96.4349 164.607 97.517 164.607 98.9091C164.607 99.8371 164.707 100.629 164.906 101.286C165.108 101.942 165.394 102.442 165.766 102.787C166.14 103.132 166.588 103.304 167.108 103.304ZM175.51 104.139C174.943 104.139 174.436 104.025 173.989 103.796C173.545 103.564 173.19 103.246 172.925 102.842C172.663 102.437 172.524 101.975 172.507 101.455H173.407C173.437 101.995 173.649 102.439 174.043 102.787C174.438 103.132 174.927 103.304 175.51 103.304C175.964 103.304 176.368 103.196 176.723 102.981C177.078 102.762 177.354 102.464 177.553 102.086C177.755 101.705 177.857 101.276 177.857 100.798C177.853 100.301 177.746 99.8636 177.533 99.4858C177.321 99.1046 177.033 98.8063 176.668 98.5909C176.307 98.3755 175.901 98.2678 175.45 98.2678C175.109 98.2644 174.774 98.3208 174.446 98.4368C174.118 98.5528 173.844 98.7019 173.626 98.8842L172.696 98.7649L173.308 93.8182H178.339V94.6534H174.088L173.68 98.0589H173.73C173.955 97.87 174.229 97.7159 174.55 97.5966C174.875 97.4773 175.218 97.4176 175.58 97.4176C176.179 97.4176 176.718 97.5618 177.195 97.8501C177.676 98.1385 178.055 98.5362 178.334 99.0433C178.616 99.5471 178.756 100.127 178.756 100.783C178.756 101.426 178.616 102.001 178.334 102.509C178.055 103.012 177.671 103.41 177.18 103.702C176.693 103.993 176.136 104.139 175.51 104.139ZM184.809 104V103.319L188.135 99.5803C188.569 99.0897 188.919 98.6705 189.184 98.3224C189.449 97.9744 189.642 97.6529 189.761 97.358C189.884 97.063 189.945 96.7564 189.945 96.4382C189.945 96.0504 189.854 95.7124 189.672 95.424C189.493 95.1323 189.246 94.9053 188.931 94.7429C188.616 94.5805 188.261 94.4993 187.867 94.4993C187.449 94.4993 187.083 94.5888 186.768 94.7678C186.457 94.9467 186.215 95.192 186.042 95.5036C185.87 95.8151 185.784 96.1731 185.784 96.5774H184.894C184.894 96.014 185.023 95.5152 185.282 95.081C185.543 94.6435 185.9 94.3004 186.35 94.0518C186.805 93.8033 187.318 93.679 187.892 93.679C188.458 93.679 188.962 93.8016 189.403 94.0469C189.844 94.2888 190.19 94.6186 190.442 95.0362C190.694 95.4538 190.82 95.9212 190.82 96.4382C190.82 96.8127 190.754 97.1757 190.621 97.527C190.492 97.8783 190.268 98.2694 189.95 98.7003C189.632 99.1312 189.191 99.6581 188.627 100.281L186.102 103.1V103.165H191.138V104H184.809ZM196.66 104.139C196.034 104.139 195.474 104.027 194.98 103.801C194.486 103.572 194.095 103.256 193.807 102.852C193.518 102.447 193.366 101.982 193.349 101.455H194.289C194.305 101.826 194.42 102.151 194.632 102.429C194.844 102.704 195.126 102.92 195.477 103.075C195.828 103.228 196.22 103.304 196.65 103.304C197.121 103.304 197.535 103.216 197.893 103.04C198.255 102.865 198.536 102.625 198.738 102.32C198.944 102.011 199.047 101.663 199.047 101.276C199.047 100.865 198.942 100.502 198.733 100.187C198.525 99.8719 198.225 99.6267 197.834 99.451C197.446 99.2753 196.982 99.1875 196.442 99.1875H195.845V98.3523H196.442C196.882 98.3523 197.272 98.2727 197.61 98.1136C197.951 97.9512 198.22 97.7242 198.415 97.4325C198.611 97.1409 198.709 96.7978 198.709 96.4034C198.709 96.0289 198.624 95.6991 198.455 95.4141C198.286 95.129 198.047 94.9053 197.739 94.7429C197.434 94.5805 197.078 94.4993 196.67 94.4993C196.276 94.4993 195.915 94.5755 195.586 94.728C195.258 94.8804 194.993 95.0959 194.791 95.3743C194.592 95.6527 194.486 95.9825 194.473 96.3636H193.573C193.586 95.8333 193.732 95.3677 194.01 94.9666C194.292 94.5623 194.665 94.2474 195.129 94.022C195.596 93.7933 196.113 93.679 196.68 93.679C197.28 93.679 197.799 93.8016 198.236 94.0469C198.674 94.2921 199.012 94.6186 199.251 95.0263C199.492 95.4306 199.613 95.8764 199.613 96.3636C199.613 96.9437 199.456 97.4408 199.141 97.8551C198.826 98.2661 198.402 98.5511 197.868 98.7102V98.7749C198.518 98.9041 199.028 99.1925 199.4 99.6399C199.774 100.084 199.961 100.629 199.961 101.276C199.961 101.819 199.819 102.308 199.534 102.742C199.249 103.173 198.858 103.514 198.361 103.766C197.867 104.015 197.3 104.139 196.66 104.139ZM202.9 102.474C202.704 102.474 202.535 102.404 202.393 102.265C202.253 102.122 202.184 101.953 202.184 101.758C202.184 101.559 202.253 101.39 202.393 101.251C202.535 101.112 202.704 101.042 202.9 101.042C203.099 101.042 203.268 101.112 203.407 101.251C203.546 101.39 203.616 101.559 203.616 101.758C203.616 101.887 203.582 102.006 203.516 102.116C203.453 102.225 203.367 102.313 203.258 102.379C203.152 102.442 203.032 102.474 202.9 102.474ZM202.9 97.3082C202.704 97.3082 202.535 97.2386 202.393 97.0994C202.253 96.9569 202.184 96.7879 202.184 96.5923C202.184 96.3968 202.253 96.2294 202.393 96.0902C202.535 95.9477 202.704 95.8764 202.9 95.8764C203.099 95.8764 203.268 95.9477 203.407 96.0902C203.546 96.2294 203.616 96.3968 203.616 96.5923C203.616 96.7216 203.582 96.8409 203.516 96.9503C203.453 97.0597 203.367 97.1475 203.258 97.2138C203.152 97.2768 203.032 97.3082 202.9 97.3082ZM208.897 104.139C208.33 104.139 207.823 104.025 207.375 103.796C206.931 103.564 206.577 103.246 206.311 102.842C206.05 102.437 205.91 101.975 205.894 101.455H206.794C206.824 101.995 207.036 102.439 207.43 102.787C207.824 103.132 208.313 103.304 208.897 103.304C209.351 103.304 209.755 103.196 210.11 102.981C210.464 102.762 210.741 102.464 210.94 102.086C211.142 101.705 211.243 101.276 211.243 100.798C211.24 100.301 211.132 99.8636 210.92 99.4858C210.708 99.1046 210.42 98.8063 210.055 98.5909C209.694 98.3755 209.288 98.2678 208.837 98.2678C208.496 98.2644 208.161 98.3208 207.833 98.4368C207.505 98.5528 207.231 98.7019 207.012 98.8842L206.083 98.7649L206.694 93.8182H211.725V94.6534H207.475L207.067 98.0589H207.117C207.342 97.87 207.616 97.7159 207.937 97.5966C208.262 97.4773 208.605 97.4176 208.966 97.4176C209.566 97.4176 210.105 97.5618 210.582 97.8501C211.063 98.1385 211.442 98.5362 211.721 99.0433C212.002 99.5471 212.143 100.127 212.143 100.783C212.143 101.426 212.002 102.001 211.721 102.509C211.442 103.012 211.058 103.41 210.567 103.702C210.08 103.993 209.523 104.139 208.897 104.139ZM217.321 93.679C217.745 93.6823 218.156 93.7685 218.554 93.9375C218.955 94.1032 219.316 94.3717 219.638 94.7429C219.959 95.1108 220.214 95.6013 220.403 96.2145C220.592 96.8243 220.687 97.575 220.687 98.4666C220.687 99.2985 220.614 100.061 220.468 100.754C220.322 101.446 220.103 102.046 219.812 102.553C219.523 103.057 219.159 103.448 218.718 103.727C218.281 104.002 217.768 104.139 217.182 104.139C216.635 104.139 216.149 104.025 215.725 103.796C215.304 103.567 214.963 103.251 214.701 102.847C214.439 102.439 214.277 101.968 214.214 101.435H215.129C215.218 101.978 215.437 102.426 215.785 102.777C216.136 103.128 216.602 103.304 217.182 103.304C218.014 103.304 218.66 102.916 219.121 102.141C219.581 101.365 219.812 100.261 219.812 98.8295H219.747C219.588 99.1278 219.379 99.388 219.121 99.6101C218.866 99.8321 218.574 100.006 218.246 100.132C217.918 100.255 217.571 100.316 217.207 100.316C216.64 100.316 216.121 100.174 215.651 99.8885C215.18 99.6001 214.804 99.2074 214.522 98.7102C214.24 98.2098 214.099 97.6397 214.099 97C214.099 96.3968 214.232 95.8433 214.497 95.3395C214.766 94.8324 215.14 94.428 215.621 94.1264C216.105 93.8215 216.671 93.6723 217.321 93.679ZM217.321 94.5142C216.88 94.5142 216.484 94.6269 216.133 94.8523C215.785 95.0743 215.508 95.3743 215.303 95.7521C215.1 96.1267 214.999 96.5426 214.999 97C214.999 97.4607 215.1 97.88 215.303 98.2578C215.508 98.6323 215.785 98.9306 216.133 99.1527C216.484 99.3714 216.88 99.4808 217.321 99.4808C217.659 99.4808 217.974 99.4129 218.266 99.277C218.557 99.1378 218.809 98.9489 219.021 98.7102C219.237 98.4716 219.399 98.2015 219.509 97.8999C219.621 97.5949 219.666 97.2751 219.643 96.9403C219.603 96.4763 219.479 96.062 219.27 95.6974C219.064 95.3295 218.793 95.0412 218.455 94.8324C218.12 94.6203 217.742 94.5142 217.321 94.5142ZM223.531 102.474C223.335 102.474 223.166 102.404 223.023 102.265C222.884 102.122 222.815 101.953 222.815 101.758C222.815 101.559 222.884 101.39 223.023 101.251C223.166 101.112 223.335 101.042 223.531 101.042C223.729 101.042 223.898 101.112 224.038 101.251C224.177 101.39 224.246 101.559 224.246 101.758C224.246 101.887 224.213 102.006 224.147 102.116C224.084 102.225 223.998 102.313 223.888 102.379C223.782 102.442 223.663 102.474 223.531 102.474ZM223.531 97.3082C223.335 97.3082 223.166 97.2386 223.023 97.0994C222.884 96.9569 222.815 96.7879 222.815 96.5923C222.815 96.3968 222.884 96.2294 223.023 96.0902C223.166 95.9477 223.335 95.8764 223.531 95.8764C223.729 95.8764 223.898 95.9477 224.038 96.0902C224.177 96.2294 224.246 96.3968 224.246 96.5923C224.246 96.7216 224.213 96.8409 224.147 96.9503C224.084 97.0597 223.998 97.1475 223.888 97.2138C223.782 97.2768 223.663 97.3082 223.531 97.3082ZM229.528 104.139C228.961 104.139 228.454 104.025 228.006 103.796C227.562 103.564 227.207 103.246 226.942 102.842C226.68 102.437 226.541 101.975 226.525 101.455H227.425C227.454 101.995 227.666 102.439 228.061 102.787C228.455 103.132 228.944 103.304 229.528 103.304C229.982 103.304 230.386 103.196 230.741 102.981C231.095 102.762 231.372 102.464 231.571 102.086C231.773 101.705 231.874 101.276 231.874 100.798C231.871 100.301 231.763 99.8636 231.551 99.4858C231.339 99.1046 231.05 98.8063 230.686 98.5909C230.325 98.3755 229.919 98.2678 229.468 98.2678C229.126 98.2644 228.792 98.3208 228.464 98.4368C228.135 98.5528 227.862 98.7019 227.643 98.8842L226.714 98.7649L227.325 93.8182H232.356V94.6534H228.106L227.698 98.0589H227.748C227.973 97.87 228.247 97.7159 228.568 97.5966C228.893 97.4773 229.236 97.4176 229.597 97.4176C230.197 97.4176 230.736 97.5618 231.213 97.8501C231.693 98.1385 232.073 98.5362 232.351 99.0433C232.633 99.5471 232.774 100.127 232.774 100.783C232.774 101.426 232.633 102.001 232.351 102.509C232.073 103.012 231.689 103.41 231.198 103.702C230.711 103.993 230.154 104.139 229.528 104.139ZM237.952 93.679C238.376 93.6823 238.787 93.7685 239.185 93.9375C239.586 94.1032 239.947 94.3717 240.269 94.7429C240.59 95.1108 240.845 95.6013 241.034 96.2145C241.223 96.8243 241.318 97.575 241.318 98.4666C241.318 99.2985 241.245 100.061 241.099 100.754C240.953 101.446 240.734 102.046 240.443 102.553C240.154 103.057 239.79 103.448 239.349 103.727C238.911 104.002 238.399 104.139 237.813 104.139C237.266 104.139 236.78 104.025 236.356 103.796C235.935 103.567 235.594 103.251 235.332 102.847C235.07 102.439 234.908 101.968 234.845 101.435H235.759C235.849 101.978 236.068 102.426 236.416 102.777C236.767 103.128 237.233 103.304 237.813 103.304C238.645 103.304 239.291 102.916 239.752 102.141C240.212 101.365 240.443 100.261 240.443 98.8295H240.378C240.219 99.1278 240.01 99.388 239.752 99.6101C239.496 99.8321 239.205 100.006 238.877 100.132C238.548 100.255 238.202 100.316 237.838 100.316C237.271 100.316 236.752 100.174 236.281 99.8885C235.811 99.6001 235.435 99.2074 235.153 98.7102C234.871 98.2098 234.73 97.6397 234.73 97C234.73 96.3968 234.863 95.8433 235.128 95.3395C235.396 94.8324 235.771 94.428 236.252 94.1264C236.735 93.8215 237.302 93.6723 237.952 93.679ZM237.952 94.5142C237.511 94.5142 237.115 94.6269 236.764 94.8523C236.416 95.0743 236.139 95.3743 235.933 95.7521C235.731 96.1267 235.63 96.5426 235.63 97C235.63 97.4607 235.731 97.88 235.933 98.2578C236.139 98.6323 236.416 98.9306 236.764 99.1527C237.115 99.3714 237.511 99.4808 237.952 99.4808C238.29 99.4808 238.605 99.4129 238.896 99.277C239.188 99.1378 239.44 98.9489 239.652 98.7102C239.868 98.4716 240.03 98.2015 240.139 97.8999C240.252 97.5949 240.297 97.2751 240.274 96.9403C240.234 96.4763 240.11 96.062 239.901 95.6974C239.695 95.3295 239.423 95.0412 239.085 94.8324C238.751 94.6203 238.373 94.5142 237.952 94.5142ZM247.761 98.9091C247.761 97.7159 247.912 96.589 248.213 95.5284C248.515 94.4678 248.947 93.4735 249.511 92.5455H250.316C250.074 92.9366 249.852 93.379 249.65 93.8729C249.451 94.3667 249.279 94.8937 249.133 95.4538C248.987 96.014 248.874 96.5874 248.795 97.174C248.715 97.7573 248.676 98.3357 248.676 98.9091C248.676 99.6747 248.745 100.447 248.884 101.226C249.024 102.005 249.216 102.744 249.461 103.443C249.71 104.143 249.995 104.752 250.316 105.273H249.511C248.947 104.341 248.515 103.345 248.213 102.285C247.912 101.224 247.761 100.099 247.761 98.9091ZM259.217 93.8182H260.146V100.56C260.146 101.252 259.984 101.872 259.659 102.419C259.334 102.963 258.882 103.392 258.302 103.707C257.725 104.018 257.054 104.174 256.288 104.174C255.526 104.174 254.855 104.017 254.275 103.702C253.695 103.387 253.242 102.958 252.918 102.414C252.593 101.871 252.43 101.252 252.43 100.56V93.8182H253.36V100.495C253.36 101.035 253.481 101.518 253.723 101.942C253.965 102.363 254.305 102.694 254.742 102.936C255.183 103.178 255.698 103.299 256.288 103.299C256.878 103.299 257.394 103.178 257.835 102.936C258.275 102.694 258.615 102.363 258.854 101.942C259.096 101.518 259.217 101.035 259.217 100.495V93.8182ZM262.232 94.6534V93.8182H269.615V94.6534H266.388V104H265.458V94.6534H262.232ZM279.258 97H278.324C278.254 96.652 278.128 96.3305 277.946 96.0355C277.767 95.7372 277.541 95.477 277.27 95.255C276.998 95.0329 276.69 94.8606 276.345 94.7379C276 94.6153 275.627 94.554 275.226 94.554C274.583 94.554 273.997 94.7214 273.466 95.0561C272.939 95.3909 272.517 95.883 272.199 96.5327C271.884 97.179 271.726 97.9711 271.726 98.9091C271.726 99.8537 271.884 100.649 272.199 101.295C272.517 101.942 272.939 102.432 273.466 102.767C273.997 103.098 274.583 103.264 275.226 103.264C275.627 103.264 276 103.203 276.345 103.08C276.69 102.958 276.998 102.787 277.27 102.568C277.541 102.346 277.767 102.086 277.946 101.788C278.128 101.489 278.254 101.166 278.324 100.818H279.258C279.175 101.286 279.02 101.721 278.791 102.126C278.566 102.527 278.277 102.878 277.926 103.18C277.578 103.481 277.177 103.717 276.723 103.886C276.269 104.055 275.77 104.139 275.226 104.139C274.371 104.139 273.612 103.925 272.949 103.498C272.287 103.067 271.766 102.46 271.388 101.678C271.014 100.896 270.827 99.973 270.827 98.9091C270.827 97.8452 271.014 96.9221 271.388 96.1399C271.766 95.3577 272.287 94.7528 272.949 94.3253C273.612 93.8944 274.371 93.679 275.226 93.679C275.77 93.679 276.269 93.7635 276.723 93.9325C277.177 94.0982 277.578 94.3336 277.926 94.6385C278.277 94.9401 278.566 95.2914 278.791 95.6925C279.02 96.0935 279.175 96.5294 279.258 97ZM284.226 102.071V95.772H285.076V102.071H284.226ZM281.502 99.3466V98.4964H287.801V99.3466H281.502ZM293.49 104.139C292.84 104.139 292.262 104.017 291.754 103.771C291.247 103.526 290.85 103.191 290.561 102.767C290.273 102.339 290.129 101.857 290.129 101.32C290.129 100.899 290.217 100.507 290.392 100.142C290.568 99.7741 290.81 99.4659 291.118 99.2173C291.426 98.9654 291.773 98.8014 292.157 98.7251V98.6705C291.657 98.5246 291.254 98.2379 290.949 97.8104C290.644 97.3795 290.493 96.8906 290.497 96.3438C290.493 95.8366 290.623 95.3826 290.884 94.9815C291.146 94.5805 291.503 94.264 291.953 94.032C292.407 93.7966 292.919 93.679 293.49 93.679C294.056 93.679 294.565 93.7966 295.016 94.032C295.467 94.264 295.823 94.5805 296.085 94.9815C296.35 95.3826 296.484 95.8366 296.487 96.3438C296.484 96.8873 296.33 97.3762 296.025 97.8104C295.72 98.2412 295.319 98.5279 294.822 98.6705V98.7251C295.206 98.7981 295.551 98.9605 295.856 99.2124C296.161 99.4643 296.403 99.7741 296.582 100.142C296.761 100.507 296.85 100.899 296.85 101.32C296.85 101.857 296.704 102.339 296.413 102.767C296.124 103.191 295.727 103.526 295.22 103.771C294.716 104.017 294.139 104.139 293.49 104.139ZM293.49 103.304C293.973 103.304 294.398 103.218 294.762 103.045C295.13 102.87 295.417 102.629 295.622 102.325C295.831 102.02 295.936 101.67 295.936 101.276C295.936 100.868 295.828 100.505 295.612 100.187C295.397 99.8653 295.105 99.6117 294.737 99.4261C294.369 99.2372 293.954 99.1428 293.49 99.1428C293.026 99.1428 292.608 99.2372 292.237 99.4261C291.869 99.6117 291.577 99.8653 291.362 100.187C291.15 100.505 291.044 100.868 291.044 101.276C291.044 101.67 291.145 102.02 291.347 102.325C291.552 102.629 291.839 102.87 292.207 103.045C292.578 103.218 293.006 103.304 293.49 103.304ZM293.49 98.3473C293.887 98.3473 294.244 98.2628 294.558 98.0938C294.873 97.9247 295.122 97.6944 295.304 97.4027C295.49 97.1077 295.584 96.773 295.588 96.3984C295.584 96.0272 295.491 95.6991 295.309 95.4141C295.127 95.1257 294.878 94.902 294.563 94.7429C294.252 94.5805 293.894 94.4993 293.49 94.4993C293.085 94.4993 292.724 94.5805 292.406 94.7429C292.091 94.902 291.842 95.1257 291.66 95.4141C291.481 95.6991 291.393 96.0272 291.396 96.3984C291.393 96.773 291.483 97.1077 291.665 97.4027C291.851 97.6944 292.101 97.9247 292.416 98.0938C292.734 98.2628 293.092 98.3473 293.49 98.3473ZM301.097 98.9091C301.097 100.102 300.946 101.229 300.645 102.29C300.343 103.35 299.911 104.345 299.347 105.273H298.542C298.784 104.882 299.004 104.439 299.203 103.945C299.405 103.451 299.579 102.924 299.725 102.364C299.871 101.804 299.984 101.231 300.063 100.644C300.143 100.058 300.183 99.4792 300.183 98.9091C300.183 98.1435 300.113 97.3712 299.974 96.5923C299.835 95.8134 299.641 95.0743 299.392 94.375C299.147 93.6757 298.863 93.0658 298.542 92.5455H299.347C299.911 93.4768 300.343 94.4728 300.645 95.5334C300.946 96.594 301.097 97.7192 301.097 98.9091Z" fill="white"/>
<path d="M0 12C0 5.37258 5.37258 0 12 0H108.313C111.082 0 113.014 2.74593 112.078 5.35209L102.021 33.3521C101.451 34.9406 99.9445 36 98.2566 36H0V12Z" fill="url(#paint2_linear_6313_556)"/>
<path d="M27.0157 19.4102H35.4157V25.8102H33.5757V21.1542H28.7757V25.8902H27.0157V19.4102ZM34.1357 10.8662L35.6077 12.3702C34.829 12.6689 33.965 12.9302 33.0157 13.1542C32.0663 13.3675 31.0903 13.5435 30.0877 13.6822C29.0957 13.8209 28.125 13.9329 27.1757 14.0182C27.1437 13.7942 27.069 13.5222 26.9517 13.2022C26.845 12.8715 26.7383 12.5995 26.6317 12.3862C27.3143 12.3115 28.0023 12.2262 28.6957 12.1302C29.3997 12.0342 30.0823 11.9222 30.7437 11.7942C31.405 11.6662 32.0237 11.5275 32.5997 11.3782C33.1757 11.2182 33.6877 11.0475 34.1357 10.8662ZM30.2957 12.6742H32.1197V20.4182H30.2957V12.6742ZM26.0237 15.5382H36.2157V17.3622H26.0237V15.5382ZM28.2797 23.4902H34.3437V25.2342H28.2797V23.4902ZM22.0717 12.4662L23.1597 11.0742C23.4583 11.2235 23.7943 11.3942 24.1677 11.5862C24.541 11.7782 24.9037 11.9702 25.2557 12.1622C25.6183 12.3542 25.9117 12.5249 26.1357 12.6742L24.9997 14.2262C24.7863 14.0662 24.509 13.8849 24.1677 13.6822C23.8263 13.4795 23.469 13.2715 23.0957 13.0582C22.7223 12.8342 22.381 12.6369 22.0717 12.4662ZM21.3037 16.8982L22.3437 15.4742C22.6423 15.6022 22.9837 15.7622 23.3677 15.9542C23.7517 16.1462 24.125 16.3382 24.4877 16.5302C24.8503 16.7115 25.1437 16.8769 25.3677 17.0262L24.2957 18.6262C24.0823 18.4662 23.7997 18.2849 23.4477 18.0822C23.1063 17.8795 22.7437 17.6715 22.3597 17.4582C21.9757 17.2449 21.6237 17.0582 21.3037 16.8982ZM21.5437 24.4182C21.8317 24.0129 22.1463 23.5382 22.4877 22.9942C22.8397 22.4395 23.197 21.8529 23.5597 21.2342C23.9223 20.6049 24.2637 19.9809 24.5837 19.3622L25.9917 20.6422C25.7143 21.1969 25.4157 21.7675 25.0957 22.3542C24.7863 22.9409 24.4663 23.5169 24.1357 24.0822C23.8157 24.6475 23.4903 25.1915 23.1597 25.7142L21.5437 24.4182ZM44.8077 14.3542H51.0957V16.1942H44.8077V14.3542ZM50.1037 14.3542H51.9757C51.9757 14.3542 51.9757 14.4075 51.9757 14.5142C51.9757 14.6209 51.9703 14.7435 51.9597 14.8822C51.9597 15.0209 51.9597 15.1329 51.9597 15.2182C51.9277 16.8395 51.885 18.2209 51.8317 19.3622C51.789 20.4929 51.7357 21.4262 51.6717 22.1622C51.6077 22.8982 51.5277 23.4795 51.4317 23.9062C51.3357 24.3222 51.2237 24.6209 51.0957 24.8022C50.9037 25.0795 50.7063 25.2715 50.5037 25.3782C50.301 25.4955 50.0557 25.5809 49.7677 25.6342C49.5117 25.6769 49.1917 25.6982 48.8077 25.6982C48.4237 25.7089 48.0237 25.7035 47.6077 25.6822C47.597 25.4049 47.5383 25.0902 47.4317 24.7382C47.325 24.3862 47.1917 24.0769 47.0317 23.8102C47.4157 23.8422 47.7677 23.8635 48.0877 23.8742C48.4077 23.8742 48.653 23.8742 48.8237 23.8742C48.9623 23.8742 49.0743 23.8582 49.1597 23.8262C49.245 23.7835 49.3303 23.7142 49.4157 23.6182C49.5117 23.4902 49.5917 23.2449 49.6557 22.8822C49.7303 22.5089 49.7943 21.9809 49.8477 21.2982C49.901 20.6049 49.9437 19.7249 49.9757 18.6582C50.0183 17.5809 50.061 16.2795 50.1037 14.7542V14.3542ZM46.6157 11.1542H48.5197C48.5197 12.4022 48.5037 13.6129 48.4717 14.7862C48.4503 15.9489 48.3863 17.0635 48.2797 18.1302C48.173 19.1969 48.0023 20.1995 47.7677 21.1382C47.533 22.0769 47.213 22.9462 46.8077 23.7462C46.413 24.5462 45.8957 25.2609 45.2557 25.8902C45.1597 25.7195 45.0263 25.5382 44.8557 25.3462C44.6957 25.1649 44.525 24.9889 44.3437 24.8182C44.1623 24.6475 43.9917 24.5142 43.8317 24.4182C44.4077 23.8635 44.8717 23.2342 45.2237 22.5302C45.5863 21.8262 45.8583 21.0529 46.0397 20.2102C46.2317 19.3675 46.365 18.4662 46.4397 17.5062C46.525 16.5462 46.573 15.5382 46.5837 14.4822C46.605 13.4155 46.6157 12.3062 46.6157 11.1542ZM38.0397 12.1142H44.3277V13.7942H38.0397V12.1142ZM37.5117 15.8262H44.6157V17.5702H37.5117V15.8262ZM42.1037 19.0102L43.6557 18.5942C43.8477 19.0315 44.0397 19.5115 44.2317 20.0342C44.4343 20.5462 44.621 21.0475 44.7917 21.5382C44.9623 22.0289 45.0903 22.4555 45.1757 22.8182L43.5117 23.3462C43.437 22.9835 43.325 22.5515 43.1757 22.0502C43.0263 21.5489 42.8557 21.0315 42.6637 20.4982C42.4823 19.9649 42.2957 19.4689 42.1037 19.0102ZM38.1997 24.1622L38.0077 22.5462L38.8237 21.9382L44.0077 20.7222C44.0183 20.9675 44.0503 21.2502 44.1037 21.5702C44.1677 21.8902 44.2263 22.1462 44.2797 22.3382C43.309 22.5942 42.493 22.8129 41.8317 22.9942C41.1703 23.1649 40.621 23.3142 40.1837 23.4422C39.757 23.5595 39.4157 23.6609 39.1597 23.7462C38.9037 23.8315 38.701 23.9062 38.5517 23.9702C38.413 24.0235 38.2957 24.0875 38.1997 24.1622ZM38.1837 24.1462C38.1623 24.0289 38.1143 23.8635 38.0397 23.6502C37.9757 23.4369 37.901 23.2235 37.8157 23.0102C37.7303 22.7862 37.6503 22.5942 37.5757 22.4342C37.7357 22.3809 37.8743 22.2635 37.9917 22.0822C38.1197 21.9009 38.2477 21.6662 38.3757 21.3782C38.4397 21.2289 38.525 20.9942 38.6317 20.6742C38.749 20.3435 38.8717 19.9595 38.9997 19.5222C39.1277 19.0742 39.2557 18.5995 39.3837 18.0982C39.5117 17.5862 39.613 17.0795 39.6877 16.5782L41.5757 17.1062C41.4263 17.8102 41.2343 18.5249 40.9997 19.2502C40.765 19.9649 40.509 20.6582 40.2317 21.3302C39.965 21.9915 39.6983 22.5889 39.4317 23.1222V23.1702C39.4317 23.1702 39.3677 23.2022 39.2397 23.2662C39.1117 23.3302 38.9677 23.4155 38.8077 23.5222C38.6477 23.6289 38.5037 23.7409 38.3757 23.8582C38.2477 23.9649 38.1837 24.0609 38.1837 24.1462ZM54.6957 12.1302H59.3197V22.9302H54.6957V21.2182H57.5277V13.8422H54.6957V12.1302ZM54.8077 16.6262H58.0237V18.3062H54.8077V16.6262ZM53.7997 12.1302H55.5917V24.2262H53.7997V12.1302ZM59.9117 13.8262H68.2797V15.7302H59.9117V13.8262ZM64.6957 10.9782H66.6477V23.3462C66.6477 23.9222 66.573 24.3542 66.4237 24.6422C66.285 24.9409 66.0343 25.1649 65.6717 25.3142C65.3197 25.4635 64.8557 25.5595 64.2797 25.6022C63.7143 25.6449 63.0317 25.6609 62.2317 25.6502C62.189 25.3835 62.1037 25.0582 61.9757 24.6742C61.8477 24.3009 61.709 23.9809 61.5597 23.7142C61.9437 23.7249 62.3117 23.7355 62.6637 23.7462C63.0263 23.7569 63.3463 23.7622 63.6237 23.7622C63.901 23.7622 64.0983 23.7622 64.2157 23.7622C64.397 23.7622 64.5197 23.7302 64.5837 23.6662C64.6583 23.6022 64.6957 23.4902 64.6957 23.3302V10.9782ZM60.0877 17.6182L61.6717 16.7862C61.9277 17.1489 62.2103 17.5489 62.5197 17.9862C62.829 18.4129 63.117 18.8342 63.3837 19.2502C63.661 19.6555 63.8903 20.0075 64.0717 20.3062L62.3597 21.2982C62.2103 20.9889 62.0023 20.6209 61.7357 20.1942C61.4797 19.7675 61.2023 19.3302 60.9037 18.8822C60.6157 18.4235 60.3437 18.0022 60.0877 17.6182ZM69.8797 14.7222H71.8637V25.8742H69.8797V14.7222ZM70.1037 11.9062L71.6237 10.9782C71.869 11.2129 72.1197 11.4742 72.3757 11.7622C72.6423 12.0395 72.8823 12.3222 73.0957 12.6102C73.3197 12.8875 73.4903 13.1489 73.6077 13.3942L71.9917 14.4342C71.885 14.1995 71.725 13.9382 71.5117 13.6502C71.309 13.3515 71.085 13.0529 70.8397 12.7542C70.605 12.4449 70.3597 12.1622 70.1037 11.9062ZM74.1677 11.6662H82.8397V13.4582H74.1677V11.6662ZM81.7677 11.6662H83.7517V23.8262C83.7517 24.2742 83.7037 24.6209 83.6077 24.8662C83.5117 25.1222 83.3303 25.3249 83.0637 25.4742C82.797 25.6129 82.4717 25.6982 82.0877 25.7302C81.7037 25.7729 81.261 25.7942 80.7597 25.7942C80.717 25.5489 80.6423 25.2555 80.5357 24.9142C80.4397 24.5835 80.333 24.3062 80.2157 24.0822C80.4717 24.0929 80.7277 24.0982 80.9837 24.0982C81.2397 24.0982 81.4103 24.0982 81.4957 24.0982C81.6023 24.0982 81.6717 24.0769 81.7037 24.0342C81.7463 23.9915 81.7677 23.9169 81.7677 23.8102V11.6662ZM75.2077 19.9542V21.4902H78.2957V19.9542H75.2077ZM75.2077 16.8982V18.4182H78.2957V16.8982H75.2077ZM73.4957 15.3622H80.0877V23.0262H73.4957V15.3622Z" fill="white"/>
<defs>
<linearGradient id="paint0_linear_6313_556" x1="500" y1="12" x2="500" y2="144.029" gradientUnits="userSpaceOnUse">
<stop/>
<stop offset="1" stop-color="#1C0130"/>
</linearGradient>
<linearGradient id="paint1_linear_6313_556" x1="500" y1="12" x2="500" y2="134" gradientUnits="userSpaceOnUse">
<stop stop-color="#020103"/>
<stop offset="1" stop-color="#311645"/>
</linearGradient>
<linearGradient id="paint2_linear_6313_556" x1="3.66286e-08" y1="18.2353" x2="113.956" y2="15.7431" gradientUnits="userSpaceOnUse">
<stop stop-color="#413EFE"/>
<stop offset="1" stop-color="#9F38E5"/>
</linearGradient>
</defs>
</svg>
