<svg width="335" height="134" viewBox="0 0 335 134" fill="none" xmlns="http://www.w3.org/2000/svg">
<rect x="0.5" y="12.5" width="334" height="121" rx="3.5" fill="url(#paint0_linear_6254_1770)" stroke="url(#paint1_linear_6254_1770)"/>
<path d="M33.284 64.0882C34.376 64.0882 35.244 64.3542 35.888 64.8862C36.546 65.4182 36.924 66.2022 37.008 67.2382H36.154C36.042 66.4542 35.748 65.8662 35.272 65.4602C34.796 65.0542 34.124 64.8582 33.256 64.8582C32.444 64.8582 31.814 64.9982 31.352 65.2782C30.82 65.5862 30.568 66.0622 30.568 66.6922C30.568 67.2522 30.876 67.6862 31.506 68.0222C31.8 68.1622 32.444 68.3862 33.424 68.6662C34.698 69.0302 35.552 69.3382 36 69.6182C36.826 70.1082 37.246 70.8082 37.246 71.7182C37.246 72.5722 36.882 73.2582 36.168 73.7622C35.482 74.2382 34.572 74.4762 33.438 74.4762C32.29 74.4762 31.38 74.2102 30.722 73.6922C29.966 73.0902 29.546 72.1802 29.462 70.9762H30.302C30.4 71.9142 30.722 72.6142 31.282 73.0762C31.786 73.4822 32.5 73.6922 33.424 73.6922C34.306 73.6922 35.02 73.5102 35.566 73.1742C36.098 72.8242 36.378 72.3482 36.378 71.7602C36.378 71.0742 36.028 70.5422 35.356 70.1642C35.02 69.9682 34.292 69.7022 33.158 69.3942C31.968 69.0582 31.198 68.7922 30.862 68.5962C30.092 68.1622 29.714 67.5322 29.714 66.7202C29.714 65.8522 30.064 65.1942 30.792 64.7322C31.436 64.2982 32.276 64.0882 33.284 64.0882ZM40.341 64.7042V67.0422H42.231V67.7702H40.341V72.6702C40.341 72.9782 40.397 73.2162 40.509 73.3562C40.621 73.4822 40.831 73.5522 41.139 73.5522H42.049V74.2802H41.027C40.467 74.2802 40.061 74.1262 39.823 73.8462C39.599 73.5942 39.501 73.2022 39.501 72.6702V67.7702H37.961V67.0422H39.501V65.0542L40.341 64.7042ZM46.5652 66.8462C47.5732 66.8462 48.3292 67.1122 48.8192 67.6722C49.2392 68.1342 49.4632 68.7782 49.4632 69.6182V74.2802H48.6652V72.8942C48.3712 73.3142 47.9792 73.6782 47.5032 73.9582C46.9152 74.2942 46.2852 74.4762 45.5992 74.4762C44.8992 74.4762 44.3252 74.2942 43.9052 73.9442C43.4432 73.5802 43.2192 73.0902 43.2192 72.5022C43.2192 71.6622 43.5552 71.0462 44.2412 70.6542C44.8292 70.2762 45.6832 70.0802 46.7752 70.0802L48.6232 70.0522V69.6182C48.6232 68.2462 47.9232 67.5602 46.5232 67.5602C45.9352 67.5602 45.4592 67.6722 45.0812 67.9242C44.6612 68.1902 44.3952 68.5682 44.2832 69.0722L43.4572 69.0162C43.5972 68.2882 43.9612 67.7282 44.5492 67.3642C45.0672 67.0142 45.7392 66.8462 46.5652 66.8462ZM48.6232 70.7102L46.8172 70.7382C44.9832 70.7522 44.0732 71.3402 44.0732 72.4882C44.0732 72.8802 44.2272 73.1882 44.5352 73.4262C44.8432 73.6642 45.2632 73.7902 45.7672 73.7902C46.4952 73.7902 47.1672 73.5382 47.7552 73.0342C48.3292 72.5582 48.6232 72.0262 48.6232 71.4662V70.7102ZM54.2618 66.8462C54.6818 66.8462 55.0318 66.8882 55.3118 67.0002V67.8542C54.9338 67.7422 54.5698 67.7002 54.2058 67.7002C53.5618 67.7002 53.0298 67.9802 52.6378 68.5682C52.2458 69.1002 52.0638 69.7302 52.0638 70.4582V74.2802H51.2238V67.0422H52.0638V68.4282C52.2598 67.9802 52.5258 67.6162 52.8618 67.3502C53.2538 67.0142 53.7298 66.8462 54.2618 66.8462ZM58.0187 64.7042V67.0422H59.9087V67.7702H58.0187V72.6702C58.0187 72.9782 58.0747 73.2162 58.1867 73.3562C58.2987 73.4822 58.5087 73.5522 58.8167 73.5522H59.7267V74.2802H58.7047C58.1447 74.2802 57.7387 74.1262 57.5007 73.8462C57.2767 73.5942 57.1787 73.2022 57.1787 72.6702V67.7702H55.6387V67.0422H57.1787V65.0542L58.0187 64.7042ZM67.589 64.7042V67.0422H69.479V67.7702H67.589V72.6702C67.589 72.9782 67.645 73.2162 67.757 73.3562C67.869 73.4822 68.079 73.5522 68.387 73.5522H69.297V74.2802H68.275C67.715 74.2802 67.309 74.1262 67.071 73.8462C66.847 73.5942 66.749 73.2022 66.749 72.6702V67.7702H65.209V67.0422H66.749V65.0542L67.589 64.7042ZM71.5872 64.4382C71.7832 64.4382 71.9512 64.5082 72.0912 64.6482C72.2312 64.7602 72.3012 64.9282 72.3012 65.1382C72.3012 65.3342 72.2172 65.5022 72.0772 65.6422C71.9372 65.7682 71.7832 65.8382 71.5872 65.8382C71.3772 65.8382 71.2092 65.7682 71.0832 65.6422C70.9432 65.5022 70.8732 65.3342 70.8732 65.1382C70.8732 64.9282 70.9432 64.7602 71.0832 64.6482C71.2092 64.5082 71.3772 64.4382 71.5872 64.4382ZM71.1672 67.0422H72.0072V74.2802H71.1672V67.0422ZM77.1325 66.8462C78.2805 66.8462 79.0365 67.3362 79.4005 68.3302C79.6525 67.8402 79.9745 67.4762 80.3665 67.2242C80.7305 66.9722 81.1785 66.8462 81.6825 66.8462C82.4385 66.8462 83.0545 67.0842 83.5025 67.5602C83.9365 68.0362 84.1605 68.6942 84.1605 69.5482V74.2802H83.3205V69.6602C83.3205 68.9742 83.1805 68.4562 82.9005 68.1202C82.5925 67.7562 82.1025 67.5742 81.4585 67.5742C80.9265 67.5742 80.4925 67.7702 80.1425 68.1762C79.7785 68.5682 79.6105 69.0582 79.6105 69.6742V74.2802H78.7565V69.6602C78.7565 68.2602 78.1545 67.5742 76.9505 67.5742C76.4045 67.5742 75.9565 67.7842 75.5925 68.2322C75.2145 68.6662 75.0325 69.1982 75.0325 69.8282V74.2802H74.1925V67.0422H75.0325V68.1342C75.5505 67.2662 76.2505 66.8462 77.1325 66.8462ZM88.849 66.8462C89.997 66.8462 90.851 67.2242 91.425 68.0082C91.929 68.6942 92.209 69.6602 92.251 70.9062H86.371C86.413 71.7882 86.651 72.4882 87.085 72.9922C87.533 73.4962 88.121 73.7482 88.877 73.7482C89.535 73.7482 90.067 73.5662 90.473 73.2302C90.809 72.9362 91.061 72.5162 91.243 71.9562H92.097C91.929 72.6562 91.607 73.2302 91.131 73.6782C90.543 74.2102 89.801 74.4762 88.877 74.4762C87.855 74.4762 87.043 74.1262 86.441 73.4402C85.811 72.7402 85.503 71.8022 85.503 70.6542C85.503 69.5902 85.797 68.7082 86.399 67.9802C87.015 67.2242 87.827 66.8462 88.849 66.8462ZM88.863 67.5742C88.149 67.5742 87.575 67.8122 87.141 68.3162C86.707 68.8062 86.455 69.4362 86.385 70.2202H91.369C91.229 68.4562 90.389 67.5742 88.863 67.5742ZM96.2109 65.9082C96.4069 65.9082 96.5889 65.9782 96.7289 66.1182C96.8549 66.2442 96.9249 66.4122 96.9249 66.6222C96.9249 66.8182 96.8549 66.9862 96.7289 67.1262C96.5889 67.2662 96.4069 67.3362 96.2109 67.3362C96.0009 67.3362 95.8329 67.2662 95.6929 67.1262C95.5529 66.9862 95.4969 66.8182 95.4969 66.6222C95.4969 66.4122 95.5529 66.2442 95.6929 66.1182C95.8329 65.9782 96.0009 65.9082 96.2109 65.9082ZM96.2109 71.0322C96.4069 71.0322 96.5889 71.1022 96.7289 71.2422C96.8549 71.3682 96.9249 71.5362 96.9249 71.7462C96.9249 71.9422 96.8549 72.1102 96.7289 72.2502C96.5889 72.3902 96.4069 72.4602 96.2109 72.4602C96.0009 72.4602 95.8329 72.3902 95.6929 72.2502C95.5529 72.1102 95.4969 71.9422 95.4969 71.7462C95.4969 71.5362 95.5529 71.3682 95.6929 71.2422C95.8329 71.1022 96.0009 71.0322 96.2109 71.0322ZM111.037 64.0882C111.933 64.0882 112.675 64.3402 113.263 64.8722C113.851 65.3902 114.145 66.0762 114.145 66.9442C114.145 67.8122 113.809 68.5962 113.151 69.2962C112.829 69.6322 112.143 70.1642 111.079 70.8922C109.651 71.8582 108.867 72.7262 108.713 73.4962H114.159V74.2802H107.663C107.663 73.4402 107.985 72.6422 108.657 71.9002C109.063 71.4382 109.763 70.8642 110.757 70.1782C111.625 69.5622 112.185 69.1142 112.451 68.8482C112.997 68.2602 113.277 67.6162 113.277 66.9302C113.277 66.2722 113.067 65.7542 112.661 65.3902C112.255 65.0262 111.709 64.8442 111.023 64.8442C110.295 64.8442 109.721 65.0822 109.301 65.5722C108.853 66.0622 108.629 66.7762 108.629 67.7002H107.761C107.761 66.5802 108.069 65.6982 108.685 65.0542C109.273 64.4102 110.057 64.0882 111.037 64.0882ZM119.305 64.0882C120.509 64.0882 121.405 64.6342 121.993 65.7402C122.469 66.6222 122.721 67.7982 122.721 69.2822C122.721 70.7522 122.469 71.9282 121.993 72.8242C121.405 73.9162 120.509 74.4762 119.305 74.4762C118.101 74.4762 117.205 73.9162 116.617 72.8242C116.127 71.9282 115.889 70.7522 115.889 69.2822C115.889 67.7982 116.127 66.6222 116.617 65.7402C117.205 64.6342 118.101 64.0882 119.305 64.0882ZM119.305 64.8442C118.339 64.8442 117.639 65.3342 117.219 66.3282C116.911 67.0562 116.757 68.0502 116.757 69.2822C116.757 70.5142 116.911 71.4942 117.219 72.2362C117.639 73.2162 118.339 73.7202 119.305 73.7202C120.257 73.7202 120.957 73.2162 121.391 72.2362C121.699 71.4942 121.867 70.5142 121.867 69.2822C121.867 68.0502 121.699 67.0562 121.391 66.3282C120.957 65.3342 120.257 64.8442 119.305 64.8442ZM127.826 64.0882C128.722 64.0882 129.464 64.3402 130.052 64.8722C130.64 65.3902 130.934 66.0762 130.934 66.9442C130.934 67.8122 130.598 68.5962 129.94 69.2962C129.618 69.6322 128.932 70.1642 127.868 70.8922C126.44 71.8582 125.656 72.7262 125.502 73.4962H130.948V74.2802H124.452C124.452 73.4402 124.774 72.6422 125.446 71.9002C125.852 71.4382 126.552 70.8642 127.546 70.1782C128.414 69.5622 128.974 69.1142 129.24 68.8482C129.786 68.2602 130.066 67.6162 130.066 66.9302C130.066 66.2722 129.856 65.7542 129.45 65.3902C129.044 65.0262 128.498 64.8442 127.812 64.8442C127.084 64.8442 126.51 65.0822 126.09 65.5722C125.642 66.0622 125.418 66.7762 125.418 67.7002H124.55C124.55 66.5802 124.858 65.6982 125.474 65.0542C126.062 64.4102 126.846 64.0882 127.826 64.0882ZM133.463 64.2842H139.119V65.0682H134.177L133.827 68.7502H133.869C134.163 68.4002 134.527 68.1342 134.975 67.9522C135.381 67.7702 135.815 67.6862 136.277 67.6862C137.229 67.6862 137.999 67.9802 138.587 68.5682C139.189 69.1842 139.497 70.0242 139.497 71.1022C139.497 72.0822 139.147 72.9082 138.475 73.5522C137.817 74.1682 137.005 74.4762 136.025 74.4762C135.157 74.4762 134.429 74.2382 133.827 73.7622C133.141 73.2442 132.763 72.5302 132.693 71.6342H133.547C133.617 72.3062 133.897 72.8382 134.387 73.2162C134.821 73.5522 135.367 73.7342 136.025 73.7342C136.781 73.7342 137.411 73.4822 137.901 72.9922C138.391 72.4882 138.643 71.8582 138.643 71.1022C138.643 70.2482 138.405 69.5762 137.943 69.1002C137.495 68.6382 136.879 68.4142 136.109 68.4142C135.605 68.4142 135.143 68.5262 134.737 68.7502C134.317 68.9882 133.995 69.3242 133.771 69.7442H132.959L133.463 64.2842ZM145.917 62.8002H146.687L141.661 75.6802H140.891L145.917 62.8002ZM151.489 64.0882C152.693 64.0882 153.589 64.6342 154.177 65.7402C154.653 66.6222 154.905 67.7982 154.905 69.2822C154.905 70.7522 154.653 71.9282 154.177 72.8242C153.589 73.9162 152.693 74.4762 151.489 74.4762C150.285 74.4762 149.389 73.9162 148.801 72.8242C148.311 71.9282 148.073 70.7522 148.073 69.2822C148.073 67.7982 148.311 66.6222 148.801 65.7402C149.389 64.6342 150.285 64.0882 151.489 64.0882ZM151.489 64.8442C150.523 64.8442 149.823 65.3342 149.403 66.3282C149.095 67.0562 148.941 68.0502 148.941 69.2822C148.941 70.5142 149.095 71.4942 149.403 72.2362C149.823 73.2162 150.523 73.7202 151.489 73.7202C152.441 73.7202 153.141 73.2162 153.575 72.2362C153.883 71.4942 154.051 70.5142 154.051 69.2822C154.051 68.0502 153.883 67.0562 153.575 66.3282C153.141 65.3342 152.441 64.8442 151.489 64.8442ZM159.884 64.0882C160.906 64.0882 161.704 64.3542 162.278 64.8862C162.796 65.3622 163.062 65.9502 163.062 66.6782C163.062 67.2102 162.922 67.6722 162.656 68.0642C162.376 68.4562 161.956 68.7502 161.424 68.9182V68.9742C161.97 69.0862 162.432 69.3802 162.824 69.8562C163.216 70.3322 163.412 70.9062 163.412 71.5502C163.412 72.4182 163.104 73.1182 162.516 73.6502C161.9 74.1962 161.018 74.4762 159.884 74.4762C158.736 74.4762 157.868 74.1962 157.252 73.6502C156.65 73.1182 156.356 72.4182 156.356 71.5502C156.356 70.9062 156.552 70.3322 156.944 69.8562C157.322 69.3802 157.798 69.0862 158.358 68.9742V68.9182C157.812 68.7502 157.392 68.4562 157.112 68.0642C156.832 67.6722 156.706 67.2102 156.706 66.6782C156.706 65.9502 156.958 65.3622 157.49 64.8862C158.05 64.3542 158.848 64.0882 159.884 64.0882ZM159.884 64.8162C159.1 64.8162 158.498 65.0122 158.078 65.4042C157.714 65.7402 157.532 66.1742 157.532 66.7062C157.532 67.2522 157.7 67.7002 158.036 68.0362C158.442 68.4282 159.058 68.6242 159.884 68.6242C160.696 68.6242 161.312 68.4282 161.732 68.0362C162.068 67.7002 162.236 67.2522 162.236 66.7062C162.236 66.1742 162.054 65.7402 161.69 65.4042C161.256 65.0122 160.654 64.8162 159.884 64.8162ZM159.884 69.3242C159.016 69.3242 158.344 69.5342 157.868 69.9822C157.42 70.3742 157.196 70.9062 157.196 71.5502C157.196 72.1942 157.406 72.7262 157.854 73.1182C158.316 73.5382 158.988 73.7622 159.884 73.7622C160.766 73.7622 161.452 73.5382 161.928 73.1182C162.348 72.7262 162.572 72.1942 162.572 71.5502C162.572 70.9062 162.348 70.3742 161.9 69.9822C161.424 69.5342 160.752 69.3242 159.884 69.3242ZM169.706 62.8002H170.476L165.45 75.6802H164.68L169.706 62.8002ZM175.404 64.0882C176.3 64.0882 177.042 64.3402 177.63 64.8722C178.218 65.3902 178.512 66.0762 178.512 66.9442C178.512 67.8122 178.176 68.5962 177.518 69.2962C177.196 69.6322 176.51 70.1642 175.446 70.8922C174.018 71.8582 173.234 72.7262 173.08 73.4962H178.526V74.2802H172.03C172.03 73.4402 172.352 72.6422 173.024 71.9002C173.43 71.4382 174.13 70.8642 175.124 70.1782C175.992 69.5622 176.552 69.1142 176.818 68.8482C177.364 68.2602 177.644 67.6162 177.644 66.9302C177.644 66.2722 177.434 65.7542 177.028 65.3902C176.622 65.0262 176.076 64.8442 175.39 64.8442C174.662 64.8442 174.088 65.0822 173.668 65.5722C173.22 66.0622 172.996 66.7762 172.996 67.7002H172.128C172.128 66.5802 172.436 65.6982 173.052 65.0542C173.64 64.4102 174.424 64.0882 175.404 64.0882ZM183.799 64.0882C184.695 64.0882 185.437 64.3402 186.025 64.8722C186.613 65.3902 186.907 66.0762 186.907 66.9442C186.907 67.8122 186.571 68.5962 185.913 69.2962C185.591 69.6322 184.905 70.1642 183.841 70.8922C182.413 71.8582 181.629 72.7262 181.475 73.4962H186.921V74.2802H180.425C180.425 73.4402 180.747 72.6422 181.419 71.9002C181.825 71.4382 182.525 70.8642 183.519 70.1782C184.387 69.5622 184.947 69.1142 185.213 68.8482C185.759 68.2602 186.039 67.6162 186.039 66.9302C186.039 66.2722 185.829 65.7542 185.423 65.3902C185.017 65.0262 184.471 64.8442 183.785 64.8442C183.057 64.8442 182.483 65.0822 182.063 65.5722C181.615 66.0622 181.391 66.7762 181.391 67.7002H180.523C180.523 66.5802 180.831 65.6982 181.447 65.0542C182.035 64.4102 182.819 64.0882 183.799 64.0882ZM196.855 64.0882C197.751 64.0882 198.493 64.3402 199.081 64.8722C199.669 65.3902 199.963 66.0762 199.963 66.9442C199.963 67.8122 199.627 68.5962 198.969 69.2962C198.647 69.6322 197.961 70.1642 196.897 70.8922C195.469 71.8582 194.685 72.7262 194.531 73.4962H199.977V74.2802H193.481C193.481 73.4402 193.803 72.6422 194.475 71.9002C194.881 71.4382 195.581 70.8642 196.575 70.1782C197.443 69.5622 198.003 69.1142 198.269 68.8482C198.815 68.2602 199.095 67.6162 199.095 66.9302C199.095 66.2722 198.885 65.7542 198.479 65.3902C198.073 65.0262 197.527 64.8442 196.841 64.8442C196.113 64.8442 195.539 65.0822 195.119 65.5722C194.671 66.0622 194.447 66.7762 194.447 67.7002H193.579C193.579 66.5802 193.887 65.6982 194.503 65.0542C195.091 64.4102 195.875 64.0882 196.855 64.0882ZM204.13 64.2842H204.83V74.2802H203.962V65.3482C203.318 66.0482 202.52 66.5382 201.568 66.8182V65.9502C202.03 65.8102 202.492 65.6002 202.94 65.3202C203.388 65.0262 203.794 64.6762 204.13 64.2842ZM208.281 67.7282C208.477 67.7282 208.645 67.7982 208.785 67.9522C208.925 68.0782 208.995 68.2462 208.995 68.4562C208.995 68.6522 208.925 68.8202 208.785 68.9602C208.645 69.1002 208.477 69.1702 208.281 69.1702C208.071 69.1702 207.903 69.1002 207.777 68.9602C207.637 68.8202 207.567 68.6522 207.567 68.4562C207.567 68.2462 207.637 68.0782 207.777 67.9522C207.903 67.7982 208.071 67.7282 208.281 67.7282ZM208.281 72.8522C208.477 72.8522 208.645 72.9222 208.785 73.0762C208.925 73.2022 208.995 73.3702 208.995 73.5802C208.995 73.7762 208.925 73.9442 208.785 74.0842C208.645 74.2242 208.477 74.2942 208.281 74.2942C208.071 74.2942 207.903 74.2242 207.777 74.0842C207.637 73.9442 207.567 73.7762 207.567 73.5802C207.567 73.3702 207.637 73.2022 207.777 73.0762C207.903 72.9222 208.071 72.8522 208.281 72.8522ZM214.284 64.0882C215.488 64.0882 216.384 64.6342 216.972 65.7402C217.448 66.6222 217.7 67.7982 217.7 69.2822C217.7 70.7522 217.448 71.9282 216.972 72.8242C216.384 73.9162 215.488 74.4762 214.284 74.4762C213.08 74.4762 212.184 73.9162 211.596 72.8242C211.106 71.9282 210.868 70.7522 210.868 69.2822C210.868 67.7982 211.106 66.6222 211.596 65.7402C212.184 64.6342 213.08 64.0882 214.284 64.0882ZM214.284 64.8442C213.318 64.8442 212.618 65.3342 212.198 66.3282C211.89 67.0562 211.736 68.0502 211.736 69.2822C211.736 70.5142 211.89 71.4942 212.198 72.2362C212.618 73.2162 213.318 73.7202 214.284 73.7202C215.236 73.7202 215.936 73.2162 216.37 72.2362C216.678 71.4942 216.846 70.5142 216.846 69.2822C216.846 68.0502 216.678 67.0562 216.37 66.3282C215.936 65.3342 215.236 64.8442 214.284 64.8442ZM222.679 64.0882C223.883 64.0882 224.779 64.6342 225.367 65.7402C225.843 66.6222 226.095 67.7982 226.095 69.2822C226.095 70.7522 225.843 71.9282 225.367 72.8242C224.779 73.9162 223.883 74.4762 222.679 74.4762C221.475 74.4762 220.579 73.9162 219.991 72.8242C219.501 71.9282 219.263 70.7522 219.263 69.2822C219.263 67.7982 219.501 66.6222 219.991 65.7402C220.579 64.6342 221.475 64.0882 222.679 64.0882ZM222.679 64.8442C221.713 64.8442 221.013 65.3342 220.593 66.3282C220.285 67.0562 220.131 68.0502 220.131 69.2822C220.131 70.5142 220.285 71.4942 220.593 72.2362C221.013 73.2162 221.713 73.7202 222.679 73.7202C223.631 73.7202 224.331 73.2162 224.765 72.2362C225.073 71.4942 225.241 70.5142 225.241 69.2822C225.241 68.0502 225.073 67.0562 224.765 66.3282C224.331 65.3342 223.631 64.8442 222.679 64.8442ZM228.679 67.7282C228.875 67.7282 229.043 67.7982 229.183 67.9522C229.323 68.0782 229.393 68.2462 229.393 68.4562C229.393 68.6522 229.323 68.8202 229.183 68.9602C229.043 69.1002 228.875 69.1702 228.679 69.1702C228.469 69.1702 228.301 69.1002 228.175 68.9602C228.035 68.8202 227.965 68.6522 227.965 68.4562C227.965 68.2462 228.035 68.0782 228.175 67.9522C228.301 67.7982 228.469 67.7282 228.679 67.7282ZM228.679 72.8522C228.875 72.8522 229.043 72.9222 229.183 73.0762C229.323 73.2022 229.393 73.3702 229.393 73.5802C229.393 73.7762 229.323 73.9442 229.183 74.0842C229.043 74.2242 228.875 74.2942 228.679 74.2942C228.469 74.2942 228.301 74.2242 228.175 74.0842C228.035 73.9442 227.965 73.7762 227.965 73.5802C227.965 73.3702 228.035 73.2022 228.175 73.0762C228.301 72.9222 228.469 72.8522 228.679 72.8522ZM234.682 64.0882C235.886 64.0882 236.782 64.6342 237.37 65.7402C237.846 66.6222 238.098 67.7982 238.098 69.2822C238.098 70.7522 237.846 71.9282 237.37 72.8242C236.782 73.9162 235.886 74.4762 234.682 74.4762C233.478 74.4762 232.582 73.9162 231.994 72.8242C231.504 71.9282 231.266 70.7522 231.266 69.2822C231.266 67.7982 231.504 66.6222 231.994 65.7402C232.582 64.6342 233.478 64.0882 234.682 64.0882ZM234.682 64.8442C233.716 64.8442 233.016 65.3342 232.596 66.3282C232.288 67.0562 232.134 68.0502 232.134 69.2822C232.134 70.5142 232.288 71.4942 232.596 72.2362C233.016 73.2162 233.716 73.7202 234.682 73.7202C235.634 73.7202 236.334 73.2162 236.768 72.2362C237.076 71.4942 237.244 70.5142 237.244 69.2822C237.244 68.0502 237.076 67.0562 236.768 66.3282C236.334 65.3342 235.634 64.8442 234.682 64.8442ZM243.077 64.0882C244.281 64.0882 245.177 64.6342 245.765 65.7402C246.241 66.6222 246.493 67.7982 246.493 69.2822C246.493 70.7522 246.241 71.9282 245.765 72.8242C245.177 73.9162 244.281 74.4762 243.077 74.4762C241.873 74.4762 240.977 73.9162 240.389 72.8242C239.899 71.9282 239.661 70.7522 239.661 69.2822C239.661 67.7982 239.899 66.6222 240.389 65.7402C240.977 64.6342 241.873 64.0882 243.077 64.0882ZM243.077 64.8442C242.111 64.8442 241.411 65.3342 240.991 66.3282C240.683 67.0562 240.529 68.0502 240.529 69.2822C240.529 70.5142 240.683 71.4942 240.991 72.2362C241.411 73.2162 242.111 73.7202 243.077 73.7202C244.029 73.7202 244.729 73.2162 245.163 72.2362C245.471 71.4942 245.639 70.5142 245.639 69.2822C245.639 68.0502 245.471 67.0562 245.163 66.3282C244.729 65.3342 244.029 64.8442 243.077 64.8442ZM254.874 62.7022H255.644C255.084 63.6122 254.636 64.5782 254.314 65.6142C253.908 66.8462 253.712 68.0502 253.712 69.2402C253.712 70.4162 253.908 71.6342 254.314 72.8662C254.636 73.8882 255.084 74.8542 255.644 75.7782H254.874C254.286 74.8822 253.824 73.9162 253.488 72.8942C253.082 71.6622 252.886 70.4442 252.886 69.2402C252.886 68.0362 253.082 66.8182 253.488 65.6002C253.824 64.5642 254.286 63.5982 254.874 62.7022ZM257.618 64.2842H258.472V70.4162C258.472 71.4802 258.696 72.2922 259.172 72.8382C259.676 73.4122 260.446 73.7062 261.51 73.7062C262.574 73.7062 263.344 73.4122 263.848 72.8382C264.31 72.2922 264.548 71.4802 264.548 70.4162V64.2842H265.402V70.4162C265.402 71.7182 265.08 72.7122 264.464 73.3982C263.806 74.1122 262.826 74.4762 261.51 74.4762C260.194 74.4762 259.214 74.1122 258.57 73.4122C257.926 72.7122 257.618 71.7182 257.618 70.4162V64.2842ZM266.678 64.2842H274.868V65.0402H271.2V74.2802H270.346V65.0402H266.678V64.2842ZM280.455 64.0882C281.505 64.0882 282.415 64.3682 283.171 64.9562C283.955 65.5442 284.403 66.3282 284.529 67.3082H283.703C283.577 66.5382 283.199 65.9362 282.569 65.5022C281.967 65.0822 281.253 64.8722 280.441 64.8722C279.209 64.8722 278.257 65.3062 277.557 66.1742C276.899 66.9862 276.577 68.0362 276.577 69.3242C276.577 70.6122 276.899 71.6622 277.543 72.4462C278.215 73.2722 279.153 73.6922 280.357 73.6922C281.211 73.6922 281.939 73.4542 282.555 73.0062C283.213 72.5022 283.647 71.7882 283.843 70.8642H284.669C284.459 72.0122 283.941 72.9222 283.101 73.5802C282.331 74.1682 281.421 74.4762 280.371 74.4762C278.873 74.4762 277.711 73.9582 276.871 72.9362C276.101 71.9982 275.723 70.7942 275.723 69.3242C275.723 67.8542 276.115 66.6362 276.899 65.6702C277.753 64.6062 278.943 64.0882 280.455 64.0882ZM289.144 67.1262H289.872V70.2902H293.036V71.0182H289.872V74.1962H289.144V71.0182H285.966V70.2902H289.144V67.1262ZM297.942 64.0882C298.964 64.0882 299.762 64.3542 300.336 64.8862C300.854 65.3622 301.12 65.9502 301.12 66.6782C301.12 67.2102 300.98 67.6722 300.714 68.0642C300.434 68.4562 300.014 68.7502 299.482 68.9182V68.9742C300.028 69.0862 300.49 69.3802 300.882 69.8562C301.274 70.3322 301.47 70.9062 301.47 71.5502C301.47 72.4182 301.162 73.1182 300.574 73.6502C299.958 74.1962 299.076 74.4762 297.942 74.4762C296.794 74.4762 295.926 74.1962 295.31 73.6502C294.708 73.1182 294.414 72.4182 294.414 71.5502C294.414 70.9062 294.61 70.3322 295.002 69.8562C295.38 69.3802 295.856 69.0862 296.416 68.9742V68.9182C295.87 68.7502 295.45 68.4562 295.17 68.0642C294.89 67.6722 294.764 67.2102 294.764 66.6782C294.764 65.9502 295.016 65.3622 295.548 64.8862C296.108 64.3542 296.906 64.0882 297.942 64.0882ZM297.942 64.8162C297.158 64.8162 296.556 65.0122 296.136 65.4042C295.772 65.7402 295.59 66.1742 295.59 66.7062C295.59 67.2522 295.758 67.7002 296.094 68.0362C296.5 68.4282 297.116 68.6242 297.942 68.6242C298.754 68.6242 299.37 68.4282 299.79 68.0362C300.126 67.7002 300.294 67.2522 300.294 66.7062C300.294 66.1742 300.112 65.7402 299.748 65.4042C299.314 65.0122 298.712 64.8162 297.942 64.8162ZM297.942 69.3242C297.074 69.3242 296.402 69.5342 295.926 69.9822C295.478 70.3742 295.254 70.9062 295.254 71.5502C295.254 72.1942 295.464 72.7262 295.912 73.1182C296.374 73.5382 297.046 73.7622 297.942 73.7622C298.824 73.7622 299.51 73.5382 299.986 73.1182C300.406 72.7262 300.63 72.1942 300.63 71.5502C300.63 70.9062 300.406 70.3742 299.958 69.9822C299.482 69.5342 298.81 69.3242 297.942 69.3242ZM303.089 62.7022H303.859C304.433 63.5982 304.895 64.5642 305.245 65.6002C305.637 66.8182 305.847 68.0362 305.847 69.2402C305.847 70.4442 305.637 71.6622 305.245 72.8942C304.895 73.9162 304.433 74.8822 303.859 75.7782H303.089C303.649 74.8542 304.083 73.8882 304.419 72.8662C304.811 71.6342 305.021 70.4162 305.021 69.2402C305.021 68.0502 304.811 66.8462 304.419 65.6142C304.083 64.5782 303.649 63.6122 303.089 62.7022ZM30.022 94.2842H37.036V95.0402H30.876V98.7222H36.7V99.4922H30.876V103.524H37.274V104.28H30.022V94.2842ZM41.947 96.8462C43.739 96.8462 44.635 97.8402 44.635 99.8282V104.28H43.795V99.8842C43.795 98.3442 43.109 97.5742 41.737 97.5742C41.149 97.5742 40.673 97.7842 40.281 98.2042C39.861 98.6242 39.637 99.1982 39.595 99.9122V104.28H38.755V97.0422H39.595V98.2322C39.847 97.7982 40.169 97.4622 40.575 97.2102C40.981 96.9582 41.443 96.8462 41.947 96.8462ZM51.8576 94.0882H52.6976V104.28H51.8996V102.852C51.3956 103.93 50.5556 104.476 49.3656 104.476C48.3156 104.476 47.5036 104.084 46.9156 103.328C46.3836 102.628 46.1176 101.732 46.1176 100.654C46.1176 99.5902 46.3836 98.7082 46.9156 98.0082C47.5036 97.2242 48.3016 96.8462 49.3236 96.8462C50.4716 96.8462 51.3256 97.4202 51.8576 98.5682V94.0882ZM49.4776 97.5602C48.6516 97.5602 48.0216 97.8682 47.5736 98.4842C47.1676 99.0162 46.9716 99.7442 46.9716 100.654C46.9716 101.564 47.1676 102.292 47.5596 102.838C47.9936 103.454 48.6236 103.762 49.4496 103.762C50.2336 103.762 50.8496 103.454 51.2836 102.866C51.6756 102.32 51.8856 101.62 51.8856 100.766V100.598C51.8856 99.7022 51.6616 98.9882 51.2416 98.4282C50.7936 97.8402 50.2056 97.5602 49.4776 97.5602ZM58.4961 94.2842H66.6861V95.0402H63.0181V104.28H62.1641V95.0402H58.4961V94.2842ZM68.6615 94.4382C68.8575 94.4382 69.0255 94.5082 69.1655 94.6482C69.3055 94.7602 69.3755 94.9282 69.3755 95.1382C69.3755 95.3342 69.2915 95.5022 69.1515 95.6422C69.0115 95.7682 68.8575 95.8382 68.6615 95.8382C68.4515 95.8382 68.2835 95.7682 68.1575 95.6422C68.0175 95.5022 67.9475 95.3342 67.9475 95.1382C67.9475 94.9282 68.0175 94.7602 68.1575 94.6482C68.2835 94.5082 68.4515 94.4382 68.6615 94.4382ZM68.2415 97.0422H69.0815V104.28H68.2415V97.0422ZM74.2068 96.8462C75.3548 96.8462 76.1108 97.3362 76.4748 98.3302C76.7268 97.8402 77.0488 97.4762 77.4408 97.2242C77.8048 96.9722 78.2528 96.8462 78.7568 96.8462C79.5128 96.8462 80.1288 97.0842 80.5768 97.5602C81.0108 98.0362 81.2348 98.6942 81.2348 99.5482V104.28H80.3948V99.6602C80.3948 98.9742 80.2548 98.4562 79.9748 98.1202C79.6668 97.7562 79.1768 97.5742 78.5328 97.5742C78.0008 97.5742 77.5668 97.7702 77.2168 98.1762C76.8528 98.5682 76.6848 99.0582 76.6848 99.6742V104.28H75.8308V99.6602C75.8308 98.2602 75.2288 97.5742 74.0248 97.5742C73.4788 97.5742 73.0308 97.7842 72.6668 98.2322C72.2888 98.6662 72.1068 99.1982 72.1068 99.8282V104.28H71.2668V97.0422H72.1068V98.1342C72.6248 97.2662 73.3248 96.8462 74.2068 96.8462ZM85.9232 96.8462C87.0712 96.8462 87.9252 97.2242 88.4992 98.0082C89.0032 98.6942 89.2832 99.6602 89.3252 100.906H83.4452C83.4872 101.788 83.7252 102.488 84.1592 102.992C84.6072 103.496 85.1952 103.748 85.9512 103.748C86.6092 103.748 87.1412 103.566 87.5472 103.23C87.8832 102.936 88.1352 102.516 88.3172 101.956H89.1712C89.0032 102.656 88.6812 103.23 88.2052 103.678C87.6172 104.21 86.8752 104.476 85.9512 104.476C84.9292 104.476 84.1172 104.126 83.5152 103.44C82.8852 102.74 82.5772 101.802 82.5772 100.654C82.5772 99.5902 82.8712 98.7082 83.4732 97.9802C84.0892 97.2242 84.9012 96.8462 85.9232 96.8462ZM85.9372 97.5742C85.2232 97.5742 84.6492 97.8122 84.2152 98.3162C83.7812 98.8062 83.5292 99.4362 83.4592 100.22H88.4432C88.3032 98.4562 87.4632 97.5742 85.9372 97.5742ZM93.2852 95.9082C93.4812 95.9082 93.6632 95.9782 93.8032 96.1182C93.9292 96.2442 93.9992 96.4122 93.9992 96.6222C93.9992 96.8182 93.9292 96.9862 93.8032 97.1262C93.6632 97.2662 93.4812 97.3362 93.2852 97.3362C93.0752 97.3362 92.9072 97.2662 92.7672 97.1262C92.6272 96.9862 92.5712 96.8182 92.5712 96.6222C92.5712 96.4122 92.6272 96.2442 92.7672 96.1182C92.9072 95.9782 93.0752 95.9082 93.2852 95.9082ZM93.2852 101.032C93.4812 101.032 93.6632 101.102 93.8032 101.242C93.9292 101.368 93.9992 101.536 93.9992 101.746C93.9992 101.942 93.9292 102.11 93.8032 102.25C93.6632 102.39 93.4812 102.46 93.2852 102.46C93.0752 102.46 92.9072 102.39 92.7672 102.25C92.6272 102.11 92.5712 101.942 92.5712 101.746C92.5712 101.536 92.6272 101.368 92.7672 101.242C92.9072 101.102 93.0752 101.032 93.2852 101.032ZM108.111 94.0882C109.007 94.0882 109.749 94.3402 110.337 94.8722C110.925 95.3902 111.219 96.0762 111.219 96.9442C111.219 97.8122 110.883 98.5962 110.225 99.2962C109.903 99.6322 109.217 100.164 108.153 100.892C106.725 101.858 105.941 102.726 105.787 103.496H111.233V104.28H104.737C104.737 103.44 105.059 102.642 105.731 101.9C106.137 101.438 106.837 100.864 107.831 100.178C108.699 99.5622 109.259 99.1142 109.525 98.8482C110.071 98.2602 110.351 97.6162 110.351 96.9302C110.351 96.2722 110.141 95.7542 109.735 95.3902C109.329 95.0262 108.783 94.8442 108.097 94.8442C107.369 94.8442 106.795 95.0822 106.375 95.5722C105.927 96.0622 105.703 96.7762 105.703 97.7002H104.835C104.835 96.5802 105.143 95.6982 105.759 95.0542C106.347 94.4102 107.131 94.0882 108.111 94.0882ZM116.38 94.0882C117.584 94.0882 118.48 94.6342 119.068 95.7402C119.544 96.6222 119.796 97.7982 119.796 99.2822C119.796 100.752 119.544 101.928 119.068 102.824C118.48 103.916 117.584 104.476 116.38 104.476C115.176 104.476 114.28 103.916 113.692 102.824C113.202 101.928 112.964 100.752 112.964 99.2822C112.964 97.7982 113.202 96.6222 113.692 95.7402C114.28 94.6342 115.176 94.0882 116.38 94.0882ZM116.38 94.8442C115.414 94.8442 114.714 95.3342 114.294 96.3282C113.986 97.0562 113.832 98.0502 113.832 99.2822C113.832 100.514 113.986 101.494 114.294 102.236C114.714 103.216 115.414 103.72 116.38 103.72C117.332 103.72 118.032 103.216 118.466 102.236C118.774 101.494 118.942 100.514 118.942 99.2822C118.942 98.0502 118.774 97.0562 118.466 96.3282C118.032 95.3342 117.332 94.8442 116.38 94.8442ZM124.9 94.0882C125.796 94.0882 126.538 94.3402 127.126 94.8722C127.714 95.3902 128.008 96.0762 128.008 96.9442C128.008 97.8122 127.672 98.5962 127.014 99.2962C126.692 99.6322 126.006 100.164 124.942 100.892C123.514 101.858 122.73 102.726 122.576 103.496H128.022V104.28H121.526C121.526 103.44 121.848 102.642 122.52 101.9C122.926 101.438 123.626 100.864 124.62 100.178C125.488 99.5622 126.048 99.1142 126.314 98.8482C126.86 98.2602 127.14 97.6162 127.14 96.9302C127.14 96.2722 126.93 95.7542 126.524 95.3902C126.118 95.0262 125.572 94.8442 124.886 94.8442C124.158 94.8442 123.584 95.0822 123.164 95.5722C122.716 96.0622 122.492 96.7762 122.492 97.7002H121.624C121.624 96.5802 121.932 95.6982 122.548 95.0542C123.136 94.4102 123.92 94.0882 124.9 94.0882ZM130.537 94.2842H136.193V95.0682H131.251L130.901 98.7502H130.943C131.237 98.4002 131.601 98.1342 132.049 97.9522C132.455 97.7702 132.889 97.6862 133.351 97.6862C134.303 97.6862 135.073 97.9802 135.661 98.5682C136.263 99.1842 136.571 100.024 136.571 101.102C136.571 102.082 136.221 102.908 135.549 103.552C134.891 104.168 134.079 104.476 133.099 104.476C132.231 104.476 131.503 104.238 130.901 103.762C130.215 103.244 129.837 102.53 129.767 101.634H130.621C130.691 102.306 130.971 102.838 131.461 103.216C131.895 103.552 132.441 103.734 133.099 103.734C133.855 103.734 134.485 103.482 134.975 102.992C135.465 102.488 135.717 101.858 135.717 101.102C135.717 100.248 135.479 99.5762 135.017 99.1002C134.569 98.6382 133.953 98.4142 133.183 98.4142C132.679 98.4142 132.217 98.5262 131.811 98.7502C131.391 98.9882 131.069 99.3242 130.845 99.7442H130.033L130.537 94.2842ZM142.991 92.8002H143.761L138.735 105.68H137.965L142.991 92.8002ZM148.563 94.0882C149.767 94.0882 150.663 94.6342 151.251 95.7402C151.727 96.6222 151.979 97.7982 151.979 99.2822C151.979 100.752 151.727 101.928 151.251 102.824C150.663 103.916 149.767 104.476 148.563 104.476C147.359 104.476 146.463 103.916 145.875 102.824C145.385 101.928 145.147 100.752 145.147 99.2822C145.147 97.7982 145.385 96.6222 145.875 95.7402C146.463 94.6342 147.359 94.0882 148.563 94.0882ZM148.563 94.8442C147.597 94.8442 146.897 95.3342 146.477 96.3282C146.169 97.0562 146.015 98.0502 146.015 99.2822C146.015 100.514 146.169 101.494 146.477 102.236C146.897 103.216 147.597 103.72 148.563 103.72C149.515 103.72 150.215 103.216 150.649 102.236C150.957 101.494 151.125 100.514 151.125 99.2822C151.125 98.0502 150.957 97.0562 150.649 96.3282C150.215 95.3342 149.515 94.8442 148.563 94.8442ZM156.832 94.0882C158.036 94.0882 158.946 94.5362 159.548 95.4602C160.094 96.3002 160.374 97.4902 160.374 99.0302C160.374 100.598 160.066 101.872 159.478 102.88C158.834 103.944 157.938 104.476 156.818 104.476C155.026 104.476 154.004 103.594 153.724 101.844H154.578C154.802 103.104 155.558 103.734 156.832 103.734C157.672 103.734 158.344 103.3 158.834 102.46C159.296 101.648 159.534 100.612 159.534 99.3662V98.8762H159.478C159.24 99.4502 158.876 99.9122 158.386 100.262C157.896 100.598 157.336 100.766 156.706 100.766C155.754 100.766 154.984 100.458 154.41 99.8422C153.836 99.2402 153.556 98.4562 153.556 97.4902C153.556 96.5102 153.864 95.6982 154.48 95.0542C155.096 94.4102 155.88 94.0882 156.832 94.0882ZM156.86 94.8302C156.118 94.8302 155.53 95.0822 155.082 95.5862C154.634 96.0902 154.41 96.7202 154.41 97.4902C154.41 98.2462 154.62 98.8622 155.068 99.3382C155.516 99.8002 156.104 100.038 156.846 100.038C157.532 100.038 158.12 99.7862 158.61 99.2962C159.086 98.8062 159.338 98.2042 159.338 97.4762C159.338 96.7482 159.114 96.1322 158.694 95.6282C158.218 95.0962 157.616 94.8302 156.86 94.8302ZM166.78 92.8002H167.55L162.524 105.68H161.754L166.78 92.8002ZM172.352 94.0882C173.556 94.0882 174.452 94.6342 175.04 95.7402C175.516 96.6222 175.768 97.7982 175.768 99.2822C175.768 100.752 175.516 101.928 175.04 102.824C174.452 103.916 173.556 104.476 172.352 104.476C171.148 104.476 170.252 103.916 169.664 102.824C169.174 101.928 168.936 100.752 168.936 99.2822C168.936 97.7982 169.174 96.6222 169.664 95.7402C170.252 94.6342 171.148 94.0882 172.352 94.0882ZM172.352 94.8442C171.386 94.8442 170.686 95.3342 170.266 96.3282C169.958 97.0562 169.804 98.0502 169.804 99.2822C169.804 100.514 169.958 101.494 170.266 102.236C170.686 103.216 171.386 103.72 172.352 103.72C173.304 103.72 174.004 103.216 174.438 102.236C174.746 101.494 174.914 100.514 174.914 99.2822C174.914 98.0502 174.746 97.0562 174.438 96.3282C174.004 95.3342 173.304 94.8442 172.352 94.8442ZM178.115 94.2842H183.771V95.0682H178.829L178.479 98.7502H178.521C178.815 98.4002 179.179 98.1342 179.627 97.9522C180.033 97.7702 180.467 97.6862 180.929 97.6862C181.881 97.6862 182.651 97.9802 183.239 98.5682C183.841 99.1842 184.149 100.024 184.149 101.102C184.149 102.082 183.799 102.908 183.127 103.552C182.469 104.168 181.657 104.476 180.677 104.476C179.809 104.476 179.081 104.238 178.479 103.762C177.793 103.244 177.415 102.53 177.345 101.634H178.199C178.269 102.306 178.549 102.838 179.039 103.216C179.473 103.552 180.019 103.734 180.677 103.734C181.433 103.734 182.063 103.482 182.553 102.992C183.043 102.488 183.295 101.858 183.295 101.102C183.295 100.248 183.057 99.5762 182.595 99.1002C182.147 98.6382 181.531 98.4142 180.761 98.4142C180.257 98.4142 179.795 98.5262 179.389 98.7502C178.969 98.9882 178.647 99.3242 178.423 99.7442H177.611L178.115 94.2842ZM193.93 94.0882C194.826 94.0882 195.568 94.3402 196.156 94.8722C196.744 95.3902 197.038 96.0762 197.038 96.9442C197.038 97.8122 196.702 98.5962 196.044 99.2962C195.722 99.6322 195.036 100.164 193.972 100.892C192.544 101.858 191.76 102.726 191.606 103.496H197.052V104.28H190.556C190.556 103.44 190.878 102.642 191.55 101.9C191.956 101.438 192.656 100.864 193.65 100.178C194.518 99.5622 195.078 99.1142 195.344 98.8482C195.89 98.2602 196.17 97.6162 196.17 96.9302C196.17 96.2722 195.96 95.7542 195.554 95.3902C195.148 95.0262 194.602 94.8442 193.916 94.8442C193.188 94.8442 192.614 95.0822 192.194 95.5722C191.746 96.0622 191.522 96.7762 191.522 97.7002H190.654C190.654 96.5802 190.962 95.6982 191.578 95.0542C192.166 94.4102 192.95 94.0882 193.93 94.0882ZM202.296 94.0882C203.22 94.0882 203.976 94.3262 204.55 94.8162C205.11 95.3062 205.39 95.9642 205.39 96.7762C205.39 97.9242 204.844 98.6802 203.766 99.0442C204.34 99.2262 204.788 99.5202 205.11 99.9262C205.432 100.332 205.6 100.822 205.6 101.41C205.6 102.306 205.278 103.048 204.662 103.622C204.032 104.182 203.22 104.476 202.226 104.476C201.33 104.476 200.588 104.238 200 103.776C199.272 103.216 198.88 102.362 198.796 101.242H199.664C199.706 102.096 200 102.74 200.56 103.188C201.008 103.552 201.554 103.734 202.212 103.734C202.982 103.734 203.598 103.51 204.074 103.076C204.522 102.642 204.746 102.096 204.746 101.438C204.746 100.808 204.522 100.318 204.102 99.9542C203.682 99.5902 203.122 99.4222 202.408 99.4222H201.526V98.7222H202.324C203.038 98.7222 203.584 98.5542 203.976 98.2322C204.34 97.8962 204.536 97.4342 204.536 96.8182C204.536 96.2302 204.34 95.7542 203.962 95.3902C203.556 95.0262 202.996 94.8442 202.296 94.8442C201.596 94.8442 201.036 95.0402 200.63 95.4462C200.21 95.8382 199.958 96.3842 199.874 97.1122H199.02C199.104 96.1742 199.454 95.4322 200.056 94.8862C200.63 94.3542 201.372 94.0882 202.296 94.0882ZM208.199 97.7282C208.395 97.7282 208.563 97.7982 208.703 97.9522C208.843 98.0782 208.913 98.2462 208.913 98.4562C208.913 98.6522 208.843 98.8202 208.703 98.9602C208.563 99.1002 208.395 99.1702 208.199 99.1702C207.989 99.1702 207.821 99.1002 207.695 98.9602C207.555 98.8202 207.485 98.6522 207.485 98.4562C207.485 98.2462 207.555 98.0782 207.695 97.9522C207.821 97.7982 207.989 97.7282 208.199 97.7282ZM208.199 102.852C208.395 102.852 208.563 102.922 208.703 103.076C208.843 103.202 208.913 103.37 208.913 103.58C208.913 103.776 208.843 103.944 208.703 104.084C208.563 104.224 208.395 104.294 208.199 104.294C207.989 104.294 207.821 104.224 207.695 104.084C207.555 103.944 207.485 103.776 207.485 103.58C207.485 103.37 207.555 103.202 207.695 103.076C207.821 102.922 207.989 102.852 208.199 102.852ZM211.57 94.2842H217.226V95.0682H212.284L211.934 98.7502H211.976C212.27 98.4002 212.634 98.1342 213.082 97.9522C213.488 97.7702 213.922 97.6862 214.384 97.6862C215.336 97.6862 216.106 97.9802 216.694 98.5682C217.296 99.1842 217.604 100.024 217.604 101.102C217.604 102.082 217.254 102.908 216.582 103.552C215.924 104.168 215.112 104.476 214.132 104.476C213.264 104.476 212.536 104.238 211.934 103.762C211.248 103.244 210.87 102.53 210.8 101.634H211.654C211.724 102.306 212.004 102.838 212.494 103.216C212.928 103.552 213.474 103.734 214.132 103.734C214.888 103.734 215.518 103.482 216.008 102.992C216.498 102.488 216.75 101.858 216.75 101.102C216.75 100.248 216.512 99.5762 216.05 99.1002C215.602 98.6382 214.986 98.4142 214.216 98.4142C213.712 98.4142 213.25 98.5262 212.844 98.7502C212.424 98.9882 212.102 99.3242 211.878 99.7442H211.066L211.57 94.2842ZM222.47 94.0882C223.674 94.0882 224.584 94.5362 225.186 95.4602C225.732 96.3002 226.012 97.4902 226.012 99.0302C226.012 100.598 225.704 101.872 225.116 102.88C224.472 103.944 223.576 104.476 222.456 104.476C220.664 104.476 219.642 103.594 219.362 101.844H220.216C220.44 103.104 221.196 103.734 222.47 103.734C223.31 103.734 223.982 103.3 224.472 102.46C224.934 101.648 225.172 100.612 225.172 99.3662V98.8762H225.116C224.878 99.4502 224.514 99.9122 224.024 100.262C223.534 100.598 222.974 100.766 222.344 100.766C221.392 100.766 220.622 100.458 220.048 99.8422C219.474 99.2402 219.194 98.4562 219.194 97.4902C219.194 96.5102 219.502 95.6982 220.118 95.0542C220.734 94.4102 221.518 94.0882 222.47 94.0882ZM222.498 94.8302C221.756 94.8302 221.168 95.0822 220.72 95.5862C220.272 96.0902 220.048 96.7202 220.048 97.4902C220.048 98.2462 220.258 98.8622 220.706 99.3382C221.154 99.8002 221.742 100.038 222.484 100.038C223.17 100.038 223.758 99.7862 224.248 99.2962C224.724 98.8062 224.976 98.2042 224.976 97.4762C224.976 96.7482 224.752 96.1322 224.332 95.6282C223.856 95.0962 223.254 94.8302 222.498 94.8302ZM228.597 97.7282C228.793 97.7282 228.961 97.7982 229.101 97.9522C229.241 98.0782 229.311 98.2462 229.311 98.4562C229.311 98.6522 229.241 98.8202 229.101 98.9602C228.961 99.1002 228.793 99.1702 228.597 99.1702C228.387 99.1702 228.219 99.1002 228.093 98.9602C227.953 98.8202 227.883 98.6522 227.883 98.4562C227.883 98.2462 227.953 98.0782 228.093 97.9522C228.219 97.7982 228.387 97.7282 228.597 97.7282ZM228.597 102.852C228.793 102.852 228.961 102.922 229.101 103.076C229.241 103.202 229.311 103.37 229.311 103.58C229.311 103.776 229.241 103.944 229.101 104.084C228.961 104.224 228.793 104.294 228.597 104.294C228.387 104.294 228.219 104.224 228.093 104.084C227.953 103.944 227.883 103.776 227.883 103.58C227.883 103.37 227.953 103.202 228.093 103.076C228.219 102.922 228.387 102.852 228.597 102.852ZM231.968 94.2842H237.624V95.0682H232.682L232.332 98.7502H232.374C232.668 98.4002 233.032 98.1342 233.48 97.9522C233.886 97.7702 234.32 97.6862 234.782 97.6862C235.734 97.6862 236.504 97.9802 237.092 98.5682C237.694 99.1842 238.002 100.024 238.002 101.102C238.002 102.082 237.652 102.908 236.98 103.552C236.322 104.168 235.51 104.476 234.53 104.476C233.662 104.476 232.934 104.238 232.332 103.762C231.646 103.244 231.268 102.53 231.198 101.634H232.052C232.122 102.306 232.402 102.838 232.892 103.216C233.326 103.552 233.872 103.734 234.53 103.734C235.286 103.734 235.916 103.482 236.406 102.992C236.896 102.488 237.148 101.858 237.148 101.102C237.148 100.248 236.91 99.5762 236.448 99.1002C236 98.6382 235.384 98.4142 234.614 98.4142C234.11 98.4142 233.648 98.5262 233.242 98.7502C232.822 98.9882 232.5 99.3242 232.276 99.7442H231.464L231.968 94.2842ZM242.869 94.0882C244.073 94.0882 244.983 94.5362 245.585 95.4602C246.131 96.3002 246.411 97.4902 246.411 99.0302C246.411 100.598 246.103 101.872 245.515 102.88C244.871 103.944 243.975 104.476 242.855 104.476C241.063 104.476 240.041 103.594 239.761 101.844H240.615C240.839 103.104 241.595 103.734 242.869 103.734C243.709 103.734 244.381 103.3 244.871 102.46C245.333 101.648 245.571 100.612 245.571 99.3662V98.8762H245.515C245.277 99.4502 244.913 99.9122 244.423 100.262C243.933 100.598 243.373 100.766 242.743 100.766C241.791 100.766 241.021 100.458 240.447 99.8422C239.873 99.2402 239.593 98.4562 239.593 97.4902C239.593 96.5102 239.901 95.6982 240.517 95.0542C241.133 94.4102 241.917 94.0882 242.869 94.0882ZM242.897 94.8302C242.155 94.8302 241.567 95.0822 241.119 95.5862C240.671 96.0902 240.447 96.7202 240.447 97.4902C240.447 98.2462 240.657 98.8622 241.105 99.3382C241.553 99.8002 242.141 100.038 242.883 100.038C243.569 100.038 244.157 99.7862 244.647 99.2962C245.123 98.8062 245.375 98.2042 245.375 97.4762C245.375 96.7482 245.151 96.1322 244.731 95.6282C244.255 95.0962 243.653 94.8302 242.897 94.8302ZM254.792 92.7022H255.562C255.002 93.6122 254.554 94.5782 254.232 95.6142C253.826 96.8462 253.63 98.0502 253.63 99.2402C253.63 100.416 253.826 101.634 254.232 102.866C254.554 103.888 255.002 104.854 255.562 105.778H254.792C254.204 104.882 253.742 103.916 253.406 102.894C253 101.662 252.804 100.444 252.804 99.2402C252.804 98.0362 253 96.8182 253.406 95.6002C253.742 94.5642 254.204 93.5982 254.792 92.7022ZM257.536 94.2842H258.39V100.416C258.39 101.48 258.614 102.292 259.09 102.838C259.594 103.412 260.364 103.706 261.428 103.706C262.492 103.706 263.262 103.412 263.766 102.838C264.228 102.292 264.466 101.48 264.466 100.416V94.2842H265.32V100.416C265.32 101.718 264.998 102.712 264.382 103.398C263.724 104.112 262.744 104.476 261.428 104.476C260.112 104.476 259.132 104.112 258.488 103.412C257.844 102.712 257.536 101.718 257.536 100.416V94.2842ZM266.596 94.2842H274.786V95.0402H271.118V104.28H270.264V95.0402H266.596V94.2842ZM280.373 94.0882C281.423 94.0882 282.333 94.3682 283.089 94.9562C283.873 95.5442 284.321 96.3282 284.447 97.3082H283.621C283.495 96.5382 283.117 95.9362 282.487 95.5022C281.885 95.0822 281.171 94.8722 280.359 94.8722C279.127 94.8722 278.175 95.3062 277.475 96.1742C276.817 96.9862 276.495 98.0362 276.495 99.3242C276.495 100.612 276.817 101.662 277.461 102.446C278.133 103.272 279.071 103.692 280.275 103.692C281.129 103.692 281.857 103.454 282.473 103.006C283.131 102.502 283.565 101.788 283.761 100.864H284.587C284.377 102.012 283.859 102.922 283.019 103.58C282.249 104.168 281.339 104.476 280.289 104.476C278.791 104.476 277.629 103.958 276.789 102.936C276.019 101.998 275.641 100.794 275.641 99.3242C275.641 97.8542 276.033 96.6362 276.817 95.6702C277.671 94.6062 278.861 94.0882 280.373 94.0882ZM289.062 97.1262H289.79V100.29H292.954V101.018H289.79V104.196H289.062V101.018H285.884V100.29H289.062V97.1262ZM297.86 94.0882C298.882 94.0882 299.68 94.3542 300.254 94.8862C300.772 95.3622 301.038 95.9502 301.038 96.6782C301.038 97.2102 300.898 97.6722 300.632 98.0642C300.352 98.4562 299.932 98.7502 299.4 98.9182V98.9742C299.946 99.0862 300.408 99.3802 300.8 99.8562C301.192 100.332 301.388 100.906 301.388 101.55C301.388 102.418 301.08 103.118 300.492 103.65C299.876 104.196 298.994 104.476 297.86 104.476C296.712 104.476 295.844 104.196 295.228 103.65C294.626 103.118 294.332 102.418 294.332 101.55C294.332 100.906 294.528 100.332 294.92 99.8562C295.298 99.3802 295.774 99.0862 296.334 98.9742V98.9182C295.788 98.7502 295.368 98.4562 295.088 98.0642C294.808 97.6722 294.682 97.2102 294.682 96.6782C294.682 95.9502 294.934 95.3622 295.466 94.8862C296.026 94.3542 296.824 94.0882 297.86 94.0882ZM297.86 94.8162C297.076 94.8162 296.474 95.0122 296.054 95.4042C295.69 95.7402 295.508 96.1742 295.508 96.7062C295.508 97.2522 295.676 97.7002 296.012 98.0362C296.418 98.4282 297.034 98.6242 297.86 98.6242C298.672 98.6242 299.288 98.4282 299.708 98.0362C300.044 97.7002 300.212 97.2522 300.212 96.7062C300.212 96.1742 300.03 95.7402 299.666 95.4042C299.232 95.0122 298.63 94.8162 297.86 94.8162ZM297.86 99.3242C296.992 99.3242 296.32 99.5342 295.844 99.9822C295.396 100.374 295.172 100.906 295.172 101.55C295.172 102.194 295.382 102.726 295.83 103.118C296.292 103.538 296.964 103.762 297.86 103.762C298.742 103.762 299.428 103.538 299.904 103.118C300.324 102.726 300.548 102.194 300.548 101.55C300.548 100.906 300.324 100.374 299.876 99.9822C299.4 99.5342 298.728 99.3242 297.86 99.3242ZM303.007 92.7022H303.777C304.351 93.5982 304.813 94.5642 305.163 95.6002C305.555 96.8182 305.765 98.0362 305.765 99.2402C305.765 100.444 305.555 101.662 305.163 102.894C304.813 103.916 304.351 104.882 303.777 105.778H303.007C303.567 104.854 304.001 103.888 304.337 102.866C304.729 101.634 304.939 100.416 304.939 99.2402C304.939 98.0502 304.729 96.8462 304.337 95.6142C304.001 94.5782 303.567 93.6122 303.007 92.7022Z" fill="white"/>
<path d="M0 12C0 5.37258 5.37258 0 12 0H144.313C147.082 0 149.014 2.74593 148.078 5.35209L138.021 33.3521C137.451 34.9406 135.944 36 134.257 36H0V12Z" fill="url(#paint2_linear_6254_1770)"/>
<path d="M21.6245 24.4662V12.8298H29.7381V15.1139H24.437V17.5003H29.3233V19.7901H24.437V22.1821H29.7381V24.4662H21.6245ZM39.9654 15.7389L36.971 24.4662H33.7892L30.8006 15.7389H33.7267L35.3347 21.7503H35.4256L37.0392 15.7389H39.9654ZM44.829 24.631C43.9161 24.631 43.1282 24.451 42.4654 24.0912C41.8063 23.7276 41.2987 23.2105 40.9426 22.5401C40.5904 21.8658 40.4142 21.0647 40.4142 20.1366C40.4142 19.2351 40.5923 18.4472 40.9483 17.773C41.3044 17.095 41.8063 16.5685 42.454 16.1935C43.1017 15.8147 43.865 15.6253 44.7438 15.6253C45.365 15.6253 45.9332 15.7219 46.4483 15.915C46.9635 16.1082 47.4085 16.3942 47.7835 16.773C48.1585 17.1518 48.4502 17.6196 48.6585 18.1764C48.8669 18.7294 48.971 19.3639 48.971 20.0798V20.773H41.3858V19.1594H46.3858C46.382 18.8639 46.312 18.6007 46.1756 18.3696C46.0392 18.1385 45.8517 17.9586 45.6131 17.8298C45.3782 17.6972 45.1074 17.631 44.8006 17.631C44.49 17.631 44.2116 17.701 43.9654 17.8412C43.7192 17.9776 43.5241 18.1651 43.3801 18.4037C43.2362 18.6385 43.1604 18.9056 43.1529 19.2048V20.8469C43.1529 21.2029 43.2229 21.5154 43.3631 21.7844C43.5032 22.0495 43.7021 22.256 43.9597 22.4037C44.2173 22.5514 44.5241 22.6253 44.8801 22.6253C45.1264 22.6253 45.3498 22.5912 45.5506 22.523C45.7514 22.4548 45.9237 22.3544 46.0676 22.2219C46.2116 22.0893 46.3195 21.9264 46.3915 21.7332L48.9426 21.8071C48.8366 22.3791 48.6036 22.8772 48.2438 23.3014C47.8877 23.7219 47.4199 24.0495 46.8404 24.2844C46.2608 24.5154 45.5904 24.631 44.829 24.631ZM53.1685 19.4889V24.4662H50.3901V15.7389H53.0321V17.3412H53.1287C53.3219 16.8071 53.6514 16.3885 54.1174 16.0855C54.5833 15.7787 55.1382 15.6253 55.7821 15.6253C56.3958 15.6253 56.928 15.7635 57.3787 16.04C57.8333 16.3128 58.1855 16.6954 58.4355 17.1878C58.6893 17.6764 58.8143 18.2484 58.8105 18.9037V24.4662H56.0321V19.4491C56.0359 18.9643 55.9128 18.5855 55.6628 18.3128C55.4166 18.0401 55.0738 17.9037 54.6344 17.9037C54.3427 17.9037 54.0852 17.9681 53.8617 18.0969C53.642 18.2219 53.4715 18.4018 53.3503 18.6366C53.2329 18.8715 53.1723 19.1556 53.1685 19.4889ZM65.4568 15.7389V17.7844H59.9512V15.7389H65.4568ZM61.1046 13.648H63.883V21.7219C63.883 21.8923 63.9095 22.0306 63.9625 22.1366C64.0193 22.2389 64.1008 22.3128 64.2068 22.3582C64.3129 22.3999 64.4398 22.4207 64.5875 22.4207C64.6936 22.4207 64.8053 22.4113 64.9228 22.3923C65.044 22.3696 65.1349 22.3507 65.1955 22.3355L65.6159 24.3412C65.4834 24.3791 65.2959 24.4264 65.0534 24.4832C64.8148 24.5401 64.5288 24.576 64.1955 24.5912C63.544 24.6215 62.9853 24.5457 62.5193 24.3639C62.0572 24.1783 61.7031 23.8904 61.4568 23.5003C61.2144 23.1101 61.097 22.6196 61.1046 22.0287V13.648ZM70.312 24.4662V12.8298H75.1188C75.99 12.8298 76.7419 13.0003 77.3745 13.3412C78.0108 13.6783 78.5014 14.1499 78.846 14.756C79.1907 15.3582 79.3631 16.059 79.3631 16.8582C79.3631 17.6613 79.187 18.3639 78.8347 18.9662C78.4862 19.5647 77.9881 20.0287 77.3404 20.3582C76.6926 20.6878 75.9237 20.8526 75.0335 20.8526H72.0676V18.6366H74.5108C74.9351 18.6366 75.2892 18.5628 75.5733 18.4151C75.8612 18.2673 76.079 18.0609 76.2267 17.7957C76.3745 17.5268 76.4483 17.2143 76.4483 16.8582C76.4483 16.4984 76.3745 16.1878 76.2267 15.9264C76.079 15.6613 75.8612 15.4567 75.5733 15.3128C75.2854 15.1688 74.9313 15.0969 74.5108 15.0969H73.1245V24.4662H70.312ZM84.6571 24.631C83.7442 24.631 82.9564 24.451 82.2935 24.0912C81.6344 23.7276 81.1268 23.2105 80.7708 22.5401C80.4185 21.8658 80.2424 21.0647 80.2424 20.1366C80.2424 19.2351 80.4204 18.4472 80.7764 17.773C81.1325 17.095 81.6344 16.5685 82.2821 16.1935C82.9299 15.8147 83.6931 15.6253 84.5719 15.6253C85.1931 15.6253 85.7613 15.7219 86.2764 15.915C86.7916 16.1082 87.2367 16.3942 87.6117 16.773C87.9867 17.1518 88.2783 17.6196 88.4867 18.1764C88.695 18.7294 88.7992 19.3639 88.7992 20.0798V20.773H81.2139V19.1594H86.2139C86.2102 18.8639 86.1401 18.6007 86.0037 18.3696C85.8674 18.1385 85.6799 17.9586 85.4412 17.8298C85.2064 17.6972 84.9355 17.631 84.6287 17.631C84.3181 17.631 84.0397 17.701 83.7935 17.8412C83.5473 17.9776 83.3522 18.1651 83.2083 18.4037C83.0643 18.6385 82.9886 18.9056 82.981 19.2048V20.8469C82.981 21.2029 83.0511 21.5154 83.1912 21.7844C83.3314 22.0495 83.5302 22.256 83.7878 22.4037C84.0454 22.5514 84.3522 22.6253 84.7083 22.6253C84.9545 22.6253 85.178 22.5912 85.3787 22.523C85.5795 22.4548 85.7518 22.3544 85.8958 22.2219C86.0397 22.0893 86.1477 21.9264 86.2196 21.7332L88.7708 21.8071C88.6647 22.3791 88.4317 22.8772 88.0719 23.3014C87.7158 23.7219 87.248 24.0495 86.6685 24.2844C86.0889 24.5154 85.4185 24.631 84.6571 24.631ZM90.2182 24.4662V15.7389H92.9171V17.3298H93.008C93.1671 16.7541 93.4265 16.326 93.7864 16.0457C94.1462 15.7616 94.5648 15.6196 95.0421 15.6196C95.1709 15.6196 95.3034 15.6291 95.4398 15.648C95.5762 15.6632 95.7031 15.6878 95.8205 15.7219V18.1366C95.6879 18.0912 95.5137 18.0552 95.2978 18.0287C95.0856 18.0022 94.8962 17.9889 94.7296 17.9889C94.4 17.9889 94.1027 18.0628 93.8375 18.2105C93.5762 18.3544 93.3697 18.5571 93.2182 18.8185C93.0705 19.076 92.9966 19.3791 92.9966 19.7276V24.4662H90.2182ZM96.9526 24.4662V15.7389H99.731V24.4662H96.9526ZM98.3446 14.7219C97.9545 14.7219 97.6192 14.5931 97.3389 14.3355C97.0586 14.0741 96.9185 13.7597 96.9185 13.3923C96.9185 13.0287 97.0586 12.7181 97.3389 12.4605C97.6192 12.1991 97.9545 12.0685 98.3446 12.0685C98.7386 12.0685 99.0738 12.1991 99.3503 12.4605C99.6306 12.7181 99.7708 13.0287 99.7708 13.3923C99.7708 13.7597 99.6306 14.0741 99.3503 14.3355C99.0738 14.5931 98.7386 14.7219 98.3446 14.7219ZM105.573 24.631C104.657 24.631 103.869 24.4435 103.21 24.0685C102.554 23.6897 102.049 23.1632 101.693 22.4889C101.34 21.8109 101.164 21.0249 101.164 20.131C101.164 19.2332 101.34 18.4472 101.693 17.773C102.049 17.095 102.554 16.5685 103.21 16.1935C103.869 15.8147 104.657 15.6253 105.573 15.6253C106.49 15.6253 107.276 15.8147 107.931 16.1935C108.59 16.5685 109.096 17.095 109.448 17.773C109.804 18.4472 109.982 19.2332 109.982 20.131C109.982 21.0249 109.804 21.8109 109.448 22.4889C109.096 23.1632 108.59 23.6897 107.931 24.0685C107.276 24.4435 106.49 24.631 105.573 24.631ZM105.59 22.5344C105.924 22.5344 106.206 22.4321 106.437 22.2276C106.668 22.023 106.844 21.7389 106.965 21.3753C107.09 21.0116 107.153 20.5912 107.153 20.1139C107.153 19.6291 107.09 19.2048 106.965 18.8412C106.844 18.4776 106.668 18.1935 106.437 17.9889C106.206 17.7844 105.924 17.6821 105.59 17.6821C105.246 17.6821 104.954 17.7844 104.715 17.9889C104.481 18.1935 104.301 18.4776 104.176 18.8412C104.054 19.2048 103.994 19.6291 103.994 20.1139C103.994 20.5912 104.054 21.0116 104.176 21.3753C104.301 21.7389 104.481 22.023 104.715 22.2276C104.954 22.4321 105.246 22.5344 105.59 22.5344ZM114.593 24.5912C113.949 24.5912 113.364 24.4245 112.838 24.0912C112.311 23.7579 111.891 23.2579 111.576 22.5912C111.262 21.9245 111.105 21.0969 111.105 20.1082C111.105 19.0817 111.267 18.237 111.593 17.5741C111.919 16.9113 112.345 16.4207 112.872 16.1025C113.402 15.7844 113.972 15.6253 114.582 15.6253C115.04 15.6253 115.432 15.7048 115.758 15.8639C116.084 16.0192 116.353 16.22 116.565 16.4662C116.777 16.7124 116.938 16.9681 117.048 17.2332H117.105V12.8298H119.883V24.4662H117.133V23.0514H117.048C116.93 23.3204 116.764 23.5722 116.548 23.8071C116.332 24.0419 116.061 24.2313 115.735 24.3753C115.413 24.5192 115.033 24.5912 114.593 24.5912ZM115.559 22.4264C115.896 22.4264 116.184 22.3317 116.423 22.1423C116.661 21.9491 116.845 21.6783 116.974 21.3298C117.103 20.9813 117.167 20.5722 117.167 20.1026C117.167 19.6253 117.103 19.2143 116.974 18.8696C116.849 18.5249 116.665 18.2597 116.423 18.0741C116.184 17.8885 115.896 17.7957 115.559 17.7957C115.214 17.7957 114.923 17.8904 114.684 18.0798C114.445 18.2692 114.264 18.5363 114.139 18.881C114.017 19.2257 113.957 19.6329 113.957 20.1026C113.957 20.5722 114.019 20.9813 114.144 21.3298C114.269 21.6783 114.449 21.9491 114.684 22.1423C114.923 22.3317 115.214 22.4264 115.559 22.4264Z" fill="white"/>
<defs>
<linearGradient id="paint0_linear_6254_1770" x1="167.5" y1="12" x2="167.5" y2="144.029" gradientUnits="userSpaceOnUse">
<stop/>
<stop offset="1" stop-color="#1C0130"/>
</linearGradient>
<linearGradient id="paint1_linear_6254_1770" x1="167.5" y1="12" x2="167.5" y2="134" gradientUnits="userSpaceOnUse">
<stop stop-color="#020103"/>
<stop offset="1" stop-color="#311645"/>
</linearGradient>
<linearGradient id="paint2_linear_6254_1770" x1="4.81955e-08" y1="18.2353" x2="149.889" y2="13.922" gradientUnits="userSpaceOnUse">
<stop stop-color="#413EFE"/>
<stop offset="1" stop-color="#9F38E5"/>
</linearGradient>
</defs>
</svg>
