<svg width="1000" height="134" viewBox="0 0 1000 134" fill="none" xmlns="http://www.w3.org/2000/svg">
<rect x="0.5" y="12.5" width="999" height="121" rx="3.5" fill="url(#paint0_linear_6478_444)" stroke="url(#paint1_linear_6478_444)"/>
<path d="M36.284 63.808C37.376 63.808 38.244 64.074 38.888 64.606C39.546 65.138 39.924 65.922 40.008 66.958H39.154C39.042 66.174 38.748 65.586 38.272 65.18C37.796 64.774 37.124 64.578 36.256 64.578C35.444 64.578 34.814 64.718 34.352 64.998C33.82 65.306 33.568 65.782 33.568 66.412C33.568 66.972 33.876 67.406 34.506 67.742C34.8 67.882 35.444 68.106 36.424 68.386C37.698 68.75 38.552 69.058 39 69.338C39.826 69.828 40.246 70.528 40.246 71.438C40.246 72.292 39.882 72.978 39.168 73.482C38.482 73.958 37.572 74.196 36.438 74.196C35.29 74.196 34.38 73.93 33.722 73.412C32.966 72.81 32.546 71.9 32.462 70.696H33.302C33.4 71.634 33.722 72.334 34.282 72.796C34.786 73.202 35.5 73.412 36.424 73.412C37.306 73.412 38.02 73.23 38.566 72.894C39.098 72.544 39.378 72.068 39.378 71.48C39.378 70.794 39.028 70.262 38.356 69.884C38.02 69.688 37.292 69.422 36.158 69.114C34.968 68.778 34.198 68.512 33.862 68.316C33.092 67.882 32.714 67.252 32.714 66.44C32.714 65.572 33.064 64.914 33.792 64.452C34.436 64.018 35.276 63.808 36.284 63.808ZM43.341 64.424V66.762H45.231V67.49H43.341V72.39C43.341 72.698 43.397 72.936 43.509 73.076C43.621 73.202 43.831 73.272 44.139 73.272H45.049V74H44.027C43.467 74 43.061 73.846 42.823 73.566C42.599 73.314 42.501 72.922 42.501 72.39V67.49H40.961V66.762H42.501V64.774L43.341 64.424ZM49.5652 66.566C50.5732 66.566 51.3292 66.832 51.8192 67.392C52.2392 67.854 52.4632 68.498 52.4632 69.338V74H51.6652V72.614C51.3712 73.034 50.9792 73.398 50.5032 73.678C49.9152 74.014 49.2852 74.196 48.5992 74.196C47.8992 74.196 47.3252 74.014 46.9052 73.664C46.4432 73.3 46.2192 72.81 46.2192 72.222C46.2192 71.382 46.5552 70.766 47.2412 70.374C47.8292 69.996 48.6832 69.8 49.7752 69.8L51.6232 69.772V69.338C51.6232 67.966 50.9232 67.28 49.5232 67.28C48.9352 67.28 48.4592 67.392 48.0812 67.644C47.6612 67.91 47.3952 68.288 47.2832 68.792L46.4572 68.736C46.5972 68.008 46.9612 67.448 47.5492 67.084C48.0672 66.734 48.7392 66.566 49.5652 66.566ZM51.6232 70.43L49.8172 70.458C47.9832 70.472 47.0732 71.06 47.0732 72.208C47.0732 72.6 47.2272 72.908 47.5352 73.146C47.8432 73.384 48.2632 73.51 48.7672 73.51C49.4952 73.51 50.1672 73.258 50.7552 72.754C51.3292 72.278 51.6232 71.746 51.6232 71.186V70.43ZM57.2618 66.566C57.6818 66.566 58.0318 66.608 58.3118 66.72V67.574C57.9338 67.462 57.5698 67.42 57.2058 67.42C56.5618 67.42 56.0298 67.7 55.6378 68.288C55.2458 68.82 55.0638 69.45 55.0638 70.178V74H54.2238V66.762H55.0638V68.148C55.2598 67.7 55.5258 67.336 55.8618 67.07C56.2538 66.734 56.7298 66.566 57.2618 66.566ZM61.0187 64.424V66.762H62.9087V67.49H61.0187V72.39C61.0187 72.698 61.0747 72.936 61.1867 73.076C61.2987 73.202 61.5087 73.272 61.8167 73.272H62.7267V74H61.7047C61.1447 74 60.7387 73.846 60.5007 73.566C60.2767 73.314 60.1787 72.922 60.1787 72.39V67.49H58.6387V66.762H60.1787V64.774L61.0187 64.424ZM70.589 64.424V66.762H72.479V67.49H70.589V72.39C70.589 72.698 70.645 72.936 70.757 73.076C70.869 73.202 71.079 73.272 71.387 73.272H72.297V74H71.275C70.715 74 70.309 73.846 70.071 73.566C69.847 73.314 69.749 72.922 69.749 72.39V67.49H68.209V66.762H69.749V64.774L70.589 64.424ZM74.5872 64.158C74.7832 64.158 74.9512 64.228 75.0912 64.368C75.2312 64.48 75.3012 64.648 75.3012 64.858C75.3012 65.054 75.2172 65.222 75.0772 65.362C74.9372 65.488 74.7832 65.558 74.5872 65.558C74.3772 65.558 74.2092 65.488 74.0832 65.362C73.9432 65.222 73.8732 65.054 73.8732 64.858C73.8732 64.648 73.9432 64.48 74.0832 64.368C74.2092 64.228 74.3772 64.158 74.5872 64.158ZM74.1672 66.762H75.0072V74H74.1672V66.762ZM80.1325 66.566C81.2805 66.566 82.0365 67.056 82.4005 68.05C82.6525 67.56 82.9745 67.196 83.3665 66.944C83.7305 66.692 84.1785 66.566 84.6825 66.566C85.4385 66.566 86.0545 66.804 86.5025 67.28C86.9365 67.756 87.1605 68.414 87.1605 69.268V74H86.3205V69.38C86.3205 68.694 86.1805 68.176 85.9005 67.84C85.5925 67.476 85.1025 67.294 84.4585 67.294C83.9265 67.294 83.4925 67.49 83.1425 67.896C82.7785 68.288 82.6105 68.778 82.6105 69.394V74H81.7565V69.38C81.7565 67.98 81.1545 67.294 79.9505 67.294C79.4045 67.294 78.9565 67.504 78.5925 67.952C78.2145 68.386 78.0325 68.918 78.0325 69.548V74H77.1925V66.762H78.0325V67.854C78.5505 66.986 79.2505 66.566 80.1325 66.566ZM91.849 66.566C92.997 66.566 93.851 66.944 94.425 67.728C94.929 68.414 95.209 69.38 95.251 70.626H89.371C89.413 71.508 89.651 72.208 90.085 72.712C90.533 73.216 91.121 73.468 91.877 73.468C92.535 73.468 93.067 73.286 93.473 72.95C93.809 72.656 94.061 72.236 94.243 71.676H95.097C94.929 72.376 94.607 72.95 94.131 73.398C93.543 73.93 92.801 74.196 91.877 74.196C90.855 74.196 90.043 73.846 89.441 73.16C88.811 72.46 88.503 71.522 88.503 70.374C88.503 69.31 88.797 68.428 89.399 67.7C90.015 66.944 90.827 66.566 91.849 66.566ZM91.863 67.294C91.149 67.294 90.575 67.532 90.141 68.036C89.707 68.526 89.455 69.156 89.385 69.94H94.369C94.229 68.176 93.389 67.294 91.863 67.294ZM99.2109 65.628C99.4069 65.628 99.5889 65.698 99.7289 65.838C99.8549 65.964 99.9249 66.132 99.9249 66.342C99.9249 66.538 99.8549 66.706 99.7289 66.846C99.5889 66.986 99.4069 67.056 99.2109 67.056C99.0009 67.056 98.8329 66.986 98.6929 66.846C98.5529 66.706 98.4969 66.538 98.4969 66.342C98.4969 66.132 98.5529 65.964 98.6929 65.838C98.8329 65.698 99.0009 65.628 99.2109 65.628ZM99.2109 70.752C99.4069 70.752 99.5889 70.822 99.7289 70.962C99.8549 71.088 99.9249 71.256 99.9249 71.466C99.9249 71.662 99.8549 71.83 99.7289 71.97C99.5889 72.11 99.4069 72.18 99.2109 72.18C99.0009 72.18 98.8329 72.11 98.6929 71.97C98.5529 71.83 98.4969 71.662 98.4969 71.466C98.4969 71.256 98.5529 71.088 98.6929 70.962C98.8329 70.822 99.0009 70.752 99.2109 70.752ZM114.037 63.808C114.933 63.808 115.675 64.06 116.263 64.592C116.851 65.11 117.145 65.796 117.145 66.664C117.145 67.532 116.809 68.316 116.151 69.016C115.829 69.352 115.143 69.884 114.079 70.612C112.651 71.578 111.867 72.446 111.713 73.216H117.159V74H110.663C110.663 73.16 110.985 72.362 111.657 71.62C112.063 71.158 112.763 70.584 113.757 69.898C114.625 69.282 115.185 68.834 115.451 68.568C115.997 67.98 116.277 67.336 116.277 66.65C116.277 65.992 116.067 65.474 115.661 65.11C115.255 64.746 114.709 64.564 114.023 64.564C113.295 64.564 112.721 64.802 112.301 65.292C111.853 65.782 111.629 66.496 111.629 67.42H110.761C110.761 66.3 111.069 65.418 111.685 64.774C112.273 64.13 113.057 63.808 114.037 63.808ZM122.305 63.808C123.509 63.808 124.405 64.354 124.993 65.46C125.469 66.342 125.721 67.518 125.721 69.002C125.721 70.472 125.469 71.648 124.993 72.544C124.405 73.636 123.509 74.196 122.305 74.196C121.101 74.196 120.205 73.636 119.617 72.544C119.127 71.648 118.889 70.472 118.889 69.002C118.889 67.518 119.127 66.342 119.617 65.46C120.205 64.354 121.101 63.808 122.305 63.808ZM122.305 64.564C121.339 64.564 120.639 65.054 120.219 66.048C119.911 66.776 119.757 67.77 119.757 69.002C119.757 70.234 119.911 71.214 120.219 71.956C120.639 72.936 121.339 73.44 122.305 73.44C123.257 73.44 123.957 72.936 124.391 71.956C124.699 71.214 124.867 70.234 124.867 69.002C124.867 67.77 124.699 66.776 124.391 66.048C123.957 65.054 123.257 64.564 122.305 64.564ZM130.826 63.808C131.722 63.808 132.464 64.06 133.052 64.592C133.64 65.11 133.934 65.796 133.934 66.664C133.934 67.532 133.598 68.316 132.94 69.016C132.618 69.352 131.932 69.884 130.868 70.612C129.44 71.578 128.656 72.446 128.502 73.216H133.948V74H127.452C127.452 73.16 127.774 72.362 128.446 71.62C128.852 71.158 129.552 70.584 130.546 69.898C131.414 69.282 131.974 68.834 132.24 68.568C132.786 67.98 133.066 67.336 133.066 66.65C133.066 65.992 132.856 65.474 132.45 65.11C132.044 64.746 131.498 64.564 130.812 64.564C130.084 64.564 129.51 64.802 129.09 65.292C128.642 65.782 128.418 66.496 128.418 67.42H127.55C127.55 66.3 127.858 65.418 128.474 64.774C129.062 64.13 129.846 63.808 130.826 63.808ZM136.463 64.004H142.119V64.788H137.177L136.827 68.47H136.869C137.163 68.12 137.527 67.854 137.975 67.672C138.381 67.49 138.815 67.406 139.277 67.406C140.229 67.406 140.999 67.7 141.587 68.288C142.189 68.904 142.497 69.744 142.497 70.822C142.497 71.802 142.147 72.628 141.475 73.272C140.817 73.888 140.005 74.196 139.025 74.196C138.157 74.196 137.429 73.958 136.827 73.482C136.141 72.964 135.763 72.25 135.693 71.354H136.547C136.617 72.026 136.897 72.558 137.387 72.936C137.821 73.272 138.367 73.454 139.025 73.454C139.781 73.454 140.411 73.202 140.901 72.712C141.391 72.208 141.643 71.578 141.643 70.822C141.643 69.968 141.405 69.296 140.943 68.82C140.495 68.358 139.879 68.134 139.109 68.134C138.605 68.134 138.143 68.246 137.737 68.47C137.317 68.708 136.995 69.044 136.771 69.464H135.959L136.463 64.004ZM148.917 62.52H149.687L144.661 75.4H143.891L148.917 62.52ZM154.489 63.808C155.693 63.808 156.589 64.354 157.177 65.46C157.653 66.342 157.905 67.518 157.905 69.002C157.905 70.472 157.653 71.648 157.177 72.544C156.589 73.636 155.693 74.196 154.489 74.196C153.285 74.196 152.389 73.636 151.801 72.544C151.311 71.648 151.073 70.472 151.073 69.002C151.073 67.518 151.311 66.342 151.801 65.46C152.389 64.354 153.285 63.808 154.489 63.808ZM154.489 64.564C153.523 64.564 152.823 65.054 152.403 66.048C152.095 66.776 151.941 67.77 151.941 69.002C151.941 70.234 152.095 71.214 152.403 71.956C152.823 72.936 153.523 73.44 154.489 73.44C155.441 73.44 156.141 72.936 156.575 71.956C156.883 71.214 157.051 70.234 157.051 69.002C157.051 67.77 156.883 66.776 156.575 66.048C156.141 65.054 155.441 64.564 154.489 64.564ZM162.884 63.808C163.906 63.808 164.704 64.074 165.278 64.606C165.796 65.082 166.062 65.67 166.062 66.398C166.062 66.93 165.922 67.392 165.656 67.784C165.376 68.176 164.956 68.47 164.424 68.638V68.694C164.97 68.806 165.432 69.1 165.824 69.576C166.216 70.052 166.412 70.626 166.412 71.27C166.412 72.138 166.104 72.838 165.516 73.37C164.9 73.916 164.018 74.196 162.884 74.196C161.736 74.196 160.868 73.916 160.252 73.37C159.65 72.838 159.356 72.138 159.356 71.27C159.356 70.626 159.552 70.052 159.944 69.576C160.322 69.1 160.798 68.806 161.358 68.694V68.638C160.812 68.47 160.392 68.176 160.112 67.784C159.832 67.392 159.706 66.93 159.706 66.398C159.706 65.67 159.958 65.082 160.49 64.606C161.05 64.074 161.848 63.808 162.884 63.808ZM162.884 64.536C162.1 64.536 161.498 64.732 161.078 65.124C160.714 65.46 160.532 65.894 160.532 66.426C160.532 66.972 160.7 67.42 161.036 67.756C161.442 68.148 162.058 68.344 162.884 68.344C163.696 68.344 164.312 68.148 164.732 67.756C165.068 67.42 165.236 66.972 165.236 66.426C165.236 65.894 165.054 65.46 164.69 65.124C164.256 64.732 163.654 64.536 162.884 64.536ZM162.884 69.044C162.016 69.044 161.344 69.254 160.868 69.702C160.42 70.094 160.196 70.626 160.196 71.27C160.196 71.914 160.406 72.446 160.854 72.838C161.316 73.258 161.988 73.482 162.884 73.482C163.766 73.482 164.452 73.258 164.928 72.838C165.348 72.446 165.572 71.914 165.572 71.27C165.572 70.626 165.348 70.094 164.9 69.702C164.424 69.254 163.752 69.044 162.884 69.044ZM172.706 62.52H173.476L168.45 75.4H167.68L172.706 62.52ZM178.404 63.808C179.3 63.808 180.042 64.06 180.63 64.592C181.218 65.11 181.512 65.796 181.512 66.664C181.512 67.532 181.176 68.316 180.518 69.016C180.196 69.352 179.51 69.884 178.446 70.612C177.018 71.578 176.234 72.446 176.08 73.216H181.526V74H175.03C175.03 73.16 175.352 72.362 176.024 71.62C176.43 71.158 177.13 70.584 178.124 69.898C178.992 69.282 179.552 68.834 179.818 68.568C180.364 67.98 180.644 67.336 180.644 66.65C180.644 65.992 180.434 65.474 180.028 65.11C179.622 64.746 179.076 64.564 178.39 64.564C177.662 64.564 177.088 64.802 176.668 65.292C176.22 65.782 175.996 66.496 175.996 67.42H175.128C175.128 66.3 175.436 65.418 176.052 64.774C176.64 64.13 177.424 63.808 178.404 63.808ZM186.799 63.808C187.695 63.808 188.437 64.06 189.025 64.592C189.613 65.11 189.907 65.796 189.907 66.664C189.907 67.532 189.571 68.316 188.913 69.016C188.591 69.352 187.905 69.884 186.841 70.612C185.413 71.578 184.629 72.446 184.475 73.216H189.921V74H183.425C183.425 73.16 183.747 72.362 184.419 71.62C184.825 71.158 185.525 70.584 186.519 69.898C187.387 69.282 187.947 68.834 188.213 68.568C188.759 67.98 189.039 67.336 189.039 66.65C189.039 65.992 188.829 65.474 188.423 65.11C188.017 64.746 187.471 64.564 186.785 64.564C186.057 64.564 185.483 64.802 185.063 65.292C184.615 65.782 184.391 66.496 184.391 67.42H183.523C183.523 66.3 183.831 65.418 184.447 64.774C185.035 64.13 185.819 63.808 186.799 63.808ZM199.855 63.808C200.751 63.808 201.493 64.06 202.081 64.592C202.669 65.11 202.963 65.796 202.963 66.664C202.963 67.532 202.627 68.316 201.969 69.016C201.647 69.352 200.961 69.884 199.897 70.612C198.469 71.578 197.685 72.446 197.531 73.216H202.977V74H196.481C196.481 73.16 196.803 72.362 197.475 71.62C197.881 71.158 198.581 70.584 199.575 69.898C200.443 69.282 201.003 68.834 201.269 68.568C201.815 67.98 202.095 67.336 202.095 66.65C202.095 65.992 201.885 65.474 201.479 65.11C201.073 64.746 200.527 64.564 199.841 64.564C199.113 64.564 198.539 64.802 198.119 65.292C197.671 65.782 197.447 66.496 197.447 67.42H196.579C196.579 66.3 196.887 65.418 197.503 64.774C198.091 64.13 198.875 63.808 199.855 63.808ZM207.13 64.004H207.83V74H206.962V65.068C206.318 65.768 205.52 66.258 204.568 66.538V65.67C205.03 65.53 205.492 65.32 205.94 65.04C206.388 64.746 206.794 64.396 207.13 64.004ZM211.281 67.448C211.477 67.448 211.645 67.518 211.785 67.672C211.925 67.798 211.995 67.966 211.995 68.176C211.995 68.372 211.925 68.54 211.785 68.68C211.645 68.82 211.477 68.89 211.281 68.89C211.071 68.89 210.903 68.82 210.777 68.68C210.637 68.54 210.567 68.372 210.567 68.176C210.567 67.966 210.637 67.798 210.777 67.672C210.903 67.518 211.071 67.448 211.281 67.448ZM211.281 72.572C211.477 72.572 211.645 72.642 211.785 72.796C211.925 72.922 211.995 73.09 211.995 73.3C211.995 73.496 211.925 73.664 211.785 73.804C211.645 73.944 211.477 74.014 211.281 74.014C211.071 74.014 210.903 73.944 210.777 73.804C210.637 73.664 210.567 73.496 210.567 73.3C210.567 73.09 210.637 72.922 210.777 72.796C210.903 72.642 211.071 72.572 211.281 72.572ZM217.284 63.808C218.488 63.808 219.384 64.354 219.972 65.46C220.448 66.342 220.7 67.518 220.7 69.002C220.7 70.472 220.448 71.648 219.972 72.544C219.384 73.636 218.488 74.196 217.284 74.196C216.08 74.196 215.184 73.636 214.596 72.544C214.106 71.648 213.868 70.472 213.868 69.002C213.868 67.518 214.106 66.342 214.596 65.46C215.184 64.354 216.08 63.808 217.284 63.808ZM217.284 64.564C216.318 64.564 215.618 65.054 215.198 66.048C214.89 66.776 214.736 67.77 214.736 69.002C214.736 70.234 214.89 71.214 215.198 71.956C215.618 72.936 216.318 73.44 217.284 73.44C218.236 73.44 218.936 72.936 219.37 71.956C219.678 71.214 219.846 70.234 219.846 69.002C219.846 67.77 219.678 66.776 219.37 66.048C218.936 65.054 218.236 64.564 217.284 64.564ZM225.679 63.808C226.883 63.808 227.779 64.354 228.367 65.46C228.843 66.342 229.095 67.518 229.095 69.002C229.095 70.472 228.843 71.648 228.367 72.544C227.779 73.636 226.883 74.196 225.679 74.196C224.475 74.196 223.579 73.636 222.991 72.544C222.501 71.648 222.263 70.472 222.263 69.002C222.263 67.518 222.501 66.342 222.991 65.46C223.579 64.354 224.475 63.808 225.679 63.808ZM225.679 64.564C224.713 64.564 224.013 65.054 223.593 66.048C223.285 66.776 223.131 67.77 223.131 69.002C223.131 70.234 223.285 71.214 223.593 71.956C224.013 72.936 224.713 73.44 225.679 73.44C226.631 73.44 227.331 72.936 227.765 71.956C228.073 71.214 228.241 70.234 228.241 69.002C228.241 67.77 228.073 66.776 227.765 66.048C227.331 65.054 226.631 64.564 225.679 64.564ZM231.679 67.448C231.875 67.448 232.043 67.518 232.183 67.672C232.323 67.798 232.393 67.966 232.393 68.176C232.393 68.372 232.323 68.54 232.183 68.68C232.043 68.82 231.875 68.89 231.679 68.89C231.469 68.89 231.301 68.82 231.175 68.68C231.035 68.54 230.965 68.372 230.965 68.176C230.965 67.966 231.035 67.798 231.175 67.672C231.301 67.518 231.469 67.448 231.679 67.448ZM231.679 72.572C231.875 72.572 232.043 72.642 232.183 72.796C232.323 72.922 232.393 73.09 232.393 73.3C232.393 73.496 232.323 73.664 232.183 73.804C232.043 73.944 231.875 74.014 231.679 74.014C231.469 74.014 231.301 73.944 231.175 73.804C231.035 73.664 230.965 73.496 230.965 73.3C230.965 73.09 231.035 72.922 231.175 72.796C231.301 72.642 231.469 72.572 231.679 72.572ZM237.682 63.808C238.886 63.808 239.782 64.354 240.37 65.46C240.846 66.342 241.098 67.518 241.098 69.002C241.098 70.472 240.846 71.648 240.37 72.544C239.782 73.636 238.886 74.196 237.682 74.196C236.478 74.196 235.582 73.636 234.994 72.544C234.504 71.648 234.266 70.472 234.266 69.002C234.266 67.518 234.504 66.342 234.994 65.46C235.582 64.354 236.478 63.808 237.682 63.808ZM237.682 64.564C236.716 64.564 236.016 65.054 235.596 66.048C235.288 66.776 235.134 67.77 235.134 69.002C235.134 70.234 235.288 71.214 235.596 71.956C236.016 72.936 236.716 73.44 237.682 73.44C238.634 73.44 239.334 72.936 239.768 71.956C240.076 71.214 240.244 70.234 240.244 69.002C240.244 67.77 240.076 66.776 239.768 66.048C239.334 65.054 238.634 64.564 237.682 64.564ZM246.077 63.808C247.281 63.808 248.177 64.354 248.765 65.46C249.241 66.342 249.493 67.518 249.493 69.002C249.493 70.472 249.241 71.648 248.765 72.544C248.177 73.636 247.281 74.196 246.077 74.196C244.873 74.196 243.977 73.636 243.389 72.544C242.899 71.648 242.661 70.472 242.661 69.002C242.661 67.518 242.899 66.342 243.389 65.46C243.977 64.354 244.873 63.808 246.077 63.808ZM246.077 64.564C245.111 64.564 244.411 65.054 243.991 66.048C243.683 66.776 243.529 67.77 243.529 69.002C243.529 70.234 243.683 71.214 243.991 71.956C244.411 72.936 245.111 73.44 246.077 73.44C247.029 73.44 247.729 72.936 248.163 71.956C248.471 71.214 248.639 70.234 248.639 69.002C248.639 67.77 248.471 66.776 248.163 66.048C247.729 65.054 247.029 64.564 246.077 64.564ZM257.874 62.422H258.644C258.084 63.332 257.636 64.298 257.314 65.334C256.908 66.566 256.712 67.77 256.712 68.96C256.712 70.136 256.908 71.354 257.314 72.586C257.636 73.608 258.084 74.574 258.644 75.498H257.874C257.286 74.602 256.824 73.636 256.488 72.614C256.082 71.382 255.886 70.164 255.886 68.96C255.886 67.756 256.082 66.538 256.488 65.32C256.824 64.284 257.286 63.318 257.874 62.422ZM260.618 64.004H261.472V70.136C261.472 71.2 261.696 72.012 262.172 72.558C262.676 73.132 263.446 73.426 264.51 73.426C265.574 73.426 266.344 73.132 266.848 72.558C267.31 72.012 267.548 71.2 267.548 70.136V64.004H268.402V70.136C268.402 71.438 268.08 72.432 267.464 73.118C266.806 73.832 265.826 74.196 264.51 74.196C263.194 74.196 262.214 73.832 261.57 73.132C260.926 72.432 260.618 71.438 260.618 70.136V64.004ZM269.678 64.004H277.868V64.76H274.2V74H273.346V64.76H269.678V64.004ZM283.455 63.808C284.505 63.808 285.415 64.088 286.171 64.676C286.955 65.264 287.403 66.048 287.529 67.028H286.703C286.577 66.258 286.199 65.656 285.569 65.222C284.967 64.802 284.253 64.592 283.441 64.592C282.209 64.592 281.257 65.026 280.557 65.894C279.899 66.706 279.577 67.756 279.577 69.044C279.577 70.332 279.899 71.382 280.543 72.166C281.215 72.992 282.153 73.412 283.357 73.412C284.211 73.412 284.939 73.174 285.555 72.726C286.213 72.222 286.647 71.508 286.843 70.584H287.669C287.459 71.732 286.941 72.642 286.101 73.3C285.331 73.888 284.421 74.196 283.371 74.196C281.873 74.196 280.711 73.678 279.871 72.656C279.101 71.718 278.723 70.514 278.723 69.044C278.723 67.574 279.115 66.356 279.899 65.39C280.753 64.326 281.943 63.808 283.455 63.808ZM292.144 66.846H292.872V70.01H296.036V70.738H292.872V73.916H292.144V70.738H288.966V70.01H292.144V66.846ZM300.942 63.808C301.964 63.808 302.762 64.074 303.336 64.606C303.854 65.082 304.12 65.67 304.12 66.398C304.12 66.93 303.98 67.392 303.714 67.784C303.434 68.176 303.014 68.47 302.482 68.638V68.694C303.028 68.806 303.49 69.1 303.882 69.576C304.274 70.052 304.47 70.626 304.47 71.27C304.47 72.138 304.162 72.838 303.574 73.37C302.958 73.916 302.076 74.196 300.942 74.196C299.794 74.196 298.926 73.916 298.31 73.37C297.708 72.838 297.414 72.138 297.414 71.27C297.414 70.626 297.61 70.052 298.002 69.576C298.38 69.1 298.856 68.806 299.416 68.694V68.638C298.87 68.47 298.45 68.176 298.17 67.784C297.89 67.392 297.764 66.93 297.764 66.398C297.764 65.67 298.016 65.082 298.548 64.606C299.108 64.074 299.906 63.808 300.942 63.808ZM300.942 64.536C300.158 64.536 299.556 64.732 299.136 65.124C298.772 65.46 298.59 65.894 298.59 66.426C298.59 66.972 298.758 67.42 299.094 67.756C299.5 68.148 300.116 68.344 300.942 68.344C301.754 68.344 302.37 68.148 302.79 67.756C303.126 67.42 303.294 66.972 303.294 66.426C303.294 65.894 303.112 65.46 302.748 65.124C302.314 64.732 301.712 64.536 300.942 64.536ZM300.942 69.044C300.074 69.044 299.402 69.254 298.926 69.702C298.478 70.094 298.254 70.626 298.254 71.27C298.254 71.914 298.464 72.446 298.912 72.838C299.374 73.258 300.046 73.482 300.942 73.482C301.824 73.482 302.51 73.258 302.986 72.838C303.406 72.446 303.63 71.914 303.63 71.27C303.63 70.626 303.406 70.094 302.958 69.702C302.482 69.254 301.81 69.044 300.942 69.044ZM306.089 62.422H306.859C307.433 63.318 307.895 64.284 308.245 65.32C308.637 66.538 308.847 67.756 308.847 68.96C308.847 70.164 308.637 71.382 308.245 72.614C307.895 73.636 307.433 74.602 306.859 75.498H306.089C306.649 74.574 307.083 73.608 307.419 72.586C307.811 71.354 308.021 70.136 308.021 68.96C308.021 67.77 307.811 66.566 307.419 65.334C307.083 64.298 306.649 63.332 306.089 62.422ZM33.022 94.004H40.036V94.76H33.876V98.442H39.7V99.212H33.876V103.244H40.274V104H33.022V94.004ZM44.947 96.566C46.739 96.566 47.635 97.56 47.635 99.548V104H46.795V99.604C46.795 98.064 46.109 97.294 44.737 97.294C44.149 97.294 43.673 97.504 43.281 97.924C42.861 98.344 42.637 98.918 42.595 99.632V104H41.755V96.762H42.595V97.952C42.847 97.518 43.169 97.182 43.575 96.93C43.981 96.678 44.443 96.566 44.947 96.566ZM54.8576 93.808H55.6976V104H54.8996V102.572C54.3956 103.65 53.5556 104.196 52.3656 104.196C51.3156 104.196 50.5036 103.804 49.9156 103.048C49.3836 102.348 49.1176 101.452 49.1176 100.374C49.1176 99.31 49.3836 98.428 49.9156 97.728C50.5036 96.944 51.3016 96.566 52.3236 96.566C53.4716 96.566 54.3256 97.14 54.8576 98.288V93.808ZM52.4776 97.28C51.6516 97.28 51.0216 97.588 50.5736 98.204C50.1676 98.736 49.9716 99.464 49.9716 100.374C49.9716 101.284 50.1676 102.012 50.5596 102.558C50.9936 103.174 51.6236 103.482 52.4496 103.482C53.2336 103.482 53.8496 103.174 54.2836 102.586C54.6756 102.04 54.8856 101.34 54.8856 100.486V100.318C54.8856 99.422 54.6616 98.708 54.2416 98.148C53.7936 97.56 53.2056 97.28 52.4776 97.28ZM61.4961 94.004H69.6861V94.76H66.0181V104H65.1641V94.76H61.4961V94.004ZM71.6615 94.158C71.8575 94.158 72.0255 94.228 72.1655 94.368C72.3055 94.48 72.3755 94.648 72.3755 94.858C72.3755 95.054 72.2915 95.222 72.1515 95.362C72.0115 95.488 71.8575 95.558 71.6615 95.558C71.4515 95.558 71.2835 95.488 71.1575 95.362C71.0175 95.222 70.9475 95.054 70.9475 94.858C70.9475 94.648 71.0175 94.48 71.1575 94.368C71.2835 94.228 71.4515 94.158 71.6615 94.158ZM71.2415 96.762H72.0815V104H71.2415V96.762ZM77.2068 96.566C78.3548 96.566 79.1108 97.056 79.4748 98.05C79.7268 97.56 80.0488 97.196 80.4408 96.944C80.8048 96.692 81.2528 96.566 81.7568 96.566C82.5128 96.566 83.1288 96.804 83.5768 97.28C84.0108 97.756 84.2348 98.414 84.2348 99.268V104H83.3948V99.38C83.3948 98.694 83.2548 98.176 82.9748 97.84C82.6668 97.476 82.1768 97.294 81.5328 97.294C81.0008 97.294 80.5668 97.49 80.2168 97.896C79.8528 98.288 79.6848 98.778 79.6848 99.394V104H78.8308V99.38C78.8308 97.98 78.2288 97.294 77.0248 97.294C76.4788 97.294 76.0308 97.504 75.6668 97.952C75.2888 98.386 75.1068 98.918 75.1068 99.548V104H74.2668V96.762H75.1068V97.854C75.6248 96.986 76.3248 96.566 77.2068 96.566ZM88.9232 96.566C90.0712 96.566 90.9252 96.944 91.4992 97.728C92.0032 98.414 92.2832 99.38 92.3252 100.626H86.4452C86.4872 101.508 86.7252 102.208 87.1592 102.712C87.6072 103.216 88.1952 103.468 88.9512 103.468C89.6092 103.468 90.1412 103.286 90.5472 102.95C90.8832 102.656 91.1352 102.236 91.3172 101.676H92.1712C92.0032 102.376 91.6812 102.95 91.2052 103.398C90.6172 103.93 89.8752 104.196 88.9512 104.196C87.9292 104.196 87.1172 103.846 86.5152 103.16C85.8852 102.46 85.5772 101.522 85.5772 100.374C85.5772 99.31 85.8712 98.428 86.4732 97.7C87.0892 96.944 87.9012 96.566 88.9232 96.566ZM88.9372 97.294C88.2232 97.294 87.6492 97.532 87.2152 98.036C86.7812 98.526 86.5292 99.156 86.4592 99.94H91.4432C91.3032 98.176 90.4632 97.294 88.9372 97.294ZM96.2852 95.628C96.4812 95.628 96.6632 95.698 96.8032 95.838C96.9292 95.964 96.9992 96.132 96.9992 96.342C96.9992 96.538 96.9292 96.706 96.8032 96.846C96.6632 96.986 96.4812 97.056 96.2852 97.056C96.0752 97.056 95.9072 96.986 95.7672 96.846C95.6272 96.706 95.5712 96.538 95.5712 96.342C95.5712 96.132 95.6272 95.964 95.7672 95.838C95.9072 95.698 96.0752 95.628 96.2852 95.628ZM96.2852 100.752C96.4812 100.752 96.6632 100.822 96.8032 100.962C96.9292 101.088 96.9992 101.256 96.9992 101.466C96.9992 101.662 96.9292 101.83 96.8032 101.97C96.6632 102.11 96.4812 102.18 96.2852 102.18C96.0752 102.18 95.9072 102.11 95.7672 101.97C95.6272 101.83 95.5712 101.662 95.5712 101.466C95.5712 101.256 95.6272 101.088 95.7672 100.962C95.9072 100.822 96.0752 100.752 96.2852 100.752ZM111.111 93.808C112.007 93.808 112.749 94.06 113.337 94.592C113.925 95.11 114.219 95.796 114.219 96.664C114.219 97.532 113.883 98.316 113.225 99.016C112.903 99.352 112.217 99.884 111.153 100.612C109.725 101.578 108.941 102.446 108.787 103.216H114.233V104H107.737C107.737 103.16 108.059 102.362 108.731 101.62C109.137 101.158 109.837 100.584 110.831 99.898C111.699 99.282 112.259 98.834 112.525 98.568C113.071 97.98 113.351 97.336 113.351 96.65C113.351 95.992 113.141 95.474 112.735 95.11C112.329 94.746 111.783 94.564 111.097 94.564C110.369 94.564 109.795 94.802 109.375 95.292C108.927 95.782 108.703 96.496 108.703 97.42H107.835C107.835 96.3 108.143 95.418 108.759 94.774C109.347 94.13 110.131 93.808 111.111 93.808ZM119.38 93.808C120.584 93.808 121.48 94.354 122.068 95.46C122.544 96.342 122.796 97.518 122.796 99.002C122.796 100.472 122.544 101.648 122.068 102.544C121.48 103.636 120.584 104.196 119.38 104.196C118.176 104.196 117.28 103.636 116.692 102.544C116.202 101.648 115.964 100.472 115.964 99.002C115.964 97.518 116.202 96.342 116.692 95.46C117.28 94.354 118.176 93.808 119.38 93.808ZM119.38 94.564C118.414 94.564 117.714 95.054 117.294 96.048C116.986 96.776 116.832 97.77 116.832 99.002C116.832 100.234 116.986 101.214 117.294 101.956C117.714 102.936 118.414 103.44 119.38 103.44C120.332 103.44 121.032 102.936 121.466 101.956C121.774 101.214 121.942 100.234 121.942 99.002C121.942 97.77 121.774 96.776 121.466 96.048C121.032 95.054 120.332 94.564 119.38 94.564ZM127.9 93.808C128.796 93.808 129.538 94.06 130.126 94.592C130.714 95.11 131.008 95.796 131.008 96.664C131.008 97.532 130.672 98.316 130.014 99.016C129.692 99.352 129.006 99.884 127.942 100.612C126.514 101.578 125.73 102.446 125.576 103.216H131.022V104H124.526C124.526 103.16 124.848 102.362 125.52 101.62C125.926 101.158 126.626 100.584 127.62 99.898C128.488 99.282 129.048 98.834 129.314 98.568C129.86 97.98 130.14 97.336 130.14 96.65C130.14 95.992 129.93 95.474 129.524 95.11C129.118 94.746 128.572 94.564 127.886 94.564C127.158 94.564 126.584 94.802 126.164 95.292C125.716 95.782 125.492 96.496 125.492 97.42H124.624C124.624 96.3 124.932 95.418 125.548 94.774C126.136 94.13 126.92 93.808 127.9 93.808ZM133.537 94.004H139.193V94.788H134.251L133.901 98.47H133.943C134.237 98.12 134.601 97.854 135.049 97.672C135.455 97.49 135.889 97.406 136.351 97.406C137.303 97.406 138.073 97.7 138.661 98.288C139.263 98.904 139.571 99.744 139.571 100.822C139.571 101.802 139.221 102.628 138.549 103.272C137.891 103.888 137.079 104.196 136.099 104.196C135.231 104.196 134.503 103.958 133.901 103.482C133.215 102.964 132.837 102.25 132.767 101.354H133.621C133.691 102.026 133.971 102.558 134.461 102.936C134.895 103.272 135.441 103.454 136.099 103.454C136.855 103.454 137.485 103.202 137.975 102.712C138.465 102.208 138.717 101.578 138.717 100.822C138.717 99.968 138.479 99.296 138.017 98.82C137.569 98.358 136.953 98.134 136.183 98.134C135.679 98.134 135.217 98.246 134.811 98.47C134.391 98.708 134.069 99.044 133.845 99.464H133.033L133.537 94.004ZM145.991 92.52H146.761L141.735 105.4H140.965L145.991 92.52ZM151.563 93.808C152.767 93.808 153.663 94.354 154.251 95.46C154.727 96.342 154.979 97.518 154.979 99.002C154.979 100.472 154.727 101.648 154.251 102.544C153.663 103.636 152.767 104.196 151.563 104.196C150.359 104.196 149.463 103.636 148.875 102.544C148.385 101.648 148.147 100.472 148.147 99.002C148.147 97.518 148.385 96.342 148.875 95.46C149.463 94.354 150.359 93.808 151.563 93.808ZM151.563 94.564C150.597 94.564 149.897 95.054 149.477 96.048C149.169 96.776 149.015 97.77 149.015 99.002C149.015 100.234 149.169 101.214 149.477 101.956C149.897 102.936 150.597 103.44 151.563 103.44C152.515 103.44 153.215 102.936 153.649 101.956C153.957 101.214 154.125 100.234 154.125 99.002C154.125 97.77 153.957 96.776 153.649 96.048C153.215 95.054 152.515 94.564 151.563 94.564ZM159.832 93.808C161.036 93.808 161.946 94.256 162.548 95.18C163.094 96.02 163.374 97.21 163.374 98.75C163.374 100.318 163.066 101.592 162.478 102.6C161.834 103.664 160.938 104.196 159.818 104.196C158.026 104.196 157.004 103.314 156.724 101.564H157.578C157.802 102.824 158.558 103.454 159.832 103.454C160.672 103.454 161.344 103.02 161.834 102.18C162.296 101.368 162.534 100.332 162.534 99.086V98.596H162.478C162.24 99.17 161.876 99.632 161.386 99.982C160.896 100.318 160.336 100.486 159.706 100.486C158.754 100.486 157.984 100.178 157.41 99.562C156.836 98.96 156.556 98.176 156.556 97.21C156.556 96.23 156.864 95.418 157.48 94.774C158.096 94.13 158.88 93.808 159.832 93.808ZM159.86 94.55C159.118 94.55 158.53 94.802 158.082 95.306C157.634 95.81 157.41 96.44 157.41 97.21C157.41 97.966 157.62 98.582 158.068 99.058C158.516 99.52 159.104 99.758 159.846 99.758C160.532 99.758 161.12 99.506 161.61 99.016C162.086 98.526 162.338 97.924 162.338 97.196C162.338 96.468 162.114 95.852 161.694 95.348C161.218 94.816 160.616 94.55 159.86 94.55ZM169.78 92.52H170.55L165.524 105.4H164.754L169.78 92.52ZM175.352 93.808C176.556 93.808 177.452 94.354 178.04 95.46C178.516 96.342 178.768 97.518 178.768 99.002C178.768 100.472 178.516 101.648 178.04 102.544C177.452 103.636 176.556 104.196 175.352 104.196C174.148 104.196 173.252 103.636 172.664 102.544C172.174 101.648 171.936 100.472 171.936 99.002C171.936 97.518 172.174 96.342 172.664 95.46C173.252 94.354 174.148 93.808 175.352 93.808ZM175.352 94.564C174.386 94.564 173.686 95.054 173.266 96.048C172.958 96.776 172.804 97.77 172.804 99.002C172.804 100.234 172.958 101.214 173.266 101.956C173.686 102.936 174.386 103.44 175.352 103.44C176.304 103.44 177.004 102.936 177.438 101.956C177.746 101.214 177.914 100.234 177.914 99.002C177.914 97.77 177.746 96.776 177.438 96.048C177.004 95.054 176.304 94.564 175.352 94.564ZM181.115 94.004H186.771V94.788H181.829L181.479 98.47H181.521C181.815 98.12 182.179 97.854 182.627 97.672C183.033 97.49 183.467 97.406 183.929 97.406C184.881 97.406 185.651 97.7 186.239 98.288C186.841 98.904 187.149 99.744 187.149 100.822C187.149 101.802 186.799 102.628 186.127 103.272C185.469 103.888 184.657 104.196 183.677 104.196C182.809 104.196 182.081 103.958 181.479 103.482C180.793 102.964 180.415 102.25 180.345 101.354H181.199C181.269 102.026 181.549 102.558 182.039 102.936C182.473 103.272 183.019 103.454 183.677 103.454C184.433 103.454 185.063 103.202 185.553 102.712C186.043 102.208 186.295 101.578 186.295 100.822C186.295 99.968 186.057 99.296 185.595 98.82C185.147 98.358 184.531 98.134 183.761 98.134C183.257 98.134 182.795 98.246 182.389 98.47C181.969 98.708 181.647 99.044 181.423 99.464H180.611L181.115 94.004ZM196.93 93.808C197.826 93.808 198.568 94.06 199.156 94.592C199.744 95.11 200.038 95.796 200.038 96.664C200.038 97.532 199.702 98.316 199.044 99.016C198.722 99.352 198.036 99.884 196.972 100.612C195.544 101.578 194.76 102.446 194.606 103.216H200.052V104H193.556C193.556 103.16 193.878 102.362 194.55 101.62C194.956 101.158 195.656 100.584 196.65 99.898C197.518 99.282 198.078 98.834 198.344 98.568C198.89 97.98 199.17 97.336 199.17 96.65C199.17 95.992 198.96 95.474 198.554 95.11C198.148 94.746 197.602 94.564 196.916 94.564C196.188 94.564 195.614 94.802 195.194 95.292C194.746 95.782 194.522 96.496 194.522 97.42H193.654C193.654 96.3 193.962 95.418 194.578 94.774C195.166 94.13 195.95 93.808 196.93 93.808ZM205.296 93.808C206.22 93.808 206.976 94.046 207.55 94.536C208.11 95.026 208.39 95.684 208.39 96.496C208.39 97.644 207.844 98.4 206.766 98.764C207.34 98.946 207.788 99.24 208.11 99.646C208.432 100.052 208.6 100.542 208.6 101.13C208.6 102.026 208.278 102.768 207.662 103.342C207.032 103.902 206.22 104.196 205.226 104.196C204.33 104.196 203.588 103.958 203 103.496C202.272 102.936 201.88 102.082 201.796 100.962H202.664C202.706 101.816 203 102.46 203.56 102.908C204.008 103.272 204.554 103.454 205.212 103.454C205.982 103.454 206.598 103.23 207.074 102.796C207.522 102.362 207.746 101.816 207.746 101.158C207.746 100.528 207.522 100.038 207.102 99.674C206.682 99.31 206.122 99.142 205.408 99.142H204.526V98.442H205.324C206.038 98.442 206.584 98.274 206.976 97.952C207.34 97.616 207.536 97.154 207.536 96.538C207.536 95.95 207.34 95.474 206.962 95.11C206.556 94.746 205.996 94.564 205.296 94.564C204.596 94.564 204.036 94.76 203.63 95.166C203.21 95.558 202.958 96.104 202.874 96.832H202.02C202.104 95.894 202.454 95.152 203.056 94.606C203.63 94.074 204.372 93.808 205.296 93.808ZM211.199 97.448C211.395 97.448 211.563 97.518 211.703 97.672C211.843 97.798 211.913 97.966 211.913 98.176C211.913 98.372 211.843 98.54 211.703 98.68C211.563 98.82 211.395 98.89 211.199 98.89C210.989 98.89 210.821 98.82 210.695 98.68C210.555 98.54 210.485 98.372 210.485 98.176C210.485 97.966 210.555 97.798 210.695 97.672C210.821 97.518 210.989 97.448 211.199 97.448ZM211.199 102.572C211.395 102.572 211.563 102.642 211.703 102.796C211.843 102.922 211.913 103.09 211.913 103.3C211.913 103.496 211.843 103.664 211.703 103.804C211.563 103.944 211.395 104.014 211.199 104.014C210.989 104.014 210.821 103.944 210.695 103.804C210.555 103.664 210.485 103.496 210.485 103.3C210.485 103.09 210.555 102.922 210.695 102.796C210.821 102.642 210.989 102.572 211.199 102.572ZM214.57 94.004H220.226V94.788H215.284L214.934 98.47H214.976C215.27 98.12 215.634 97.854 216.082 97.672C216.488 97.49 216.922 97.406 217.384 97.406C218.336 97.406 219.106 97.7 219.694 98.288C220.296 98.904 220.604 99.744 220.604 100.822C220.604 101.802 220.254 102.628 219.582 103.272C218.924 103.888 218.112 104.196 217.132 104.196C216.264 104.196 215.536 103.958 214.934 103.482C214.248 102.964 213.87 102.25 213.8 101.354H214.654C214.724 102.026 215.004 102.558 215.494 102.936C215.928 103.272 216.474 103.454 217.132 103.454C217.888 103.454 218.518 103.202 219.008 102.712C219.498 102.208 219.75 101.578 219.75 100.822C219.75 99.968 219.512 99.296 219.05 98.82C218.602 98.358 217.986 98.134 217.216 98.134C216.712 98.134 216.25 98.246 215.844 98.47C215.424 98.708 215.102 99.044 214.878 99.464H214.066L214.57 94.004ZM225.47 93.808C226.674 93.808 227.584 94.256 228.186 95.18C228.732 96.02 229.012 97.21 229.012 98.75C229.012 100.318 228.704 101.592 228.116 102.6C227.472 103.664 226.576 104.196 225.456 104.196C223.664 104.196 222.642 103.314 222.362 101.564H223.216C223.44 102.824 224.196 103.454 225.47 103.454C226.31 103.454 226.982 103.02 227.472 102.18C227.934 101.368 228.172 100.332 228.172 99.086V98.596H228.116C227.878 99.17 227.514 99.632 227.024 99.982C226.534 100.318 225.974 100.486 225.344 100.486C224.392 100.486 223.622 100.178 223.048 99.562C222.474 98.96 222.194 98.176 222.194 97.21C222.194 96.23 222.502 95.418 223.118 94.774C223.734 94.13 224.518 93.808 225.47 93.808ZM225.498 94.55C224.756 94.55 224.168 94.802 223.72 95.306C223.272 95.81 223.048 96.44 223.048 97.21C223.048 97.966 223.258 98.582 223.706 99.058C224.154 99.52 224.742 99.758 225.484 99.758C226.17 99.758 226.758 99.506 227.248 99.016C227.724 98.526 227.976 97.924 227.976 97.196C227.976 96.468 227.752 95.852 227.332 95.348C226.856 94.816 226.254 94.55 225.498 94.55ZM231.597 97.448C231.793 97.448 231.961 97.518 232.101 97.672C232.241 97.798 232.311 97.966 232.311 98.176C232.311 98.372 232.241 98.54 232.101 98.68C231.961 98.82 231.793 98.89 231.597 98.89C231.387 98.89 231.219 98.82 231.093 98.68C230.953 98.54 230.883 98.372 230.883 98.176C230.883 97.966 230.953 97.798 231.093 97.672C231.219 97.518 231.387 97.448 231.597 97.448ZM231.597 102.572C231.793 102.572 231.961 102.642 232.101 102.796C232.241 102.922 232.311 103.09 232.311 103.3C232.311 103.496 232.241 103.664 232.101 103.804C231.961 103.944 231.793 104.014 231.597 104.014C231.387 104.014 231.219 103.944 231.093 103.804C230.953 103.664 230.883 103.496 230.883 103.3C230.883 103.09 230.953 102.922 231.093 102.796C231.219 102.642 231.387 102.572 231.597 102.572ZM234.968 94.004H240.624V94.788H235.682L235.332 98.47H235.374C235.668 98.12 236.032 97.854 236.48 97.672C236.886 97.49 237.32 97.406 237.782 97.406C238.734 97.406 239.504 97.7 240.092 98.288C240.694 98.904 241.002 99.744 241.002 100.822C241.002 101.802 240.652 102.628 239.98 103.272C239.322 103.888 238.51 104.196 237.53 104.196C236.662 104.196 235.934 103.958 235.332 103.482C234.646 102.964 234.268 102.25 234.198 101.354H235.052C235.122 102.026 235.402 102.558 235.892 102.936C236.326 103.272 236.872 103.454 237.53 103.454C238.286 103.454 238.916 103.202 239.406 102.712C239.896 102.208 240.148 101.578 240.148 100.822C240.148 99.968 239.91 99.296 239.448 98.82C239 98.358 238.384 98.134 237.614 98.134C237.11 98.134 236.648 98.246 236.242 98.47C235.822 98.708 235.5 99.044 235.276 99.464H234.464L234.968 94.004ZM245.869 93.808C247.073 93.808 247.983 94.256 248.585 95.18C249.131 96.02 249.411 97.21 249.411 98.75C249.411 100.318 249.103 101.592 248.515 102.6C247.871 103.664 246.975 104.196 245.855 104.196C244.063 104.196 243.041 103.314 242.761 101.564H243.615C243.839 102.824 244.595 103.454 245.869 103.454C246.709 103.454 247.381 103.02 247.871 102.18C248.333 101.368 248.571 100.332 248.571 99.086V98.596H248.515C248.277 99.17 247.913 99.632 247.423 99.982C246.933 100.318 246.373 100.486 245.743 100.486C244.791 100.486 244.021 100.178 243.447 99.562C242.873 98.96 242.593 98.176 242.593 97.21C242.593 96.23 242.901 95.418 243.517 94.774C244.133 94.13 244.917 93.808 245.869 93.808ZM245.897 94.55C245.155 94.55 244.567 94.802 244.119 95.306C243.671 95.81 243.447 96.44 243.447 97.21C243.447 97.966 243.657 98.582 244.105 99.058C244.553 99.52 245.141 99.758 245.883 99.758C246.569 99.758 247.157 99.506 247.647 99.016C248.123 98.526 248.375 97.924 248.375 97.196C248.375 96.468 248.151 95.852 247.731 95.348C247.255 94.816 246.653 94.55 245.897 94.55ZM257.792 92.422H258.562C258.002 93.332 257.554 94.298 257.232 95.334C256.826 96.566 256.63 97.77 256.63 98.96C256.63 100.136 256.826 101.354 257.232 102.586C257.554 103.608 258.002 104.574 258.562 105.498H257.792C257.204 104.602 256.742 103.636 256.406 102.614C256 101.382 255.804 100.164 255.804 98.96C255.804 97.756 256 96.538 256.406 95.32C256.742 94.284 257.204 93.318 257.792 92.422ZM260.536 94.004H261.39V100.136C261.39 101.2 261.614 102.012 262.09 102.558C262.594 103.132 263.364 103.426 264.428 103.426C265.492 103.426 266.262 103.132 266.766 102.558C267.228 102.012 267.466 101.2 267.466 100.136V94.004H268.32V100.136C268.32 101.438 267.998 102.432 267.382 103.118C266.724 103.832 265.744 104.196 264.428 104.196C263.112 104.196 262.132 103.832 261.488 103.132C260.844 102.432 260.536 101.438 260.536 100.136V94.004ZM269.596 94.004H277.786V94.76H274.118V104H273.264V94.76H269.596V94.004ZM283.373 93.808C284.423 93.808 285.333 94.088 286.089 94.676C286.873 95.264 287.321 96.048 287.447 97.028H286.621C286.495 96.258 286.117 95.656 285.487 95.222C284.885 94.802 284.171 94.592 283.359 94.592C282.127 94.592 281.175 95.026 280.475 95.894C279.817 96.706 279.495 97.756 279.495 99.044C279.495 100.332 279.817 101.382 280.461 102.166C281.133 102.992 282.071 103.412 283.275 103.412C284.129 103.412 284.857 103.174 285.473 102.726C286.131 102.222 286.565 101.508 286.761 100.584H287.587C287.377 101.732 286.859 102.642 286.019 103.3C285.249 103.888 284.339 104.196 283.289 104.196C281.791 104.196 280.629 103.678 279.789 102.656C279.019 101.718 278.641 100.514 278.641 99.044C278.641 97.574 279.033 96.356 279.817 95.39C280.671 94.326 281.861 93.808 283.373 93.808ZM292.062 96.846H292.79V100.01H295.954V100.738H292.79V103.916H292.062V100.738H288.884V100.01H292.062V96.846ZM300.86 93.808C301.882 93.808 302.68 94.074 303.254 94.606C303.772 95.082 304.038 95.67 304.038 96.398C304.038 96.93 303.898 97.392 303.632 97.784C303.352 98.176 302.932 98.47 302.4 98.638V98.694C302.946 98.806 303.408 99.1 303.8 99.576C304.192 100.052 304.388 100.626 304.388 101.27C304.388 102.138 304.08 102.838 303.492 103.37C302.876 103.916 301.994 104.196 300.86 104.196C299.712 104.196 298.844 103.916 298.228 103.37C297.626 102.838 297.332 102.138 297.332 101.27C297.332 100.626 297.528 100.052 297.92 99.576C298.298 99.1 298.774 98.806 299.334 98.694V98.638C298.788 98.47 298.368 98.176 298.088 97.784C297.808 97.392 297.682 96.93 297.682 96.398C297.682 95.67 297.934 95.082 298.466 94.606C299.026 94.074 299.824 93.808 300.86 93.808ZM300.86 94.536C300.076 94.536 299.474 94.732 299.054 95.124C298.69 95.46 298.508 95.894 298.508 96.426C298.508 96.972 298.676 97.42 299.012 97.756C299.418 98.148 300.034 98.344 300.86 98.344C301.672 98.344 302.288 98.148 302.708 97.756C303.044 97.42 303.212 96.972 303.212 96.426C303.212 95.894 303.03 95.46 302.666 95.124C302.232 94.732 301.63 94.536 300.86 94.536ZM300.86 99.044C299.992 99.044 299.32 99.254 298.844 99.702C298.396 100.094 298.172 100.626 298.172 101.27C298.172 101.914 298.382 102.446 298.83 102.838C299.292 103.258 299.964 103.482 300.86 103.482C301.742 103.482 302.428 103.258 302.904 102.838C303.324 102.446 303.548 101.914 303.548 101.27C303.548 100.626 303.324 100.094 302.876 99.702C302.4 99.254 301.728 99.044 300.86 99.044ZM306.007 92.422H306.777C307.351 93.318 307.813 94.284 308.163 95.32C308.555 96.538 308.765 97.756 308.765 98.96C308.765 100.164 308.555 101.382 308.163 102.614C307.813 103.636 307.351 104.602 306.777 105.498H306.007C306.567 104.574 307.001 103.608 307.337 102.586C307.729 101.354 307.939 100.136 307.939 98.96C307.939 97.77 307.729 96.566 307.337 95.334C307.001 94.298 306.567 93.332 306.007 92.422Z" fill="white"/>
<path d="M0 12C0 5.37258 5.37258 0 12 0H143.686C146.62 0 148.556 3.05559 147.302 5.70909L134.07 33.7091C133.409 35.1078 132 36 130.453 36H0V12Z" fill="url(#paint2_linear_6478_444)"/>
<path d="M21.6245 24.4662V12.8298H29.7381V15.1139H24.437V17.5003H29.3233V19.7901H24.437V22.1821H29.7381V24.4662H21.6245ZM39.9654 15.7389L36.971 24.4662H33.7892L30.8006 15.7389H33.7267L35.3347 21.7503H35.4256L37.0392 15.7389H39.9654ZM44.829 24.631C43.9161 24.631 43.1282 24.451 42.4654 24.0912C41.8063 23.7276 41.2987 23.2105 40.9426 22.5401C40.5904 21.8658 40.4142 21.0647 40.4142 20.1366C40.4142 19.2351 40.5923 18.4472 40.9483 17.773C41.3044 17.095 41.8063 16.5685 42.454 16.1935C43.1017 15.8147 43.865 15.6253 44.7438 15.6253C45.365 15.6253 45.9332 15.7219 46.4483 15.915C46.9635 16.1082 47.4085 16.3942 47.7835 16.773C48.1585 17.1518 48.4502 17.6196 48.6585 18.1764C48.8669 18.7294 48.971 19.3639 48.971 20.0798V20.773H41.3858V19.1594H46.3858C46.382 18.8639 46.312 18.6007 46.1756 18.3696C46.0392 18.1385 45.8517 17.9586 45.6131 17.8298C45.3782 17.6972 45.1074 17.631 44.8006 17.631C44.49 17.631 44.2116 17.701 43.9654 17.8412C43.7192 17.9776 43.5241 18.1651 43.3801 18.4037C43.2362 18.6385 43.1604 18.9056 43.1529 19.2048V20.8469C43.1529 21.2029 43.2229 21.5154 43.3631 21.7844C43.5032 22.0495 43.7021 22.256 43.9597 22.4037C44.2173 22.5514 44.5241 22.6253 44.8801 22.6253C45.1264 22.6253 45.3498 22.5912 45.5506 22.523C45.7514 22.4548 45.9237 22.3544 46.0676 22.2219C46.2116 22.0893 46.3195 21.9264 46.3915 21.7332L48.9426 21.8071C48.8366 22.3791 48.6036 22.8772 48.2438 23.3014C47.8877 23.7219 47.4199 24.0495 46.8404 24.2844C46.2608 24.5154 45.5904 24.631 44.829 24.631ZM53.1685 19.4889V24.4662H50.3901V15.7389H53.0321V17.3412H53.1287C53.3219 16.8071 53.6514 16.3885 54.1174 16.0855C54.5833 15.7787 55.1382 15.6253 55.7821 15.6253C56.3958 15.6253 56.928 15.7635 57.3787 16.04C57.8333 16.3128 58.1855 16.6954 58.4355 17.1878C58.6893 17.6764 58.8143 18.2484 58.8105 18.9037V24.4662H56.0321V19.4491C56.0359 18.9643 55.9128 18.5855 55.6628 18.3128C55.4166 18.0401 55.0738 17.9037 54.6344 17.9037C54.3427 17.9037 54.0852 17.9681 53.8617 18.0969C53.642 18.2219 53.4715 18.4018 53.3503 18.6366C53.2329 18.8715 53.1723 19.1556 53.1685 19.4889ZM65.4568 15.7389V17.7844H59.9512V15.7389H65.4568ZM61.1046 13.648H63.883V21.7219C63.883 21.8923 63.9095 22.0306 63.9625 22.1366C64.0193 22.2389 64.1008 22.3128 64.2068 22.3582C64.3129 22.3999 64.4398 22.4207 64.5875 22.4207C64.6936 22.4207 64.8053 22.4113 64.9228 22.3923C65.044 22.3696 65.1349 22.3507 65.1955 22.3355L65.6159 24.3412C65.4834 24.3791 65.2959 24.4264 65.0534 24.4832C64.8148 24.5401 64.5288 24.576 64.1955 24.5912C63.544 24.6215 62.9853 24.5457 62.5193 24.3639C62.0572 24.1783 61.7031 23.8904 61.4568 23.5003C61.2144 23.1101 61.097 22.6196 61.1046 22.0287V13.648ZM70.312 24.4662V12.8298H75.1188C75.99 12.8298 76.7419 13.0003 77.3745 13.3412C78.0108 13.6783 78.5014 14.1499 78.846 14.756C79.1907 15.3582 79.3631 16.059 79.3631 16.8582C79.3631 17.6613 79.187 18.3639 78.8347 18.9662C78.4862 19.5647 77.9881 20.0287 77.3404 20.3582C76.6926 20.6878 75.9237 20.8526 75.0335 20.8526H72.0676V18.6366H74.5108C74.9351 18.6366 75.2892 18.5628 75.5733 18.4151C75.8612 18.2673 76.079 18.0609 76.2267 17.7957C76.3745 17.5268 76.4483 17.2143 76.4483 16.8582C76.4483 16.4984 76.3745 16.1878 76.2267 15.9264C76.079 15.6613 75.8612 15.4567 75.5733 15.3128C75.2854 15.1688 74.9313 15.0969 74.5108 15.0969H73.1245V24.4662H70.312ZM84.6571 24.631C83.7442 24.631 82.9564 24.451 82.2935 24.0912C81.6344 23.7276 81.1268 23.2105 80.7708 22.5401C80.4185 21.8658 80.2424 21.0647 80.2424 20.1366C80.2424 19.2351 80.4204 18.4472 80.7764 17.773C81.1325 17.095 81.6344 16.5685 82.2821 16.1935C82.9299 15.8147 83.6931 15.6253 84.5719 15.6253C85.1931 15.6253 85.7613 15.7219 86.2764 15.915C86.7916 16.1082 87.2367 16.3942 87.6117 16.773C87.9867 17.1518 88.2783 17.6196 88.4867 18.1764C88.695 18.7294 88.7992 19.3639 88.7992 20.0798V20.773H81.2139V19.1594H86.2139C86.2102 18.8639 86.1401 18.6007 86.0037 18.3696C85.8674 18.1385 85.6799 17.9586 85.4412 17.8298C85.2064 17.6972 84.9355 17.631 84.6287 17.631C84.3181 17.631 84.0397 17.701 83.7935 17.8412C83.5473 17.9776 83.3522 18.1651 83.2083 18.4037C83.0643 18.6385 82.9886 18.9056 82.981 19.2048V20.8469C82.981 21.2029 83.0511 21.5154 83.1912 21.7844C83.3314 22.0495 83.5302 22.256 83.7878 22.4037C84.0454 22.5514 84.3522 22.6253 84.7083 22.6253C84.9545 22.6253 85.178 22.5912 85.3787 22.523C85.5795 22.4548 85.7518 22.3544 85.8958 22.2219C86.0397 22.0893 86.1477 21.9264 86.2196 21.7332L88.7708 21.8071C88.6647 22.3791 88.4317 22.8772 88.0719 23.3014C87.7158 23.7219 87.248 24.0495 86.6685 24.2844C86.0889 24.5154 85.4185 24.631 84.6571 24.631ZM90.2182 24.4662V15.7389H92.9171V17.3298H93.008C93.1671 16.7541 93.4265 16.326 93.7864 16.0457C94.1462 15.7616 94.5648 15.6196 95.0421 15.6196C95.1709 15.6196 95.3034 15.6291 95.4398 15.648C95.5762 15.6632 95.7031 15.6878 95.8205 15.7219V18.1366C95.6879 18.0912 95.5137 18.0552 95.2978 18.0287C95.0856 18.0022 94.8962 17.9889 94.7296 17.9889C94.4 17.9889 94.1027 18.0628 93.8375 18.2105C93.5762 18.3544 93.3697 18.5571 93.2182 18.8185C93.0705 19.076 92.9966 19.3791 92.9966 19.7276V24.4662H90.2182ZM96.9526 24.4662V15.7389H99.731V24.4662H96.9526ZM98.3446 14.7219C97.9545 14.7219 97.6192 14.5931 97.3389 14.3355C97.0586 14.0741 96.9185 13.7597 96.9185 13.3923C96.9185 13.0287 97.0586 12.7181 97.3389 12.4605C97.6192 12.1991 97.9545 12.0685 98.3446 12.0685C98.7386 12.0685 99.0738 12.1991 99.3503 12.4605C99.6306 12.7181 99.7708 13.0287 99.7708 13.3923C99.7708 13.7597 99.6306 14.0741 99.3503 14.3355C99.0738 14.5931 98.7386 14.7219 98.3446 14.7219ZM105.573 24.631C104.657 24.631 103.869 24.4435 103.21 24.0685C102.554 23.6897 102.049 23.1632 101.693 22.4889C101.34 21.8109 101.164 21.0249 101.164 20.131C101.164 19.2332 101.34 18.4472 101.693 17.773C102.049 17.095 102.554 16.5685 103.21 16.1935C103.869 15.8147 104.657 15.6253 105.573 15.6253C106.49 15.6253 107.276 15.8147 107.931 16.1935C108.59 16.5685 109.096 17.095 109.448 17.773C109.804 18.4472 109.982 19.2332 109.982 20.131C109.982 21.0249 109.804 21.8109 109.448 22.4889C109.096 23.1632 108.59 23.6897 107.931 24.0685C107.276 24.4435 106.49 24.631 105.573 24.631ZM105.59 22.5344C105.924 22.5344 106.206 22.4321 106.437 22.2276C106.668 22.023 106.844 21.7389 106.965 21.3753C107.09 21.0116 107.153 20.5912 107.153 20.1139C107.153 19.6291 107.09 19.2048 106.965 18.8412C106.844 18.4776 106.668 18.1935 106.437 17.9889C106.206 17.7844 105.924 17.6821 105.59 17.6821C105.246 17.6821 104.954 17.7844 104.715 17.9889C104.481 18.1935 104.301 18.4776 104.176 18.8412C104.054 19.2048 103.994 19.6291 103.994 20.1139C103.994 20.5912 104.054 21.0116 104.176 21.3753C104.301 21.7389 104.481 22.023 104.715 22.2276C104.954 22.4321 105.246 22.5344 105.59 22.5344ZM114.593 24.5912C113.949 24.5912 113.364 24.4245 112.838 24.0912C112.311 23.7579 111.891 23.2579 111.576 22.5912C111.262 21.9245 111.105 21.0969 111.105 20.1082C111.105 19.0817 111.267 18.237 111.593 17.5741C111.919 16.9113 112.345 16.4207 112.872 16.1025C113.402 15.7844 113.972 15.6253 114.582 15.6253C115.04 15.6253 115.432 15.7048 115.758 15.8639C116.084 16.0192 116.353 16.22 116.565 16.4662C116.777 16.7124 116.938 16.9681 117.048 17.2332H117.105V12.8298H119.883V24.4662H117.133V23.0514H117.048C116.93 23.3204 116.764 23.5722 116.548 23.8071C116.332 24.0419 116.061 24.2313 115.735 24.3753C115.413 24.5192 115.033 24.5912 114.593 24.5912ZM115.559 22.4264C115.896 22.4264 116.184 22.3317 116.423 22.1423C116.661 21.9491 116.845 21.6783 116.974 21.3298C117.103 20.9813 117.167 20.5722 117.167 20.1026C117.167 19.6253 117.103 19.2143 116.974 18.8696C116.849 18.5249 116.665 18.2597 116.423 18.0741C116.184 17.8885 115.896 17.7957 115.559 17.7957C115.214 17.7957 114.923 17.8904 114.684 18.0798C114.445 18.2692 114.264 18.5363 114.139 18.881C114.017 19.2257 113.957 19.6329 113.957 20.1026C113.957 20.5722 114.019 20.9813 114.144 21.3298C114.269 21.6783 114.449 21.9491 114.684 22.1423C114.923 22.3317 115.214 22.4264 115.559 22.4264Z" fill="white"/>
<defs>
<linearGradient id="paint0_linear_6478_444" x1="500" y1="12" x2="500" y2="144.029" gradientUnits="userSpaceOnUse">
<stop/>
<stop offset="1" stop-color="#1C0130"/>
</linearGradient>
<linearGradient id="paint1_linear_6478_444" x1="500" y1="12" x2="500" y2="134" gradientUnits="userSpaceOnUse">
<stop stop-color="#020103"/>
<stop offset="1" stop-color="#311645"/>
</linearGradient>
<linearGradient id="paint2_linear_6478_444" x1="4.81955e-08" y1="18.2353" x2="149.889" y2="13.922" gradientUnits="userSpaceOnUse">
<stop stop-color="#413EFE"/>
<stop offset="1" stop-color="#9F38E5"/>
</linearGradient>
</defs>
</svg>
