<svg width="345" height="71" viewBox="0 0 345 71" fill="none" xmlns="http://www.w3.org/2000/svg">
<path d="M77 16H344.5V41.9575H329.5V50.4436H308.5V62.424H45.5V53.4387H40V37.9641H55.5V29.4779H77V16Z" fill="#22DEAC"/>
<g opacity="0.5">
<path d="M192.099 61.9287L201.282 35.3288L206.167 35.3125L215.527 61.8505L210.463 61.8674L208.843 57.1413L198.751 57.175L197.163 61.9118L192.099 61.9287ZM203.766 42.345L200.376 52.4381L207.223 52.4152L203.766 42.345ZM220.94 61.8325L212.917 40.5674L217.945 40.5506L223.38 55.5277L228.607 40.515L233.564 40.4985L225.79 61.8163L220.94 61.8325ZM244.145 62.1917C237.584 62.2136 233.11 57.3515 233.09 51.2006C233.069 44.9769 237.795 40.0476 243.893 40.0272C250.098 40.0065 254.642 44.6501 254.663 50.9465L254.669 52.8027L237.695 52.8594C238.383 55.878 240.708 57.872 244.131 57.8606C246.841 57.8516 248.904 56.3888 249.895 54.0926L253.861 56.4087C252.054 59.8724 248.852 62.176 244.145 62.1917ZM243.907 44.3583C241.019 44.368 238.778 46.1225 237.931 48.7458L249.77 48.7063C249.047 45.8334 246.903 44.3483 243.907 44.3583ZM256.241 59.2032C256.235 57.4198 257.337 56.2151 259.155 56.209C260.974 56.2029 262.048 57.4004 262.054 59.1838C262.06 60.9308 260.958 62.1356 259.139 62.1417C257.321 62.1477 256.247 60.9503 256.241 59.2032ZM273.832 62.0926C268.804 62.1094 263.548 58.0506 263.525 51.0625C263.502 44.0017 268.552 39.9449 273.829 39.9273C276.575 39.9181 279.004 41.0383 280.543 42.8894L280.535 40.3416L285.349 40.3256L285.42 61.6172L280.606 61.6332L280.596 58.8672C279.07 60.874 276.578 62.0834 273.832 62.0926ZM274.601 57.5769C278.203 57.5649 280.832 54.608 280.82 50.932C280.807 47.2924 278.159 44.3896 274.557 44.4016C270.991 44.4135 268.255 47.2979 268.268 50.9739C268.28 54.6863 271.035 57.5888 274.601 57.5769ZM288.162 61.608L288.091 40.3164L292.94 40.3002L293.011 61.5918L288.162 61.608ZM287.467 35.1138C287.461 33.2576 288.634 32.0162 290.488 32.01C292.378 32.0037 293.523 33.2374 293.529 35.0936C293.535 36.9498 292.398 38.1546 290.508 38.161C288.547 38.1675 287.473 36.97 287.467 35.1138Z" fill="#DDFFF6"/>
</g>
<path d="M61 60.4649L54 49.982H61L69.5 39L76 49.982L84 39L90 49.982L98 39L105.5 50.9804H96.5L90 60.4649L84 50.9804L76 60.4649L69.5 50.9804L61 60.4649Z" fill="#FFFFFD"/>
<path fill-rule="evenodd" clip-rule="evenodd" d="M331.63 25.9429L327.5 30.0659L330.3 32.8614L334.43 28.7384L338.559 32.8614L341.359 30.0659L337.23 25.9429L341.5 21.6795L338.7 18.884L334.43 23.1474L330.159 18.884L327.359 21.6795L331.63 25.9429Z" fill="white"/>
<path fill-rule="evenodd" clip-rule="evenodd" d="M307.352 36.8545L299.759 44.4353L304.907 49.5752L312.5 41.9944L320.093 49.5752L325.241 44.4353L317.648 36.8545L325.5 29.0156L320.352 23.8757L312.5 31.7146L304.648 23.8757L299.5 29.0156L307.352 36.8545Z" fill="white"/>
<g clip-path="url(#clip0_390_1025)">
<path d="M6.1228 33.4138L16.1019 67.5196L54.8191 62.4415L54.534 28.6558L6.1228 33.4138Z" fill="#6722DB" stroke="black" stroke-width="0.5" stroke-miterlimit="10"/>
<path d="M27.9227 46.7351L31.0379 44.7986L27.2715 44.4716L26.3103 41.1228L24.9129 44.2669L21.1367 43.9354L23.9895 46.3443L22.2547 50.2541L25.9249 47.9741L29.0295 50.5884L27.9227 46.7351Z" fill="#FCCF4F"/>
<path d="M39.6012 44.1614L41.6461 41.1169L38.0763 42.3682L35.8193 39.7129L35.8426 43.1483L32.2644 44.4041L35.8581 45.4203L35.8876 49.6984L38.2948 46.1103L42.2009 47.2179L39.6012 44.1614Z" fill="#FCCF4F"/>
<path d="M21.1445 51.8921C21.2525 52.5375 20.2611 53.2383 18.9294 53.461C17.5978 53.6837 16.4318 53.3406 16.3244 52.6983C16.2169 52.0559 17.2078 51.3521 18.5395 51.1294C19.8711 50.9067 21.0371 51.2497 21.1445 51.8921Z" fill="#FFB0B8"/>
<path d="M49.3323 47.5782C49.4402 48.2235 48.4488 48.9244 47.1172 49.1471C45.7855 49.3698 44.6196 49.0267 44.5121 48.3843C44.4047 47.742 45.3951 47.0352 46.7267 46.8125C48.0584 46.5898 49.2244 46.9328 49.3323 47.5782Z" fill="#FFB0B8"/>
<path d="M32.9353 53.5611C31.2462 53.8436 27.4407 50.2979 25.3599 51.132C23.2792 51.9661 23.7512 58.2857 28.1237 59.9666C32.4962 61.6474 38.8557 59.2417 41.4468 56.222C44.0408 53.2018 41.9927 48.0598 39.5081 48.4754C37.384 48.8306 35.6463 53.1078 32.9353 53.5611Z" fill="#130749"/>
<path d="M33.0239 54.0356C31.4628 54.2967 27.9837 51.2741 26.0529 52.0159C24.1221 52.7576 24.4925 58.2138 28.5159 59.6198C32.5363 61.0263 38.4346 58.8842 40.8599 56.2469C43.2858 53.6125 41.4468 49.1907 39.1499 49.5748C37.1867 49.9031 35.5353 53.6156 33.0269 54.0351L33.0239 54.0356Z" fill="#E1E3EA"/>
<path d="M42.2683 51.7037L41.9728 51.4015C41.3776 51.981 40.7839 52.4961 40.1927 52.9527L38.5813 49.1959L38.1926 49.3618L39.8447 53.2157C38.8141 53.975 37.7993 54.5544 36.8173 54.9999L35.6268 52.2764L35.2385 52.4452L36.429 55.1688C35.1496 55.7037 33.9292 56.0057 32.8145 56.1524L32.7712 53.8973L32.3501 53.9066L32.3939 56.2013C31.5568 56.2863 30.7822 56.2874 30.091 56.2379C29.5239 56.1983 28.9911 56.1253 28.4975 56.0306L29.1718 52.3899L28.7577 52.3124L28.0854 55.9466C26.0251 55.4933 24.7274 54.729 24.7106 54.7196L24.4922 55.0801C24.5637 55.1232 25.8827 55.9054 28.008 56.3631L27.4285 59.4897L27.8426 59.5672L28.4202 56.447C28.9227 56.5403 29.465 56.6147 30.0415 56.6559C30.7515 56.7083 31.5445 56.7072 32.4035 56.6246L32.4725 60.1869L32.8936 60.1776L32.824 56.5757C32.9978 56.5528 33.1746 56.5293 33.3533 56.4994C34.3722 56.329 35.4645 56.0302 36.6009 55.5558L37.9211 58.5786L38.3093 58.4098L36.9892 55.3869C37.9717 54.9444 38.9889 54.3616 40.0186 53.6146L41.1137 56.1707L41.5024 56.0048L40.3671 53.3546C41 52.8727 41.6344 52.3263 42.2718 51.7061L42.2683 51.7037Z" fill="#130749"/>
<path d="M23.891 41.6712L21.7681 41.21C21.787 41.1212 22.2586 39.0155 24.1045 38.0586C25.3556 37.4092 26.8626 37.4476 28.5828 38.1748L27.7348 40.1724C26.6472 39.7122 25.7663 39.6456 25.1175 39.9773C24.1806 40.4549 23.8925 41.6618 23.8915 41.6742L23.891 41.6712Z" fill="#130749"/>
<path d="M38.135 39.5153C38.135 39.5153 37.4649 38.4564 36.4236 38.3096C35.7021 38.2071 34.8908 38.5568 34.0122 39.3457L32.5604 37.7328C33.9503 36.4854 35.3628 35.9587 36.7572 36.1658C38.8139 36.4699 39.9451 38.3076 39.9917 38.3854L38.1305 39.5068L39.0599 38.9479L38.135 39.5153Z" fill="#130749"/>
<path d="M54.4371 23.1323L54.4312 23.1333L49.2643 27.0118L51.639 22.6617C50.6514 22.5243 49.6528 22.4131 48.6433 22.3281L48.6403 22.3286L42.5404 27.7695L45.5309 22.1394C43.7558 22.0725 41.9712 22.0775 40.1872 22.1404L40.1842 22.1409L33.9708 26.867L36.7258 22.3188C34.9105 22.4512 33.1032 22.6312 31.3306 22.8543L24.1776 28.7189L27.558 23.3874C25.991 23.6311 24.4588 23.8996 22.9817 24.1864L15.0119 30.2212L18.5349 25.1196C16.6705 25.5446 14.9233 25.9743 13.3276 26.3941L8.19975 29.7004L8.67636 27.6978C5.48239 28.6508 3.58183 29.3355 3.58183 29.3355L4.18738 32.0407L6.82175 31.111L4.77105 34.6701L5.31496 37.1165L12.242 32.9223L8.6686 37.1732L14.5271 36.4594L20.9109 32.2215L18.2152 36.0076L23.4317 35.3737L29.9332 31.1803L27.1745 34.9189L33.0151 34.2081L40.313 29.9426L36.803 33.7488L40.9445 33.2427L46.4006 30.1413L44.6724 32.7904L48.3522 32.3431L52.293 29.8131L52.3556 31.854L56.5393 31.3438L56.7663 27.9399L53.3846 28.7226L56.9913 24.6709L57.0541 23.728C56.196 23.5046 55.3225 23.2991 54.4391 23.1259L54.4371 23.1323Z" fill="#F9A41C" stroke="black" stroke-width="0.5" stroke-miterlimit="10"/>
<path d="M13.3216 26.395L4.77108 34.6699L4.18194 32.0446L8.67042 27.6987C10.006 27.298 11.5735 26.8555 13.3216 26.395Z" fill="#FCCF4F" stroke="black" stroke-width="0.5" stroke-miterlimit="10"/>
<path d="M22.9751 24.1844L8.66898 37.1761L5.41825 37.57L5.31484 37.1164L18.5288 25.1206C19.9484 24.8006 21.4359 24.4846 22.9756 24.1873L22.9751 24.1844Z" fill="#FCCF4F" stroke="black" stroke-width="0.5" stroke-miterlimit="10"/>
<path d="M31.3275 22.8547L18.2191 36.013L14.5305 36.4618L27.555 23.3878C28.7898 23.1905 30.0525 23.0129 31.3275 22.8547Z" fill="#FCCF4F" stroke="black" stroke-width="0.5" stroke-miterlimit="10"/>
<path d="M40.1811 22.1414L27.1779 34.9214L23.4351 35.3762L36.7228 22.3193C37.8702 22.2405 39.0232 22.1761 40.1811 22.1414Z" fill="#FCCF4F" stroke="black" stroke-width="0.5" stroke-miterlimit="10"/>
<path d="M48.6404 22.3287L36.8066 33.7514L33.0221 34.2131L45.5315 22.1425C46.5728 22.1793 47.615 22.2404 48.6409 22.3317L48.6404 22.3287Z" fill="#FCCF4F" stroke="black" stroke-width="0.5" stroke-miterlimit="10"/>
<path d="M54.4313 23.1332L44.67 32.7938L40.9451 33.2456L51.6391 22.6616L51.6421 22.6611C52.5825 22.7912 53.5151 22.9471 54.4318 23.1362L54.4313 23.1332Z" fill="#FCCF4F" stroke="black" stroke-width="0.5" stroke-miterlimit="10"/>
<path d="M56.9889 24.6743L56.7664 27.9399L56.7669 27.9428L52.3562 31.8569L48.3523 32.3431L56.9889 24.6743Z" fill="#FCCF4F" stroke="black" stroke-width="0.5" stroke-miterlimit="10"/>
<path d="M33.6965 21.199C46.3528 14.1817 47.9724 4.7669 39.7894 2.78788C31.6063 0.808864 27.4948 21.3068 27.4948 21.3068C20.3433 4.108 10.3262 4.62157 9.00355 12.0577C7.68137 19.4967 24.8864 22.9048 24.8864 22.9048L4.88578 22.7585L12.9104 35.4182L25.1645 24.5672L26.5559 35.6704L32.8686 34.6147L32.8517 24.0581L48.1035 31.1312L52.4857 16.4272L33.6941 21.2025L33.6965 21.199Z" fill="white" stroke="black" stroke-width="0.5" stroke-miterlimit="10"/>
<path d="M28.8114 25.4431C28.6033 25.4442 28.4047 25.4102 28.2125 25.3598C29.4279 24.9547 30.2058 24.3508 30.5194 23.5524C30.9809 22.3746 30.2506 21.2495 30.2183 21.2029L29.8351 21.4565C29.8351 21.4565 30.4645 22.4366 30.0884 23.3921C29.7847 24.1583 28.9268 24.7237 27.5441 25.0803C26.3765 24.3981 25.6383 23.0052 25.6288 22.9854L25.2202 23.1974C25.2784 23.307 26.655 25.9168 28.8125 25.9076C28.9565 25.9079 29.098 25.8934 29.241 25.8695C30.7007 25.6254 32.1145 24.1722 33.4529 21.5363L33.0417 21.3299C31.6566 24.0531 30.2315 25.4379 28.8089 25.4465L28.8114 25.4431Z" fill="#FF6666"/>
<path d="M25.5003 19.7266L12.9987 15.2904C13.3945 14.0135 14.4559 11.3139 15.6128 11.31C16.1511 11.3055 16.9819 11.9339 17.8994 14.9477L18.3393 14.813C17.5277 12.1392 16.6341 10.8426 15.6092 10.8489C13.8465 10.8564 12.6286 14.909 12.4942 15.3686L12.4342 15.5774L25.343 20.1595L25.4973 19.7271L25.5003 19.7266Z" fill="#FF6666"/>
<path d="M31.2362 19.177L43.5327 9.49598L43.3738 9.31468C43.2412 9.1626 40.1105 5.6049 38.1732 6.41804C37.0492 6.89339 36.6227 8.62782 36.8743 11.7254L37.3336 11.6884C37.1083 8.89511 37.4589 7.21924 38.3516 6.84372C39.6151 6.30528 41.9023 8.38989 42.8649 9.43954L30.9501 18.8213L31.2342 19.1835L31.2362 19.177Z" fill="#FF6666"/>
</g>
<defs>
<clipPath id="clip0_390_1025">
<rect width="54" height="62" fill="white" transform="translate(0 8.90747) rotate(-9.49448)"/>
</clipPath>
</defs>
</svg>
