<svg width="335" height="103" viewBox="0 0 335 103" fill="none" xmlns="http://www.w3.org/2000/svg">
<rect x="0.5" y="12.5" width="334" height="90" rx="3.5" fill="url(#paint0_linear_6478_316)" stroke="url(#paint1_linear_6478_316)"/>
<path d="M24.332 68.884H27.188V66.568H27.848V68.884H30.764V69.532H27.848V73.12H31.328V73.756H23.804V73.12H27.188V69.532H24.332V68.884ZM22.484 69.076C21.98 69.616 21.44 70.132 20.864 70.612L20.444 70.084C22.028 68.776 23.252 67.276 24.128 65.572H20.864V64.936H24.428C24.668 64.36 24.884 63.76 25.076 63.16L25.736 63.232C25.568 63.82 25.364 64.384 25.136 64.936H31.292V65.572H24.848C24.368 66.556 23.804 67.468 23.132 68.308V74.2H22.484V69.076ZM35.432 64.432H36.296L39.728 73H38.924L37.928 70.444H33.8L32.804 73H32L35.432 64.432ZM34.04 69.82H37.688L35.888 65.224H35.852L34.04 69.82ZM39.7827 64.432H40.5987L43.4667 72.22H43.5027L46.3707 64.432H47.1867L43.9587 73H43.0227L39.7827 64.432ZM48.1221 64.432H54.1341V65.08H48.8541V68.236H53.8461V68.896H48.8541V72.352H54.3381V73H48.1221V64.432ZM56.0516 63.82H65.6876V64.468H61.1276V69.208H66.1316V69.844H61.1276V74.164H60.4796V69.844H55.5716V69.208H60.4796V64.468H56.0516V63.82ZM57.3476 65.392C57.8156 66.232 58.2596 67.156 58.6676 68.164L58.0556 68.464C57.6476 67.42 57.2036 66.496 56.7476 65.68L57.3476 65.392ZM64.4036 65.308L65.0036 65.584C64.6196 66.568 64.1156 67.516 63.5156 68.428L62.9276 68.128C63.5516 67.18 64.0436 66.244 64.4036 65.308ZM76.7876 69.268V74.188H76.1396V73.504H69.5636V74.188H68.9156V69.268H76.7876ZM69.5636 72.868H76.1396V69.892H69.5636V72.868ZM68.0036 67.924L67.8836 67.312C69.0476 66.832 70.3916 65.464 71.9036 63.208L72.5636 63.436C71.3996 65.128 70.2476 66.412 69.0956 67.288C71.6396 67.18 73.9796 67.024 76.1396 66.808C75.6116 66.088 75.0836 65.428 74.5556 64.828L75.1556 64.54C76.2116 65.764 77.2076 67.084 78.1196 68.524L77.4956 68.836C77.1836 68.32 76.8596 67.84 76.5476 67.384C74.0036 67.624 71.1596 67.804 68.0036 67.924ZM79.5836 64.732H84.6716C84.4556 64.192 84.2036 63.7 83.9276 63.268L84.6356 63.148C84.8996 63.604 85.1396 64.132 85.3676 64.732H90.1316V65.344H79.5836V64.732ZM86.6876 65.872C88.0196 66.94 89.1356 68.008 90.0356 69.088L89.5556 69.556C88.7396 68.536 87.6236 67.456 86.2316 66.304L86.6876 65.872ZM86.9756 68.092L87.5756 68.356C86.9876 69.484 86.2556 70.468 85.3796 71.284C86.6996 72.28 88.3196 73.024 90.2396 73.528L89.8556 74.128C87.8636 73.576 86.2076 72.772 84.8876 71.728C83.5436 72.856 81.8876 73.672 79.9196 74.176L79.5236 73.6C81.4676 73.096 83.0876 72.34 84.3836 71.308C83.4596 70.492 82.7156 69.568 82.1396 68.512L82.7036 68.188C83.2556 69.22 83.9876 70.108 84.8756 70.876C85.7396 70.084 86.4476 69.148 86.9756 68.092ZM82.9436 65.872L83.4236 66.304C82.5116 67.492 81.3836 68.524 80.0396 69.412L79.6196 68.872C80.9396 68.02 82.0436 67.024 82.9436 65.872ZM95.0756 67.78H93.2756V63.712H100.488V67.78H95.7836C95.5436 68.164 95.2436 68.536 94.8956 68.884H101.352C101.316 70.156 101.244 71.176 101.148 71.956C101.028 72.724 100.836 73.264 100.584 73.576C100.332 73.876 99.9236 74.044 99.3596 74.068H97.8836L97.7276 73.444C98.1836 73.468 98.6276 73.48 99.0476 73.48C99.6716 73.48 100.092 73.228 100.296 72.736C100.5 72.232 100.632 71.14 100.704 69.484H99.3596C98.3516 71.824 96.6836 73.372 94.3796 74.14L94.0196 73.6C96.2036 72.88 97.7756 71.512 98.7116 69.484H96.9236C96.1076 70.84 94.7396 71.908 92.7956 72.688L92.3756 72.184C94.2116 71.488 95.4956 70.588 96.2396 69.484H94.2116C93.6116 69.952 92.8916 70.372 92.0756 70.732L91.7156 70.168C93.2516 69.544 94.3796 68.74 95.0756 67.78ZM99.8396 67.204V66.016H93.9116V67.204H99.8396ZM93.9116 65.464H99.8396V64.276H93.9116V65.464ZM106.188 64.264V63.292H106.68V64.276C107.364 64.312 107.928 64.528 108.372 64.912C108.852 65.32 109.14 65.944 109.26 66.76H108.54C108.444 66.136 108.204 65.668 107.844 65.356C107.532 65.092 107.148 64.948 106.68 64.912V68.356L108.108 68.872C108.972 69.304 109.404 69.916 109.404 70.72C109.404 71.56 109.116 72.196 108.552 72.616C108.096 72.952 107.472 73.132 106.68 73.168V74.212H106.188V73.156C105.396 73.108 104.784 72.856 104.352 72.388C103.896 71.908 103.62 71.2 103.524 70.264H104.256C104.34 71.032 104.556 71.596 104.892 71.956C105.192 72.28 105.624 72.46 106.188 72.508V68.884L104.964 68.452C104.1 68.02 103.68 67.408 103.68 66.592C103.68 65.824 103.944 65.236 104.484 64.828C104.916 64.48 105.492 64.288 106.188 64.264ZM106.68 69.064V72.52C107.292 72.484 107.772 72.328 108.12 72.052C108.48 71.74 108.66 71.308 108.66 70.744C108.66 70.12 108.228 69.64 107.376 69.304L106.68 69.064ZM106.188 68.176V64.912C105.684 64.936 105.288 65.056 104.988 65.296C104.604 65.584 104.412 66.016 104.412 66.592C104.412 67.18 104.844 67.648 105.708 67.996L106.188 68.176ZM110.359 64.432H111.271L113.767 67.948L116.275 64.432H117.187L114.211 68.548L117.439 73H116.515L113.767 69.124L111.019 73H110.107L113.323 68.548L110.359 64.432ZM118.376 64.432H121.856C123.752 64.432 124.712 65.248 124.712 66.892C124.712 68.536 123.752 69.364 121.844 69.364H119.108V73H118.376V64.432ZM119.108 65.08V68.716H121.808C122.552 68.716 123.092 68.56 123.452 68.26C123.788 67.96 123.968 67.504 123.968 66.892C123.968 66.28 123.788 65.836 123.452 65.548C123.092 65.236 122.54 65.08 121.808 65.08H119.108ZM126.089 64.432H126.821V73H126.089V64.432ZM128.677 64.432H129.505L134.689 71.86H134.725V64.432H135.469V73H134.653L129.445 65.512H129.409V73H128.677V64.432ZM147.264 66.184L147.372 66.808L143.328 67.3C143.4 68.164 143.508 68.908 143.652 69.52C143.94 70.744 144.36 71.716 144.912 72.436C145.404 73.084 145.872 73.42 146.304 73.444C146.664 73.432 146.94 72.628 147.108 71.044L147.672 71.38C147.528 72.364 147.336 73.084 147.096 73.564C146.88 73.912 146.628 74.092 146.34 74.092C145.764 74.092 145.164 73.708 144.552 72.952C143.88 72.136 143.376 71.056 143.04 69.712C142.884 69.088 142.764 68.32 142.68 67.384L139.992 67.708L139.896 67.096L142.632 66.76C142.56 65.728 142.512 64.54 142.5 63.196H143.148C143.148 64.516 143.196 65.668 143.268 66.676L147.264 66.184ZM138.48 67.144C138.024 67.792 137.52 68.404 136.968 68.968L136.764 68.296C138.132 66.784 139.116 65.092 139.716 63.196L140.316 63.472C140.004 64.408 139.608 65.296 139.128 66.124V74.2H138.48V67.144ZM144.504 63.316C145.248 63.928 145.872 64.552 146.376 65.176L145.932 65.608C145.476 65.02 144.864 64.384 144.072 63.712L144.504 63.316ZM157.656 72.724H156.588L156.42 72.064L157.44 72.088C157.788 72.088 157.968 71.908 157.968 71.56V67.528H154.692V74.2H154.044V67.528H150.756V72.748H150.108V66.904H154.044V64.816C152.616 64.936 151.056 65.008 149.376 65.008L149.16 64.384C153.12 64.372 156.36 64.024 158.892 63.34L159.228 63.916C157.932 64.3 156.42 64.576 154.692 64.756V66.904H158.616V71.692C158.616 72.376 158.292 72.724 157.656 72.724ZM165.096 65.368V73.432H164.472V72.7H162.048V73.768H161.424V65.368H162.504C162.756 64.684 162.936 63.964 163.044 63.22L163.704 63.304C163.572 64.048 163.38 64.732 163.128 65.368H165.096ZM162.048 72.1H164.472V69.256H162.048V72.1ZM162.048 68.668H164.472V65.992H162.048V68.668ZM167.136 68.08C168.048 69.088 168.744 69.964 169.224 70.72L168.708 71.092C168.204 70.276 167.496 69.388 166.608 68.416L167.136 68.08ZM171.312 65.38C171.312 69.256 171.252 71.656 171.144 72.568C171.024 73.528 170.472 74.008 169.476 74.008C169.248 74.008 168.852 73.996 168.3 73.984L168.144 73.384C168.624 73.408 169.044 73.42 169.404 73.42C170.052 73.42 170.424 73.06 170.52 72.352C170.616 71.632 170.664 69.52 170.688 66.028H167.148C166.812 66.808 166.416 67.504 165.936 68.128L165.552 67.624C166.416 66.424 167.004 64.948 167.316 63.208L167.952 63.28C167.808 64.024 167.628 64.732 167.4 65.38H171.312ZM174.78 67.276V69.388C174.78 69.448 174.768 69.508 174.768 69.58H178.068V67.276H174.78ZM174.732 70.192C174.612 71.752 174.156 73.036 173.376 74.044L172.896 73.6C173.688 72.508 174.096 71.116 174.12 69.436V63.748H182.88V72.724C182.88 73.504 182.484 73.9 181.704 73.9H180.324L180.156 73.264C180.636 73.288 181.08 73.3 181.488 73.3C181.98 73.3 182.232 73.024 182.232 72.484V70.192H178.716V73.768H178.068V70.192H174.732ZM182.232 69.58V67.276H178.716V69.58H182.232ZM182.232 66.676V64.384H178.716V66.676H182.232ZM178.068 64.384H174.78V66.676H178.068V64.384ZM194.076 65.404H186.972V67.996H194.076V65.404ZM186.972 68.632C186.924 70.792 186.348 72.664 185.256 74.224L184.764 73.78C185.796 72.388 186.324 70.6 186.336 68.416V64.756H190.296C190.08 64.204 189.84 63.712 189.576 63.28L190.26 63.16C190.5 63.628 190.728 64.156 190.944 64.756H194.736V68.632H186.972ZM206.304 64.708V74.164H205.656V73.348H199.032V74.164H198.384V64.708H200.916C201.204 64.216 201.42 63.712 201.552 63.184L202.212 63.28C202.068 63.784 201.864 64.264 201.6 64.708H206.304ZM199.032 72.724H205.656V70.576H199.032V72.724ZM199.032 69.952H205.656V67.948H199.032V69.952ZM199.032 67.324H205.656V65.332H199.032V67.324ZM209.46 64.144H213.732V64.756H209.46V64.144ZM208.98 67.372H214.2V68.02H211.38C210.84 70 210.372 71.38 209.976 72.16C211.044 71.968 212.1 71.668 213.156 71.272C212.82 70.576 212.496 69.94 212.16 69.364L212.712 69.1C213.3 70.132 213.852 71.248 214.38 72.472L213.804 72.76C213.66 72.424 213.528 72.1 213.396 71.812C212.112 72.268 210.72 72.628 209.22 72.904L209.064 72.292C209.124 72.268 209.172 72.256 209.196 72.232C209.58 71.728 210.096 70.324 210.744 68.02H208.98V67.372ZM216.132 63.256H216.78V65.764H219.42C219.42 69.388 219.36 71.644 219.252 72.508C219.132 73.528 218.58 74.044 217.584 74.044C217.368 74.044 217.008 74.032 216.504 74.008L216.348 73.444C216.804 73.456 217.188 73.468 217.524 73.468C218.148 73.468 218.52 73.072 218.628 72.304C218.724 71.632 218.772 69.652 218.796 66.388H216.78V66.568C216.744 70.036 215.904 72.568 214.26 74.176L213.768 73.744C215.316 72.256 216.108 69.856 216.132 66.568V66.388H214.44V65.764H216.132V63.256ZM221.124 66.892H225.168C225.432 66.532 225.636 66.16 225.78 65.776C224.7 65.824 223.572 65.86 222.396 65.896L222.288 65.32C223.14 65.056 224.136 64.36 225.264 63.208L225.9 63.424C225.12 64.24 224.352 64.864 223.584 65.32C225.432 65.26 227.148 65.176 228.732 65.056C228.324 64.696 227.904 64.324 227.448 63.952L227.952 63.628C229.14 64.576 230.052 65.404 230.688 66.124L230.148 66.484C229.884 66.184 229.596 65.884 229.284 65.572C228.384 65.632 227.436 65.692 226.452 65.74C226.308 66.148 226.116 66.532 225.888 66.892H231.468V67.492H228.312C229.056 68.32 230.232 68.968 231.828 69.436L231.54 70.036C229.692 69.388 228.384 68.548 227.628 67.492H225.444C224.508 68.572 223.08 69.448 221.184 70.108L220.896 69.532C222.552 69.028 223.812 68.344 224.652 67.492H221.124V66.892ZM226.452 68.068L226.98 68.38C226.164 69.376 224.928 70.168 223.248 70.756L222.948 70.228C224.544 69.688 225.708 68.968 226.452 68.068ZM229.56 69.904L230.124 70.168C229.032 72.136 226.656 73.516 222.984 74.296L222.6 73.78C226.248 72.988 228.564 71.704 229.56 69.904ZM227.988 69.052L228.504 69.388C227.124 70.972 225.348 71.968 223.176 72.364L222.804 71.848C225.024 71.488 226.752 70.552 227.988 69.052ZM235.128 63.172L235.776 63.22L235.596 64.936H243.024V65.572H235.536L235.308 67.708H242.112C242.112 70.9 241.884 72.748 241.452 73.252C240.996 73.732 240.048 73.984 238.608 73.984C238.236 73.984 237.852 73.972 237.456 73.96L237.264 73.36C237.84 73.384 238.236 73.408 238.464 73.408C239.88 73.408 240.732 73.168 241.02 72.688C241.308 72.184 241.464 70.72 241.464 68.32H234.576L235.128 63.172ZM232.956 70.444H239.76V71.08H232.956V70.444Z" fill="white"/>
<path d="M0 12C0 5.37258 5.37258 0 12 0H108.313C111.082 0 113.014 2.74593 112.078 5.35209L102.021 33.3521C101.451 34.9406 99.9445 36 98.2566 36H0V12Z" fill="url(#paint2_linear_6478_316)"/>
<path d="M26.1998 10.8663L28.3438 11.4103C27.9598 11.9543 27.5544 12.5036 27.1278 13.0583C26.7118 13.6023 26.3278 14.0663 25.9758 14.4503L24.4078 13.9063C24.6318 13.629 24.8558 13.3143 25.0798 12.9623C25.3038 12.6103 25.5118 12.253 25.7038 11.8903C25.9064 11.517 26.0718 11.1756 26.1998 10.8663ZM30.2158 12.2903L31.7358 11.4263C32.1731 11.7463 32.6371 12.109 33.1278 12.5143C33.6184 12.909 34.0824 13.309 34.5198 13.7143C34.9678 14.1196 35.3304 14.493 35.6078 14.8343L33.9438 15.8263C33.6984 15.485 33.3678 15.1116 32.9518 14.7063C32.5358 14.2903 32.0878 13.869 31.6078 13.4423C31.1278 13.0156 30.6638 12.6316 30.2158 12.2903ZM22.0398 13.4583C22.7651 13.437 23.5811 13.4156 24.4878 13.3943C25.4051 13.373 26.3704 13.3516 27.3838 13.3303C28.4078 13.2983 29.4531 13.2663 30.5198 13.2343C31.5864 13.2023 32.6424 13.1703 33.6878 13.1383L33.6078 14.7223C32.2638 14.7756 30.9038 14.8343 29.5278 14.8983C28.1518 14.9516 26.8398 14.9996 25.5918 15.0423C24.3438 15.085 23.2291 15.117 22.2478 15.1383L22.0398 13.4583ZM21.4958 16.0343H36.0718V17.6503H21.4958V16.0343ZM28.9998 18.1463L30.4878 18.8663C30.0718 19.1543 29.5971 19.421 29.0638 19.6663C28.5304 19.901 27.9758 20.109 27.3998 20.2903C26.8344 20.4716 26.2904 20.621 25.7678 20.7383C25.6504 20.5676 25.4904 20.3756 25.2878 20.1623C25.0958 19.949 24.9038 19.7676 24.7118 19.6183C25.1918 19.5223 25.7038 19.3996 26.2478 19.2503C26.7918 19.101 27.3038 18.9303 27.7838 18.7383C28.2744 18.5463 28.6798 18.349 28.9998 18.1463ZM30.4718 19.9063L31.9918 20.6423C31.4691 21.0583 30.8558 21.4316 30.1518 21.7623C29.4584 22.093 28.7171 22.381 27.9278 22.6263C27.1491 22.8716 26.3651 23.0796 25.5758 23.2503C25.4691 23.0476 25.3198 22.8183 25.1278 22.5623C24.9464 22.2956 24.7598 22.0716 24.5678 21.8903C25.2718 21.773 25.9971 21.6183 26.7438 21.4263C27.5011 21.2343 28.2051 21.0103 28.8558 20.7543C29.5064 20.4983 30.0451 20.2156 30.4718 19.9063ZM32.3918 21.6023L34.0718 22.3703C33.3891 23.0743 32.5464 23.661 31.5438 24.1303C30.5518 24.5996 29.4478 24.9783 28.2318 25.2663C27.0158 25.5543 25.7251 25.7783 24.3598 25.9383C24.2744 25.693 24.1518 25.421 23.9918 25.1223C23.8318 24.8343 23.6611 24.5836 23.4798 24.3703C24.7278 24.2636 25.9224 24.0983 27.0638 23.8743C28.2051 23.6503 29.2344 23.357 30.1518 22.9943C31.0798 22.621 31.8264 22.157 32.3918 21.6023ZM26.6958 14.3703L28.5998 14.8343C27.9918 16.4556 27.1438 17.8583 26.0558 19.0423C24.9784 20.2156 23.7358 21.1596 22.3278 21.8743C22.2424 21.7463 22.1144 21.5863 21.9438 21.3943C21.7731 21.2023 21.5971 21.0156 21.4158 20.8343C21.2344 20.653 21.0691 20.5036 20.9198 20.3863C22.3064 19.8103 23.4958 19.0156 24.4878 18.0023C25.4798 16.9783 26.2158 15.7676 26.6958 14.3703ZM31.6238 16.4343C31.9438 16.957 32.3544 17.4636 32.8558 17.9543C33.3571 18.4343 33.9171 18.8716 34.5358 19.2663C35.1544 19.661 35.7784 19.9863 36.4078 20.2423C36.2798 20.349 36.1358 20.493 35.9758 20.6743C35.8158 20.8556 35.6611 21.0423 35.5118 21.2343C35.3731 21.4263 35.2558 21.597 35.1598 21.7463C34.4878 21.4156 33.8318 21.0103 33.1918 20.5303C32.5518 20.0503 31.9598 19.5116 31.4158 18.9143C30.8824 18.3063 30.4184 17.677 30.0238 17.0263L31.6238 16.4343ZM37.7838 11.8423H51.7518V14.5783H49.9278V13.2823H39.5278V14.5783H37.7838V11.8423ZM41.5438 13.5543H43.3198V18.0183H41.5438V13.5543ZM46.1838 13.5543H47.9758V18.0183H46.1838V13.5543ZM39.4158 14.1303H50.1358V15.1703H39.4158V14.1303ZM39.5918 15.8103H50.0238V16.7863H39.5918V15.8103ZM37.6878 17.4103H51.8638V18.7223H37.6878V17.4103ZM41.8478 17.7303L43.2398 18.2903C42.8664 18.7703 42.4131 19.229 41.8798 19.6663C41.3464 20.093 40.7651 20.477 40.1358 20.8183C39.5171 21.1596 38.8878 21.437 38.2478 21.6503C38.1304 21.437 37.9598 21.1916 37.7358 20.9143C37.5118 20.637 37.3038 20.413 37.1118 20.2423C37.7304 20.093 38.3384 19.8956 38.9358 19.6503C39.5438 19.3943 40.0984 19.101 40.5998 18.7703C41.1118 18.4396 41.5278 18.093 41.8478 17.7303ZM47.8478 17.6503C48.1678 17.9916 48.5678 18.317 49.0478 18.6263C49.5278 18.925 50.0558 19.1916 50.6318 19.4263C51.2078 19.6503 51.7944 19.8316 52.3918 19.9703C52.1998 20.141 51.9864 20.3756 51.7518 20.6743C51.5171 20.9623 51.3358 21.2183 51.2078 21.4423C50.5998 21.2503 49.9971 20.989 49.3998 20.6583C48.8131 20.3276 48.2691 19.949 47.7678 19.5223C47.2664 19.0956 46.8344 18.653 46.4718 18.1943L47.8478 17.6503ZM43.6078 11.1543L45.5278 10.6583C45.6664 10.8823 45.7998 11.1436 45.9278 11.4423C46.0664 11.7303 46.1571 11.981 46.1998 12.1943L44.1838 12.7543C44.1518 12.5516 44.0771 12.301 43.9598 12.0023C43.8531 11.693 43.7358 11.4103 43.6078 11.1543ZM40.0878 19.6183H49.7038V23.2823H47.8958V20.9943H41.8318V23.4263H40.0878V19.6183ZM43.9918 21.3463H45.8798C45.7198 22.0183 45.4798 22.605 45.1598 23.1063C44.8398 23.6076 44.3971 24.0343 43.8318 24.3863C43.2664 24.7383 42.5304 25.0316 41.6238 25.2663C40.7171 25.501 39.5811 25.693 38.2158 25.8423C38.1624 25.629 38.0611 25.3783 37.9118 25.0903C37.7731 24.813 37.6291 24.5836 37.4798 24.4023C38.6958 24.3063 39.6984 24.1836 40.4878 24.0343C41.2771 23.8743 41.9064 23.6716 42.3758 23.4263C42.8451 23.181 43.1971 22.893 43.4318 22.5623C43.6771 22.221 43.8638 21.8156 43.9918 21.3463ZM45.0158 23.8103L45.9758 22.6263C46.4558 22.7436 46.9784 22.8823 47.5438 23.0423C48.1091 23.1916 48.6744 23.357 49.2398 23.5383C49.8158 23.709 50.3544 23.885 50.8558 24.0663C51.3678 24.237 51.8051 24.4023 52.1678 24.5623L51.1278 25.9223C50.7864 25.7623 50.3704 25.5863 49.8798 25.3943C49.3891 25.2023 48.8664 25.0103 48.3118 24.8183C47.7571 24.6263 47.1918 24.445 46.6158 24.2743C46.0504 24.093 45.5171 23.9383 45.0158 23.8103ZM53.4958 13.4423H68.0078V15.2663H53.4958V13.4423ZM58.8398 17.3623H64.9678V19.1703H58.8398V17.3623ZM64.2478 17.3623H66.2318C66.2318 17.3623 66.2264 17.4156 66.2158 17.5223C66.2158 17.6183 66.2158 17.7303 66.2158 17.8583C66.2158 17.9863 66.2051 18.0983 66.1838 18.1943C66.0878 19.6556 65.9811 20.8503 65.8638 21.7783C65.7464 22.7063 65.6131 23.4316 65.4638 23.9543C65.3144 24.4663 65.1331 24.8396 64.9198 25.0743C64.6744 25.341 64.4184 25.5223 64.1518 25.6183C63.8851 25.7143 63.5651 25.7836 63.1918 25.8263C62.8824 25.8583 62.4771 25.869 61.9758 25.8583C61.4744 25.8583 60.9571 25.8476 60.4238 25.8263C60.4131 25.549 60.3438 25.229 60.2158 24.8663C60.0878 24.5143 59.9278 24.205 59.7358 23.9383C60.2904 23.9916 60.8238 24.0236 61.3358 24.0343C61.8478 24.045 62.2158 24.0503 62.4398 24.0503C62.6211 24.0503 62.7704 24.0396 62.8878 24.0183C63.0158 23.9863 63.1278 23.9276 63.2238 23.8423C63.3944 23.7036 63.5384 23.3996 63.6558 22.9303C63.7838 22.461 63.8958 21.7943 63.9918 20.9303C64.0878 20.0663 64.1731 18.973 64.2478 17.6503V17.3623ZM58.1198 14.5303H60.2638C60.2211 15.3836 60.1518 16.2476 60.0558 17.1223C59.9704 17.9863 59.8211 18.845 59.6078 19.6983C59.3944 20.541 59.0851 21.3463 58.6798 22.1143C58.2744 22.8823 57.7411 23.597 57.0798 24.2583C56.4184 24.9196 55.5811 25.5063 54.5678 26.0183C54.4291 25.7516 54.2264 25.4636 53.9598 25.1543C53.7038 24.845 53.4531 24.589 53.2078 24.3863C54.1358 23.9596 54.8931 23.4636 55.4798 22.8983C56.0771 22.3223 56.5464 21.7036 56.8878 21.0423C57.2291 20.3703 57.4798 19.6716 57.6398 18.9463C57.8104 18.221 57.9224 17.485 57.9758 16.7383C58.0398 15.9916 58.0878 15.2556 58.1198 14.5303ZM59.6558 10.8023H61.6558V14.1623H59.6558V10.8023ZM80.1678 11.9223L81.4318 10.8663C81.6771 11.0263 81.9331 11.213 82.1998 11.4263C82.4771 11.6396 82.7331 11.853 82.9678 12.0663C83.2131 12.2796 83.4104 12.4716 83.5598 12.6423L82.1998 13.8103C82.0718 13.6183 81.8904 13.4156 81.6558 13.2023C81.4318 12.9783 81.1864 12.7543 80.9198 12.5303C80.6638 12.3063 80.4131 12.1036 80.1678 11.9223ZM69.5598 13.6023H83.9598V15.4743H69.5598V13.6023ZM70.1678 17.2983H77.0958V19.1543H70.1678V17.2983ZM72.5838 18.3543H74.5038V23.7783H72.5838V18.3543ZM69.5598 23.5223C70.1998 23.4156 70.9518 23.293 71.8158 23.1543C72.6904 23.005 73.6131 22.845 74.5838 22.6743C75.5651 22.5036 76.5411 22.3276 77.5118 22.1463L77.6398 23.8583C76.7651 24.0503 75.8798 24.2423 74.9838 24.4343C74.0878 24.6156 73.2238 24.7916 72.3918 24.9623C71.5598 25.1436 70.7918 25.309 70.0878 25.4583L69.5598 23.5223ZM77.4318 10.9303H79.4958C79.4638 12.253 79.4798 13.5436 79.5438 14.8023C79.6184 16.061 79.7358 17.2396 79.8958 18.3383C80.0558 19.437 80.2478 20.4023 80.4718 21.2343C80.6958 22.0663 80.9411 22.717 81.2078 23.1863C81.4851 23.6556 81.7784 23.8903 82.0878 23.8903C82.2691 23.8903 82.4024 23.661 82.4878 23.2023C82.5838 22.7436 82.6531 22.0076 82.6958 20.9943C82.9198 21.2183 83.1864 21.437 83.4958 21.6503C83.8158 21.8636 84.1091 22.0183 84.3758 22.1143C84.2904 23.1276 84.1464 23.9116 83.9438 24.4663C83.7518 25.0103 83.4904 25.3836 83.1598 25.5863C82.8398 25.7996 82.4238 25.9063 81.9118 25.9063C81.3358 25.9063 80.8238 25.709 80.3758 25.3143C79.9278 24.9196 79.5384 24.3756 79.2078 23.6823C78.8771 22.9783 78.5998 22.1516 78.3758 21.2023C78.1518 20.253 77.9704 19.2236 77.8318 18.1143C77.6931 16.9943 77.5918 15.8263 77.5278 14.6103C77.4638 13.3943 77.4318 12.1676 77.4318 10.9303Z" fill="white"/>
<defs>
<linearGradient id="paint0_linear_6478_316" x1="167.5" y1="12" x2="167.5" y2="110.481" gradientUnits="userSpaceOnUse">
<stop/>
<stop offset="1" stop-color="#1C0130"/>
</linearGradient>
<linearGradient id="paint1_linear_6478_316" x1="167.5" y1="12" x2="167.5" y2="103" gradientUnits="userSpaceOnUse">
<stop stop-color="#020103"/>
<stop offset="1" stop-color="#311645"/>
</linearGradient>
<linearGradient id="paint2_linear_6478_316" x1="3.66286e-08" y1="18.2353" x2="113.956" y2="15.7431" gradientUnits="userSpaceOnUse">
<stop stop-color="#413EFE"/>
<stop offset="1" stop-color="#9F38E5"/>
</linearGradient>
</defs>
</svg>
