<svg width="1000" height="103" viewBox="0 0 1000 103" fill="none" xmlns="http://www.w3.org/2000/svg">
<rect x="0.5" y="12.5" width="999" height="90" rx="3.5" fill="url(#paint0_linear_6313_722)" stroke="url(#paint1_linear_6313_722)"/>
<path d="M24.332 68.884H27.188V66.568H27.848V68.884H30.764V69.532H27.848V73.12H31.328V73.756H23.804V73.12H27.188V69.532H24.332V68.884ZM22.484 69.076C21.98 69.616 21.44 70.132 20.864 70.612L20.444 70.084C22.028 68.776 23.252 67.276 24.128 65.572H20.864V64.936H24.428C24.668 64.36 24.884 63.76 25.076 63.16L25.736 63.232C25.568 63.82 25.364 64.384 25.136 64.936H31.292V65.572H24.848C24.368 66.556 23.804 67.468 23.132 68.308V74.2H22.484V69.076ZM35.432 64.432H36.296L39.728 73H38.924L37.928 70.444H33.8L32.804 73H32L35.432 64.432ZM34.04 69.82H37.688L35.888 65.224H35.852L34.04 69.82ZM39.7827 64.432H40.5987L43.4667 72.22H43.5027L46.3707 64.432H47.1867L43.9587 73H43.0227L39.7827 64.432ZM48.1221 64.432H54.1341V65.08H48.8541V68.236H53.8461V68.896H48.8541V72.352H54.3381V73H48.1221V64.432ZM56.0516 63.82H65.6876V64.468H61.1276V69.208H66.1316V69.844H61.1276V74.164H60.4796V69.844H55.5716V69.208H60.4796V64.468H56.0516V63.82ZM57.3476 65.392C57.8156 66.232 58.2596 67.156 58.6676 68.164L58.0556 68.464C57.6476 67.42 57.2036 66.496 56.7476 65.68L57.3476 65.392ZM64.4036 65.308L65.0036 65.584C64.6196 66.568 64.1156 67.516 63.5156 68.428L62.9276 68.128C63.5516 67.18 64.0436 66.244 64.4036 65.308ZM76.7876 69.268V74.188H76.1396V73.504H69.5636V74.188H68.9156V69.268H76.7876ZM69.5636 72.868H76.1396V69.892H69.5636V72.868ZM68.0036 67.924L67.8836 67.312C69.0476 66.832 70.3916 65.464 71.9036 63.208L72.5636 63.436C71.3996 65.128 70.2476 66.412 69.0956 67.288C71.6396 67.18 73.9796 67.024 76.1396 66.808C75.6116 66.088 75.0836 65.428 74.5556 64.828L75.1556 64.54C76.2116 65.764 77.2076 67.084 78.1196 68.524L77.4956 68.836C77.1836 68.32 76.8596 67.84 76.5476 67.384C74.0036 67.624 71.1596 67.804 68.0036 67.924ZM79.5836 64.732H84.6716C84.4556 64.192 84.2036 63.7 83.9276 63.268L84.6356 63.148C84.8996 63.604 85.1396 64.132 85.3676 64.732H90.1316V65.344H79.5836V64.732ZM86.6876 65.872C88.0196 66.94 89.1356 68.008 90.0356 69.088L89.5556 69.556C88.7396 68.536 87.6236 67.456 86.2316 66.304L86.6876 65.872ZM86.9756 68.092L87.5756 68.356C86.9876 69.484 86.2556 70.468 85.3796 71.284C86.6996 72.28 88.3196 73.024 90.2396 73.528L89.8556 74.128C87.8636 73.576 86.2076 72.772 84.8876 71.728C83.5436 72.856 81.8876 73.672 79.9196 74.176L79.5236 73.6C81.4676 73.096 83.0876 72.34 84.3836 71.308C83.4596 70.492 82.7156 69.568 82.1396 68.512L82.7036 68.188C83.2556 69.22 83.9876 70.108 84.8756 70.876C85.7396 70.084 86.4476 69.148 86.9756 68.092ZM82.9436 65.872L83.4236 66.304C82.5116 67.492 81.3836 68.524 80.0396 69.412L79.6196 68.872C80.9396 68.02 82.0436 67.024 82.9436 65.872ZM95.0756 67.78H93.2756V63.712H100.488V67.78H95.7836C95.5436 68.164 95.2436 68.536 94.8956 68.884H101.352C101.316 70.156 101.244 71.176 101.148 71.956C101.028 72.724 100.836 73.264 100.584 73.576C100.332 73.876 99.9236 74.044 99.3596 74.068H97.8836L97.7276 73.444C98.1836 73.468 98.6276 73.48 99.0476 73.48C99.6716 73.48 100.092 73.228 100.296 72.736C100.5 72.232 100.632 71.14 100.704 69.484H99.3596C98.3516 71.824 96.6836 73.372 94.3796 74.14L94.0196 73.6C96.2036 72.88 97.7756 71.512 98.7116 69.484H96.9236C96.1076 70.84 94.7396 71.908 92.7956 72.688L92.3756 72.184C94.2116 71.488 95.4956 70.588 96.2396 69.484H94.2116C93.6116 69.952 92.8916 70.372 92.0756 70.732L91.7156 70.168C93.2516 69.544 94.3796 68.74 95.0756 67.78ZM99.8396 67.204V66.016H93.9116V67.204H99.8396ZM93.9116 65.464H99.8396V64.276H93.9116V65.464ZM106.188 64.264V63.292H106.68V64.276C107.364 64.312 107.928 64.528 108.372 64.912C108.852 65.32 109.14 65.944 109.26 66.76H108.54C108.444 66.136 108.204 65.668 107.844 65.356C107.532 65.092 107.148 64.948 106.68 64.912V68.356L108.108 68.872C108.972 69.304 109.404 69.916 109.404 70.72C109.404 71.56 109.116 72.196 108.552 72.616C108.096 72.952 107.472 73.132 106.68 73.168V74.212H106.188V73.156C105.396 73.108 104.784 72.856 104.352 72.388C103.896 71.908 103.62 71.2 103.524 70.264H104.256C104.34 71.032 104.556 71.596 104.892 71.956C105.192 72.28 105.624 72.46 106.188 72.508V68.884L104.964 68.452C104.1 68.02 103.68 67.408 103.68 66.592C103.68 65.824 103.944 65.236 104.484 64.828C104.916 64.48 105.492 64.288 106.188 64.264ZM106.68 69.064V72.52C107.292 72.484 107.772 72.328 108.12 72.052C108.48 71.74 108.66 71.308 108.66 70.744C108.66 70.12 108.228 69.64 107.376 69.304L106.68 69.064ZM106.188 68.176V64.912C105.684 64.936 105.288 65.056 104.988 65.296C104.604 65.584 104.412 66.016 104.412 66.592C104.412 67.18 104.844 67.648 105.708 67.996L106.188 68.176ZM110.359 64.432H111.271L113.767 67.948L116.275 64.432H117.187L114.211 68.548L117.439 73H116.515L113.767 69.124L111.019 73H110.107L113.323 68.548L110.359 64.432ZM118.376 64.432H121.856C123.752 64.432 124.712 65.248 124.712 66.892C124.712 68.536 123.752 69.364 121.844 69.364H119.108V73H118.376V64.432ZM119.108 65.08V68.716H121.808C122.552 68.716 123.092 68.56 123.452 68.26C123.788 67.96 123.968 67.504 123.968 66.892C123.968 66.28 123.788 65.836 123.452 65.548C123.092 65.236 122.54 65.08 121.808 65.08H119.108ZM126.089 64.432H126.821V73H126.089V64.432ZM128.677 64.432H129.505L134.689 71.86H134.725V64.432H135.469V73H134.653L129.445 65.512H129.409V73H128.677V64.432ZM147.264 66.184L147.372 66.808L143.328 67.3C143.4 68.164 143.508 68.908 143.652 69.52C143.94 70.744 144.36 71.716 144.912 72.436C145.404 73.084 145.872 73.42 146.304 73.444C146.664 73.432 146.94 72.628 147.108 71.044L147.672 71.38C147.528 72.364 147.336 73.084 147.096 73.564C146.88 73.912 146.628 74.092 146.34 74.092C145.764 74.092 145.164 73.708 144.552 72.952C143.88 72.136 143.376 71.056 143.04 69.712C142.884 69.088 142.764 68.32 142.68 67.384L139.992 67.708L139.896 67.096L142.632 66.76C142.56 65.728 142.512 64.54 142.5 63.196H143.148C143.148 64.516 143.196 65.668 143.268 66.676L147.264 66.184ZM138.48 67.144C138.024 67.792 137.52 68.404 136.968 68.968L136.764 68.296C138.132 66.784 139.116 65.092 139.716 63.196L140.316 63.472C140.004 64.408 139.608 65.296 139.128 66.124V74.2H138.48V67.144ZM144.504 63.316C145.248 63.928 145.872 64.552 146.376 65.176L145.932 65.608C145.476 65.02 144.864 64.384 144.072 63.712L144.504 63.316ZM157.656 72.724H156.588L156.42 72.064L157.44 72.088C157.788 72.088 157.968 71.908 157.968 71.56V67.528H154.692V74.2H154.044V67.528H150.756V72.748H150.108V66.904H154.044V64.816C152.616 64.936 151.056 65.008 149.376 65.008L149.16 64.384C153.12 64.372 156.36 64.024 158.892 63.34L159.228 63.916C157.932 64.3 156.42 64.576 154.692 64.756V66.904H158.616V71.692C158.616 72.376 158.292 72.724 157.656 72.724ZM165.096 65.368V73.432H164.472V72.7H162.048V73.768H161.424V65.368H162.504C162.756 64.684 162.936 63.964 163.044 63.22L163.704 63.304C163.572 64.048 163.38 64.732 163.128 65.368H165.096ZM162.048 72.1H164.472V69.256H162.048V72.1ZM162.048 68.668H164.472V65.992H162.048V68.668ZM167.136 68.08C168.048 69.088 168.744 69.964 169.224 70.72L168.708 71.092C168.204 70.276 167.496 69.388 166.608 68.416L167.136 68.08ZM171.312 65.38C171.312 69.256 171.252 71.656 171.144 72.568C171.024 73.528 170.472 74.008 169.476 74.008C169.248 74.008 168.852 73.996 168.3 73.984L168.144 73.384C168.624 73.408 169.044 73.42 169.404 73.42C170.052 73.42 170.424 73.06 170.52 72.352C170.616 71.632 170.664 69.52 170.688 66.028H167.148C166.812 66.808 166.416 67.504 165.936 68.128L165.552 67.624C166.416 66.424 167.004 64.948 167.316 63.208L167.952 63.28C167.808 64.024 167.628 64.732 167.4 65.38H171.312ZM174.78 67.276V69.388C174.78 69.448 174.768 69.508 174.768 69.58H178.068V67.276H174.78ZM174.732 70.192C174.612 71.752 174.156 73.036 173.376 74.044L172.896 73.6C173.688 72.508 174.096 71.116 174.12 69.436V63.748H182.88V72.724C182.88 73.504 182.484 73.9 181.704 73.9H180.324L180.156 73.264C180.636 73.288 181.08 73.3 181.488 73.3C181.98 73.3 182.232 73.024 182.232 72.484V70.192H178.716V73.768H178.068V70.192H174.732ZM182.232 69.58V67.276H178.716V69.58H182.232ZM182.232 66.676V64.384H178.716V66.676H182.232ZM178.068 64.384H174.78V66.676H178.068V64.384ZM194.076 65.404H186.972V67.996H194.076V65.404ZM186.972 68.632C186.924 70.792 186.348 72.664 185.256 74.224L184.764 73.78C185.796 72.388 186.324 70.6 186.336 68.416V64.756H190.296C190.08 64.204 189.84 63.712 189.576 63.28L190.26 63.16C190.5 63.628 190.728 64.156 190.944 64.756H194.736V68.632H186.972ZM206.304 64.708V74.164H205.656V73.348H199.032V74.164H198.384V64.708H200.916C201.204 64.216 201.42 63.712 201.552 63.184L202.212 63.28C202.068 63.784 201.864 64.264 201.6 64.708H206.304ZM199.032 72.724H205.656V70.576H199.032V72.724ZM199.032 69.952H205.656V67.948H199.032V69.952ZM199.032 67.324H205.656V65.332H199.032V67.324ZM209.46 64.144H213.732V64.756H209.46V64.144ZM208.98 67.372H214.2V68.02H211.38C210.84 70 210.372 71.38 209.976 72.16C211.044 71.968 212.1 71.668 213.156 71.272C212.82 70.576 212.496 69.94 212.16 69.364L212.712 69.1C213.3 70.132 213.852 71.248 214.38 72.472L213.804 72.76C213.66 72.424 213.528 72.1 213.396 71.812C212.112 72.268 210.72 72.628 209.22 72.904L209.064 72.292C209.124 72.268 209.172 72.256 209.196 72.232C209.58 71.728 210.096 70.324 210.744 68.02H208.98V67.372ZM216.132 63.256H216.78V65.764H219.42C219.42 69.388 219.36 71.644 219.252 72.508C219.132 73.528 218.58 74.044 217.584 74.044C217.368 74.044 217.008 74.032 216.504 74.008L216.348 73.444C216.804 73.456 217.188 73.468 217.524 73.468C218.148 73.468 218.52 73.072 218.628 72.304C218.724 71.632 218.772 69.652 218.796 66.388H216.78V66.568C216.744 70.036 215.904 72.568 214.26 74.176L213.768 73.744C215.316 72.256 216.108 69.856 216.132 66.568V66.388H214.44V65.764H216.132V63.256ZM221.124 66.892H225.168C225.432 66.532 225.636 66.16 225.78 65.776C224.7 65.824 223.572 65.86 222.396 65.896L222.288 65.32C223.14 65.056 224.136 64.36 225.264 63.208L225.9 63.424C225.12 64.24 224.352 64.864 223.584 65.32C225.432 65.26 227.148 65.176 228.732 65.056C228.324 64.696 227.904 64.324 227.448 63.952L227.952 63.628C229.14 64.576 230.052 65.404 230.688 66.124L230.148 66.484C229.884 66.184 229.596 65.884 229.284 65.572C228.384 65.632 227.436 65.692 226.452 65.74C226.308 66.148 226.116 66.532 225.888 66.892H231.468V67.492H228.312C229.056 68.32 230.232 68.968 231.828 69.436L231.54 70.036C229.692 69.388 228.384 68.548 227.628 67.492H225.444C224.508 68.572 223.08 69.448 221.184 70.108L220.896 69.532C222.552 69.028 223.812 68.344 224.652 67.492H221.124V66.892ZM226.452 68.068L226.98 68.38C226.164 69.376 224.928 70.168 223.248 70.756L222.948 70.228C224.544 69.688 225.708 68.968 226.452 68.068ZM229.56 69.904L230.124 70.168C229.032 72.136 226.656 73.516 222.984 74.296L222.6 73.78C226.248 72.988 228.564 71.704 229.56 69.904ZM227.988 69.052L228.504 69.388C227.124 70.972 225.348 71.968 223.176 72.364L222.804 71.848C225.024 71.488 226.752 70.552 227.988 69.052ZM235.128 63.172L235.776 63.22L235.596 64.936H243.024V65.572H235.536L235.308 67.708H242.112C242.112 70.9 241.884 72.748 241.452 73.252C240.996 73.732 240.048 73.984 238.608 73.984C238.236 73.984 237.852 73.972 237.456 73.96L237.264 73.36C237.84 73.384 238.236 73.408 238.464 73.408C239.88 73.408 240.732 73.168 241.02 72.688C241.308 72.184 241.464 70.72 241.464 68.32H234.576L235.128 63.172ZM232.956 70.444H239.76V71.08H232.956V70.444Z" fill="white"/>
<path d="M0 12C0 5.37258 5.37258 0 12 0H108.313C111.082 0 113.014 2.74593 112.078 5.35209L102.021 33.3521C101.451 34.9406 99.9445 36 98.2566 36H0V12Z" fill="url(#paint2_linear_6313_722)"/>
<path d="M26.1997 10.8663L28.3437 11.4103C27.9597 11.9543 27.5543 12.5036 27.1277 13.0583C26.7117 13.6023 26.3277 14.0663 25.9757 14.4503L24.4077 13.9063C24.6317 13.629 24.8557 13.3143 25.0797 12.9623C25.3037 12.6103 25.5117 12.253 25.7037 11.8903C25.9063 11.517 26.0717 11.1756 26.1997 10.8663ZM30.2157 12.2903L31.7357 11.4263C32.173 11.7463 32.637 12.109 33.1277 12.5143C33.6183 12.909 34.0823 13.309 34.5197 13.7143C34.9677 14.1196 35.3303 14.493 35.6077 14.8343L33.9437 15.8263C33.6983 15.485 33.3677 15.1116 32.9517 14.7063C32.5357 14.2903 32.0877 13.869 31.6077 13.4423C31.1277 13.0156 30.6637 12.6316 30.2157 12.2903ZM22.0397 13.4583C22.765 13.437 23.581 13.4156 24.4877 13.3943C25.405 13.373 26.3703 13.3516 27.3837 13.3303C28.4077 13.2983 29.453 13.2663 30.5197 13.2343C31.5863 13.2023 32.6423 13.1703 33.6877 13.1383L33.6077 14.7223C32.2637 14.7756 30.9037 14.8343 29.5277 14.8983C28.1517 14.9516 26.8397 14.9996 25.5917 15.0423C24.3437 15.085 23.229 15.117 22.2477 15.1383L22.0397 13.4583ZM21.4957 16.0343H36.0717V17.6503H21.4957V16.0343ZM28.9997 18.1463L30.4877 18.8663C30.0717 19.1543 29.597 19.421 29.0637 19.6663C28.5303 19.901 27.9757 20.109 27.3997 20.2903C26.8343 20.4716 26.2903 20.621 25.7677 20.7383C25.6503 20.5676 25.4903 20.3756 25.2877 20.1623C25.0957 19.949 24.9037 19.7676 24.7117 19.6183C25.1917 19.5223 25.7037 19.3996 26.2477 19.2503C26.7917 19.101 27.3037 18.9303 27.7837 18.7383C28.2743 18.5463 28.6797 18.349 28.9997 18.1463ZM30.4717 19.9063L31.9917 20.6423C31.469 21.0583 30.8557 21.4316 30.1517 21.7623C29.4583 22.093 28.717 22.381 27.9277 22.6263C27.149 22.8716 26.365 23.0796 25.5757 23.2503C25.469 23.0476 25.3197 22.8183 25.1277 22.5623C24.9463 22.2956 24.7597 22.0716 24.5677 21.8903C25.2717 21.773 25.997 21.6183 26.7437 21.4263C27.501 21.2343 28.205 21.0103 28.8557 20.7543C29.5063 20.4983 30.045 20.2156 30.4717 19.9063ZM32.3917 21.6023L34.0717 22.3703C33.389 23.0743 32.5463 23.661 31.5437 24.1303C30.5517 24.5996 29.4477 24.9783 28.2317 25.2663C27.0157 25.5543 25.725 25.7783 24.3597 25.9383C24.2743 25.693 24.1517 25.421 23.9917 25.1223C23.8317 24.8343 23.661 24.5836 23.4797 24.3703C24.7277 24.2636 25.9223 24.0983 27.0637 23.8743C28.205 23.6503 29.2343 23.357 30.1517 22.9943C31.0797 22.621 31.8263 22.157 32.3917 21.6023ZM26.6957 14.3703L28.5997 14.8343C27.9917 16.4556 27.1437 17.8583 26.0557 19.0423C24.9783 20.2156 23.7357 21.1596 22.3277 21.8743C22.2423 21.7463 22.1143 21.5863 21.9437 21.3943C21.773 21.2023 21.597 21.0156 21.4157 20.8343C21.2343 20.653 21.069 20.5036 20.9197 20.3863C22.3063 19.8103 23.4957 19.0156 24.4877 18.0023C25.4797 16.9783 26.2157 15.7676 26.6957 14.3703ZM31.6237 16.4343C31.9437 16.957 32.3543 17.4636 32.8557 17.9543C33.357 18.4343 33.917 18.8716 34.5357 19.2663C35.1543 19.661 35.7783 19.9863 36.4077 20.2423C36.2797 20.349 36.1357 20.493 35.9757 20.6743C35.8157 20.8556 35.661 21.0423 35.5117 21.2343C35.373 21.4263 35.2557 21.597 35.1597 21.7463C34.4877 21.4156 33.8317 21.0103 33.1917 20.5303C32.5517 20.0503 31.9597 19.5116 31.4157 18.9143C30.8823 18.3063 30.4183 17.677 30.0237 17.0263L31.6237 16.4343ZM37.7837 11.8423H51.7517V14.5783H49.9277V13.2823H39.5277V14.5783H37.7837V11.8423ZM41.5437 13.5543H43.3197V18.0183H41.5437V13.5543ZM46.1837 13.5543H47.9757V18.0183H46.1837V13.5543ZM39.4157 14.1303H50.1357V15.1703H39.4157V14.1303ZM39.5917 15.8103H50.0237V16.7863H39.5917V15.8103ZM37.6877 17.4103H51.8637V18.7223H37.6877V17.4103ZM41.8477 17.7303L43.2397 18.2903C42.8663 18.7703 42.413 19.229 41.8797 19.6663C41.3463 20.093 40.765 20.477 40.1357 20.8183C39.517 21.1596 38.8877 21.437 38.2477 21.6503C38.1303 21.437 37.9597 21.1916 37.7357 20.9143C37.5117 20.637 37.3037 20.413 37.1117 20.2423C37.7303 20.093 38.3383 19.8956 38.9357 19.6503C39.5437 19.3943 40.0983 19.101 40.5997 18.7703C41.1117 18.4396 41.5277 18.093 41.8477 17.7303ZM47.8477 17.6503C48.1677 17.9916 48.5677 18.317 49.0477 18.6263C49.5277 18.925 50.0557 19.1916 50.6317 19.4263C51.2077 19.6503 51.7943 19.8316 52.3917 19.9703C52.1997 20.141 51.9863 20.3756 51.7517 20.6743C51.517 20.9623 51.3357 21.2183 51.2077 21.4423C50.5997 21.2503 49.997 20.989 49.3997 20.6583C48.813 20.3276 48.269 19.949 47.7677 19.5223C47.2663 19.0956 46.8343 18.653 46.4717 18.1943L47.8477 17.6503ZM43.6077 11.1543L45.5277 10.6583C45.6663 10.8823 45.7997 11.1436 45.9277 11.4423C46.0663 11.7303 46.157 11.981 46.1997 12.1943L44.1837 12.7543C44.1517 12.5516 44.077 12.301 43.9597 12.0023C43.853 11.693 43.7357 11.4103 43.6077 11.1543ZM40.0877 19.6183H49.7037V23.2823H47.8957V20.9943H41.8317V23.4263H40.0877V19.6183ZM43.9917 21.3463H45.8797C45.7197 22.0183 45.4797 22.605 45.1597 23.1063C44.8397 23.6076 44.397 24.0343 43.8317 24.3863C43.2663 24.7383 42.5303 25.0316 41.6237 25.2663C40.717 25.501 39.581 25.693 38.2157 25.8423C38.1623 25.629 38.061 25.3783 37.9117 25.0903C37.773 24.813 37.629 24.5836 37.4797 24.4023C38.6957 24.3063 39.6983 24.1836 40.4877 24.0343C41.277 23.8743 41.9063 23.6716 42.3757 23.4263C42.845 23.181 43.197 22.893 43.4317 22.5623C43.677 22.221 43.8637 21.8156 43.9917 21.3463ZM45.0157 23.8103L45.9757 22.6263C46.4557 22.7436 46.9783 22.8823 47.5437 23.0423C48.109 23.1916 48.6743 23.357 49.2397 23.5383C49.8157 23.709 50.3543 23.885 50.8557 24.0663C51.3677 24.237 51.805 24.4023 52.1677 24.5623L51.1277 25.9223C50.7863 25.7623 50.3703 25.5863 49.8797 25.3943C49.389 25.2023 48.8663 25.0103 48.3117 24.8183C47.757 24.6263 47.1917 24.445 46.6157 24.2743C46.0503 24.093 45.517 23.9383 45.0157 23.8103ZM53.4957 13.4423H68.0077V15.2663H53.4957V13.4423ZM58.8397 17.3623H64.9677V19.1703H58.8397V17.3623ZM64.2477 17.3623H66.2317C66.2317 17.3623 66.2263 17.4156 66.2157 17.5223C66.2157 17.6183 66.2157 17.7303 66.2157 17.8583C66.2157 17.9863 66.205 18.0983 66.1837 18.1943C66.0877 19.6556 65.981 20.8503 65.8637 21.7783C65.7463 22.7063 65.613 23.4316 65.4637 23.9543C65.3143 24.4663 65.133 24.8396 64.9197 25.0743C64.6743 25.341 64.4183 25.5223 64.1517 25.6183C63.885 25.7143 63.565 25.7836 63.1917 25.8263C62.8823 25.8583 62.477 25.869 61.9757 25.8583C61.4743 25.8583 60.957 25.8476 60.4237 25.8263C60.413 25.549 60.3437 25.229 60.2157 24.8663C60.0877 24.5143 59.9277 24.205 59.7357 23.9383C60.2903 23.9916 60.8237 24.0236 61.3357 24.0343C61.8477 24.045 62.2157 24.0503 62.4397 24.0503C62.621 24.0503 62.7703 24.0396 62.8877 24.0183C63.0157 23.9863 63.1277 23.9276 63.2237 23.8423C63.3943 23.7036 63.5383 23.3996 63.6557 22.9303C63.7837 22.461 63.8957 21.7943 63.9917 20.9303C64.0877 20.0663 64.173 18.973 64.2477 17.6503V17.3623ZM58.1197 14.5303H60.2637C60.221 15.3836 60.1517 16.2476 60.0557 17.1223C59.9703 17.9863 59.821 18.845 59.6077 19.6983C59.3943 20.541 59.085 21.3463 58.6797 22.1143C58.2743 22.8823 57.741 23.597 57.0797 24.2583C56.4183 24.9196 55.581 25.5063 54.5677 26.0183C54.429 25.7516 54.2263 25.4636 53.9597 25.1543C53.7037 24.845 53.453 24.589 53.2077 24.3863C54.1357 23.9596 54.893 23.4636 55.4797 22.8983C56.077 22.3223 56.5463 21.7036 56.8877 21.0423C57.229 20.3703 57.4797 19.6716 57.6397 18.9463C57.8103 18.221 57.9223 17.485 57.9757 16.7383C58.0397 15.9916 58.0877 15.2556 58.1197 14.5303ZM59.6557 10.8023H61.6557V14.1623H59.6557V10.8023ZM80.1677 11.9223L81.4317 10.8663C81.677 11.0263 81.933 11.213 82.1997 11.4263C82.477 11.6396 82.733 11.853 82.9677 12.0663C83.213 12.2796 83.4103 12.4716 83.5597 12.6423L82.1997 13.8103C82.0717 13.6183 81.8903 13.4156 81.6557 13.2023C81.4317 12.9783 81.1863 12.7543 80.9197 12.5303C80.6637 12.3063 80.413 12.1036 80.1677 11.9223ZM69.5597 13.6023H83.9597V15.4743H69.5597V13.6023ZM70.1677 17.2983H77.0957V19.1543H70.1677V17.2983ZM72.5837 18.3543H74.5037V23.7783H72.5837V18.3543ZM69.5597 23.5223C70.1997 23.4156 70.9517 23.293 71.8157 23.1543C72.6903 23.005 73.613 22.845 74.5837 22.6743C75.565 22.5036 76.541 22.3276 77.5117 22.1463L77.6397 23.8583C76.765 24.0503 75.8797 24.2423 74.9837 24.4343C74.0877 24.6156 73.2237 24.7916 72.3917 24.9623C71.5597 25.1436 70.7917 25.309 70.0877 25.4583L69.5597 23.5223ZM77.4317 10.9303H79.4957C79.4637 12.253 79.4797 13.5436 79.5437 14.8023C79.6183 16.061 79.7357 17.2396 79.8957 18.3383C80.0557 19.437 80.2477 20.4023 80.4717 21.2343C80.6957 22.0663 80.941 22.717 81.2077 23.1863C81.485 23.6556 81.7783 23.8903 82.0877 23.8903C82.269 23.8903 82.4023 23.661 82.4877 23.2023C82.5837 22.7436 82.653 22.0076 82.6957 20.9943C82.9197 21.2183 83.1863 21.437 83.4957 21.6503C83.8157 21.8636 84.109 22.0183 84.3757 22.1143C84.2903 23.1276 84.1463 23.9116 83.9437 24.4663C83.7517 25.0103 83.4903 25.3836 83.1597 25.5863C82.8397 25.7996 82.4237 25.9063 81.9117 25.9063C81.3357 25.9063 80.8237 25.709 80.3757 25.3143C79.9277 24.9196 79.5383 24.3756 79.2077 23.6823C78.877 22.9783 78.5997 22.1516 78.3757 21.2023C78.1517 20.253 77.9703 19.2236 77.8317 18.1143C77.693 16.9943 77.5917 15.8263 77.5277 14.6103C77.4637 13.3943 77.4317 12.1676 77.4317 10.9303Z" fill="white"/>
<defs>
<linearGradient id="paint0_linear_6313_722" x1="500" y1="12" x2="500" y2="110.481" gradientUnits="userSpaceOnUse">
<stop/>
<stop offset="1" stop-color="#1C0130"/>
</linearGradient>
<linearGradient id="paint1_linear_6313_722" x1="500" y1="12" x2="500" y2="103" gradientUnits="userSpaceOnUse">
<stop stop-color="#020103"/>
<stop offset="1" stop-color="#311645"/>
</linearGradient>
<linearGradient id="paint2_linear_6313_722" x1="3.66286e-08" y1="18.2353" x2="113.956" y2="15.7431" gradientUnits="userSpaceOnUse">
<stop stop-color="#413EFE"/>
<stop offset="1" stop-color="#9F38E5"/>
</linearGradient>
</defs>
</svg>
