<svg width="331" height="55" viewBox="0 0 331 55" fill="none" xmlns="http://www.w3.org/2000/svg">
<path d="M267.5 7.88867H0V33.8462H15V42.3323H36V54.3127H299V45.3274H304.5V29.8527H289V21.3666H267.5V7.88867Z" fill="#22DEAC"/>
<g opacity="0.5">
<path d="M41.099 53.9287L50.2817 27.3288L55.167 27.3125L64.527 53.8505L59.4634 53.8674L57.843 49.1413L47.7515 49.175L46.1626 53.9118L41.099 53.9287ZM52.7656 34.345L49.376 44.4381L56.2225 44.4152L52.7656 34.345ZM69.9401 53.8325L61.917 32.5674L66.9449 32.5506L72.3795 47.5277L77.607 32.515L82.5636 32.4985L74.7897 53.8163L69.9401 53.8325ZM93.1453 54.1917C86.584 54.2136 82.1104 49.3515 82.0898 43.2006C82.0691 36.9769 86.7953 32.0476 92.893 32.0272C99.0977 32.0065 103.642 36.6501 103.663 42.9465L103.669 44.8027L86.6954 44.8594C87.3831 47.878 89.7076 49.872 93.1308 49.8606C95.8409 49.8516 97.9043 48.3888 98.8951 46.0926L102.861 48.4087C101.054 51.8724 97.8523 54.176 93.1453 54.1917ZM92.9075 36.3583C90.0191 36.368 87.7784 38.1225 86.9313 40.7458L98.7701 40.7063C98.0474 37.8334 95.9028 36.3483 92.9075 36.3583ZM105.241 51.2032C105.235 49.4198 106.337 48.2151 108.155 48.209C109.974 48.2029 111.048 49.4004 111.054 51.1838C111.06 52.9308 109.958 54.1356 108.139 54.1417C106.321 54.1477 105.247 52.9503 105.241 51.2032ZM122.832 54.0926C117.804 54.1094 112.548 50.0506 112.525 43.0625C112.502 36.0017 117.552 31.9449 122.829 31.9273C125.575 31.9181 128.004 33.0383 129.543 34.8894L129.535 32.3416L134.349 32.3256L134.42 53.6172L129.606 53.6332L129.596 50.8672C128.07 52.874 125.578 54.0834 122.832 54.0926ZM123.601 49.5769C127.203 49.5649 129.832 46.608 129.82 42.932C129.807 39.2924 127.159 36.3896 123.557 36.4016C119.991 36.4135 117.255 39.2979 117.268 42.9739C117.28 46.6863 120.035 49.5888 123.601 49.5769ZM137.162 53.608L137.091 32.3164L141.94 32.3002L142.011 53.5918L137.162 53.608ZM136.467 27.1138C136.461 25.2576 137.634 24.0162 139.488 24.01C141.378 24.0037 142.523 25.2374 142.529 27.0936C142.535 28.9498 141.398 30.1546 139.508 30.161C137.547 30.1675 136.473 28.97 136.467 27.1138Z" fill="#DDFFF6"/>
</g>
<path d="M284.5 53.4121L291.5 42.9293H284.5L276 31.9473L269.5 42.9293L261.5 31.9473L255.5 42.9293L247.5 31.9473L240 43.9277H249L255.5 53.4121L261.5 43.9277L269.5 53.4121L276 43.9277L284.5 53.4121Z" fill="#FFFFFD"/>
<path fill-rule="evenodd" clip-rule="evenodd" d="M13.8705 17.9427L18.0002 22.0657L15.2002 24.8612L11.0704 20.7381L6.94067 24.8612L4.14062 22.0657L8.27039 17.9427L4 13.6793L6.80005 10.8838L11.0704 15.1472L15.3408 10.8838L18.1409 13.6793L13.8705 17.9427Z" fill="white"/>
<path fill-rule="evenodd" clip-rule="evenodd" d="M38.1483 28.8543L45.7415 36.435L40.5932 41.5749L33 33.9942L25.4069 41.5749L20.2586 36.435L27.8517 28.8543L20 21.0154L25.1483 15.8755L33 23.7144L40.8518 15.8755L46.0001 21.0154L38.1483 28.8543Z" fill="white"/>
<path d="M323.996 9.30637L320.707 6.01947C317.022 2.25874 311.934 0 306.117 0C293.445 0 281.577 10.721 279.362 24.2711C278.053 32.2871 280.378 39.6337 285.112 44.5169L288.836 48.25C292.293 51.6404 296.956 53.7589 302.391 53.9429C315.881 54.3983 328.392 42.8102 330.068 28.4228C330.968 20.7013 328.527 13.8767 323.994 9.30637H323.996Z" fill="#26DCAA"/>
<path d="M326.696 25.0485C325.02 39.4336 312.509 51.024 299.019 50.5686C285.768 50.1201 277.087 38.1938 279.362 24.2711C281.577 10.721 293.446 0 306.117 0C318.788 0 328.327 11.0591 326.696 25.0485Z" fill="black"/>
<path d="M326.287 24.8233C324.635 38.9392 312.357 50.3088 299.117 49.8695C286.108 49.4371 277.577 37.7363 279.805 24.0665C281.975 10.7579 293.634 0.223286 306.085 0.225586C318.745 0.225586 327.895 11.0914 326.287 24.8256V24.8233Z" fill="white"/>
<path d="M306.085 0.225586C299.713 0.225586 293.59 2.96045 288.836 7.37212C293.51 3.24797 299.412 0.713216 305.542 0.717816C318.2 0.724716 327.34 11.5998 325.726 25.3408C324.918 32.2205 321.562 38.47 316.769 43.0243C321.864 38.4355 325.45 31.9698 326.287 24.8256C327.895 11.0914 318.745 0.227886 306.085 0.225586Z" fill="white"/>
<path d="M303.667 7.03162C313.636 7.07762 320.757 15.7077 319.428 26.5115C318.97 30.2377 317.563 33.7247 315.495 36.7011C318.211 33.4211 320.074 29.3545 320.613 24.9566C321.928 14.1782 314.798 5.57793 304.831 5.54112C298.324 5.51812 292.123 9.13854 288.183 14.5991C292.125 9.97579 297.772 7.00401 303.67 7.03162H303.667Z" fill="#F9E4CE"/>
<path d="M321.194 24.6004C319.816 35.9286 309.953 45.0394 299.329 44.722C288.854 44.4092 281.917 35.0315 283.667 23.9931C285.381 13.1894 294.841 4.62365 304.95 4.65585C315.198 4.68805 322.54 13.5206 321.192 24.6004H321.194Z" fill="black"/>
<path d="M320.61 24.9563C319.264 35.967 309.68 44.8203 299.359 44.5144C289.176 44.2107 282.428 35.0953 284.125 24.3582C285.788 13.842 294.991 5.50629 304.829 5.54309C314.795 5.57989 321.928 14.1801 320.61 24.9586V24.9563Z" fill="#26DCAA"/>
<path d="M303.667 7.03162C313.636 7.07762 320.757 15.7077 319.428 26.5115C318.97 30.2377 317.563 33.7247 315.495 36.7011C318.211 33.4211 320.074 29.3545 320.613 24.9566C321.928 14.1782 314.798 5.57793 304.831 5.54112C298.324 5.51812 292.123 9.13854 288.183 14.5991C292.125 9.97579 297.772 7.00401 303.67 7.03162H303.667Z" fill="white"/>
<path d="M293.862 32.618C294.508 33.6784 295.681 34.6008 297.629 34.9665C299.695 35.3575 301.468 34.7158 302.724 33.6508C304.859 31.8406 305.367 28.9608 303.619 28.0016C300.999 26.5641 298.743 29.3564 298.743 29.3564C298.743 29.3564 296.311 25.851 293.965 27.9855C293.146 28.7308 292.801 30.8906 293.859 32.618H293.862Z" fill="#FF8806"/>
<path d="M296.776 34.8977C295.419 34.4837 294.398 33.7269 293.774 32.7011C293.183 31.7327 292.967 30.5527 293.167 29.4533C293.287 28.7885 293.558 28.2227 293.912 27.9007C296.079 25.9295 298.305 28.5815 298.759 29.1703C299.223 28.6597 301.307 26.5873 303.686 27.8892C304.348 28.2503 304.744 28.9127 304.794 29.7569C304.875 31.0887 304.088 32.6735 302.802 33.7637C301.349 34.992 299.483 35.4612 297.604 35.1024C297.316 35.0472 297.038 34.9805 296.776 34.9V34.8977ZM296.031 27.459C295.4 27.3256 294.713 27.4475 294.023 28.0732C293.712 28.3538 293.473 28.8621 293.365 29.4648C293.178 30.5044 293.385 31.62 293.949 32.5378C294.667 33.7131 295.939 34.5136 297.655 34.8333C299.465 35.1714 301.257 34.7206 302.648 33.5429C303.863 32.5125 304.608 31.0243 304.537 29.7845C304.493 29.0231 304.15 28.4481 303.557 28.1192C301.05 26.7345 298.848 29.4096 298.828 29.4349L298.731 29.5545L298.653 29.4395C298.637 29.4142 297.471 27.7627 296.031 27.459Z" fill="black"/>
<path d="M297.696 31.8959C296.266 31.5186 295.465 30.111 295.111 29.2875L295.304 29.1587C295.672 30.0074 296.532 31.5071 298.096 31.7072C299.684 31.912 301.149 30.6722 301.88 29.9108L302.043 30.0948C301.278 30.8907 299.739 32.188 298.05 31.9649C297.929 31.9488 297.809 31.9258 297.694 31.8959H297.696Z" fill="black"/>
<path d="M299.978 23.5862C297.834 23.0181 296.429 26.7328 298.566 27.4205C300.831 28.1497 302.253 24.1888 299.978 23.5862Z" fill="#00C257"/>
<path d="M298.733 27.5951C298.664 27.5813 298.593 27.5629 298.522 27.5399C297.337 27.1557 297.202 25.9459 297.56 24.989C297.917 24.0367 298.828 23.1604 300.019 23.4732C301.247 23.7975 301.436 25.0143 301.075 26.0172C300.732 26.9671 299.858 27.8297 298.733 27.5974V27.5951ZM299.748 23.6618C298.789 23.5146 298.055 24.2507 297.758 25.0465C297.438 25.8976 297.56 26.9694 298.609 27.3029C299.686 27.6457 300.537 26.8429 300.859 25.9505C301.178 25.0672 301.015 23.9884 299.934 23.7009C299.872 23.6848 299.81 23.671 299.748 23.6618Z" fill="black"/>
<path d="M298.467 22.8845C297.422 26.3738 294.101 28.667 291.288 27.9517C288.682 27.2869 287.585 24.2715 288.641 21.2514C289.664 18.3187 292.452 16.1727 295.051 16.3981C297.846 16.6396 299.477 19.5079 298.467 22.8845Z" fill="white"/>
<path d="M291.336 28.0847C291.309 28.0778 291.281 28.0709 291.251 28.064C288.604 27.3854 287.488 24.3055 288.56 21.2395C289.068 19.7858 289.995 18.4954 291.191 17.5776C292.403 16.6484 293.781 16.1838 295.081 16.3011C297.924 16.5449 299.591 19.4684 298.566 22.9025C298.057 24.6092 296.976 26.1135 295.548 27.1048C294.172 28.0594 292.67 28.3975 291.334 28.0847H291.336ZM294.938 16.4943C293.705 16.4092 292.41 16.8485 291.263 17.7271C290.106 18.6127 289.209 19.8617 288.719 21.2648C288.222 22.6885 288.19 24.1399 288.647 25.3636C289.121 26.631 290.064 27.5211 291.325 27.8386C291.352 27.8455 291.38 27.8524 291.405 27.8593C292.693 28.156 294.138 27.8271 295.46 26.907C296.833 25.9524 297.873 24.5057 298.363 22.8657C299.352 19.5604 297.756 16.7381 295.016 16.4966C294.989 16.4943 294.963 16.492 294.936 16.4897L294.938 16.4943Z" fill="black"/>
<path d="M294.676 17.5504C292.682 17.3457 290.52 18.9903 289.74 21.2628C289.722 21.318 289.708 21.3755 289.689 21.4307L292.141 21.854L289.45 23.103C289.498 24.6762 290.359 25.9873 291.819 26.3231C293.938 26.8108 296.406 25.0788 297.197 22.4865C297.97 19.9587 296.783 17.7712 294.674 17.555L294.676 17.5504Z" fill="black"/>
<path d="M291.849 26.4404C291.828 26.4358 291.808 26.4312 291.785 26.4266C290.345 26.093 289.411 24.7843 289.363 23.1259V23.0384L291.81 21.8999L289.579 21.5135L289.627 21.3524C289.636 21.3179 289.648 21.2811 289.659 21.2443C290.457 18.9258 292.672 17.2306 294.708 17.4468C296.866 17.6653 298.087 19.9103 297.298 22.4956C296.498 25.1224 294.002 26.8912 291.849 26.4381V26.4404ZM289.544 23.1558C289.622 24.6945 290.508 25.8998 291.856 26.208C293.924 26.6727 296.33 24.9867 297.1 22.4657C297.855 20.0046 296.698 17.8631 294.644 17.6492C294.623 17.6492 294.602 17.6446 294.584 17.6423C292.656 17.479 290.575 19.0776 289.82 21.2719C289.813 21.2949 289.806 21.3179 289.8 21.3386L292.477 21.7964L289.542 23.1558H289.544Z" fill="black"/>
<path d="M301.055 22.4358C300.739 26.07 303.461 29.1752 307.419 29.1959C311.716 29.2189 315.426 25.6675 315.364 21.4904C315.304 17.5503 311.863 14.9557 307.96 15.4663C304.337 15.9402 301.354 18.9787 301.055 22.4358Z" fill="white"/>
<path d="M305.976 29.1845C304.585 28.8947 303.373 28.2024 302.466 27.1834C301.314 25.8884 300.787 24.207 300.941 22.4428C301.247 18.9351 304.286 15.8391 307.964 15.3538C311.931 14.8316 315.448 17.4722 315.513 21.4814C315.582 25.7343 311.789 29.3639 307.414 29.334C306.919 29.3294 306.436 29.2788 305.976 29.1845ZM309.245 15.5286C308.824 15.5079 308.394 15.5263 307.954 15.5838C304.398 16.0438 301.457 19.0386 301.167 22.4313C301.019 24.1357 301.532 25.7573 302.65 27.004C303.816 28.3059 305.507 29.0534 307.425 29.0603C311.63 29.0787 315.271 25.5894 315.214 21.5044C315.165 18.0909 312.504 15.685 309.247 15.5286H309.245Z" fill="black"/>
<path d="M307.909 16.7846C310.878 16.4349 313.422 18.4453 313.424 21.4032C313.424 21.4768 313.415 21.5504 313.413 21.6241L309.316 21.9116L312.847 23.7885C311.869 25.7574 309.795 27.1536 307.499 27.1858C304.497 27.2295 302.37 24.9248 302.581 22.1416C302.784 19.4642 305.105 17.1158 307.909 16.7846Z" fill="black"/>
<path d="M306.404 27.2292C305.339 27.0337 304.405 26.53 303.697 25.7709C302.788 24.798 302.358 23.5122 302.464 22.1505C302.673 19.4179 305.049 17.0097 307.913 16.6693C309.362 16.4968 310.751 16.8602 311.823 17.7158C312.934 18.6037 313.567 19.9102 313.569 21.3938C313.569 21.4421 313.567 21.4904 313.562 21.5387L313.551 21.7457L309.778 22.0056L313.033 23.7284L312.978 23.8388C311.945 25.9158 309.755 27.289 307.494 27.3189C307.119 27.3235 306.756 27.2936 306.404 27.2292ZM308.895 16.874C308.571 16.8533 308.24 16.8625 307.904 16.9016C305.167 17.219 302.892 19.5214 302.696 22.1344C302.6 23.4363 303.011 24.66 303.881 25.5869C304.78 26.5461 306.064 27.0751 307.501 27.0521C309.61 27.0199 311.651 25.7594 312.656 23.848L308.854 21.8193L313.272 21.5042C313.272 21.4743 313.277 21.4444 313.277 21.4168C313.277 20.0068 312.679 18.7601 311.625 17.9136C310.853 17.2926 309.905 16.9407 308.891 16.8763L308.895 16.874Z" fill="black"/>
</svg>
