<svg width="335" height="132" viewBox="0 0 335 132" fill="none" xmlns="http://www.w3.org/2000/svg">
<rect x="0.5" y="12.5" width="334" height="119" rx="3.5" fill="url(#paint0_linear_6254_1959)" stroke="url(#paint1_linear_6254_1959)"/>
<path d="M23.432 59.432H24.296L27.728 68H26.924L25.928 65.444H21.8L20.804 68H20L23.432 59.432ZM22.04 64.82H25.688L23.888 60.224H23.852L22.04 64.82ZM28.4787 61.796H29.1987V65.588C29.1987 66.236 29.3307 66.716 29.6067 67.04C29.8947 67.376 30.3387 67.544 30.9387 67.544C31.4187 67.544 31.8387 67.352 32.1987 66.992C32.5587 66.632 32.7627 66.152 32.8107 65.564V61.796H33.5307V68H32.8107V66.956C32.3307 67.76 31.6347 68.168 30.7467 68.168C29.2347 68.168 28.4787 67.316 28.4787 65.624V61.796ZM36.5412 59.792V61.796H38.1612V62.42H36.5412V66.62C36.5412 66.884 36.5892 67.088 36.6852 67.208C36.7812 67.316 36.9612 67.376 37.2252 67.376H38.0052V68H37.1292C36.6492 68 36.3012 67.868 36.0972 67.628C35.9052 67.412 35.8212 67.076 35.8212 66.62V62.42H34.5012V61.796H35.8212V60.092L36.5412 59.792ZM41.9602 61.628C42.8722 61.628 43.6042 61.952 44.1562 62.612C44.6602 63.224 44.9122 63.992 44.9122 64.904C44.9122 65.816 44.6602 66.572 44.1562 67.184C43.6042 67.832 42.8722 68.168 41.9602 68.168C41.0482 68.168 40.3162 67.832 39.7642 67.184C39.2602 66.572 39.0082 65.816 39.0082 64.904C39.0082 63.992 39.2602 63.224 39.7762 62.612C40.3162 61.952 41.0482 61.628 41.9602 61.628ZM41.9602 62.252C41.2522 62.252 40.7002 62.516 40.2922 63.068C39.9202 63.548 39.7402 64.16 39.7402 64.904C39.7402 65.636 39.9202 66.248 40.2922 66.728C40.7002 67.268 41.2522 67.544 41.9602 67.544C42.6682 67.544 43.2322 67.268 43.6402 66.728C44.0002 66.236 44.1922 65.624 44.1922 64.904C44.1922 64.16 44.0002 63.548 43.6402 63.068C43.2322 62.516 42.6682 62.252 41.9602 62.252ZM48.7057 61.628C49.6897 61.628 50.3377 62.048 50.6497 62.9C50.8657 62.48 51.1417 62.168 51.4777 61.952C51.7897 61.736 52.1737 61.628 52.6057 61.628C53.2537 61.628 53.7817 61.832 54.1657 62.24C54.5377 62.648 54.7297 63.212 54.7297 63.944V68H54.0097V64.04C54.0097 63.452 53.8897 63.008 53.6497 62.72C53.3857 62.408 52.9657 62.252 52.4137 62.252C51.9577 62.252 51.5857 62.42 51.2857 62.768C50.9737 63.104 50.8297 63.524 50.8297 64.052V68H50.0977V64.04C50.0977 62.84 49.5817 62.252 48.5497 62.252C48.0817 62.252 47.6977 62.432 47.3857 62.816C47.0617 63.188 46.9057 63.644 46.9057 64.184V68H46.1857V61.796H46.9057V62.732C47.3497 61.988 47.9497 61.628 48.7057 61.628ZM58.8684 61.628C59.7324 61.628 60.3804 61.856 60.8004 62.336C61.1604 62.732 61.3524 63.284 61.3524 64.004V68H60.6684V66.812C60.4164 67.172 60.0804 67.484 59.6724 67.724C59.1684 68.012 58.6284 68.168 58.0404 68.168C57.4404 68.168 56.9484 68.012 56.5884 67.712C56.1924 67.4 56.0004 66.98 56.0004 66.476C56.0004 65.756 56.2884 65.228 56.8764 64.892C57.3804 64.568 58.1124 64.4 59.0484 64.4L60.6324 64.376V64.004C60.6324 62.828 60.0324 62.24 58.8324 62.24C58.3284 62.24 57.9204 62.336 57.5964 62.552C57.2364 62.78 57.0084 63.104 56.9124 63.536L56.2044 63.488C56.3244 62.864 56.6364 62.384 57.1404 62.072C57.5844 61.772 58.1604 61.628 58.8684 61.628ZM60.6324 64.94L59.0844 64.964C57.5124 64.976 56.7324 65.48 56.7324 66.464C56.7324 66.8 56.8644 67.064 57.1284 67.268C57.3924 67.472 57.7524 67.58 58.1844 67.58C58.8084 67.58 59.3844 67.364 59.8884 66.932C60.3804 66.524 60.6324 66.068 60.6324 65.588V64.94ZM64.3615 59.792V61.796H65.9815V62.42H64.3615V66.62C64.3615 66.884 64.4095 67.088 64.5055 67.208C64.6015 67.316 64.7815 67.376 65.0455 67.376H65.8255V68H64.9495C64.4695 68 64.1215 67.868 63.9175 67.628C63.7255 67.412 63.6415 67.076 63.6415 66.62V62.42H62.3215V61.796H63.6415V60.092L64.3615 59.792ZM67.7885 59.564C67.9565 59.564 68.1005 59.624 68.2205 59.744C68.3405 59.84 68.4005 59.984 68.4005 60.164C68.4005 60.332 68.3285 60.476 68.2085 60.596C68.0885 60.704 67.9565 60.764 67.7885 60.764C67.6085 60.764 67.4645 60.704 67.3565 60.596C67.2365 60.476 67.1765 60.332 67.1765 60.164C67.1765 59.984 67.2365 59.84 67.3565 59.744C67.4645 59.624 67.6085 59.564 67.7885 59.564ZM67.4285 61.796H68.1485V68H67.4285V61.796ZM72.6376 61.628C73.3816 61.628 73.9816 61.808 74.4496 62.168C74.9176 62.528 75.2056 63.08 75.3016 63.824H74.5816C74.4976 63.296 74.2936 62.912 73.9576 62.648C73.6216 62.384 73.1776 62.252 72.6376 62.252C71.9896 62.252 71.4616 62.504 71.0776 63.008C70.6936 63.488 70.5136 64.136 70.5136 64.94C70.5136 65.732 70.6936 66.368 71.0536 66.836C71.4136 67.304 71.9416 67.544 72.6256 67.544C73.7776 67.544 74.4376 66.956 74.6176 65.78H75.3256C75.2056 66.56 74.9056 67.16 74.4376 67.568C73.9816 67.964 73.3696 68.168 72.6256 68.168C71.7136 68.168 70.9936 67.856 70.4896 67.232C70.0096 66.656 69.7816 65.888 69.7816 64.94C69.7816 64.004 70.0216 63.224 70.5136 62.612C71.0296 61.952 71.7376 61.628 72.6376 61.628ZM80.5948 59.432H84.0748C85.9708 59.432 86.9308 60.248 86.9308 61.892C86.9308 63.536 85.9708 64.364 84.0628 64.364H81.3268V68H80.5948V59.432ZM81.3268 60.08V63.716H84.0268C84.7708 63.716 85.3108 63.56 85.6708 63.26C86.0068 62.96 86.1868 62.504 86.1868 61.892C86.1868 61.28 86.0068 60.836 85.6708 60.548C85.3108 60.236 84.7588 60.08 84.0268 60.08H81.3268ZM90.7082 61.628C91.5722 61.628 92.2202 61.856 92.6402 62.336C93.0002 62.732 93.1922 63.284 93.1922 64.004V68H92.5082V66.812C92.2562 67.172 91.9202 67.484 91.5122 67.724C91.0082 68.012 90.4682 68.168 89.8802 68.168C89.2802 68.168 88.7882 68.012 88.4282 67.712C88.0322 67.4 87.8402 66.98 87.8402 66.476C87.8402 65.756 88.1282 65.228 88.7162 64.892C89.2202 64.568 89.9522 64.4 90.8882 64.4L92.4722 64.376V64.004C92.4722 62.828 91.8722 62.24 90.6722 62.24C90.1682 62.24 89.7602 62.336 89.4362 62.552C89.0762 62.78 88.8482 63.104 88.7522 63.536L88.0442 63.488C88.1642 62.864 88.4762 62.384 88.9802 62.072C89.4242 61.772 90.0002 61.628 90.7082 61.628ZM92.4722 64.94L90.9242 64.964C89.3522 64.976 88.5722 65.48 88.5722 66.464C88.5722 66.8 88.7042 67.064 88.9682 67.268C89.2322 67.472 89.5922 67.58 90.0242 67.58C90.6482 67.58 91.2242 67.364 91.7282 66.932C92.2202 66.524 92.4722 66.068 92.4722 65.588V64.94ZM97.3053 61.628C97.6653 61.628 97.9653 61.664 98.2053 61.76V62.492C97.8813 62.396 97.5693 62.36 97.2573 62.36C96.7053 62.36 96.2493 62.6 95.9133 63.104C95.5773 63.56 95.4213 64.1 95.4213 64.724V68H94.7013V61.796H95.4213V62.984C95.5893 62.6 95.8173 62.288 96.1053 62.06C96.4413 61.772 96.8493 61.628 97.3053 61.628ZM100.526 59.792V61.796H102.146V62.42H100.526V66.62C100.526 66.884 100.574 67.088 100.67 67.208C100.766 67.316 100.946 67.376 101.21 67.376H101.99V68H101.114C100.634 68 100.286 67.868 100.082 67.628C99.8895 67.412 99.8055 67.076 99.8055 66.62V62.42H98.4855V61.796H99.8055V60.092L100.526 59.792ZM103.953 59.564C104.121 59.564 104.265 59.624 104.385 59.744C104.505 59.84 104.565 59.984 104.565 60.164C104.565 60.332 104.493 60.476 104.373 60.596C104.253 60.704 104.121 60.764 103.953 60.764C103.773 60.764 103.629 60.704 103.521 60.596C103.401 60.476 103.341 60.332 103.341 60.164C103.341 59.984 103.401 59.84 103.521 59.744C103.629 59.624 103.773 59.564 103.953 59.564ZM103.593 61.796H104.313V68H103.593V61.796ZM108.802 61.628C109.546 61.628 110.146 61.808 110.614 62.168C111.082 62.528 111.37 63.08 111.466 63.824H110.746C110.662 63.296 110.458 62.912 110.122 62.648C109.786 62.384 109.342 62.252 108.802 62.252C108.154 62.252 107.626 62.504 107.242 63.008C106.858 63.488 106.678 64.136 106.678 64.94C106.678 65.732 106.858 66.368 107.218 66.836C107.578 67.304 108.106 67.544 108.79 67.544C109.942 67.544 110.602 66.956 110.782 65.78H111.49C111.37 66.56 111.07 67.16 110.602 67.568C110.146 67.964 109.534 68.168 108.79 68.168C107.878 68.168 107.158 67.856 106.654 67.232C106.174 66.656 105.946 65.888 105.946 64.94C105.946 64.004 106.186 63.224 106.678 62.612C107.194 61.952 107.902 61.628 108.802 61.628ZM113.363 59.564C113.531 59.564 113.675 59.624 113.795 59.744C113.915 59.84 113.975 59.984 113.975 60.164C113.975 60.332 113.903 60.476 113.783 60.596C113.663 60.704 113.531 60.764 113.363 60.764C113.183 60.764 113.039 60.704 112.931 60.596C112.811 60.476 112.751 60.332 112.751 60.164C112.751 59.984 112.811 59.84 112.931 59.744C113.039 59.624 113.183 59.564 113.363 59.564ZM113.003 61.796H113.723V68H113.003V61.796ZM118.464 61.628C119.34 61.628 120.036 61.952 120.552 62.624C121.008 63.224 121.236 63.98 121.236 64.916C121.236 65.828 121.008 66.584 120.564 67.184C120.06 67.832 119.376 68.168 118.488 68.168C117.492 68.168 116.772 67.676 116.316 66.704V70.376H115.596V61.796H116.28V63.02C116.736 62.084 117.456 61.628 118.464 61.628ZM118.38 62.24C117.708 62.24 117.18 62.504 116.808 63.032C116.46 63.5 116.292 64.112 116.292 64.868V65C116.292 65.744 116.472 66.356 116.844 66.836C117.216 67.316 117.72 67.556 118.356 67.556C119.064 67.556 119.604 67.292 119.988 66.788C120.324 66.32 120.492 65.696 120.492 64.916C120.492 64.136 120.324 63.512 120 63.044C119.616 62.504 119.076 62.24 118.38 62.24ZM125.138 61.628C126.002 61.628 126.65 61.856 127.07 62.336C127.43 62.732 127.622 63.284 127.622 64.004V68H126.938V66.812C126.686 67.172 126.35 67.484 125.942 67.724C125.438 68.012 124.898 68.168 124.31 68.168C123.71 68.168 123.218 68.012 122.858 67.712C122.462 67.4 122.27 66.98 122.27 66.476C122.27 65.756 122.558 65.228 123.146 64.892C123.65 64.568 124.382 64.4 125.318 64.4L126.902 64.376V64.004C126.902 62.828 126.302 62.24 125.102 62.24C124.598 62.24 124.19 62.336 123.866 62.552C123.506 62.78 123.278 63.104 123.182 63.536L122.474 63.488C122.594 62.864 122.906 62.384 123.41 62.072C123.854 61.772 124.43 61.628 125.138 61.628ZM126.902 64.94L125.354 64.964C123.782 64.976 123.002 65.48 123.002 66.464C123.002 66.8 123.134 67.064 123.398 67.268C123.662 67.472 124.022 67.58 124.454 67.58C125.078 67.58 125.654 67.364 126.158 66.932C126.65 66.524 126.902 66.068 126.902 65.588V64.94ZM130.631 59.792V61.796H132.251V62.42H130.631V66.62C130.631 66.884 130.679 67.088 130.775 67.208C130.871 67.316 131.051 67.376 131.315 67.376H132.095V68H131.219C130.739 68 130.391 67.868 130.187 67.628C129.995 67.412 129.911 67.076 129.911 66.62V62.42H128.591V61.796H129.911V60.092L130.631 59.792ZM134.058 59.564C134.226 59.564 134.37 59.624 134.49 59.744C134.61 59.84 134.67 59.984 134.67 60.164C134.67 60.332 134.598 60.476 134.478 60.596C134.358 60.704 134.226 60.764 134.058 60.764C133.878 60.764 133.734 60.704 133.626 60.596C133.506 60.476 133.446 60.332 133.446 60.164C133.446 59.984 133.506 59.84 133.626 59.744C133.734 59.624 133.878 59.564 134.058 59.564ZM133.698 61.796H134.418V68H133.698V61.796ZM139.003 61.628C139.915 61.628 140.647 61.952 141.199 62.612C141.703 63.224 141.955 63.992 141.955 64.904C141.955 65.816 141.703 66.572 141.199 67.184C140.647 67.832 139.915 68.168 139.003 68.168C138.091 68.168 137.359 67.832 136.807 67.184C136.303 66.572 136.051 65.816 136.051 64.904C136.051 63.992 136.303 63.224 136.819 62.612C137.359 61.952 138.091 61.628 139.003 61.628ZM139.003 62.252C138.295 62.252 137.743 62.516 137.335 63.068C136.963 63.548 136.783 64.16 136.783 64.904C136.783 65.636 136.963 66.248 137.335 66.728C137.743 67.268 138.295 67.544 139.003 67.544C139.711 67.544 140.275 67.268 140.683 66.728C141.043 66.236 141.235 65.624 141.235 64.904C141.235 64.16 141.043 63.548 140.683 63.068C140.275 62.516 139.711 62.252 139.003 62.252ZM145.965 61.628C147.501 61.628 148.269 62.48 148.269 64.184V68H147.549V64.232C147.549 62.912 146.961 62.252 145.785 62.252C145.281 62.252 144.873 62.432 144.537 62.792C144.177 63.152 143.985 63.644 143.949 64.256V68H143.229V61.796H143.949V62.816C144.165 62.444 144.441 62.156 144.789 61.94C145.137 61.724 145.533 61.628 145.965 61.628ZM150.571 62.384C150.739 62.384 150.883 62.444 151.003 62.576C151.123 62.684 151.183 62.828 151.183 63.008C151.183 63.176 151.123 63.32 151.003 63.44C150.883 63.56 150.739 63.62 150.571 63.62C150.391 63.62 150.247 63.56 150.139 63.44C150.019 63.32 149.959 63.176 149.959 63.008C149.959 62.828 150.019 62.684 150.139 62.576C150.247 62.444 150.391 62.384 150.571 62.384ZM150.571 66.776C150.739 66.776 150.883 66.836 151.003 66.968C151.123 67.076 151.183 67.22 151.183 67.4C151.183 67.568 151.123 67.712 151.003 67.832C150.883 67.952 150.739 68.012 150.571 68.012C150.391 68.012 150.247 67.952 150.139 67.832C150.019 67.712 149.959 67.568 149.959 67.4C149.959 67.22 150.019 67.076 150.139 66.968C150.247 66.836 150.391 66.776 150.571 66.776ZM156.989 59.432H157.721V64.688C157.721 65.6 157.913 66.296 158.321 66.764C158.753 67.256 159.413 67.508 160.325 67.508C161.237 67.508 161.897 67.256 162.329 66.764C162.725 66.296 162.929 65.6 162.929 64.688V59.432H163.661V64.688C163.661 65.804 163.385 66.656 162.857 67.244C162.293 67.856 161.453 68.168 160.325 68.168C159.197 68.168 158.357 67.856 157.805 67.256C157.253 66.656 156.989 65.804 156.989 64.688V59.432ZM167.407 61.628C168.871 61.628 169.699 62.264 169.879 63.536H169.171C169.087 63.104 168.919 62.792 168.655 62.588C168.367 62.36 167.947 62.252 167.395 62.252C166.939 62.252 166.567 62.336 166.279 62.528C165.991 62.72 165.847 62.96 165.847 63.272C165.847 63.584 166.027 63.836 166.399 64.028C166.639 64.148 167.071 64.292 167.707 64.46C168.463 64.652 169.003 64.844 169.315 65.036C169.807 65.336 170.059 65.756 170.059 66.284C170.059 67.532 169.219 68.168 167.539 68.168C165.943 68.168 165.079 67.46 164.935 66.044H165.643C165.715 66.584 165.907 66.98 166.219 67.22C166.507 67.436 166.939 67.544 167.515 67.544C168.715 67.544 169.315 67.136 169.315 66.32C169.315 65.948 169.111 65.66 168.703 65.456C168.487 65.348 168.031 65.204 167.323 65.024C166.603 64.832 166.099 64.652 165.811 64.472C165.331 64.184 165.103 63.788 165.103 63.284C165.103 62.78 165.319 62.384 165.775 62.072C166.207 61.772 166.759 61.628 167.407 61.628ZM173.721 61.628C174.705 61.628 175.437 61.952 175.929 62.624C176.361 63.212 176.601 64.04 176.637 65.108H171.597C171.633 65.864 171.837 66.464 172.209 66.896C172.593 67.328 173.097 67.544 173.745 67.544C174.309 67.544 174.765 67.388 175.113 67.1C175.401 66.848 175.617 66.488 175.773 66.008H176.505C176.361 66.608 176.085 67.1 175.677 67.484C175.173 67.94 174.537 68.168 173.745 68.168C172.869 68.168 172.173 67.868 171.657 67.28C171.117 66.68 170.853 65.876 170.853 64.892C170.853 63.98 171.105 63.224 171.621 62.6C172.149 61.952 172.845 61.628 173.721 61.628ZM173.733 62.252C173.121 62.252 172.629 62.456 172.257 62.888C171.885 63.308 171.669 63.848 171.609 64.52H175.881C175.761 63.008 175.041 62.252 173.733 62.252ZM180.391 61.628C180.751 61.628 181.051 61.664 181.291 61.76V62.492C180.967 62.396 180.655 62.36 180.343 62.36C179.791 62.36 179.335 62.6 178.999 63.104C178.663 63.56 178.507 64.1 178.507 64.724V68H177.787V61.796H178.507V62.984C178.675 62.6 178.903 62.288 179.191 62.06C179.527 61.772 179.935 61.628 180.391 61.628ZM184.223 61.628C185.687 61.628 186.515 62.264 186.695 63.536H185.987C185.903 63.104 185.735 62.792 185.471 62.588C185.183 62.36 184.763 62.252 184.211 62.252C183.755 62.252 183.383 62.336 183.095 62.528C182.807 62.72 182.663 62.96 182.663 63.272C182.663 63.584 182.843 63.836 183.215 64.028C183.455 64.148 183.887 64.292 184.523 64.46C185.279 64.652 185.819 64.844 186.131 65.036C186.623 65.336 186.875 65.756 186.875 66.284C186.875 67.532 186.035 68.168 184.355 68.168C182.759 68.168 181.895 67.46 181.751 66.044H182.459C182.531 66.584 182.723 66.98 183.035 67.22C183.323 67.436 183.755 67.544 184.331 67.544C185.531 67.544 186.131 67.136 186.131 66.32C186.131 65.948 185.927 65.66 185.519 65.456C185.303 65.348 184.847 65.204 184.139 65.024C183.419 64.832 182.915 64.652 182.627 64.472C182.147 64.184 181.919 63.788 181.919 63.284C181.919 62.78 182.135 62.384 182.591 62.072C183.023 61.772 183.575 61.628 184.223 61.628ZM194.654 61.628C195.518 61.628 196.166 61.856 196.586 62.336C196.946 62.732 197.138 63.284 197.138 64.004V68H196.454V66.812C196.202 67.172 195.866 67.484 195.458 67.724C194.954 68.012 194.414 68.168 193.826 68.168C193.226 68.168 192.734 68.012 192.374 67.712C191.978 67.4 191.786 66.98 191.786 66.476C191.786 65.756 192.074 65.228 192.662 64.892C193.166 64.568 193.898 64.4 194.834 64.4L196.418 64.376V64.004C196.418 62.828 195.818 62.24 194.618 62.24C194.114 62.24 193.706 62.336 193.382 62.552C193.022 62.78 192.794 63.104 192.698 63.536L191.99 63.488C192.11 62.864 192.422 62.384 192.926 62.072C193.37 61.772 193.946 61.628 194.654 61.628ZM196.418 64.94L194.87 64.964C193.298 64.976 192.518 65.48 192.518 66.464C192.518 66.8 192.65 67.064 192.914 67.268C193.178 67.472 193.538 67.58 193.97 67.58C194.594 67.58 195.17 67.364 195.674 66.932C196.166 66.524 196.418 66.068 196.418 65.588V64.94ZM201.251 61.628C201.611 61.628 201.911 61.664 202.151 61.76V62.492C201.827 62.396 201.515 62.36 201.203 62.36C200.651 62.36 200.195 62.6 199.859 63.104C199.523 63.56 199.367 64.1 199.367 64.724V68H198.647V61.796H199.367V62.984C199.535 62.6 199.763 62.288 200.051 62.06C200.387 61.772 200.795 61.628 201.251 61.628ZM205.479 61.628C206.463 61.628 207.195 61.952 207.687 62.624C208.119 63.212 208.359 64.04 208.395 65.108H203.355C203.391 65.864 203.595 66.464 203.967 66.896C204.351 67.328 204.855 67.544 205.503 67.544C206.067 67.544 206.523 67.388 206.871 67.1C207.159 66.848 207.375 66.488 207.531 66.008H208.263C208.119 66.608 207.843 67.1 207.435 67.484C206.931 67.94 206.295 68.168 205.503 68.168C204.627 68.168 203.931 67.868 203.415 67.28C202.875 66.68 202.611 65.876 202.611 64.892C202.611 63.98 202.863 63.224 203.379 62.6C203.907 61.952 204.603 61.628 205.479 61.628ZM205.491 62.252C204.879 62.252 204.387 62.456 204.015 62.888C203.643 63.308 203.427 63.848 203.367 64.52H207.639C207.519 63.008 206.799 62.252 205.491 62.252ZM216.169 61.628C217.033 61.628 217.681 61.856 218.101 62.336C218.461 62.732 218.653 63.284 218.653 64.004V68H217.969V66.812C217.717 67.172 217.381 67.484 216.973 67.724C216.469 68.012 215.929 68.168 215.341 68.168C214.741 68.168 214.249 68.012 213.889 67.712C213.493 67.4 213.301 66.98 213.301 66.476C213.301 65.756 213.589 65.228 214.177 64.892C214.681 64.568 215.413 64.4 216.349 64.4L217.933 64.376V64.004C217.933 62.828 217.333 62.24 216.133 62.24C215.629 62.24 215.221 62.336 214.897 62.552C214.537 62.78 214.309 63.104 214.213 63.536L213.505 63.488C213.625 62.864 213.937 62.384 214.441 62.072C214.885 61.772 215.461 61.628 216.169 61.628ZM217.933 64.94L216.385 64.964C214.813 64.976 214.033 65.48 214.033 66.464C214.033 66.8 214.165 67.064 214.429 67.268C214.693 67.472 215.053 67.58 215.485 67.58C216.109 67.58 216.685 67.364 217.189 66.932C217.681 66.524 217.933 66.068 217.933 65.588V64.94ZM220.162 61.796H220.882V65.588C220.882 66.236 221.014 66.716 221.29 67.04C221.578 67.376 222.022 67.544 222.622 67.544C223.102 67.544 223.522 67.352 223.882 66.992C224.242 66.632 224.446 66.152 224.494 65.564V61.796H225.214V68H224.494V66.956C224.014 67.76 223.318 68.168 222.43 68.168C220.918 68.168 220.162 67.316 220.162 65.624V61.796ZM228.225 59.792V61.796H229.845V62.42H228.225V66.62C228.225 66.884 228.273 67.088 228.369 67.208C228.465 67.316 228.645 67.376 228.909 67.376H229.689V68H228.813C228.333 68 227.985 67.868 227.781 67.628C227.589 67.412 227.505 67.076 227.505 66.62V62.42H226.185V61.796H227.505V60.092L228.225 59.792ZM233.644 61.628C234.556 61.628 235.288 61.952 235.84 62.612C236.344 63.224 236.596 63.992 236.596 64.904C236.596 65.816 236.344 66.572 235.84 67.184C235.288 67.832 234.556 68.168 233.644 68.168C232.732 68.168 232 67.832 231.448 67.184C230.944 66.572 230.692 65.816 230.692 64.904C230.692 63.992 230.944 63.224 231.46 62.612C232 61.952 232.732 61.628 233.644 61.628ZM233.644 62.252C232.936 62.252 232.384 62.516 231.976 63.068C231.604 63.548 231.424 64.16 231.424 64.904C231.424 65.636 231.604 66.248 231.976 66.728C232.384 67.268 232.936 67.544 233.644 67.544C234.352 67.544 234.916 67.268 235.324 66.728C235.684 66.236 235.876 65.624 235.876 64.904C235.876 64.16 235.684 63.548 235.324 63.068C234.916 62.516 234.352 62.252 233.644 62.252ZM240.389 61.628C241.373 61.628 242.021 62.048 242.333 62.9C242.549 62.48 242.825 62.168 243.161 61.952C243.473 61.736 243.857 61.628 244.289 61.628C244.937 61.628 245.465 61.832 245.849 62.24C246.221 62.648 246.413 63.212 246.413 63.944V68H245.693V64.04C245.693 63.452 245.573 63.008 245.333 62.72C245.069 62.408 244.649 62.252 244.097 62.252C243.641 62.252 243.269 62.42 242.969 62.768C242.657 63.104 242.513 63.524 242.513 64.052V68H241.781V64.04C241.781 62.84 241.265 62.252 240.233 62.252C239.765 62.252 239.381 62.432 239.069 62.816C238.745 63.188 238.589 63.644 238.589 64.184V68H237.869V61.796H238.589V62.732C239.033 61.988 239.633 61.628 240.389 61.628ZM250.552 61.628C251.416 61.628 252.064 61.856 252.484 62.336C252.844 62.732 253.036 63.284 253.036 64.004V68H252.352V66.812C252.1 67.172 251.764 67.484 251.356 67.724C250.852 68.012 250.312 68.168 249.724 68.168C249.124 68.168 248.632 68.012 248.272 67.712C247.876 67.4 247.684 66.98 247.684 66.476C247.684 65.756 247.972 65.228 248.56 64.892C249.064 64.568 249.796 64.4 250.732 64.4L252.316 64.376V64.004C252.316 62.828 251.716 62.24 250.516 62.24C250.012 62.24 249.604 62.336 249.28 62.552C248.92 62.78 248.692 63.104 248.596 63.536L247.888 63.488C248.008 62.864 248.32 62.384 248.824 62.072C249.268 61.772 249.844 61.628 250.552 61.628ZM252.316 64.94L250.768 64.964C249.196 64.976 248.416 65.48 248.416 66.464C248.416 66.8 248.548 67.064 248.812 67.268C249.076 67.472 249.436 67.58 249.868 67.58C250.492 67.58 251.068 67.364 251.572 66.932C252.064 66.524 252.316 66.068 252.316 65.588V64.94ZM256.045 59.792V61.796H257.665V62.42H256.045V66.62C256.045 66.884 256.093 67.088 256.189 67.208C256.285 67.316 256.465 67.376 256.729 67.376H257.509V68H256.633C256.153 68 255.805 67.868 255.601 67.628C255.409 67.412 255.325 67.076 255.325 66.62V62.42H254.005V61.796H255.325V60.092L256.045 59.792ZM259.472 59.564C259.64 59.564 259.784 59.624 259.904 59.744C260.024 59.84 260.084 59.984 260.084 60.164C260.084 60.332 260.012 60.476 259.892 60.596C259.772 60.704 259.64 60.764 259.472 60.764C259.292 60.764 259.148 60.704 259.04 60.596C258.92 60.476 258.86 60.332 258.86 60.164C258.86 59.984 258.92 59.84 259.04 59.744C259.148 59.624 259.292 59.564 259.472 59.564ZM259.112 61.796H259.832V68H259.112V61.796ZM264.321 61.628C265.065 61.628 265.665 61.808 266.133 62.168C266.601 62.528 266.889 63.08 266.985 63.824H266.265C266.181 63.296 265.977 62.912 265.641 62.648C265.305 62.384 264.861 62.252 264.321 62.252C263.673 62.252 263.145 62.504 262.761 63.008C262.377 63.488 262.197 64.136 262.197 64.94C262.197 65.732 262.377 66.368 262.737 66.836C263.097 67.304 263.625 67.544 264.309 67.544C265.461 67.544 266.121 66.956 266.301 65.78H267.009C266.889 66.56 266.589 67.16 266.121 67.568C265.665 67.964 265.053 68.168 264.309 68.168C263.397 68.168 262.677 67.856 262.173 67.232C261.693 66.656 261.465 65.888 261.465 64.94C261.465 64.004 261.705 63.224 262.197 62.612C262.713 61.952 263.421 61.628 264.321 61.628ZM270.79 61.628C271.654 61.628 272.302 61.856 272.722 62.336C273.082 62.732 273.274 63.284 273.274 64.004V68H272.59V66.812C272.338 67.172 272.002 67.484 271.594 67.724C271.09 68.012 270.55 68.168 269.962 68.168C269.362 68.168 268.87 68.012 268.51 67.712C268.114 67.4 267.922 66.98 267.922 66.476C267.922 65.756 268.21 65.228 268.798 64.892C269.302 64.568 270.034 64.4 270.97 64.4L272.554 64.376V64.004C272.554 62.828 271.954 62.24 270.754 62.24C270.25 62.24 269.842 62.336 269.518 62.552C269.158 62.78 268.93 63.104 268.834 63.536L268.126 63.488C268.246 62.864 268.558 62.384 269.062 62.072C269.506 61.772 270.082 61.628 270.79 61.628ZM272.554 64.94L271.006 64.964C269.434 64.976 268.654 65.48 268.654 66.464C268.654 66.8 268.786 67.064 269.05 67.268C269.314 67.472 269.674 67.58 270.106 67.58C270.73 67.58 271.306 67.364 271.81 66.932C272.302 66.524 272.554 66.068 272.554 65.588V64.94ZM275.011 59.264H275.731V68H275.011V59.264ZM277.695 59.264H278.415V68H277.695V59.264ZM279.455 61.796H280.247L282.275 66.968L284.279 61.796H285.071L281.651 70.376H280.871L281.915 67.844L279.455 61.796ZM21.476 79.564C21.644 79.564 21.788 79.624 21.908 79.744C22.028 79.84 22.088 79.984 22.088 80.164C22.088 80.332 22.016 80.476 21.896 80.596C21.776 80.704 21.644 80.764 21.476 80.764C21.296 80.764 21.152 80.704 21.044 80.596C20.924 80.476 20.864 80.332 20.864 80.164C20.864 79.984 20.924 79.84 21.044 79.744C21.152 79.624 21.296 79.564 21.476 79.564ZM21.116 81.796H21.836V88H21.116V81.796ZM26.4451 81.628C27.9811 81.628 28.7491 82.48 28.7491 84.184V88H28.0291V84.232C28.0291 82.912 27.4411 82.252 26.2651 82.252C25.7611 82.252 25.3531 82.432 25.0171 82.792C24.6571 83.152 24.4651 83.644 24.4291 84.256V88H23.7091V81.796H24.4291V82.816C24.6451 82.444 24.9211 82.156 25.2691 81.94C25.6171 81.724 26.0131 81.628 26.4451 81.628ZM32.8759 81.628C33.6199 81.628 34.2199 81.808 34.6879 82.168C35.1559 82.528 35.4439 83.08 35.5399 83.824H34.8199C34.7359 83.296 34.5319 82.912 34.1959 82.648C33.8599 82.384 33.4159 82.252 32.8759 82.252C32.2279 82.252 31.6999 82.504 31.3159 83.008C30.9319 83.488 30.7519 84.136 30.7519 84.94C30.7519 85.732 30.9319 86.368 31.2919 86.836C31.6519 87.304 32.1799 87.544 32.8639 87.544C34.0159 87.544 34.6759 86.956 34.8559 85.78H35.5639C35.4439 86.56 35.1439 87.16 34.6759 87.568C34.2199 87.964 33.6079 88.168 32.8639 88.168C31.9519 88.168 31.2319 87.856 30.7279 87.232C30.2479 86.656 30.0199 85.888 30.0199 84.94C30.0199 84.004 30.2599 83.224 30.7519 82.612C31.2679 81.952 31.9759 81.628 32.8759 81.628ZM36.9449 79.264H37.6649V88H36.9449V79.264ZM39.4005 81.796H40.1205V85.588C40.1205 86.236 40.2525 86.716 40.5285 87.04C40.8165 87.376 41.2605 87.544 41.8605 87.544C42.3405 87.544 42.7605 87.352 43.1205 86.992C43.4805 86.632 43.6845 86.152 43.7325 85.564V81.796H44.4525V88H43.7325V86.956C43.2525 87.76 42.5565 88.168 41.6685 88.168C40.1565 88.168 39.4005 87.316 39.4005 85.624V81.796ZM50.643 79.264H51.363V88H50.679V86.776C50.247 87.7 49.527 88.168 48.507 88.168C47.607 88.168 46.911 87.832 46.407 87.184C45.951 86.584 45.723 85.816 45.723 84.892C45.723 83.98 45.951 83.224 46.407 82.624C46.911 81.952 47.595 81.628 48.471 81.628C49.455 81.628 50.187 82.12 50.643 83.104V79.264ZM48.603 82.24C47.895 82.24 47.355 82.504 46.971 83.032C46.623 83.488 46.455 84.112 46.455 84.892C46.455 85.672 46.623 86.296 46.959 86.764C47.331 87.292 47.871 87.556 48.579 87.556C49.251 87.556 49.779 87.292 50.151 86.788C50.487 86.32 50.667 85.72 50.667 84.988V84.844C50.667 84.076 50.475 83.464 50.115 82.984C49.731 82.48 49.227 82.24 48.603 82.24ZM55.3851 81.628C56.3691 81.628 57.1011 81.952 57.5931 82.624C58.0251 83.212 58.2651 84.04 58.3011 85.108H53.2611C53.2971 85.864 53.5011 86.464 53.8731 86.896C54.2571 87.328 54.7611 87.544 55.4091 87.544C55.9731 87.544 56.4291 87.388 56.7771 87.1C57.0651 86.848 57.2811 86.488 57.4371 86.008H58.1691C58.0251 86.608 57.7491 87.1 57.3411 87.484C56.8371 87.94 56.2011 88.168 55.4091 88.168C54.5331 88.168 53.8371 87.868 53.3211 87.28C52.7811 86.68 52.5171 85.876 52.5171 84.892C52.5171 83.98 52.7691 83.224 53.2851 82.6C53.8131 81.952 54.5091 81.628 55.3851 81.628ZM55.3971 82.252C54.7851 82.252 54.2931 82.456 53.9211 82.888C53.5491 83.308 53.3331 83.848 53.2731 84.52H57.5451C57.4251 83.008 56.7051 82.252 55.3971 82.252ZM64.1313 79.264H64.8513V88H64.1673V86.776C63.7353 87.7 63.0153 88.168 61.9953 88.168C61.0953 88.168 60.3993 87.832 59.8953 87.184C59.4393 86.584 59.2113 85.816 59.2113 84.892C59.2113 83.98 59.4393 83.224 59.8953 82.624C60.3993 81.952 61.0833 81.628 61.9593 81.628C62.9433 81.628 63.6753 82.12 64.1313 83.104V79.264ZM62.0913 82.24C61.3833 82.24 60.8433 82.504 60.4593 83.032C60.1113 83.488 59.9433 84.112 59.9433 84.892C59.9433 85.672 60.1113 86.296 60.4473 86.764C60.8193 87.292 61.3593 87.556 62.0673 87.556C62.7393 87.556 63.2673 87.292 63.6393 86.788C63.9753 86.32 64.1553 85.72 64.1553 84.988V84.844C64.1553 84.076 63.9633 83.464 63.6033 82.984C63.2193 82.48 62.7153 82.24 62.0913 82.24ZM71.0815 79.564C71.2495 79.564 71.3935 79.624 71.5135 79.744C71.6335 79.84 71.6935 79.984 71.6935 80.164C71.6935 80.332 71.6215 80.476 71.5015 80.596C71.3815 80.704 71.2495 80.764 71.0815 80.764C70.9015 80.764 70.7575 80.704 70.6495 80.596C70.5295 80.476 70.4695 80.332 70.4695 80.164C70.4695 79.984 70.5295 79.84 70.6495 79.744C70.7575 79.624 70.9015 79.564 71.0815 79.564ZM70.7215 81.796H71.4415V88H70.7215V81.796ZM76.0506 81.628C77.5866 81.628 78.3546 82.48 78.3546 84.184V88H77.6346V84.232C77.6346 82.912 77.0466 82.252 75.8706 82.252C75.3666 82.252 74.9586 82.432 74.6226 82.792C74.2626 83.152 74.0706 83.644 74.0346 84.256V88H73.3146V81.796H74.0346V82.816C74.2506 82.444 74.5266 82.156 74.8746 81.94C75.2226 81.724 75.6186 81.628 76.0506 81.628ZM85.3615 79.792V81.796H86.9815V82.42H85.3615V86.62C85.3615 86.884 85.4095 87.088 85.5055 87.208C85.6015 87.316 85.7815 87.376 86.0455 87.376H86.8255V88H85.9495C85.4695 88 85.1215 87.868 84.9175 87.628C84.7255 87.412 84.6415 87.076 84.6415 86.62V82.42H83.3215V81.796H84.6415V80.092L85.3615 79.792ZM88.0685 79.264H88.8005V82.924C89.0165 82.504 89.3045 82.18 89.6645 81.952C90.0125 81.736 90.4085 81.628 90.8405 81.628C91.5485 81.628 92.1005 81.832 92.4965 82.252C92.8925 82.672 93.0965 83.272 93.0965 84.04V88H92.3765V84.136C92.3765 83.536 92.2205 83.068 91.9205 82.732C91.6085 82.408 91.1885 82.252 90.6365 82.252C90.1205 82.252 89.6885 82.456 89.3285 82.876C88.9685 83.284 88.8005 83.8 88.8005 84.412V88H88.0685V79.264ZM97.1156 81.628C98.0996 81.628 98.8316 81.952 99.3236 82.624C99.7556 83.212 99.9956 84.04 100.032 85.108H94.9916C95.0276 85.864 95.2316 86.464 95.6036 86.896C95.9876 87.328 96.4916 87.544 97.1396 87.544C97.7036 87.544 98.1596 87.388 98.5076 87.1C98.7956 86.848 99.0116 86.488 99.1676 86.008H99.8996C99.7556 86.608 99.4796 87.1 99.0716 87.484C98.5676 87.94 97.9316 88.168 97.1396 88.168C96.2636 88.168 95.5676 87.868 95.0516 87.28C94.5116 86.68 94.2476 85.876 94.2476 84.892C94.2476 83.98 94.4996 83.224 95.0156 82.6C95.5436 81.952 96.2396 81.628 97.1156 81.628ZM97.1276 82.252C96.5156 82.252 96.0236 82.456 95.6516 82.888C95.2796 83.308 95.0636 83.848 95.0036 84.52H99.2756C99.1556 83.008 98.4356 82.252 97.1276 82.252ZM107.29 81.628C108.754 81.628 109.582 82.264 109.762 83.536H109.054C108.97 83.104 108.802 82.792 108.538 82.588C108.25 82.36 107.83 82.252 107.278 82.252C106.822 82.252 106.45 82.336 106.162 82.528C105.874 82.72 105.73 82.96 105.73 83.272C105.73 83.584 105.91 83.836 106.282 84.028C106.522 84.148 106.954 84.292 107.59 84.46C108.346 84.652 108.886 84.844 109.198 85.036C109.69 85.336 109.942 85.756 109.942 86.284C109.942 87.532 109.102 88.168 107.422 88.168C105.826 88.168 104.962 87.46 104.818 86.044H105.526C105.598 86.584 105.79 86.98 106.102 87.22C106.39 87.436 106.822 87.544 107.398 87.544C108.598 87.544 109.198 87.136 109.198 86.32C109.198 85.948 108.994 85.66 108.586 85.456C108.37 85.348 107.914 85.204 107.206 85.024C106.486 84.832 105.982 84.652 105.694 84.472C105.214 84.184 104.986 83.788 104.986 83.284C104.986 82.78 105.202 82.384 105.658 82.072C106.09 81.772 106.642 81.628 107.29 81.628ZM112.596 79.792V81.796H114.216V82.42H112.596V86.62C112.596 86.884 112.644 87.088 112.74 87.208C112.836 87.316 113.016 87.376 113.28 87.376H114.06V88H113.184C112.704 88 112.356 87.868 112.152 87.628C111.96 87.412 111.876 87.076 111.876 86.62V82.42H110.556V81.796H111.876V80.092L112.596 79.792ZM117.931 81.628C118.795 81.628 119.443 81.856 119.863 82.336C120.223 82.732 120.415 83.284 120.415 84.004V88H119.731V86.812C119.479 87.172 119.143 87.484 118.735 87.724C118.231 88.012 117.691 88.168 117.103 88.168C116.503 88.168 116.011 88.012 115.651 87.712C115.255 87.4 115.063 86.98 115.063 86.476C115.063 85.756 115.351 85.228 115.939 84.892C116.443 84.568 117.175 84.4 118.111 84.4L119.695 84.376V84.004C119.695 82.828 119.095 82.24 117.895 82.24C117.391 82.24 116.983 82.336 116.659 82.552C116.299 82.78 116.071 83.104 115.975 83.536L115.267 83.488C115.387 82.864 115.699 82.384 116.203 82.072C116.647 81.772 117.223 81.628 117.931 81.628ZM119.695 84.94L118.147 84.964C116.575 84.976 115.795 85.48 115.795 86.464C115.795 86.8 115.927 87.064 116.191 87.268C116.455 87.472 116.815 87.58 117.247 87.58C117.871 87.58 118.447 87.364 118.951 86.932C119.443 86.524 119.695 86.068 119.695 85.588V84.94ZM123.424 79.792V81.796H125.044V82.42H123.424V86.62C123.424 86.884 123.472 87.088 123.568 87.208C123.664 87.316 123.844 87.376 124.108 87.376H124.888V88H124.012C123.532 88 123.184 87.868 122.98 87.628C122.788 87.412 122.704 87.076 122.704 86.62V82.42H121.384V81.796H122.704V80.092L123.424 79.792ZM126.851 79.564C127.019 79.564 127.163 79.624 127.283 79.744C127.403 79.84 127.463 79.984 127.463 80.164C127.463 80.332 127.391 80.476 127.271 80.596C127.151 80.704 127.019 80.764 126.851 80.764C126.671 80.764 126.527 80.704 126.419 80.596C126.299 80.476 126.239 80.332 126.239 80.164C126.239 79.984 126.299 79.84 126.419 79.744C126.527 79.624 126.671 79.564 126.851 79.564ZM126.491 81.796H127.211V88H126.491V81.796ZM131.196 81.628C132.66 81.628 133.488 82.264 133.668 83.536H132.96C132.876 83.104 132.708 82.792 132.444 82.588C132.156 82.36 131.736 82.252 131.184 82.252C130.728 82.252 130.356 82.336 130.068 82.528C129.78 82.72 129.636 82.96 129.636 83.272C129.636 83.584 129.816 83.836 130.188 84.028C130.428 84.148 130.86 84.292 131.496 84.46C132.252 84.652 132.792 84.844 133.104 85.036C133.596 85.336 133.848 85.756 133.848 86.284C133.848 87.532 133.008 88.168 131.328 88.168C129.732 88.168 128.868 87.46 128.724 86.044H129.432C129.504 86.584 129.696 86.98 130.008 87.22C130.296 87.436 130.728 87.544 131.304 87.544C132.504 87.544 133.104 87.136 133.104 86.32C133.104 85.948 132.9 85.66 132.492 85.456C132.276 85.348 131.82 85.204 131.112 85.024C130.392 84.832 129.888 84.652 129.6 84.472C129.12 84.184 128.892 83.788 128.892 83.284C128.892 82.78 129.108 82.384 129.564 82.072C129.996 81.772 130.548 81.628 131.196 81.628ZM136.502 79.792V81.796H138.122V82.42H136.502V86.62C136.502 86.884 136.55 87.088 136.646 87.208C136.742 87.316 136.922 87.376 137.186 87.376H137.966V88H137.09C136.61 88 136.262 87.868 136.058 87.628C135.866 87.412 135.782 87.076 135.782 86.62V82.42H134.462V81.796H135.782V80.092L136.502 79.792ZM139.929 79.564C140.097 79.564 140.241 79.624 140.361 79.744C140.481 79.84 140.541 79.984 140.541 80.164C140.541 80.332 140.469 80.476 140.349 80.596C140.229 80.704 140.097 80.764 139.929 80.764C139.749 80.764 139.605 80.704 139.497 80.596C139.377 80.476 139.317 80.332 139.317 80.164C139.317 79.984 139.377 79.84 139.497 79.744C139.605 79.624 139.749 79.564 139.929 79.564ZM139.569 81.796H140.289V88H139.569V81.796ZM144.778 81.628C145.522 81.628 146.122 81.808 146.59 82.168C147.058 82.528 147.346 83.08 147.442 83.824H146.722C146.638 83.296 146.434 82.912 146.098 82.648C145.762 82.384 145.318 82.252 144.778 82.252C144.13 82.252 143.602 82.504 143.218 83.008C142.834 83.488 142.654 84.136 142.654 84.94C142.654 85.732 142.834 86.368 143.194 86.836C143.554 87.304 144.082 87.544 144.766 87.544C145.918 87.544 146.578 86.956 146.758 85.78H147.466C147.346 86.56 147.046 87.16 146.578 87.568C146.122 87.964 145.51 88.168 144.766 88.168C143.854 88.168 143.134 87.856 142.63 87.232C142.15 86.656 141.922 85.888 141.922 84.94C141.922 84.004 142.162 83.224 142.654 82.612C143.17 81.952 143.878 81.628 144.778 81.628ZM150.731 81.628C152.195 81.628 153.023 82.264 153.203 83.536H152.495C152.411 83.104 152.243 82.792 151.979 82.588C151.691 82.36 151.271 82.252 150.719 82.252C150.263 82.252 149.891 82.336 149.603 82.528C149.315 82.72 149.171 82.96 149.171 83.272C149.171 83.584 149.351 83.836 149.723 84.028C149.963 84.148 150.395 84.292 151.031 84.46C151.787 84.652 152.327 84.844 152.639 85.036C153.131 85.336 153.383 85.756 153.383 86.284C153.383 87.532 152.543 88.168 150.863 88.168C149.267 88.168 148.403 87.46 148.259 86.044H148.967C149.039 86.584 149.231 86.98 149.543 87.22C149.831 87.436 150.263 87.544 150.839 87.544C152.039 87.544 152.639 87.136 152.639 86.32C152.639 85.948 152.435 85.66 152.027 85.456C151.811 85.348 151.355 85.204 150.647 85.024C149.927 84.832 149.423 84.652 149.135 84.472C148.655 84.184 148.427 83.788 148.427 83.284C148.427 82.78 148.643 82.384 149.099 82.072C149.531 81.772 150.083 81.628 150.731 81.628ZM157.837 81.796H158.641L160.321 87.076L161.881 81.796H162.577L164.137 87.076L165.829 81.796H166.621L164.497 88H163.801L162.241 82.732L160.657 88H159.973L157.837 81.796ZM167.44 79.264H168.172V82.924C168.388 82.504 168.676 82.18 169.036 81.952C169.384 81.736 169.78 81.628 170.212 81.628C170.92 81.628 171.472 81.832 171.868 82.252C172.264 82.672 172.468 83.272 172.468 84.04V88H171.748V84.136C171.748 83.536 171.592 83.068 171.292 82.732C170.98 82.408 170.56 82.252 170.008 82.252C169.492 82.252 169.06 82.456 168.7 82.876C168.34 83.284 168.172 83.8 168.172 84.412V88H167.44V79.264ZM176.487 81.628C177.471 81.628 178.203 81.952 178.695 82.624C179.127 83.212 179.367 84.04 179.403 85.108H174.363C174.399 85.864 174.603 86.464 174.975 86.896C175.359 87.328 175.863 87.544 176.511 87.544C177.075 87.544 177.531 87.388 177.879 87.1C178.167 86.848 178.383 86.488 178.539 86.008H179.271C179.127 86.608 178.851 87.1 178.443 87.484C177.939 87.94 177.303 88.168 176.511 88.168C175.635 88.168 174.939 87.868 174.423 87.28C173.883 86.68 173.619 85.876 173.619 84.892C173.619 83.98 173.871 83.224 174.387 82.6C174.915 81.952 175.611 81.628 176.487 81.628ZM176.499 82.252C175.887 82.252 175.395 82.456 175.023 82.888C174.651 83.308 174.435 83.848 174.375 84.52H178.647C178.527 83.008 177.807 82.252 176.499 82.252ZM183.289 81.628C184.825 81.628 185.593 82.48 185.593 84.184V88H184.873V84.232C184.873 82.912 184.285 82.252 183.109 82.252C182.605 82.252 182.197 82.432 181.861 82.792C181.501 83.152 181.309 83.644 181.273 84.256V88H180.553V81.796H181.273V82.816C181.489 82.444 181.765 82.156 182.113 81.94C182.461 81.724 182.857 81.628 183.289 81.628ZM192.6 79.792V81.796H194.22V82.42H192.6V86.62C192.6 86.884 192.648 87.088 192.744 87.208C192.84 87.316 193.02 87.376 193.284 87.376H194.064V88H193.188C192.708 88 192.36 87.868 192.156 87.628C191.964 87.412 191.88 87.076 191.88 86.62V82.42H190.56V81.796H191.88V80.092L192.6 79.792ZM197.911 81.628C198.271 81.628 198.571 81.664 198.811 81.76V82.492C198.487 82.396 198.175 82.36 197.863 82.36C197.311 82.36 196.855 82.6 196.519 83.104C196.183 83.56 196.027 84.1 196.027 84.724V88H195.307V81.796H196.027V82.984C196.195 82.6 196.423 82.288 196.711 82.06C197.047 81.772 197.455 81.628 197.911 81.628ZM202.259 81.628C203.123 81.628 203.771 81.856 204.191 82.336C204.551 82.732 204.743 83.284 204.743 84.004V88H204.059V86.812C203.807 87.172 203.471 87.484 203.063 87.724C202.559 88.012 202.019 88.168 201.431 88.168C200.831 88.168 200.339 88.012 199.979 87.712C199.583 87.4 199.391 86.98 199.391 86.476C199.391 85.756 199.679 85.228 200.267 84.892C200.771 84.568 201.503 84.4 202.439 84.4L204.023 84.376V84.004C204.023 82.828 203.423 82.24 202.223 82.24C201.719 82.24 201.311 82.336 200.987 82.552C200.627 82.78 200.399 83.104 200.303 83.536L199.595 83.488C199.715 82.864 200.027 82.384 200.531 82.072C200.975 81.772 201.551 81.628 202.259 81.628ZM204.023 84.94L202.475 84.964C200.903 84.976 200.123 85.48 200.123 86.464C200.123 86.8 200.255 87.064 200.519 87.268C200.783 87.472 201.143 87.58 201.575 87.58C202.199 87.58 202.775 87.364 203.279 86.932C203.771 86.524 204.023 86.068 204.023 85.588V84.94ZM210.932 79.264H211.652V88H210.968V86.776C210.536 87.7 209.816 88.168 208.796 88.168C207.896 88.168 207.2 87.832 206.696 87.184C206.24 86.584 206.012 85.816 206.012 84.892C206.012 83.98 206.24 83.224 206.696 82.624C207.2 81.952 207.884 81.628 208.76 81.628C209.744 81.628 210.476 82.12 210.932 83.104V79.264ZM208.892 82.24C208.184 82.24 207.644 82.504 207.26 83.032C206.912 83.488 206.744 84.112 206.744 84.892C206.744 85.672 206.912 86.296 207.248 86.764C207.62 87.292 208.16 87.556 208.868 87.556C209.54 87.556 210.068 87.292 210.44 86.788C210.776 86.32 210.956 85.72 210.956 84.988V84.844C210.956 84.076 210.764 83.464 210.404 82.984C210.02 82.48 209.516 82.24 208.892 82.24ZM213.886 79.564C214.054 79.564 214.198 79.624 214.318 79.744C214.438 79.84 214.498 79.984 214.498 80.164C214.498 80.332 214.426 80.476 214.306 80.596C214.186 80.704 214.054 80.764 213.886 80.764C213.706 80.764 213.562 80.704 213.454 80.596C213.334 80.476 213.274 80.332 213.274 80.164C213.274 79.984 213.334 79.84 213.454 79.744C213.562 79.624 213.706 79.564 213.886 79.564ZM213.526 81.796H214.246V88H213.526V81.796ZM218.855 81.628C220.391 81.628 221.159 82.48 221.159 84.184V88H220.439V84.232C220.439 82.912 219.851 82.252 218.675 82.252C218.171 82.252 217.763 82.432 217.427 82.792C217.067 83.152 216.875 83.644 216.839 84.256V88H216.119V81.796H216.839V82.816C217.055 82.444 217.331 82.156 217.679 81.94C218.027 81.724 218.423 81.628 218.855 81.628ZM225.226 81.628C226.246 81.628 226.99 82.096 227.446 83.044V81.796H228.166V87.544C228.166 89.536 227.23 90.544 225.382 90.544C224.566 90.544 223.942 90.364 223.498 90.016C223.078 89.68 222.814 89.188 222.706 88.528H223.426C223.51 88.984 223.702 89.332 224.002 89.56C224.314 89.812 224.77 89.944 225.382 89.944C226.75 89.944 227.446 89.164 227.446 87.628V86.44C226.99 87.376 226.246 87.856 225.226 87.856C224.362 87.856 223.666 87.544 223.15 86.932C222.67 86.356 222.43 85.636 222.43 84.748C222.43 83.872 222.67 83.14 223.15 82.564C223.666 81.94 224.362 81.628 225.226 81.628ZM225.31 82.24C224.626 82.24 224.098 82.48 223.714 82.984C223.342 83.44 223.162 84.028 223.162 84.748C223.162 85.444 223.33 86.02 223.678 86.476C224.05 86.98 224.59 87.232 225.298 87.232C225.982 87.232 226.522 86.992 226.906 86.512C227.266 86.056 227.446 85.468 227.446 84.748C227.446 84.028 227.266 83.44 226.906 82.984C226.522 82.48 225.982 82.24 225.31 82.24ZM236.254 79.264V78.292H236.746V79.276C237.43 79.312 237.994 79.528 238.438 79.912C238.918 80.32 239.206 80.944 239.326 81.76H238.606C238.51 81.136 238.27 80.668 237.91 80.356C237.598 80.092 237.214 79.948 236.746 79.912V83.356L238.174 83.872C239.038 84.304 239.47 84.916 239.47 85.72C239.47 86.56 239.182 87.196 238.618 87.616C238.162 87.952 237.538 88.132 236.746 88.168V89.212H236.254V88.156C235.462 88.108 234.85 87.856 234.418 87.388C233.962 86.908 233.686 86.2 233.59 85.264H234.322C234.406 86.032 234.622 86.596 234.958 86.956C235.258 87.28 235.69 87.46 236.254 87.508V83.884L235.03 83.452C234.166 83.02 233.746 82.408 233.746 81.592C233.746 80.824 234.01 80.236 234.55 79.828C234.982 79.48 235.558 79.288 236.254 79.264ZM236.746 84.064V87.52C237.358 87.484 237.838 87.328 238.186 87.052C238.546 86.74 238.726 86.308 238.726 85.744C238.726 85.12 238.294 84.64 237.442 84.304L236.746 84.064ZM236.254 83.176V79.912C235.75 79.936 235.354 80.056 235.054 80.296C234.67 80.584 234.478 81.016 234.478 81.592C234.478 82.18 234.91 82.648 235.774 82.996L236.254 83.176ZM240.425 79.432H241.337L243.833 82.948L246.341 79.432H247.253L244.277 83.548L247.505 88H246.581L243.833 84.124L241.085 88H240.173L243.389 83.548L240.425 79.432ZM248.442 79.432H251.922C253.818 79.432 254.778 80.248 254.778 81.892C254.778 83.536 253.818 84.364 251.91 84.364H249.174V88H248.442V79.432ZM249.174 80.08V83.716H251.874C252.618 83.716 253.158 83.56 253.518 83.26C253.854 82.96 254.034 82.504 254.034 81.892C254.034 81.28 253.854 80.836 253.518 80.548C253.158 80.236 252.606 80.08 251.874 80.08H249.174ZM256.156 79.432H256.888V88H256.156V79.432ZM258.743 79.432H259.571L264.755 86.86H264.791V79.432H265.535V88H264.719L259.511 80.512H259.475V88H258.743V79.432ZM275.842 79.264H276.562V88H275.878V86.776C275.446 87.7 274.726 88.168 273.706 88.168C272.806 88.168 272.11 87.832 271.606 87.184C271.15 86.584 270.922 85.816 270.922 84.892C270.922 83.98 271.15 83.224 271.606 82.624C272.11 81.952 272.794 81.628 273.67 81.628C274.654 81.628 275.386 82.12 275.842 83.104V79.264ZM273.802 82.24C273.094 82.24 272.554 82.504 272.17 83.032C271.822 83.488 271.654 84.112 271.654 84.892C271.654 85.672 271.822 86.296 272.158 86.764C272.53 87.292 273.07 87.556 273.778 87.556C274.45 87.556 274.978 87.292 275.35 86.788C275.686 86.32 275.866 85.72 275.866 84.988V84.844C275.866 84.076 275.674 83.464 275.314 82.984C274.93 82.48 274.426 82.24 273.802 82.24ZM278.076 81.796H278.796V85.588C278.796 86.236 278.928 86.716 279.204 87.04C279.492 87.376 279.936 87.544 280.536 87.544C281.016 87.544 281.436 87.352 281.796 86.992C282.156 86.632 282.36 86.152 282.408 85.564V81.796H283.128V88H282.408V86.956C281.928 87.76 281.232 88.168 280.344 88.168C278.832 88.168 278.076 87.316 278.076 85.624V81.796ZM287.243 81.628C287.603 81.628 287.903 81.664 288.143 81.76V82.492C287.819 82.396 287.507 82.36 287.195 82.36C286.643 82.36 286.187 82.6 285.851 83.104C285.515 83.56 285.359 84.1 285.359 84.724V88H284.639V81.796H285.359V82.984C285.527 82.6 285.755 82.288 286.043 82.06C286.379 81.772 286.787 81.628 287.243 81.628ZM289.683 79.564C289.851 79.564 289.995 79.624 290.115 79.744C290.235 79.84 290.295 79.984 290.295 80.164C290.295 80.332 290.223 80.476 290.103 80.596C289.983 80.704 289.851 80.764 289.683 80.764C289.503 80.764 289.359 80.704 289.251 80.596C289.131 80.476 289.071 80.332 289.071 80.164C289.071 79.984 289.131 79.84 289.251 79.744C289.359 79.624 289.503 79.564 289.683 79.564ZM289.323 81.796H290.043V88H289.323V81.796ZM294.652 81.628C296.188 81.628 296.956 82.48 296.956 84.184V88H296.236V84.232C296.236 82.912 295.648 82.252 294.472 82.252C293.968 82.252 293.56 82.432 293.224 82.792C292.864 83.152 292.672 83.644 292.636 84.256V88H291.916V81.796H292.636V82.816C292.852 82.444 293.128 82.156 293.476 81.94C293.824 81.724 294.22 81.628 294.652 81.628ZM301.023 81.628C302.043 81.628 302.787 82.096 303.243 83.044V81.796H303.963V87.544C303.963 89.536 303.027 90.544 301.179 90.544C300.363 90.544 299.739 90.364 299.295 90.016C298.875 89.68 298.611 89.188 298.503 88.528H299.223C299.307 88.984 299.499 89.332 299.799 89.56C300.111 89.812 300.567 89.944 301.179 89.944C302.547 89.944 303.243 89.164 303.243 87.628V86.44C302.787 87.376 302.043 87.856 301.023 87.856C300.159 87.856 299.463 87.544 298.947 86.932C298.467 86.356 298.227 85.636 298.227 84.748C298.227 83.872 298.467 83.14 298.947 82.564C299.463 81.94 300.159 81.628 301.023 81.628ZM301.107 82.24C300.423 82.24 299.895 82.48 299.511 82.984C299.139 83.44 298.959 84.028 298.959 84.748C298.959 85.444 299.127 86.02 299.475 86.476C299.847 86.98 300.387 87.232 301.095 87.232C301.779 87.232 302.319 86.992 302.703 86.512C303.063 86.056 303.243 85.468 303.243 84.748C303.243 84.028 303.063 83.44 302.703 82.984C302.319 82.48 301.779 82.24 301.107 82.24ZM22.256 99.792V101.796H23.876V102.42H22.256V106.62C22.256 106.884 22.304 107.088 22.4 107.208C22.496 107.316 22.676 107.376 22.94 107.376H23.72V108H22.844C22.364 108 22.016 107.868 21.812 107.628C21.62 107.412 21.536 107.076 21.536 106.62V102.42H20.216V101.796H21.536V100.092L22.256 99.792ZM24.963 99.264H25.695V102.924C25.911 102.504 26.199 102.18 26.559 101.952C26.907 101.736 27.303 101.628 27.735 101.628C28.443 101.628 28.995 101.832 29.391 102.252C29.787 102.672 29.991 103.272 29.991 104.04V108H29.271V104.136C29.271 103.536 29.115 103.068 28.815 102.732C28.503 102.408 28.083 102.252 27.531 102.252C27.015 102.252 26.583 102.456 26.223 102.876C25.863 103.284 25.695 103.8 25.695 104.412V108H24.963V99.264ZM34.0101 101.628C34.9941 101.628 35.7261 101.952 36.2181 102.624C36.6501 103.212 36.8901 104.04 36.9261 105.108H31.8861C31.9221 105.864 32.1261 106.464 32.4981 106.896C32.8821 107.328 33.3861 107.544 34.0341 107.544C34.5981 107.544 35.0541 107.388 35.4021 107.1C35.6901 106.848 35.9061 106.488 36.0621 106.008H36.7941C36.6501 106.608 36.3741 107.1 35.9661 107.484C35.4621 107.94 34.8261 108.168 34.0341 108.168C33.1581 108.168 32.4621 107.868 31.9461 107.28C31.4061 106.68 31.1421 105.876 31.1421 104.892C31.1421 103.98 31.3941 103.224 31.9101 102.6C32.4381 101.952 33.1341 101.628 34.0101 101.628ZM34.0221 102.252C33.4101 102.252 32.9181 102.456 32.5461 102.888C32.1741 103.308 31.9581 103.848 31.8981 104.52H36.1701C36.0501 103.008 35.3301 102.252 34.0221 102.252ZM44.5804 101.628C45.5644 101.628 46.2964 101.952 46.7884 102.624C47.2204 103.212 47.4604 104.04 47.4964 105.108H42.4564C42.4924 105.864 42.6964 106.464 43.0684 106.896C43.4524 107.328 43.9564 107.544 44.6044 107.544C45.1684 107.544 45.6244 107.388 45.9724 107.1C46.2604 106.848 46.4764 106.488 46.6324 106.008H47.3644C47.2204 106.608 46.9444 107.1 46.5364 107.484C46.0324 107.94 45.3964 108.168 44.6044 108.168C43.7284 108.168 43.0324 107.868 42.5164 107.28C41.9764 106.68 41.7124 105.876 41.7124 104.892C41.7124 103.98 41.9644 103.224 42.4804 102.6C43.0084 101.952 43.7044 101.628 44.5804 101.628ZM44.5924 102.252C43.9804 102.252 43.4884 102.456 43.1164 102.888C42.7444 103.308 42.5284 103.848 42.4684 104.52H46.7404C46.6204 103.008 45.9004 102.252 44.5924 102.252ZM47.9506 101.796H48.7426L50.6986 107.088L52.6426 101.796H53.4466L51.0706 108H50.3266L47.9506 101.796ZM56.7679 101.628C57.7519 101.628 58.4839 101.952 58.9759 102.624C59.4079 103.212 59.6479 104.04 59.6839 105.108H54.6439C54.6799 105.864 54.8839 106.464 55.2559 106.896C55.6399 107.328 56.1439 107.544 56.7919 107.544C57.3559 107.544 57.8119 107.388 58.1599 107.1C58.4479 106.848 58.6639 106.488 58.8199 106.008H59.5519C59.4079 106.608 59.1319 107.1 58.7239 107.484C58.2199 107.94 57.5839 108.168 56.7919 108.168C55.9159 108.168 55.2199 107.868 54.7039 107.28C54.1639 106.68 53.8999 105.876 53.8999 104.892C53.8999 103.98 54.1519 103.224 54.6679 102.6C55.1959 101.952 55.8919 101.628 56.7679 101.628ZM56.7799 102.252C56.1679 102.252 55.6759 102.456 55.3039 102.888C54.9319 103.308 54.7159 103.848 54.6559 104.52H58.9279C58.8079 103.008 58.0879 102.252 56.7799 102.252ZM63.5701 101.628C65.1061 101.628 65.8741 102.48 65.8741 104.184V108H65.1541V104.232C65.1541 102.912 64.5661 102.252 63.3901 102.252C62.8861 102.252 62.4781 102.432 62.1421 102.792C61.7821 103.152 61.5901 103.644 61.5541 104.256V108H60.8341V101.796H61.5541V102.816C61.7701 102.444 62.0461 102.156 62.3941 101.94C62.7421 101.724 63.1381 101.628 63.5701 101.628ZM68.8849 99.792V101.796H70.5049V102.42H68.8849V106.62C68.8849 106.884 68.9329 107.088 69.0289 107.208C69.1249 107.316 69.3049 107.376 69.5689 107.376H70.3489V108H69.4729C68.9929 108 68.6449 107.868 68.4409 107.628C68.2489 107.412 68.1649 107.076 68.1649 106.62V102.42H66.8449V101.796H68.1649V100.092L68.8849 99.792ZM78.456 101.628C79.332 101.628 80.028 101.952 80.544 102.624C81 103.224 81.228 103.98 81.228 104.916C81.228 105.828 81 106.584 80.556 107.184C80.052 107.832 79.368 108.168 78.48 108.168C77.484 108.168 76.764 107.676 76.308 106.704V110.376H75.588V101.796H76.272V103.02C76.728 102.084 77.448 101.628 78.456 101.628ZM78.372 102.24C77.7 102.24 77.172 102.504 76.8 103.032C76.452 103.5 76.284 104.112 76.284 104.868V105C76.284 105.744 76.464 106.356 76.836 106.836C77.208 107.316 77.712 107.556 78.348 107.556C79.056 107.556 79.596 107.292 79.98 106.788C80.316 106.32 80.484 105.696 80.484 104.916C80.484 104.136 80.316 103.512 79.992 103.044C79.608 102.504 79.068 102.24 78.372 102.24ZM85.0101 101.628C85.9941 101.628 86.7261 101.952 87.2181 102.624C87.6501 103.212 87.8901 104.04 87.9261 105.108H82.8861C82.9221 105.864 83.1261 106.464 83.4981 106.896C83.8821 107.328 84.3861 107.544 85.0341 107.544C85.5981 107.544 86.0541 107.388 86.4021 107.1C86.6901 106.848 86.9061 106.488 87.0621 106.008H87.7941C87.6501 106.608 87.3741 107.1 86.9661 107.484C86.4621 107.94 85.8261 108.168 85.0341 108.168C84.1581 108.168 83.4621 107.868 82.9461 107.28C82.4061 106.68 82.1421 105.876 82.1421 104.892C82.1421 103.98 82.3941 103.224 82.9101 102.6C83.4381 101.952 84.1341 101.628 85.0101 101.628ZM85.0221 102.252C84.4101 102.252 83.9181 102.456 83.5461 102.888C83.1741 103.308 82.9581 103.848 82.8981 104.52H87.1701C87.0501 103.008 86.3301 102.252 85.0221 102.252ZM91.6803 101.628C92.0403 101.628 92.3403 101.664 92.5803 101.76V102.492C92.2563 102.396 91.9443 102.36 91.6323 102.36C91.0803 102.36 90.6243 102.6 90.2883 103.104C89.9523 103.56 89.7963 104.1 89.7963 104.724V108H89.0763V101.796H89.7963V102.984C89.9643 102.6 90.1923 102.288 90.4803 102.06C90.8163 101.772 91.2243 101.628 91.6803 101.628ZM94.1205 99.564C94.2885 99.564 94.4325 99.624 94.5525 99.744C94.6725 99.84 94.7325 99.984 94.7325 100.164C94.7325 100.332 94.6605 100.476 94.5405 100.596C94.4205 100.704 94.2885 100.764 94.1205 100.764C93.9405 100.764 93.7965 100.704 93.6885 100.596C93.5685 100.476 93.5085 100.332 93.5085 100.164C93.5085 99.984 93.5685 99.84 93.6885 99.744C93.7965 99.624 93.9405 99.564 94.1205 99.564ZM93.7605 101.796H94.4805V108H93.7605V101.796ZM99.0657 101.628C99.9777 101.628 100.71 101.952 101.262 102.612C101.766 103.224 102.018 103.992 102.018 104.904C102.018 105.816 101.766 106.572 101.262 107.184C100.71 107.832 99.9777 108.168 99.0657 108.168C98.1537 108.168 97.4217 107.832 96.8697 107.184C96.3657 106.572 96.1137 105.816 96.1137 104.904C96.1137 103.992 96.3657 103.224 96.8817 102.612C97.4217 101.952 98.1537 101.628 99.0657 101.628ZM99.0657 102.252C98.3577 102.252 97.8057 102.516 97.3977 103.068C97.0257 103.548 96.8457 104.16 96.8457 104.904C96.8457 105.636 97.0257 106.248 97.3977 106.728C97.8057 107.268 98.3577 107.544 99.0657 107.544C99.7737 107.544 100.338 107.268 100.746 106.728C101.106 106.236 101.298 105.624 101.298 104.904C101.298 104.16 101.106 103.548 100.746 103.068C100.338 102.516 99.7737 102.252 99.0657 102.252ZM107.971 99.264H108.691V108H108.007V106.776C107.575 107.7 106.855 108.168 105.835 108.168C104.935 108.168 104.239 107.832 103.735 107.184C103.279 106.584 103.051 105.816 103.051 104.892C103.051 103.98 103.279 103.224 103.735 102.624C104.239 101.952 104.923 101.628 105.799 101.628C106.783 101.628 107.515 102.12 107.971 103.104V99.264ZM105.931 102.24C105.223 102.24 104.683 102.504 104.299 103.032C103.951 103.488 103.783 104.112 103.783 104.892C103.783 105.672 103.951 106.296 104.287 106.764C104.659 107.292 105.199 107.556 105.907 107.556C106.579 107.556 107.107 107.292 107.479 106.788C107.815 106.32 107.995 105.72 107.995 104.988V104.844C107.995 104.076 107.803 103.464 107.443 102.984C107.059 102.48 106.555 102.24 105.931 102.24ZM110.997 106.8C111.165 106.8 111.309 106.86 111.429 106.98C111.549 107.1 111.609 107.244 111.609 107.412C111.609 107.58 111.549 107.736 111.429 107.856C111.309 107.964 111.165 108.024 110.997 108.024C110.817 108.024 110.673 107.964 110.565 107.856C110.445 107.736 110.385 107.58 110.385 107.412C110.385 107.244 110.445 107.1 110.565 106.98C110.673 106.86 110.817 106.8 110.997 106.8Z" fill="white"/>
<path d="M0 12C0 5.37258 5.37258 0 12 0H188.313C191.082 0 193.014 2.74593 192.078 5.35209L182.021 33.3521C181.451 34.9406 179.944 36 178.257 36H0V12Z" fill="url(#paint2_linear_6254_1959)"/>
<path d="M21.6245 24.4663V12.8299H24.437V17.5004H29.0222V12.8299H31.829V24.4663H29.0222V19.7902H24.437V24.4663H21.6245ZM37.6671 24.6311C36.7504 24.6311 35.9625 24.4436 35.3034 24.0686C34.6481 23.6898 34.1424 23.1633 33.7864 22.489C33.4341 21.811 33.258 21.025 33.258 20.1311C33.258 19.2334 33.4341 18.4474 33.7864 17.7731C34.1424 17.0951 34.6481 16.5686 35.3034 16.1936C35.9625 15.8148 36.7504 15.6254 37.6671 15.6254C38.5837 15.6254 39.3697 15.8148 40.025 16.1936C40.6841 16.5686 41.1898 17.0951 41.5421 17.7731C41.8981 18.4474 42.0762 19.2334 42.0762 20.1311C42.0762 21.025 41.8981 21.811 41.5421 22.489C41.1898 23.1633 40.6841 23.6898 40.025 24.0686C39.3697 24.4436 38.5837 24.6311 37.6671 24.6311ZM37.6841 22.5345C38.0174 22.5345 38.2996 22.4322 38.5307 22.2277C38.7618 22.0231 38.9379 21.739 39.0591 21.3754C39.1841 21.0118 39.2466 20.5913 39.2466 20.114C39.2466 19.6292 39.1841 19.2049 39.0591 18.8413C38.9379 18.4777 38.7618 18.1936 38.5307 17.989C38.2996 17.7845 38.0174 17.6822 37.6841 17.6822C37.3394 17.6822 37.0478 17.7845 36.8091 17.989C36.5743 18.1936 36.3943 18.4777 36.2693 18.8413C36.1481 19.2049 36.0875 19.6292 36.0875 20.114C36.0875 20.5913 36.1481 21.0118 36.2693 21.3754C36.3943 21.739 36.5743 22.0231 36.8091 22.2277C37.0478 22.4322 37.3394 22.5345 37.6841 22.5345ZM44.9426 24.4663L42.6699 15.739H45.4597L46.6358 21.3299H46.7097L47.971 15.739H50.6926L51.9881 21.2902H52.062L53.204 15.739H55.9938L53.7154 24.4663H50.7438L49.3801 19.3811H49.2835L47.9199 24.4663H44.9426ZM65.4725 15.739V17.7845H59.9668V15.739H65.4725ZM61.1202 13.6481H63.8986V21.722C63.8986 21.8924 63.9251 22.0307 63.9781 22.1368C64.035 22.239 64.1164 22.3129 64.2225 22.3584C64.3285 22.4 64.4554 22.4209 64.6031 22.4209C64.7092 22.4209 64.821 22.4114 64.9384 22.3924C65.0596 22.3697 65.1505 22.3508 65.2111 22.3356L65.6316 24.3413C65.499 24.3792 65.3115 24.4265 65.0691 24.4834C64.8304 24.5402 64.5444 24.5762 64.2111 24.5913C63.5596 24.6216 63.0009 24.5459 62.535 24.364C62.0728 24.1784 61.7187 23.8906 61.4725 23.5004C61.23 23.1102 61.1126 22.6197 61.1202 22.0288V13.6481ZM70.8702 24.6311C69.9535 24.6311 69.1656 24.4436 68.5066 24.0686C67.8513 23.6898 67.3456 23.1633 66.9895 22.489C66.6372 21.811 66.4611 21.025 66.4611 20.1311C66.4611 19.2334 66.6372 18.4474 66.9895 17.7731C67.3456 17.0951 67.8513 16.5686 68.5066 16.1936C69.1656 15.8148 69.9535 15.6254 70.8702 15.6254C71.7869 15.6254 72.5728 15.8148 73.2281 16.1936C73.8872 16.5686 74.3929 17.0951 74.7452 17.7731C75.1013 18.4474 75.2793 19.2334 75.2793 20.1311C75.2793 21.025 75.1013 21.811 74.7452 22.489C74.3929 23.1633 73.8872 23.6898 73.2281 24.0686C72.5728 24.4436 71.7869 24.6311 70.8702 24.6311ZM70.8872 22.5345C71.2206 22.5345 71.5028 22.4322 71.7338 22.2277C71.9649 22.0231 72.141 21.739 72.2622 21.3754C72.3872 21.0118 72.4497 20.5913 72.4497 20.114C72.4497 19.6292 72.3872 19.2049 72.2622 18.8413C72.141 18.4777 71.9649 18.1936 71.7338 17.989C71.5028 17.7845 71.2206 17.6822 70.8872 17.6822C70.5425 17.6822 70.2509 17.7845 70.0122 17.989C69.7774 18.1936 69.5975 18.4777 69.4725 18.8413C69.3513 19.2049 69.2906 19.6292 69.2906 20.114C69.2906 20.5913 69.3513 21.0118 69.4725 21.3754C69.5975 21.739 69.7774 22.0231 70.0122 22.2277C70.2509 22.4322 70.5425 22.5345 70.8872 22.5345ZM80.1401 24.4663V12.8299H84.9469C85.8181 12.8299 86.57 13.0004 87.2026 13.3413C87.8389 13.6784 88.3295 14.15 88.6742 14.7561C89.0189 15.3584 89.1912 16.0591 89.1912 16.8584C89.1912 17.6614 89.0151 18.364 88.6628 18.9663C88.3143 19.5648 87.8162 20.0288 87.1685 20.3584C86.5208 20.6879 85.7518 20.8527 84.8617 20.8527H81.8958V18.6368H84.3389C84.7632 18.6368 85.1174 18.5629 85.4014 18.4152C85.6893 18.2674 85.9071 18.061 86.0549 17.7959C86.2026 17.5269 86.2764 17.2144 86.2764 16.8584C86.2764 16.4985 86.2026 16.1879 86.0549 15.9265C85.9071 15.6614 85.6893 15.4568 85.4014 15.3129C85.1136 15.169 84.7594 15.097 84.3389 15.097H82.9526V24.4663H80.1401ZM92.7253 24.614C92.1685 24.614 91.6742 24.5212 91.2424 24.3356C90.8143 24.1462 90.4753 23.8621 90.2253 23.4834C89.9791 23.1008 89.856 22.6216 89.856 22.0459C89.856 21.561 89.9412 21.1519 90.1117 20.8186C90.2821 20.4852 90.517 20.2144 90.8162 20.0061C91.1155 19.7977 91.4602 19.6406 91.8503 19.5345C92.2405 19.4246 92.6571 19.3508 93.1003 19.3129C93.5965 19.2674 93.9961 19.2201 94.2992 19.1709C94.6022 19.1178 94.8219 19.044 94.9583 18.9493C95.0984 18.8508 95.1685 18.7125 95.1685 18.5345V18.5061C95.1685 18.2144 95.0681 17.989 94.8674 17.8299C94.6666 17.6709 94.3958 17.5913 94.0549 17.5913C93.6874 17.5913 93.392 17.6709 93.1685 17.8299C92.945 17.989 92.803 18.2087 92.7424 18.489L90.1799 18.3981C90.2556 17.8678 90.4507 17.3943 90.7651 16.9777C91.0833 16.5572 91.5189 16.2277 92.0719 15.989C92.6287 15.7466 93.2973 15.6254 94.0776 15.6254C94.6344 15.6254 95.1477 15.6917 95.6174 15.8243C96.0871 15.9531 96.4961 16.1424 96.8446 16.3924C97.1931 16.6387 97.4621 16.9417 97.6514 17.3015C97.8446 17.6614 97.9412 18.0724 97.9412 18.5345V24.4663H95.3276V23.2504H95.2594C95.1041 23.5459 94.9052 23.7959 94.6628 24.0004C94.4242 24.2049 94.142 24.3584 93.8162 24.4606C93.4942 24.5629 93.1306 24.614 92.7253 24.614ZM93.5833 22.7959C93.8825 22.7959 94.1514 22.7352 94.3901 22.614C94.6325 22.4928 94.8257 22.3262 94.9696 22.114C95.1136 21.8981 95.1855 21.6481 95.1855 21.364V20.5345C95.106 20.5762 95.0094 20.614 94.8958 20.6481C94.7859 20.6822 94.6647 20.7144 94.5321 20.7447C94.3996 20.775 94.2632 20.8015 94.123 20.8243C93.9829 20.847 93.8484 20.8678 93.7196 20.8868C93.4583 20.9284 93.2348 20.9928 93.0492 21.0799C92.8674 21.1671 92.7272 21.2807 92.6287 21.4209C92.534 21.5572 92.4867 21.7201 92.4867 21.9095C92.4867 22.1974 92.5889 22.4171 92.7935 22.5686C93.0018 22.7201 93.2651 22.7959 93.5833 22.7959ZM99.6401 24.4663V15.739H102.339V17.3299H102.43C102.589 16.7542 102.848 16.3262 103.208 16.0459C103.568 15.7618 103.987 15.6197 104.464 15.6197C104.593 15.6197 104.725 15.6292 104.862 15.6481C104.998 15.6633 105.125 15.6879 105.242 15.722V18.1368C105.11 18.0913 104.936 18.0553 104.72 18.0288C104.508 18.0023 104.318 17.989 104.151 17.989C103.822 17.989 103.525 18.0629 103.259 18.2106C102.998 18.3546 102.792 18.5572 102.64 18.8186C102.492 19.0762 102.418 19.3792 102.418 19.7277V24.4663H99.6401ZM111.707 15.739V17.7845H106.201V15.739H111.707ZM107.355 13.6481H110.133V21.722C110.133 21.8924 110.159 22.0307 110.213 22.1368C110.269 22.239 110.351 22.3129 110.457 22.3584C110.563 22.4 110.69 22.4209 110.838 22.4209C110.944 22.4209 111.055 22.4114 111.173 22.3924C111.294 22.3697 111.385 22.3508 111.445 22.3356L111.866 24.3413C111.733 24.3792 111.546 24.4265 111.303 24.4834C111.065 24.5402 110.779 24.5762 110.445 24.5913C109.794 24.6216 109.235 24.5459 108.769 24.364C108.307 24.1784 107.953 23.8906 107.707 23.5004C107.464 23.1102 107.347 22.6197 107.355 22.0288V13.6481ZM113.124 24.4663V15.739H115.903V24.4663H113.124ZM114.517 14.722C114.126 14.722 113.791 14.5932 113.511 14.3356C113.231 14.0743 113.09 13.7599 113.09 13.3924C113.09 13.0288 113.231 12.7182 113.511 12.4606C113.791 12.1993 114.126 12.0686 114.517 12.0686C114.91 12.0686 115.246 12.1993 115.522 12.4606C115.802 12.7182 115.943 13.0288 115.943 13.3924C115.943 13.7599 115.802 14.0743 115.522 14.3356C115.246 14.5932 114.91 14.722 114.517 14.722ZM121.745 24.6311C120.825 24.6311 120.035 24.4417 119.376 24.0629C118.721 23.6841 118.217 23.1576 117.865 22.4834C117.512 21.8053 117.336 21.0212 117.336 20.1311C117.336 19.2371 117.512 18.4531 117.865 17.7788C118.221 17.1008 118.726 16.5724 119.382 16.1936C120.041 15.8148 120.827 15.6254 121.74 15.6254C122.546 15.6254 123.249 15.7712 123.847 16.0629C124.45 16.3546 124.919 16.7674 125.257 17.3015C125.597 17.8318 125.777 18.4549 125.796 19.1709H123.2C123.147 18.7239 122.995 18.3735 122.745 18.1197C122.499 17.8659 122.177 17.739 121.779 17.739C121.457 17.739 121.175 17.8299 120.933 18.0118C120.69 18.1898 120.501 18.4549 120.365 18.8072C120.232 19.1557 120.166 19.5875 120.166 20.1027C120.166 20.6178 120.232 21.0534 120.365 21.4095C120.501 21.7618 120.69 22.0288 120.933 22.2106C121.175 22.3887 121.457 22.4777 121.779 22.4777C122.037 22.4777 122.264 22.4227 122.461 22.3129C122.662 22.2031 122.827 22.0421 122.955 21.8299C123.084 21.614 123.166 21.3527 123.2 21.0459H125.796C125.77 21.7656 125.59 22.3943 125.257 22.9322C124.927 23.4701 124.463 23.8887 123.865 24.1879C123.27 24.4834 122.563 24.6311 121.745 24.6311ZM127.218 24.4663V15.739H129.997V24.4663H127.218ZM128.61 14.722C128.22 14.722 127.885 14.5932 127.605 14.3356C127.324 14.0743 127.184 13.7599 127.184 13.3924C127.184 13.0288 127.324 12.7182 127.605 12.4606C127.885 12.1993 128.22 12.0686 128.61 12.0686C129.004 12.0686 129.339 12.1993 129.616 12.4606C129.896 12.7182 130.036 13.0288 130.036 13.3924C130.036 13.7599 129.896 14.0743 129.616 14.3356C129.339 14.5932 129.004 14.722 128.61 14.722ZM131.765 27.739V15.739H134.515V17.2334H134.6C134.714 16.9682 134.875 16.7125 135.083 16.4663C135.295 16.2201 135.564 16.0193 135.89 15.864C136.22 15.7049 136.614 15.6254 137.072 15.6254C137.678 15.6254 138.244 15.7845 138.771 16.1027C139.301 16.4209 139.729 16.9114 140.055 17.5743C140.381 18.2371 140.543 19.0818 140.543 20.1084C140.543 21.097 140.386 21.9246 140.072 22.5913C139.761 23.258 139.341 23.758 138.811 24.0913C138.284 24.4246 137.699 24.5913 137.055 24.5913C136.615 24.5913 136.235 24.5193 135.913 24.3754C135.591 24.2315 135.32 24.0421 135.1 23.8072C134.884 23.5724 134.718 23.3205 134.6 23.0515H134.543V27.739H131.765ZM134.487 20.1027C134.487 20.5724 134.549 20.9815 134.674 21.3299C134.803 21.6784 134.987 21.9493 135.225 22.1424C135.468 22.3318 135.758 22.4265 136.095 22.4265C136.436 22.4265 136.725 22.3318 136.964 22.1424C137.203 21.9493 137.383 21.6784 137.504 21.3299C137.629 20.9815 137.691 20.5724 137.691 20.1027C137.691 19.633 137.629 19.2258 137.504 18.8811C137.383 18.5364 137.203 18.2693 136.964 18.0799C136.729 17.8906 136.439 17.7959 136.095 17.7959C135.754 17.7959 135.464 17.8887 135.225 18.0743C134.987 18.2599 134.803 18.525 134.674 18.8697C134.549 19.2144 134.487 19.6254 134.487 20.1027ZM144.46 24.614C143.903 24.614 143.409 24.5212 142.977 24.3356C142.549 24.1462 142.21 23.8621 141.96 23.4834C141.713 23.1008 141.59 22.6216 141.59 22.0459C141.59 21.561 141.676 21.1519 141.846 20.8186C142.017 20.4852 142.251 20.2144 142.551 20.0061C142.85 19.7977 143.195 19.6406 143.585 19.5345C143.975 19.4246 144.392 19.3508 144.835 19.3129C145.331 19.2674 145.731 19.2201 146.034 19.1709C146.337 19.1178 146.556 19.044 146.693 18.9493C146.833 18.8508 146.903 18.7125 146.903 18.5345V18.5061C146.903 18.2144 146.802 17.989 146.602 17.8299C146.401 17.6709 146.13 17.5913 145.789 17.5913C145.422 17.5913 145.126 17.6709 144.903 17.8299C144.679 17.989 144.537 18.2087 144.477 18.489L141.914 18.3981C141.99 17.8678 142.185 17.3943 142.499 16.9777C142.818 16.5572 143.253 16.2277 143.806 15.989C144.363 15.7466 145.032 15.6254 145.812 15.6254C146.369 15.6254 146.882 15.6917 147.352 15.8243C147.821 15.9531 148.231 16.1424 148.579 16.3924C148.927 16.6387 149.196 16.9417 149.386 17.3015C149.579 17.6614 149.676 18.0724 149.676 18.5345V24.4663H147.062V23.2504H146.994C146.838 23.5459 146.64 23.7959 146.397 24.0004C146.159 24.2049 145.876 24.3584 145.551 24.4606C145.229 24.5629 144.865 24.614 144.46 24.614ZM145.318 22.7959C145.617 22.7959 145.886 22.7352 146.124 22.614C146.367 22.4928 146.56 22.3262 146.704 22.114C146.848 21.8981 146.92 21.6481 146.92 21.364V20.5345C146.84 20.5762 146.744 20.614 146.63 20.6481C146.52 20.6822 146.399 20.7144 146.267 20.7447C146.134 20.775 145.998 20.8015 145.857 20.8243C145.717 20.847 145.583 20.8678 145.454 20.8868C145.193 20.9284 144.969 20.9928 144.784 21.0799C144.602 21.1671 144.462 21.2807 144.363 21.4209C144.268 21.5572 144.221 21.7201 144.221 21.9095C144.221 22.1974 144.323 22.4171 144.528 22.5686C144.736 22.7201 144.999 22.7959 145.318 22.7959ZM156.301 15.739V17.7845H150.795V15.739H156.301ZM151.948 13.6481H154.727V21.722C154.727 21.8924 154.753 22.0307 154.806 22.1368C154.863 22.239 154.945 22.3129 155.051 22.3584C155.157 22.4 155.284 22.4209 155.431 22.4209C155.537 22.4209 155.649 22.4114 155.767 22.3924C155.888 22.3697 155.979 22.3508 156.039 22.3356L156.46 24.3413C156.327 24.3792 156.14 24.4265 155.897 24.4834C155.659 24.5402 155.373 24.5762 155.039 24.5913C154.388 24.6216 153.829 24.5459 153.363 24.364C152.901 24.1784 152.547 23.8906 152.301 23.5004C152.058 23.1102 151.941 22.6197 151.948 22.0288V13.6481ZM161.704 24.6311C160.791 24.6311 160.003 24.4512 159.34 24.0913C158.681 23.7277 158.174 23.2106 157.818 22.5402C157.465 21.8659 157.289 21.0648 157.289 20.1368C157.289 19.2352 157.467 18.4474 157.823 17.7731C158.179 17.0951 158.681 16.5686 159.329 16.1936C159.977 15.8148 160.74 15.6254 161.619 15.6254C162.24 15.6254 162.808 15.722 163.323 15.9152C163.838 16.1084 164.284 16.3943 164.659 16.7731C165.034 17.1519 165.325 17.6197 165.534 18.1765C165.742 18.7296 165.846 19.364 165.846 20.0799V20.7731H158.261V19.1595H163.261C163.257 18.864 163.187 18.6008 163.051 18.3697C162.914 18.1387 162.727 17.9587 162.488 17.8299C162.253 17.6974 161.982 17.6311 161.676 17.6311C161.365 17.6311 161.087 17.7012 160.84 17.8413C160.594 17.9777 160.399 18.1652 160.255 18.4038C160.111 18.6387 160.035 18.9057 160.028 19.2049V20.847C160.028 21.2031 160.098 21.5156 160.238 21.7845C160.378 22.0496 160.577 22.2561 160.835 22.4038C161.092 22.5515 161.399 22.6254 161.755 22.6254C162.001 22.6254 162.225 22.5913 162.426 22.5231C162.626 22.4549 162.799 22.3546 162.943 22.222C163.087 22.0894 163.195 21.9265 163.267 21.7334L165.818 21.8072C165.712 22.3792 165.479 22.8773 165.119 23.3015C164.763 23.722 164.295 24.0496 163.715 24.2845C163.136 24.5156 162.465 24.6311 161.704 24.6311Z" fill="white"/>
<defs>
<linearGradient id="paint0_linear_6254_1959" x1="167.5" y1="12" x2="167.5" y2="141.865" gradientUnits="userSpaceOnUse">
<stop/>
<stop offset="1" stop-color="#1C0130"/>
</linearGradient>
<linearGradient id="paint1_linear_6254_1959" x1="167.5" y1="12" x2="167.5" y2="132" gradientUnits="userSpaceOnUse">
<stop stop-color="#020103"/>
<stop offset="1" stop-color="#311645"/>
</linearGradient>
<linearGradient id="paint2_linear_6254_1959" x1="6.23328e-08" y1="18.2353" x2="193.749" y2="11.0245" gradientUnits="userSpaceOnUse">
<stop stop-color="#413EFE"/>
<stop offset="1" stop-color="#9F38E5"/>
</linearGradient>
</defs>
</svg>
