<svg width="1000" height="103" viewBox="0 0 1000 103" fill="none" xmlns="http://www.w3.org/2000/svg">
<rect x="0.5" y="12.5" width="999" height="90" rx="3.5" fill="url(#paint0_linear_6478_610)" stroke="url(#paint1_linear_6478_610)"/>
<path d="M24.004 59.004H25.012L29.016 69H28.078L26.916 66.018H22.1L20.938 69H20L24.004 59.004ZM22.38 65.29H26.636L24.536 59.928H24.494L22.38 65.29ZM29.8918 61.762H30.7318V66.186C30.7318 66.942 30.8858 67.502 31.2078 67.88C31.5438 68.272 32.0618 68.468 32.7618 68.468C33.3218 68.468 33.8118 68.244 34.2318 67.824C34.6518 67.404 34.8898 66.844 34.9458 66.158V61.762H35.7858V69H34.9458V67.782C34.3858 68.72 33.5738 69.196 32.5378 69.196C30.7738 69.196 29.8918 68.202 29.8918 66.228V61.762ZM39.298 59.424V61.762H41.188V62.49H39.298V67.39C39.298 67.698 39.354 67.936 39.466 68.076C39.578 68.202 39.788 68.272 40.096 68.272H41.006V69H39.984C39.424 69 39.018 68.846 38.78 68.566C38.556 68.314 38.458 67.922 38.458 67.39V62.49H36.918V61.762H38.458V59.774L39.298 59.424ZM45.6202 61.566C46.6842 61.566 47.5382 61.944 48.1822 62.714C48.7702 63.428 49.0642 64.324 49.0642 65.388C49.0642 66.452 48.7702 67.334 48.1822 68.048C47.5382 68.804 46.6842 69.196 45.6202 69.196C44.5562 69.196 43.7022 68.804 43.0582 68.048C42.4702 67.334 42.1762 66.452 42.1762 65.388C42.1762 64.324 42.4702 63.428 43.0722 62.714C43.7022 61.944 44.5562 61.566 45.6202 61.566ZM45.6202 62.294C44.7942 62.294 44.1502 62.602 43.6742 63.246C43.2402 63.806 43.0302 64.52 43.0302 65.388C43.0302 66.242 43.2402 66.956 43.6742 67.516C44.1502 68.146 44.7942 68.468 45.6202 68.468C46.4462 68.468 47.1042 68.146 47.5802 67.516C48.0002 66.942 48.2242 66.228 48.2242 65.388C48.2242 64.52 48.0002 63.806 47.5802 63.246C47.1042 62.602 46.4462 62.294 45.6202 62.294ZM53.49 61.566C54.638 61.566 55.394 62.056 55.758 63.05C56.01 62.56 56.332 62.196 56.724 61.944C57.088 61.692 57.536 61.566 58.04 61.566C58.796 61.566 59.412 61.804 59.86 62.28C60.294 62.756 60.518 63.414 60.518 64.268V69H59.678V64.38C59.678 63.694 59.538 63.176 59.258 62.84C58.95 62.476 58.46 62.294 57.816 62.294C57.284 62.294 56.85 62.49 56.5 62.896C56.136 63.288 55.968 63.778 55.968 64.394V69H55.114V64.38C55.114 62.98 54.512 62.294 53.308 62.294C52.762 62.294 52.314 62.504 51.95 62.952C51.572 63.386 51.39 63.918 51.39 64.548V69H50.55V61.762H51.39V62.854C51.908 61.986 52.608 61.566 53.49 61.566ZM65.3464 61.566C66.3544 61.566 67.1104 61.832 67.6004 62.392C68.0204 62.854 68.2444 63.498 68.2444 64.338V69H67.4464V67.614C67.1524 68.034 66.7604 68.398 66.2844 68.678C65.6964 69.014 65.0664 69.196 64.3804 69.196C63.6804 69.196 63.1064 69.014 62.6864 68.664C62.2244 68.3 62.0004 67.81 62.0004 67.222C62.0004 66.382 62.3364 65.766 63.0224 65.374C63.6104 64.996 64.4644 64.8 65.5564 64.8L67.4044 64.772V64.338C67.4044 62.966 66.7044 62.28 65.3044 62.28C64.7164 62.28 64.2404 62.392 63.8624 62.644C63.4424 62.91 63.1764 63.288 63.0644 63.792L62.2384 63.736C62.3784 63.008 62.7424 62.448 63.3304 62.084C63.8484 61.734 64.5204 61.566 65.3464 61.566ZM67.4044 65.43L65.5984 65.458C63.7644 65.472 62.8544 66.06 62.8544 67.208C62.8544 67.6 63.0084 67.908 63.3164 68.146C63.6244 68.384 64.0444 68.51 64.5484 68.51C65.2764 68.51 65.9484 68.258 66.5364 67.754C67.1104 67.278 67.4044 66.746 67.4044 66.186V65.43ZM71.755 59.424V61.762H73.645V62.49H71.755V67.39C71.755 67.698 71.811 67.936 71.923 68.076C72.035 68.202 72.245 68.272 72.553 68.272H73.463V69H72.441C71.881 69 71.475 68.846 71.237 68.566C71.013 68.314 70.915 67.922 70.915 67.39V62.49H69.375V61.762H70.915V59.774L71.755 59.424ZM75.7533 59.158C75.9493 59.158 76.1173 59.228 76.2573 59.368C76.3973 59.48 76.4673 59.648 76.4673 59.858C76.4673 60.054 76.3833 60.222 76.2433 60.362C76.1033 60.488 75.9493 60.558 75.7533 60.558C75.5433 60.558 75.3753 60.488 75.2493 60.362C75.1093 60.222 75.0393 60.054 75.0393 59.858C75.0393 59.648 75.1093 59.48 75.2493 59.368C75.3753 59.228 75.5433 59.158 75.7533 59.158ZM75.3333 61.762H76.1733V69H75.3333V61.762ZM81.4106 61.566C82.2786 61.566 82.9786 61.776 83.5246 62.196C84.0706 62.616 84.4066 63.26 84.5186 64.128H83.6786C83.5806 63.512 83.3426 63.064 82.9506 62.756C82.5586 62.448 82.0406 62.294 81.4106 62.294C80.6546 62.294 80.0386 62.588 79.5906 63.176C79.1426 63.736 78.9326 64.492 78.9326 65.43C78.9326 66.354 79.1426 67.096 79.5626 67.642C79.9826 68.188 80.5986 68.468 81.3966 68.468C82.7406 68.468 83.5106 67.782 83.7206 66.41H84.5466C84.4066 67.32 84.0566 68.02 83.5106 68.496C82.9786 68.958 82.2646 69.196 81.3966 69.196C80.3326 69.196 79.4926 68.832 78.9046 68.104C78.3446 67.432 78.0786 66.536 78.0786 65.43C78.0786 64.338 78.3586 63.428 78.9326 62.714C79.5346 61.944 80.3606 61.566 81.4106 61.566ZM90.6939 59.004H94.7539C96.9659 59.004 98.0859 59.956 98.0859 61.874C98.0859 63.792 96.9659 64.758 94.7399 64.758H91.5479V69H90.6939V59.004ZM91.5479 59.76V64.002H94.6979C95.5659 64.002 96.1959 63.82 96.6159 63.47C97.0079 63.12 97.2179 62.588 97.2179 61.874C97.2179 61.16 97.0079 60.642 96.6159 60.306C96.1959 59.942 95.5519 59.76 94.6979 59.76H91.5479ZM102.493 61.566C103.501 61.566 104.257 61.832 104.747 62.392C105.167 62.854 105.391 63.498 105.391 64.338V69H104.593V67.614C104.299 68.034 103.907 68.398 103.431 68.678C102.843 69.014 102.213 69.196 101.527 69.196C100.827 69.196 100.253 69.014 99.8329 68.664C99.3709 68.3 99.1469 67.81 99.1469 67.222C99.1469 66.382 99.4829 65.766 100.169 65.374C100.757 64.996 101.611 64.8 102.703 64.8L104.551 64.772V64.338C104.551 62.966 103.851 62.28 102.451 62.28C101.863 62.28 101.387 62.392 101.009 62.644C100.589 62.91 100.323 63.288 100.211 63.792L99.3849 63.736C99.5249 63.008 99.8889 62.448 100.477 62.084C100.995 61.734 101.667 61.566 102.493 61.566ZM104.551 65.43L102.745 65.458C100.911 65.472 100.001 66.06 100.001 67.208C100.001 67.6 100.155 67.908 100.463 68.146C100.771 68.384 101.191 68.51 101.695 68.51C102.423 68.51 103.095 68.258 103.683 67.754C104.257 67.278 104.551 66.746 104.551 66.186V65.43ZM110.19 61.566C110.61 61.566 110.96 61.608 111.24 61.72V62.574C110.862 62.462 110.498 62.42 110.134 62.42C109.49 62.42 108.958 62.7 108.566 63.288C108.174 63.82 107.992 64.45 107.992 65.178V69H107.152V61.762H107.992V63.148C108.188 62.7 108.454 62.336 108.79 62.07C109.182 61.734 109.658 61.566 110.19 61.566ZM113.946 59.424V61.762H115.836V62.49H113.946V67.39C113.946 67.698 114.002 67.936 114.114 68.076C114.226 68.202 114.436 68.272 114.744 68.272H115.654V69H114.632C114.072 69 113.666 68.846 113.428 68.566C113.204 68.314 113.106 67.922 113.106 67.39V62.49H111.566V61.762H113.106V59.774L113.946 59.424ZM117.945 59.158C118.141 59.158 118.309 59.228 118.449 59.368C118.589 59.48 118.659 59.648 118.659 59.858C118.659 60.054 118.575 60.222 118.435 60.362C118.295 60.488 118.141 60.558 117.945 60.558C117.735 60.558 117.567 60.488 117.441 60.362C117.301 60.222 117.231 60.054 117.231 59.858C117.231 59.648 117.301 59.48 117.441 59.368C117.567 59.228 117.735 59.158 117.945 59.158ZM117.525 61.762H118.365V69H117.525V61.762ZM123.602 61.566C124.47 61.566 125.17 61.776 125.716 62.196C126.262 62.616 126.598 63.26 126.71 64.128H125.87C125.772 63.512 125.534 63.064 125.142 62.756C124.75 62.448 124.232 62.294 123.602 62.294C122.846 62.294 122.23 62.588 121.782 63.176C121.334 63.736 121.124 64.492 121.124 65.43C121.124 66.354 121.334 67.096 121.754 67.642C122.174 68.188 122.79 68.468 123.588 68.468C124.932 68.468 125.702 67.782 125.912 66.41H126.738C126.598 67.32 126.248 68.02 125.702 68.496C125.17 68.958 124.456 69.196 123.588 69.196C122.524 69.196 121.684 68.832 121.096 68.104C120.536 67.432 120.27 66.536 120.27 65.43C120.27 64.338 120.55 63.428 121.124 62.714C121.726 61.944 122.552 61.566 123.602 61.566ZM128.923 59.158C129.119 59.158 129.287 59.228 129.427 59.368C129.567 59.48 129.637 59.648 129.637 59.858C129.637 60.054 129.553 60.222 129.413 60.362C129.273 60.488 129.119 60.558 128.923 60.558C128.713 60.558 128.545 60.488 128.419 60.362C128.279 60.222 128.209 60.054 128.209 59.858C128.209 59.648 128.279 59.48 128.419 59.368C128.545 59.228 128.713 59.158 128.923 59.158ZM128.503 61.762H129.343V69H128.503V61.762ZM134.874 61.566C135.896 61.566 136.708 61.944 137.31 62.728C137.842 63.428 138.108 64.31 138.108 65.402C138.108 66.466 137.842 67.348 137.324 68.048C136.736 68.804 135.938 69.196 134.902 69.196C133.74 69.196 132.9 68.622 132.368 67.488V71.772H131.528V61.762H132.326V63.19C132.858 62.098 133.698 61.566 134.874 61.566ZM134.776 62.28C133.992 62.28 133.376 62.588 132.942 63.204C132.536 63.75 132.34 64.464 132.34 65.346V65.5C132.34 66.368 132.55 67.082 132.984 67.642C133.418 68.202 134.006 68.482 134.748 68.482C135.574 68.482 136.204 68.174 136.652 67.586C137.044 67.04 137.24 66.312 137.24 65.402C137.24 64.492 137.044 63.764 136.666 63.218C136.218 62.588 135.588 62.28 134.776 62.28ZM142.661 61.566C143.669 61.566 144.425 61.832 144.915 62.392C145.335 62.854 145.559 63.498 145.559 64.338V69H144.761V67.614C144.467 68.034 144.075 68.398 143.599 68.678C143.011 69.014 142.381 69.196 141.695 69.196C140.995 69.196 140.421 69.014 140.001 68.664C139.539 68.3 139.315 67.81 139.315 67.222C139.315 66.382 139.651 65.766 140.337 65.374C140.925 64.996 141.779 64.8 142.871 64.8L144.719 64.772V64.338C144.719 62.966 144.019 62.28 142.619 62.28C142.031 62.28 141.555 62.392 141.177 62.644C140.757 62.91 140.491 63.288 140.379 63.792L139.553 63.736C139.693 63.008 140.057 62.448 140.645 62.084C141.163 61.734 141.835 61.566 142.661 61.566ZM144.719 65.43L142.913 65.458C141.079 65.472 140.169 66.06 140.169 67.208C140.169 67.6 140.323 67.908 140.631 68.146C140.939 68.384 141.359 68.51 141.863 68.51C142.591 68.51 143.263 68.258 143.851 67.754C144.425 67.278 144.719 66.746 144.719 66.186V65.43ZM149.07 59.424V61.762H150.96V62.49H149.07V67.39C149.07 67.698 149.126 67.936 149.238 68.076C149.35 68.202 149.56 68.272 149.868 68.272H150.778V69H149.756C149.196 69 148.79 68.846 148.552 68.566C148.328 68.314 148.23 67.922 148.23 67.39V62.49H146.69V61.762H148.23V59.774L149.07 59.424ZM153.068 59.158C153.264 59.158 153.432 59.228 153.572 59.368C153.712 59.48 153.782 59.648 153.782 59.858C153.782 60.054 153.698 60.222 153.558 60.362C153.418 60.488 153.264 60.558 153.068 60.558C152.858 60.558 152.69 60.488 152.564 60.362C152.424 60.222 152.354 60.054 152.354 59.858C152.354 59.648 152.424 59.48 152.564 59.368C152.69 59.228 152.858 59.158 153.068 59.158ZM152.648 61.762H153.488V69H152.648V61.762ZM158.837 61.566C159.901 61.566 160.755 61.944 161.399 62.714C161.987 63.428 162.281 64.324 162.281 65.388C162.281 66.452 161.987 67.334 161.399 68.048C160.755 68.804 159.901 69.196 158.837 69.196C157.773 69.196 156.919 68.804 156.275 68.048C155.687 67.334 155.393 66.452 155.393 65.388C155.393 64.324 155.687 63.428 156.289 62.714C156.919 61.944 157.773 61.566 158.837 61.566ZM158.837 62.294C158.011 62.294 157.367 62.602 156.891 63.246C156.457 63.806 156.247 64.52 156.247 65.388C156.247 66.242 156.457 66.956 156.891 67.516C157.367 68.146 158.011 68.468 158.837 68.468C159.663 68.468 160.321 68.146 160.797 67.516C161.217 66.942 161.441 66.228 161.441 65.388C161.441 64.52 161.217 63.806 160.797 63.246C160.321 62.602 159.663 62.294 158.837 62.294ZM166.959 61.566C168.751 61.566 169.647 62.56 169.647 64.548V69H168.807V64.604C168.807 63.064 168.121 62.294 166.749 62.294C166.161 62.294 165.685 62.504 165.293 62.924C164.873 63.344 164.649 63.918 164.607 64.632V69H163.767V61.762H164.607V62.952C164.859 62.518 165.181 62.182 165.587 61.93C165.993 61.678 166.455 61.566 166.959 61.566ZM172.333 62.448C172.529 62.448 172.697 62.518 172.837 62.672C172.977 62.798 173.047 62.966 173.047 63.176C173.047 63.372 172.977 63.54 172.837 63.68C172.697 63.82 172.529 63.89 172.333 63.89C172.123 63.89 171.955 63.82 171.829 63.68C171.689 63.54 171.619 63.372 171.619 63.176C171.619 62.966 171.689 62.798 171.829 62.672C171.955 62.518 172.123 62.448 172.333 62.448ZM172.333 67.572C172.529 67.572 172.697 67.642 172.837 67.796C172.977 67.922 173.047 68.09 173.047 68.3C173.047 68.496 172.977 68.664 172.837 68.804C172.697 68.944 172.529 69.014 172.333 69.014C172.123 69.014 171.955 68.944 171.829 68.804C171.689 68.664 171.619 68.496 171.619 68.3C171.619 68.09 171.689 67.922 171.829 67.796C171.955 67.642 172.123 67.572 172.333 67.572ZM179.821 59.004H180.675V65.136C180.675 66.2 180.899 67.012 181.375 67.558C181.879 68.132 182.649 68.426 183.713 68.426C184.777 68.426 185.547 68.132 186.051 67.558C186.513 67.012 186.751 66.2 186.751 65.136V59.004H187.605V65.136C187.605 66.438 187.283 67.432 186.667 68.118C186.009 68.832 185.029 69.196 183.713 69.196C182.397 69.196 181.417 68.832 180.773 68.132C180.129 67.432 179.821 66.438 179.821 65.136V59.004ZM191.975 61.566C193.683 61.566 194.649 62.308 194.859 63.792H194.033C193.935 63.288 193.739 62.924 193.431 62.686C193.095 62.42 192.605 62.294 191.961 62.294C191.429 62.294 190.995 62.392 190.659 62.616C190.323 62.84 190.155 63.12 190.155 63.484C190.155 63.848 190.365 64.142 190.799 64.366C191.079 64.506 191.583 64.674 192.325 64.87C193.207 65.094 193.837 65.318 194.201 65.542C194.775 65.892 195.069 66.382 195.069 66.998C195.069 68.454 194.089 69.196 192.129 69.196C190.267 69.196 189.259 68.37 189.091 66.718H189.917C190.001 67.348 190.225 67.81 190.589 68.09C190.925 68.342 191.429 68.468 192.101 68.468C193.501 68.468 194.201 67.992 194.201 67.04C194.201 66.606 193.963 66.27 193.487 66.032C193.235 65.906 192.703 65.738 191.877 65.528C191.037 65.304 190.449 65.094 190.113 64.884C189.553 64.548 189.287 64.086 189.287 63.498C189.287 62.91 189.539 62.448 190.071 62.084C190.575 61.734 191.219 61.566 191.975 61.566ZM199.341 61.566C200.489 61.566 201.343 61.944 201.917 62.728C202.421 63.414 202.701 64.38 202.743 65.626H196.863C196.905 66.508 197.143 67.208 197.577 67.712C198.025 68.216 198.613 68.468 199.369 68.468C200.027 68.468 200.559 68.286 200.965 67.95C201.301 67.656 201.553 67.236 201.735 66.676H202.589C202.421 67.376 202.099 67.95 201.623 68.398C201.035 68.93 200.293 69.196 199.369 69.196C198.347 69.196 197.535 68.846 196.933 68.16C196.303 67.46 195.995 66.522 195.995 65.374C195.995 64.31 196.289 63.428 196.891 62.7C197.507 61.944 198.319 61.566 199.341 61.566ZM199.355 62.294C198.641 62.294 198.067 62.532 197.633 63.036C197.199 63.526 196.947 64.156 196.877 64.94H201.861C201.721 63.176 200.881 62.294 199.355 62.294ZM207.123 61.566C207.543 61.566 207.893 61.608 208.173 61.72V62.574C207.795 62.462 207.431 62.42 207.067 62.42C206.423 62.42 205.891 62.7 205.499 63.288C205.107 63.82 204.925 64.45 204.925 65.178V69H204.085V61.762H204.925V63.148C205.121 62.7 205.387 62.336 205.723 62.07C206.115 61.734 206.591 61.566 207.123 61.566ZM211.594 61.566C213.302 61.566 214.268 62.308 214.478 63.792H213.652C213.554 63.288 213.358 62.924 213.05 62.686C212.714 62.42 212.224 62.294 211.58 62.294C211.048 62.294 210.614 62.392 210.278 62.616C209.942 62.84 209.774 63.12 209.774 63.484C209.774 63.848 209.984 64.142 210.418 64.366C210.698 64.506 211.202 64.674 211.944 64.87C212.826 65.094 213.456 65.318 213.82 65.542C214.394 65.892 214.688 66.382 214.688 66.998C214.688 68.454 213.708 69.196 211.748 69.196C209.886 69.196 208.878 68.37 208.71 66.718H209.536C209.62 67.348 209.844 67.81 210.208 68.09C210.544 68.342 211.048 68.468 211.72 68.468C213.12 68.468 213.82 67.992 213.82 67.04C213.82 66.606 213.582 66.27 213.106 66.032C212.854 65.906 212.322 65.738 211.496 65.528C210.656 65.304 210.068 65.094 209.732 64.884C209.172 64.548 208.906 64.086 208.906 63.498C208.906 62.91 209.158 62.448 209.69 62.084C210.194 61.734 210.838 61.566 211.594 61.566ZM223.762 61.566C224.77 61.566 225.526 61.832 226.016 62.392C226.436 62.854 226.66 63.498 226.66 64.338V69H225.862V67.614C225.568 68.034 225.176 68.398 224.7 68.678C224.112 69.014 223.482 69.196 222.796 69.196C222.096 69.196 221.522 69.014 221.102 68.664C220.64 68.3 220.416 67.81 220.416 67.222C220.416 66.382 220.752 65.766 221.438 65.374C222.026 64.996 222.88 64.8 223.972 64.8L225.82 64.772V64.338C225.82 62.966 225.12 62.28 223.72 62.28C223.132 62.28 222.656 62.392 222.278 62.644C221.858 62.91 221.592 63.288 221.48 63.792L220.654 63.736C220.794 63.008 221.158 62.448 221.746 62.084C222.264 61.734 222.936 61.566 223.762 61.566ZM225.82 65.43L224.014 65.458C222.18 65.472 221.27 66.06 221.27 67.208C221.27 67.6 221.424 67.908 221.732 68.146C222.04 68.384 222.46 68.51 222.964 68.51C223.692 68.51 224.364 68.258 224.952 67.754C225.526 67.278 225.82 66.746 225.82 66.186V65.43ZM231.459 61.566C231.879 61.566 232.229 61.608 232.509 61.72V62.574C232.131 62.462 231.767 62.42 231.403 62.42C230.759 62.42 230.227 62.7 229.835 63.288C229.443 63.82 229.261 64.45 229.261 65.178V69H228.421V61.762H229.261V63.148C229.457 62.7 229.723 62.336 230.059 62.07C230.451 61.734 230.927 61.566 231.459 61.566ZM236.392 61.566C237.54 61.566 238.394 61.944 238.968 62.728C239.472 63.414 239.752 64.38 239.794 65.626H233.914C233.956 66.508 234.194 67.208 234.628 67.712C235.076 68.216 235.664 68.468 236.42 68.468C237.078 68.468 237.61 68.286 238.016 67.95C238.352 67.656 238.604 67.236 238.786 66.676H239.64C239.472 67.376 239.15 67.95 238.674 68.398C238.086 68.93 237.344 69.196 236.42 69.196C235.398 69.196 234.586 68.846 233.984 68.16C233.354 67.46 233.046 66.522 233.046 65.374C233.046 64.31 233.34 63.428 233.942 62.7C234.558 61.944 235.37 61.566 236.392 61.566ZM236.406 62.294C235.692 62.294 235.118 62.532 234.684 63.036C234.25 63.526 233.998 64.156 233.928 64.94H238.912C238.772 63.176 237.932 62.294 236.406 62.294ZM248.864 61.566C249.872 61.566 250.628 61.832 251.118 62.392C251.538 62.854 251.762 63.498 251.762 64.338V69H250.964V67.614C250.67 68.034 250.278 68.398 249.802 68.678C249.214 69.014 248.584 69.196 247.898 69.196C247.198 69.196 246.624 69.014 246.204 68.664C245.742 68.3 245.518 67.81 245.518 67.222C245.518 66.382 245.854 65.766 246.54 65.374C247.128 64.996 247.982 64.8 249.074 64.8L250.922 64.772V64.338C250.922 62.966 250.222 62.28 248.822 62.28C248.234 62.28 247.758 62.392 247.38 62.644C246.96 62.91 246.694 63.288 246.582 63.792L245.756 63.736C245.896 63.008 246.26 62.448 246.848 62.084C247.366 61.734 248.038 61.566 248.864 61.566ZM250.922 65.43L249.116 65.458C247.282 65.472 246.372 66.06 246.372 67.208C246.372 67.6 246.526 67.908 246.834 68.146C247.142 68.384 247.562 68.51 248.066 68.51C248.794 68.51 249.466 68.258 250.054 67.754C250.628 67.278 250.922 66.746 250.922 66.186V65.43ZM253.523 61.762H254.363V66.186C254.363 66.942 254.517 67.502 254.839 67.88C255.175 68.272 255.693 68.468 256.393 68.468C256.953 68.468 257.443 68.244 257.863 67.824C258.283 67.404 258.521 66.844 258.577 66.158V61.762H259.417V69H258.577V67.782C258.017 68.72 257.205 69.196 256.169 69.196C254.405 69.196 253.523 68.202 253.523 66.228V61.762ZM262.929 59.424V61.762H264.819V62.49H262.929V67.39C262.929 67.698 262.985 67.936 263.097 68.076C263.209 68.202 263.419 68.272 263.727 68.272H264.637V69H263.615C263.055 69 262.649 68.846 262.411 68.566C262.187 68.314 262.089 67.922 262.089 67.39V62.49H260.549V61.762H262.089V59.774L262.929 59.424ZM269.251 61.566C270.315 61.566 271.169 61.944 271.813 62.714C272.401 63.428 272.695 64.324 272.695 65.388C272.695 66.452 272.401 67.334 271.813 68.048C271.169 68.804 270.315 69.196 269.251 69.196C268.187 69.196 267.333 68.804 266.689 68.048C266.101 67.334 265.807 66.452 265.807 65.388C265.807 64.324 266.101 63.428 266.703 62.714C267.333 61.944 268.187 61.566 269.251 61.566ZM269.251 62.294C268.425 62.294 267.781 62.602 267.305 63.246C266.871 63.806 266.661 64.52 266.661 65.388C266.661 66.242 266.871 66.956 267.305 67.516C267.781 68.146 268.425 68.468 269.251 68.468C270.077 68.468 270.735 68.146 271.211 67.516C271.631 66.942 271.855 66.228 271.855 65.388C271.855 64.52 271.631 63.806 271.211 63.246C270.735 62.602 270.077 62.294 269.251 62.294ZM277.121 61.566C278.269 61.566 279.025 62.056 279.389 63.05C279.641 62.56 279.963 62.196 280.355 61.944C280.719 61.692 281.167 61.566 281.671 61.566C282.427 61.566 283.043 61.804 283.491 62.28C283.925 62.756 284.149 63.414 284.149 64.268V69H283.309V64.38C283.309 63.694 283.169 63.176 282.889 62.84C282.581 62.476 282.091 62.294 281.447 62.294C280.915 62.294 280.481 62.49 280.131 62.896C279.767 63.288 279.599 63.778 279.599 64.394V69H278.745V64.38C278.745 62.98 278.143 62.294 276.939 62.294C276.393 62.294 275.945 62.504 275.581 62.952C275.203 63.386 275.021 63.918 275.021 64.548V69H274.181V61.762H275.021V62.854C275.539 61.986 276.239 61.566 277.121 61.566ZM288.977 61.566C289.985 61.566 290.741 61.832 291.231 62.392C291.651 62.854 291.875 63.498 291.875 64.338V69H291.077V67.614C290.783 68.034 290.391 68.398 289.915 68.678C289.327 69.014 288.697 69.196 288.011 69.196C287.311 69.196 286.737 69.014 286.317 68.664C285.855 68.3 285.631 67.81 285.631 67.222C285.631 66.382 285.967 65.766 286.653 65.374C287.241 64.996 288.095 64.8 289.187 64.8L291.035 64.772V64.338C291.035 62.966 290.335 62.28 288.935 62.28C288.347 62.28 287.871 62.392 287.493 62.644C287.073 62.91 286.807 63.288 286.695 63.792L285.869 63.736C286.009 63.008 286.373 62.448 286.961 62.084C287.479 61.734 288.151 61.566 288.977 61.566ZM291.035 65.43L289.229 65.458C287.395 65.472 286.485 66.06 286.485 67.208C286.485 67.6 286.639 67.908 286.947 68.146C287.255 68.384 287.675 68.51 288.179 68.51C288.907 68.51 289.579 68.258 290.167 67.754C290.741 67.278 291.035 66.746 291.035 66.186V65.43ZM295.386 59.424V61.762H297.276V62.49H295.386V67.39C295.386 67.698 295.442 67.936 295.554 68.076C295.666 68.202 295.876 68.272 296.184 68.272H297.094V69H296.072C295.512 69 295.106 68.846 294.868 68.566C294.644 68.314 294.546 67.922 294.546 67.39V62.49H293.006V61.762H294.546V59.774L295.386 59.424ZM299.384 59.158C299.58 59.158 299.748 59.228 299.888 59.368C300.028 59.48 300.098 59.648 300.098 59.858C300.098 60.054 300.014 60.222 299.874 60.362C299.734 60.488 299.58 60.558 299.384 60.558C299.174 60.558 299.006 60.488 298.88 60.362C298.74 60.222 298.67 60.054 298.67 59.858C298.67 59.648 298.74 59.48 298.88 59.368C299.006 59.228 299.174 59.158 299.384 59.158ZM298.964 61.762H299.804V69H298.964V61.762ZM305.041 61.566C305.909 61.566 306.609 61.776 307.155 62.196C307.701 62.616 308.037 63.26 308.149 64.128H307.309C307.211 63.512 306.973 63.064 306.581 62.756C306.189 62.448 305.671 62.294 305.041 62.294C304.285 62.294 303.669 62.588 303.221 63.176C302.773 63.736 302.563 64.492 302.563 65.43C302.563 66.354 302.773 67.096 303.193 67.642C303.613 68.188 304.229 68.468 305.027 68.468C306.371 68.468 307.141 67.782 307.351 66.41H308.177C308.037 67.32 307.687 68.02 307.141 68.496C306.609 68.958 305.895 69.196 305.027 69.196C303.963 69.196 303.123 68.832 302.535 68.104C301.975 67.432 301.709 66.536 301.709 65.43C301.709 64.338 301.989 63.428 302.563 62.714C303.165 61.944 303.991 61.566 305.041 61.566ZM312.589 61.566C313.597 61.566 314.353 61.832 314.843 62.392C315.263 62.854 315.487 63.498 315.487 64.338V69H314.689V67.614C314.395 68.034 314.003 68.398 313.527 68.678C312.939 69.014 312.309 69.196 311.623 69.196C310.923 69.196 310.349 69.014 309.929 68.664C309.467 68.3 309.243 67.81 309.243 67.222C309.243 66.382 309.579 65.766 310.265 65.374C310.853 64.996 311.707 64.8 312.799 64.8L314.647 64.772V64.338C314.647 62.966 313.947 62.28 312.547 62.28C311.959 62.28 311.483 62.392 311.105 62.644C310.685 62.91 310.419 63.288 310.307 63.792L309.481 63.736C309.621 63.008 309.985 62.448 310.573 62.084C311.091 61.734 311.763 61.566 312.589 61.566ZM314.647 65.43L312.841 65.458C311.007 65.472 310.097 66.06 310.097 67.208C310.097 67.6 310.251 67.908 310.559 68.146C310.867 68.384 311.287 68.51 311.791 68.51C312.519 68.51 313.191 68.258 313.779 67.754C314.353 67.278 314.647 66.746 314.647 66.186V65.43ZM317.513 58.808H318.353V69H317.513V58.808ZM320.644 58.808H321.484V69H320.644V58.808ZM322.697 61.762H323.621L325.987 67.796L328.325 61.762H329.249L325.259 71.772H324.349L325.567 68.818L322.697 61.762ZM335.697 59.158C335.893 59.158 336.061 59.228 336.201 59.368C336.341 59.48 336.411 59.648 336.411 59.858C336.411 60.054 336.327 60.222 336.187 60.362C336.047 60.488 335.893 60.558 335.697 60.558C335.487 60.558 335.319 60.488 335.193 60.362C335.053 60.222 334.983 60.054 334.983 59.858C334.983 59.648 335.053 59.48 335.193 59.368C335.319 59.228 335.487 59.158 335.697 59.158ZM335.277 61.762H336.117V69H335.277V61.762ZM341.494 61.566C343.286 61.566 344.182 62.56 344.182 64.548V69H343.342V64.604C343.342 63.064 342.656 62.294 341.284 62.294C340.696 62.294 340.22 62.504 339.828 62.924C339.408 63.344 339.184 63.918 339.142 64.632V69H338.302V61.762H339.142V62.952C339.394 62.518 339.716 62.182 340.122 61.93C340.528 61.678 340.99 61.566 341.494 61.566ZM348.997 61.566C349.865 61.566 350.565 61.776 351.111 62.196C351.657 62.616 351.993 63.26 352.105 64.128H351.265C351.167 63.512 350.929 63.064 350.537 62.756C350.145 62.448 349.627 62.294 348.997 62.294C348.241 62.294 347.625 62.588 347.177 63.176C346.729 63.736 346.519 64.492 346.519 65.43C346.519 66.354 346.729 67.096 347.149 67.642C347.569 68.188 348.185 68.468 348.983 68.468C350.327 68.468 351.097 67.782 351.307 66.41H352.132C351.993 67.32 351.643 68.02 351.097 68.496C350.565 68.958 349.851 69.196 348.983 69.196C347.919 69.196 347.079 68.832 346.491 68.104C345.931 67.432 345.665 66.536 345.665 65.43C345.665 64.338 345.945 63.428 346.519 62.714C347.12 61.944 347.947 61.566 348.997 61.566ZM353.744 58.808H354.584V69H353.744V58.808ZM356.609 61.762H357.449V66.186C357.449 66.942 357.603 67.502 357.925 67.88C358.261 68.272 358.779 68.468 359.479 68.468C360.039 68.468 360.529 68.244 360.949 67.824C361.369 67.404 361.607 66.844 361.663 66.158V61.762H362.503V69H361.663V67.782C361.103 68.72 360.291 69.196 359.255 69.196C357.491 69.196 356.609 68.202 356.609 66.228V61.762ZM369.725 58.808H370.565V69H369.767V67.572C369.263 68.65 368.423 69.196 367.233 69.196C366.183 69.196 365.371 68.804 364.783 68.048C364.251 67.348 363.985 66.452 363.985 65.374C363.985 64.31 364.251 63.428 364.783 62.728C365.371 61.944 366.169 61.566 367.191 61.566C368.339 61.566 369.193 62.14 369.725 63.288V58.808ZM367.345 62.28C366.519 62.28 365.889 62.588 365.441 63.204C365.035 63.736 364.839 64.464 364.839 65.374C364.839 66.284 365.035 67.012 365.427 67.558C365.861 68.174 366.491 68.482 367.317 68.482C368.101 68.482 368.717 68.174 369.151 67.586C369.543 67.04 369.753 66.34 369.753 65.486V65.318C369.753 64.422 369.529 63.708 369.109 63.148C368.661 62.56 368.073 62.28 367.345 62.28ZM375.257 61.566C376.405 61.566 377.259 61.944 377.833 62.728C378.337 63.414 378.617 64.38 378.659 65.626H372.779C372.821 66.508 373.059 67.208 373.493 67.712C373.941 68.216 374.529 68.468 375.285 68.468C375.943 68.468 376.475 68.286 376.881 67.95C377.217 67.656 377.469 67.236 377.651 66.676H378.505C378.337 67.376 378.015 67.95 377.539 68.398C376.951 68.93 376.209 69.196 375.285 69.196C374.263 69.196 373.451 68.846 372.849 68.16C372.219 67.46 371.911 66.522 371.911 65.374C371.911 64.31 372.205 63.428 372.807 62.7C373.423 61.944 374.235 61.566 375.257 61.566ZM375.271 62.294C374.557 62.294 373.983 62.532 373.549 63.036C373.115 63.526 372.863 64.156 372.793 64.94H377.777C377.637 63.176 376.797 62.294 375.271 62.294ZM385.461 58.808H386.301V69H385.503V67.572C384.999 68.65 384.159 69.196 382.969 69.196C381.919 69.196 381.107 68.804 380.519 68.048C379.987 67.348 379.721 66.452 379.721 65.374C379.721 64.31 379.987 63.428 380.519 62.728C381.107 61.944 381.905 61.566 382.927 61.566C384.075 61.566 384.929 62.14 385.461 63.288V58.808ZM383.081 62.28C382.255 62.28 381.625 62.588 381.177 63.204C380.771 63.736 380.575 64.464 380.575 65.374C380.575 66.284 380.771 67.012 381.163 67.558C381.597 68.174 382.227 68.482 383.053 68.482C383.837 68.482 384.453 68.174 384.887 67.586C385.279 67.04 385.489 66.34 385.489 65.486V65.318C385.489 64.422 385.265 63.708 384.845 63.148C384.397 62.56 383.809 62.28 383.081 62.28ZM393.57 59.158C393.766 59.158 393.934 59.228 394.074 59.368C394.214 59.48 394.284 59.648 394.284 59.858C394.284 60.054 394.2 60.222 394.06 60.362C393.92 60.488 393.766 60.558 393.57 60.558C393.36 60.558 393.192 60.488 393.066 60.362C392.926 60.222 392.856 60.054 392.856 59.858C392.856 59.648 392.926 59.48 393.066 59.368C393.192 59.228 393.36 59.158 393.57 59.158ZM393.15 61.762H393.99V69H393.15V61.762ZM399.367 61.566C401.159 61.566 402.055 62.56 402.055 64.548V69H401.215V64.604C401.215 63.064 400.529 62.294 399.157 62.294C398.569 62.294 398.093 62.504 397.701 62.924C397.281 63.344 397.057 63.918 397.015 64.632V69H396.175V61.762H397.015V62.952C397.267 62.518 397.589 62.182 397.995 61.93C398.401 61.678 398.863 61.566 399.367 61.566ZM410.23 59.424V61.762H412.12V62.49H410.23V67.39C410.23 67.698 410.286 67.936 410.398 68.076C410.51 68.202 410.72 68.272 411.028 68.272H411.938V69H410.916C410.356 69 409.95 68.846 409.712 68.566C409.488 68.314 409.39 67.922 409.39 67.39V62.49H407.85V61.762H409.39V59.774L410.23 59.424ZM413.388 58.808H414.242V63.078C414.494 62.588 414.83 62.21 415.25 61.944C415.656 61.692 416.118 61.566 416.622 61.566C417.448 61.566 418.092 61.804 418.554 62.294C419.016 62.784 419.254 63.484 419.254 64.38V69H418.414V64.492C418.414 63.792 418.232 63.246 417.882 62.854C417.518 62.476 417.028 62.294 416.384 62.294C415.782 62.294 415.278 62.532 414.858 63.022C414.438 63.498 414.242 64.1 414.242 64.814V69H413.388V58.808ZM423.943 61.566C425.091 61.566 425.945 61.944 426.519 62.728C427.023 63.414 427.303 64.38 427.345 65.626H421.465C421.507 66.508 421.745 67.208 422.179 67.712C422.627 68.216 423.215 68.468 423.971 68.468C424.629 68.468 425.161 68.286 425.567 67.95C425.903 67.656 426.155 67.236 426.337 66.676H427.191C427.023 67.376 426.701 67.95 426.225 68.398C425.637 68.93 424.895 69.196 423.971 69.196C422.949 69.196 422.137 68.846 421.535 68.16C420.905 67.46 420.597 66.522 420.597 65.374C420.597 64.31 420.891 63.428 421.493 62.7C422.109 61.944 422.921 61.566 423.943 61.566ZM423.957 62.294C423.243 62.294 422.669 62.532 422.235 63.036C421.801 63.526 421.549 64.156 421.479 64.94H426.463C426.323 63.176 425.483 62.294 423.957 62.294ZM435.813 61.566C437.521 61.566 438.487 62.308 438.697 63.792H437.871C437.773 63.288 437.577 62.924 437.269 62.686C436.933 62.42 436.443 62.294 435.799 62.294C435.267 62.294 434.833 62.392 434.497 62.616C434.161 62.84 433.993 63.12 433.993 63.484C433.993 63.848 434.203 64.142 434.637 64.366C434.917 64.506 435.421 64.674 436.163 64.87C437.045 65.094 437.675 65.318 438.039 65.542C438.613 65.892 438.907 66.382 438.907 66.998C438.907 68.454 437.927 69.196 435.967 69.196C434.105 69.196 433.097 68.37 432.929 66.718H433.755C433.839 67.348 434.063 67.81 434.427 68.09C434.763 68.342 435.267 68.468 435.939 68.468C437.339 68.468 438.039 67.992 438.039 67.04C438.039 66.606 437.801 66.27 437.325 66.032C437.073 65.906 436.541 65.738 435.715 65.528C434.875 65.304 434.287 65.094 433.951 64.884C433.391 64.548 433.125 64.086 433.125 63.498C433.125 62.91 433.377 62.448 433.909 62.084C434.413 61.734 435.057 61.566 435.813 61.566ZM442.003 59.424V61.762H443.893V62.49H442.003V67.39C442.003 67.698 442.059 67.936 442.171 68.076C442.283 68.202 442.493 68.272 442.801 68.272H443.711V69H442.689C442.129 69 441.723 68.846 441.485 68.566C441.261 68.314 441.163 67.922 441.163 67.39V62.49H439.623V61.762H441.163V59.774L442.003 59.424ZM448.227 61.566C449.235 61.566 449.991 61.832 450.481 62.392C450.901 62.854 451.125 63.498 451.125 64.338V69H450.327V67.614C450.033 68.034 449.641 68.398 449.165 68.678C448.577 69.014 447.947 69.196 447.261 69.196C446.561 69.196 445.987 69.014 445.567 68.664C445.105 68.3 444.881 67.81 444.881 67.222C444.881 66.382 445.217 65.766 445.903 65.374C446.491 64.996 447.345 64.8 448.437 64.8L450.285 64.772V64.338C450.285 62.966 449.585 62.28 448.185 62.28C447.597 62.28 447.121 62.392 446.743 62.644C446.323 62.91 446.057 63.288 445.945 63.792L445.119 63.736C445.259 63.008 445.623 62.448 446.211 62.084C446.729 61.734 447.401 61.566 448.227 61.566ZM450.285 65.43L448.479 65.458C446.645 65.472 445.735 66.06 445.735 67.208C445.735 67.6 445.889 67.908 446.197 68.146C446.505 68.384 446.925 68.51 447.429 68.51C448.157 68.51 448.829 68.258 449.417 67.754C449.991 67.278 450.285 66.746 450.285 66.186V65.43ZM454.636 59.424V61.762H456.526V62.49H454.636V67.39C454.636 67.698 454.692 67.936 454.804 68.076C454.916 68.202 455.126 68.272 455.434 68.272H456.344V69H455.322C454.762 69 454.356 68.846 454.118 68.566C453.894 68.314 453.796 67.922 453.796 67.39V62.49H452.256V61.762H453.796V59.774L454.636 59.424ZM458.634 59.158C458.83 59.158 458.998 59.228 459.138 59.368C459.278 59.48 459.348 59.648 459.348 59.858C459.348 60.054 459.264 60.222 459.124 60.362C458.984 60.488 458.83 60.558 458.634 60.558C458.424 60.558 458.256 60.488 458.13 60.362C457.99 60.222 457.92 60.054 457.92 59.858C457.92 59.648 457.99 59.48 458.13 59.368C458.256 59.228 458.424 59.158 458.634 59.158ZM458.214 61.762H459.054V69H458.214V61.762ZM463.703 61.566C465.411 61.566 466.377 62.308 466.587 63.792H465.761C465.663 63.288 465.467 62.924 465.159 62.686C464.823 62.42 464.333 62.294 463.689 62.294C463.157 62.294 462.723 62.392 462.387 62.616C462.051 62.84 461.883 63.12 461.883 63.484C461.883 63.848 462.093 64.142 462.527 64.366C462.807 64.506 463.311 64.674 464.053 64.87C464.935 65.094 465.565 65.318 465.929 65.542C466.503 65.892 466.797 66.382 466.797 66.998C466.797 68.454 465.817 69.196 463.857 69.196C461.995 69.196 460.987 68.37 460.819 66.718H461.645C461.729 67.348 461.953 67.81 462.317 68.09C462.653 68.342 463.157 68.468 463.829 68.468C465.229 68.468 465.929 67.992 465.929 67.04C465.929 66.606 465.691 66.27 465.215 66.032C464.963 65.906 464.431 65.738 463.605 65.528C462.765 65.304 462.177 65.094 461.841 64.884C461.281 64.548 461.015 64.086 461.015 63.498C461.015 62.91 461.267 62.448 461.799 62.084C462.303 61.734 462.947 61.566 463.703 61.566ZM469.894 59.424V61.762H471.784V62.49H469.894V67.39C469.894 67.698 469.95 67.936 470.062 68.076C470.174 68.202 470.384 68.272 470.692 68.272H471.602V69H470.58C470.02 69 469.614 68.846 469.376 68.566C469.152 68.314 469.054 67.922 469.054 67.39V62.49H467.514V61.762H469.054V59.774L469.894 59.424ZM473.892 59.158C474.088 59.158 474.256 59.228 474.396 59.368C474.536 59.48 474.606 59.648 474.606 59.858C474.606 60.054 474.522 60.222 474.382 60.362C474.242 60.488 474.088 60.558 473.892 60.558C473.682 60.558 473.514 60.488 473.388 60.362C473.248 60.222 473.178 60.054 473.178 59.858C473.178 59.648 473.248 59.48 473.388 59.368C473.514 59.228 473.682 59.158 473.892 59.158ZM473.472 61.762H474.312V69H473.472V61.762ZM479.549 61.566C480.417 61.566 481.117 61.776 481.663 62.196C482.209 62.616 482.545 63.26 482.657 64.128H481.817C481.719 63.512 481.481 63.064 481.089 62.756C480.697 62.448 480.179 62.294 479.549 62.294C478.793 62.294 478.177 62.588 477.729 63.176C477.281 63.736 477.071 64.492 477.071 65.43C477.071 66.354 477.281 67.096 477.701 67.642C478.121 68.188 478.737 68.468 479.535 68.468C480.879 68.468 481.649 67.782 481.859 66.41H482.685C482.545 67.32 482.195 68.02 481.649 68.496C481.117 68.958 480.403 69.196 479.535 69.196C478.471 69.196 477.631 68.832 477.043 68.104C476.483 67.432 476.217 66.536 476.217 65.43C476.217 64.338 476.497 63.428 477.071 62.714C477.673 61.944 478.499 61.566 479.549 61.566ZM486.494 61.566C488.202 61.566 489.168 62.308 489.378 63.792H488.552C488.454 63.288 488.258 62.924 487.95 62.686C487.614 62.42 487.124 62.294 486.48 62.294C485.948 62.294 485.514 62.392 485.178 62.616C484.842 62.84 484.674 63.12 484.674 63.484C484.674 63.848 484.884 64.142 485.318 64.366C485.598 64.506 486.102 64.674 486.844 64.87C487.726 65.094 488.356 65.318 488.72 65.542C489.294 65.892 489.588 66.382 489.588 66.998C489.588 68.454 488.608 69.196 486.648 69.196C484.786 69.196 483.778 68.37 483.61 66.718H484.436C484.52 67.348 484.744 67.81 485.108 68.09C485.444 68.342 485.948 68.468 486.62 68.468C488.02 68.468 488.72 67.992 488.72 67.04C488.72 66.606 488.482 66.27 488.006 66.032C487.754 65.906 487.222 65.738 486.396 65.528C485.556 65.304 484.968 65.094 484.632 64.884C484.072 64.548 483.806 64.086 483.806 63.498C483.806 62.91 484.058 62.448 484.59 62.084C485.094 61.734 485.738 61.566 486.494 61.566ZM494.785 61.762H495.723L497.683 67.922L499.503 61.762H500.315L502.135 67.922L504.109 61.762H505.033L502.555 69H501.743L499.923 62.854L498.075 69H497.277L494.785 61.762ZM505.987 58.808H506.841V63.078C507.093 62.588 507.429 62.21 507.849 61.944C508.255 61.692 508.717 61.566 509.221 61.566C510.047 61.566 510.691 61.804 511.153 62.294C511.615 62.784 511.853 63.484 511.853 64.38V69H511.013V64.492C511.013 63.792 510.831 63.246 510.481 62.854C510.117 62.476 509.627 62.294 508.983 62.294C508.381 62.294 507.877 62.532 507.457 63.022C507.037 63.498 506.841 64.1 506.841 64.814V69H505.987V58.808ZM516.542 61.566C517.69 61.566 518.544 61.944 519.118 62.728C519.622 63.414 519.902 64.38 519.944 65.626H514.064C514.106 66.508 514.344 67.208 514.778 67.712C515.226 68.216 515.814 68.468 516.57 68.468C517.228 68.468 517.76 68.286 518.166 67.95C518.502 67.656 518.754 67.236 518.936 66.676H519.79C519.622 67.376 519.3 67.95 518.824 68.398C518.236 68.93 517.494 69.196 516.57 69.196C515.548 69.196 514.736 68.846 514.134 68.16C513.504 67.46 513.196 66.522 513.196 65.374C513.196 64.31 513.49 63.428 514.092 62.7C514.708 61.944 515.52 61.566 516.542 61.566ZM516.556 62.294C515.842 62.294 515.268 62.532 514.834 63.036C514.4 63.526 514.148 64.156 514.078 64.94H519.062C518.922 63.176 518.082 62.294 516.556 62.294ZM524.478 61.566C526.27 61.566 527.166 62.56 527.166 64.548V69H526.326V64.604C526.326 63.064 525.64 62.294 524.268 62.294C523.68 62.294 523.204 62.504 522.812 62.924C522.392 63.344 522.168 63.918 522.126 64.632V69H521.286V61.762H522.126V62.952C522.378 62.518 522.7 62.182 523.106 61.93C523.512 61.678 523.974 61.566 524.478 61.566ZM535.341 59.424V61.762H537.231V62.49H535.341V67.39C535.341 67.698 535.397 67.936 535.509 68.076C535.621 68.202 535.831 68.272 536.139 68.272H537.049V69H536.027C535.467 69 535.061 68.846 534.823 68.566C534.599 68.314 534.501 67.922 534.501 67.39V62.49H532.961V61.762H534.501V59.774L535.341 59.424ZM541.537 61.566C541.957 61.566 542.307 61.608 542.587 61.72V62.574C542.209 62.462 541.845 62.42 541.481 62.42C540.837 62.42 540.305 62.7 539.913 63.288C539.521 63.82 539.339 64.45 539.339 65.178V69H538.499V61.762H539.339V63.148C539.535 62.7 539.801 62.336 540.137 62.07C540.529 61.734 541.005 61.566 541.537 61.566ZM546.61 61.566C547.618 61.566 548.374 61.832 548.864 62.392C549.284 62.854 549.508 63.498 549.508 64.338V69H548.71V67.614C548.416 68.034 548.024 68.398 547.548 68.678C546.96 69.014 546.33 69.196 545.644 69.196C544.944 69.196 544.37 69.014 543.95 68.664C543.488 68.3 543.264 67.81 543.264 67.222C543.264 66.382 543.6 65.766 544.286 65.374C544.874 64.996 545.728 64.8 546.82 64.8L548.668 64.772V64.338C548.668 62.966 547.968 62.28 546.568 62.28C545.98 62.28 545.504 62.392 545.126 62.644C544.706 62.91 544.44 63.288 544.328 63.792L543.502 63.736C543.642 63.008 544.006 62.448 544.594 62.084C545.112 61.734 545.784 61.566 546.61 61.566ZM548.668 65.43L546.862 65.458C545.028 65.472 544.118 66.06 544.118 67.208C544.118 67.6 544.272 67.908 544.58 68.146C544.888 68.384 545.308 68.51 545.812 68.51C546.54 68.51 547.212 68.258 547.8 67.754C548.374 67.278 548.668 66.746 548.668 66.186V65.43ZM556.729 58.808H557.569V69H556.771V67.572C556.267 68.65 555.427 69.196 554.237 69.196C553.187 69.196 552.375 68.804 551.787 68.048C551.255 67.348 550.989 66.452 550.989 65.374C550.989 64.31 551.255 63.428 551.787 62.728C552.375 61.944 553.173 61.566 554.195 61.566C555.343 61.566 556.197 62.14 556.729 63.288V58.808ZM554.349 62.28C553.523 62.28 552.893 62.588 552.445 63.204C552.039 63.736 551.843 64.464 551.843 65.374C551.843 66.284 552.039 67.012 552.431 67.558C552.865 68.174 553.495 68.482 554.321 68.482C555.105 68.482 555.721 68.174 556.155 67.586C556.547 67.04 556.757 66.34 556.757 65.486V65.318C556.757 64.422 556.533 63.708 556.113 63.148C555.665 62.56 555.077 62.28 554.349 62.28ZM560.175 59.158C560.371 59.158 560.539 59.228 560.679 59.368C560.819 59.48 560.889 59.648 560.889 59.858C560.889 60.054 560.805 60.222 560.665 60.362C560.525 60.488 560.371 60.558 560.175 60.558C559.965 60.558 559.797 60.488 559.671 60.362C559.531 60.222 559.461 60.054 559.461 59.858C559.461 59.648 559.531 59.48 559.671 59.368C559.797 59.228 559.965 59.158 560.175 59.158ZM559.755 61.762H560.595V69H559.755V61.762ZM565.972 61.566C567.764 61.566 568.66 62.56 568.66 64.548V69H567.82V64.604C567.82 63.064 567.134 62.294 565.762 62.294C565.174 62.294 564.698 62.504 564.306 62.924C563.886 63.344 563.662 63.918 563.62 64.632V69H562.78V61.762H563.62V62.952C563.872 62.518 564.194 62.182 564.6 61.93C565.006 61.678 565.468 61.566 565.972 61.566ZM573.405 61.566C574.595 61.566 575.463 62.112 575.995 63.218V61.762H576.835V68.468C576.835 70.792 575.743 71.968 573.587 71.968C572.635 71.968 571.907 71.758 571.389 71.352C570.899 70.96 570.591 70.386 570.465 69.616H571.305C571.403 70.148 571.627 70.554 571.977 70.82C572.341 71.114 572.873 71.268 573.587 71.268C575.183 71.268 575.995 70.358 575.995 68.566V67.18C575.463 68.272 574.595 68.832 573.405 68.832C572.397 68.832 571.585 68.468 570.983 67.754C570.423 67.082 570.143 66.242 570.143 65.206C570.143 64.184 570.423 63.33 570.983 62.658C571.585 61.93 572.397 61.566 573.405 61.566ZM573.503 62.28C572.705 62.28 572.089 62.56 571.641 63.148C571.207 63.68 570.997 64.366 570.997 65.206C570.997 66.018 571.193 66.69 571.599 67.222C572.033 67.81 572.663 68.104 573.489 68.104C574.287 68.104 574.917 67.824 575.365 67.264C575.785 66.732 575.995 66.046 575.995 65.206C575.995 64.366 575.785 63.68 575.365 63.148C574.917 62.56 574.287 62.28 573.503 62.28ZM586.271 58.808V57.674H586.845V58.822C587.643 58.864 588.301 59.116 588.819 59.564C589.379 60.04 589.715 60.768 589.855 61.72H589.015C588.903 60.992 588.623 60.446 588.203 60.082C587.839 59.774 587.391 59.606 586.845 59.564V63.582L588.511 64.184C589.519 64.688 590.023 65.402 590.023 66.34C590.023 67.32 589.687 68.062 589.029 68.552C588.497 68.944 587.769 69.154 586.845 69.196V70.414H586.271V69.182C585.347 69.126 584.633 68.832 584.129 68.286C583.597 67.726 583.275 66.9 583.163 65.808H584.017C584.115 66.704 584.367 67.362 584.759 67.782C585.109 68.16 585.613 68.37 586.271 68.426V64.198L584.843 63.694C583.835 63.19 583.345 62.476 583.345 61.524C583.345 60.628 583.653 59.942 584.283 59.466C584.787 59.06 585.459 58.836 586.271 58.808ZM586.845 64.408V68.44C587.559 68.398 588.119 68.216 588.525 67.894C588.945 67.53 589.155 67.026 589.155 66.368C589.155 65.64 588.651 65.08 587.657 64.688L586.845 64.408ZM586.271 63.372V59.564C585.683 59.592 585.221 59.732 584.871 60.012C584.423 60.348 584.199 60.852 584.199 61.524C584.199 62.21 584.703 62.756 585.711 63.162L586.271 63.372ZM591.137 59.004H592.201L595.113 63.106L598.039 59.004H599.103L595.631 63.806L599.397 69H598.319L595.113 64.478L591.907 69H590.843L594.595 63.806L591.137 59.004ZM600.491 59.004H604.551C606.763 59.004 607.883 59.956 607.883 61.874C607.883 63.792 606.763 64.758 604.537 64.758H601.345V69H600.491V59.004ZM601.345 59.76V64.002H604.495C605.363 64.002 605.993 63.82 606.413 63.47C606.805 63.12 607.015 62.588 607.015 61.874C607.015 61.16 606.805 60.642 606.413 60.306C605.993 59.942 605.349 59.76 604.495 59.76H601.345ZM609.49 59.004H610.344V69H609.49V59.004ZM612.508 59.004H613.474L619.522 67.67H619.564V59.004H620.432V69H619.48L613.404 60.264H613.362V69H612.508V59.004ZM632.457 58.808H633.297V69H632.499V67.572C631.995 68.65 631.155 69.196 629.965 69.196C628.915 69.196 628.103 68.804 627.515 68.048C626.983 67.348 626.717 66.452 626.717 65.374C626.717 64.31 626.983 63.428 627.515 62.728C628.103 61.944 628.901 61.566 629.923 61.566C631.071 61.566 631.925 62.14 632.457 63.288V58.808ZM630.077 62.28C629.251 62.28 628.621 62.588 628.173 63.204C627.767 63.736 627.571 64.464 627.571 65.374C627.571 66.284 627.767 67.012 628.159 67.558C628.593 68.174 629.223 68.482 630.049 68.482C630.833 68.482 631.449 68.174 631.883 67.586C632.275 67.04 632.485 66.34 632.485 65.486V65.318C632.485 64.422 632.261 63.708 631.841 63.148C631.393 62.56 630.805 62.28 630.077 62.28ZM635.064 61.762H635.904V66.186C635.904 66.942 636.058 67.502 636.38 67.88C636.716 68.272 637.234 68.468 637.934 68.468C638.494 68.468 638.984 68.244 639.404 67.824C639.824 67.404 640.062 66.844 640.118 66.158V61.762H640.958V69H640.118V67.782C639.558 68.72 638.746 69.196 637.71 69.196C635.946 69.196 635.064 68.202 635.064 66.228V61.762ZM645.758 61.566C646.178 61.566 646.528 61.608 646.808 61.72V62.574C646.43 62.462 646.066 62.42 645.702 62.42C645.058 62.42 644.526 62.7 644.134 63.288C643.742 63.82 643.56 64.45 643.56 65.178V69H642.72V61.762H643.56V63.148C643.756 62.7 644.022 62.336 644.358 62.07C644.75 61.734 645.226 61.566 645.758 61.566ZM648.605 59.158C648.801 59.158 648.969 59.228 649.109 59.368C649.249 59.48 649.319 59.648 649.319 59.858C649.319 60.054 649.235 60.222 649.095 60.362C648.955 60.488 648.801 60.558 648.605 60.558C648.395 60.558 648.227 60.488 648.101 60.362C647.961 60.222 647.891 60.054 647.891 59.858C647.891 59.648 647.961 59.48 648.101 59.368C648.227 59.228 648.395 59.158 648.605 59.158ZM648.185 61.762H649.025V69H648.185V61.762ZM654.402 61.566C656.194 61.566 657.09 62.56 657.09 64.548V69H656.25V64.604C656.25 63.064 655.564 62.294 654.192 62.294C653.604 62.294 653.128 62.504 652.736 62.924C652.316 63.344 652.092 63.918 652.05 64.632V69H651.21V61.762H652.05V62.952C652.302 62.518 652.624 62.182 653.03 61.93C653.436 61.678 653.898 61.566 654.402 61.566ZM661.835 61.566C663.025 61.566 663.893 62.112 664.425 63.218V61.762H665.265V68.468C665.265 70.792 664.173 71.968 662.017 71.968C661.065 71.968 660.337 71.758 659.819 71.352C659.329 70.96 659.021 70.386 658.895 69.616H659.735C659.833 70.148 660.057 70.554 660.407 70.82C660.771 71.114 661.303 71.268 662.017 71.268C663.613 71.268 664.425 70.358 664.425 68.566V67.18C663.893 68.272 663.025 68.832 661.835 68.832C660.827 68.832 660.015 68.468 659.413 67.754C658.853 67.082 658.573 66.242 658.573 65.206C658.573 64.184 658.853 63.33 659.413 62.658C660.015 61.93 660.827 61.566 661.835 61.566ZM661.933 62.28C661.135 62.28 660.519 62.56 660.071 63.148C659.637 63.68 659.427 64.366 659.427 65.206C659.427 66.018 659.623 66.69 660.029 67.222C660.463 67.81 661.093 68.104 661.919 68.104C662.717 68.104 663.347 67.824 663.795 67.264C664.215 66.732 664.425 66.046 664.425 65.206C664.425 64.366 664.215 63.68 663.795 63.148C663.347 62.56 662.717 62.28 661.933 62.28ZM673.441 59.424V61.762H675.331V62.49H673.441V67.39C673.441 67.698 673.497 67.936 673.609 68.076C673.721 68.202 673.931 68.272 674.239 68.272H675.149V69H674.127C673.567 69 673.161 68.846 672.923 68.566C672.699 68.314 672.601 67.922 672.601 67.39V62.49H671.061V61.762H672.601V59.774L673.441 59.424ZM676.599 58.808H677.453V63.078C677.705 62.588 678.041 62.21 678.461 61.944C678.867 61.692 679.329 61.566 679.833 61.566C680.659 61.566 681.303 61.804 681.765 62.294C682.227 62.784 682.465 63.484 682.465 64.38V69H681.625V64.492C681.625 63.792 681.443 63.246 681.093 62.854C680.729 62.476 680.239 62.294 679.595 62.294C678.993 62.294 678.489 62.532 678.069 63.022C677.649 63.498 677.453 64.1 677.453 64.814V69H676.599V58.808ZM687.154 61.566C688.302 61.566 689.156 61.944 689.73 62.728C690.234 63.414 690.514 64.38 690.556 65.626H684.676C684.718 66.508 684.956 67.208 685.39 67.712C685.838 68.216 686.426 68.468 687.182 68.468C687.84 68.468 688.372 68.286 688.778 67.95C689.114 67.656 689.366 67.236 689.548 66.676H690.402C690.234 67.376 689.912 67.95 689.436 68.398C688.848 68.93 688.106 69.196 687.182 69.196C686.16 69.196 685.348 68.846 684.746 68.16C684.116 67.46 683.808 66.522 683.808 65.374C683.808 64.31 684.102 63.428 684.704 62.7C685.32 61.944 686.132 61.566 687.154 61.566ZM687.168 62.294C686.454 62.294 685.88 62.532 685.446 63.036C685.012 63.526 684.76 64.156 684.69 64.94H689.674C689.534 63.176 688.694 62.294 687.168 62.294ZM699.486 61.566C700.634 61.566 701.488 61.944 702.062 62.728C702.566 63.414 702.846 64.38 702.888 65.626H697.008C697.05 66.508 697.288 67.208 697.722 67.712C698.17 68.216 698.758 68.468 699.514 68.468C700.172 68.468 700.704 68.286 701.11 67.95C701.446 67.656 701.698 67.236 701.88 66.676H702.734C702.566 67.376 702.244 67.95 701.768 68.398C701.18 68.93 700.438 69.196 699.514 69.196C698.492 69.196 697.68 68.846 697.078 68.16C696.448 67.46 696.14 66.522 696.14 65.374C696.14 64.31 696.434 63.428 697.036 62.7C697.652 61.944 698.464 61.566 699.486 61.566ZM699.5 62.294C698.786 62.294 698.212 62.532 697.778 63.036C697.344 63.526 697.092 64.156 697.022 64.94H702.006C701.866 63.176 701.026 62.294 699.5 62.294ZM703.418 61.762H704.342L706.624 67.936L708.892 61.762H709.83L707.058 69H706.19L703.418 61.762ZM713.704 61.566C714.852 61.566 715.706 61.944 716.28 62.728C716.784 63.414 717.064 64.38 717.106 65.626H711.226C711.268 66.508 711.506 67.208 711.94 67.712C712.388 68.216 712.976 68.468 713.732 68.468C714.39 68.468 714.922 68.286 715.328 67.95C715.664 67.656 715.916 67.236 716.098 66.676H716.952C716.784 67.376 716.462 67.95 715.986 68.398C715.398 68.93 714.656 69.196 713.732 69.196C712.71 69.196 711.898 68.846 711.296 68.16C710.666 67.46 710.358 66.522 710.358 65.374C710.358 64.31 710.652 63.428 711.254 62.7C711.87 61.944 712.682 61.566 713.704 61.566ZM713.718 62.294C713.004 62.294 712.43 62.532 711.996 63.036C711.562 63.526 711.31 64.156 711.24 64.94H716.224C716.084 63.176 715.244 62.294 713.718 62.294ZM721.64 61.566C723.432 61.566 724.328 62.56 724.328 64.548V69H723.488V64.604C723.488 63.064 722.802 62.294 721.43 62.294C720.842 62.294 720.366 62.504 719.974 62.924C719.554 63.344 719.33 63.918 719.288 64.632V69H718.448V61.762H719.288V62.952C719.54 62.518 719.862 62.182 720.268 61.93C720.674 61.678 721.136 61.566 721.64 61.566ZM727.841 59.424V61.762H729.731V62.49H727.841V67.39C727.841 67.698 727.897 67.936 728.009 68.076C728.121 68.202 728.331 68.272 728.639 68.272H729.549V69H728.527C727.967 69 727.561 68.846 727.323 68.566C727.099 68.314 727.001 67.922 727.001 67.39V62.49H725.461V61.762H727.001V59.774L727.841 59.424ZM739.007 61.566C740.029 61.566 740.841 61.944 741.443 62.728C741.975 63.428 742.241 64.31 742.241 65.402C742.241 66.466 741.975 67.348 741.457 68.048C740.869 68.804 740.071 69.196 739.035 69.196C737.873 69.196 737.033 68.622 736.501 67.488V71.772H735.661V61.762H736.459V63.19C736.991 62.098 737.831 61.566 739.007 61.566ZM738.909 62.28C738.125 62.28 737.509 62.588 737.075 63.204C736.669 63.75 736.473 64.464 736.473 65.346V65.5C736.473 66.368 736.683 67.082 737.117 67.642C737.551 68.202 738.139 68.482 738.881 68.482C739.707 68.482 740.337 68.174 740.785 67.586C741.177 67.04 741.373 66.312 741.373 65.402C741.373 64.492 741.177 63.764 740.799 63.218C740.351 62.588 739.721 62.28 738.909 62.28ZM746.654 61.566C747.802 61.566 748.656 61.944 749.23 62.728C749.734 63.414 750.014 64.38 750.056 65.626H744.176C744.218 66.508 744.456 67.208 744.89 67.712C745.338 68.216 745.926 68.468 746.682 68.468C747.34 68.468 747.872 68.286 748.278 67.95C748.614 67.656 748.866 67.236 749.048 66.676H749.902C749.734 67.376 749.412 67.95 748.936 68.398C748.348 68.93 747.606 69.196 746.682 69.196C745.66 69.196 744.848 68.846 744.246 68.16C743.616 67.46 743.308 66.522 743.308 65.374C743.308 64.31 743.602 63.428 744.204 62.7C744.82 61.944 745.632 61.566 746.654 61.566ZM746.668 62.294C745.954 62.294 745.38 62.532 744.946 63.036C744.512 63.526 744.26 64.156 744.19 64.94H749.174C749.034 63.176 748.194 62.294 746.668 62.294ZM754.436 61.566C754.856 61.566 755.206 61.608 755.486 61.72V62.574C755.108 62.462 754.744 62.42 754.38 62.42C753.736 62.42 753.204 62.7 752.812 63.288C752.42 63.82 752.238 64.45 752.238 65.178V69H751.398V61.762H752.238V63.148C752.434 62.7 752.7 62.336 753.036 62.07C753.428 61.734 753.904 61.566 754.436 61.566ZM757.283 59.158C757.479 59.158 757.647 59.228 757.787 59.368C757.927 59.48 757.997 59.648 757.997 59.858C757.997 60.054 757.913 60.222 757.773 60.362C757.633 60.488 757.479 60.558 757.283 60.558C757.073 60.558 756.905 60.488 756.779 60.362C756.639 60.222 756.569 60.054 756.569 59.858C756.569 59.648 756.639 59.48 756.779 59.368C756.905 59.228 757.073 59.158 757.283 59.158ZM756.863 61.762H757.703V69H756.863V61.762ZM763.052 61.566C764.116 61.566 764.97 61.944 765.614 62.714C766.202 63.428 766.496 64.324 766.496 65.388C766.496 66.452 766.202 67.334 765.614 68.048C764.97 68.804 764.116 69.196 763.052 69.196C761.988 69.196 761.134 68.804 760.49 68.048C759.902 67.334 759.608 66.452 759.608 65.388C759.608 64.324 759.902 63.428 760.504 62.714C761.134 61.944 761.988 61.566 763.052 61.566ZM763.052 62.294C762.226 62.294 761.582 62.602 761.106 63.246C760.672 63.806 760.462 64.52 760.462 65.388C760.462 66.242 760.672 66.956 761.106 67.516C761.582 68.146 762.226 68.468 763.052 68.468C763.878 68.468 764.536 68.146 765.012 67.516C765.432 66.942 765.656 66.228 765.656 65.388C765.656 64.52 765.432 63.806 765.012 63.246C764.536 62.602 763.878 62.294 763.052 62.294ZM773.442 58.808H774.282V69H773.484V67.572C772.98 68.65 772.14 69.196 770.95 69.196C769.9 69.196 769.088 68.804 768.5 68.048C767.968 67.348 767.702 66.452 767.702 65.374C767.702 64.31 767.968 63.428 768.5 62.728C769.088 61.944 769.886 61.566 770.908 61.566C772.056 61.566 772.91 62.14 773.442 63.288V58.808ZM771.062 62.28C770.236 62.28 769.606 62.588 769.158 63.204C768.752 63.736 768.556 64.464 768.556 65.374C768.556 66.284 768.752 67.012 769.144 67.558C769.578 68.174 770.208 68.482 771.034 68.482C771.818 68.482 772.434 68.174 772.868 67.586C773.26 67.04 773.47 66.34 773.47 65.486V65.318C773.47 64.422 773.246 63.708 772.826 63.148C772.378 62.56 771.79 62.28 771.062 62.28ZM776.972 67.6C777.168 67.6 777.336 67.67 777.476 67.81C777.616 67.95 777.686 68.118 777.686 68.314C777.686 68.51 777.616 68.692 777.476 68.832C777.336 68.958 777.168 69.028 776.972 69.028C776.762 69.028 776.594 68.958 776.468 68.832C776.328 68.692 776.258 68.51 776.258 68.314C776.258 68.118 776.328 67.95 776.468 67.81C776.594 67.67 776.762 67.6 776.972 67.6Z" fill="white"/>
<path d="M0 12C0 5.37258 5.37258 0 12 0H188.313C191.082 0 193.014 2.74593 192.078 5.35209L182.021 33.3521C181.451 34.9406 179.944 36 178.257 36H0V12Z" fill="url(#paint2_linear_6478_610)"/>
<path d="M21.6245 24.4663V12.8299H24.437V17.5004H29.0222V12.8299H31.829V24.4663H29.0222V19.7902H24.437V24.4663H21.6245ZM37.6671 24.6311C36.7504 24.6311 35.9625 24.4436 35.3034 24.0686C34.6481 23.6898 34.1424 23.1633 33.7864 22.489C33.4341 21.811 33.258 21.025 33.258 20.1311C33.258 19.2334 33.4341 18.4474 33.7864 17.7731C34.1424 17.0951 34.6481 16.5686 35.3034 16.1936C35.9625 15.8148 36.7504 15.6254 37.6671 15.6254C38.5837 15.6254 39.3697 15.8148 40.025 16.1936C40.6841 16.5686 41.1898 17.0951 41.5421 17.7731C41.8981 18.4474 42.0762 19.2334 42.0762 20.1311C42.0762 21.025 41.8981 21.811 41.5421 22.489C41.1898 23.1633 40.6841 23.6898 40.025 24.0686C39.3697 24.4436 38.5837 24.6311 37.6671 24.6311ZM37.6841 22.5345C38.0174 22.5345 38.2996 22.4322 38.5307 22.2277C38.7618 22.0231 38.9379 21.739 39.0591 21.3754C39.1841 21.0118 39.2466 20.5913 39.2466 20.114C39.2466 19.6292 39.1841 19.2049 39.0591 18.8413C38.9379 18.4777 38.7618 18.1936 38.5307 17.989C38.2996 17.7845 38.0174 17.6822 37.6841 17.6822C37.3394 17.6822 37.0478 17.7845 36.8091 17.989C36.5743 18.1936 36.3943 18.4777 36.2693 18.8413C36.1481 19.2049 36.0875 19.6292 36.0875 20.114C36.0875 20.5913 36.1481 21.0118 36.2693 21.3754C36.3943 21.739 36.5743 22.0231 36.8091 22.2277C37.0478 22.4322 37.3394 22.5345 37.6841 22.5345ZM44.9426 24.4663L42.6699 15.739H45.4597L46.6358 21.3299H46.7097L47.971 15.739H50.6926L51.9881 21.2902H52.062L53.204 15.739H55.9938L53.7154 24.4663H50.7438L49.3801 19.3811H49.2835L47.9199 24.4663H44.9426ZM65.4725 15.739V17.7845H59.9668V15.739H65.4725ZM61.1202 13.6481H63.8986V21.722C63.8986 21.8924 63.9251 22.0307 63.9781 22.1368C64.035 22.239 64.1164 22.3129 64.2225 22.3584C64.3285 22.4 64.4554 22.4209 64.6031 22.4209C64.7092 22.4209 64.821 22.4114 64.9384 22.3924C65.0596 22.3697 65.1505 22.3508 65.2111 22.3356L65.6316 24.3413C65.499 24.3792 65.3115 24.4265 65.0691 24.4834C64.8304 24.5402 64.5444 24.5762 64.2111 24.5913C63.5596 24.6216 63.0009 24.5459 62.535 24.364C62.0728 24.1784 61.7187 23.8906 61.4725 23.5004C61.23 23.1102 61.1126 22.6197 61.1202 22.0288V13.6481ZM70.8702 24.6311C69.9535 24.6311 69.1656 24.4436 68.5066 24.0686C67.8513 23.6898 67.3456 23.1633 66.9895 22.489C66.6372 21.811 66.4611 21.025 66.4611 20.1311C66.4611 19.2334 66.6372 18.4474 66.9895 17.7731C67.3456 17.0951 67.8513 16.5686 68.5066 16.1936C69.1656 15.8148 69.9535 15.6254 70.8702 15.6254C71.7869 15.6254 72.5728 15.8148 73.2281 16.1936C73.8872 16.5686 74.3929 17.0951 74.7452 17.7731C75.1013 18.4474 75.2793 19.2334 75.2793 20.1311C75.2793 21.025 75.1013 21.811 74.7452 22.489C74.3929 23.1633 73.8872 23.6898 73.2281 24.0686C72.5728 24.4436 71.7869 24.6311 70.8702 24.6311ZM70.8872 22.5345C71.2206 22.5345 71.5028 22.4322 71.7338 22.2277C71.9649 22.0231 72.141 21.739 72.2622 21.3754C72.3872 21.0118 72.4497 20.5913 72.4497 20.114C72.4497 19.6292 72.3872 19.2049 72.2622 18.8413C72.141 18.4777 71.9649 18.1936 71.7338 17.989C71.5028 17.7845 71.2206 17.6822 70.8872 17.6822C70.5425 17.6822 70.2509 17.7845 70.0122 17.989C69.7774 18.1936 69.5975 18.4777 69.4725 18.8413C69.3513 19.2049 69.2906 19.6292 69.2906 20.114C69.2906 20.5913 69.3513 21.0118 69.4725 21.3754C69.5975 21.739 69.7774 22.0231 70.0122 22.2277C70.2509 22.4322 70.5425 22.5345 70.8872 22.5345ZM80.1401 24.4663V12.8299H84.9469C85.8181 12.8299 86.57 13.0004 87.2026 13.3413C87.8389 13.6784 88.3295 14.15 88.6742 14.7561C89.0189 15.3584 89.1912 16.0591 89.1912 16.8584C89.1912 17.6614 89.0151 18.364 88.6628 18.9663C88.3143 19.5648 87.8162 20.0288 87.1685 20.3584C86.5208 20.6879 85.7518 20.8527 84.8617 20.8527H81.8958V18.6368H84.3389C84.7632 18.6368 85.1174 18.5629 85.4014 18.4152C85.6893 18.2674 85.9071 18.061 86.0549 17.7959C86.2026 17.5269 86.2764 17.2144 86.2764 16.8584C86.2764 16.4985 86.2026 16.1879 86.0549 15.9265C85.9071 15.6614 85.6893 15.4568 85.4014 15.3129C85.1136 15.169 84.7594 15.097 84.3389 15.097H82.9526V24.4663H80.1401ZM92.7253 24.614C92.1685 24.614 91.6742 24.5212 91.2424 24.3356C90.8143 24.1462 90.4753 23.8621 90.2253 23.4834C89.9791 23.1008 89.856 22.6216 89.856 22.0459C89.856 21.561 89.9412 21.1519 90.1117 20.8186C90.2821 20.4852 90.517 20.2144 90.8162 20.0061C91.1155 19.7977 91.4602 19.6406 91.8503 19.5345C92.2405 19.4246 92.6571 19.3508 93.1003 19.3129C93.5965 19.2674 93.9961 19.2201 94.2992 19.1709C94.6022 19.1178 94.8219 19.044 94.9583 18.9493C95.0984 18.8508 95.1685 18.7125 95.1685 18.5345V18.5061C95.1685 18.2144 95.0681 17.989 94.8674 17.8299C94.6666 17.6709 94.3958 17.5913 94.0549 17.5913C93.6874 17.5913 93.392 17.6709 93.1685 17.8299C92.945 17.989 92.803 18.2087 92.7424 18.489L90.1799 18.3981C90.2556 17.8678 90.4507 17.3943 90.7651 16.9777C91.0833 16.5572 91.5189 16.2277 92.0719 15.989C92.6287 15.7466 93.2973 15.6254 94.0776 15.6254C94.6344 15.6254 95.1477 15.6917 95.6174 15.8243C96.0871 15.9531 96.4961 16.1424 96.8446 16.3924C97.1931 16.6387 97.4621 16.9417 97.6514 17.3015C97.8446 17.6614 97.9412 18.0724 97.9412 18.5345V24.4663H95.3276V23.2504H95.2594C95.1041 23.5459 94.9052 23.7959 94.6628 24.0004C94.4242 24.2049 94.142 24.3584 93.8162 24.4606C93.4942 24.5629 93.1306 24.614 92.7253 24.614ZM93.5833 22.7959C93.8825 22.7959 94.1514 22.7352 94.3901 22.614C94.6325 22.4928 94.8257 22.3262 94.9696 22.114C95.1136 21.8981 95.1855 21.6481 95.1855 21.364V20.5345C95.106 20.5762 95.0094 20.614 94.8958 20.6481C94.7859 20.6822 94.6647 20.7144 94.5321 20.7447C94.3996 20.775 94.2632 20.8015 94.123 20.8243C93.9829 20.847 93.8484 20.8678 93.7196 20.8868C93.4583 20.9284 93.2348 20.9928 93.0492 21.0799C92.8674 21.1671 92.7272 21.2807 92.6287 21.4209C92.534 21.5572 92.4867 21.7201 92.4867 21.9095C92.4867 22.1974 92.5889 22.4171 92.7935 22.5686C93.0018 22.7201 93.2651 22.7959 93.5833 22.7959ZM99.6401 24.4663V15.739H102.339V17.3299H102.43C102.589 16.7542 102.848 16.3262 103.208 16.0459C103.568 15.7618 103.987 15.6197 104.464 15.6197C104.593 15.6197 104.725 15.6292 104.862 15.6481C104.998 15.6633 105.125 15.6879 105.242 15.722V18.1368C105.11 18.0913 104.936 18.0553 104.72 18.0288C104.508 18.0023 104.318 17.989 104.151 17.989C103.822 17.989 103.525 18.0629 103.259 18.2106C102.998 18.3546 102.792 18.5572 102.64 18.8186C102.492 19.0762 102.418 19.3792 102.418 19.7277V24.4663H99.6401ZM111.707 15.739V17.7845H106.201V15.739H111.707ZM107.355 13.6481H110.133V21.722C110.133 21.8924 110.159 22.0307 110.213 22.1368C110.269 22.239 110.351 22.3129 110.457 22.3584C110.563 22.4 110.69 22.4209 110.838 22.4209C110.944 22.4209 111.055 22.4114 111.173 22.3924C111.294 22.3697 111.385 22.3508 111.445 22.3356L111.866 24.3413C111.733 24.3792 111.546 24.4265 111.303 24.4834C111.065 24.5402 110.779 24.5762 110.445 24.5913C109.794 24.6216 109.235 24.5459 108.769 24.364C108.307 24.1784 107.953 23.8906 107.707 23.5004C107.464 23.1102 107.347 22.6197 107.355 22.0288V13.6481ZM113.124 24.4663V15.739H115.903V24.4663H113.124ZM114.517 14.722C114.126 14.722 113.791 14.5932 113.511 14.3356C113.231 14.0743 113.09 13.7599 113.09 13.3924C113.09 13.0288 113.231 12.7182 113.511 12.4606C113.791 12.1993 114.126 12.0686 114.517 12.0686C114.91 12.0686 115.246 12.1993 115.522 12.4606C115.802 12.7182 115.943 13.0288 115.943 13.3924C115.943 13.7599 115.802 14.0743 115.522 14.3356C115.246 14.5932 114.91 14.722 114.517 14.722ZM121.745 24.6311C120.825 24.6311 120.035 24.4417 119.376 24.0629C118.721 23.6841 118.217 23.1576 117.865 22.4834C117.512 21.8053 117.336 21.0212 117.336 20.1311C117.336 19.2371 117.512 18.4531 117.865 17.7788C118.221 17.1008 118.726 16.5724 119.382 16.1936C120.041 15.8148 120.827 15.6254 121.74 15.6254C122.546 15.6254 123.249 15.7712 123.847 16.0629C124.45 16.3546 124.919 16.7674 125.257 17.3015C125.597 17.8318 125.777 18.4549 125.796 19.1709H123.2C123.147 18.7239 122.995 18.3735 122.745 18.1197C122.499 17.8659 122.177 17.739 121.779 17.739C121.457 17.739 121.175 17.8299 120.933 18.0118C120.69 18.1898 120.501 18.4549 120.365 18.8072C120.232 19.1557 120.166 19.5875 120.166 20.1027C120.166 20.6178 120.232 21.0534 120.365 21.4095C120.501 21.7618 120.69 22.0288 120.933 22.2106C121.175 22.3887 121.457 22.4777 121.779 22.4777C122.037 22.4777 122.264 22.4227 122.461 22.3129C122.662 22.2031 122.827 22.0421 122.955 21.8299C123.084 21.614 123.166 21.3527 123.2 21.0459H125.796C125.77 21.7656 125.59 22.3943 125.257 22.9322C124.927 23.4701 124.463 23.8887 123.865 24.1879C123.27 24.4834 122.563 24.6311 121.745 24.6311ZM127.218 24.4663V15.739H129.997V24.4663H127.218ZM128.61 14.722C128.22 14.722 127.885 14.5932 127.605 14.3356C127.324 14.0743 127.184 13.7599 127.184 13.3924C127.184 13.0288 127.324 12.7182 127.605 12.4606C127.885 12.1993 128.22 12.0686 128.61 12.0686C129.004 12.0686 129.339 12.1993 129.616 12.4606C129.896 12.7182 130.036 13.0288 130.036 13.3924C130.036 13.7599 129.896 14.0743 129.616 14.3356C129.339 14.5932 129.004 14.722 128.61 14.722ZM131.765 27.739V15.739H134.515V17.2334H134.6C134.714 16.9682 134.875 16.7125 135.083 16.4663C135.295 16.2201 135.564 16.0193 135.89 15.864C136.22 15.7049 136.614 15.6254 137.072 15.6254C137.678 15.6254 138.244 15.7845 138.771 16.1027C139.301 16.4209 139.729 16.9114 140.055 17.5743C140.381 18.2371 140.543 19.0818 140.543 20.1084C140.543 21.097 140.386 21.9246 140.072 22.5913C139.761 23.258 139.341 23.758 138.811 24.0913C138.284 24.4246 137.699 24.5913 137.055 24.5913C136.615 24.5913 136.235 24.5193 135.913 24.3754C135.591 24.2315 135.32 24.0421 135.1 23.8072C134.884 23.5724 134.718 23.3205 134.6 23.0515H134.543V27.739H131.765ZM134.487 20.1027C134.487 20.5724 134.549 20.9815 134.674 21.3299C134.803 21.6784 134.987 21.9493 135.225 22.1424C135.468 22.3318 135.758 22.4265 136.095 22.4265C136.436 22.4265 136.725 22.3318 136.964 22.1424C137.203 21.9493 137.383 21.6784 137.504 21.3299C137.629 20.9815 137.691 20.5724 137.691 20.1027C137.691 19.633 137.629 19.2258 137.504 18.8811C137.383 18.5364 137.203 18.2693 136.964 18.0799C136.729 17.8906 136.439 17.7959 136.095 17.7959C135.754 17.7959 135.464 17.8887 135.225 18.0743C134.987 18.2599 134.803 18.525 134.674 18.8697C134.549 19.2144 134.487 19.6254 134.487 20.1027ZM144.46 24.614C143.903 24.614 143.409 24.5212 142.977 24.3356C142.549 24.1462 142.21 23.8621 141.96 23.4834C141.713 23.1008 141.59 22.6216 141.59 22.0459C141.59 21.561 141.676 21.1519 141.846 20.8186C142.017 20.4852 142.251 20.2144 142.551 20.0061C142.85 19.7977 143.195 19.6406 143.585 19.5345C143.975 19.4246 144.392 19.3508 144.835 19.3129C145.331 19.2674 145.731 19.2201 146.034 19.1709C146.337 19.1178 146.556 19.044 146.693 18.9493C146.833 18.8508 146.903 18.7125 146.903 18.5345V18.5061C146.903 18.2144 146.802 17.989 146.602 17.8299C146.401 17.6709 146.13 17.5913 145.789 17.5913C145.422 17.5913 145.126 17.6709 144.903 17.8299C144.679 17.989 144.537 18.2087 144.477 18.489L141.914 18.3981C141.99 17.8678 142.185 17.3943 142.499 16.9777C142.818 16.5572 143.253 16.2277 143.806 15.989C144.363 15.7466 145.032 15.6254 145.812 15.6254C146.369 15.6254 146.882 15.6917 147.352 15.8243C147.821 15.9531 148.231 16.1424 148.579 16.3924C148.927 16.6387 149.196 16.9417 149.386 17.3015C149.579 17.6614 149.676 18.0724 149.676 18.5345V24.4663H147.062V23.2504H146.994C146.838 23.5459 146.64 23.7959 146.397 24.0004C146.159 24.2049 145.876 24.3584 145.551 24.4606C145.229 24.5629 144.865 24.614 144.46 24.614ZM145.318 22.7959C145.617 22.7959 145.886 22.7352 146.124 22.614C146.367 22.4928 146.56 22.3262 146.704 22.114C146.848 21.8981 146.92 21.6481 146.92 21.364V20.5345C146.84 20.5762 146.744 20.614 146.63 20.6481C146.52 20.6822 146.399 20.7144 146.267 20.7447C146.134 20.775 145.998 20.8015 145.857 20.8243C145.717 20.847 145.583 20.8678 145.454 20.8868C145.193 20.9284 144.969 20.9928 144.784 21.0799C144.602 21.1671 144.462 21.2807 144.363 21.4209C144.268 21.5572 144.221 21.7201 144.221 21.9095C144.221 22.1974 144.323 22.4171 144.528 22.5686C144.736 22.7201 144.999 22.7959 145.318 22.7959ZM156.301 15.739V17.7845H150.795V15.739H156.301ZM151.948 13.6481H154.727V21.722C154.727 21.8924 154.753 22.0307 154.806 22.1368C154.863 22.239 154.945 22.3129 155.051 22.3584C155.157 22.4 155.284 22.4209 155.431 22.4209C155.537 22.4209 155.649 22.4114 155.767 22.3924C155.888 22.3697 155.979 22.3508 156.039 22.3356L156.46 24.3413C156.327 24.3792 156.14 24.4265 155.897 24.4834C155.659 24.5402 155.373 24.5762 155.039 24.5913C154.388 24.6216 153.829 24.5459 153.363 24.364C152.901 24.1784 152.547 23.8906 152.301 23.5004C152.058 23.1102 151.941 22.6197 151.948 22.0288V13.6481ZM161.704 24.6311C160.791 24.6311 160.003 24.4512 159.34 24.0913C158.681 23.7277 158.174 23.2106 157.818 22.5402C157.465 21.8659 157.289 21.0648 157.289 20.1368C157.289 19.2352 157.467 18.4474 157.823 17.7731C158.179 17.0951 158.681 16.5686 159.329 16.1936C159.977 15.8148 160.74 15.6254 161.619 15.6254C162.24 15.6254 162.808 15.722 163.323 15.9152C163.838 16.1084 164.284 16.3943 164.659 16.7731C165.034 17.1519 165.325 17.6197 165.534 18.1765C165.742 18.7296 165.846 19.364 165.846 20.0799V20.7731H158.261V19.1595H163.261C163.257 18.864 163.187 18.6008 163.051 18.3697C162.914 18.1387 162.727 17.9587 162.488 17.8299C162.253 17.6974 161.982 17.6311 161.676 17.6311C161.365 17.6311 161.087 17.7012 160.84 17.8413C160.594 17.9777 160.399 18.1652 160.255 18.4038C160.111 18.6387 160.035 18.9057 160.028 19.2049V20.847C160.028 21.2031 160.098 21.5156 160.238 21.7845C160.378 22.0496 160.577 22.2561 160.835 22.4038C161.092 22.5515 161.399 22.6254 161.755 22.6254C162.001 22.6254 162.225 22.5913 162.426 22.5231C162.626 22.4549 162.799 22.3546 162.943 22.222C163.087 22.0894 163.195 21.9265 163.267 21.7334L165.818 21.8072C165.712 22.3792 165.479 22.8773 165.119 23.3015C164.763 23.722 164.295 24.0496 163.715 24.2845C163.136 24.5156 162.465 24.6311 161.704 24.6311Z" fill="white"/>
<defs>
<linearGradient id="paint0_linear_6478_610" x1="500" y1="12" x2="500" y2="110.481" gradientUnits="userSpaceOnUse">
<stop/>
<stop offset="1" stop-color="#1C0130"/>
</linearGradient>
<linearGradient id="paint1_linear_6478_610" x1="500" y1="12" x2="500" y2="103" gradientUnits="userSpaceOnUse">
<stop stop-color="#020103"/>
<stop offset="1" stop-color="#311645"/>
</linearGradient>
<linearGradient id="paint2_linear_6478_610" x1="6.23328e-08" y1="18.2353" x2="193.749" y2="11.0245" gradientUnits="userSpaceOnUse">
<stop stop-color="#413EFE"/>
<stop offset="1" stop-color="#9F38E5"/>
</linearGradient>
</defs>
</svg>
