<svg width="1000" height="283" viewBox="0 0 1000 283" fill="none" xmlns="http://www.w3.org/2000/svg">
<rect x="0.5" y="12.5" width="999" height="270" rx="3.5" fill="url(#paint0_linear_6313_740)" stroke="url(#paint1_linear_6313_740)"/>
<path d="M40.316 60.168H41.684C43.934 62.688 46.526 64.686 49.478 66.126L48.452 67.944C47.498 67.44 46.598 66.882 45.77 66.288V67.53H36.23V66.27C35.366 66.864 34.448 67.44 33.476 67.98L32.468 66.144C35.618 64.542 38.228 62.544 40.316 60.168ZM37.004 65.712H44.978C43.502 64.578 42.17 63.3 41 61.878C39.866 63.282 38.534 64.56 37.004 65.712ZM46.94 69.294V76.854H45.122V75.936H36.878V76.854H35.06V69.294H46.94ZM36.878 74.154H45.122V71.058H36.878V74.154ZM51.188 62.562H53.6V60.312H55.472V62.562H57.632V64.362H55.472V66.774H57.884V68.574H55.382L55.274 69.6C56.246 70.464 57.218 71.436 58.19 72.516L57.146 74.118C56.282 72.948 55.562 72.03 54.986 71.364C54.446 73.74 53.51 75.594 52.178 76.944L50.774 75.702C52.34 74.118 53.258 71.742 53.51 68.574H50.954V66.774H53.6V64.362H51.188V62.562ZM66.182 60.816V70.968H64.364V62.544H60.134V70.968H58.316V60.816H66.182ZM65.462 76.602H63.842C62.78 76.602 62.258 76.026 62.258 74.91V72.03C62.06 72.552 61.844 73.038 61.592 73.47C60.692 74.964 59.216 76.116 57.2 76.926L56.228 75.36C58.208 74.532 59.558 73.488 60.242 72.246C60.926 70.914 61.322 69.168 61.394 67.044V63.678H63.104V67.044C63.068 68.52 62.888 69.816 62.6 70.95H63.968V74.532C63.968 74.802 64.094 74.946 64.382 74.946H65.156C65.336 74.946 65.462 74.856 65.552 74.676C65.66 74.46 65.732 73.866 65.768 72.858L67.388 73.38C67.262 74.946 67.046 75.882 66.758 76.188C66.47 76.458 66.038 76.602 65.462 76.602ZM69.08 61.5H76.046V60.24H77.954V61.5H84.902V63.192H77.954V64.326H83.966V66H70.07V64.326H76.046V63.192H69.08V61.5ZM76.244 68.574H72.248V69.564C72.248 69.762 72.23 69.96 72.23 70.158H76.244V68.574ZM78.134 70.158H81.824V68.574H78.134V70.158ZM72.086 71.814C71.798 73.776 71.168 75.522 70.196 77.034L68.648 75.648C69.8 74.082 70.376 72.048 70.394 69.564V66.918H83.642V71.814H72.086ZM93.11 61.032V73.974H89.15V75.288H87.278V61.032H93.11ZM89.15 72.138H91.292V68.268H89.15V72.138ZM89.15 66.45H91.292V62.868H89.15V66.45ZM96.584 66.774V69.33H100.598V66.774H96.584ZM100.598 65.028V62.472H96.584V65.028H100.598ZM96.458 71.094C96.206 73.47 95.45 75.45 94.19 77.034L92.696 75.666C93.992 74.046 94.64 71.958 94.676 69.438V60.654H102.506V74.766C102.506 76.062 101.84 76.71 100.544 76.71H98.276L97.754 74.874C98.546 74.928 99.284 74.964 99.932 74.964C100.364 74.964 100.598 74.676 100.598 74.1V71.094H96.458ZM108.5 63.732C108.896 63.732 109.22 63.858 109.508 64.146C109.778 64.416 109.922 64.758 109.922 65.154C109.922 65.55 109.778 65.874 109.508 66.144C109.22 66.414 108.896 66.558 108.5 66.558C108.104 66.558 107.762 66.414 107.492 66.144C107.222 65.874 107.096 65.55 107.096 65.154C107.096 64.758 107.222 64.416 107.492 64.146C107.762 63.858 108.104 63.732 108.5 63.732ZM108.5 70.32C108.896 70.32 109.22 70.446 109.508 70.734C109.778 71.004 109.922 71.346 109.922 71.742C109.922 72.138 109.778 72.462 109.508 72.732C109.22 73.002 108.896 73.146 108.5 73.146C108.104 73.146 107.762 73.002 107.492 72.732C107.222 72.462 107.096 72.138 107.096 71.742C107.096 71.346 107.222 71.004 107.492 70.734C107.762 70.446 108.104 70.32 108.5 70.32ZM34.842 98.322V100.786C34.842 100.856 34.828 100.926 34.828 101.01H38.678V98.322H34.842ZM34.786 101.724C34.646 103.544 34.114 105.042 33.204 106.218L32.644 105.7C33.568 104.426 34.044 102.802 34.072 100.842V94.206H44.292V104.678C44.292 105.588 43.83 106.05 42.92 106.05H41.31L41.114 105.308C41.674 105.336 42.192 105.35 42.668 105.35C43.242 105.35 43.536 105.028 43.536 104.398V101.724H39.434V105.896H38.678V101.724H34.786ZM43.536 101.01V98.322H39.434V101.01H43.536ZM43.536 97.622V94.948H39.434V97.622H43.536ZM38.678 94.948H34.842V97.622H38.678V94.948ZM57.354 96.138H49.066V99.162H57.354V96.138ZM49.066 99.904C49.01 102.424 48.338 104.608 47.064 106.428L46.49 105.91C47.694 104.286 48.31 102.2 48.324 99.652V95.382H52.944C52.692 94.738 52.412 94.164 52.104 93.66L52.902 93.52C53.182 94.066 53.448 94.682 53.7 95.382H58.124V99.904H49.066ZM60.812 100.31H73.188V100.982H67.196L66.636 102.144H72.152V105.196C72.152 105.98 71.774 106.372 71.018 106.372H70.024L69.828 105.7L70.794 105.728C71.214 105.728 71.424 105.49 71.424 105.042V102.802H68.904V106.26H68.176V102.802H65.824V106.26H65.096V102.802H62.744V106.4H62.002V102.144H65.894L66.426 100.982H60.812V100.31ZM61.666 94.108H72.348V94.752H67.378V95.83H72.782V98.588H72.054V96.432H67.378V99.638H66.622V96.432H61.946V98.588H61.218V95.83H66.622V94.752H61.666V94.108ZM62.856 97.384H65.768V97.916H62.856V97.384ZM62.856 98.784H65.768V99.316H62.856V98.784ZM68.218 97.384H71.116V97.916H68.218V97.384ZM68.232 98.784H71.158V99.316H68.232V98.784ZM79.096 96.208H81.406V95.326H78.424V94.696H81.014C80.874 94.332 80.706 94.01 80.51 93.716L81.224 93.59C81.392 93.912 81.546 94.276 81.714 94.696H83.576C83.772 94.332 83.926 93.94 84.038 93.548L84.766 93.646C84.654 94.024 84.5 94.374 84.304 94.696H86.866V95.326H83.954V96.208H86.32V100.912H85.172V101.794H87.006V102.41H85.172V103.684C85.172 104.272 84.836 104.566 84.192 104.566H82.75L82.61 103.922C83.086 103.95 83.534 103.964 83.968 103.964C84.29 103.964 84.458 103.81 84.458 103.516V102.41H78.382V101.794H84.458V100.912H79.096V96.208ZM83.296 96.208V95.326H82.05V96.208H83.296ZM85.648 100.352V99.47H79.768V100.352H85.648ZM79.768 98.938H85.648V98.266H84.206C83.59 98.266 83.296 98.014 83.296 97.524V96.768H82.05C81.994 97.594 81.518 98.21 80.622 98.602L80.16 98.21C80.944 97.902 81.364 97.412 81.406 96.768H79.768V98.938ZM83.954 96.768V97.44C83.954 97.65 84.094 97.762 84.388 97.762H85.648V96.768H83.954ZM80.132 102.536C80.832 102.956 81.406 103.376 81.882 103.796L81.434 104.244C81 103.838 80.426 103.404 79.698 102.942L80.132 102.536ZM75.652 93.884C76.576 94.612 77.36 95.326 78.004 96.054L77.486 96.586C76.898 95.886 76.114 95.158 75.12 94.374L75.652 93.884ZM83.94 106.12C83.156 106.12 82.316 106.106 81.406 106.092C80.482 106.064 79.754 105.98 79.194 105.826C78.634 105.658 78.13 105.308 77.682 104.776C77.486 104.524 77.304 104.412 77.136 104.412C76.758 104.412 76.17 105.056 75.372 106.358L74.798 105.854C75.568 104.636 76.226 103.922 76.786 103.726V99.246H74.784V98.518H77.5V103.754C77.654 103.838 77.808 103.964 77.948 104.146C78.312 104.566 78.704 104.888 79.124 105.084C79.586 105.252 80.244 105.364 81.084 105.392C81.784 105.406 82.708 105.42 83.828 105.42C84.472 105.42 85.116 105.406 85.788 105.406C86.432 105.392 86.936 105.378 87.3 105.364L87.132 106.12H83.94ZM89.05 99.204H97.128V96.978H97.87V99.204H100.936V99.946H97.87V105.07C97.87 105.882 97.45 106.302 96.624 106.302H94.706L94.552 105.56C95.182 105.588 95.784 105.616 96.358 105.616C96.862 105.616 97.128 105.364 97.128 104.888V99.946H89.05V99.204ZM91.598 100.954C92.704 101.794 93.628 102.648 94.384 103.488L93.824 104.034C93.152 103.222 92.242 102.354 91.094 101.458L91.598 100.954ZM100.53 95.046V97.902H99.774V95.788H90.212V97.888H89.456V95.046H94.748C94.524 94.5 94.258 94.01 93.978 93.562L94.79 93.422C95.042 93.898 95.294 94.444 95.532 95.046H100.53ZM103.764 98.238H108.636V93.73H109.42V98.238H114.166V106.274H113.41V105.672H103.638V104.93H113.41V102.242H104.408V101.528H113.41V98.98H103.764V98.238ZM113.536 94.318L114.236 94.64C113.76 95.634 113.158 96.6 112.402 97.538L111.716 97.174C112.472 96.222 113.088 95.27 113.536 94.318ZM104.576 94.472C105.388 95.48 106.004 96.348 106.424 97.09L105.78 97.538C105.332 96.726 104.716 95.844 103.932 94.864L104.576 94.472ZM128.838 96.404C128.838 99.162 128.768 100.828 128.642 101.416C128.502 101.99 127.928 102.284 126.934 102.284H126.836L126.612 101.556C126.794 101.556 126.948 101.57 127.088 101.57C127.55 101.57 127.844 101.402 127.956 101.066C128.04 100.744 128.096 99.526 128.11 97.398L125.786 98.112V103.516H125.058V98.336L122.762 99.05V104.706C122.762 105.168 123 105.406 123.504 105.406H127.564C127.9 105.406 128.138 105.308 128.278 105.112C128.46 104.86 128.586 104.132 128.642 102.928L129.342 103.152C129.258 104.552 129.09 105.406 128.81 105.728C128.586 105.98 128.222 106.12 127.718 106.12H123.28C122.426 106.12 122.006 105.7 122.006 104.86V99.288L120.704 99.68V98.924L122.006 98.532V95.018H122.762V98.294L125.058 97.58V93.604H125.786V97.356L128.838 96.404ZM120.9 102.382V103.152C119.612 103.74 118.212 104.23 116.728 104.622L116.532 103.852C117.162 103.712 117.778 103.558 118.394 103.362V98.154H116.7V97.398H118.394V93.716H119.136V97.398H120.69V98.154H119.136V103.11C119.738 102.9 120.326 102.662 120.9 102.382ZM138.288 93.576H139.044V95.942H142.754V96.684H139.044V99.526H143.118V100.282H138.498C137.518 102.606 136.678 104.216 135.95 105.098C137.854 104.93 139.73 104.65 141.592 104.272C141.158 103.362 140.71 102.536 140.248 101.794L140.99 101.556C141.844 102.97 142.586 104.482 143.23 106.092L142.516 106.414C142.32 105.896 142.11 105.406 141.914 104.958C139.786 105.35 137.462 105.672 134.956 105.896L134.788 105.224C134.858 105.196 134.914 105.182 134.956 105.168C135.656 104.566 136.566 102.942 137.7 100.282H134.186V99.526H138.288V96.684H134.858V95.942H138.288V93.576ZM131.708 93.87C132.618 94.57 133.388 95.256 134.004 95.956L133.472 96.488C132.898 95.83 132.128 95.13 131.162 94.402L131.708 93.87ZM131.372 97.146C132.212 97.846 132.912 98.532 133.472 99.232L132.94 99.778C132.422 99.106 131.722 98.406 130.826 97.664L131.372 97.146ZM133.164 100.968L133.85 101.248C133.234 103.026 132.562 104.706 131.82 106.274L131.078 105.938C131.89 104.328 132.576 102.676 133.164 100.968ZM156.054 99.848H153.03V101.248H156.446V101.92H153.03V103.446H157.202V104.146H153.03V106.4H152.274V104.146H148.648V103.446H152.274V101.92H149.32V101.248H152.274V99.848H149.502V99.176H152.274V97.72H148.886V97.034H152.274V95.564H149.572V94.892H152.274V93.59H153.03V94.892H156.054V97.034H157.356V97.72H156.054V99.848ZM153.03 95.564V97.034H155.326V95.564H153.03ZM153.03 97.72V99.176H155.326V97.72H153.03ZM146.604 100.212C146.086 100.772 145.512 101.29 144.868 101.78L144.644 101.052C146.072 99.918 147.094 98.644 147.71 97.23L148.368 97.538C148.088 98.154 147.752 98.728 147.36 99.26V106.358H146.604V100.212ZM147.556 93.59L148.242 93.898C147.514 95.41 146.394 96.726 144.868 97.846L144.63 97.104C145.988 96.068 146.968 94.892 147.556 93.59ZM166.288 93.576H167.044V95.942H170.754V96.684H167.044V99.526H171.118V100.282H166.498C165.518 102.606 164.678 104.216 163.95 105.098C165.854 104.93 167.73 104.65 169.592 104.272C169.158 103.362 168.71 102.536 168.248 101.794L168.99 101.556C169.844 102.97 170.586 104.482 171.23 106.092L170.516 106.414C170.32 105.896 170.11 105.406 169.914 104.958C167.786 105.35 165.462 105.672 162.956 105.896L162.788 105.224C162.858 105.196 162.914 105.182 162.956 105.168C163.656 104.566 164.566 102.942 165.7 100.282H162.186V99.526H166.288V96.684H162.858V95.942H166.288V93.576ZM159.708 93.87C160.618 94.57 161.388 95.256 162.004 95.956L161.472 96.488C160.898 95.83 160.128 95.13 159.162 94.402L159.708 93.87ZM159.372 97.146C160.212 97.846 160.912 98.532 161.472 99.232L160.94 99.778C160.422 99.106 159.722 98.406 158.826 97.664L159.372 97.146ZM161.164 100.968L161.85 101.248C161.234 103.026 160.562 104.706 159.82 106.274L159.078 105.938C159.89 104.328 160.576 102.676 161.164 100.968ZM173.022 95.746H175.108V93.744H175.864V95.746H177.838V96.474H175.864V98.56C175.864 98.714 175.85 98.868 175.85 99.022H178.034V99.75H175.822C175.794 100.156 175.752 100.548 175.696 100.926C176.508 101.738 177.334 102.648 178.174 103.67L177.74 104.3C176.9 103.152 176.172 102.27 175.57 101.64C175.178 103.684 174.38 105.28 173.19 106.414L172.616 105.91C174.044 104.566 174.87 102.522 175.066 99.75H172.84V99.022H175.094C175.094 98.868 175.108 98.714 175.108 98.56V96.474H173.022V95.746ZM184.25 94.234V101.808H183.508V94.948H179.546V101.808H178.804V94.234H184.25ZM183.956 106.19H182.836C182.164 106.19 181.842 105.826 181.842 105.112V101.934H182.556V104.972C182.556 105.336 182.724 105.518 183.06 105.518H183.83C184.11 105.518 184.32 105.434 184.432 105.294C184.6 105.098 184.698 104.538 184.754 103.614L185.412 103.838C185.328 104.944 185.174 105.63 184.936 105.896C184.726 106.092 184.404 106.19 183.956 106.19ZM181.17 96.278H181.884V98.686C181.856 100.758 181.478 102.424 180.778 103.67C180.078 104.832 178.944 105.742 177.362 106.4L176.956 105.77C178.496 105.126 179.602 104.258 180.26 103.138C180.848 102.004 181.142 100.52 181.17 98.686V96.278ZM188.548 103.6C188.828 103.6 189.038 103.712 189.206 103.936C189.346 104.146 189.43 104.44 189.43 104.804C189.43 105.364 189.262 105.84 188.94 106.246C188.618 106.638 188.198 106.904 187.666 107.044V106.484C188.03 106.372 188.31 106.176 188.506 105.896C188.688 105.644 188.786 105.35 188.786 105.014C188.73 105.028 188.646 105.042 188.506 105.042C188.31 105.042 188.142 104.972 188.002 104.832C187.862 104.692 187.792 104.524 187.792 104.328C187.792 104.104 187.848 103.922 187.988 103.796C188.128 103.656 188.31 103.6 188.548 103.6ZM201.4 94.29H212.642V95.046H207.322V100.576H213.16V101.318H207.322V106.358H206.566V101.318H200.84V100.576H206.566V95.046H201.4V94.29ZM202.912 96.124C203.458 97.104 203.976 98.182 204.452 99.358L203.738 99.708C203.262 98.49 202.744 97.412 202.212 96.46L202.912 96.124ZM211.144 96.026L211.844 96.348C211.396 97.496 210.808 98.602 210.108 99.666L209.422 99.316C210.15 98.21 210.724 97.118 211.144 96.026ZM225.592 100.646V106.386H224.836V105.588H217.164V106.386H216.408V100.646H225.592ZM217.164 104.846H224.836V101.374H217.164V104.846ZM215.344 99.078L215.204 98.364C216.562 97.804 218.13 96.208 219.894 93.576L220.664 93.842C219.306 95.816 217.962 97.314 216.618 98.336C219.586 98.21 222.316 98.028 224.836 97.776C224.22 96.936 223.604 96.166 222.988 95.466L223.688 95.13C224.92 96.558 226.082 98.098 227.146 99.778L226.418 100.142C226.054 99.54 225.676 98.98 225.312 98.448C222.344 98.728 219.026 98.938 215.344 99.078ZM229.12 94.402H240.88V95.144H236.302C236.036 95.76 235.728 96.348 235.392 96.908V106.4H234.608V98.056C233.278 99.82 231.486 101.36 229.232 102.704L228.728 102.06C231.99 100.156 234.23 97.846 235.462 95.144H229.12V94.402ZM237.142 98.112C238.78 99.414 240.152 100.716 241.272 102.032L240.684 102.62C239.676 101.36 238.318 100.044 236.61 98.644L237.142 98.112ZM244.926 94.15H252.976V94.864C251.954 95.536 250.806 96.208 249.532 96.852V97.916H251.338V98.63H249.532V100.184H251.646V100.912H249.532V102.438H252.248V103.166H249.532V105.308C249.532 106.008 249.21 106.372 248.566 106.372H246.956L246.774 105.644C247.236 105.658 247.74 105.672 248.3 105.672C248.622 105.672 248.79 105.462 248.79 105.056V103.166H245.976V102.438H248.79V100.912H246.48V100.184H248.79V98.63H246.802V97.916H248.79V96.474C250.204 95.788 251.212 95.256 251.828 94.864H244.926V94.15ZM254.74 97.09L255.356 97.468C255.02 98.084 254.684 98.588 254.348 98.98C254.012 99.372 253.62 99.736 253.144 100.086C253.522 102.004 254.264 103.656 255.37 105.028L254.838 105.56C253.074 103.32 252.164 100.464 252.136 96.964H252.85C252.85 97.804 252.906 98.602 253.018 99.358C253.326 99.106 253.592 98.84 253.83 98.546C254.166 98.126 254.46 97.636 254.74 97.09ZM242.84 97.51H245.976V98.168C245.808 101.332 244.842 103.796 243.078 105.56L242.588 104.958C244.184 103.32 245.08 101.08 245.304 98.238H242.84V97.51ZM262.44 94.626H268.292V102.914H262.44V94.626ZM267.578 102.228V99.148H263.154V102.228H267.578ZM263.154 98.448H267.578V95.312H263.154V98.448ZM260.998 104.944H269.37V105.672H260.998V104.944ZM261.6 99.288V100.03C260.956 100.352 260.312 100.646 259.64 100.926V104.944C259.64 105.742 259.262 106.148 258.52 106.148H257.19L257.022 105.434C257.442 105.462 257.862 105.476 258.254 105.476C258.674 105.476 258.898 105.224 258.898 104.748V101.22C258.198 101.472 257.498 101.71 256.784 101.92L256.602 101.192C257.386 100.996 258.156 100.772 258.898 100.506V96.964H256.882V96.236H258.898V93.632H259.64V96.236H261.474V96.964H259.64V100.212C260.312 99.932 260.97 99.624 261.6 99.288ZM273.094 97.944H276.622C276.706 97.272 276.748 96.558 276.762 95.788H277.49C277.49 96.572 277.448 97.286 277.378 97.944H280.906V98.672H277.28C277.21 99.036 277.14 99.386 277.056 99.708C278.596 100.954 279.884 102.2 280.934 103.432L280.388 103.992C279.492 102.844 278.302 101.64 276.846 100.366C276.272 101.85 275.124 103.068 273.388 104.006L272.926 103.432C274.522 102.564 275.6 101.458 276.132 100.1C276.286 99.652 276.412 99.176 276.51 98.672H273.094V97.944ZM282.544 94.318V106.344H281.788V105.644H272.212V106.344H271.456V94.318H282.544ZM272.212 104.916H281.788V95.046H272.212V104.916ZM284.91 97.874H289.628C289.936 97.454 290.174 97.02 290.342 96.572C289.082 96.628 287.766 96.67 286.394 96.712L286.268 96.04C287.262 95.732 288.424 94.92 289.74 93.576L290.482 93.828C289.572 94.78 288.676 95.508 287.78 96.04C289.936 95.97 291.938 95.872 293.786 95.732C293.31 95.312 292.82 94.878 292.288 94.444L292.876 94.066C294.262 95.172 295.326 96.138 296.068 96.978L295.438 97.398C295.13 97.048 294.794 96.698 294.43 96.334C293.38 96.404 292.274 96.474 291.126 96.53C290.958 97.006 290.734 97.454 290.468 97.874H296.978V98.574H293.296C294.164 99.54 295.536 100.296 297.398 100.842L297.062 101.542C294.906 100.786 293.38 99.806 292.498 98.574H289.95C288.858 99.834 287.192 100.856 284.98 101.626L284.644 100.954C286.576 100.366 288.046 99.568 289.026 98.574H284.91V97.874ZM291.126 99.246L291.742 99.61C290.79 100.772 289.348 101.696 287.388 102.382L287.038 101.766C288.9 101.136 290.258 100.296 291.126 99.246ZM294.752 101.388L295.41 101.696C294.136 103.992 291.364 105.602 287.08 106.512L286.632 105.91C290.888 104.986 293.59 103.488 294.752 101.388ZM292.918 100.394L293.52 100.786C291.91 102.634 289.838 103.796 287.304 104.258L286.87 103.656C289.46 103.236 291.476 102.144 292.918 100.394ZM308.08 101.024C307.548 100.674 307.114 100.31 306.792 99.918H303.166C302.816 100.31 302.382 100.688 301.878 101.024H308.08ZM307.562 99.918C308.346 100.646 309.578 101.206 311.23 101.626L310.922 102.284C310.054 102.018 309.312 101.724 308.71 101.402V104.258H307.968V101.654H302.144V104.258H301.416V101.304C300.758 101.668 299.988 102.004 299.12 102.298L298.742 101.668C300.394 101.206 301.612 100.618 302.41 99.918H299.092V99.288H303.012V98.266H301.122V97.678H303.012V96.684H300.842V96.082H303.012V95.116H300.17V96.586H299.442V94.458H304.734C304.538 94.122 304.342 93.828 304.132 93.576L304.93 93.45C305.126 93.744 305.322 94.08 305.504 94.458H310.558V96.586H309.83V95.116H306.988V96.082H309.158V96.684H306.988V97.678H308.892V98.266H306.988V99.288H310.936V99.918H307.562ZM306.232 95.116H303.754V96.082H306.232V95.116ZM303.754 99.288H306.232V98.266H303.754V99.288ZM306.232 97.678V96.684H303.754V97.678H306.232ZM305.826 104.104C307.394 104.58 308.822 105.168 310.11 105.868L309.718 106.47C308.332 105.714 306.904 105.112 305.434 104.678L305.826 104.104ZM304.566 102.2L305.294 102.27C305.126 103.712 304.748 104.692 304.188 105.224C303.544 105.854 302.158 106.26 300.058 106.428L299.764 105.77C301.696 105.658 302.97 105.336 303.586 104.776C304.146 104.272 304.482 103.404 304.566 102.2ZM312.77 101.43H321.366V100.436H322.122V101.43H325.216V102.186H322.122V105.336C322.122 106.036 321.73 106.4 320.974 106.4H319.154L318.986 105.672C319.574 105.7 320.148 105.714 320.708 105.714C321.142 105.714 321.366 105.532 321.366 105.168V102.186H312.77V101.43ZM323.074 94.192V97.356H315.038V98.616C315.038 98.98 315.234 99.176 315.626 99.176H323.242C323.564 99.176 323.788 99.064 323.914 98.854C324.026 98.686 324.096 98.294 324.152 97.678L324.866 97.916C324.796 98.546 324.698 98.994 324.586 99.274C324.376 99.666 323.998 99.876 323.438 99.876H315.388C314.646 99.876 314.282 99.526 314.282 98.854V94.192H323.074ZM315.038 96.656H322.318V94.892H315.038V96.656ZM315.766 102.774C316.718 103.53 317.53 104.286 318.174 105.042L317.614 105.602C317.026 104.874 316.228 104.104 315.22 103.306L315.766 102.774ZM334.834 96.558C334.75 96.866 334.68 97.16 334.61 97.44C335.002 99.204 335.534 100.73 336.192 101.99C336.92 100.45 337.312 98.63 337.354 96.558H334.834ZM335.814 102.704C335.17 101.528 334.652 100.17 334.232 98.616C333.924 99.456 333.588 100.198 333.21 100.828L332.734 100.24C333.658 98.602 334.288 96.376 334.624 93.576L335.324 93.716C335.226 94.458 335.114 95.158 334.988 95.816H339.09V96.558H338.068C338.012 98.98 337.522 101.038 336.598 102.718C337.382 104.02 338.32 105.014 339.412 105.714L338.992 106.344C337.9 105.616 336.976 104.636 336.206 103.39C335.408 104.622 334.372 105.644 333.112 106.456L332.72 105.812C334.036 105 335.058 103.964 335.814 102.704ZM332.51 104.09V104.832C330.774 105.294 328.912 105.672 326.896 105.966L326.728 105.238C327.61 105.126 328.478 104.986 329.318 104.832V102.046H327.134V101.318H329.318V99.428H330.06V101.318H332.174V102.046H330.06V104.692C330.9 104.51 331.712 104.314 332.51 104.09ZM326.686 94.262H332.608V94.99H329.934C329.178 96.614 328.52 97.72 327.988 98.336C329.136 98.252 330.256 98.126 331.376 97.972C331.096 97.37 330.816 96.824 330.536 96.32L331.194 96.096C331.754 97.062 332.244 98.098 332.664 99.204L332.006 99.498C331.894 99.19 331.768 98.882 331.656 98.602C330.256 98.77 328.716 98.924 327.064 99.036L326.896 98.364C326.966 98.336 327.022 98.308 327.064 98.294C327.596 97.888 328.31 96.782 329.192 94.99H326.686V94.262ZM345.544 96.096V105.504H344.816V104.65H341.988V105.896H341.26V96.096H342.52C342.814 95.298 343.024 94.458 343.15 93.59L343.92 93.688C343.766 94.556 343.542 95.354 343.248 96.096H345.544ZM341.988 103.95H344.816V100.632H341.988V103.95ZM341.988 99.946H344.816V96.824H341.988V99.946ZM347.924 99.26C348.988 100.436 349.8 101.458 350.36 102.34L349.758 102.774C349.17 101.822 348.344 100.786 347.308 99.652L347.924 99.26ZM352.796 96.11C352.796 100.632 352.726 103.432 352.6 104.496C352.46 105.616 351.816 106.176 350.654 106.176C350.388 106.176 349.926 106.162 349.282 106.148L349.1 105.448C349.66 105.476 350.15 105.49 350.57 105.49C351.326 105.49 351.76 105.07 351.872 104.244C351.984 103.404 352.04 100.94 352.068 96.866H347.938C347.546 97.776 347.084 98.588 346.524 99.316L346.076 98.728C347.084 97.328 347.77 95.606 348.134 93.576L348.876 93.66C348.708 94.528 348.498 95.354 348.232 96.11H352.796ZM360.538 96.67H363.8C364.36 95.704 364.85 94.668 365.242 93.562L365.956 93.814C365.55 94.892 365.088 95.844 364.584 96.67H366.292V100.912H364.78V104.902C364.78 105.294 364.934 105.49 365.242 105.49H365.914C366.152 105.49 366.32 105.392 366.418 105.224C366.558 104.986 366.642 104.314 366.684 103.194L367.356 103.404C367.272 104.706 367.132 105.518 366.936 105.826C366.74 106.05 366.446 106.176 366.04 106.176H365.018C364.374 106.176 364.052 105.798 364.052 105.042V100.912H362.568C362.47 103.432 361.616 105.28 360.006 106.428L359.586 105.77C361.014 104.776 361.756 103.152 361.84 100.912H360.538V96.67ZM365.592 100.212V97.37H361.252V100.212H365.592ZM361.504 93.758C361.966 94.486 362.4 95.298 362.792 96.194L362.162 96.516C361.756 95.592 361.336 94.78 360.888 94.066L361.504 93.758ZM354.966 97.468H357.08V95.158C356.436 95.27 355.75 95.354 355.036 95.438L354.882 94.724C356.604 94.556 358.116 94.262 359.432 93.842L359.684 94.542C359.096 94.724 358.48 94.878 357.808 95.018V97.468H359.628V98.21H357.808V99.176C358.508 99.932 359.208 100.8 359.922 101.752L359.488 102.382C358.844 101.374 358.284 100.562 357.808 99.946V106.274H357.08V99.708C356.576 101.192 355.876 102.522 354.98 103.698L354.644 102.858C355.764 101.486 356.562 99.946 357.024 98.21H354.966V97.468ZM372.956 93.548L373.726 93.66C373.558 94.066 373.348 94.458 373.124 94.822H379.326V95.438C378.388 96.53 377.24 97.44 375.882 98.182C377.506 98.91 379.34 99.386 381.37 99.61L381.034 100.324C378.794 100.058 376.806 99.484 375.056 98.602C373.32 99.4 371.304 99.974 368.98 100.338L368.63 99.638C370.772 99.344 372.648 98.854 374.258 98.168C373.39 97.65 372.578 97.062 371.822 96.39C371.276 96.894 370.646 97.37 369.932 97.79L369.47 97.188C371.192 96.208 372.354 94.99 372.956 93.548ZM375.07 97.79C376.302 97.16 377.366 96.404 378.248 95.536H372.606C372.508 95.648 372.41 95.76 372.326 95.872C373.152 96.628 374.062 97.258 375.07 97.79ZM374.314 99.722H375.056C375.056 100.338 375 100.898 374.902 101.43H379.886C379.858 103.726 379.648 105.112 379.242 105.56C378.836 106.008 378.122 106.246 377.114 106.246C376.694 106.246 376.176 106.232 375.574 106.204L375.378 105.504C376.008 105.532 376.526 105.56 376.946 105.56C377.87 105.546 378.458 105.364 378.696 105C378.934 104.622 379.074 103.656 379.13 102.116H374.734C374.594 102.536 374.44 102.914 374.244 103.264C373.502 104.524 371.864 105.56 369.316 106.372L368.812 105.77C371.108 105.084 372.648 104.202 373.432 103.138C373.628 102.816 373.782 102.48 373.922 102.116H369.596V101.43H374.132C374.244 100.898 374.314 100.324 374.314 99.722ZM383.54 97.888H388.524V102.046H383.54V97.888ZM387.782 101.346V98.602H384.31V101.346H387.782ZM389.028 103.068V103.796C387.18 104.314 385.178 104.748 383.022 105.084L382.84 104.314C385.01 104.034 387.068 103.614 389.028 103.068ZM393.774 106.33C393.102 106.302 392.444 105.854 391.828 104.972C391.604 104.664 391.422 104.342 391.268 103.978C390.456 104.986 389.574 105.784 388.594 106.372L388.16 105.728C389.196 105.112 390.12 104.258 390.932 103.18C390.722 102.634 390.554 102.032 390.414 101.374C390.12 99.932 389.966 98.224 389.952 96.236H382.812V95.48H389.952V93.604H390.708V95.48H393.046C392.794 94.92 392.514 94.402 392.206 93.954L392.962 93.828C393.242 94.304 393.522 94.864 393.788 95.48H395.174V96.236H390.708C390.736 98.056 390.862 99.638 391.114 100.996C391.212 101.5 391.324 101.962 391.464 102.41C392.304 101.08 393.004 99.47 393.578 97.58L394.25 97.944C393.578 100.086 392.752 101.864 391.772 103.292C391.926 103.698 392.108 104.062 392.304 104.398C392.808 105.14 393.27 105.518 393.69 105.518C394.082 105.518 394.418 104.678 394.698 102.998L395.328 103.418C394.978 105.35 394.46 106.33 393.774 106.33ZM402.72 93.604H403.28C405.072 95.704 407.144 97.37 409.496 98.588L409.09 99.288C406.71 98.014 404.68 96.348 403 94.29C401.46 96.222 399.402 97.902 396.854 99.316L396.462 98.602C398.968 97.258 401.054 95.592 402.72 93.604ZM407.326 100.842V106.344H406.584V105.434H399.416V106.344H398.674V100.842H407.326ZM399.416 104.706H406.584V101.57H399.416V104.706ZM399.388 98.112H406.612V98.854H399.388V98.112ZM411.022 95.746H413.108V93.744H413.864V95.746H415.838V96.474H413.864V98.56C413.864 98.714 413.85 98.868 413.85 99.022H416.034V99.75H413.822C413.794 100.156 413.752 100.548 413.696 100.926C414.508 101.738 415.334 102.648 416.174 103.67L415.74 104.3C414.9 103.152 414.172 102.27 413.57 101.64C413.178 103.684 412.38 105.28 411.19 106.414L410.616 105.91C412.044 104.566 412.87 102.522 413.066 99.75H410.84V99.022H413.094C413.094 98.868 413.108 98.714 413.108 98.56V96.474H411.022V95.746ZM422.25 94.234V101.808H421.508V94.948H417.546V101.808H416.804V94.234H422.25ZM421.956 106.19H420.836C420.164 106.19 419.842 105.826 419.842 105.112V101.934H420.556V104.972C420.556 105.336 420.724 105.518 421.06 105.518H421.83C422.11 105.518 422.32 105.434 422.432 105.294C422.6 105.098 422.698 104.538 422.754 103.614L423.412 103.838C423.328 104.944 423.174 105.63 422.936 105.896C422.726 106.092 422.404 106.19 421.956 106.19ZM419.17 96.278H419.884V98.686C419.856 100.758 419.478 102.424 418.778 103.67C418.078 104.832 416.944 105.742 415.362 106.4L414.956 105.77C416.496 105.126 417.602 104.258 418.26 103.138C418.848 102.004 419.142 100.52 419.17 98.686V96.278ZM428.578 96.824C429.46 97.902 430.258 98.924 430.986 99.904C431.616 98.798 432.106 97.594 432.456 96.292L433.212 96.432C432.778 97.972 432.204 99.358 431.49 100.59C432.372 101.822 433.114 102.97 433.73 104.02L433.058 104.496C432.47 103.46 431.798 102.41 431.042 101.318C430.16 102.634 429.096 103.768 427.836 104.72L427.318 104.09C428.606 103.11 429.684 101.948 430.552 100.618C429.768 99.526 428.9 98.392 427.948 97.216L428.578 96.824ZM426.338 94.206H435.2V99.736C435.2 102.144 435.284 103.684 435.48 104.37C435.648 105.028 435.872 105.364 436.138 105.364C436.362 105.35 436.558 104.65 436.712 103.25L437.384 103.572C437.244 104.608 437.062 105.322 436.852 105.742C436.656 106.064 436.446 106.232 436.208 106.232C435.592 106.232 435.144 105.784 434.864 104.916C434.57 104.062 434.43 102.34 434.43 99.736V94.948H427.094V99.554C427.066 102.256 426.492 104.524 425.386 106.344L424.756 105.84C425.764 104.174 426.282 102.074 426.338 99.554V94.206ZM439.302 94.276H443.236V94.864C442.816 96.18 442.326 97.538 441.752 98.938C442.62 100.142 443.096 101.276 443.166 102.326C443.152 102.858 443.012 103.25 442.732 103.488C442.368 103.782 441.738 103.936 440.814 103.936L440.576 103.18C440.744 103.208 440.87 103.222 440.982 103.222C441.542 103.194 441.934 103.11 442.13 102.97C442.312 102.844 442.41 102.634 442.41 102.326C442.41 101.346 441.934 100.254 440.982 99.05C441.626 97.538 442.116 96.18 442.48 94.976H440.058V106.372H439.302V94.276ZM445.028 97.734H449.326V98.434H445.028V97.734ZM443.012 105.098H447.898C448.612 103.572 449.228 101.682 449.76 99.428L450.502 99.624C449.998 101.682 449.382 103.502 448.654 105.098H451.244V105.826H443.012V105.098ZM444.482 99.974C445 101.15 445.448 102.494 445.84 104.006L445.182 104.174C444.832 102.788 444.384 101.458 443.838 100.198L444.482 99.974ZM446.708 99.4C447.128 100.548 447.492 101.85 447.828 103.32L447.17 103.488C446.876 102.144 446.512 100.856 446.064 99.624L446.708 99.4ZM446.792 93.674H447.492C448.276 95.494 449.634 97.104 451.538 98.49L451.118 99.12C449.34 97.86 448.01 96.292 447.142 94.43C446.106 96.46 444.79 98.014 443.222 99.106L442.83 98.504C444.538 97.258 445.868 95.648 446.792 93.674ZM455.5 103.096C455.976 103.096 456.382 103.25 456.732 103.572C457.068 103.894 457.236 104.3 457.236 104.776C457.236 105.252 457.068 105.644 456.732 105.98C456.382 106.288 455.976 106.456 455.5 106.456C455.024 106.456 454.604 106.288 454.268 105.98C453.932 105.658 453.764 105.252 453.764 104.776C453.764 104.286 453.932 103.88 454.268 103.572C454.604 103.25 455.024 103.096 455.5 103.096ZM455.5 103.684C455.178 103.684 454.912 103.782 454.702 104.006C454.478 104.202 454.366 104.468 454.366 104.776C454.366 105.084 454.478 105.336 454.702 105.546C454.912 105.756 455.178 105.868 455.5 105.868C455.808 105.868 456.074 105.756 456.298 105.546C456.522 105.336 456.634 105.084 456.634 104.776C456.634 104.468 456.522 104.216 456.298 104.006C456.074 103.782 455.808 103.684 455.5 103.684ZM44.06 154.578C43.988 154.83 43.934 155.064 43.862 155.316C44.258 157.098 44.744 158.664 45.338 160.014C45.878 158.43 46.184 156.612 46.256 154.578H44.06ZM44.474 161.94C43.898 160.752 43.394 159.42 42.962 157.944C42.692 158.538 42.404 159.096 42.116 159.6L40.946 158.142C41.936 156.162 42.602 153.516 42.944 150.204L44.78 150.528C44.672 151.32 44.564 152.058 44.438 152.76H48.938V154.578H47.948C47.84 157.476 47.318 159.942 46.364 161.994C47.228 163.434 48.254 164.568 49.442 165.378L48.398 166.908C47.282 166.08 46.292 165 45.446 163.668C44.6 164.928 43.556 166.008 42.332 166.89L41.36 165.306C42.656 164.442 43.7 163.326 44.474 161.94ZM35.96 158.556L37.724 158.772C37.616 159.042 37.526 159.312 37.436 159.564H41.054V161.076C40.748 162.12 40.208 163.056 39.416 163.848C40.118 164.154 40.802 164.478 41.468 164.838L40.46 166.314C39.776 165.9 38.948 165.468 37.976 165.018C36.788 165.774 35.312 166.368 33.53 166.836L32.666 165.27C33.962 164.982 35.078 164.604 36.032 164.172C35.312 163.866 34.538 163.56 33.746 163.254C34.178 162.534 34.556 161.832 34.88 161.166H33.098V159.564H35.6C35.726 159.204 35.852 158.88 35.96 158.556ZM37.724 163.146C38.462 162.57 39.02 161.904 39.398 161.166H36.734C36.5 161.634 36.248 162.084 35.996 162.516C36.572 162.696 37.148 162.912 37.724 163.146ZM34.862 150.474C35.24 151.14 35.582 151.86 35.87 152.634L34.538 153.228C34.178 152.364 33.8 151.608 33.404 150.942L34.862 150.474ZM39.92 150.456L41.234 151.086C40.874 151.842 40.424 152.58 39.866 153.3L38.552 152.634C39.128 151.896 39.596 151.176 39.92 150.456ZM33.134 153.498H36.482V150.24H38.21V153.498H41.27V155.136H38.21V155.172C39.146 155.55 40.1 155.982 41.072 156.468L40.1 157.944C39.344 157.35 38.714 156.882 38.21 156.54V158.43H36.482V155.604C35.87 156.828 34.934 157.89 33.638 158.826L32.702 157.314C33.872 156.648 34.736 155.928 35.276 155.136H33.134V153.498ZM52.97 166.71H51.44L51.044 164.946C51.494 165.018 51.926 165.072 52.34 165.072C52.718 165.072 52.916 164.838 52.916 164.388V160.752C52.304 160.968 51.71 161.184 51.098 161.382L50.612 159.528C51.386 159.348 52.16 159.132 52.916 158.88V155.28H50.972V153.462H52.916V150.276H54.752V153.462H56.282V155.28H54.752V158.142C55.256 157.908 55.742 157.674 56.21 157.422V159.258C55.706 159.51 55.22 159.744 54.752 159.978V164.856C54.752 166.08 54.158 166.71 52.97 166.71ZM58.658 158.952C58.442 161.958 57.758 164.604 56.624 166.908L55.148 165.594C56.318 163.308 56.912 160.356 56.93 156.756V150.78H66.794V155.55H63.554V157.242H67.19V158.952H63.554V160.68H66.398V166.872H64.67V166.134H60.62V166.872H58.892V160.68H61.718V158.952H58.658ZM61.718 155.55H58.748V156.756C58.748 156.918 58.73 157.08 58.73 157.242H61.718V155.55ZM60.62 164.478H64.67V162.336H60.62V164.478ZM64.958 152.49H58.748V153.894H64.958V152.49ZM84.182 161.094H74.93V159.51H82.364V158.664H75.326V157.08H82.364V156.216H75.596V155.298C75.452 155.406 75.308 155.496 75.182 155.586L74.12 154.2C73.796 155.136 73.454 156.09 73.094 157.062C73.958 158.736 74.426 160.176 74.498 161.4C74.498 162.264 74.354 162.894 74.066 163.29C73.598 163.758 72.824 163.992 71.726 164.01L71.096 162.12C71.51 162.174 71.852 162.21 72.104 162.21C72.32 162.174 72.482 162.102 72.572 161.994C72.644 161.886 72.68 161.688 72.68 161.4C72.68 160.194 72.212 158.844 71.276 157.35C71.978 155.568 72.536 153.966 72.95 152.544H71.06V166.89H69.224V150.78H74.786V152.256C74.588 152.868 74.39 153.462 74.174 154.074C75.812 152.994 76.91 151.698 77.486 150.15L79.358 150.384C79.25 150.708 79.124 151.014 78.98 151.302H82.976V152.652C82.526 153.39 82.076 154.038 81.626 154.596H84.182V161.094ZM78.026 152.904C77.558 153.516 77.036 154.074 76.46 154.596H79.592C80.006 154.11 80.438 153.552 80.87 152.904H78.026ZM84.092 161.49C84.65 162.606 85.136 163.812 85.568 165.09L84.002 165.792C83.552 164.352 83.048 163.092 82.508 161.994L84.092 161.49ZM75.056 161.904L76.676 162.246C76.334 163.812 75.848 165.162 75.236 166.296L73.688 165.306C74.318 164.226 74.768 163.092 75.056 161.904ZM81.338 166.728H78.782C77.63 166.728 77.072 166.044 77.072 164.676V161.76H78.8V164.316C78.8 164.82 78.962 165.072 79.322 165.072H81.05C81.194 165.072 81.32 165 81.41 164.874C81.518 164.73 81.59 164.316 81.626 163.596L83.228 164.136C83.102 165.396 82.886 166.152 82.598 166.386C82.31 166.602 81.896 166.728 81.338 166.728ZM80.51 161.238C81.122 161.976 81.608 162.624 81.95 163.182L80.564 164.136C80.222 163.524 79.754 162.84 79.16 162.084L80.51 161.238ZM100.76 157.494C101.714 160.086 102.56 163.038 103.316 166.386L101.444 166.872C101.3 166.224 101.174 165.594 101.03 165C98.69 165.432 96.17 165.828 93.47 166.224L93.128 164.424C93.632 164.28 93.92 164.082 94.01 163.812L97.61 150.726L99.482 150.978L95.846 164.01C97.682 163.74 99.266 163.47 100.598 163.218C100.148 161.454 99.644 159.726 99.086 158.07L100.76 157.494ZM87.116 154.866H90.104V152.814C89.276 152.922 88.43 153.012 87.566 153.084L87.17 151.284C89.762 151.104 92.066 150.762 94.1 150.258L94.748 151.986C93.884 152.202 92.966 152.382 91.994 152.544V154.866H94.694V156.684H91.994V157.188C92.84 157.98 93.704 158.862 94.568 159.834L93.524 161.418C92.93 160.428 92.426 159.618 91.994 159.006V166.818H90.104V159.492C89.42 160.95 88.574 162.282 87.566 163.506L86.72 161.346C88.196 159.978 89.276 158.412 89.96 156.684H87.116V154.866ZM108.5 153.732C108.896 153.732 109.22 153.858 109.508 154.146C109.778 154.416 109.922 154.758 109.922 155.154C109.922 155.55 109.778 155.874 109.508 156.144C109.22 156.414 108.896 156.558 108.5 156.558C108.104 156.558 107.762 156.414 107.492 156.144C107.222 155.874 107.096 155.55 107.096 155.154C107.096 154.758 107.222 154.416 107.492 154.146C107.762 153.858 108.104 153.732 108.5 153.732ZM108.5 160.32C108.896 160.32 109.22 160.446 109.508 160.734C109.778 161.004 109.922 161.346 109.922 161.742C109.922 162.138 109.778 162.462 109.508 162.732C109.22 163.002 108.896 163.146 108.5 163.146C108.104 163.146 107.762 163.002 107.492 162.732C107.222 162.462 107.096 162.138 107.096 161.742C107.096 161.346 107.222 161.004 107.492 160.734C107.762 160.446 108.104 160.32 108.5 160.32ZM34.842 188.322V190.786C34.842 190.856 34.828 190.926 34.828 191.01H38.678V188.322H34.842ZM34.786 191.724C34.646 193.544 34.114 195.042 33.204 196.218L32.644 195.7C33.568 194.426 34.044 192.802 34.072 190.842V184.206H44.292V194.678C44.292 195.588 43.83 196.05 42.92 196.05H41.31L41.114 195.308C41.674 195.336 42.192 195.35 42.668 195.35C43.242 195.35 43.536 195.028 43.536 194.398V191.724H39.434V195.896H38.678V191.724H34.786ZM43.536 191.01V188.322H39.434V191.01H43.536ZM43.536 187.622V184.948H39.434V187.622H43.536ZM38.678 184.948H34.842V187.622H38.678V184.948ZM57.354 186.138H49.066V189.162H57.354V186.138ZM49.066 189.904C49.01 192.424 48.338 194.608 47.064 196.428L46.49 195.91C47.694 194.286 48.31 192.2 48.324 189.652V185.382H52.944C52.692 184.738 52.412 184.164 52.104 183.66L52.902 183.52C53.182 184.066 53.448 184.682 53.7 185.382H58.124V189.904H49.066ZM60.854 185.354H66.79C66.538 184.724 66.244 184.15 65.922 183.646L66.748 183.506C67.056 184.038 67.336 184.654 67.602 185.354H73.16V186.068H60.854V185.354ZM69.142 186.684C70.696 187.93 71.998 189.176 73.048 190.436L72.488 190.982C71.536 189.792 70.234 188.532 68.61 187.188L69.142 186.684ZM69.478 189.274L70.178 189.582C69.492 190.898 68.638 192.046 67.616 192.998C69.156 194.16 71.046 195.028 73.286 195.616L72.838 196.316C70.514 195.672 68.582 194.734 67.042 193.516C65.474 194.832 63.542 195.784 61.246 196.372L60.784 195.7C63.052 195.112 64.942 194.23 66.454 193.026C65.376 192.074 64.508 190.996 63.836 189.764L64.494 189.386C65.138 190.59 65.992 191.626 67.028 192.522C68.036 191.598 68.862 190.506 69.478 189.274ZM64.774 186.684L65.334 187.188C64.27 188.574 62.954 189.778 61.386 190.814L60.896 190.184C62.436 189.19 63.724 188.028 64.774 186.684ZM78.928 188.91H76.828V184.164H85.242V188.91H79.754C79.474 189.358 79.124 189.792 78.718 190.198H86.25C86.208 191.682 86.124 192.872 86.012 193.782C85.872 194.678 85.648 195.308 85.354 195.672C85.06 196.022 84.584 196.218 83.926 196.246H82.204L82.022 195.518C82.554 195.546 83.072 195.56 83.562 195.56C84.29 195.56 84.78 195.266 85.018 194.692C85.256 194.104 85.41 192.83 85.494 190.898H83.926C82.75 193.628 80.804 195.434 78.116 196.33L77.696 195.7C80.244 194.86 82.078 193.264 83.17 190.898H81.084C80.132 192.48 78.536 193.726 76.268 194.636L75.778 194.048C77.92 193.236 79.418 192.186 80.286 190.898H77.92C77.22 191.444 76.38 191.934 75.428 192.354L75.008 191.696C76.8 190.968 78.116 190.03 78.928 188.91ZM84.486 188.238V186.852H77.57V188.238H84.486ZM77.57 186.208H84.486V184.822H77.57V186.208ZM97.128 186.558C97.044 186.852 96.974 187.132 96.904 187.398C97.282 189.134 97.772 190.646 98.388 191.906C99.018 190.38 99.354 188.602 99.396 186.558H97.128ZM98.038 192.662C97.422 191.486 96.932 190.114 96.54 188.574C96.26 189.33 95.952 189.988 95.616 190.576L95.14 189.988C95.994 188.392 96.568 186.25 96.876 183.548L97.632 183.688C97.534 184.444 97.422 185.144 97.296 185.816H101.104V186.558H100.096C100.04 188.966 99.606 190.996 98.794 192.676C99.55 194.006 100.46 195.028 101.496 195.742L101.062 196.358C100.026 195.63 99.158 194.636 98.43 193.376C97.744 194.552 96.862 195.546 95.77 196.33L95.364 195.7C96.484 194.902 97.38 193.894 98.038 192.662ZM91.388 190.1L92.116 190.184C92.004 190.492 91.892 190.786 91.78 191.066H94.776V191.682C94.44 192.662 93.866 193.516 93.082 194.216C93.81 194.538 94.524 194.888 95.196 195.252L94.79 195.854C94.118 195.462 93.348 195.07 92.508 194.692C91.57 195.378 90.394 195.924 88.994 196.33L88.63 195.7C89.862 195.35 90.912 194.902 91.766 194.37C91.122 194.09 90.436 193.81 89.722 193.544C90.114 192.9 90.45 192.298 90.73 191.724H88.938V191.066H91.024C91.164 190.73 91.276 190.408 91.388 190.1ZM92.382 193.922C93.166 193.292 93.726 192.564 94.076 191.724H91.486C91.234 192.256 90.94 192.774 90.632 193.25C91.234 193.46 91.822 193.684 92.382 193.922ZM89.89 183.912C90.24 184.458 90.548 185.046 90.828 185.69L90.254 185.942C89.96 185.256 89.638 184.64 89.274 184.108L89.89 183.912ZM94.342 183.828L94.902 184.094C94.622 184.724 94.258 185.34 93.824 185.956L93.264 185.662C93.712 185.046 94.076 184.43 94.342 183.828ZM88.98 186.348H91.752V183.618H92.466V186.348H95.112V187.034H92.466V187.202C93.25 187.636 94.062 188.126 94.874 188.686L94.468 189.288C93.684 188.644 93.012 188.14 92.466 187.776V189.792H91.752V187.034H91.71C91.262 188.154 90.408 189.134 89.12 189.974L88.728 189.344C89.918 188.672 90.716 187.902 91.136 187.034H88.98V186.348ZM104.296 196.232H103.106L102.952 195.518C103.316 195.546 103.68 195.574 104.03 195.574C104.408 195.574 104.604 195.364 104.604 194.944V191.192C104.016 191.416 103.428 191.612 102.826 191.794L102.63 191.052C103.302 190.884 103.96 190.688 104.604 190.45V187.104H102.854V186.362H104.604V183.646H105.36V186.362H106.788V187.104H105.36V190.156C105.836 189.946 106.298 189.722 106.746 189.484V190.226C106.298 190.464 105.836 190.688 105.36 190.884V195.126C105.36 195.854 104.996 196.232 104.296 196.232ZM108.342 189.988C108.174 192.41 107.614 194.538 106.676 196.358L106.088 195.84C107.124 193.936 107.642 191.472 107.656 188.476V184.234H114.908V187.44H112.206V189.274H115.286V189.988H112.206V191.892H114.628V196.358H113.928V195.63H109.742V196.358H109.042V191.892H111.45V189.988H108.342ZM111.45 187.44H108.398V188.476C108.398 188.756 108.384 189.022 108.384 189.274H111.45V187.44ZM109.742 194.93H113.928V192.592H109.742V194.93ZM114.166 184.948H108.398V186.754H114.166V184.948ZM119.724 183.548L120.438 183.87C120.088 184.948 119.654 185.956 119.15 186.894V196.4H118.394V188.14C117.904 188.854 117.372 189.526 116.784 190.17L116.546 189.386C118.016 187.664 119.08 185.718 119.724 183.548ZM128.894 196.33C127.34 195.266 126.052 194.132 125.03 192.9C123.896 194.3 122.524 195.448 120.9 196.344L120.41 195.728C122.076 194.832 123.448 193.684 124.54 192.284C122.972 190.198 122.076 187.86 121.852 185.284H121.152V184.542H128.278V185.228C127.788 188.028 126.85 190.38 125.464 192.312C126.5 193.558 127.816 194.706 129.412 195.742L128.894 196.33ZM124.974 191.696C126.206 189.918 127.046 187.776 127.494 185.284H122.58C122.748 187.664 123.546 189.792 124.974 191.696ZM132.842 188.322V190.786C132.842 190.856 132.828 190.926 132.828 191.01H136.678V188.322H132.842ZM132.786 191.724C132.646 193.544 132.114 195.042 131.204 196.218L130.644 195.7C131.568 194.426 132.044 192.802 132.072 190.842V184.206H142.292V194.678C142.292 195.588 141.83 196.05 140.92 196.05H139.31L139.114 195.308C139.674 195.336 140.192 195.35 140.668 195.35C141.242 195.35 141.536 195.028 141.536 194.398V191.724H137.434V195.896H136.678V191.724H132.786ZM141.536 191.01V188.322H137.434V191.01H141.536ZM141.536 187.622V184.948H137.434V187.622H141.536ZM136.678 184.948H132.842V187.622H136.678V184.948ZM145.722 184.206H156.18V184.948H151.504V189.05H157.146V189.806H151.504V194.944C151.504 195.798 151.056 196.232 150.188 196.232H148.046L147.878 195.49C148.592 195.518 149.278 195.546 149.936 195.546C150.468 195.546 150.748 195.28 150.748 194.748V189.806H144.854V189.05H150.748V184.948H145.722V184.206ZM165.406 183.618H166.12V196.358H165.406V193.208H162.522V192.508H165.406V189.862H163.306V189.162H165.406V186.614H163.11V185.914H165.406V183.618ZM160.184 196.232H158.868L158.714 195.504C159.134 195.532 159.526 195.56 159.918 195.56C160.324 195.56 160.534 195.364 160.534 194.972V191.36C159.974 191.584 159.428 191.794 158.868 191.976L158.672 191.22C159.316 191.038 159.946 190.828 160.534 190.604V187.104H158.952V186.362H160.534V183.646H161.29V186.362H162.62V187.104H161.29V190.282C161.794 190.044 162.284 189.792 162.76 189.512V190.282C162.284 190.548 161.794 190.8 161.29 191.024V195.154C161.29 195.868 160.912 196.232 160.184 196.232ZM168.038 183.618H168.766V185.914H171.258V186.614H168.766V189.162H170.992V189.862H168.766V192.508H171.356V193.208H168.766V196.358H168.038V183.618ZM176.83 195.448V196.316H176.074V191.276C175.15 191.584 174.156 191.878 173.12 192.13L172.742 191.416C175.234 190.87 177.292 190.17 178.916 189.302C178.272 188.742 177.376 188.14 176.256 187.496L176.914 187.09C178.062 187.776 178.93 188.392 179.546 188.938C181.086 188.014 182.206 186.922 182.906 185.69H177.446C176.508 186.586 175.29 187.384 173.778 188.084L173.288 187.426C175.696 186.376 177.32 185.088 178.174 183.576L178.986 183.674C178.748 184.122 178.468 184.542 178.132 184.962H183.774V185.648C182.682 187.678 180.736 189.316 177.922 190.562H184.138V196.316H183.368V195.448H176.83ZM183.368 194.706V191.276H176.83V194.706H183.368ZM191.348 193.362V194.076C190.06 194.734 188.604 195.266 186.98 195.658L186.882 194.902C188.59 194.51 190.074 193.992 191.348 193.362ZM189.276 183.604L189.99 183.884C189.248 185.788 188.506 187.286 187.75 188.364C188.478 188.252 189.206 188.112 189.934 187.93C190.186 187.454 190.438 186.964 190.718 186.446L191.39 186.698C190.074 189.204 188.982 190.954 188.128 191.934C189.206 191.682 190.284 191.318 191.348 190.842V191.556C189.906 192.158 188.52 192.578 187.176 192.816L186.98 192.088C187.12 192.032 187.232 191.962 187.33 191.878C187.932 191.234 188.66 190.17 189.514 188.672C188.66 188.854 187.82 189.008 186.994 189.148L186.812 188.434C186.924 188.378 187.036 188.28 187.134 188.14C187.946 186.852 188.66 185.34 189.276 183.604ZM191.852 189.596L191.684 188.91C191.754 188.882 191.81 188.868 191.852 188.84C192.342 188.476 193 187.496 193.826 185.886H191.264V185.172H194.96C194.764 184.584 194.526 184.066 194.274 183.59L195.03 183.45C195.282 183.954 195.506 184.528 195.73 185.172H198.936V185.886H194.624C193.924 187.258 193.322 188.252 192.79 188.84C194.232 188.728 195.674 188.546 197.13 188.294C196.78 187.79 196.402 187.286 195.996 186.768L196.57 186.39C197.564 187.65 198.32 188.728 198.838 189.652L198.25 190.086C198.04 189.708 197.802 189.316 197.55 188.924C195.8 189.204 193.896 189.428 191.852 189.596ZM193.07 190.282H193.826C193.756 192.032 193.532 193.32 193.154 194.132C192.748 195 192.076 195.728 191.138 196.33L190.648 195.728C191.502 195.196 192.104 194.552 192.468 193.81C192.818 193.068 193.014 191.892 193.07 190.282ZM197.956 196.106H196.906C196.178 196.106 195.828 195.728 195.828 195V190.17H196.542V194.874C196.542 195.21 196.668 195.392 196.92 195.42H197.914C198.278 195.406 198.502 195.252 198.572 194.944C198.656 194.566 198.698 193.908 198.698 192.984L199.356 193.222C199.356 194.51 199.258 195.322 199.09 195.644C198.908 195.924 198.53 196.078 197.956 196.106ZM205.054 187.888H208.932V183.576H209.716V187.888H213.412V188.644H209.716V196.4H208.932V188.644H205.054V187.888ZM202.156 183.744C203.122 184.486 203.934 185.228 204.606 185.97L204.088 186.502C203.472 185.802 202.646 185.046 201.61 184.262L202.156 183.744ZM200.658 187.958H203.542V194.398C204.102 193.95 204.704 193.418 205.362 192.788L205.558 193.572C204.718 194.398 203.808 195.14 202.828 195.784L202.534 195.112C202.702 194.944 202.8 194.776 202.8 194.608V188.7H200.658V187.958ZM216.548 193.6C216.828 193.6 217.038 193.712 217.206 193.936C217.346 194.146 217.43 194.44 217.43 194.804C217.43 195.364 217.262 195.84 216.94 196.246C216.618 196.638 216.198 196.904 215.666 197.044V196.484C216.03 196.372 216.31 196.176 216.506 195.896C216.688 195.644 216.786 195.35 216.786 195.014C216.73 195.028 216.646 195.042 216.506 195.042C216.31 195.042 216.142 194.972 216.002 194.832C215.862 194.692 215.792 194.524 215.792 194.328C215.792 194.104 215.848 193.922 215.988 193.796C216.128 193.656 216.31 193.6 216.548 193.6ZM234.622 183.646H235.378V185.648H240.292V186.404H235.378V189.106H241.034V189.862H236.19C237.128 191.71 238.808 193.348 241.216 194.804L240.67 195.49C238.206 193.81 236.512 191.934 235.56 189.862H235.378V196.33H234.622V189.862H234.44C233.418 192.172 231.668 194.062 229.19 195.546L228.756 194.832C231.108 193.544 232.802 191.892 233.824 189.862H228.966V189.106H234.622V186.404H229.806V185.648H234.622V183.646ZM250.918 191.71H248.048V190.982H254.572V191.71H251.674V195.14H255.216V195.896H247.404V195.14H250.918V191.71ZM251.716 187.762C250.666 188.7 249.35 189.484 247.782 190.1L247.292 189.484C249.994 188.448 251.87 186.964 252.906 185.046H247.964V184.304H253.83V184.906C253.424 185.774 252.892 186.572 252.22 187.272C253.452 188.056 254.502 188.854 255.342 189.652L254.81 190.198C254.026 189.414 252.99 188.602 251.716 187.762ZM247.236 193.432V194.132C245.934 194.804 244.45 195.35 242.798 195.756L242.7 195.014C244.436 194.622 245.948 194.09 247.236 193.432ZM245.164 183.632L245.892 183.912C245.15 185.774 244.408 187.244 243.68 188.322C244.436 188.238 245.192 188.126 245.962 187.986L246.802 186.432L247.502 186.684C246.102 189.218 244.968 190.968 244.072 191.948C245.15 191.752 246.214 191.472 247.264 191.108V191.808C245.85 192.284 244.478 192.606 243.148 192.788L242.938 192.088C243.078 192.032 243.204 191.948 243.302 191.864C243.932 191.234 244.688 190.184 245.556 188.7C244.688 188.84 243.82 188.952 242.952 189.064L242.77 188.364C242.882 188.308 242.994 188.224 243.092 188.098C243.89 186.824 244.576 185.34 245.164 183.632ZM260.648 189.904H261.39C261.278 191.794 260.942 193.18 260.368 194.062C259.738 194.972 258.688 195.756 257.204 196.414L256.728 195.812C258.1 195.238 259.066 194.538 259.654 193.726C260.228 192.928 260.564 191.654 260.648 189.904ZM267.186 196.092H265.282C264.456 196.092 264.05 195.672 264.05 194.832V189.75H264.792V194.678C264.792 195.14 265.03 195.378 265.506 195.378H267.032C267.508 195.378 267.844 195.266 268.04 195.07C268.292 194.79 268.46 193.992 268.544 192.676L269.258 192.9C269.146 194.384 268.922 195.308 268.572 195.672C268.292 195.952 267.83 196.092 267.186 196.092ZM265.422 185.172C266.486 186.642 267.48 188.238 268.39 189.96L267.676 190.324C267.368 189.736 267.074 189.162 266.766 188.63C264.134 188.91 261.208 189.12 257.988 189.26L257.848 188.56C258.968 187.972 260.27 186.32 261.768 183.59L262.468 183.828C261.32 185.9 260.2 187.468 259.08 188.532C261.712 188.406 264.148 188.21 266.374 187.958C265.856 187.076 265.324 186.264 264.764 185.508L265.422 185.172ZM276.916 186.264C276.412 187.286 275.782 188.154 275.026 188.854L274.536 188.266C275.782 187.104 276.622 185.536 277.056 183.548L277.812 183.688C277.644 184.36 277.462 184.976 277.238 185.536H282.95V186.264H279.898V189.89H283.468V190.632H279.898V196.386H279.156V190.632H274.886V189.89H279.156V186.264H276.916ZM272.086 183.744C273.066 184.486 273.878 185.228 274.536 185.97L274.018 186.502C273.402 185.802 272.576 185.046 271.54 184.262L272.086 183.744ZM270.672 187.958H273.472V194.342C274.004 193.908 274.606 193.39 275.25 192.774L275.446 193.572C274.606 194.384 273.71 195.098 272.758 195.742L272.464 195.056C272.632 194.902 272.73 194.734 272.73 194.566V188.7H270.672V187.958ZM285.12 184.402H296.88V185.144H292.302C292.036 185.76 291.728 186.348 291.392 186.908V196.4H290.608V188.056C289.278 189.82 287.486 191.36 285.232 192.704L284.728 192.06C287.99 190.156 290.23 187.846 291.462 185.144H285.12V184.402ZM293.142 188.112C294.78 189.414 296.152 190.716 297.272 192.032L296.684 192.62C295.676 191.36 294.318 190.044 292.61 188.644L293.142 188.112ZM302.508 188.63H307.534V193.348H302.508V188.63ZM306.792 192.634V189.344H303.25V192.634H306.792ZM304.188 183.562L304.972 183.674C304.804 184.402 304.552 185.088 304.23 185.718H310.53V195.084C310.53 195.882 310.138 196.288 309.368 196.288H307.226L307.016 195.518L309.116 195.546C309.536 195.546 309.76 195.336 309.76 194.916V186.46H300.352V196.344H299.582V185.718H303.418C303.768 185.032 304.02 184.318 304.188 183.562ZM318.72 188.084H314.016V187.37H324.026V190.338H319.476V191.892H324.502C324.502 193.502 324.404 194.51 324.208 194.916C323.998 195.378 323.55 195.616 322.85 195.63C322.262 195.63 321.674 195.616 321.114 195.616L320.932 194.888C321.576 194.916 322.178 194.93 322.724 194.93C323.172 194.93 323.466 194.748 323.592 194.398C323.676 194.118 323.732 193.502 323.732 192.564H319.476V196.386H318.72V192.564H318.538C317.642 193.936 315.906 195.098 313.33 196.078L312.91 195.392C315.29 194.58 316.9 193.628 317.726 192.564H313.778L314.394 189.638H318.72V188.084ZM318.72 190.338H315.038L314.66 191.892H318.72V190.338ZM319.476 189.638H323.256V188.084H319.476V189.638ZM314.702 185.312C314.338 185.844 313.932 186.348 313.47 186.81L312.812 186.39C313.736 185.522 314.408 184.556 314.842 183.464L315.584 183.618C315.444 183.968 315.276 184.304 315.108 184.626H319.028V185.312H316.466C316.872 185.788 317.194 186.236 317.432 186.656L316.746 186.894C316.424 186.362 316.046 185.83 315.626 185.312H314.702ZM320.568 185.284C320.246 185.844 319.882 186.362 319.462 186.824L318.804 186.404C319.616 185.536 320.218 184.556 320.61 183.464L321.324 183.618C321.198 183.954 321.072 184.29 320.932 184.598H325.216V185.284H322.458C322.864 185.788 323.186 186.25 323.424 186.67L322.738 186.922C322.43 186.362 322.066 185.816 321.646 185.284H320.568ZM327.75 184.738H338.278V185.48H327.75V184.738ZM328.702 189.596H337.312V190.352H328.702V189.596ZM326.7 194.818H339.3V195.574H326.7V194.818ZM340.994 185.732H347.112C346.818 185.06 346.454 184.416 346.034 183.828L346.762 183.562C347.168 184.164 347.546 184.892 347.882 185.732H353.146V186.474H345.712C345.684 187.048 345.642 187.916 345.572 189.078C345.572 189.12 345.558 189.162 345.558 189.218H351.396C351.368 191.808 351.284 193.502 351.13 194.314C350.892 195.574 350.22 196.218 349.114 196.26C348.666 196.26 348.12 196.246 347.49 196.218L347.266 195.518C347.966 195.546 348.554 195.574 349.03 195.574C349.842 195.532 350.332 194.958 350.5 193.866C350.584 193.194 350.626 191.892 350.626 189.946H345.474C345.306 191.108 344.97 192.172 344.466 193.138C343.766 194.314 342.8 195.392 341.596 196.386L341.036 195.854C342.52 194.594 343.528 193.418 344.046 192.326C344.522 191.234 344.788 190.016 344.872 188.672C344.914 187.678 344.942 186.95 344.956 186.474H340.994V185.732ZM362.946 183.59H363.702V185.438H367.034V185.816C366.866 186.628 366.614 187.426 366.278 188.182L365.564 187.986C365.83 187.44 366.054 186.824 366.222 186.152H363.702V189.162H366.124V189.82C365.746 191.332 365.074 192.62 364.094 193.684C365.004 194.454 366.124 195.126 367.454 195.7L367.02 196.358C365.648 195.714 364.514 195 363.604 194.188C362.624 195.084 361.434 195.812 360.006 196.372L359.53 195.784C360.958 195.238 362.148 194.538 363.072 193.684C361.966 192.564 361.224 191.29 360.846 189.89H360.286C360.188 192.396 359.572 194.552 358.438 196.358L357.85 195.854C358.956 194.118 359.53 191.92 359.586 189.232V185.438H362.946V183.59ZM362.946 186.152H360.3V189.162H362.946V186.152ZM363.562 193.194C364.416 192.242 365.018 191.15 365.354 189.89H361.56C361.924 191.136 362.596 192.242 363.562 193.194ZM356.324 196.232H355.05L354.896 195.518C355.302 195.546 355.694 195.574 356.058 195.574C356.38 195.574 356.548 195.378 356.548 195V191.276C355.974 191.5 355.4 191.71 354.812 191.892L354.616 191.15C355.288 190.968 355.932 190.758 356.548 190.52V187.09H354.784V186.376H356.548V183.646H357.304V186.376H358.718V187.09H357.304V190.212C357.808 189.988 358.312 189.736 358.788 189.47V190.24C358.298 190.506 357.808 190.744 357.304 190.968V195.182C357.304 195.882 356.968 196.232 356.324 196.232ZM369.638 189.358H373.782V192.018H372.368V193.152H373.978V193.74H372.368V195.126C373.04 195 373.684 194.874 374.3 194.734V195.364C372.816 195.7 371.08 196.022 369.078 196.33L368.896 195.672L369.722 195.56V192.69H370.352V195.462L371.696 195.252V192.018H369.638V189.358ZM373.138 191.444V189.932H370.282V191.444H373.138ZM380.25 193.362V196.414H379.578V195.91H376.05V196.414H375.378V193.362H380.25ZM376.05 195.322H379.578V193.936H376.05V195.322ZM376.778 188.77L377.366 188.91C377.254 189.162 377.114 189.386 376.946 189.61H380.362V190.058C379.9 190.73 379.242 191.318 378.402 191.85C379.27 192.228 380.306 192.522 381.51 192.732L381.118 193.292C379.788 193.04 378.668 192.676 377.744 192.228C376.82 192.704 375.714 193.11 374.44 193.446L374.02 192.9C375.21 192.606 376.232 192.256 377.1 191.864C376.568 191.528 376.12 191.164 375.756 190.772C375.406 191.024 375.028 191.262 374.608 191.486L374.188 190.968C375.462 190.352 376.33 189.624 376.778 188.77ZM376.218 190.408C376.624 190.828 377.128 191.206 377.744 191.542C378.5 191.122 379.116 190.66 379.564 190.156H376.484C376.386 190.24 376.302 190.324 376.218 190.408ZM369.722 183.898H380.264V184.514H375.364V185.452H380.74V187.664H380.012V186.04H375.364V188.714H374.636V186.04H369.988V187.664H369.26V185.452H374.636V184.514H369.722V183.898ZM370.898 186.852H373.754V187.3H370.898V186.852ZM370.884 187.986H373.74V188.434H370.884V187.986ZM376.246 186.852H379.088V187.3H376.246V186.852ZM376.246 187.986H379.116V188.434H376.246V187.986ZM385.5 193.096C385.976 193.096 386.382 193.25 386.732 193.572C387.068 193.894 387.236 194.3 387.236 194.776C387.236 195.252 387.068 195.644 386.732 195.98C386.382 196.288 385.976 196.456 385.5 196.456C385.024 196.456 384.604 196.288 384.268 195.98C383.932 195.658 383.764 195.252 383.764 194.776C383.764 194.286 383.932 193.88 384.268 193.572C384.604 193.25 385.024 193.096 385.5 193.096ZM385.5 193.684C385.178 193.684 384.912 193.782 384.702 194.006C384.478 194.202 384.366 194.468 384.366 194.776C384.366 195.084 384.478 195.336 384.702 195.546C384.912 195.756 385.178 195.868 385.5 195.868C385.808 195.868 386.074 195.756 386.298 195.546C386.522 195.336 386.634 195.084 386.634 194.776C386.634 194.468 386.522 194.216 386.298 194.006C386.074 193.782 385.808 193.684 385.5 193.684ZM35.744 248.772H39.248V246.684C38.312 246.78 37.292 246.828 36.212 246.828L35.996 246.24C38.648 246.228 40.82 245.928 42.5 245.34L42.836 245.892C41.996 246.204 41.012 246.432 39.908 246.6V248.772H43.448V249.408H39.908V251.508H42.644V256.164H41.996V255.492H37.196V256.2H36.548V251.508H39.248V249.408H35.744V248.772ZM37.196 254.868H41.996V252.12H37.196V254.868ZM33.464 245.436C34.268 245.964 34.94 246.504 35.492 247.032L35.048 247.476C34.544 246.96 33.872 246.42 33.02 245.856L33.464 245.436ZM33.188 248.292C34.004 248.892 34.688 249.492 35.24 250.092L34.784 250.548C34.28 249.972 33.584 249.372 32.72 248.736L33.188 248.292ZM34.784 251.46L35.372 251.7C34.832 253.236 34.232 254.676 33.572 256.032L32.936 255.756C33.644 254.352 34.256 252.924 34.784 251.46ZM45.116 246.144H49.388V246.756H45.116V246.144ZM44.636 249.372H49.856V250.02H47.036C46.496 252 46.028 253.38 45.632 254.16C46.7 253.968 47.756 253.668 48.812 253.272C48.476 252.576 48.152 251.94 47.816 251.364L48.368 251.1C48.956 252.132 49.508 253.248 50.036 254.472L49.46 254.76C49.316 254.424 49.184 254.1 49.052 253.812C47.768 254.268 46.376 254.628 44.876 254.904L44.72 254.292C44.78 254.268 44.828 254.256 44.852 254.232C45.236 253.728 45.752 252.324 46.4 250.02H44.636V249.372ZM51.788 245.256H52.436V247.764H55.076C55.076 251.388 55.016 253.644 54.908 254.508C54.788 255.528 54.236 256.044 53.24 256.044C53.024 256.044 52.664 256.032 52.16 256.008L52.004 255.444C52.46 255.456 52.844 255.468 53.18 255.468C53.804 255.468 54.176 255.072 54.284 254.304C54.38 253.632 54.428 251.652 54.452 248.388H52.436V248.568C52.4 252.036 51.56 254.568 49.916 256.176L49.424 255.744C50.972 254.256 51.764 251.856 51.788 248.568V248.388H50.096V247.764H51.788V245.256ZM63.08 251.544C62.864 252 62.612 252.384 62.312 252.708L61.928 252.24C62.456 251.652 62.816 250.86 63.008 249.876L63.56 249.984C63.488 250.332 63.404 250.656 63.308 250.944H64.604V249.78H65.24V250.944H67.136V251.544H65.24V253.188H67.388V253.8H65.24V256.2H64.604V253.8H61.952V253.188H64.604V251.544H63.08ZM63.74 246.588H62.048V246.012H66.944C66.932 247.572 66.824 248.508 66.632 248.82C66.44 249.132 66.092 249.288 65.6 249.288C65.324 249.288 64.988 249.276 64.592 249.264L64.436 248.7C64.844 248.724 65.192 248.736 65.456 248.748C65.816 248.736 66.056 248.616 66.152 248.388C66.236 248.16 66.296 247.56 66.32 246.588H64.352C64.232 247.188 64.052 247.692 63.812 248.124C63.5 248.616 63.044 249.06 62.444 249.468L62.06 248.976C62.624 248.64 63.044 248.232 63.32 247.764C63.512 247.416 63.656 247.02 63.74 246.588ZM57.872 250.944V252.312C57.872 252.432 57.86 252.552 57.86 252.672H59.132V250.944H57.872ZM57.824 253.236C57.728 254.436 57.44 255.444 56.984 256.26L56.552 255.852C57.032 254.94 57.272 253.776 57.296 252.36V248.436C57.2 248.544 57.116 248.652 57.02 248.748L56.624 248.268C57.368 247.452 57.968 246.408 58.412 245.16L59.012 245.304C58.904 245.604 58.796 245.892 58.676 246.168H60.896V246.636C60.596 247.236 60.296 247.74 60.008 248.136H61.544V255.276C61.544 255.816 61.28 256.092 60.752 256.092H59.996L59.852 255.54C60.116 255.552 60.356 255.564 60.572 255.564C60.836 255.564 60.98 255.396 60.98 255.084V253.236H59.684V256.032H59.132V253.236H57.824ZM59.324 248.136C59.636 247.716 59.924 247.248 60.2 246.732H58.4C58.136 247.236 57.836 247.704 57.524 248.136H59.324ZM60.98 252.672V250.944H59.684V252.672H60.98ZM60.98 250.368V248.712H59.684V250.368H60.98ZM59.132 248.712H57.872V250.368H59.132V248.712ZM68.696 249.732H70.772V246.372C70.124 246.48 69.452 246.576 68.756 246.648L68.636 246.06C70.292 245.904 71.756 245.628 73.028 245.244L73.232 245.808C72.668 245.976 72.068 246.12 71.42 246.252V249.732H73.196V250.344H71.42V251.016C72.008 251.568 72.608 252.18 73.208 252.852L72.836 253.392C72.284 252.672 71.804 252.096 71.42 251.664V256.176H70.772V251.472C70.292 252.6 69.62 253.608 68.768 254.508L68.504 253.86C69.548 252.828 70.292 251.664 70.724 250.344H68.696V249.732ZM73.46 253.404H76.148V251.88H73.904V251.268H76.148V250.02H76.796V251.268H79.052V251.88H76.796V253.404H79.4V254.028H76.796V256.164H76.148V254.028H73.46V253.404ZM72.668 246.828L73.22 246.972C73.028 247.812 72.788 248.544 72.5 249.18L71.972 248.988C72.236 248.412 72.476 247.692 72.668 246.828ZM69.332 247.068C69.644 247.668 69.92 248.304 70.148 248.976L69.632 249.204C69.368 248.46 69.092 247.812 68.792 247.248L69.332 247.068ZM74.216 246.348H73.736V245.748H78.812V246.312C78.476 247.272 77.864 248.076 77 248.736C77.66 249.096 78.464 249.42 79.412 249.696L79.1 250.248C78.044 249.936 77.168 249.564 76.448 249.12C75.704 249.576 74.804 249.96 73.76 250.26L73.436 249.708C74.396 249.444 75.212 249.12 75.884 248.724C75.02 248.052 74.468 247.26 74.216 246.348ZM76.424 248.376C77.216 247.8 77.792 247.128 78.14 246.348H74.84C75.044 247.116 75.572 247.8 76.424 248.376ZM83 247.824C83.168 247.824 83.324 247.884 83.444 248.004C83.552 248.112 83.612 248.256 83.612 248.436C83.612 248.604 83.552 248.748 83.444 248.868C83.324 248.988 83.168 249.048 83 249.048C82.82 249.048 82.676 248.988 82.556 248.868C82.436 248.748 82.388 248.604 82.388 248.436C82.388 248.256 82.436 248.112 82.556 248.004C82.676 247.884 82.82 247.824 83 247.824ZM83 252.216C83.168 252.216 83.324 252.276 83.444 252.396C83.552 252.504 83.612 252.648 83.612 252.828C83.612 252.996 83.552 253.14 83.444 253.26C83.324 253.38 83.168 253.44 83 253.44C82.82 253.44 82.676 253.38 82.556 253.26C82.436 253.14 82.388 252.996 82.388 252.828C82.388 252.648 82.436 252.504 82.556 252.396C82.676 252.276 82.82 252.216 83 252.216ZM95.744 248.772H99.248V246.684C98.312 246.78 97.292 246.828 96.212 246.828L95.996 246.24C98.648 246.228 100.82 245.928 102.5 245.34L102.836 245.892C101.996 246.204 101.012 246.432 99.908 246.6V248.772H103.448V249.408H99.908V251.508H102.644V256.164H101.996V255.492H97.196V256.2H96.548V251.508H99.248V249.408H95.744V248.772ZM97.196 254.868H101.996V252.12H97.196V254.868ZM93.464 245.436C94.268 245.964 94.94 246.504 95.492 247.032L95.048 247.476C94.544 246.96 93.872 246.42 93.02 245.856L93.464 245.436ZM93.188 248.292C94.004 248.892 94.688 249.492 95.24 250.092L94.784 250.548C94.28 249.972 93.584 249.372 92.72 248.736L93.188 248.292ZM94.784 251.46L95.372 251.7C94.832 253.236 94.232 254.676 93.572 256.032L92.936 255.756C93.644 254.352 94.256 252.924 94.784 251.46ZM105.116 246.144H109.388V246.756H105.116V246.144ZM104.636 249.372H109.856V250.02H107.036C106.496 252 106.028 253.38 105.632 254.16C106.7 253.968 107.756 253.668 108.812 253.272C108.476 252.576 108.152 251.94 107.816 251.364L108.368 251.1C108.956 252.132 109.508 253.248 110.036 254.472L109.46 254.76C109.316 254.424 109.184 254.1 109.052 253.812C107.768 254.268 106.376 254.628 104.876 254.904L104.72 254.292C104.78 254.268 104.828 254.256 104.852 254.232C105.236 253.728 105.752 252.324 106.4 250.02H104.636V249.372ZM111.788 245.256H112.436V247.764H115.076C115.076 251.388 115.016 253.644 114.908 254.508C114.788 255.528 114.236 256.044 113.24 256.044C113.024 256.044 112.664 256.032 112.16 256.008L112.004 255.444C112.46 255.456 112.844 255.468 113.18 255.468C113.804 255.468 114.176 255.072 114.284 254.304C114.38 253.632 114.428 251.652 114.452 248.388H112.436V248.568C112.4 252.036 111.56 254.568 109.916 256.176L109.424 255.744C110.972 254.256 111.764 251.856 111.788 248.568V248.388H110.096V247.764H111.788V245.256ZM121.22 252.144H118.064C117.92 253.68 117.536 255.012 116.912 256.14L116.456 255.684C117.14 254.412 117.5 252.924 117.548 251.208V246.288C118.916 246.12 120.02 245.796 120.86 245.292L121.292 245.772C120.452 246.264 119.396 246.6 118.124 246.78V248.352H121.22V252.144ZM118.124 249V251.208C118.124 251.316 118.112 251.424 118.112 251.532H120.608V249H118.124ZM122.984 249.636V251.52C122.96 253.572 122.684 255.12 122.156 256.164L121.568 255.864C122.096 254.832 122.372 253.392 122.396 251.52V246.18C124.064 246.12 125.48 245.832 126.644 245.328L126.968 245.904C125.78 246.384 124.448 246.66 122.984 246.732V249H127.424V249.636H125.996V256.176H125.36V249.636H122.984ZM132.08 249.42V250.908H137.072V249.42H132.08ZM137.072 251.496H132.08V252.96H137.072V251.496ZM137.072 253.548H132.08V256.152H131.468V249.636C130.748 250.56 129.908 251.412 128.948 252.18L128.54 251.64C130.124 250.38 131.348 248.916 132.188 247.26H128.852V246.636H132.488C132.704 246.156 132.884 245.664 133.04 245.16L133.7 245.232C133.556 245.724 133.388 246.192 133.208 246.636H139.28V247.26H132.932C132.656 247.812 132.356 248.34 132.032 248.844H137.696V255.324C137.696 255.852 137.384 256.116 136.784 256.128H135.44L135.284 255.54C135.752 255.552 136.184 255.564 136.58 255.564C136.904 255.564 137.072 255.42 137.072 255.132V253.548ZM147.08 251.544C146.864 252 146.612 252.384 146.312 252.708L145.928 252.24C146.456 251.652 146.816 250.86 147.008 249.876L147.56 249.984C147.488 250.332 147.404 250.656 147.308 250.944H148.604V249.78H149.24V250.944H151.136V251.544H149.24V253.188H151.388V253.8H149.24V256.2H148.604V253.8H145.952V253.188H148.604V251.544H147.08ZM147.74 246.588H146.048V246.012H150.944C150.932 247.572 150.824 248.508 150.632 248.82C150.44 249.132 150.092 249.288 149.6 249.288C149.324 249.288 148.988 249.276 148.592 249.264L148.436 248.7C148.844 248.724 149.192 248.736 149.456 248.748C149.816 248.736 150.056 248.616 150.152 248.388C150.236 248.16 150.296 247.56 150.32 246.588H148.352C148.232 247.188 148.052 247.692 147.812 248.124C147.5 248.616 147.044 249.06 146.444 249.468L146.06 248.976C146.624 248.64 147.044 248.232 147.32 247.764C147.512 247.416 147.656 247.02 147.74 246.588ZM141.872 250.944V252.312C141.872 252.432 141.86 252.552 141.86 252.672H143.132V250.944H141.872ZM141.824 253.236C141.728 254.436 141.44 255.444 140.984 256.26L140.552 255.852C141.032 254.94 141.272 253.776 141.296 252.36V248.436C141.2 248.544 141.116 248.652 141.02 248.748L140.624 248.268C141.368 247.452 141.968 246.408 142.412 245.16L143.012 245.304C142.904 245.604 142.796 245.892 142.676 246.168H144.896V246.636C144.596 247.236 144.296 247.74 144.008 248.136H145.544V255.276C145.544 255.816 145.28 256.092 144.752 256.092H143.996L143.852 255.54C144.116 255.552 144.356 255.564 144.572 255.564C144.836 255.564 144.98 255.396 144.98 255.084V253.236H143.684V256.032H143.132V253.236H141.824ZM143.324 248.136C143.636 247.716 143.924 247.248 144.2 246.732H142.4C142.136 247.236 141.836 247.704 141.524 248.136H143.324ZM144.98 252.672V250.944H143.684V252.672H144.98ZM144.98 250.368V248.712H143.684V250.368H144.98ZM143.132 248.712H141.872V250.368H143.132V248.712ZM152.696 249.732H154.772V246.372C154.124 246.48 153.452 246.576 152.756 246.648L152.636 246.06C154.292 245.904 155.756 245.628 157.028 245.244L157.232 245.808C156.668 245.976 156.068 246.12 155.42 246.252V249.732H157.196V250.344H155.42V251.016C156.008 251.568 156.608 252.18 157.208 252.852L156.836 253.392C156.284 252.672 155.804 252.096 155.42 251.664V256.176H154.772V251.472C154.292 252.6 153.62 253.608 152.768 254.508L152.504 253.86C153.548 252.828 154.292 251.664 154.724 250.344H152.696V249.732ZM157.46 253.404H160.148V251.88H157.904V251.268H160.148V250.02H160.796V251.268H163.052V251.88H160.796V253.404H163.4V254.028H160.796V256.164H160.148V254.028H157.46V253.404ZM156.668 246.828L157.22 246.972C157.028 247.812 156.788 248.544 156.5 249.18L155.972 248.988C156.236 248.412 156.476 247.692 156.668 246.828ZM153.332 247.068C153.644 247.668 153.92 248.304 154.148 248.976L153.632 249.204C153.368 248.46 153.092 247.812 152.792 247.248L153.332 247.068ZM158.216 246.348H157.736V245.748H162.812V246.312C162.476 247.272 161.864 248.076 161 248.736C161.66 249.096 162.464 249.42 163.412 249.696L163.1 250.248C162.044 249.936 161.168 249.564 160.448 249.12C159.704 249.576 158.804 249.96 157.76 250.26L157.436 249.708C158.396 249.444 159.212 249.12 159.884 248.724C159.02 248.052 158.468 247.26 158.216 246.348ZM160.424 248.376C161.216 247.8 161.792 247.128 162.14 246.348H158.84C159.044 247.116 159.572 247.8 160.424 248.376ZM167.336 249.72V256.128H166.688V249.504C166.232 250.896 165.584 252.132 164.768 253.224L164.48 252.516C165.512 251.268 166.244 249.864 166.676 248.28H164.732V247.644H166.688V245.232H167.336V247.644H169.004V248.28H167.336V249.036C167.96 249.648 168.584 250.332 169.22 251.1L168.836 251.664C168.248 250.848 167.744 250.2 167.336 249.72ZM174.032 246.66H170.48C170.624 248.628 171.188 250.404 172.16 251.976C173.108 250.464 173.732 248.688 174.032 246.66ZM171.788 252.528C170.66 250.776 170.024 248.82 169.856 246.66H169.34V246.024H174.668V246.648C174.308 248.952 173.612 250.92 172.556 252.564C173.324 253.68 174.32 254.688 175.532 255.588L175.1 256.104C173.924 255.192 172.952 254.184 172.184 253.104C171.32 254.304 170.252 255.3 168.992 256.116L168.572 255.6C169.88 254.736 170.948 253.716 171.788 252.528ZM179.672 245.232H180.32V250.416C180.272 253.032 179.276 254.952 177.32 256.164L176.828 255.732C178.688 254.628 179.636 252.852 179.672 250.416V245.232ZM177.08 246.324H177.728V252.204H177.08V246.324ZM181.064 246.228H186.848V255.912H186.188V255.108H180.8V254.472H186.188V250.896H181.352V250.26H186.188V246.864H181.064V246.228ZM191.432 246.432H192.296L195.728 255H194.924L193.928 252.444H189.8L188.804 255H188L191.432 246.432ZM190.04 251.82H193.688L191.888 247.224H191.852L190.04 251.82ZM195.783 248.796H196.575L198.531 254.088L200.475 248.796H201.279L198.903 255H198.159L195.783 248.796ZM204.6 248.628C205.584 248.628 206.316 248.952 206.808 249.624C207.24 250.212 207.48 251.04 207.516 252.108H202.476C202.512 252.864 202.716 253.464 203.088 253.896C203.472 254.328 203.976 254.544 204.624 254.544C205.188 254.544 205.644 254.388 205.992 254.1C206.28 253.848 206.496 253.488 206.652 253.008H207.384C207.24 253.608 206.964 254.1 206.556 254.484C206.052 254.94 205.416 255.168 204.624 255.168C203.748 255.168 203.052 254.868 202.536 254.28C201.996 253.68 201.732 252.876 201.732 251.892C201.732 250.98 201.984 250.224 202.5 249.6C203.028 248.952 203.724 248.628 204.6 248.628ZM204.612 249.252C204 249.252 203.508 249.456 203.136 249.888C202.764 250.308 202.548 250.848 202.488 251.52H206.76C206.64 250.008 205.92 249.252 204.612 249.252ZM209.458 253.8C209.626 253.8 209.77 253.86 209.89 253.98C210.01 254.1 210.07 254.244 210.07 254.412C210.07 254.58 210.01 254.736 209.89 254.856C209.77 254.964 209.626 255.024 209.458 255.024C209.278 255.024 209.134 254.964 209.026 254.856C208.906 254.736 208.846 254.58 208.846 254.412C208.846 254.244 208.906 254.1 209.026 253.98C209.134 253.86 209.278 253.8 209.458 253.8ZM214.388 248.628C215.252 248.628 215.9 248.856 216.32 249.336C216.68 249.732 216.872 250.284 216.872 251.004V255H216.188V253.812C215.936 254.172 215.6 254.484 215.192 254.724C214.688 255.012 214.148 255.168 213.56 255.168C212.96 255.168 212.468 255.012 212.108 254.712C211.712 254.4 211.52 253.98 211.52 253.476C211.52 252.756 211.808 252.228 212.396 251.892C212.9 251.568 213.632 251.4 214.568 251.4L216.152 251.376V251.004C216.152 249.828 215.552 249.24 214.352 249.24C213.848 249.24 213.44 249.336 213.116 249.552C212.756 249.78 212.528 250.104 212.432 250.536L211.724 250.488C211.844 249.864 212.156 249.384 212.66 249.072C213.104 248.772 213.68 248.628 214.388 248.628ZM216.152 251.94L214.604 251.964C213.032 251.976 212.252 252.48 212.252 253.464C212.252 253.8 212.384 254.064 212.648 254.268C212.912 254.472 213.272 254.58 213.704 254.58C214.328 254.58 214.904 254.364 215.408 253.932C215.9 253.524 216.152 253.068 216.152 252.588V251.94ZM219.101 246.564C219.269 246.564 219.413 246.624 219.533 246.744C219.653 246.84 219.713 246.984 219.713 247.164C219.713 247.332 219.641 247.476 219.521 247.596C219.401 247.704 219.269 247.764 219.101 247.764C218.921 247.764 218.777 247.704 218.669 247.596C218.549 247.476 218.489 247.332 218.489 247.164C218.489 246.984 218.549 246.84 218.669 246.744C218.777 246.624 218.921 246.564 219.101 246.564ZM218.741 248.796H219.461V255H218.741V248.796ZM231.45 246.396V248.736H230.802V247.044H222.354V248.724H221.706V246.396H226.302C226.086 245.94 225.858 245.544 225.594 245.184L226.278 245.064C226.518 245.46 226.746 245.904 226.962 246.396H231.45ZM229.758 248.424V251.244H223.998V252.66H230.31V256.176H229.662V255.66H223.998V256.188H223.35V248.424H229.758ZM223.998 255.084H229.662V253.224H223.998V255.084ZM223.998 250.68H229.122V249H223.998V250.68ZM233.43 247.056H238.674C238.422 246.48 238.11 245.928 237.75 245.424L238.374 245.196C238.722 245.712 239.046 246.336 239.334 247.056H243.846V247.692H237.474C237.45 248.184 237.414 248.928 237.354 249.924C237.354 249.96 237.342 249.996 237.342 250.044H242.346C242.322 252.264 242.25 253.716 242.118 254.412C241.914 255.492 241.338 256.044 240.39 256.08C240.006 256.08 239.538 256.068 238.998 256.044L238.806 255.444C239.406 255.468 239.91 255.492 240.318 255.492C241.014 255.456 241.434 254.964 241.578 254.028C241.65 253.452 241.686 252.336 241.686 250.668H237.27C237.126 251.664 236.838 252.576 236.406 253.404C235.806 254.412 234.978 255.336 233.946 256.188L233.466 255.732C234.738 254.652 235.602 253.644 236.046 252.708C236.454 251.772 236.682 250.728 236.754 249.576C236.79 248.724 236.814 248.1 236.826 247.692H233.43V247.056ZM249.798 252.144H246.642C246.498 253.68 246.114 255.012 245.49 256.14L245.034 255.684C245.718 254.412 246.078 252.924 246.126 251.208V246.288C247.494 246.12 248.598 245.796 249.438 245.292L249.87 245.772C249.03 246.264 247.974 246.6 246.702 246.78V248.352H249.798V252.144ZM246.702 249V251.208C246.702 251.316 246.69 251.424 246.69 251.532H249.186V249H246.702ZM251.562 249.636V251.52C251.538 253.572 251.262 255.12 250.734 256.164L250.146 255.864C250.674 254.832 250.95 253.392 250.974 251.52V246.18C252.642 246.12 254.058 245.832 255.222 245.328L255.546 245.904C254.358 246.384 253.026 246.66 251.562 246.732V249H256.002V249.636H254.574V256.176H253.938V249.636H251.562ZM260.658 249.42V250.908H265.65V249.42H260.658ZM265.65 251.496H260.658V252.96H265.65V251.496ZM265.65 253.548H260.658V256.152H260.046V249.636C259.326 250.56 258.486 251.412 257.526 252.18L257.118 251.64C258.702 250.38 259.926 248.916 260.766 247.26H257.43V246.636H261.066C261.282 246.156 261.462 245.664 261.618 245.16L262.278 245.232C262.134 245.724 261.966 246.192 261.786 246.636H267.858V247.26H261.51C261.234 247.812 260.934 248.34 260.61 248.844H266.274V255.324C266.274 255.852 265.962 256.116 265.362 256.128H264.018L263.862 255.54C264.33 255.552 264.762 255.564 265.158 255.564C265.482 255.564 265.65 255.42 265.65 255.132V253.548ZM271.578 253.368C271.986 253.368 272.334 253.5 272.634 253.776C272.922 254.052 273.066 254.4 273.066 254.808C273.066 255.216 272.922 255.552 272.634 255.84C272.334 256.104 271.986 256.248 271.578 256.248C271.17 256.248 270.81 256.104 270.522 255.84C270.234 255.564 270.09 255.216 270.09 254.808C270.09 254.388 270.234 254.04 270.522 253.776C270.81 253.5 271.17 253.368 271.578 253.368ZM271.578 253.872C271.302 253.872 271.074 253.956 270.894 254.148C270.702 254.316 270.606 254.544 270.606 254.808C270.606 255.072 270.702 255.288 270.894 255.468C271.074 255.648 271.302 255.744 271.578 255.744C271.842 255.744 272.07 255.648 272.262 255.468C272.454 255.288 272.55 255.072 272.55 254.808C272.55 254.544 272.454 254.328 272.262 254.148C272.07 253.956 271.842 253.872 271.578 253.872Z" fill="white"/>
<path d="M0 12C0 5.37258 5.37258 0 12 0H108.313C111.082 0 113.014 2.74593 112.078 5.35209L102.021 33.3521C101.451 34.9406 99.9445 36 98.2566 36H0V12Z" fill="url(#paint2_linear_6313_740)"/>
<path d="M28.1037 12.3223L29.3517 10.8343C29.789 11.037 30.2477 11.277 30.7277 11.5543C31.2183 11.8316 31.677 12.1143 32.1037 12.4023C32.541 12.6903 32.8983 12.9676 33.1757 13.2343L31.7837 14.8983C31.5383 14.621 31.2077 14.3276 30.7917 14.0183C30.3863 13.709 29.9437 13.405 29.4637 13.1063C28.9943 12.8076 28.541 12.5463 28.1037 12.3223ZM27.0317 18.8183H35.3517V20.6423H27.0317V18.8183ZM25.8957 23.5543H36.2797V25.3783H25.8957V23.5543ZM26.4717 14.3543H35.9437V16.1783H26.4717V14.3543ZM30.1197 14.9623H32.1197V24.3703H30.1197V14.9623ZM22.2477 12.3543L23.2877 10.9463C23.6397 11.0636 24.0077 11.2183 24.3917 11.4103C24.7757 11.5916 25.1437 11.789 25.4957 12.0023C25.8477 12.205 26.1357 12.4023 26.3597 12.5943L25.2237 14.1623C25.021 13.9596 24.749 13.7516 24.4077 13.5383C24.077 13.3143 23.7197 13.101 23.3357 12.8983C22.9623 12.685 22.5997 12.5036 22.2477 12.3543ZM21.1757 16.7223L22.1677 15.2663C22.5197 15.3836 22.893 15.5276 23.2877 15.6983C23.6823 15.8583 24.0557 16.0396 24.4077 16.2423C24.7703 16.4343 25.069 16.6156 25.3037 16.7863L24.2317 18.4023C24.029 18.2103 23.7517 18.013 23.3997 17.8103C23.0477 17.6076 22.6797 17.4103 22.2957 17.2183C21.9117 17.0156 21.5383 16.8503 21.1757 16.7223ZM21.8637 24.4183C22.1517 24.013 22.4717 23.5383 22.8237 22.9943C23.1757 22.4396 23.533 21.853 23.8957 21.2343C24.2583 20.605 24.5943 19.981 24.9037 19.3623L26.3117 20.6423C26.0343 21.197 25.7357 21.7676 25.4157 22.3543C25.1063 22.941 24.7863 23.517 24.4557 24.0823C24.1357 24.6476 23.8157 25.1916 23.4957 25.7143L21.8637 24.4183ZM41.3197 20.1303H48.2637V19.4263H41.3197V20.1303ZM41.3197 18.3063H48.2637V17.6183H41.3197V18.3063ZM50.1677 16.4503V21.3143H39.4957V16.4503H50.1677ZM48.8557 13.2343C48.685 13.5436 48.525 13.8263 48.3757 14.0823C48.2263 14.3276 48.093 14.541 47.9757 14.7223L46.2797 14.3543C46.3863 14.1303 46.493 13.885 46.5997 13.6183C46.7063 13.341 46.7917 13.0956 46.8557 12.8823L48.8557 13.2343ZM42.5997 12.8823C42.7277 13.1063 42.8397 13.357 42.9357 13.6343C43.0423 13.901 43.1223 14.1356 43.1757 14.3383L41.3517 14.7543C41.309 14.541 41.2397 14.2903 41.1437 14.0023C41.0583 13.7143 40.9623 13.4583 40.8557 13.2343L42.5997 12.8823ZM45.6877 10.8663V12.8023H43.7677V10.8663H45.6877ZM51.7197 14.3703V15.8583H37.8157V14.3703H51.7197ZM50.8717 11.7303V13.2183H38.5837V11.7303H50.8717ZM40.9037 22.4183C40.6797 23.0263 40.3917 23.613 40.0397 24.1783C39.6983 24.733 39.245 25.2023 38.6797 25.5863L37.1757 24.5623C37.677 24.253 38.109 23.853 38.4717 23.3623C38.8343 22.8716 39.1063 22.365 39.2877 21.8423L40.9037 22.4183ZM49.6717 21.6503C50.0023 21.917 50.3383 22.221 50.6797 22.5623C51.021 22.9036 51.3357 23.245 51.6237 23.5863C51.9117 23.9276 52.1357 24.253 52.2957 24.5623L50.7117 25.4903C50.5623 25.2023 50.349 24.877 50.0717 24.5143C49.805 24.1623 49.5063 23.8103 49.1757 23.4583C48.845 23.0956 48.5143 22.7703 48.1837 22.4823L49.6717 21.6503ZM44.1037 20.9463C44.413 21.0743 44.733 21.2236 45.0637 21.3943C45.405 21.565 45.725 21.741 46.0237 21.9223C46.333 22.093 46.5837 22.2636 46.7757 22.4343L45.6717 23.5543C45.4903 23.3836 45.2503 23.2076 44.9517 23.0263C44.6637 22.8343 44.3543 22.6476 44.0237 22.4663C43.693 22.2743 43.3783 22.109 43.0797 21.9703L44.1037 20.9463ZM43.1757 23.7143C43.1757 23.9276 43.229 24.061 43.3357 24.1143C43.453 24.157 43.693 24.1783 44.0557 24.1783C44.141 24.1783 44.2797 24.1783 44.4717 24.1783C44.6637 24.1783 44.877 24.1783 45.1117 24.1783C45.3463 24.1783 45.565 24.1783 45.7677 24.1783C45.981 24.1783 46.141 24.1783 46.2477 24.1783C46.4503 24.1783 46.5997 24.1516 46.6957 24.0983C46.7917 24.0343 46.861 23.9116 46.9037 23.7303C46.957 23.5383 46.9943 23.2556 47.0157 22.8823C47.2077 23.0103 47.4637 23.133 47.7837 23.2503C48.1143 23.357 48.4023 23.4316 48.6477 23.4743C48.5837 24.0823 48.4717 24.5463 48.3117 24.8663C48.1517 25.197 47.9223 25.421 47.6237 25.5383C47.3357 25.6663 46.9357 25.7303 46.4237 25.7303C46.3383 25.7303 46.205 25.7303 46.0237 25.7303C45.853 25.7303 45.661 25.7303 45.4477 25.7303C45.2343 25.7303 45.021 25.7303 44.8077 25.7303C44.5943 25.7303 44.397 25.7303 44.2157 25.7303C44.045 25.7303 43.917 25.7303 43.8317 25.7303C43.1597 25.7303 42.6423 25.6716 42.2797 25.5543C41.917 25.437 41.6663 25.229 41.5277 24.9303C41.389 24.6423 41.3197 24.2476 41.3197 23.7463V22.0503H43.1757V23.7143ZM59.7037 10.8663H61.6557V24.0663C61.6557 24.5356 61.5917 24.8876 61.4637 25.1223C61.3357 25.357 61.117 25.5436 60.8077 25.6823C60.4983 25.7996 60.1143 25.8743 59.6557 25.9063C59.2077 25.9383 58.6423 25.9543 57.9597 25.9543C57.917 25.7303 57.8317 25.469 57.7037 25.1703C57.5757 24.8823 57.4477 24.637 57.3197 24.4343C57.5863 24.445 57.853 24.4556 58.1197 24.4663C58.3863 24.4663 58.6263 24.4663 58.8397 24.4663C59.0637 24.4663 59.2183 24.4663 59.3037 24.4663C59.453 24.4556 59.5543 24.4236 59.6077 24.3703C59.6717 24.317 59.7037 24.2156 59.7037 24.0663V10.8663ZM53.7197 11.9223H67.7997V13.4263H53.7197V11.9223ZM57.1917 15.2983V16.0503H64.2477V15.2983H57.1917ZM55.3517 14.0823H66.2157V17.2663H55.3517V14.0823ZM54.9677 17.9863H66.4877V24.2423H64.5357V19.2823H54.9677V17.9863ZM53.3517 19.9703H68.1677V21.4263H53.3517V19.9703ZM54.8397 22.1623H65.5917V23.5543H54.8397V22.1623ZM69.3197 12.5943H74.6637V14.4183H69.3197V12.5943ZM71.1757 13.3623H73.0797V21.3783H71.1757V13.3623ZM69.0477 21.1223C69.5063 21.0156 70.0397 20.8823 70.6477 20.7223C71.2557 20.5623 71.9117 20.3916 72.6157 20.2103C73.3197 20.029 74.0237 19.8423 74.7277 19.6503L74.9677 21.2503C74.0183 21.5916 73.069 21.9276 72.1197 22.2583C71.1703 22.5783 70.301 22.877 69.5117 23.1543L69.0477 21.1223ZM74.8717 11.4903H84.1517V13.2023H74.8717V11.4903ZM78.2957 12.2743L80.5997 12.5783C80.3543 13.0796 80.1037 13.5703 79.8477 14.0503C79.5917 14.5303 79.3677 14.941 79.1757 15.2823L77.4317 14.9143C77.613 14.5196 77.7783 14.0823 77.9277 13.6023C78.0877 13.1116 78.2103 12.669 78.2957 12.2743ZM78.3437 16.7383H80.2797V20.0343C80.2797 20.589 80.1997 21.1436 80.0397 21.6983C79.8797 22.253 79.597 22.7863 79.1917 23.2983C78.797 23.8103 78.237 24.2903 77.5117 24.7383C76.7863 25.1863 75.8637 25.5863 74.7437 25.9383C74.669 25.7996 74.557 25.6396 74.4077 25.4583C74.269 25.277 74.1197 25.0956 73.9597 24.9143C73.8103 24.733 73.661 24.5836 73.5117 24.4663C74.589 24.1996 75.4477 23.8956 76.0877 23.5543C76.7277 23.2023 77.2077 22.829 77.5277 22.4343C77.8583 22.029 78.077 21.6236 78.1837 21.2183C78.2903 20.8023 78.3437 20.397 78.3437 20.0023V16.7383ZM79.7197 23.3143L80.9037 22.1623C81.2877 22.3756 81.693 22.6263 82.1197 22.9143C82.557 23.1916 82.973 23.4743 83.3677 23.7623C83.773 24.0396 84.1037 24.2956 84.3597 24.5303L83.0797 25.8263C82.845 25.5916 82.5357 25.3196 82.1517 25.0103C81.7783 24.7116 81.373 24.413 80.9357 24.1143C80.509 23.8156 80.1037 23.549 79.7197 23.3143ZM75.3197 14.4503H83.3517V21.9543H81.3837V16.1303H77.1917V22.0023H75.3197V14.4503Z" fill="white"/>
<defs>
<linearGradient id="paint0_linear_6313_740" x1="500" y1="12" x2="500" y2="305.278" gradientUnits="userSpaceOnUse">
<stop/>
<stop offset="1" stop-color="#1C0130"/>
</linearGradient>
<linearGradient id="paint1_linear_6313_740" x1="500" y1="12" x2="500" y2="283" gradientUnits="userSpaceOnUse">
<stop stop-color="#020103"/>
<stop offset="1" stop-color="#311645"/>
</linearGradient>
<linearGradient id="paint2_linear_6313_740" x1="3.66286e-08" y1="18.2353" x2="113.956" y2="15.7431" gradientUnits="userSpaceOnUse">
<stop stop-color="#413EFE"/>
<stop offset="1" stop-color="#9F38E5"/>
</linearGradient>
</defs>
</svg>
