<svg width="335" height="289" viewBox="0 0 335 289" fill="none" xmlns="http://www.w3.org/2000/svg">
<rect x="0.5" y="9.5" width="334" height="279" rx="3.5" fill="url(#paint0_linear_6478_334)" stroke="url(#paint1_linear_6478_334)"/>
<path d="M28.316 57.168H29.684C31.934 59.688 34.526 61.686 37.478 63.126L36.452 64.944C35.498 64.44 34.598 63.882 33.77 63.288V64.53H24.23V63.27C23.366 63.864 22.448 64.44 21.476 64.98L20.468 63.144C23.618 61.542 26.228 59.544 28.316 57.168ZM25.004 62.712H32.978C31.502 61.578 30.17 60.3 29 58.878C27.866 60.282 26.534 61.56 25.004 62.712ZM34.94 66.294V73.854H33.122V72.936H24.878V73.854H23.06V66.294H34.94ZM24.878 71.154H33.122V68.058H24.878V71.154ZM39.188 59.562H41.6V57.312H43.472V59.562H45.632V61.362H43.472V63.774H45.884V65.574H43.382L43.274 66.6C44.246 67.464 45.218 68.436 46.19 69.516L45.146 71.118C44.282 69.948 43.562 69.03 42.986 68.364C42.446 70.74 41.51 72.594 40.178 73.944L38.774 72.702C40.34 71.118 41.258 68.742 41.51 65.574H38.954V63.774H41.6V61.362H39.188V59.562ZM54.182 57.816V67.968H52.364V59.544H48.134V67.968H46.316V57.816H54.182ZM53.462 73.602H51.842C50.78 73.602 50.258 73.026 50.258 71.91V69.03C50.06 69.552 49.844 70.038 49.592 70.47C48.692 71.964 47.216 73.116 45.2 73.926L44.228 72.36C46.208 71.532 47.558 70.488 48.242 69.246C48.926 67.914 49.322 66.168 49.394 64.044V60.678H51.104V64.044C51.068 65.52 50.888 66.816 50.6 67.95H51.968V71.532C51.968 71.802 52.094 71.946 52.382 71.946H53.156C53.336 71.946 53.462 71.856 53.552 71.676C53.66 71.46 53.732 70.866 53.768 69.858L55.388 70.38C55.262 71.946 55.046 72.882 54.758 73.188C54.47 73.458 54.038 73.602 53.462 73.602ZM57.08 58.5H64.046V57.24H65.954V58.5H72.902V60.192H65.954V61.326H71.966V63H58.07V61.326H64.046V60.192H57.08V58.5ZM64.244 65.574H60.248V66.564C60.248 66.762 60.23 66.96 60.23 67.158H64.244V65.574ZM66.134 67.158H69.824V65.574H66.134V67.158ZM60.086 68.814C59.798 70.776 59.168 72.522 58.196 74.034L56.648 72.648C57.8 71.082 58.376 69.048 58.394 66.564V63.918H71.642V68.814H60.086ZM81.11 58.032V70.974H77.15V72.288H75.278V58.032H81.11ZM77.15 69.138H79.292V65.268H77.15V69.138ZM77.15 63.45H79.292V59.868H77.15V63.45ZM84.584 63.774V66.33H88.598V63.774H84.584ZM88.598 62.028V59.472H84.584V62.028H88.598ZM84.458 68.094C84.206 70.47 83.45 72.45 82.19 74.034L80.696 72.666C81.992 71.046 82.64 68.958 82.676 66.438V57.654H90.506V71.766C90.506 73.062 89.84 73.71 88.544 73.71H86.276L85.754 71.874C86.546 71.928 87.284 71.964 87.932 71.964C88.364 71.964 88.598 71.676 88.598 71.1V68.094H84.458ZM96.5 60.732C96.896 60.732 97.22 60.858 97.508 61.146C97.778 61.416 97.922 61.758 97.922 62.154C97.922 62.55 97.778 62.874 97.508 63.144C97.22 63.414 96.896 63.558 96.5 63.558C96.104 63.558 95.762 63.414 95.492 63.144C95.222 62.874 95.096 62.55 95.096 62.154C95.096 61.758 95.222 61.416 95.492 61.146C95.762 60.858 96.104 60.732 96.5 60.732ZM96.5 67.32C96.896 67.32 97.22 67.446 97.508 67.734C97.778 68.004 97.922 68.346 97.922 68.742C97.922 69.138 97.778 69.462 97.508 69.732C97.22 70.002 96.896 70.146 96.5 70.146C96.104 70.146 95.762 70.002 95.492 69.732C95.222 69.462 95.096 69.138 95.096 68.742C95.096 68.346 95.222 68.004 95.492 67.734C95.762 67.446 96.104 67.32 96.5 67.32ZM22.436 90.276V92.388C22.436 92.448 22.424 92.508 22.424 92.58H25.724V90.276H22.436ZM22.388 93.192C22.268 94.752 21.812 96.036 21.032 97.044L20.552 96.6C21.344 95.508 21.752 94.116 21.776 92.436V86.748H30.536V95.724C30.536 96.504 30.14 96.9 29.36 96.9H27.98L27.812 96.264C28.292 96.288 28.736 96.3 29.144 96.3C29.636 96.3 29.888 96.024 29.888 95.484V93.192H26.372V96.768H25.724V93.192H22.388ZM29.888 92.58V90.276H26.372V92.58H29.888ZM29.888 89.676V87.384H26.372V89.676H29.888ZM25.724 87.384H22.436V89.676H25.724V87.384ZM41.732 88.404H34.628V90.996H41.732V88.404ZM34.628 91.632C34.58 93.792 34.004 95.664 32.912 97.224L32.42 96.78C33.452 95.388 33.98 93.6 33.992 91.416V87.756H37.952C37.736 87.204 37.496 86.712 37.232 86.28L37.916 86.16C38.156 86.628 38.384 87.156 38.6 87.756H42.392V91.632H34.628ZM44.696 91.98H55.304V92.556H50.168L49.688 93.552H54.416V96.168C54.416 96.84 54.092 97.176 53.444 97.176H52.592L52.424 96.6L53.252 96.624C53.612 96.624 53.792 96.42 53.792 96.036V94.116H51.632V97.08H51.008V94.116H48.992V97.08H48.368V94.116H46.352V97.2H45.716V93.552H49.052L49.508 92.556H44.696V91.98ZM45.428 86.664H54.584V87.216H50.324V88.14H54.956V90.504H54.332V88.656H50.324V91.404H49.676V88.656H45.668V90.504H45.044V88.14H49.676V87.216H45.428V86.664ZM46.448 89.472H48.944V89.928H46.448V89.472ZM46.448 90.672H48.944V91.128H46.448V90.672ZM51.044 89.472H53.528V89.928H51.044V89.472ZM51.056 90.672H53.564V91.128H51.056V90.672ZM60.368 88.464H62.348V87.708H59.792V87.168H62.012C61.892 86.856 61.748 86.58 61.58 86.328L62.192 86.22C62.336 86.496 62.468 86.808 62.612 87.168H64.208C64.376 86.856 64.508 86.52 64.604 86.184L65.228 86.268C65.132 86.592 65 86.892 64.832 87.168H67.028V87.708H64.532V88.464H66.56V92.496H65.576V93.252H67.148V93.78H65.576V94.872C65.576 95.376 65.288 95.628 64.736 95.628H63.5L63.38 95.076C63.788 95.1 64.172 95.112 64.544 95.112C64.82 95.112 64.964 94.98 64.964 94.728V93.78H59.756V93.252H64.964V92.496H60.368V88.464ZM63.968 88.464V87.708H62.9V88.464H63.968ZM65.984 92.016V91.26H60.944V92.016H65.984ZM60.944 90.804H65.984V90.228H64.748C64.22 90.228 63.968 90.012 63.968 89.592V88.944H62.9C62.852 89.652 62.444 90.18 61.676 90.516L61.28 90.18C61.952 89.916 62.312 89.496 62.348 88.944H60.944V90.804ZM64.532 88.944V89.52C64.532 89.7 64.652 89.796 64.904 89.796H65.984V88.944H64.532ZM61.256 93.888C61.856 94.248 62.348 94.608 62.756 94.968L62.372 95.352C62 95.004 61.508 94.632 60.884 94.236L61.256 93.888ZM57.416 86.472C58.208 87.096 58.88 87.708 59.432 88.332L58.988 88.788C58.484 88.188 57.812 87.564 56.96 86.892L57.416 86.472ZM64.52 96.96C63.848 96.96 63.128 96.948 62.348 96.936C61.556 96.912 60.932 96.84 60.452 96.708C59.972 96.564 59.54 96.264 59.156 95.808C58.988 95.592 58.832 95.496 58.688 95.496C58.364 95.496 57.86 96.048 57.176 97.164L56.684 96.732C57.344 95.688 57.908 95.076 58.388 94.908V91.068H56.672V90.444H59V94.932C59.132 95.004 59.264 95.112 59.384 95.268C59.696 95.628 60.032 95.904 60.392 96.072C60.788 96.216 61.352 96.312 62.072 96.336C62.672 96.348 63.464 96.36 64.424 96.36C64.976 96.36 65.528 96.348 66.104 96.348C66.656 96.336 67.088 96.324 67.4 96.312L67.256 96.96H64.52ZM68.9 91.032H75.824V89.124H76.46V91.032H79.088V91.668H76.46V96.06C76.46 96.756 76.1 97.116 75.392 97.116H73.748L73.616 96.48C74.156 96.504 74.672 96.528 75.164 96.528C75.596 96.528 75.824 96.312 75.824 95.904V91.668H68.9V91.032ZM71.084 92.532C72.032 93.252 72.824 93.984 73.472 94.704L72.992 95.172C72.416 94.476 71.636 93.732 70.652 92.964L71.084 92.532ZM78.74 87.468V89.916H78.092V88.104H69.896V89.904H69.248V87.468H73.784C73.592 87 73.364 86.58 73.124 86.196L73.82 86.076C74.036 86.484 74.252 86.952 74.456 87.468H78.74ZM81.512 90.204H85.688V86.34H86.36V90.204H90.428V97.092H89.78V96.576H81.404V95.94H89.78V93.636H82.064V93.024H89.78V90.84H81.512V90.204ZM89.888 86.844L90.488 87.12C90.08 87.972 89.564 88.8 88.916 89.604L88.328 89.292C88.976 88.476 89.504 87.66 89.888 86.844ZM82.208 86.976C82.904 87.84 83.432 88.584 83.792 89.22L83.24 89.604C82.856 88.908 82.328 88.152 81.656 87.312L82.208 86.976ZM103.004 88.632C103.004 90.996 102.944 92.424 102.836 92.928C102.716 93.42 102.224 93.672 101.372 93.672H101.288L101.096 93.048C101.252 93.048 101.384 93.06 101.504 93.06C101.9 93.06 102.152 92.916 102.248 92.628C102.32 92.352 102.368 91.308 102.38 89.484L100.388 90.096V94.728H99.764V90.288L97.796 90.9V95.748C97.796 96.144 98 96.348 98.432 96.348H101.912C102.2 96.348 102.404 96.264 102.524 96.096C102.68 95.88 102.788 95.256 102.836 94.224L103.436 94.416C103.364 95.616 103.22 96.348 102.98 96.624C102.788 96.84 102.476 96.96 102.044 96.96H98.24C97.508 96.96 97.148 96.6 97.148 95.88V91.104L96.032 91.44V90.792L97.148 90.456V87.444H97.796V90.252L99.764 89.64V86.232H100.388V89.448L103.004 88.632ZM96.2 93.756V94.416C95.096 94.92 93.896 95.34 92.624 95.676L92.456 95.016C92.996 94.896 93.524 94.764 94.052 94.596V90.132H92.6V89.484H94.052V86.328H94.688V89.484H96.02V90.132H94.688V94.38C95.204 94.2 95.708 93.996 96.2 93.756ZM111.104 86.208H111.752V88.236H114.932V88.872H111.752V91.308H115.244V91.956H111.284C110.444 93.948 109.724 95.328 109.1 96.084C110.732 95.94 112.34 95.7 113.936 95.376C113.564 94.596 113.18 93.888 112.784 93.252L113.42 93.048C114.152 94.26 114.788 95.556 115.34 96.936L114.728 97.212C114.56 96.768 114.38 96.348 114.212 95.964C112.388 96.3 110.396 96.576 108.248 96.768L108.104 96.192C108.164 96.168 108.212 96.156 108.248 96.144C108.848 95.628 109.628 94.236 110.6 91.956H107.588V91.308H111.104V88.872H108.164V88.236H111.104V86.208ZM105.464 86.46C106.244 87.06 106.904 87.648 107.432 88.248L106.976 88.704C106.484 88.14 105.824 87.54 104.996 86.916L105.464 86.46ZM105.176 89.268C105.896 89.868 106.496 90.456 106.976 91.056L106.52 91.524C106.076 90.948 105.476 90.348 104.708 89.712L105.176 89.268ZM106.712 92.544L107.3 92.784C106.772 94.308 106.196 95.748 105.56 97.092L104.924 96.804C105.62 95.424 106.208 94.008 106.712 92.544ZM126.332 91.584H123.74V92.784H126.668V93.36H123.74V94.668H127.316V95.268H123.74V97.2H123.092V95.268H119.984V94.668H123.092V93.36H120.56V92.784H123.092V91.584H120.716V91.008H123.092V89.76H120.188V89.172H123.092V87.912H120.776V87.336H123.092V86.22H123.74V87.336H126.332V89.172H127.448V89.76H126.332V91.584ZM123.74 87.912V89.172H125.708V87.912H123.74ZM123.74 89.76V91.008H125.708V89.76H123.74ZM118.232 91.896C117.788 92.376 117.296 92.82 116.744 93.24L116.552 92.616C117.776 91.644 118.652 90.552 119.18 89.34L119.744 89.604C119.504 90.132 119.216 90.624 118.88 91.08V97.164H118.232V91.896ZM119.048 86.22L119.636 86.484C119.012 87.78 118.052 88.908 116.744 89.868L116.54 89.232C117.704 88.344 118.544 87.336 119.048 86.22ZM135.104 86.208H135.752V88.236H138.932V88.872H135.752V91.308H139.244V91.956H135.284C134.444 93.948 133.724 95.328 133.1 96.084C134.732 95.94 136.34 95.7 137.936 95.376C137.564 94.596 137.18 93.888 136.784 93.252L137.42 93.048C138.152 94.26 138.788 95.556 139.34 96.936L138.728 97.212C138.56 96.768 138.38 96.348 138.212 95.964C136.388 96.3 134.396 96.576 132.248 96.768L132.104 96.192C132.164 96.168 132.212 96.156 132.248 96.144C132.848 95.628 133.628 94.236 134.6 91.956H131.588V91.308H135.104V88.872H132.164V88.236H135.104V86.208ZM129.464 86.46C130.244 87.06 130.904 87.648 131.432 88.248L130.976 88.704C130.484 88.14 129.824 87.54 128.996 86.916L129.464 86.46ZM129.176 89.268C129.896 89.868 130.496 90.456 130.976 91.056L130.52 91.524C130.076 90.948 129.476 90.348 128.708 89.712L129.176 89.268ZM130.712 92.544L131.3 92.784C130.772 94.308 130.196 95.748 129.56 97.092L128.924 96.804C129.62 95.424 130.208 94.008 130.712 92.544ZM140.876 88.068H142.664V86.352H143.312V88.068H145.004V88.692H143.312V90.48C143.312 90.612 143.3 90.744 143.3 90.876H145.172V91.5H143.276C143.252 91.848 143.216 92.184 143.168 92.508C143.864 93.204 144.572 93.984 145.292 94.86L144.92 95.4C144.2 94.416 143.576 93.66 143.06 93.12C142.724 94.872 142.04 96.24 141.02 97.212L140.528 96.78C141.752 95.628 142.46 93.876 142.628 91.5H140.72V90.876H142.652C142.652 90.744 142.664 90.612 142.664 90.48V88.692H140.876V88.068ZM150.5 86.772V93.264H149.864V87.384H146.468V93.264H145.832V86.772H150.5ZM150.248 97.02H149.288C148.712 97.02 148.436 96.708 148.436 96.096V93.372H149.048V95.976C149.048 96.288 149.192 96.444 149.48 96.444H150.14C150.38 96.444 150.56 96.372 150.656 96.252C150.8 96.084 150.884 95.604 150.932 94.812L151.496 95.004C151.424 95.952 151.292 96.54 151.088 96.768C150.908 96.936 150.632 97.02 150.248 97.02ZM147.86 88.524H148.472V90.588C148.448 92.364 148.124 93.792 147.524 94.86C146.924 95.856 145.952 96.636 144.596 97.2L144.248 96.66C145.568 96.108 146.516 95.364 147.08 94.404C147.584 93.432 147.836 92.16 147.86 90.588V88.524ZM154.184 94.8C154.424 94.8 154.604 94.896 154.748 95.088C154.868 95.268 154.94 95.52 154.94 95.832C154.94 96.312 154.796 96.72 154.52 97.068C154.244 97.404 153.884 97.632 153.428 97.752V97.272C153.74 97.176 153.98 97.008 154.148 96.768C154.304 96.552 154.388 96.3 154.388 96.012C154.34 96.024 154.268 96.036 154.148 96.036C153.98 96.036 153.836 95.976 153.716 95.856C153.596 95.736 153.536 95.592 153.536 95.424C153.536 95.232 153.584 95.076 153.704 94.968C153.824 94.848 153.98 94.8 154.184 94.8ZM165.2 86.82H174.836V87.468H170.276V92.208H175.28V92.844H170.276V97.164H169.628V92.844H164.72V92.208H169.628V87.468H165.2V86.82ZM166.496 88.392C166.964 89.232 167.408 90.156 167.816 91.164L167.204 91.464C166.796 90.42 166.352 89.496 165.896 88.68L166.496 88.392ZM173.552 88.308L174.152 88.584C173.768 89.568 173.264 90.516 172.664 91.428L172.076 91.128C172.7 90.18 173.192 89.244 173.552 88.308ZM185.936 92.268V97.188H185.288V96.504H178.712V97.188H178.064V92.268H185.936ZM178.712 95.868H185.288V92.892H178.712V95.868ZM177.152 90.924L177.032 90.312C178.196 89.832 179.54 88.464 181.052 86.208L181.712 86.436C180.548 88.128 179.396 89.412 178.244 90.288C180.788 90.18 183.128 90.024 185.288 89.808C184.76 89.088 184.232 88.428 183.704 87.828L184.304 87.54C185.36 88.764 186.356 90.084 187.268 91.524L186.644 91.836C186.332 91.32 186.008 90.84 185.696 90.384C183.152 90.624 180.308 90.804 177.152 90.924ZM188.96 86.916H199.04V87.552H195.116C194.888 88.08 194.624 88.584 194.336 89.064V97.2H193.664V90.048C192.524 91.56 190.988 92.88 189.056 94.032L188.624 93.48C191.42 91.848 193.34 89.868 194.396 87.552H188.96V86.916ZM195.836 90.096C197.24 91.212 198.416 92.328 199.376 93.456L198.872 93.96C198.008 92.88 196.844 91.752 195.38 90.552L195.836 90.096ZM202.508 86.7H209.408V87.312C208.532 87.888 207.548 88.464 206.456 89.016V89.928H208.004V90.54H206.456V91.872H208.268V92.496H206.456V93.804H208.784V94.428H206.456V96.264C206.456 96.864 206.18 97.176 205.628 97.176H204.248L204.092 96.552C204.488 96.564 204.92 96.576 205.4 96.576C205.676 96.576 205.82 96.396 205.82 96.048V94.428H203.408V93.804H205.82V92.496H203.84V91.872H205.82V90.54H204.116V89.928H205.82V88.692C207.032 88.104 207.896 87.648 208.424 87.312H202.508V86.7ZM210.92 89.22L211.448 89.544C211.16 90.072 210.872 90.504 210.584 90.84C210.296 91.176 209.96 91.488 209.552 91.788C209.876 93.432 210.512 94.848 211.46 96.024L211.004 96.48C209.492 94.56 208.712 92.112 208.688 89.112H209.3C209.3 89.832 209.348 90.516 209.444 91.164C209.708 90.948 209.936 90.72 210.14 90.468C210.428 90.108 210.68 89.688 210.92 89.22ZM200.72 89.58H203.408V90.144C203.264 92.856 202.436 94.968 200.924 96.48L200.504 95.964C201.872 94.56 202.64 92.64 202.832 90.204H200.72V89.58ZM217.52 87.108H222.536V94.212H217.52V87.108ZM221.924 93.624V90.984H218.132V93.624H221.924ZM218.132 90.384H221.924V87.696H218.132V90.384ZM216.284 95.952H223.46V96.576H216.284V95.952ZM216.8 91.104V91.74C216.248 92.016 215.696 92.268 215.12 92.508V95.952C215.12 96.636 214.796 96.984 214.16 96.984H213.02L212.876 96.372C213.236 96.396 213.596 96.408 213.932 96.408C214.292 96.408 214.484 96.192 214.484 95.784V92.76C213.884 92.976 213.284 93.18 212.672 93.36L212.516 92.736C213.188 92.568 213.848 92.376 214.484 92.148V89.112H212.756V88.488H214.484V86.256H215.12V88.488H216.692V89.112H215.12V91.896C215.696 91.656 216.26 91.392 216.8 91.104ZM226.652 89.952H229.676C229.748 89.376 229.784 88.764 229.796 88.104H230.42C230.42 88.776 230.384 89.388 230.324 89.952H233.348V90.576H230.24C230.18 90.888 230.12 91.188 230.048 91.464C231.368 92.532 232.472 93.6 233.372 94.656L232.904 95.136C232.136 94.152 231.116 93.12 229.868 92.028C229.376 93.3 228.392 94.344 226.904 95.148L226.508 94.656C227.876 93.912 228.8 92.964 229.256 91.8C229.388 91.416 229.496 91.008 229.58 90.576H226.652V89.952ZM234.752 86.844V97.152H234.104V96.552H225.896V97.152H225.248V86.844H234.752ZM225.896 95.928H234.104V87.468H225.896V95.928ZM236.78 89.892H240.824C241.088 89.532 241.292 89.16 241.436 88.776C240.356 88.824 239.228 88.86 238.052 88.896L237.944 88.32C238.796 88.056 239.792 87.36 240.92 86.208L241.556 86.424C240.776 87.24 240.008 87.864 239.24 88.32C241.088 88.26 242.804 88.176 244.388 88.056C243.98 87.696 243.56 87.324 243.104 86.952L243.608 86.628C244.796 87.576 245.708 88.404 246.344 89.124L245.804 89.484C245.54 89.184 245.252 88.884 244.94 88.572C244.04 88.632 243.092 88.692 242.108 88.74C241.964 89.148 241.772 89.532 241.544 89.892H247.124V90.492H243.968C244.712 91.32 245.888 91.968 247.484 92.436L247.196 93.036C245.348 92.388 244.04 91.548 243.284 90.492H241.1C240.164 91.572 238.736 92.448 236.84 93.108L236.552 92.532C238.208 92.028 239.468 91.344 240.308 90.492H236.78V89.892ZM242.108 91.068L242.636 91.38C241.82 92.376 240.584 93.168 238.904 93.756L238.604 93.228C240.2 92.688 241.364 91.968 242.108 91.068ZM245.216 92.904L245.78 93.168C244.688 95.136 242.312 96.516 238.64 97.296L238.256 96.78C241.904 95.988 244.22 94.704 245.216 92.904ZM243.644 92.052L244.16 92.388C242.78 93.972 241.004 94.968 238.832 95.364L238.46 94.848C240.68 94.488 242.408 93.552 243.644 92.052ZM256.64 92.592C256.184 92.292 255.812 91.98 255.536 91.644H252.428C252.128 91.98 251.756 92.304 251.324 92.592H256.64ZM256.196 91.644C256.868 92.268 257.924 92.748 259.34 93.108L259.076 93.672C258.332 93.444 257.696 93.192 257.18 92.916V95.364H256.544V93.132H251.552V95.364H250.928V92.832C250.364 93.144 249.704 93.432 248.96 93.684L248.636 93.144C250.052 92.748 251.096 92.244 251.78 91.644H248.936V91.104H252.296V90.228H250.676V89.724H252.296V88.872H250.436V88.356H252.296V87.528H249.86V88.788H249.236V86.964H253.772C253.604 86.676 253.436 86.424 253.256 86.208L253.94 86.1C254.108 86.352 254.276 86.64 254.432 86.964H258.764V88.788H258.14V87.528H255.704V88.356H257.564V88.872H255.704V89.724H257.336V90.228H255.704V91.104H259.088V91.644H256.196ZM255.056 87.528H252.932V88.356H255.056V87.528ZM252.932 91.104H255.056V90.228H252.932V91.104ZM255.056 89.724V88.872H252.932V89.724H255.056ZM254.708 95.232C256.052 95.64 257.276 96.144 258.38 96.744L258.044 97.26C256.856 96.612 255.632 96.096 254.372 95.724L254.708 95.232ZM253.628 93.6L254.252 93.66C254.108 94.896 253.784 95.736 253.304 96.192C252.752 96.732 251.564 97.08 249.764 97.224L249.512 96.66C251.168 96.564 252.26 96.288 252.788 95.808C253.268 95.376 253.556 94.632 253.628 93.6ZM260.66 92.94H268.028V92.088H268.676V92.94H271.328V93.588H268.676V96.288C268.676 96.888 268.34 97.2 267.692 97.2H266.132L265.988 96.576C266.492 96.6 266.984 96.612 267.464 96.612C267.836 96.612 268.028 96.456 268.028 96.144V93.588H260.66V92.94ZM269.492 86.736V89.448H262.604V90.528C262.604 90.84 262.772 91.008 263.108 91.008H269.636C269.912 91.008 270.104 90.912 270.212 90.732C270.308 90.588 270.368 90.252 270.416 89.724L271.028 89.928C270.968 90.468 270.884 90.852 270.788 91.092C270.608 91.428 270.284 91.608 269.804 91.608H262.904C262.268 91.608 261.956 91.308 261.956 90.732V86.736H269.492ZM262.604 88.848H268.844V87.336H262.604V88.848ZM263.228 94.092C264.044 94.74 264.74 95.388 265.292 96.036L264.812 96.516C264.308 95.892 263.624 95.232 262.76 94.548L263.228 94.092ZM279.572 88.764C279.5 89.028 279.44 89.28 279.38 89.52C279.716 91.032 280.172 92.34 280.736 93.42C281.36 92.1 281.696 90.54 281.732 88.764H279.572ZM280.412 94.032C279.86 93.024 279.416 91.86 279.056 90.528C278.792 91.248 278.504 91.884 278.18 92.424L277.772 91.92C278.564 90.516 279.104 88.608 279.392 86.208L279.992 86.328C279.908 86.964 279.812 87.564 279.704 88.128H283.22V88.764H282.344C282.296 90.84 281.876 92.604 281.084 94.044C281.756 95.16 282.56 96.012 283.496 96.612L283.136 97.152C282.2 96.528 281.408 95.688 280.748 94.62C280.064 95.676 279.176 96.552 278.096 97.248L277.76 96.696C278.888 96 279.764 95.112 280.412 94.032ZM277.58 95.22V95.856C276.092 96.252 274.496 96.576 272.768 96.828L272.624 96.204C273.38 96.108 274.124 95.988 274.844 95.856V93.468H272.972V92.844H274.844V91.224H275.48V92.844H277.292V93.468H275.48V95.736C276.2 95.58 276.896 95.412 277.58 95.22ZM272.588 86.796H277.664V87.42H275.372C274.724 88.812 274.16 89.76 273.704 90.288C274.688 90.216 275.648 90.108 276.608 89.976C276.368 89.46 276.128 88.992 275.888 88.56L276.452 88.368C276.932 89.196 277.352 90.084 277.712 91.032L277.148 91.284C277.052 91.02 276.944 90.756 276.848 90.516C275.648 90.66 274.328 90.792 272.912 90.888L272.768 90.312C272.828 90.288 272.876 90.264 272.912 90.252C273.368 89.904 273.98 88.956 274.736 87.42H272.588V86.796ZM288.752 88.368V96.432H288.128V95.7H285.704V96.768H285.08V88.368H286.16C286.412 87.684 286.592 86.964 286.7 86.22L287.36 86.304C287.228 87.048 287.036 87.732 286.784 88.368H288.752ZM285.704 95.1H288.128V92.256H285.704V95.1ZM285.704 91.668H288.128V88.992H285.704V91.668ZM290.792 91.08C291.704 92.088 292.4 92.964 292.88 93.72L292.364 94.092C291.86 93.276 291.152 92.388 290.264 91.416L290.792 91.08ZM294.968 88.38C294.968 92.256 294.908 94.656 294.8 95.568C294.68 96.528 294.128 97.008 293.132 97.008C292.904 97.008 292.508 96.996 291.956 96.984L291.8 96.384C292.28 96.408 292.7 96.42 293.06 96.42C293.708 96.42 294.08 96.06 294.176 95.352C294.272 94.632 294.32 92.52 294.344 89.028H290.804C290.468 89.808 290.072 90.504 289.592 91.128L289.208 90.624C290.072 89.424 290.66 87.948 290.972 86.208L291.608 86.28C291.464 87.024 291.284 87.732 291.056 88.38H294.968ZM301.604 88.86H304.4C304.88 88.032 305.3 87.144 305.636 86.196L306.248 86.412C305.9 87.336 305.504 88.152 305.072 88.86H306.536V92.496H305.24V95.916C305.24 96.252 305.372 96.42 305.636 96.42H306.212C306.416 96.42 306.56 96.336 306.644 96.192C306.764 95.988 306.836 95.412 306.872 94.452L307.448 94.632C307.376 95.748 307.256 96.444 307.088 96.708C306.92 96.9 306.668 97.008 306.32 97.008H305.444C304.892 97.008 304.616 96.684 304.616 96.036V92.496H303.344C303.26 94.656 302.528 96.24 301.148 97.224L300.788 96.66C302.012 95.808 302.648 94.416 302.72 92.496H301.604V88.86ZM305.936 91.896V89.46H302.216V91.896H305.936ZM302.432 86.364C302.828 86.988 303.2 87.684 303.536 88.452L302.996 88.728C302.648 87.936 302.288 87.24 301.904 86.628L302.432 86.364ZM296.828 89.544H298.64V87.564C298.088 87.66 297.5 87.732 296.888 87.804L296.756 87.192C298.232 87.048 299.528 86.796 300.656 86.436L300.872 87.036C300.368 87.192 299.84 87.324 299.264 87.444V89.544H300.824V90.18H299.264V91.008C299.864 91.656 300.464 92.4 301.076 93.216L300.704 93.756C300.152 92.892 299.672 92.196 299.264 91.668V97.092H298.64V91.464C298.208 92.736 297.608 93.876 296.84 94.884L296.552 94.164C297.512 92.988 298.196 91.668 298.592 90.18H296.828V89.544ZM24.248 110.184L24.908 110.28C24.764 110.628 24.584 110.964 24.392 111.276H29.708V111.804C28.904 112.74 27.92 113.52 26.756 114.156C28.148 114.78 29.72 115.188 31.46 115.38L31.172 115.992C29.252 115.764 27.548 115.272 26.048 114.516C24.56 115.2 22.832 115.692 20.84 116.004L20.54 115.404C22.376 115.152 23.984 114.732 25.364 114.144C24.62 113.7 23.924 113.196 23.276 112.62C22.808 113.052 22.268 113.46 21.656 113.82L21.26 113.304C22.736 112.464 23.732 111.42 24.248 110.184ZM26.06 113.82C27.116 113.28 28.028 112.632 28.784 111.888H23.948C23.864 111.984 23.78 112.08 23.708 112.176C24.416 112.824 25.196 113.364 26.06 113.82ZM25.412 115.476H26.048C26.048 116.004 26 116.484 25.916 116.94H30.188C30.164 118.908 29.984 120.096 29.636 120.48C29.288 120.864 28.676 121.068 27.812 121.068C27.452 121.068 27.008 121.056 26.492 121.032L26.324 120.432C26.864 120.456 27.308 120.48 27.668 120.48C28.46 120.468 28.964 120.312 29.168 120C29.372 119.676 29.492 118.848 29.54 117.528H25.772C25.652 117.888 25.52 118.212 25.352 118.512C24.716 119.592 23.312 120.48 21.128 121.176L20.696 120.66C22.664 120.072 23.984 119.316 24.656 118.404C24.824 118.128 24.956 117.84 25.076 117.528H21.368V116.94H25.256C25.352 116.484 25.412 115.992 25.412 115.476ZM33.32 113.904H37.592V117.468H33.32V113.904ZM36.956 116.868V114.516H33.98V116.868H36.956ZM38.024 118.344V118.968C36.44 119.412 34.724 119.784 32.876 120.072L32.72 119.412C34.58 119.172 36.344 118.812 38.024 118.344ZM42.092 121.14C41.516 121.116 40.952 120.732 40.424 119.976C40.232 119.712 40.076 119.436 39.944 119.124C39.248 119.988 38.492 120.672 37.652 121.176L37.28 120.624C38.168 120.096 38.96 119.364 39.656 118.44C39.476 117.972 39.332 117.456 39.212 116.892C38.96 115.656 38.828 114.192 38.816 112.488H32.696V111.84H38.816V110.232H39.464V111.84H41.468C41.252 111.36 41.012 110.916 40.748 110.532L41.396 110.424C41.636 110.832 41.876 111.312 42.104 111.84H43.292V112.488H39.464C39.488 114.048 39.596 115.404 39.812 116.568C39.896 117 39.992 117.396 40.112 117.78C40.832 116.64 41.432 115.26 41.924 113.64L42.5 113.952C41.924 115.788 41.216 117.312 40.376 118.536C40.508 118.884 40.664 119.196 40.832 119.484C41.264 120.12 41.66 120.444 42.02 120.444C42.356 120.444 42.644 119.724 42.884 118.284L43.424 118.644C43.124 120.3 42.68 121.14 42.092 121.14ZM49.76 110.232H50.24C51.776 112.032 53.552 113.46 55.568 114.504L55.22 115.104C53.18 114.012 51.44 112.584 50 110.82C48.68 112.476 46.916 113.916 44.732 115.128L44.396 114.516C46.544 113.364 48.332 111.936 49.76 110.232ZM53.708 116.436V121.152H53.072V120.372H46.928V121.152H46.292V116.436H53.708ZM46.928 119.748H53.072V117.06H46.928V119.748ZM46.904 114.096H53.096V114.732H46.904V114.096ZM56.876 112.068H58.664V110.352H59.312V112.068H61.004V112.692H59.312V114.48C59.312 114.612 59.3 114.744 59.3 114.876H61.172V115.5H59.276C59.252 115.848 59.216 116.184 59.168 116.508C59.864 117.204 60.572 117.984 61.292 118.86L60.92 119.4C60.2 118.416 59.576 117.66 59.06 117.12C58.724 118.872 58.04 120.24 57.02 121.212L56.528 120.78C57.752 119.628 58.46 117.876 58.628 115.5H56.72V114.876H58.652C58.652 114.744 58.664 114.612 58.664 114.48V112.692H56.876V112.068ZM66.5 110.772V117.264H65.864V111.384H62.468V117.264H61.832V110.772H66.5ZM66.248 121.02H65.288C64.712 121.02 64.436 120.708 64.436 120.096V117.372H65.048V119.976C65.048 120.288 65.192 120.444 65.48 120.444H66.14C66.38 120.444 66.56 120.372 66.656 120.252C66.8 120.084 66.884 119.604 66.932 118.812L67.496 119.004C67.424 119.952 67.292 120.54 67.088 120.768C66.908 120.936 66.632 121.02 66.248 121.02ZM63.86 112.524H64.472V114.588C64.448 116.364 64.124 117.792 63.524 118.86C62.924 119.856 61.952 120.636 60.596 121.2L60.248 120.66C61.568 120.108 62.516 119.364 63.08 118.404C63.584 117.432 63.836 116.16 63.86 114.588V112.524ZM71.924 112.992C72.68 113.916 73.364 114.792 73.988 115.632C74.528 114.684 74.948 113.652 75.248 112.536L75.896 112.656C75.524 113.976 75.032 115.164 74.42 116.22C75.176 117.276 75.812 118.26 76.34 119.16L75.764 119.568C75.26 118.68 74.684 117.78 74.036 116.844C73.28 117.972 72.368 118.944 71.288 119.76L70.844 119.22C71.948 118.38 72.872 117.384 73.616 116.244C72.944 115.308 72.2 114.336 71.384 113.328L71.924 112.992ZM70.004 110.748H77.6V115.488C77.6 117.552 77.672 118.872 77.84 119.46C77.984 120.024 78.176 120.312 78.404 120.312C78.596 120.3 78.764 119.7 78.896 118.5L79.472 118.776C79.352 119.664 79.196 120.276 79.016 120.636C78.848 120.912 78.668 121.056 78.464 121.056C77.936 121.056 77.552 120.672 77.312 119.928C77.06 119.196 76.94 117.72 76.94 115.488V111.384H70.652V115.332C70.628 117.648 70.136 119.592 69.188 121.152L68.648 120.72C69.512 119.292 69.956 117.492 70.004 115.332V110.748ZM81.116 110.808H84.488V111.312C84.128 112.44 83.708 113.604 83.216 114.804C83.96 115.836 84.368 116.808 84.428 117.708C84.416 118.164 84.296 118.5 84.056 118.704C83.744 118.956 83.204 119.088 82.412 119.088L82.208 118.44C82.352 118.464 82.46 118.476 82.556 118.476C83.036 118.452 83.372 118.38 83.54 118.26C83.696 118.152 83.78 117.972 83.78 117.708C83.78 116.868 83.372 115.932 82.556 114.9C83.108 113.604 83.528 112.44 83.84 111.408H81.764V121.176H81.116V110.808ZM86.024 113.772H89.708V114.372H86.024V113.772ZM84.296 120.084H88.484C89.096 118.776 89.624 117.156 90.08 115.224L90.716 115.392C90.284 117.156 89.756 118.716 89.132 120.084H91.352V120.708H84.296V120.084ZM85.556 115.692C86 116.7 86.384 117.852 86.72 119.148L86.156 119.292C85.856 118.104 85.472 116.964 85.004 115.884L85.556 115.692ZM87.464 115.2C87.824 116.184 88.136 117.3 88.424 118.56L87.86 118.704C87.608 117.552 87.296 116.448 86.912 115.392L87.464 115.2ZM87.536 110.292H88.136C88.808 111.852 89.972 113.232 91.604 114.42L91.244 114.96C89.72 113.88 88.58 112.536 87.836 110.94C86.948 112.68 85.82 114.012 84.476 114.948L84.14 114.432C85.604 113.364 86.744 111.984 87.536 110.292ZM95 118.368C95.408 118.368 95.756 118.5 96.056 118.776C96.344 119.052 96.488 119.4 96.488 119.808C96.488 120.216 96.344 120.552 96.056 120.84C95.756 121.104 95.408 121.248 95 121.248C94.592 121.248 94.232 121.104 93.944 120.84C93.656 120.564 93.512 120.216 93.512 119.808C93.512 119.388 93.656 119.04 93.944 118.776C94.232 118.5 94.592 118.368 95 118.368ZM95 118.872C94.724 118.872 94.496 118.956 94.316 119.148C94.124 119.316 94.028 119.544 94.028 119.808C94.028 120.072 94.124 120.288 94.316 120.468C94.496 120.648 94.724 120.744 95 120.744C95.264 120.744 95.492 120.648 95.684 120.468C95.876 120.288 95.972 120.072 95.972 119.808C95.972 119.544 95.876 119.328 95.684 119.148C95.492 118.956 95.264 118.872 95 118.872ZM32.06 157.578C31.988 157.83 31.934 158.064 31.862 158.316C32.258 160.098 32.744 161.664 33.338 163.014C33.878 161.43 34.184 159.612 34.256 157.578H32.06ZM32.474 164.94C31.898 163.752 31.394 162.42 30.962 160.944C30.692 161.538 30.404 162.096 30.116 162.6L28.946 161.142C29.936 159.162 30.602 156.516 30.944 153.204L32.78 153.528C32.672 154.32 32.564 155.058 32.438 155.76H36.938V157.578H35.948C35.84 160.476 35.318 162.942 34.364 164.994C35.228 166.434 36.254 167.568 37.442 168.378L36.398 169.908C35.282 169.08 34.292 168 33.446 166.668C32.6 167.928 31.556 169.008 30.332 169.89L29.36 168.306C30.656 167.442 31.7 166.326 32.474 164.94ZM23.96 161.556L25.724 161.772C25.616 162.042 25.526 162.312 25.436 162.564H29.054V164.076C28.748 165.12 28.208 166.056 27.416 166.848C28.118 167.154 28.802 167.478 29.468 167.838L28.46 169.314C27.776 168.9 26.948 168.468 25.976 168.018C24.788 168.774 23.312 169.368 21.53 169.836L20.666 168.27C21.962 167.982 23.078 167.604 24.032 167.172C23.312 166.866 22.538 166.56 21.746 166.254C22.178 165.534 22.556 164.832 22.88 164.166H21.098V162.564H23.6C23.726 162.204 23.852 161.88 23.96 161.556ZM25.724 166.146C26.462 165.57 27.02 164.904 27.398 164.166H24.734C24.5 164.634 24.248 165.084 23.996 165.516C24.572 165.696 25.148 165.912 25.724 166.146ZM22.862 153.474C23.24 154.14 23.582 154.86 23.87 155.634L22.538 156.228C22.178 155.364 21.8 154.608 21.404 153.942L22.862 153.474ZM27.92 153.456L29.234 154.086C28.874 154.842 28.424 155.58 27.866 156.3L26.552 155.634C27.128 154.896 27.596 154.176 27.92 153.456ZM21.134 156.498H24.482V153.24H26.21V156.498H29.27V158.136H26.21V158.172C27.146 158.55 28.1 158.982 29.072 159.468L28.1 160.944C27.344 160.35 26.714 159.882 26.21 159.54V161.43H24.482V158.604C23.87 159.828 22.934 160.89 21.638 161.826L20.702 160.314C21.872 159.648 22.736 158.928 23.276 158.136H21.134V156.498ZM40.97 169.71H39.44L39.044 167.946C39.494 168.018 39.926 168.072 40.34 168.072C40.718 168.072 40.916 167.838 40.916 167.388V163.752C40.304 163.968 39.71 164.184 39.098 164.382L38.612 162.528C39.386 162.348 40.16 162.132 40.916 161.88V158.28H38.972V156.462H40.916V153.276H42.752V156.462H44.282V158.28H42.752V161.142C43.256 160.908 43.742 160.674 44.21 160.422V162.258C43.706 162.51 43.22 162.744 42.752 162.978V167.856C42.752 169.08 42.158 169.71 40.97 169.71ZM46.658 161.952C46.442 164.958 45.758 167.604 44.624 169.908L43.148 168.594C44.318 166.308 44.912 163.356 44.93 159.756V153.78H54.794V158.55H51.554V160.242H55.19V161.952H51.554V163.68H54.398V169.872H52.67V169.134H48.62V169.872H46.892V163.68H49.718V161.952H46.658ZM49.718 158.55H46.748V159.756C46.748 159.918 46.73 160.08 46.73 160.242H49.718V158.55ZM48.62 167.478H52.67V165.336H48.62V167.478ZM52.958 155.49H46.748V156.894H52.958V155.49ZM72.182 164.094H62.93V162.51H70.364V161.664H63.326V160.08H70.364V159.216H63.596V158.298C63.452 158.406 63.308 158.496 63.182 158.586L62.12 157.2C61.796 158.136 61.454 159.09 61.094 160.062C61.958 161.736 62.426 163.176 62.498 164.4C62.498 165.264 62.354 165.894 62.066 166.29C61.598 166.758 60.824 166.992 59.726 167.01L59.096 165.12C59.51 165.174 59.852 165.21 60.104 165.21C60.32 165.174 60.482 165.102 60.572 164.994C60.644 164.886 60.68 164.688 60.68 164.4C60.68 163.194 60.212 161.844 59.276 160.35C59.978 158.568 60.536 156.966 60.95 155.544H59.06V169.89H57.224V153.78H62.786V155.256C62.588 155.868 62.39 156.462 62.174 157.074C63.812 155.994 64.91 154.698 65.486 153.15L67.358 153.384C67.25 153.708 67.124 154.014 66.98 154.302H70.976V155.652C70.526 156.39 70.076 157.038 69.626 157.596H72.182V164.094ZM66.026 155.904C65.558 156.516 65.036 157.074 64.46 157.596H67.592C68.006 157.11 68.438 156.552 68.87 155.904H66.026ZM72.092 164.49C72.65 165.606 73.136 166.812 73.568 168.09L72.002 168.792C71.552 167.352 71.048 166.092 70.508 164.994L72.092 164.49ZM63.056 164.904L64.676 165.246C64.334 166.812 63.848 168.162 63.236 169.296L61.688 168.306C62.318 167.226 62.768 166.092 63.056 164.904ZM69.338 169.728H66.782C65.63 169.728 65.072 169.044 65.072 167.676V164.76H66.8V167.316C66.8 167.82 66.962 168.072 67.322 168.072H69.05C69.194 168.072 69.32 168 69.41 167.874C69.518 167.73 69.59 167.316 69.626 166.596L71.228 167.136C71.102 168.396 70.886 169.152 70.598 169.386C70.31 169.602 69.896 169.728 69.338 169.728ZM68.51 164.238C69.122 164.976 69.608 165.624 69.95 166.182L68.564 167.136C68.222 166.524 67.754 165.84 67.16 165.084L68.51 164.238ZM88.76 160.494C89.714 163.086 90.56 166.038 91.316 169.386L89.444 169.872C89.3 169.224 89.174 168.594 89.03 168C86.69 168.432 84.17 168.828 81.47 169.224L81.128 167.424C81.632 167.28 81.92 167.082 82.01 166.812L85.61 153.726L87.482 153.978L83.846 167.01C85.682 166.74 87.266 166.47 88.598 166.218C88.148 164.454 87.644 162.726 87.086 161.07L88.76 160.494ZM75.116 157.866H78.104V155.814C77.276 155.922 76.43 156.012 75.566 156.084L75.17 154.284C77.762 154.104 80.066 153.762 82.1 153.258L82.748 154.986C81.884 155.202 80.966 155.382 79.994 155.544V157.866H82.694V159.684H79.994V160.188C80.84 160.98 81.704 161.862 82.568 162.834L81.524 164.418C80.93 163.428 80.426 162.618 79.994 162.006V169.818H78.104V162.492C77.42 163.95 76.574 165.282 75.566 166.506L74.72 164.346C76.196 162.978 77.276 161.412 77.96 159.684H75.116V157.866ZM96.5 156.732C96.896 156.732 97.22 156.858 97.508 157.146C97.778 157.416 97.922 157.758 97.922 158.154C97.922 158.55 97.778 158.874 97.508 159.144C97.22 159.414 96.896 159.558 96.5 159.558C96.104 159.558 95.762 159.414 95.492 159.144C95.222 158.874 95.096 158.55 95.096 158.154C95.096 157.758 95.222 157.416 95.492 157.146C95.762 156.858 96.104 156.732 96.5 156.732ZM96.5 163.32C96.896 163.32 97.22 163.446 97.508 163.734C97.778 164.004 97.922 164.346 97.922 164.742C97.922 165.138 97.778 165.462 97.508 165.732C97.22 166.002 96.896 166.146 96.5 166.146C96.104 166.146 95.762 166.002 95.492 165.732C95.222 165.462 95.096 165.138 95.096 164.742C95.096 164.346 95.222 164.004 95.492 163.734C95.762 163.446 96.104 163.32 96.5 163.32ZM22.436 186.276V188.388C22.436 188.448 22.424 188.508 22.424 188.58H25.724V186.276H22.436ZM22.388 189.192C22.268 190.752 21.812 192.036 21.032 193.044L20.552 192.6C21.344 191.508 21.752 190.116 21.776 188.436V182.748H30.536V191.724C30.536 192.504 30.14 192.9 29.36 192.9H27.98L27.812 192.264C28.292 192.288 28.736 192.3 29.144 192.3C29.636 192.3 29.888 192.024 29.888 191.484V189.192H26.372V192.768H25.724V189.192H22.388ZM29.888 188.58V186.276H26.372V188.58H29.888ZM29.888 185.676V183.384H26.372V185.676H29.888ZM25.724 183.384H22.436V185.676H25.724V183.384ZM41.732 184.404H34.628V186.996H41.732V184.404ZM34.628 187.632C34.58 189.792 34.004 191.664 32.912 193.224L32.42 192.78C33.452 191.388 33.98 189.6 33.992 187.416V183.756H37.952C37.736 183.204 37.496 182.712 37.232 182.28L37.916 182.16C38.156 182.628 38.384 183.156 38.6 183.756H42.392V187.632H34.628ZM44.732 183.732H49.82C49.604 183.192 49.352 182.7 49.076 182.268L49.784 182.148C50.048 182.604 50.288 183.132 50.516 183.732H55.28V184.344H44.732V183.732ZM51.836 184.872C53.168 185.94 54.284 187.008 55.184 188.088L54.704 188.556C53.888 187.536 52.772 186.456 51.38 185.304L51.836 184.872ZM52.124 187.092L52.724 187.356C52.136 188.484 51.404 189.468 50.528 190.284C51.848 191.28 53.468 192.024 55.388 192.528L55.004 193.128C53.012 192.576 51.356 191.772 50.036 190.728C48.692 191.856 47.036 192.672 45.068 193.176L44.672 192.6C46.616 192.096 48.236 191.34 49.532 190.308C48.608 189.492 47.864 188.568 47.288 187.512L47.852 187.188C48.404 188.22 49.136 189.108 50.024 189.876C50.888 189.084 51.596 188.148 52.124 187.092ZM48.092 184.872L48.572 185.304C47.66 186.492 46.532 187.524 45.188 188.412L44.768 187.872C46.088 187.02 47.192 186.024 48.092 184.872ZM60.224 186.78H58.424V182.712H65.636V186.78H60.932C60.692 187.164 60.392 187.536 60.044 187.884H66.5C66.464 189.156 66.392 190.176 66.296 190.956C66.176 191.724 65.984 192.264 65.732 192.576C65.48 192.876 65.072 193.044 64.508 193.068H63.032L62.876 192.444C63.332 192.468 63.776 192.48 64.196 192.48C64.82 192.48 65.24 192.228 65.444 191.736C65.648 191.232 65.78 190.14 65.852 188.484H64.508C63.5 190.824 61.832 192.372 59.528 193.14L59.168 192.6C61.352 191.88 62.924 190.512 63.86 188.484H62.072C61.256 189.84 59.888 190.908 57.944 191.688L57.524 191.184C59.36 190.488 60.644 189.588 61.388 188.484H59.36C58.76 188.952 58.04 189.372 57.224 189.732L56.864 189.168C58.4 188.544 59.528 187.74 60.224 186.78ZM64.988 186.204V185.016H59.06V186.204H64.988ZM59.06 184.464H64.988V183.276H59.06V184.464ZM75.824 184.764C75.752 185.016 75.692 185.256 75.632 185.484C75.956 186.972 76.376 188.268 76.904 189.348C77.444 188.04 77.732 186.516 77.768 184.764H75.824ZM76.604 189.996C76.076 188.988 75.656 187.812 75.32 186.492C75.08 187.14 74.816 187.704 74.528 188.208L74.12 187.704C74.852 186.336 75.344 184.5 75.608 182.184L76.256 182.304C76.172 182.952 76.076 183.552 75.968 184.128H79.232V184.764H78.368C78.32 186.828 77.948 188.568 77.252 190.008C77.9 191.148 78.68 192.024 79.568 192.636L79.196 193.164C78.308 192.54 77.564 191.688 76.94 190.608C76.352 191.616 75.596 192.468 74.66 193.14L74.312 192.6C75.272 191.916 76.04 191.052 76.604 189.996ZM70.904 187.8L71.528 187.872C71.432 188.136 71.336 188.388 71.24 188.628H73.808V189.156C73.52 189.996 73.028 190.728 72.356 191.328C72.98 191.604 73.592 191.904 74.168 192.216L73.82 192.732C73.244 192.396 72.584 192.06 71.864 191.736C71.06 192.324 70.052 192.792 68.852 193.14L68.54 192.6C69.596 192.3 70.496 191.916 71.228 191.46C70.676 191.22 70.088 190.98 69.476 190.752C69.812 190.2 70.1 189.684 70.34 189.192H68.804V188.628H70.592C70.712 188.34 70.808 188.064 70.904 187.8ZM71.756 191.076C72.428 190.536 72.908 189.912 73.208 189.192H70.988C70.772 189.648 70.52 190.092 70.256 190.5C70.772 190.68 71.276 190.872 71.756 191.076ZM69.62 182.496C69.92 182.964 70.184 183.468 70.424 184.02L69.932 184.236C69.68 183.648 69.404 183.12 69.092 182.664L69.62 182.496ZM73.436 182.424L73.916 182.652C73.676 183.192 73.364 183.72 72.992 184.248L72.512 183.996C72.896 183.468 73.208 182.94 73.436 182.424ZM68.84 184.584H71.216V182.244H71.828V184.584H74.096V185.172H71.828V185.316C72.5 185.688 73.196 186.108 73.892 186.588L73.544 187.104C72.872 186.552 72.296 186.12 71.828 185.808V187.536H71.216V185.172H71.18C70.796 186.132 70.064 186.972 68.96 187.692L68.624 187.152C69.644 186.576 70.328 185.916 70.688 185.172H68.84V184.584ZM81.968 193.056H80.948L80.816 192.444C81.128 192.468 81.44 192.492 81.74 192.492C82.064 192.492 82.232 192.312 82.232 191.952V188.736C81.728 188.928 81.224 189.096 80.708 189.252L80.54 188.616C81.116 188.472 81.68 188.304 82.232 188.1V185.232H80.732V184.596H82.232V182.268H82.88V184.596H84.104V185.232H82.88V187.848C83.288 187.668 83.684 187.476 84.068 187.272V187.908C83.684 188.112 83.288 188.304 82.88 188.472V192.108C82.88 192.732 82.568 193.056 81.968 193.056ZM85.436 187.704C85.292 189.78 84.812 191.604 84.008 193.164L83.504 192.72C84.392 191.088 84.836 188.976 84.848 186.408V182.772H91.064V185.52H88.748V187.092H91.388V187.704H88.748V189.336H90.824V193.164H90.224V192.54H86.636V193.164H86.036V189.336H88.1V187.704H85.436ZM88.1 185.52H85.484V186.408C85.484 186.648 85.472 186.876 85.472 187.092H88.1V185.52ZM86.636 191.94H90.224V189.936H86.636V191.94ZM90.428 183.384H85.484V184.932H90.428V183.384ZM95.192 182.184L95.804 182.46C95.504 183.384 95.132 184.248 94.7 185.052V193.2H94.052V186.12C93.632 186.732 93.176 187.308 92.672 187.86L92.468 187.188C93.728 185.712 94.64 184.044 95.192 182.184ZM103.052 193.14C101.72 192.228 100.616 191.256 99.74 190.2C98.768 191.4 97.592 192.384 96.2 193.152L95.78 192.624C97.208 191.856 98.384 190.872 99.32 189.672C97.976 187.884 97.208 185.88 97.016 183.672H96.416V183.036H102.524V183.624C102.104 186.024 101.3 188.04 100.112 189.696C101 190.764 102.128 191.748 103.496 192.636L103.052 193.14ZM99.692 189.168C100.748 187.644 101.468 185.808 101.852 183.672H97.64C97.784 185.712 98.468 187.536 99.692 189.168ZM106.436 186.276V188.388C106.436 188.448 106.424 188.508 106.424 188.58H109.724V186.276H106.436ZM106.388 189.192C106.268 190.752 105.812 192.036 105.032 193.044L104.552 192.6C105.344 191.508 105.752 190.116 105.776 188.436V182.748H114.536V191.724C114.536 192.504 114.14 192.9 113.36 192.9H111.98L111.812 192.264C112.292 192.288 112.736 192.3 113.144 192.3C113.636 192.3 113.888 192.024 113.888 191.484V189.192H110.372V192.768H109.724V189.192H106.388ZM113.888 188.58V186.276H110.372V188.58H113.888ZM113.888 185.676V183.384H110.372V185.676H113.888ZM109.724 183.384H106.436V185.676H109.724V183.384ZM117.476 182.748H126.44V183.384H122.432V186.9H127.268V187.548H122.432V191.952C122.432 192.684 122.048 193.056 121.304 193.056H119.468L119.324 192.42C119.936 192.444 120.524 192.468 121.088 192.468C121.544 192.468 121.784 192.24 121.784 191.784V187.548H116.732V186.9H121.784V183.384H117.476V182.748ZM134.348 182.244H134.96V193.164H134.348V190.464H131.876V189.864H134.348V187.596H132.548V186.996H134.348V184.812H132.38V184.212H134.348V182.244ZM129.872 193.056H128.744L128.612 192.432C128.972 192.456 129.308 192.48 129.644 192.48C129.992 192.48 130.172 192.312 130.172 191.976V188.88C129.692 189.072 129.224 189.252 128.744 189.408L128.576 188.76C129.128 188.604 129.668 188.424 130.172 188.232V185.232H128.816V184.596H130.172V182.268H130.82V184.596H131.96V185.232H130.82V187.956C131.252 187.752 131.672 187.536 132.08 187.296V187.956C131.672 188.184 131.252 188.4 130.82 188.592V192.132C130.82 192.744 130.496 193.056 129.872 193.056ZM136.604 182.244H137.228V184.212H139.364V184.812H137.228V186.996H139.136V187.596H137.228V189.864H139.448V190.464H137.228V193.164H136.604V182.244ZM144.14 192.384V193.128H143.492V188.808C142.7 189.072 141.848 189.324 140.96 189.54L140.636 188.928C142.772 188.46 144.536 187.86 145.928 187.116C145.376 186.636 144.608 186.12 143.648 185.568L144.212 185.22C145.196 185.808 145.94 186.336 146.468 186.804C147.788 186.012 148.748 185.076 149.348 184.02H144.668C143.864 184.788 142.82 185.472 141.524 186.072L141.104 185.508C143.168 184.608 144.56 183.504 145.292 182.208L145.988 182.292C145.784 182.676 145.544 183.036 145.256 183.396H150.092V183.984C149.156 185.724 147.488 187.128 145.076 188.196H150.404V193.128H149.744V192.384H144.14ZM149.744 191.748V188.808H144.14V191.748H149.744ZM156.584 190.596V191.208C155.48 191.772 154.232 192.228 152.84 192.564L152.756 191.916C154.22 191.58 155.492 191.136 156.584 190.596ZM154.808 182.232L155.42 182.472C154.784 184.104 154.148 185.388 153.5 186.312C154.124 186.216 154.748 186.096 155.372 185.94C155.588 185.532 155.804 185.112 156.044 184.668L156.62 184.884C155.492 187.032 154.556 188.532 153.824 189.372C154.748 189.156 155.672 188.844 156.584 188.436V189.048C155.348 189.564 154.16 189.924 153.008 190.128L152.84 189.504C152.96 189.456 153.056 189.396 153.14 189.324C153.656 188.772 154.28 187.86 155.012 186.576C154.28 186.732 153.56 186.864 152.852 186.984L152.696 186.372C152.792 186.324 152.888 186.24 152.972 186.12C153.668 185.016 154.28 183.72 154.808 182.232ZM157.016 187.368L156.872 186.78C156.932 186.756 156.98 186.744 157.016 186.72C157.436 186.408 158 185.568 158.708 184.188H156.512V183.576H159.68C159.512 183.072 159.308 182.628 159.092 182.22L159.74 182.1C159.956 182.532 160.148 183.024 160.34 183.576H163.088V184.188H159.392C158.792 185.364 158.276 186.216 157.82 186.72C159.056 186.624 160.292 186.468 161.54 186.252C161.24 185.82 160.916 185.388 160.568 184.944L161.06 184.62C161.912 185.7 162.56 186.624 163.004 187.416L162.5 187.788C162.32 187.464 162.116 187.128 161.9 186.792C160.4 187.032 158.768 187.224 157.016 187.368ZM158.06 187.956H158.708C158.648 189.456 158.456 190.56 158.132 191.256C157.784 192 157.208 192.624 156.404 193.14L155.984 192.624C156.716 192.168 157.232 191.616 157.544 190.98C157.844 190.344 158.012 189.336 158.06 187.956ZM162.248 192.948H161.348C160.724 192.948 160.424 192.624 160.424 192V187.86H161.036V191.892C161.036 192.18 161.144 192.336 161.36 192.36H162.212C162.524 192.348 162.716 192.216 162.776 191.952C162.848 191.628 162.884 191.064 162.884 190.272L163.448 190.476C163.448 191.58 163.364 192.276 163.22 192.552C163.064 192.792 162.74 192.924 162.248 192.948ZM168.332 185.904H171.656V182.208H172.328V185.904H175.496V186.552H172.328V193.2H171.656V186.552H168.332V185.904ZM165.848 182.352C166.676 182.988 167.372 183.624 167.948 184.26L167.504 184.716C166.976 184.116 166.268 183.468 165.38 182.796L165.848 182.352ZM164.564 185.964H167.036V191.484C167.516 191.1 168.032 190.644 168.596 190.104L168.764 190.776C168.044 191.484 167.264 192.12 166.424 192.672L166.172 192.096C166.316 191.952 166.4 191.808 166.4 191.664V186.6H164.564V185.964ZM178.184 190.8C178.424 190.8 178.604 190.896 178.748 191.088C178.868 191.268 178.94 191.52 178.94 191.832C178.94 192.312 178.796 192.72 178.52 193.068C178.244 193.404 177.884 193.632 177.428 193.752V193.272C177.74 193.176 177.98 193.008 178.148 192.768C178.304 192.552 178.388 192.3 178.388 192.012C178.34 192.024 178.268 192.036 178.148 192.036C177.98 192.036 177.836 191.976 177.716 191.856C177.596 191.736 177.536 191.592 177.536 191.424C177.536 191.232 177.584 191.076 177.704 190.968C177.824 190.848 177.98 190.8 178.184 190.8ZM193.676 182.268H194.324V183.984H198.536V184.632H194.324V186.948H199.172V187.596H195.02C195.824 189.18 197.264 190.584 199.328 191.832L198.86 192.42C196.748 190.98 195.296 189.372 194.48 187.596H194.324V193.14H193.676V187.596H193.52C192.644 189.576 191.144 191.196 189.02 192.468L188.648 191.856C190.664 190.752 192.116 189.336 192.992 187.596H188.828V186.948H193.676V184.632H189.548V183.984H193.676V182.268ZM207.644 189.18H205.184V188.556H210.776V189.18H208.292V192.12H211.328V192.768H204.632V192.12H207.644V189.18ZM208.328 185.796C207.428 186.6 206.3 187.272 204.956 187.8L204.536 187.272C206.852 186.384 208.46 185.112 209.348 183.468H205.112V182.832H210.14V183.348C209.792 184.092 209.336 184.776 208.76 185.376C209.816 186.048 210.716 186.732 211.436 187.416L210.98 187.884C210.308 187.212 209.42 186.516 208.328 185.796ZM204.488 190.656V191.256C203.372 191.832 202.1 192.3 200.684 192.648L200.6 192.012C202.088 191.676 203.384 191.22 204.488 190.656ZM202.712 182.256L203.336 182.496C202.7 184.092 202.064 185.352 201.44 186.276C202.088 186.204 202.736 186.108 203.396 185.988L204.116 184.656L204.716 184.872C203.516 187.044 202.544 188.544 201.776 189.384C202.7 189.216 203.612 188.976 204.512 188.664V189.264C203.3 189.672 202.124 189.948 200.984 190.104L200.804 189.504C200.924 189.456 201.032 189.384 201.116 189.312C201.656 188.772 202.304 187.872 203.048 186.6C202.304 186.72 201.56 186.816 200.816 186.912L200.66 186.312C200.756 186.264 200.852 186.192 200.936 186.084C201.62 184.992 202.208 183.72 202.712 182.256ZM215.984 187.632H216.62C216.524 189.252 216.236 190.44 215.744 191.196C215.204 191.976 214.304 192.648 213.032 193.212L212.624 192.696C213.8 192.204 214.628 191.604 215.132 190.908C215.624 190.224 215.912 189.132 215.984 187.632ZM221.588 192.936H219.956C219.248 192.936 218.9 192.576 218.9 191.856V187.5H219.536V191.724C219.536 192.12 219.74 192.324 220.148 192.324H221.456C221.864 192.324 222.152 192.228 222.32 192.06C222.536 191.82 222.68 191.136 222.752 190.008L223.364 190.2C223.268 191.472 223.076 192.264 222.776 192.576C222.536 192.816 222.14 192.936 221.588 192.936ZM220.076 183.576C220.988 184.836 221.84 186.204 222.62 187.68L222.008 187.992C221.744 187.488 221.492 186.996 221.228 186.54C218.972 186.78 216.464 186.96 213.704 187.08L213.584 186.48C214.544 185.976 215.66 184.56 216.944 182.22L217.544 182.424C216.56 184.2 215.6 185.544 214.64 186.456C216.896 186.348 218.984 186.18 220.892 185.964C220.448 185.208 219.992 184.512 219.512 183.864L220.076 183.576ZM229.928 184.512C229.496 185.388 228.956 186.132 228.308 186.732L227.888 186.228C228.956 185.232 229.676 183.888 230.048 182.184L230.696 182.304C230.552 182.88 230.396 183.408 230.204 183.888H235.1V184.512H232.484V187.62H235.544V188.256H232.484V193.188H231.848V188.256H228.188V187.62H231.848V184.512H229.928ZM225.788 182.352C226.628 182.988 227.324 183.624 227.888 184.26L227.444 184.716C226.916 184.116 226.208 183.468 225.32 182.796L225.788 182.352ZM224.576 185.964H226.976V191.436C227.432 191.064 227.948 190.62 228.5 190.092L228.668 190.776C227.948 191.472 227.18 192.084 226.364 192.636L226.112 192.048C226.256 191.916 226.34 191.772 226.34 191.628V186.6H224.576V185.964ZM236.96 182.916H247.04V183.552H243.116C242.888 184.08 242.624 184.584 242.336 185.064V193.2H241.664V186.048C240.524 187.56 238.988 188.88 237.056 190.032L236.624 189.48C239.42 187.848 241.34 185.868 242.396 183.552H236.96V182.916ZM243.836 186.096C245.24 187.212 246.416 188.328 247.376 189.456L246.872 189.96C246.008 188.88 244.844 187.752 243.38 186.552L243.836 186.096ZM251.864 186.54H256.172V190.584H251.864V186.54ZM255.536 189.972V187.152H252.5V189.972H255.536ZM253.304 182.196L253.976 182.292C253.832 182.916 253.616 183.504 253.34 184.044H258.74V192.072C258.74 192.756 258.404 193.104 257.744 193.104H255.908L255.728 192.444L257.528 192.468C257.888 192.468 258.08 192.288 258.08 191.928V184.68H250.016V193.152H249.356V184.044H252.644C252.944 183.456 253.16 182.844 253.304 182.196ZM265.76 186.072H261.728V185.46H270.308V188.004H266.408V189.336H270.716C270.716 190.716 270.632 191.58 270.464 191.928C270.284 192.324 269.9 192.528 269.3 192.54C268.796 192.54 268.292 192.528 267.812 192.528L267.656 191.904C268.208 191.928 268.724 191.94 269.192 191.94C269.576 191.94 269.828 191.784 269.936 191.484C270.008 191.244 270.056 190.716 270.056 189.912H266.408V193.188H265.76V189.912H265.604C264.836 191.088 263.348 192.084 261.14 192.924L260.78 192.336C262.82 191.64 264.2 190.824 264.908 189.912H261.524L262.052 187.404H265.76V186.072ZM265.76 188.004H262.604L262.28 189.336H265.76V188.004ZM266.408 187.404H269.648V186.072H266.408V187.404ZM262.316 183.696C262.004 184.152 261.656 184.584 261.26 184.98L260.696 184.62C261.488 183.876 262.064 183.048 262.436 182.112L263.072 182.244C262.952 182.544 262.808 182.832 262.664 183.108H266.024V183.696H263.828C264.176 184.104 264.452 184.488 264.656 184.848L264.068 185.052C263.792 184.596 263.468 184.14 263.108 183.696H262.316ZM267.344 183.672C267.068 184.152 266.756 184.596 266.396 184.992L265.832 184.632C266.528 183.888 267.044 183.048 267.38 182.112L267.992 182.244C267.884 182.532 267.776 182.82 267.656 183.084H271.328V183.672H268.964C269.312 184.104 269.588 184.5 269.792 184.86L269.204 185.076C268.94 184.596 268.628 184.128 268.268 183.672H267.344ZM273.5 183.204H282.524V183.84H273.5V183.204ZM274.316 187.368H281.696V188.016H274.316V187.368ZM272.6 191.844H283.4V192.492H272.6V191.844ZM284.852 184.056H290.096C289.844 183.48 289.532 182.928 289.172 182.424L289.796 182.196C290.144 182.712 290.468 183.336 290.756 184.056H295.268V184.692H288.896C288.872 185.184 288.836 185.928 288.776 186.924C288.776 186.96 288.764 186.996 288.764 187.044H293.768C293.744 189.264 293.672 190.716 293.54 191.412C293.336 192.492 292.76 193.044 291.812 193.08C291.428 193.08 290.96 193.068 290.42 193.044L290.228 192.444C290.828 192.468 291.332 192.492 291.74 192.492C292.436 192.456 292.856 191.964 293 191.028C293.072 190.452 293.108 189.336 293.108 187.668H288.692C288.548 188.664 288.26 189.576 287.828 190.404C287.228 191.412 286.4 192.336 285.368 193.188L284.888 192.732C286.16 191.652 287.024 190.644 287.468 189.708C287.876 188.772 288.104 187.728 288.176 186.576C288.212 185.724 288.236 185.1 288.248 184.692H284.852V184.056ZM303.668 182.22H304.316V183.804H307.172V184.128C307.028 184.824 306.812 185.508 306.524 186.156L305.912 185.988C306.14 185.52 306.332 184.992 306.476 184.416H304.316V186.996H306.392V187.56C306.068 188.856 305.492 189.96 304.652 190.872C305.432 191.532 306.392 192.108 307.532 192.6L307.16 193.164C305.984 192.612 305.012 192 304.232 191.304C303.392 192.072 302.372 192.696 301.148 193.176L300.74 192.672C301.964 192.204 302.984 191.604 303.776 190.872C302.828 189.912 302.192 188.82 301.868 187.62H301.388C301.304 189.768 300.776 191.616 299.804 193.164L299.3 192.732C300.248 191.244 300.74 189.36 300.788 187.056V183.804H303.668V182.22ZM303.668 184.416H301.4V186.996H303.668V184.416ZM304.196 190.452C304.928 189.636 305.444 188.7 305.732 187.62H302.48C302.792 188.688 303.368 189.636 304.196 190.452ZM297.992 193.056H296.9L296.768 192.444C297.116 192.468 297.452 192.492 297.764 192.492C298.04 192.492 298.184 192.324 298.184 192V188.808C297.692 189 297.2 189.18 296.696 189.336L296.528 188.7C297.104 188.544 297.656 188.364 298.184 188.16V185.22H296.672V184.608H298.184V182.268H298.832V184.608H300.044V185.22H298.832V187.896C299.264 187.704 299.696 187.488 300.104 187.26V187.92C299.684 188.148 299.264 188.352 298.832 188.544V192.156C298.832 192.756 298.544 193.056 297.992 193.056ZM21.404 211.164H24.956V213.444H23.744V214.416H25.124V214.92H23.744V216.108C24.32 216 24.872 215.892 25.4 215.772V216.312C24.128 216.6 22.64 216.876 20.924 217.14L20.768 216.576L21.476 216.48V214.02H22.016V216.396L23.168 216.216V213.444H21.404V211.164ZM24.404 212.952V211.656H21.956V212.952H24.404ZM30.5 214.596V217.212H29.924V216.78H26.9V217.212H26.324V214.596H30.5ZM26.9 216.276H29.924V215.088H26.9V216.276ZM27.524 210.66L28.028 210.78C27.932 210.996 27.812 211.188 27.668 211.38H30.596V211.764C30.2 212.34 29.636 212.844 28.916 213.3C29.66 213.624 30.548 213.876 31.58 214.056L31.244 214.536C30.104 214.32 29.144 214.008 28.352 213.624C27.56 214.032 26.612 214.38 25.52 214.668L25.16 214.2C26.18 213.948 27.056 213.648 27.8 213.312C27.344 213.024 26.96 212.712 26.648 212.376C26.348 212.592 26.024 212.796 25.664 212.988L25.304 212.544C26.396 212.016 27.14 211.392 27.524 210.66ZM27.044 212.064C27.392 212.424 27.824 212.748 28.352 213.036C29 212.676 29.528 212.28 29.912 211.848H27.272C27.188 211.92 27.116 211.992 27.044 212.064ZM21.476 206.484H30.512V207.012H26.312V207.816H30.92V209.712H30.296V208.32H26.312V210.612H25.688V208.32H21.704V209.712H21.08V207.816H25.688V207.012H21.476V206.484ZM22.484 209.016H24.932V209.4H22.484V209.016ZM22.472 209.988H24.92V210.372H22.472V209.988ZM27.068 209.016H29.504V209.4H27.068V209.016ZM27.068 209.988H29.528V210.372H27.068V209.988ZM35 214.368C35.408 214.368 35.756 214.5 36.056 214.776C36.344 215.052 36.488 215.4 36.488 215.808C36.488 216.216 36.344 216.552 36.056 216.84C35.756 217.104 35.408 217.248 35 217.248C34.592 217.248 34.232 217.104 33.944 216.84C33.656 216.564 33.512 216.216 33.512 215.808C33.512 215.388 33.656 215.04 33.944 214.776C34.232 214.5 34.592 214.368 35 214.368ZM35 214.872C34.724 214.872 34.496 214.956 34.316 215.148C34.124 215.316 34.028 215.544 34.028 215.808C34.028 216.072 34.124 216.288 34.316 216.468C34.496 216.648 34.724 216.744 35 216.744C35.264 216.744 35.492 216.648 35.684 216.468C35.876 216.288 35.972 216.072 35.972 215.808C35.972 215.544 35.876 215.328 35.684 215.148C35.492 214.956 35.264 214.872 35 214.872ZM23.744 257.772H27.248V255.684C26.312 255.78 25.292 255.828 24.212 255.828L23.996 255.24C26.648 255.228 28.82 254.928 30.5 254.34L30.836 254.892C29.996 255.204 29.012 255.432 27.908 255.6V257.772H31.448V258.408H27.908V260.508H30.644V265.164H29.996V264.492H25.196V265.2H24.548V260.508H27.248V258.408H23.744V257.772ZM25.196 263.868H29.996V261.12H25.196V263.868ZM21.464 254.436C22.268 254.964 22.94 255.504 23.492 256.032L23.048 256.476C22.544 255.96 21.872 255.42 21.02 254.856L21.464 254.436ZM21.188 257.292C22.004 257.892 22.688 258.492 23.24 259.092L22.784 259.548C22.28 258.972 21.584 258.372 20.72 257.736L21.188 257.292ZM22.784 260.46L23.372 260.7C22.832 262.236 22.232 263.676 21.572 265.032L20.936 264.756C21.644 263.352 22.256 261.924 22.784 260.46ZM33.116 255.144H37.388V255.756H33.116V255.144ZM32.636 258.372H37.856V259.02H35.036C34.496 261 34.028 262.38 33.632 263.16C34.7 262.968 35.756 262.668 36.812 262.272C36.476 261.576 36.152 260.94 35.816 260.364L36.368 260.1C36.956 261.132 37.508 262.248 38.036 263.472L37.46 263.76C37.316 263.424 37.184 263.1 37.052 262.812C35.768 263.268 34.376 263.628 32.876 263.904L32.72 263.292C32.78 263.268 32.828 263.256 32.852 263.232C33.236 262.728 33.752 261.324 34.4 259.02H32.636V258.372ZM39.788 254.256H40.436V256.764H43.076C43.076 260.388 43.016 262.644 42.908 263.508C42.788 264.528 42.236 265.044 41.24 265.044C41.024 265.044 40.664 265.032 40.16 265.008L40.004 264.444C40.46 264.456 40.844 264.468 41.18 264.468C41.804 264.468 42.176 264.072 42.284 263.304C42.38 262.632 42.428 260.652 42.452 257.388H40.436V257.568C40.4 261.036 39.56 263.568 37.916 265.176L37.424 264.744C38.972 263.256 39.764 260.856 39.788 257.568V257.388H38.096V256.764H39.788V254.256ZM51.08 260.544C50.864 261 50.612 261.384 50.312 261.708L49.928 261.24C50.456 260.652 50.816 259.86 51.008 258.876L51.56 258.984C51.488 259.332 51.404 259.656 51.308 259.944H52.604V258.78H53.24V259.944H55.136V260.544H53.24V262.188H55.388V262.8H53.24V265.2H52.604V262.8H49.952V262.188H52.604V260.544H51.08ZM51.74 255.588H50.048V255.012H54.944C54.932 256.572 54.824 257.508 54.632 257.82C54.44 258.132 54.092 258.288 53.6 258.288C53.324 258.288 52.988 258.276 52.592 258.264L52.436 257.7C52.844 257.724 53.192 257.736 53.456 257.748C53.816 257.736 54.056 257.616 54.152 257.388C54.236 257.16 54.296 256.56 54.32 255.588H52.352C52.232 256.188 52.052 256.692 51.812 257.124C51.5 257.616 51.044 258.06 50.444 258.468L50.06 257.976C50.624 257.64 51.044 257.232 51.32 256.764C51.512 256.416 51.656 256.02 51.74 255.588ZM45.872 259.944V261.312C45.872 261.432 45.86 261.552 45.86 261.672H47.132V259.944H45.872ZM45.824 262.236C45.728 263.436 45.44 264.444 44.984 265.26L44.552 264.852C45.032 263.94 45.272 262.776 45.296 261.36V257.436C45.2 257.544 45.116 257.652 45.02 257.748L44.624 257.268C45.368 256.452 45.968 255.408 46.412 254.16L47.012 254.304C46.904 254.604 46.796 254.892 46.676 255.168H48.896V255.636C48.596 256.236 48.296 256.74 48.008 257.136H49.544V264.276C49.544 264.816 49.28 265.092 48.752 265.092H47.996L47.852 264.54C48.116 264.552 48.356 264.564 48.572 264.564C48.836 264.564 48.98 264.396 48.98 264.084V262.236H47.684V265.032H47.132V262.236H45.824ZM47.324 257.136C47.636 256.716 47.924 256.248 48.2 255.732H46.4C46.136 256.236 45.836 256.704 45.524 257.136H47.324ZM48.98 261.672V259.944H47.684V261.672H48.98ZM48.98 259.368V257.712H47.684V259.368H48.98ZM47.132 257.712H45.872V259.368H47.132V257.712ZM56.696 258.732H58.772V255.372C58.124 255.48 57.452 255.576 56.756 255.648L56.636 255.06C58.292 254.904 59.756 254.628 61.028 254.244L61.232 254.808C60.668 254.976 60.068 255.12 59.42 255.252V258.732H61.196V259.344H59.42V260.016C60.008 260.568 60.608 261.18 61.208 261.852L60.836 262.392C60.284 261.672 59.804 261.096 59.42 260.664V265.176H58.772V260.472C58.292 261.6 57.62 262.608 56.768 263.508L56.504 262.86C57.548 261.828 58.292 260.664 58.724 259.344H56.696V258.732ZM61.46 262.404H64.148V260.88H61.904V260.268H64.148V259.02H64.796V260.268H67.052V260.88H64.796V262.404H67.4V263.028H64.796V265.164H64.148V263.028H61.46V262.404ZM60.668 255.828L61.22 255.972C61.028 256.812 60.788 257.544 60.5 258.18L59.972 257.988C60.236 257.412 60.476 256.692 60.668 255.828ZM57.332 256.068C57.644 256.668 57.92 257.304 58.148 257.976L57.632 258.204C57.368 257.46 57.092 256.812 56.792 256.248L57.332 256.068ZM62.216 255.348H61.736V254.748H66.812V255.312C66.476 256.272 65.864 257.076 65 257.736C65.66 258.096 66.464 258.42 67.412 258.696L67.1 259.248C66.044 258.936 65.168 258.564 64.448 258.12C63.704 258.576 62.804 258.96 61.76 259.26L61.436 258.708C62.396 258.444 63.212 258.12 63.884 257.724C63.02 257.052 62.468 256.26 62.216 255.348ZM64.424 257.376C65.216 256.8 65.792 256.128 66.14 255.348H62.84C63.044 256.116 63.572 256.8 64.424 257.376ZM71 256.824C71.168 256.824 71.324 256.884 71.444 257.004C71.552 257.112 71.612 257.256 71.612 257.436C71.612 257.604 71.552 257.748 71.444 257.868C71.324 257.988 71.168 258.048 71 258.048C70.82 258.048 70.676 257.988 70.556 257.868C70.436 257.748 70.388 257.604 70.388 257.436C70.388 257.256 70.436 257.112 70.556 257.004C70.676 256.884 70.82 256.824 71 256.824ZM71 261.216C71.168 261.216 71.324 261.276 71.444 261.396C71.552 261.504 71.612 261.648 71.612 261.828C71.612 261.996 71.552 262.14 71.444 262.26C71.324 262.38 71.168 262.44 71 262.44C70.82 262.44 70.676 262.38 70.556 262.26C70.436 262.14 70.388 261.996 70.388 261.828C70.388 261.648 70.436 261.504 70.556 261.396C70.676 261.276 70.82 261.216 71 261.216ZM83.744 257.772H87.248V255.684C86.312 255.78 85.292 255.828 84.212 255.828L83.996 255.24C86.648 255.228 88.82 254.928 90.5 254.34L90.836 254.892C89.996 255.204 89.012 255.432 87.908 255.6V257.772H91.448V258.408H87.908V260.508H90.644V265.164H89.996V264.492H85.196V265.2H84.548V260.508H87.248V258.408H83.744V257.772ZM85.196 263.868H89.996V261.12H85.196V263.868ZM81.464 254.436C82.268 254.964 82.94 255.504 83.492 256.032L83.048 256.476C82.544 255.96 81.872 255.42 81.02 254.856L81.464 254.436ZM81.188 257.292C82.004 257.892 82.688 258.492 83.24 259.092L82.784 259.548C82.28 258.972 81.584 258.372 80.72 257.736L81.188 257.292ZM82.784 260.46L83.372 260.7C82.832 262.236 82.232 263.676 81.572 265.032L80.936 264.756C81.644 263.352 82.256 261.924 82.784 260.46ZM93.116 255.144H97.388V255.756H93.116V255.144ZM92.636 258.372H97.856V259.02H95.036C94.496 261 94.028 262.38 93.632 263.16C94.7 262.968 95.756 262.668 96.812 262.272C96.476 261.576 96.152 260.94 95.816 260.364L96.368 260.1C96.956 261.132 97.508 262.248 98.036 263.472L97.46 263.76C97.316 263.424 97.184 263.1 97.052 262.812C95.768 263.268 94.376 263.628 92.876 263.904L92.72 263.292C92.78 263.268 92.828 263.256 92.852 263.232C93.236 262.728 93.752 261.324 94.4 259.02H92.636V258.372ZM99.788 254.256H100.436V256.764H103.076C103.076 260.388 103.016 262.644 102.908 263.508C102.788 264.528 102.236 265.044 101.24 265.044C101.024 265.044 100.664 265.032 100.16 265.008L100.004 264.444C100.46 264.456 100.844 264.468 101.18 264.468C101.804 264.468 102.176 264.072 102.284 263.304C102.38 262.632 102.428 260.652 102.452 257.388H100.436V257.568C100.4 261.036 99.56 263.568 97.916 265.176L97.424 264.744C98.972 263.256 99.764 260.856 99.788 257.568V257.388H98.096V256.764H99.788V254.256ZM109.22 261.144H106.064C105.92 262.68 105.536 264.012 104.912 265.14L104.456 264.684C105.14 263.412 105.5 261.924 105.548 260.208V255.288C106.916 255.12 108.02 254.796 108.86 254.292L109.292 254.772C108.452 255.264 107.396 255.6 106.124 255.78V257.352H109.22V261.144ZM106.124 258V260.208C106.124 260.316 106.112 260.424 106.112 260.532H108.608V258H106.124ZM110.984 258.636V260.52C110.96 262.572 110.684 264.12 110.156 265.164L109.568 264.864C110.096 263.832 110.372 262.392 110.396 260.52V255.18C112.064 255.12 113.48 254.832 114.644 254.328L114.968 254.904C113.78 255.384 112.448 255.66 110.984 255.732V258H115.424V258.636H113.996V265.176H113.36V258.636H110.984ZM120.08 258.42V259.908H125.072V258.42H120.08ZM125.072 260.496H120.08V261.96H125.072V260.496ZM125.072 262.548H120.08V265.152H119.468V258.636C118.748 259.56 117.908 260.412 116.948 261.18L116.54 260.64C118.124 259.38 119.348 257.916 120.188 256.26H116.852V255.636H120.488C120.704 255.156 120.884 254.664 121.04 254.16L121.7 254.232C121.556 254.724 121.388 255.192 121.208 255.636H127.28V256.26H120.932C120.656 256.812 120.356 257.34 120.032 257.844H125.696V264.324C125.696 264.852 125.384 265.116 124.784 265.128H123.44L123.284 264.54C123.752 264.552 124.184 264.564 124.58 264.564C124.904 264.564 125.072 264.42 125.072 264.132V262.548ZM135.08 260.544C134.864 261 134.612 261.384 134.312 261.708L133.928 261.24C134.456 260.652 134.816 259.86 135.008 258.876L135.56 258.984C135.488 259.332 135.404 259.656 135.308 259.944H136.604V258.78H137.24V259.944H139.136V260.544H137.24V262.188H139.388V262.8H137.24V265.2H136.604V262.8H133.952V262.188H136.604V260.544H135.08ZM135.74 255.588H134.048V255.012H138.944C138.932 256.572 138.824 257.508 138.632 257.82C138.44 258.132 138.092 258.288 137.6 258.288C137.324 258.288 136.988 258.276 136.592 258.264L136.436 257.7C136.844 257.724 137.192 257.736 137.456 257.748C137.816 257.736 138.056 257.616 138.152 257.388C138.236 257.16 138.296 256.56 138.32 255.588H136.352C136.232 256.188 136.052 256.692 135.812 257.124C135.5 257.616 135.044 258.06 134.444 258.468L134.06 257.976C134.624 257.64 135.044 257.232 135.32 256.764C135.512 256.416 135.656 256.02 135.74 255.588ZM129.872 259.944V261.312C129.872 261.432 129.86 261.552 129.86 261.672H131.132V259.944H129.872ZM129.824 262.236C129.728 263.436 129.44 264.444 128.984 265.26L128.552 264.852C129.032 263.94 129.272 262.776 129.296 261.36V257.436C129.2 257.544 129.116 257.652 129.02 257.748L128.624 257.268C129.368 256.452 129.968 255.408 130.412 254.16L131.012 254.304C130.904 254.604 130.796 254.892 130.676 255.168H132.896V255.636C132.596 256.236 132.296 256.74 132.008 257.136H133.544V264.276C133.544 264.816 133.28 265.092 132.752 265.092H131.996L131.852 264.54C132.116 264.552 132.356 264.564 132.572 264.564C132.836 264.564 132.98 264.396 132.98 264.084V262.236H131.684V265.032H131.132V262.236H129.824ZM131.324 257.136C131.636 256.716 131.924 256.248 132.2 255.732H130.4C130.136 256.236 129.836 256.704 129.524 257.136H131.324ZM132.98 261.672V259.944H131.684V261.672H132.98ZM132.98 259.368V257.712H131.684V259.368H132.98ZM131.132 257.712H129.872V259.368H131.132V257.712ZM140.696 258.732H142.772V255.372C142.124 255.48 141.452 255.576 140.756 255.648L140.636 255.06C142.292 254.904 143.756 254.628 145.028 254.244L145.232 254.808C144.668 254.976 144.068 255.12 143.42 255.252V258.732H145.196V259.344H143.42V260.016C144.008 260.568 144.608 261.18 145.208 261.852L144.836 262.392C144.284 261.672 143.804 261.096 143.42 260.664V265.176H142.772V260.472C142.292 261.6 141.62 262.608 140.768 263.508L140.504 262.86C141.548 261.828 142.292 260.664 142.724 259.344H140.696V258.732ZM145.46 262.404H148.148V260.88H145.904V260.268H148.148V259.02H148.796V260.268H151.052V260.88H148.796V262.404H151.4V263.028H148.796V265.164H148.148V263.028H145.46V262.404ZM144.668 255.828L145.22 255.972C145.028 256.812 144.788 257.544 144.5 258.18L143.972 257.988C144.236 257.412 144.476 256.692 144.668 255.828ZM141.332 256.068C141.644 256.668 141.92 257.304 142.148 257.976L141.632 258.204C141.368 257.46 141.092 256.812 140.792 256.248L141.332 256.068ZM146.216 255.348H145.736V254.748H150.812V255.312C150.476 256.272 149.864 257.076 149 257.736C149.66 258.096 150.464 258.42 151.412 258.696L151.1 259.248C150.044 258.936 149.168 258.564 148.448 258.12C147.704 258.576 146.804 258.96 145.76 259.26L145.436 258.708C146.396 258.444 147.212 258.12 147.884 257.724C147.02 257.052 146.468 256.26 146.216 255.348ZM148.424 257.376C149.216 256.8 149.792 256.128 150.14 255.348H146.84C147.044 256.116 147.572 256.8 148.424 257.376ZM155.336 258.72V265.128H154.688V258.504C154.232 259.896 153.584 261.132 152.768 262.224L152.48 261.516C153.512 260.268 154.244 258.864 154.676 257.28H152.732V256.644H154.688V254.232H155.336V256.644H157.004V257.28H155.336V258.036C155.96 258.648 156.584 259.332 157.22 260.1L156.836 260.664C156.248 259.848 155.744 259.2 155.336 258.72ZM162.032 255.66H158.48C158.624 257.628 159.188 259.404 160.16 260.976C161.108 259.464 161.732 257.688 162.032 255.66ZM159.788 261.528C158.66 259.776 158.024 257.82 157.856 255.66H157.34V255.024H162.668V255.648C162.308 257.952 161.612 259.92 160.556 261.564C161.324 262.68 162.32 263.688 163.532 264.588L163.1 265.104C161.924 264.192 160.952 263.184 160.184 262.104C159.32 263.304 158.252 264.3 156.992 265.116L156.572 264.6C157.88 263.736 158.948 262.716 159.788 261.528ZM167.672 254.232H168.32V259.416C168.272 262.032 167.276 263.952 165.32 265.164L164.828 264.732C166.688 263.628 167.636 261.852 167.672 259.416V254.232ZM165.08 255.324H165.728V261.204H165.08V255.324ZM169.064 255.228H174.848V264.912H174.188V264.108H168.8V263.472H174.188V259.896H169.352V259.26H174.188V255.864H169.064V255.228ZM179.432 255.432H180.296L183.728 264H182.924L181.928 261.444H177.8L176.804 264H176L179.432 255.432ZM178.04 260.82H181.688L179.888 256.224H179.852L178.04 260.82ZM183.783 257.796H184.575L186.531 263.088L188.475 257.796H189.279L186.903 264H186.159L183.783 257.796ZM192.6 257.628C193.584 257.628 194.316 257.952 194.808 258.624C195.24 259.212 195.48 260.04 195.516 261.108H190.476C190.512 261.864 190.716 262.464 191.088 262.896C191.472 263.328 191.976 263.544 192.624 263.544C193.188 263.544 193.644 263.388 193.992 263.1C194.28 262.848 194.496 262.488 194.652 262.008H195.384C195.24 262.608 194.964 263.1 194.556 263.484C194.052 263.94 193.416 264.168 192.624 264.168C191.748 264.168 191.052 263.868 190.536 263.28C189.996 262.68 189.732 261.876 189.732 260.892C189.732 259.98 189.984 259.224 190.5 258.6C191.028 257.952 191.724 257.628 192.6 257.628ZM192.612 258.252C192 258.252 191.508 258.456 191.136 258.888C190.764 259.308 190.548 259.848 190.488 260.52H194.76C194.64 259.008 193.92 258.252 192.612 258.252ZM197.458 262.8C197.626 262.8 197.77 262.86 197.89 262.98C198.01 263.1 198.07 263.244 198.07 263.412C198.07 263.58 198.01 263.736 197.89 263.856C197.77 263.964 197.626 264.024 197.458 264.024C197.278 264.024 197.134 263.964 197.026 263.856C196.906 263.736 196.846 263.58 196.846 263.412C196.846 263.244 196.906 263.1 197.026 262.98C197.134 262.86 197.278 262.8 197.458 262.8ZM202.388 257.628C203.252 257.628 203.9 257.856 204.32 258.336C204.68 258.732 204.872 259.284 204.872 260.004V264H204.188V262.812C203.936 263.172 203.6 263.484 203.192 263.724C202.688 264.012 202.148 264.168 201.56 264.168C200.96 264.168 200.468 264.012 200.108 263.712C199.712 263.4 199.52 262.98 199.52 262.476C199.52 261.756 199.808 261.228 200.396 260.892C200.9 260.568 201.632 260.4 202.568 260.4L204.152 260.376V260.004C204.152 258.828 203.552 258.24 202.352 258.24C201.848 258.24 201.44 258.336 201.116 258.552C200.756 258.78 200.528 259.104 200.432 259.536L199.724 259.488C199.844 258.864 200.156 258.384 200.66 258.072C201.104 257.772 201.68 257.628 202.388 257.628ZM204.152 260.94L202.604 260.964C201.032 260.976 200.252 261.48 200.252 262.464C200.252 262.8 200.384 263.064 200.648 263.268C200.912 263.472 201.272 263.58 201.704 263.58C202.328 263.58 202.904 263.364 203.408 262.932C203.9 262.524 204.152 262.068 204.152 261.588V260.94ZM207.101 255.564C207.269 255.564 207.413 255.624 207.533 255.744C207.653 255.84 207.713 255.984 207.713 256.164C207.713 256.332 207.641 256.476 207.521 256.596C207.401 256.704 207.269 256.764 207.101 256.764C206.921 256.764 206.777 256.704 206.669 256.596C206.549 256.476 206.489 256.332 206.489 256.164C206.489 255.984 206.549 255.84 206.669 255.744C206.777 255.624 206.921 255.564 207.101 255.564ZM206.741 257.796H207.461V264H206.741V257.796ZM219.45 255.396V257.736H218.802V256.044H210.354V257.724H209.706V255.396H214.302C214.086 254.94 213.858 254.544 213.594 254.184L214.278 254.064C214.518 254.46 214.746 254.904 214.962 255.396H219.45ZM217.758 257.424V260.244H211.998V261.66H218.31V265.176H217.662V264.66H211.998V265.188H211.35V257.424H217.758ZM211.998 264.084H217.662V262.224H211.998V264.084ZM211.998 259.68H217.122V258H211.998V259.68ZM221.43 256.056H226.674C226.422 255.48 226.11 254.928 225.75 254.424L226.374 254.196C226.722 254.712 227.046 255.336 227.334 256.056H231.846V256.692H225.474C225.45 257.184 225.414 257.928 225.354 258.924C225.354 258.96 225.342 258.996 225.342 259.044H230.346C230.322 261.264 230.25 262.716 230.118 263.412C229.914 264.492 229.338 265.044 228.39 265.08C228.006 265.08 227.538 265.068 226.998 265.044L226.806 264.444C227.406 264.468 227.91 264.492 228.318 264.492C229.014 264.456 229.434 263.964 229.578 263.028C229.65 262.452 229.686 261.336 229.686 259.668H225.27C225.126 260.664 224.838 261.576 224.406 262.404C223.806 263.412 222.978 264.336 221.946 265.188L221.466 264.732C222.738 263.652 223.602 262.644 224.046 261.708C224.454 260.772 224.682 259.728 224.754 258.576C224.79 257.724 224.814 257.1 224.826 256.692H221.43V256.056ZM237.798 261.144H234.642C234.498 262.68 234.114 264.012 233.49 265.14L233.034 264.684C233.718 263.412 234.078 261.924 234.126 260.208V255.288C235.494 255.12 236.598 254.796 237.438 254.292L237.87 254.772C237.03 255.264 235.974 255.6 234.702 255.78V257.352H237.798V261.144ZM234.702 258V260.208C234.702 260.316 234.69 260.424 234.69 260.532H237.186V258H234.702ZM239.562 258.636V260.52C239.538 262.572 239.262 264.12 238.734 265.164L238.146 264.864C238.674 263.832 238.95 262.392 238.974 260.52V255.18C240.642 255.12 242.058 254.832 243.222 254.328L243.546 254.904C242.358 255.384 241.026 255.66 239.562 255.732V258H244.002V258.636H242.574V265.176H241.938V258.636H239.562ZM248.658 258.42V259.908H253.65V258.42H248.658ZM253.65 260.496H248.658V261.96H253.65V260.496ZM253.65 262.548H248.658V265.152H248.046V258.636C247.326 259.56 246.486 260.412 245.526 261.18L245.118 260.64C246.702 259.38 247.926 257.916 248.766 256.26H245.43V255.636H249.066C249.282 255.156 249.462 254.664 249.618 254.16L250.278 254.232C250.134 254.724 249.966 255.192 249.786 255.636H255.858V256.26H249.51C249.234 256.812 248.934 257.34 248.61 257.844H254.274V264.324C254.274 264.852 253.962 265.116 253.362 265.128H252.018L251.862 264.54C252.33 264.552 252.762 264.564 253.158 264.564C253.482 264.564 253.65 264.42 253.65 264.132V262.548ZM259.578 262.368C259.986 262.368 260.334 262.5 260.634 262.776C260.922 263.052 261.066 263.4 261.066 263.808C261.066 264.216 260.922 264.552 260.634 264.84C260.334 265.104 259.986 265.248 259.578 265.248C259.17 265.248 258.81 265.104 258.522 264.84C258.234 264.564 258.09 264.216 258.09 263.808C258.09 263.388 258.234 263.04 258.522 262.776C258.81 262.5 259.17 262.368 259.578 262.368ZM259.578 262.872C259.302 262.872 259.074 262.956 258.894 263.148C258.702 263.316 258.606 263.544 258.606 263.808C258.606 264.072 258.702 264.288 258.894 264.468C259.074 264.648 259.302 264.744 259.578 264.744C259.842 264.744 260.07 264.648 260.262 264.468C260.454 264.288 260.55 264.072 260.55 263.808C260.55 263.544 260.454 263.328 260.262 263.148C260.07 262.956 259.842 262.872 259.578 262.872Z" fill="white"/>
<path d="M0 12C0 5.37258 5.37258 0 12 0H108.313C111.082 0 113.014 2.74593 112.078 5.35209L102.021 33.3521C101.451 34.9406 99.9445 36 98.2566 36H0V12Z" fill="url(#paint2_linear_6478_334)"/>
<path d="M28.1038 12.3223L29.3518 10.8343C29.7891 11.037 30.2478 11.277 30.7278 11.5543C31.2184 11.8316 31.6771 12.1143 32.1038 12.4023C32.5411 12.6903 32.8984 12.9676 33.1758 13.2343L31.7838 14.8983C31.5384 14.621 31.2078 14.3276 30.7918 14.0183C30.3864 13.709 29.9438 13.405 29.4638 13.1063C28.9944 12.8076 28.5411 12.5463 28.1038 12.3223ZM27.0318 18.8183H35.3518V20.6423H27.0318V18.8183ZM25.8958 23.5543H36.2798V25.3783H25.8958V23.5543ZM26.4718 14.3543H35.9438V16.1783H26.4718V14.3543ZM30.1198 14.9623H32.1198V24.3703H30.1198V14.9623ZM22.2478 12.3543L23.2878 10.9463C23.6398 11.0636 24.0078 11.2183 24.3918 11.4103C24.7758 11.5916 25.1438 11.789 25.4958 12.0023C25.8478 12.205 26.1358 12.4023 26.3598 12.5943L25.2238 14.1623C25.0211 13.9596 24.7491 13.7516 24.4078 13.5383C24.0771 13.3143 23.7198 13.101 23.3358 12.8983C22.9624 12.685 22.5998 12.5036 22.2478 12.3543ZM21.1758 16.7223L22.1678 15.2663C22.5198 15.3836 22.8931 15.5276 23.2878 15.6983C23.6824 15.8583 24.0558 16.0396 24.4078 16.2423C24.7704 16.4343 25.0691 16.6156 25.3038 16.7863L24.2318 18.4023C24.0291 18.2103 23.7518 18.013 23.3998 17.8103C23.0478 17.6076 22.6798 17.4103 22.2958 17.2183C21.9118 17.0156 21.5384 16.8503 21.1758 16.7223ZM21.8638 24.4183C22.1518 24.013 22.4718 23.5383 22.8238 22.9943C23.1758 22.4396 23.5331 21.853 23.8958 21.2343C24.2584 20.605 24.5944 19.981 24.9038 19.3623L26.3118 20.6423C26.0344 21.197 25.7358 21.7676 25.4158 22.3543C25.1064 22.941 24.7864 23.517 24.4558 24.0823C24.1358 24.6476 23.8158 25.1916 23.4958 25.7143L21.8638 24.4183ZM41.3198 20.1303H48.2638V19.4263H41.3198V20.1303ZM41.3198 18.3063H48.2638V17.6183H41.3198V18.3063ZM50.1678 16.4503V21.3143H39.4958V16.4503H50.1678ZM48.8558 13.2343C48.6851 13.5436 48.5251 13.8263 48.3758 14.0823C48.2264 14.3276 48.0931 14.541 47.9758 14.7223L46.2798 14.3543C46.3864 14.1303 46.4931 13.885 46.5998 13.6183C46.7064 13.341 46.7918 13.0956 46.8558 12.8823L48.8558 13.2343ZM42.5998 12.8823C42.7278 13.1063 42.8398 13.357 42.9358 13.6343C43.0424 13.901 43.1224 14.1356 43.1758 14.3383L41.3518 14.7543C41.3091 14.541 41.2398 14.2903 41.1438 14.0023C41.0584 13.7143 40.9624 13.4583 40.8558 13.2343L42.5998 12.8823ZM45.6878 10.8663V12.8023H43.7678V10.8663H45.6878ZM51.7198 14.3703V15.8583H37.8158V14.3703H51.7198ZM50.8718 11.7303V13.2183H38.5838V11.7303H50.8718ZM40.9038 22.4183C40.6798 23.0263 40.3918 23.613 40.0398 24.1783C39.6984 24.733 39.2451 25.2023 38.6798 25.5863L37.1758 24.5623C37.6771 24.253 38.1091 23.853 38.4718 23.3623C38.8344 22.8716 39.1064 22.365 39.2878 21.8423L40.9038 22.4183ZM49.6718 21.6503C50.0024 21.917 50.3384 22.221 50.6798 22.5623C51.0211 22.9036 51.3358 23.245 51.6238 23.5863C51.9118 23.9276 52.1358 24.253 52.2958 24.5623L50.7118 25.4903C50.5624 25.2023 50.3491 24.877 50.0718 24.5143C49.8051 24.1623 49.5064 23.8103 49.1758 23.4583C48.8451 23.0956 48.5144 22.7703 48.1838 22.4823L49.6718 21.6503ZM44.1038 20.9463C44.4131 21.0743 44.7331 21.2236 45.0638 21.3943C45.4051 21.565 45.7251 21.741 46.0238 21.9223C46.3331 22.093 46.5838 22.2636 46.7758 22.4343L45.6718 23.5543C45.4904 23.3836 45.2504 23.2076 44.9518 23.0263C44.6638 22.8343 44.3544 22.6476 44.0238 22.4663C43.6931 22.2743 43.3784 22.109 43.0798 21.9703L44.1038 20.9463ZM43.1758 23.7143C43.1758 23.9276 43.2291 24.061 43.3358 24.1143C43.4531 24.157 43.6931 24.1783 44.0558 24.1783C44.1411 24.1783 44.2798 24.1783 44.4718 24.1783C44.6638 24.1783 44.8771 24.1783 45.1118 24.1783C45.3464 24.1783 45.5651 24.1783 45.7678 24.1783C45.9811 24.1783 46.1411 24.1783 46.2478 24.1783C46.4504 24.1783 46.5998 24.1516 46.6958 24.0983C46.7918 24.0343 46.8611 23.9116 46.9038 23.7303C46.9571 23.5383 46.9944 23.2556 47.0158 22.8823C47.2078 23.0103 47.4638 23.133 47.7838 23.2503C48.1144 23.357 48.4024 23.4316 48.6478 23.4743C48.5838 24.0823 48.4718 24.5463 48.3118 24.8663C48.1518 25.197 47.9224 25.421 47.6238 25.5383C47.3358 25.6663 46.9358 25.7303 46.4238 25.7303C46.3384 25.7303 46.2051 25.7303 46.0238 25.7303C45.8531 25.7303 45.6611 25.7303 45.4478 25.7303C45.2344 25.7303 45.0211 25.7303 44.8078 25.7303C44.5944 25.7303 44.3971 25.7303 44.2158 25.7303C44.0451 25.7303 43.9171 25.7303 43.8318 25.7303C43.1598 25.7303 42.6424 25.6716 42.2798 25.5543C41.9171 25.437 41.6664 25.229 41.5278 24.9303C41.3891 24.6423 41.3198 24.2476 41.3198 23.7463V22.0503H43.1758V23.7143ZM59.7038 10.8663H61.6558V24.0663C61.6558 24.5356 61.5918 24.8876 61.4638 25.1223C61.3358 25.357 61.1171 25.5436 60.8078 25.6823C60.4984 25.7996 60.1144 25.8743 59.6558 25.9063C59.2078 25.9383 58.6424 25.9543 57.9598 25.9543C57.9171 25.7303 57.8318 25.469 57.7038 25.1703C57.5758 24.8823 57.4478 24.637 57.3198 24.4343C57.5864 24.445 57.8531 24.4556 58.1198 24.4663C58.3864 24.4663 58.6264 24.4663 58.8398 24.4663C59.0638 24.4663 59.2184 24.4663 59.3038 24.4663C59.4531 24.4556 59.5544 24.4236 59.6078 24.3703C59.6718 24.317 59.7038 24.2156 59.7038 24.0663V10.8663ZM53.7198 11.9223H67.7998V13.4263H53.7198V11.9223ZM57.1918 15.2983V16.0503H64.2478V15.2983H57.1918ZM55.3518 14.0823H66.2158V17.2663H55.3518V14.0823ZM54.9678 17.9863H66.4878V24.2423H64.5358V19.2823H54.9678V17.9863ZM53.3518 19.9703H68.1678V21.4263H53.3518V19.9703ZM54.8398 22.1623H65.5918V23.5543H54.8398V22.1623ZM69.3198 12.5943H74.6638V14.4183H69.3198V12.5943ZM71.1758 13.3623H73.0798V21.3783H71.1758V13.3623ZM69.0478 21.1223C69.5064 21.0156 70.0398 20.8823 70.6478 20.7223C71.2558 20.5623 71.9118 20.3916 72.6158 20.2103C73.3198 20.029 74.0238 19.8423 74.7278 19.6503L74.9678 21.2503C74.0184 21.5916 73.0691 21.9276 72.1198 22.2583C71.1704 22.5783 70.3011 22.877 69.5118 23.1543L69.0478 21.1223ZM74.8718 11.4903H84.1518V13.2023H74.8718V11.4903ZM78.2958 12.2743L80.5998 12.5783C80.3544 13.0796 80.1038 13.5703 79.8478 14.0503C79.5918 14.5303 79.3678 14.941 79.1758 15.2823L77.4318 14.9143C77.6131 14.5196 77.7784 14.0823 77.9278 13.6023C78.0878 13.1116 78.2104 12.669 78.2958 12.2743ZM78.3438 16.7383H80.2798V20.0343C80.2798 20.589 80.1998 21.1436 80.0398 21.6983C79.8798 22.253 79.5971 22.7863 79.1918 23.2983C78.7971 23.8103 78.2371 24.2903 77.5118 24.7383C76.7864 25.1863 75.8638 25.5863 74.7438 25.9383C74.6691 25.7996 74.5571 25.6396 74.4078 25.4583C74.2691 25.277 74.1198 25.0956 73.9598 24.9143C73.8104 24.733 73.6611 24.5836 73.5118 24.4663C74.5891 24.1996 75.4478 23.8956 76.0878 23.5543C76.7278 23.2023 77.2078 22.829 77.5278 22.4343C77.8584 22.029 78.0771 21.6236 78.1838 21.2183C78.2904 20.8023 78.3438 20.397 78.3438 20.0023V16.7383ZM79.7198 23.3143L80.9038 22.1623C81.2878 22.3756 81.6931 22.6263 82.1198 22.9143C82.5571 23.1916 82.9731 23.4743 83.3678 23.7623C83.7731 24.0396 84.1038 24.2956 84.3598 24.5303L83.0798 25.8263C82.8451 25.5916 82.5358 25.3196 82.1518 25.0103C81.7784 24.7116 81.3731 24.413 80.9358 24.1143C80.5091 23.8156 80.1038 23.549 79.7198 23.3143ZM75.3198 14.4503H83.3518V21.9543H81.3838V16.1303H77.1918V22.0023H75.3198V14.4503Z" fill="white"/>
<defs>
<linearGradient id="paint0_linear_6478_334" x1="167.5" y1="9" x2="167.5" y2="312.018" gradientUnits="userSpaceOnUse">
<stop/>
<stop offset="1" stop-color="#1C0130"/>
</linearGradient>
<linearGradient id="paint1_linear_6478_334" x1="167.5" y1="9" x2="167.5" y2="289" gradientUnits="userSpaceOnUse">
<stop stop-color="#020103"/>
<stop offset="1" stop-color="#311645"/>
</linearGradient>
<linearGradient id="paint2_linear_6478_334" x1="3.66286e-08" y1="18.2353" x2="113.956" y2="15.7431" gradientUnits="userSpaceOnUse">
<stop stop-color="#413EFE"/>
<stop offset="1" stop-color="#9F38E5"/>
</linearGradient>
</defs>
</svg>
